<?xml version="1.0" standalone="no"?>
<!DOCTYPE svg PUBLIC "-//W3C//DTD SVG 20010904//EN"
 "http://www.w3.org/TR/2001/REC-SVG-20010904/DTD/svg10.dtd">
<svg version="1.0" xmlns="http://www.w3.org/2000/svg"
 width="1024.000000pt" height="1024.000000pt" viewBox="0 0 1024.000000 1024.000000"
 preserveAspectRatio="xMidYMid meet">
<metadata>
Created by potrace 1.16, written by Peter Selinger 2001-2019
</metadata>
<g transform="translate(0.000000,1024.000000) scale(0.100000,-0.100000)"
fill="#000000" stroke="none">
<path d="M4920 9269 c-739 -90 -1303 -479 -1649 -1140 -72 -137 -147 -332
-186 -480 l-27 -107 -87 -22 c-639 -168 -993 -365 -1120 -624 -59 -122 -66
-268 -18 -400 106 -288 450 -503 1061 -662 l61 -16 35 -72 c68 -138 199 -236
318 -238 l60 -1 42 -83 c151 -305 433 -508 894 -640 66 -19 174 -43 239 -54
66 -11 123 -22 126 -26 3 -3 -3 -12 -14 -20 -17 -13 -21 -12 -35 6 -15 20 -27
21 -163 23 -139 2 -147 1 -169 -20 -15 -16 -22 -34 -21 -59 1 -34 -2 -37 -45
-56 -299 -128 -542 -282 -728 -460 -97 -94 -100 -102 -59 -223 l24 -73 -23
-70 c-66 -192 -70 -323 -21 -584 l25 -137 -21 -78 c-40 -144 -24 -289 47 -440
36 -76 86 -123 130 -123 12 0 56 -21 99 -47 43 -25 110 -60 150 -78 l73 -31
-40 -105 c-91 -236 -109 -297 -125 -426 -9 -70 -16 -147 -15 -171 1 -46 31
-105 66 -134 20 -16 20 -17 2 -37 -14 -15 -20 -39 -22 -86 -3 -74 -12 -94 -66
-150 -21 -22 -40 -48 -44 -57 -3 -10 -9 -18 -14 -18 -24 0 -324 -55 -465 -85
-167 -36 -281 -70 -291 -86 -17 -28 210 -82 502 -119 85 -11 160 -20 167 -20
7 0 17 -10 22 -22 31 -70 138 -93 389 -85 197 7 286 17 414 49 77 18 94 19
215 8 223 -20 621 -24 918 -10 267 13 282 12 440 -8 255 -34 389 -44 517 -40
154 4 197 28 211 118 l6 35 150 7 c166 9 359 31 418 50 80 25 29 54 -202 115
-75 19 -196 48 -270 63 -98 21 -137 33 -144 46 -17 29 -82 97 -126 129 -46 34
-71 85 -64 131 3 19 -3 50 -15 78 l-21 45 31 33 c17 18 34 42 39 55 10 26 -2
73 -29 110 -15 22 -18 39 -15 83 7 72 -44 227 -133 411 -36 73 -63 133 -62
134 2 1 25 7 52 14 84 21 122 46 147 98 30 62 30 156 0 274 l-22 87 40 57 c45
65 74 135 89 216 6 30 44 128 85 219 122 268 140 327 141 445 1 73 -4 114 -18
153 -17 50 -17 57 -2 117 24 97 22 116 -21 159 -84 83 -420 294 -608 381 -140
64 -131 58 -138 103 -7 42 -45 84 -91 102 -40 15 -263 2 -282 -17 -10 -11 -18
-11 -34 -3 -25 13 -17 30 15 30 56 0 259 42 365 75 419 132 702 339 821 601
25 54 33 64 55 64 46 0 131 49 178 102 93 106 153 281 143 417 -3 42 -8 85
-12 96 -5 18 5 24 99 53 135 43 336 143 451 224 113 79 269 229 347 332 70 93
137 222 170 327 18 57 23 97 23 179 0 95 -3 111 -28 162 -83 170 -336 297
-822 413 -98 24 -342 68 -419 77 -33 3 -31 1 -86 129 -80 187 -231 437 -366
605 -285 354 -648 583 -1089 686 -103 24 -393 33 -525 17z m457 -59 c65 -11
172 -39 238 -61 511 -174 903 -541 1186 -1113 85 -171 93 -200 57 -191 -13 2
-113 13 -223 22 -273 24 -983 24 -1345 0 -506 -34 -854 -70 -1180 -121 -117
-19 -156 -22 -162 -13 -15 25 -23 129 -22 302 2 173 21 332 63 499 18 72 -7
22 -44 -89 -67 -201 -105 -427 -105 -627 l0 -117 -52 -10 c-339 -65 -414 -78
-420 -74 -32 19 37 387 120 642 17 52 27 90 22 85 -16 -16 -108 -208 -150
-313 -57 -144 -91 -281 -92 -368 l0 -73 -37 -10 c-60 -16 -101 -23 -101 -17 0
3 16 61 36 129 104 358 287 676 544 942 166 172 304 277 490 374 355 185 815
263 1177 202z m1228 -1405 c533 -40 962 -124 1210 -238 84 -38 225 -121 225
-131 0 -3 -26 4 -57 15 -90 31 -329 87 -464 109 -251 40 -390 51 -699 55
l-305 4 190 -14 c522 -39 941 -106 1215 -197 111 -36 260 -103 260 -116 0 -21
-15 -18 -84 13 -148 67 -394 136 -611 169 -285 44 -697 65 -1270 66 -1068 0
-2523 -134 -3350 -310 -149 -31 -160 -33 -155 -27 10 11 224 67 424 111 385
85 934 167 1546 232 174 18 215 30 70 20 -545 -39 -1032 -95 -1405 -162 -184
-33 -548 -115 -682 -154 -299 -86 -568 -223 -709 -360 -30 -29 -54 -48 -54
-43 0 6 17 36 38 69 78 119 241 243 465 353 274 134 610 224 1237 330 774 131
1232 181 1940 214 223 10 845 5 1025 -8z m-640 -614 c110 -82 189 -130 289
-176 70 -32 96 -55 63 -55 -22 0 -118 35 -172 63 -93 47 -241 169 -307 251
l-33 41 35 -28 c19 -16 76 -59 125 -96z m395 14 c112 -187 177 -343 326 -791
l146 -439 -5 -130 c-14 -340 -185 -643 -465 -823 -31 -19 -105 -59 -166 -88
-292 -139 -613 -208 -966 -207 -607 1 -1273 225 -1537 517 -191 211 -281 437
-314 794 -11 120 -11 125 11 173 25 53 35 60 45 29 14 -45 35 -18 120 155 63
129 115 281 143 419 12 54 25 103 30 108 5 5 24 2 46 -7 34 -15 43 -15 92 0
30 9 140 58 244 110 104 52 194 95 199 95 6 0 77 -36 158 -80 182 -97 355
-177 491 -224 109 -38 152 -44 152 -23 0 6 -29 83 -64 170 -34 86 -59 157 -55
157 5 0 30 -15 57 -34 205 -148 761 -349 1027 -371 l70 -6 -115 35 c-248 74
-474 175 -610 272 -76 55 -77 55 105 -26 164 -73 309 -122 530 -180 217 -56
252 -68 307 -102 26 -16 52 -26 59 -22 18 11 4 95 -26 153 -14 28 -21 51 -16
51 6 0 13 -4 16 -10 8 -13 42 -13 50 0 9 14 -26 119 -91 273 -72 170 -71 179
6 52z m470 -32 c32 -85 50 -215 50 -356 0 -72 -2 -128 -4 -126 -2 2 -9 76 -16
164 -13 174 -28 263 -60 346 -11 30 -20 56 -20 59 1 14 33 -41 50 -87z m-3383
-670 c3 -147 -1 -167 -18 -96 -17 73 -8 244 13 243 2 0 4 -66 5 -147z m-181
-304 l64 -32 0 -63 c0 -35 -2 -64 -5 -64 -2 0 -19 9 -37 20 -35 21 -74 26 -97
11 -10 -6 -3 -14 28 -32 23 -12 41 -27 41 -32 0 -4 -16 -23 -35 -41 -22 -21
-35 -43 -35 -59 0 -14 -3 -34 -7 -44 -4 -10 9 -1 29 20 64 67 91 42 107 -103
6 -53 13 -109 17 -126 7 -39 -4 -47 -63 -46 -138 3 -248 170 -248 377 0 108
21 170 71 215 46 40 88 39 170 -1z m3799 -71 c32 -28 44 -79 45 -183 0 -151
-53 -290 -145 -373 -49 -45 -99 -71 -112 -58 -3 3 2 45 11 93 8 48 19 125 22
171 7 83 15 98 34 62 16 -29 30 -25 30 9 0 17 -11 42 -25 59 l-25 30 67 43
c74 48 68 61 -18 35 l-51 -15 6 37 c3 20 6 49 6 64 0 20 7 29 28 36 48 18 99
14 127 -10z m-1116 -1630 c7 -79 20 -149 44 -233 68 -229 92 -346 68 -319 -10
11 -103 330 -124 429 -20 91 -31 216 -22 245 13 41 25 -1 34 -122z m-1262 97
c28 -19 63 -37 77 -41 25 -6 26 -5 20 25 -5 21 -3 31 6 31 22 0 194 -183 248
-264 29 -43 50 -81 48 -84 -3 -2 -16 2 -28 10 -40 26 -120 48 -174 48 -45 0
-196 -34 -246 -55 -14 -6 -22 3 -39 41 -59 136 -64 207 -19 277 16 26 35 47
42 47 7 0 36 -16 65 -35z m-362 -23 c6 -21 -9 -144 -26 -207 -41 -153 -198
-503 -220 -489 -16 10 -7 35 64 189 104 226 147 366 147 481 0 32 4 44 14 44
8 0 17 -8 21 -18z m748 -66 c42 -14 109 -32 148 -40 39 -8 73 -16 75 -19 2 -2
-19 -31 -48 -64 -29 -33 -66 -76 -81 -94 -19 -24 -30 -30 -34 -21 -10 25 -101
154 -130 186 -16 17 -50 55 -77 83 l-48 53 58 -30 c33 -16 94 -40 137 -54z
m424 -36 c3 0 26 16 50 36 24 20 46 34 48 32 2 -2 0 -20 -4 -41 -10 -41 -9
-42 19 -25 29 18 33 5 21 -65 -6 -35 -11 -87 -11 -115 0 -33 -4 -52 -12 -52
-6 0 -34 13 -62 29 -85 47 -150 64 -225 58 l-66 -5 115 110 115 109 3 -36 c2
-19 6 -35 9 -35z m-1267 11 c0 -57 -148 -421 -171 -421 -4 0 -6 17 -3 38 l5
37 -14 -30 c-19 -41 -43 -146 -67 -290 -11 -66 -20 -121 -20 -122 0 -7 -43 15
-101 52 -107 69 -263 228 -309 314 -11 22 -9 27 21 55 125 116 353 260 534
337 90 38 125 47 125 30z m1945 -80 c88 -44 234 -127 325 -186 91 -59 166
-108 168 -110 6 -6 -113 -176 -161 -232 -25 -29 -71 -75 -103 -104 -59 -51
-180 -129 -201 -129 -6 0 -19 35 -29 78 -15 61 -18 107 -16 217 5 208 -9 347
-33 323 -4 -4 -13 -51 -21 -104 -8 -54 -17 -100 -19 -102 -5 -5 -17 41 -60
219 -37 156 -43 209 -22 209 6 0 84 -36 172 -79z m-423 -153 c27 -79 65 -195
85 -258 45 -144 113 -317 194 -490 58 -125 63 -140 63 -205 -1 -199 -130 -277
-529 -320 -105 -12 -198 -16 -270 -12 -102 5 -206 24 -223 41 -9 9 -9 363 -1
676 8 267 19 320 87 426 42 65 154 174 178 174 9 0 82 -25 162 -55 171 -65
166 -67 176 52 7 84 15 127 24 119 3 -3 27 -70 54 -148z m-1193 1 c1 -8 7 -23
14 -33 13 -18 17 -18 113 5 60 14 132 23 184 23 88 1 121 -10 207 -67 l31 -21
-20 -40 c-54 -106 -60 -139 -70 -406 -6 -140 -9 -336 -7 -435 1 -99 3 -204 3
-234 l1 -54 -45 -13 c-69 -21 -139 -19 -335 10 -368 55 -526 105 -580 184 -35
51 -34 131 3 237 39 110 146 359 150 347 1 -5 -9 -44 -22 -88 -14 -43 -24 -80
-22 -81 6 -7 74 133 85 175 9 31 17 42 31 42 10 0 22 5 25 10 17 28 21 -2 17
-134 -4 -135 -3 -145 16 -164 62 -62 349 -105 448 -67 72 27 69 20 119 367 34
231 24 261 -91 291 -52 13 -110 17 -231 18 -90 0 -163 3 -163 6 0 3 26 52 58
109 l57 102 12 -36 c6 -21 12 -44 12 -53z m46 -168 c44 -6 117 -13 163 -16 93
-8 112 -20 112 -70 0 -29 -5 -35 -45 -54 -24 -11 -78 -30 -120 -41 -72 -19
-79 -20 -138 -4 -34 8 -88 27 -121 42 l-58 26 6 55 c4 30 12 59 19 63 16 10
86 10 182 -1z m2106 -126 c-62 -176 -224 -363 -379 -435 -75 -36 -92 -37 -92
-7 0 12 -3 32 -6 44 -5 18 2 26 48 49 87 44 164 101 234 172 60 61 93 105 180
242 28 43 29 44 32 19 2 -15 -6 -52 -17 -84z m-3168 -2 c85 -117 191 -205 335
-277 76 -38 77 -40 65 -109 -6 -38 -6 -39 -41 -32 -71 13 -155 66 -238 149
-111 111 -209 282 -191 330 4 9 8 16 10 16 1 0 28 -35 60 -77z m900 -63 c82
-36 196 -61 220 -48 12 6 55 19 97 28 41 9 84 21 94 25 17 8 19 5 12 -26 -4
-19 -11 -68 -17 -109 -16 -126 -32 -214 -41 -232 -23 -47 -192 -55 -343 -16
l-90 23 3 160 c3 144 8 215 17 215 1 0 23 -9 48 -20z m1507 -84 c0 -8 3 -23 6
-33 3 -10 -2 -7 -10 7 -18 30 -20 40 -6 40 6 0 10 -6 10 -14z m770 -114 c0
-121 -13 -172 -97 -382 -36 -91 -77 -205 -91 -255 -35 -130 -67 -192 -133
-256 -102 -101 -258 -155 -306 -106 -16 16 -16 17 9 17 38 0 134 37 165 64 15
13 27 32 28 43 1 19 -1 19 -36 -7 -41 -29 -115 -54 -144 -48 -13 2 -1 15 43
46 152 106 105 111 -65 7 -27 -17 -43 -22 -43 -14 0 7 27 54 60 104 57 87 96
163 87 171 -4 4 -40 -32 -135 -136 -32 -35 -43 -42 -53 -33 -23 22 10 92 69
151 88 86 126 107 196 107 l60 0 66 130 c36 72 93 173 127 225 35 52 88 137
119 187 31 51 60 90 65 87 5 -3 9 -49 9 -102z m-3163 1 c78 -105 129 -191 160
-268 23 -60 27 -84 26 -167 0 -94 -1 -98 -31 -133 -38 -42 -58 -79 -83 -153
-25 -74 -24 -76 12 -17 42 68 83 110 154 157 33 23 81 61 106 85 l46 45 12
-33 c6 -17 11 -33 11 -35 0 -1 -16 -8 -35 -14 -44 -14 -178 -102 -212 -138
-49 -52 -78 -137 -118 -346 -19 -95 -26 -156 -22 -192 4 -43 3 -52 -9 -47 -22
8 -82 139 -104 227 -25 101 -25 149 2 259 l21 88 -23 137 c-28 171 -37 373
-20 451 12 53 48 161 54 161 2 0 26 -30 53 -67z m2667 -281 c8 -52 8 -122 -1
-122 -6 0 -64 155 -90 240 -3 8 15 -7 40 -33 30 -32 47 -60 51 -85z m-2256 41
c-8 -10 -32 -52 -52 -93 -36 -74 -99 -160 -111 -149 -3 3 14 57 39 120 43 113
44 114 80 120 20 3 39 9 43 12 14 15 15 6 1 -10z m2262 -219 c0 -8 -5 -12 -10
-9 -6 4 -8 11 -5 16 9 14 15 11 15 -7z m-2194 -234 c-24 -25 -53 -62 -65 -82
-13 -21 -25 -38 -27 -38 -7 0 14 38 47 87 37 53 37 80 2 94 -14 5 -33 7 -42 4
-25 -10 -5 5 31 23 33 17 33 17 65 -13 l32 -30 -43 -45z m-132 -49 c3 -5 -17
-11 -45 -13 -78 -8 -111 -46 -149 -175 -13 -45 -18 -55 -15 -28 13 89 37 149
75 187 33 33 44 38 83 38 25 0 48 -4 51 -9z m379 -7 c20 -4 37 -10 37 -14 0
-8 -92 -2 -135 10 -28 8 -27 8 15 9 25 0 62 -2 83 -5z m1327 -136 c0 -50 -4
-62 -31 -93 -17 -19 -38 -35 -47 -35 -11 0 -8 8 14 31 28 29 29 34 29 124 l0
94 17 -32 c10 -19 17 -55 18 -89z m-825 91 c25 -10 -208 0 -255 12 -20 4 22 5
100 2 74 -3 144 -9 155 -14z m992 -76 c-2 -21 -4 -6 -4 32 0 39 2 55 4 38 2
-18 2 -50 0 -70z m-1350 -20 c-2 -21 -4 -4 -4 37 0 41 2 58 4 38 2 -21 2 -55
0 -75z m503 -10 c-1 -97 -3 -114 -13 -98 -20 34 -14 215 8 215 3 0 5 -53 5
-117z m601 48 c2 -67 -3 -106 -17 -140 -8 -19 -17 -32 -20 -28 -3 3 -1 14 4
24 17 31 24 126 13 173 -9 40 -8 43 5 26 8 -11 14 -36 15 -55z m-403 52 c78
-6 82 -7 82 -29 0 -24 -2 -24 -99 -24 -81 0 -100 -3 -105 -16 -11 -28 -6 -100
7 -118 16 -21 74 -35 152 -36 49 -1 56 -3 41 -12 -20 -11 -186 -6 -218 7 -15
6 -18 20 -18 84 0 42 5 93 11 114 11 42 8 41 147 30z m302 -93 c-7 -29 -8 -23
-8 35 0 58 1 64 8 35 5 -19 5 -51 0 -70z m497 18 c-2 -18 -4 -6 -4 27 0 33 2
48 4 33 2 -15 2 -42 0 -60z m-1638 -64 c2 -2 -19 -4 -47 -4 -30 0 -52 4 -52
11 0 9 87 3 99 -7z m441 -43 c41 -8 38 -9 -30 -9 -41 0 -88 4 -105 8 -43 11
75 11 135 1z m-1043 -43 c-3 -8 -6 -5 -6 6 -1 11 2 17 5 13 3 -3 4 -12 1 -19z
m649 -67 c119 -37 368 -88 480 -97 99 -8 145 -1 181 30 l28 24 1 -77 c1 -42 9
-122 19 -179 9 -57 15 -105 14 -106 -2 -2 -56 5 -119 15 -141 24 -171 22 -117
-7 l38 -20 -76 -22 c-88 -26 -93 -47 -9 -40 30 3 54 1 54 -4 0 -5 -70 -43
-155 -83 -85 -41 -155 -77 -155 -81 0 -9 64 4 153 33 43 13 81 22 84 20 2 -3
-13 -40 -33 -84 -50 -102 -119 -172 -199 -202 -83 -32 -211 -26 -305 12 -35
14 -66 25 -68 22 -2 -2 20 -17 50 -34 161 -94 344 -86 461 18 l51 46 -25 -44
c-33 -59 -90 -115 -147 -143 -40 -20 -62 -23 -152 -23 -92 0 -116 4 -195 31
-74 26 -85 28 -65 12 38 -31 129 -74 195 -93 43 -13 80 -16 139 -12 99 6 158
30 219 89 l46 43 6 -47 c9 -65 -16 -151 -53 -176 -76 -52 -220 -85 -377 -85
-183 -1 -321 35 -449 117 -57 36 -72 61 -62 102 l7 25 35 -30 c44 -39 184
-110 289 -146 64 -22 103 -29 200 -33 157 -6 178 0 80 22 -88 20 -360 106
-430 136 -61 26 -131 93 -150 144 -15 40 -15 47 5 125 11 46 44 149 71 230 28
80 86 251 130 380 44 128 84 241 89 252 10 17 12 17 63 -6 30 -13 98 -37 153
-54z m1525 -103 c79 -112 194 -237 247 -270 23 -14 42 -18 63 -14 l31 6 73
-153 c90 -188 135 -294 135 -317 0 -9 -13 -36 -30 -58 -69 -95 -223 -186 -445
-261 -129 -44 -131 -49 -8 -26 116 22 281 80 400 141 137 69 159 62 78 -25
-79 -84 -228 -151 -395 -176 -164 -25 -313 -16 -412 27 -45 19 -118 86 -118
108 0 11 39 133 44 138 2 1 20 -5 41 -14 51 -21 166 -20 230 2 54 18 118 58
150 94 l20 22 -35 -21 c-115 -70 -295 -81 -370 -21 l-25 20 49 -7 c61 -8 56 3
-24 53 -33 20 -60 40 -60 44 0 3 30 -2 68 -11 165 -43 347 -5 457 96 45 41 45
41 -46 -2 -87 -42 -214 -67 -295 -60 -77 7 -123 26 -189 77 -51 40 -155 159
-155 178 0 6 54 -4 128 -23 70 -18 128 -32 130 -30 7 6 -114 67 -248 125 -135
59 -146 62 -206 58 l-64 -4 0 41 c0 22 -7 81 -15 130 -8 50 -15 107 -15 128
l0 37 55 0 56 0 -7 -52 c-9 -79 -35 -231 -40 -240 -3 -4 -2 -8 1 -8 11 0 54
108 85 212 16 55 30 102 30 103 0 1 62 6 138 10 75 4 196 15 267 25 72 9 135
18 142 19 6 0 44 -45 84 -101z m129 -80 c0 -4 14 -30 30 -58 17 -28 26 -49 20
-45 -11 7 -90 140 -90 152 0 9 39 -39 40 -49z m-751 -315 c7 -16 39 -75 71
-133 51 -92 58 -114 63 -175 3 -38 13 -90 22 -115 9 -25 21 -83 26 -130 12
-102 32 -144 90 -189 31 -24 49 -47 60 -80 9 -25 28 -73 43 -105 14 -33 24
-61 21 -64 -3 -3 -60 2 -127 12 -328 45 -612 48 -875 10 l-42 -6 38 106 c31
89 42 109 71 128 19 13 46 41 61 63 25 37 28 53 38 190 12 161 30 243 80 370
55 140 41 130 173 127 62 -2 124 1 138 7 35 14 35 14 49 -16z m-1117 -948 c59
-13 116 -29 125 -35 16 -10 16 -11 -2 -6 -11 3 -83 17 -160 31 -183 34 -219
45 -135 38 36 -3 113 -15 172 -28z m2123 10 c-55 -13 -122 -31 -150 -40 -98
-32 -105 -34 -100 -26 14 24 242 89 310 89 30 0 14 -6 -60 -23z m110 -45 c-66
-10 -149 -25 -185 -33 -36 -9 -66 -14 -68 -12 -5 5 119 44 173 54 28 5 84 9
125 9 l75 0 -120 -18z m-2265 -22 c47 -11 92 -25 100 -30 12 -7 10 -8 -5 -4
-68 18 -194 37 -277 43 -59 4 -95 10 -91 16 8 14 173 -1 273 -25z m2487 -57
c43 -20 70 -57 84 -118 8 -38 0 -42 -27 -12 -45 50 -135 63 -242 35 -73 -20
-64 -2 24 47 65 36 67 38 30 32 -62 -10 -139 -42 -205 -85 -64 -42 -103 -54
-62 -19 42 35 185 108 241 123 74 20 107 19 157 -3z m-2720 -41 c13 -8 14 -10
2 -7 -45 14 -112 19 -105 8 4 -6 19 -11 34 -11 51 0 215 -55 352 -118 92 -43
65 -39 -86 12 -219 74 -335 80 -382 21 -25 -31 -32 -31 -32 -1 0 76 55 120
142 113 31 -3 64 -10 75 -17z m227 -16 c67 -23 52 -27 -19 -5 -33 11 -53 20
-44 20 8 1 37 -6 63 -15z m455 -164 c-26 -46 -73 -72 -162 -90 -74 -15 -83 -8
-19 15 81 30 140 79 170 143 l27 57 3 -43 c2 -30 -3 -54 -19 -82z m1189 -13
c21 -21 65 -49 98 -63 l59 -25 -49 5 c-126 15 -175 53 -183 144 l-4 47 20 -35
c11 -19 37 -52 59 -73z m499 97 c-3 -3 -12 -4 -19 -1 -8 3 -5 6 6 6 11 1 17
-2 13 -5z"/>
<path d="M4987 8950 c-117 -20 -233 -114 -287 -234 -102 -225 -62 -491 101
-669 197 -216 551 -203 686 24 53 89 77 201 70 339 -6 140 -35 232 -103 332
-73 108 -168 175 -286 203 -69 16 -107 17 -181 5z m220 -60 c82 -18 162 -76
209 -151 64 -102 76 -141 81 -269 6 -134 -5 -203 -48 -289 -33 -67 -112 -150
-168 -178 -26 -13 -59 -18 -116 -18 -69 0 -88 4 -138 30 -137 70 -216 163
-263 308 -36 113 -39 273 -6 358 43 109 108 173 215 211 56 20 135 19 234 -2z"/>
<path d="M5020 8869 c-88 -10 -165 -61 -224 -149 -28 -42 -18 -45 12 -4 34 47
90 97 135 121 23 13 56 17 123 18 84 0 95 -2 166 -38 55 -27 92 -54 129 -95
40 -44 47 -49 33 -23 -63 112 -227 187 -374 170z"/>
<path d="M5035 8823 c9 -20 25 -136 20 -141 -2 -2 -20 28 -40 67 -39 74 -44
78 -76 60 -15 -7 -17 -14 -10 -23 6 -7 11 -42 12 -79 2 -70 19 -88 29 -32 6
36 25 43 40 15 10 -19 17 -21 47 -15 43 8 153 -23 153 -43 0 -7 14 -18 31 -24
31 -11 49 -41 49 -83 0 -36 -48 -83 -91 -90 -35 -6 -38 -5 -68 39 -37 53 -54
64 -104 68 -42 2 -67 -15 -67 -48 0 -26 41 -44 63 -27 6 6 26 13 44 16 23 5
33 2 37 -10 8 -19 -15 -46 -61 -74 -28 -17 -36 -19 -49 -8 -26 22 -74 97 -74
116 0 45 72 112 141 131 27 8 29 10 10 11 -39 2 -112 -41 -143 -83 -42 -58
-35 -149 20 -253 25 -49 41 -61 53 -42 7 11 9 9 9 -6 0 -16 6 -21 26 -20 18 0
29 -7 35 -22 7 -19 5 -23 -12 -23 -42 0 -139 83 -139 118 0 6 -4 14 -10 17
-23 14 -7 -37 21 -70 79 -89 206 -119 322 -75 60 23 110 59 128 92 10 18 8 19
-33 13 -43 -7 -45 -6 -81 38 -20 25 -37 49 -37 54 0 5 18 32 40 62 22 29 40
64 40 77 0 28 -20 74 -32 74 -4 0 -8 7 -8 15 0 21 19 19 27 -2 4 -10 15 -27
25 -38 18 -19 19 -19 46 -2 15 10 35 21 44 24 15 4 12 12 -19 52 -50 62 -105
121 -115 121 -4 0 -8 -7 -8 -15 0 -21 -48 -95 -61 -95 -7 0 -8 7 -4 18 15 34
17 62 6 62 -6 0 -11 10 -11 21 0 17 3 19 14 10 10 -9 16 -8 25 3 11 13 6 18
-26 32 -21 10 -40 19 -44 21 -3 2 -3 -12 -1 -30 3 -25 -4 -44 -24 -73 -15 -21
-23 -30 -19 -19 4 11 12 40 18 64 10 38 9 45 -8 57 -10 8 -39 14 -63 14 -38 0
-43 -2 -37 -17z m83 -26 c3 -14 -1 -18 -20 -15 -12 2 -24 11 -26 21 -3 14 1
18 20 15 12 -2 24 -11 26 -21z m-131 -42 c8 -22 -6 -33 -17 -15 -13 20 -12 30
0 30 6 0 13 -7 17 -15z m123 -9 c0 -27 -12 -45 -26 -39 -14 5 -19 35 -7 46 12
12 33 7 33 -7z m217 -28 c6 -7 13 -25 17 -40 6 -28 -2 -32 -83 -41 -25 -3 -22
18 10 56 33 40 41 44 56 25z m-144 -4 c9 -9 -4 -35 -14 -28 -5 3 -9 12 -9 20
0 14 12 19 23 8z m210 -88 c6 -15 -6 -29 -36 -39 -13 -5 -17 -3 -13 5 3 7 9
21 12 31 8 21 30 23 37 3z m-63 -6 c0 -5 -4 -10 -10 -10 -5 0 -10 5 -10 10 0
6 5 10 10 10 6 0 10 -4 10 -10z m-137 -251 c-5 -5 -22 -5 -38 0 -27 8 -28 9
-10 15 11 4 27 11 35 15 17 10 28 -15 13 -30z m-133 6 c-9 -23 -7 -25 19 -25
15 0 31 -3 34 -7 10 -10 -23 -43 -43 -43 -23 0 -60 41 -42 47 6 3 12 10 12 17
0 10 19 36 27 36 1 0 -2 -11 -7 -25z m60 5 c0 -5 -7 -7 -15 -4 -8 4 -15 8 -15
10 0 2 7 4 15 4 8 0 15 -4 15 -10z m110 -30 c0 -5 -2 -10 -4 -10 -3 0 -8 5
-11 10 -3 6 -1 10 4 10 6 0 11 -4 11 -10z m-10 -20 c40 -21 66 -53 55 -70 -3
-6 -33 -10 -65 -10 -49 0 -61 3 -70 20 -6 11 -15 18 -21 15 -14 -10 -11 18 7
43 19 27 43 28 94 2z m127 -56 c-3 -3 -12 -4 -19 -1 -8 3 -5 6 6 6 11 1 17 -2
13 -5z m-153 -69 c-4 -8 -15 -15 -25 -15 -10 0 -19 7 -19 15 0 9 9 15 25 15
18 0 23 -4 19 -15z"/>
<path d="M4856 8745 c-20 -20 -33 -42 -29 -48 3 -7 22 -34 41 -60 19 -26 31
-51 27 -55 -4 -4 -10 -1 -12 5 -3 7 -13 23 -22 35 -18 21 -19 21 -45 5 -15
-10 -32 -15 -39 -10 -8 4 -7 1 2 -10 7 -9 19 -17 26 -17 7 0 25 -10 40 -22
l28 -22 29 33 29 32 -25 30 c-26 30 -26 30 -6 51 23 26 26 61 6 78 -12 9 -22
5 -50 -25z m34 -13 c0 -26 -11 -34 -27 -21 -10 9 -10 15 -2 25 16 19 29 17 29
-4z"/>
<path d="M5130 8640 c8 -5 22 -9 30 -9 10 0 8 3 -5 9 -27 12 -43 12 -25 0z"/>
<path d="M5428 8482 c5 -96 -3 -166 -18 -157 -6 3 -7 -1 -4 -9 15 -39 -87
-144 -161 -165 -22 -6 -67 -11 -100 -11 -76 0 -184 48 -233 104 -19 22 -32 31
-32 21 0 -8 -4 -15 -9 -15 -5 0 -7 -9 -4 -20 7 -26 78 -90 101 -90 15 1 14 2
-3 12 -26 15 -85 77 -85 89 0 13 36 -7 47 -25 4 -7 33 -27 64 -45 73 -41 160
-53 249 -35 79 17 73 17 67 0 -4 -10 -1 -13 8 -9 10 3 13 13 9 28 -4 17 4 31
39 61 62 55 82 113 82 236 -1 57 -5 102 -12 109 -8 8 -9 -14 -5 -79z"/>
<path d="M4812 8527 c24 -20 27 -30 30 -102 3 -51 11 -91 22 -110 9 -16 14
-21 10 -10 -18 54 -25 105 -21 153 3 49 1 55 -24 72 -37 27 -50 25 -17 -3z"/>
<path d="M5380 8376 c0 -8 5 -18 10 -21 6 -3 10 3 10 14 0 12 -4 21 -10 21 -5
0 -10 -6 -10 -14z"/>
<path d="M5416 8215 c6 -22 -1 -33 -42 -73 -62 -60 -126 -90 -204 -98 -67 -6
-116 8 -205 58 -49 28 -49 28 -20 3 43 -36 127 -76 174 -82 23 -3 41 -9 41
-13 0 -8 98 31 156 62 73 40 138 142 104 163 -7 4 -8 -3 -4 -20z"/>
<path d="M4992 8129 c2 -7 10 -15 17 -17 8 -3 12 1 9 9 -2 7 -10 15 -17 17 -8
3 -12 -1 -9 -9z"/>
<path d="M5034 8112 c9 -14 58 -22 53 -8 -2 6 -16 12 -31 14 -16 2 -26 -1 -22
-6z"/>
<path d="M5100 8109 c0 -5 9 -9 20 -9 11 0 20 2 20 4 0 2 -9 6 -20 9 -11 3
-20 1 -20 -4z"/>
<path d="M5205 8111 c-10 -17 12 -21 25 -6 10 12 10 15 -3 15 -9 0 -18 -4 -22
-9z"/>
<path d="M5150 8100 c0 -9 31 -30 44 -30 4 0 1 9 -6 20 -13 21 -38 27 -38 10z"/>
<path d="M4113 6985 c-120 -33 -192 -85 -233 -168 -26 -52 -38 -97 -26 -97 2
0 32 13 67 29 132 59 247 68 423 32 54 -10 105 -17 112 -14 30 11 7 86 -45
145 -61 70 -193 103 -298 73z"/>
<path d="M5988 6640 c-149 -26 -272 -168 -322 -373 -24 -94 -34 -237 -25 -335
14 -139 88 -269 165 -288 13 -3 106 -4 207 -2 172 3 185 5 240 30 223 104 330
492 200 731 -86 156 -300 266 -465 237z m353 -272 c97 -97 128 -225 90 -370
-11 -42 -31 -98 -44 -125 -44 -86 -141 -159 -234 -177 -46 -8 -41 5 13 33 127
68 216 247 201 406 -8 85 -42 185 -82 245 -19 29 -35 54 -35 56 0 12 45 -22
91 -68z m-364 -102 c46 -49 46 -106 2 -147 -79 -74 -199 -23 -199 84 0 101
126 141 197 63z m-243 -423 c40 -56 88 -98 157 -138 l44 -25 -48 0 c-64 0
-121 30 -153 81 -27 44 -54 111 -54 137 0 19 4 15 54 -55z"/>
<path d="M4143 6596 c-134 -33 -285 -144 -335 -248 -40 -84 -51 -149 -45 -262
9 -151 56 -275 143 -374 89 -101 149 -120 414 -129 165 -6 177 -5 217 15 56
29 86 71 118 167 26 76 27 88 22 220 -12 343 -133 552 -352 609 -70 19 -111
19 -182 2z m-167 -256 c-152 -221 -91 -502 144 -661 27 -19 50 -37 50 -40 0
-4 -21 -2 -47 2 -151 29 -303 247 -305 439 -1 80 12 131 51 192 26 41 112 117
134 118 4 0 -8 -23 -27 -50z m246 -32 c51 -19 77 -87 54 -142 -29 -69 -115
-95 -176 -54 -64 43 -72 124 -19 178 41 40 73 44 141 18z m421 -460 c-31 -161
-126 -239 -278 -229 -28 2 -27 3 15 18 72 25 150 82 196 145 24 32 46 68 49
78 10 33 25 22 18 -12z"/>
<path d="M5241 5619 c-24 -11 -42 -21 -40 -23 2 -3 27 0 54 5 60 11 102 4 115
-21 17 -31 -32 -53 -150 -66 l-65 -7 45 -14 c56 -18 148 -11 188 13 59 34 68
99 17 122 -38 18 -114 13 -164 -9z"/>
<path d="M5624 5395 c-136 -133 -260 -186 -446 -193 -99 -3 -129 -1 -186 17
-77 23 -167 79 -226 140 -37 38 -41 40 -58 24 -26 -23 -23 -34 20 -70 136
-112 266 -163 437 -170 180 -8 327 42 435 147 47 46 104 141 98 163 -2 7 -35
-19 -74 -58z"/>
<path d="M5405 4101 c-47 -12 -74 -29 -90 -61 -19 -36 -19 -75 0 -242 29 -250
46 -311 90 -328 41 -15 282 -12 337 4 95 29 108 51 108 170 -1 108 -26 360
-39 385 -18 32 -83 61 -164 71 -83 11 -199 11 -242 1z m213 -38 l142 -6 16
-53 c8 -30 13 -58 9 -63 -3 -5 -31 -15 -63 -21 -31 -6 -83 -18 -115 -26 -62
-15 -77 -13 -219 33 -43 13 -48 18 -48 43 0 35 17 82 33 92 15 9 63 10 245 1z
m-231 -174 c15 -6 66 -22 113 -35 68 -20 89 -23 109 -14 25 11 162 42 167 38
1 -2 8 -74 14 -162 14 -176 14 -173 -50 -196 -42 -14 -243 -25 -293 -16 -34 6
-35 8 -41 64 -7 59 -43 270 -53 310 -6 25 -4 26 34 11z"/>
<path d="M5125 3905 c-14 -13 -25 -33 -25 -43 0 -22 40 -62 62 -62 22 0 51 36
51 65 0 28 -28 65 -50 65 -8 0 -25 -11 -38 -25z m45 -40 c0 -8 -7 -15 -15 -15
-8 0 -15 7 -15 15 0 8 7 15 15 15 8 0 15 -7 15 -15z"/>
<path d="M5115 3616 c-21 -15 -25 -67 -5 -90 7 -9 25 -16 40 -16 34 0 53 22
53 62 0 32 -24 58 -53 58 -9 0 -25 -6 -35 -14z m51 -37 c8 -14 -11 -33 -25
-25 -11 7 -4 36 9 36 5 0 12 -5 16 -11z"/>
<path d="M5124 3313 c-6 -5 -17 -19 -24 -32 -10 -20 -9 -27 8 -50 44 -59 123
-12 91 55 -14 29 -52 43 -75 27z m46 -59 c0 -8 -7 -14 -15 -14 -15 0 -21 21
-9 33 10 9 24 -2 24 -19z"/>
</g>
</svg>
