<?xml version="1.0" standalone="no"?>
<!DOCTYPE svg PUBLIC "-//W3C//DTD SVG 20010904//EN"
 "http://www.w3.org/TR/2001/REC-SVG-20010904/DTD/svg10.dtd">
<svg version="1.0" xmlns="http://www.w3.org/2000/svg"
 width="1024.000000pt" height="1024.000000pt" viewBox="0 0 1024.000000 1024.000000"
 preserveAspectRatio="xMidYMid meet">
<metadata>
Created by potrace 1.16, written by Peter Selinger 2001-2019
</metadata>
<g transform="translate(0.000000,1024.000000) scale(0.100000,-0.100000)"
fill="#000000" stroke="none">
<path d="M5764 9446 c-28 -7 -73 -25 -100 -41 -120 -71 -164 -86 -414 -140
-575 -124 -926 -279 -1310 -576 -199 -154 -449 -422 -574 -616 -40 -62 -52
-74 -93 -89 -446 -164 -811 -380 -1047 -620 -143 -145 -259 -327 -308 -484
-19 -62 -23 -97 -23 -200 1 -144 19 -219 87 -354 115 -229 369 -460 590 -535
26 -9 48 -19 48 -24 1 -4 -2 -32 -5 -62 -25 -200 147 -462 423 -643 101 -66
300 -162 402 -194 67 -20 94 -23 253 -23 114 0 177 -3 177 -10 0 -5 -7 -32
-15 -59 -35 -114 -6 -345 60 -485 l36 -76 -51 -105 c-83 -174 -79 -204 35
-261 36 -17 65 -37 65 -43 0 -6 -14 -54 -31 -106 -21 -65 -32 -123 -36 -185
-4 -81 -2 -99 25 -180 16 -49 57 -153 90 -230 33 -77 63 -150 66 -162 5 -14
-4 -41 -28 -85 -47 -84 -70 -184 -62 -268 9 -104 31 -165 72 -198 l35 -29 -56
-114 c-30 -63 -58 -130 -61 -149 -8 -49 10 -109 51 -169 61 -89 48 -156 -124
-621 -27 -74 -57 -165 -67 -201 l-18 -67 -125 -11 c-541 -51 -1009 -142 -1138
-222 -92 -57 -50 -114 121 -163 210 -61 544 -102 1151 -142 336 -22 1549 -28
1960 -9 1083 49 1830 160 1968 292 35 34 34 55 -3 86 -98 83 -537 164 -1038
193 l-123 7 -20 38 c-11 22 -20 39 -22 39 -1 0 -49 20 -107 45 -127 55 -163
82 -194 143 -34 67 -83 280 -91 393 -7 93 -6 97 14 104 38 12 120 84 147 130
32 56 30 78 -20 240 -52 167 -77 292 -82 415 -4 88 -3 102 8 85 27 -42 80 -84
113 -91 43 -8 87 9 135 52 19 17 46 35 60 39 78 24 125 103 124 210 -1 81 -16
134 -72 261 -30 67 -43 114 -51 180 -22 184 -77 317 -191 469 -33 44 -60 83
-60 87 0 4 16 19 36 34 36 28 64 71 64 98 0 8 -19 39 -43 68 -24 29 -94 130
-157 223 -147 219 -251 326 -393 404 -141 78 -141 81 -11 81 322 1 586 54 822
165 230 109 374 247 454 435 21 51 23 68 22 231 l-1 176 81 12 c314 47 741
301 932 554 104 138 172 327 162 451 -17 206 -184 324 -788 556 -172 66 -175
68 -182 101 -5 19 -19 104 -33 189 -39 231 -80 376 -171 592 -62 148 -147 311
-228 439 -126 201 -195 288 -264 334 -37 24 -69 69 -133 182 -43 77 -136 132
-321 190 -67 20 -108 26 -218 29 -90 2 -152 -1 -186 -10z m236 -46 c145 -18
359 -89 412 -137 10 -9 40 -57 66 -106 26 -50 59 -103 75 -120 32 -35 34 -64
12 -193 -33 -190 -111 -430 -173 -534 -15 -25 -33 -57 -40 -71 -8 -14 -24 -38
-36 -54 -23 -28 -23 -28 -152 -29 -117 -1 -167 5 -339 39 -14 3 -30 29 -57 92
-93 223 -164 524 -174 728 l-5 120 43 30 c43 31 87 98 122 185 10 25 23 48 29
52 17 11 119 10 217 -2z m-301 -77 c-26 -62 -71 -108 -134 -138 -75 -35 -85
-51 -101 -157 -33 -222 -2 -422 101 -646 l34 -74 -37 6 c-333 51 -644 67 -892
46 -63 -5 -140 -12 -170 -15 -47 -4 -50 -3 -20 5 60 16 327 40 530 47 148 6
180 9 135 14 -111 12 -389 9 -515 -6 -270 -32 -613 -124 -837 -225 -34 -16
-63 -26 -65 -24 -9 8 3 247 13 267 28 52 274 258 444 369 102 67 299 169 425
221 202 83 352 128 675 202 212 48 275 69 355 119 76 47 83 46 59 -11z m994
-397 c123 -175 297 -495 358 -656 73 -192 185 -567 177 -591 -2 -7 -26 7 -54
32 -87 77 -294 228 -294 214 0 -3 37 -32 82 -65 96 -71 96 -78 0 -16 -127 83
-377 198 -555 256 -45 14 -65 26 -60 33 4 7 21 35 39 62 111 176 210 460 246
713 7 45 13 82 14 82 1 0 23 -29 47 -64z m-1145 -86 c0 -16 -3 -11 -9 15 -4
22 -8 51 -7 65 0 16 3 11 9 -15 4 -22 8 -51 7 -65z m-12 -85 c8 -55 24 -137
35 -183 12 -46 19 -85 17 -88 -8 -7 -39 107 -59 216 -18 100 -19 102 -15 35 6
-96 -11 -38 -20 68 -5 55 -4 77 5 77 6 0 12 8 12 18 1 9 4 4 6 -13 2 -16 10
-75 19 -130z m-1846 -521 c0 -74 -4 -113 -10 -109 -18 11 -12 225 6 225 2 0 4
-52 4 -116z m1550 80 c85 -8 206 -24 268 -35 l114 -19 57 -57 c60 -61 205
-149 267 -163 42 -10 135 2 255 31 l85 20 173 -56 c211 -70 468 -193 476 -228
8 -38 24 -192 20 -196 -2 -2 -42 10 -88 27 -292 106 -993 298 -1352 371 -384
78 -817 131 -1077 131 -37 0 -69 3 -71 8 -7 13 8 131 19 142 9 9 212 35 339
44 99 6 350 -3 515 -20z m-1587 -121 c2 -46 0 -83 -5 -83 -4 0 -8 42 -7 93 1
109 6 105 12 -10z m703 60 c-3 -21 -6 -55 -6 -75 0 -21 -4 -38 -10 -38 -11 0
-13 37 -4 104 4 25 11 46 17 46 6 0 7 -15 3 -37z m-43 -50 c4 -39 3 -63 -3
-63 -6 0 -10 30 -10 67 0 81 5 79 13 -4z m-706 -45 c-2 -18 -4 -6 -4 27 0 33
2 48 4 33 2 -15 2 -42 0 -60z m-36 -65 c-9 -15 -10 -12 -11 17 0 19 4 46 8 60
6 21 7 19 10 -17 2 -24 -1 -51 -7 -60z m830 -3 c589 -26 1160 -128 1891 -336
322 -91 597 -185 1028 -349 560 -213 603 -231 729 -318 70 -49 84 -75 23 -43
-80 41 -387 135 -937 286 -344 94 -914 253 -1315 365 -572 161 -847 226 -1170
279 -609 99 -1122 39 -1622 -190 -332 -151 -796 -507 -958 -733 -25 -35 -53
-73 -63 -85 -30 -35 63 134 106 193 151 204 438 427 764 594 418 213 779 315
1208 340 28 2 61 4 75 5 14 1 122 -3 241 -8z m2653 -487 c4 -13 3 -23 -2 -23
-14 0 -22 38 -21 100 l2 55 7 -55 c4 -30 10 -65 14 -77z m-2084 0 c112 -106
153 -188 158 -317 3 -72 -1 -111 -18 -177 -12 -46 -23 -85 -25 -87 -2 -2 -36
-8 -77 -13 -139 -17 -277 -77 -386 -166 -43 -36 -79 -80 -70 -88 3 -3 38 6 78
20 133 45 221 58 354 52 103 -5 137 -11 228 -41 59 -20 124 -36 143 -36 74 0
128 54 109 108 -9 23 -5 33 27 77 21 28 52 80 69 116 32 70 80 241 81 293 0
17 4 39 8 50 6 16 12 12 49 -30 124 -140 206 -471 158 -636 -9 -31 -16 -59
-16 -62 0 -14 22 -3 77 38 110 83 217 243 263 391 25 82 36 222 22 283 -11 48
-8 51 19 20 145 -172 173 -396 85 -672 -21 -67 -22 -76 -8 -76 9 0 48 33 87
73 80 83 150 200 191 319 25 71 29 77 37 57 49 -126 115 -211 212 -274 96 -62
291 -172 329 -186 38 -14 38 -14 32 -59 -3 -26 -28 -134 -55 -241 -79 -317
-85 -361 -86 -629 0 -221 -1 -238 -23 -291 -104 -257 -491 -479 -923 -529
-166 -20 -575 -8 -704 20 -441 94 -881 289 -1145 507 -74 60 -195 194 -261
289 -23 32 -55 73 -71 90 l-29 31 -62 -14 c-108 -22 -196 -12 -293 33 -55 26
-134 100 -171 162 -69 112 -83 294 -30 385 54 91 138 135 242 124 97 -10 215
-77 215 -121 0 -42 50 -219 85 -299 33 -78 94 -187 105 -187 3 0 6 42 7 93 2
79 8 112 49 237 52 163 113 311 157 383 42 68 43 53 2 -25 -19 -36 -50 -103
-69 -150 -58 -143 -126 -385 -105 -372 5 3 9 13 9 22 0 36 93 292 144 398 91
190 232 383 338 463 35 27 96 83 135 125 123 132 212 345 216 518 1 55 6 78
15 78 7 0 48 -34 92 -77z m2174 -52 c-6 -7 -34 21 -34 33 0 6 5 4 10 -4 7 -11
10 0 11 40 l2 55 7 -60 c3 -33 5 -62 4 -64z m-122 64 c3 -14 1 -25 -3 -25 -5
0 -9 11 -9 25 0 14 2 25 4 25 2 0 6 -11 8 -25z m77 -48 c1 -5 -3 -5 -9 -2 -5
3 -10 16 -9 28 0 21 1 21 9 2 5 -11 9 -24 9 -28z m156 -22 c8 -49 -9 -28 -20
25 -5 24 -4 32 3 25 6 -5 13 -28 17 -50z m-88 3 c-3 -8 -6 -5 -6 6 -1 11 2 17
5 13 3 -3 4 -12 1 -19z m50 -15 c-3 -10 -5 -4 -5 12 0 17 2 24 5 18 2 -7 2
-21 0 -30z m-1662 -385 c-22 -66 -70 -163 -101 -205 l-24 -32 -78 39 c-42 22
-108 46 -147 54 -38 8 -58 15 -43 15 15 1 70 -8 123 -20 123 -27 154 -22 194
33 17 23 43 72 59 109 32 79 41 83 17 7z m-1151 -96 c-100 -90 -303 -184 -424
-197 -47 -5 -42 -2 40 20 110 29 293 116 365 174 63 50 73 52 19 3z m426
-2069 c0 -4 -10 -18 -22 -31 l-23 -25 30 18 c17 10 24 12 18 5 -14 -15 -17
-31 -5 -28 4 1 18 -4 30 -11 45 -24 68 -23 81 5 6 15 14 24 17 21 11 -10 -140
-297 -157 -297 -14 0 -86 102 -108 153 -21 49 -21 49 -1 76 10 16 41 45 67 67
26 21 50 42 51 46 4 10 22 11 22 1z m378 -108 c62 -13 144 -27 183 -31 38 -3
73 -12 78 -18 17 -22 33 -118 27 -159 -4 -23 -16 -75 -28 -115 l-21 -73 -66
64 c-36 35 -103 96 -147 135 -83 73 -150 154 -172 206 -12 27 -12 28 10 22 13
-4 74 -18 136 -31z m-83 -162 c30 -34 98 -98 150 -143 106 -91 140 -141 148
-215 l5 -49 -119 126 c-65 69 -133 131 -150 139 -32 13 -33 12 -70 -29 -20
-23 -52 -71 -70 -107 -19 -36 -36 -65 -39 -65 -3 0 -35 47 -73 105 l-67 106
36 47 c20 26 59 95 87 153 l52 106 27 -56 c15 -31 52 -84 83 -118z m-174 120
c-12 -20 -14 -14 -5 12 4 9 9 14 11 11 3 -2 0 -13 -6 -23z m636 -55 c52 -56
101 -125 121 -171 11 -26 11 -27 -12 -21 -22 5 -31 -4 -82 -83 -32 -48 -78
-126 -102 -173 l-45 -85 6 101 c4 70 15 129 35 195 17 52 32 109 36 126 5 31
-5 108 -19 146 -13 31 11 18 62 -35z m104 -39 c60 -71 118 -155 140 -207 25
-57 24 -60 -8 -30 -16 14 -40 33 -54 42 -16 10 -31 33 -39 59 -18 61 -55 131
-92 173 -24 27 -27 34 -12 26 11 -6 40 -34 65 -63z m-1609 47 c7 5 8 3 3 -6
-6 -9 2 -11 35 -5 28 5 40 4 36 -3 -4 -7 19 -13 61 -17 114 -10 113 -14 -2
-10 -107 3 -185 23 -185 47 0 5 9 4 20 -2 11 -6 26 -8 32 -4z m565 -8 c-3 -8
-6 -5 -6 6 -1 11 2 17 5 13 3 -3 4 -12 1 -19z m273 -8 c-6 -11 -13 -20 -16
-20 -2 0 0 9 6 20 6 11 13 20 16 20 2 0 0 -9 -6 -20z m-849 -19 c24 -11 78
-24 119 -30 l75 -10 -85 3 c-63 3 -97 9 -128 25 -68 35 -53 44 19 12z m447
-22 c-3 -10 -148 -62 -148 -53 0 2 26 17 58 33 59 31 96 39 90 20z m139 -126
c-2 -27 -3 -5 -3 47 0 52 1 74 3 48 2 -27 2 -69 0 -95z m212 80 c-34 -57 -49
-78 -49 -70 0 9 61 107 67 107 2 0 -6 -17 -18 -37z m-351 -51 c3 -82 -64 -570
-109 -789 l-10 -53 -53 39 c-108 80 -251 136 -377 147 -82 8 -83 -10 5 182 89
195 181 337 274 426 l31 28 6 -38 c14 -92 112 -440 121 -431 5 5 -38 228 -72
375 -14 62 -25 115 -23 116 7 6 183 66 194 66 7 0 12 -28 13 -68z m117 -69
c-4 -41 -9 -72 -12 -69 -3 3 -2 45 3 93 4 48 9 79 12 69 2 -11 1 -52 -3 -93z
m1315 16 c0 -11 -89 52 -90 64 0 4 20 -6 45 -23 25 -17 45 -35 45 -41z m-1170
-11 c52 -85 154 -233 183 -265 26 -29 34 -22 89 73 24 40 47 74 52 74 5 0 32
-21 61 -47 28 -27 78 -71 112 -100 l60 -52 16 -108 c26 -173 54 -450 69 -687
l3 -39 -63 -13 c-34 -7 -74 -22 -89 -33 -36 -29 -50 -26 -57 13 -13 69 -14 69
-376 96 -130 9 -324 34 -358 45 -9 3 2 34 36 102 27 54 62 136 77 183 15 47
30 88 34 92 3 4 68 -13 144 -37 77 -25 153 -45 171 -45 31 0 178 44 299 90 50
19 57 25 57 48 -1 47 -27 229 -35 242 -7 11 -66 12 -292 7 -268 -7 -284 -6
-279 11 15 51 29 192 30 299 0 68 3 123 6 123 3 0 25 -33 50 -72z m1404 -285
c44 -70 99 -151 123 -180 24 -28 43 -58 43 -67 0 -17 -77 -78 -195 -155 -70
-46 -80 -50 -86 -34 -18 44 -9 90 36 178 27 53 48 109 51 135 l5 45 -15 -30
c-9 -16 -30 -65 -47 -107 -30 -74 -49 -98 -49 -62 0 8 -7 36 -15 62 -97 313
-140 470 -117 436 4 -7 16 -13 27 -15 17 -4 25 -26 51 -144 17 -77 37 -173 44
-213 6 -40 14 -72 16 -70 8 9 -17 278 -30 328 -31 113 -31 108 -13 85 20 -25
22 -6 2 21 -8 10 -15 25 -15 33 0 24 102 -113 184 -246z m-449 104 c19 -55 39
-116 44 -138 l9 -39 -64 0 c-64 0 -64 0 -64 -29 0 -37 28 -189 40 -217 6 -15
37 -33 103 -58 l93 -37 38 -132 c21 -73 41 -140 43 -149 4 -12 -3 -21 -20 -27
-30 -12 -42 -32 -52 -82 -6 -33 -11 -38 -48 -46 l-42 -10 35 -9 c19 -6 35 -17
35 -24 0 -19 -36 -28 -112 -29 -74 -1 -69 -12 -78 164 -8 155 -35 329 -91 585
-27 122 -42 211 -37 220 23 46 118 169 125 162 4 -4 23 -51 43 -105z m-523 53
c29 -24 71 -65 93 -89 l40 -45 -33 20 c-45 26 -191 165 -170 162 10 -2 41 -23
70 -48z m709 -189 c29 -82 22 -86 -10 -6 -15 39 -35 84 -44 102 -27 51 -20 53
9 3 15 -25 35 -69 45 -99z m-62 74 c0 -5 -6 1 -14 15 -8 14 -14 30 -14 35 0 6
6 -1 14 -15 8 -14 14 -29 14 -35z m31 -70 c0 -5 -5 -3 -10 5 -5 8 -10 20 -10
25 0 6 5 3 10 -5 5 -8 10 -19 10 -25z m-475 -13 c-6 -7 -35 18 -35 31 0 5 9 2
20 -8 11 -10 18 -20 15 -23z m190 -382 c19 -114 45 -343 45 -404 0 -40 -3 -47
-16 -42 -9 3 -51 6 -94 6 l-78 0 -6 123 c-8 140 -24 343 -32 402 -5 38 -4 39
8 15 32 -58 118 -43 118 21 0 31 -38 79 -62 79 -21 0 -58 -29 -58 -46 0 -8 -4
-14 -8 -14 -5 0 -16 47 -24 105 l-14 105 22 -15 c30 -19 80 -9 102 20 16 21
18 17 49 -124 18 -80 40 -184 48 -231z m234 197 c19 -59 31 -110 28 -113 -10
-10 -107 27 -116 44 -9 18 -31 136 -31 166 0 14 8 17 42 14 l42 -3 35 -108z
m-608 64 c4 -18 10 -61 14 -95 l6 -62 -148 -48 c-166 -53 -148 -53 -318 1
-157 50 -145 36 -121 142 l20 90 90 4 c50 2 172 3 271 3 l179 -1 7 -34z m729
-39 c0 -15 -2 -15 -10 -2 -13 20 -13 33 0 25 6 -3 10 -14 10 -23z m-464 -99
c-11 -11 -19 6 -11 24 8 17 8 17 12 0 3 -10 2 -21 -1 -24z m482 25 c15 -15 16
-55 2 -63 -18 -11 -40 15 -40 46 0 30 17 38 38 17z m-1801 -165 c50 -12 62
-18 47 -24 -16 -6 -13 -9 16 -15 32 -7 33 -8 11 -14 -22 -5 -22 -6 15 -34 32
-23 34 -27 14 -21 l-25 6 24 -19 c14 -11 26 -32 28 -48 2 -15 9 -36 14 -46 13
-25 1 -23 -23 5 l-19 22 6 -45 c3 -25 13 -89 21 -143 8 -57 16 -192 18 -320 2
-176 6 -233 20 -274 19 -60 31 -67 40 -22 l6 31 29 -21 c108 -77 153 -243 96
-357 -25 -50 -67 -84 -103 -84 -31 0 -59 29 -96 98 -32 61 -33 62 -39 35 -5
-26 -2 -52 18 -140 7 -30 5 -33 -17 -33 -32 0 -57 29 -102 115 l-37 70 6 -72
c4 -42 2 -73 -3 -73 -35 0 -72 101 -72 194 0 113 49 248 95 266 14 5 25 11 25
13 0 13 -46 133 -97 252 -101 235 -120 323 -93 445 14 63 93 270 103 270 4 0
38 -8 74 -17z m2152 -42 c100 -120 155 -250 190 -453 13 -78 32 -144 59 -208
23 -52 46 -117 53 -143 13 -53 7 -143 -11 -177 -17 -31 -21 -20 -9 24 6 21 9
40 6 42 -2 2 -21 -21 -42 -53 -49 -73 -124 -148 -157 -156 -58 -15 -105 28
-116 105 l-5 43 46 -47 c25 -27 55 -48 66 -48 16 0 19 7 19 44 0 24 9 61 21
84 34 66 24 129 -27 176 -35 30 -44 11 -22 -47 27 -69 25 -82 -10 -107 -37
-27 -51 -18 -76 46 -26 69 -15 228 20 289 15 25 33 45 41 45 8 0 15 3 15 6 0
11 -123 257 -143 287 -12 17 -27 27 -44 27 -24 0 -25 3 -20 36 5 29 3 35 -8
30 -20 -7 -19 1 4 33 22 30 71 134 71 150 0 8 15 18 32 20 3 1 25 -21 47 -48z
m-242 -153 c-3 -7 -5 -2 -5 12 0 14 2 19 5 13 2 -7 2 -19 0 -25z m152 -169
c23 -55 27 -79 12 -63 -14 14 -50 114 -41 114 4 0 17 -23 29 -51z m-1787 -35
c40 -9 108 -22 152 -29 61 -10 71 -13 40 -14 -38 -1 -195 22 -236 35 -14 4
-17 -3 -20 -38 l-3 -43 -5 53 c-3 28 -4 52 -2 52 2 0 35 -7 74 -16z m637 -113
c-5 -35 -16 -77 -24 -95 -12 -24 -14 -26 -9 -6 3 14 10 60 16 103 7 42 15 74
20 69 4 -4 3 -36 -3 -71z m81 60 c12 -23 12 -123 0 -196 -7 -44 -8 -40 -8 40
0 50 -5 103 -11 118 -20 51 -5 82 19 38z m469 -35 c7 -8 17 -54 23 -103 11
-96 1 -166 -28 -177 -8 -3 -70 -9 -137 -12 -155 -9 -151 -12 -156 143 -5 157
0 161 175 162 84 1 114 -2 123 -13z m671 -56 c0 -5 -5 -10 -11 -10 -5 0 -7 5
-4 10 3 6 8 10 11 10 2 0 4 -4 4 -10z m-93 -153 c-2 -23 -3 -1 -3 48 0 50 1
68 3 42 2 -26 2 -67 0 -90z m-300 86 c-3 -10 -5 -4 -5 12 0 17 2 24 5 18 2 -7
2 -21 0 -30z m-1183 -59 c9 -8 16 -25 15 -37 0 -19 -2 -19 -10 5 -16 42 -78
49 -80 9 0 -10 -2 -12 -6 -3 -14 35 51 56 81 26z m-313 -121 c9 -71 14 -130
13 -132 -2 -2 -15 4 -29 13 -22 14 -25 24 -25 70 0 73 11 176 20 176 3 0 13
-57 21 -127z m666 -40 c-3 -10 -5 -2 -5 17 0 19 2 27 5 18 2 -10 2 -26 0 -35z
m892 -60 c17 -99 50 -193 78 -221 22 -22 30 -23 79 -17 l55 7 -7 -29 c-58
-252 -87 -331 -130 -360 -28 -18 -105 -23 -164 -11 l-35 7 39 -20 c57 -30 142
-35 186 -11 49 27 96 92 119 165 l20 62 0 -41 c1 -56 35 -210 71 -322 17 -51
30 -102 30 -113 0 -56 -67 -142 -141 -180 -20 -10 -74 -28 -120 -40 -72 -19
-89 -20 -135 -10 -74 17 -213 87 -348 175 l-114 74 -21 93 c-60 261 -57 226
-27 297 15 35 31 87 37 115 10 53 4 127 -11 127 -5 0 -25 -51 -45 -112 -21
-62 -82 -206 -136 -319 -83 -172 -101 -217 -108 -276 -5 -38 -14 -80 -20 -91
-30 -57 -233 -116 -426 -125 -97 -4 -99 -4 -65 11 103 46 197 96 250 132 69
47 186 153 202 184 7 12 -7 4 -33 -20 -99 -90 -311 -215 -439 -259 -108 -37
-152 -39 -245 -15 -169 44 -269 112 -294 202 -16 56 -10 80 60 232 41 89 57
115 69 110 54 -23 69 -26 93 -21 14 4 32 14 41 22 8 8 31 15 52 15 46 0 117
33 143 66 l19 24 31 -48 c37 -58 76 -96 116 -114 29 -13 29 -13 -30 -16 -33
-1 -90 4 -127 11 -73 16 -79 8 -17 -23 58 -30 146 -36 211 -15 85 28 148 82
78 69 -45 -9 -77 3 -124 46 -37 34 -106 155 -94 164 1 2 34 10 73 20 79 19
174 60 239 105 38 26 54 31 105 31 57 0 62 2 80 30 10 17 31 86 46 155 16 69
33 125 39 125 224 2 732 13 735 16 2 2 14 4 27 4 19 0 23 -8 33 -67z m-1233
-243 c147 -18 147 -18 92 -46 -42 -21 -218 -78 -223 -72 -1 2 -7 28 -13 58 -6
30 -14 65 -18 77 -6 21 -5 21 34 8 21 -8 79 -19 128 -25z m610 -770 c26 -140
28 -174 26 -355 -5 -396 -7 -460 -17 -467 -5 -4 -137 -8 -292 -8 l-283 0 0 49
c0 88 31 227 114 506 l24 80 78 26 c166 54 199 84 210 187 7 72 19 111 61 206
l28 61 12 -65 c6 -36 24 -135 39 -220z m60 215 c16 -61 13 -88 -4 -33 -14 45
-24 103 -16 96 3 -3 12 -32 20 -63z m64 -202 c21 -56 21 -83 0 -43 -17 31 -39
111 -30 105 5 -3 18 -31 30 -62z m168 -93 c23 -13 42 -27 42 -30 0 -12 -131
28 -150 45 -9 8 -22 32 -29 53 -7 20 -15 44 -18 52 -3 8 21 -10 53 -41 33 -31
78 -67 102 -79z m106 -6 c107 -52 123 -70 25 -29 -57 24 -143 75 -127 75 3 0
49 -21 102 -46z m-1570 -30 c14 -5 16 -27 15 -148 -1 -91 -4 -127 -9 -101 -6
36 -7 37 -9 10 -1 -26 -38 -184 -57 -242 -5 -15 -4 -15 5 -3 17 24 13 -1 -14
-80 -27 -80 -33 -117 -14 -90 8 12 9 10 5 -10 -9 -43 6 -55 45 -36 68 32 136
46 219 46 47 0 90 -4 96 -8 7 -4 -34 -8 -90 -9 -57 0 -122 -8 -151 -16 l-50
-16 110 6 c168 8 261 -17 390 -105 49 -34 53 -51 23 -87 l-24 -27 -202 -6
c-179 -4 -204 -3 -227 12 -21 14 -49 18 -123 18 -83 1 -90 2 -47 8 28 4 75 5
106 3 36 -4 59 -2 63 6 5 7 -3 11 -21 12 l-28 1 25 9 c17 6 3 7 -48 5 -40 -2
-70 -1 -67 2 27 27 319 42 429 21 86 -16 89 -6 5 16 -44 11 -125 20 -199 23
-145 5 -234 -12 -317 -58 l-51 -29 -8 42 c-10 60 -7 148 6 199 7 24 39 112 71
197 61 158 101 295 114 389 4 28 8 52 10 52 2 0 10 -3 19 -6z m86 -34 c13 -9
13 -10 0 -10 -8 0 -22 5 -30 10 -13 9 -13 10 0 10 8 0 22 -5 30 -10z m15 -40
c41 -21 38 -24 -14 -14 -17 4 -31 13 -31 20 0 18 -2 18 45 -6z m1850 -70 c-8
-13 -219 -77 -280 -85 -33 -4 -12 5 60 24 61 16 133 38 160 49 59 23 68 25 60
12z m-128 -76 c-3 -3 -12 -4 -19 -1 -8 3 -5 6 6 6 11 1 17 -2 13 -5z m85 -19
c-54 -25 -163 -57 -170 -50 -2 2 34 15 80 29 46 14 90 30 98 36 8 5 22 10 30
10 8 0 -9 -11 -38 -25z m38 -19 c-14 -7 -36 -16 -50 -20 -14 -3 -7 3 15 14 45
22 74 27 35 6z m-1850 -26 c12 -8 9 -10 -12 -10 -16 0 -28 5 -28 10 0 13 20
13 40 0z m-93 -32 c-3 -8 -6 -5 -6 6 -1 11 2 17 5 13 3 -3 4 -12 1 -19z m1978
3 c-13 -12 -180 -67 -225 -74 -47 -8 -21 3 115 46 131 42 121 39 110 28z
m-1892 -8 c-7 -2 -21 -2 -30 0 -10 3 -4 5 12 5 17 0 24 -2 18 -5z m1901 -23
c-11 -11 -205 -72 -211 -67 -3 4 192 74 212 76 5 1 5 -3 -1 -9z m-1856 -7
c-15 -2 -42 -2 -60 0 -18 2 -6 4 27 4 33 0 48 -2 33 -4z m-13 -52 l40 -9 -50
0 c-27 0 -61 4 -75 8 -23 7 -22 8 10 8 19 1 53 -3 75 -7z m1865 -25 c-28 -15
-179 -50 -186 -43 -4 4 176 54 201 55 6 1 -1 -5 -15 -12z m17 -20 c-29 -22
-169 -56 -223 -54 -38 1 -41 2 -14 5 54 6 213 42 230 53 23 15 28 11 7 -4z
m-2 -46 c-22 -11 -60 -29 -85 -41 -52 -24 -136 -49 -165 -48 -11 0 36 19 105
43 69 23 134 47 145 54 11 6 25 11 30 11 6 0 -8 -9 -30 -19z m-1962 -7 c-7 -2
-19 -2 -25 0 -7 3 -2 5 12 5 14 0 19 -2 13 -5z m44 1 c-3 -3 -12 -4 -19 -1 -8
3 -5 6 6 6 11 1 17 -2 13 -5z m1949 -29 c-25 -19 -121 -55 -144 -54 -9 0 8 8
38 18 30 10 69 25 85 34 37 20 46 21 21 2z m-1891 -5 c54 -6 56 -7 15 -7 -25
-1 -72 3 -105 7 -54 6 -56 7 -15 7 25 1 72 -3 105 -7z m1905 -34 c0 -6 -144
-54 -180 -60 -19 -3 10 9 65 28 104 35 115 38 115 32z m-1855 -16 c39 -6 23
-8 -77 -9 -80 0 -128 3 -128 9 0 12 131 12 205 0z m1662 -6 c-3 -3 -12 -4 -19
-1 -8 3 -5 6 6 6 11 1 17 -2 13 -5z m213 -6 c-14 -7 -59 -27 -100 -46 -98 -44
-226 -94 -214 -83 12 11 316 141 329 140 6 0 -1 -5 -15 -11z m-1781 -12 c-2
-2 -71 -6 -154 -9 -82 -2 -123 -1 -90 3 65 7 251 12 244 6z m1741 -45 c-147
-66 -184 -83 -222 -102 -21 -11 -38 -17 -38 -14 0 5 90 49 280 138 19 8 42 16
50 16 8 0 -23 -17 -70 -38z m-1811 15 c-2 -2 -47 -5 -99 -8 -52 -3 -81 -2 -65
2 30 8 172 13 164 6z m1608 -2 c-3 -3 -12 -4 -19 -1 -8 3 -5 6 6 6 11 1 17 -2
13 -5z m426 -30 c34 -14 73 -32 86 -41 l23 -15 -28 -30 c-48 -50 -155 -107
-230 -123 -67 -14 -213 -21 -202 -9 4 3 39 12 80 21 71 14 184 60 174 70 -2 3
-42 -4 -88 -16 -136 -33 -256 -47 -270 -32 -11 10 -8 17 14 36 36 31 192 118
248 138 92 33 116 33 193 1z m122 -104 c-4 -6 -43 -29 -88 -51 -100 -51 -95
-41 10 17 88 48 87 48 78 34z m-5 -80 c-19 -11 -39 -19 -45 -19 -5 0 6 8 25
19 19 11 40 19 45 19 6 0 -6 -8 -25 -19z m-155 -41 c-94 -45 -81 -52 20 -9 75
32 84 35 69 20 -19 -19 -142 -58 -204 -64 l-65 -7 102 40 c56 21 110 44 120
50 10 6 23 10 28 10 6 0 -26 -18 -70 -40z m-2458 -11 c-3 -8 -6 -5 -6 6 -1 11
2 17 5 13 3 -3 4 -12 1 -19z m2664 -52 c-25 -27 -124 -61 -221 -76 -88 -13
-391 -13 -485 1 -45 7 -85 19 -98 30 -27 23 -13 24 62 5 89 -23 322 -37 436
-27 146 13 288 55 310 92 4 5 10 8 13 5 3 -4 -5 -17 -17 -30z m-2596 4 c3 -6
-1 -7 -9 -4 -18 7 -21 14 -7 14 6 0 13 -4 16 -10z m189 -60 c71 -6 158 -10
192 -10 36 0 64 -4 64 -10 0 -6 -90 -10 -250 -10 l-250 0 0 25 c0 26 1 26 58
20 31 -3 115 -10 186 -15z m-165 -66 c2 -2 -7 -5 -20 -6 -13 -1 5 -4 41 -8
l65 -7 -68 -1 c-43 -1 -66 -6 -62 -12 3 -5 21 -11 38 -11 l32 -2 -30 -5 c-28
-6 -27 -6 15 -12 l45 -7 -52 -1 c-52 -2 -52 -2 -62 36 -6 20 -11 40 -11 44 0
7 60 -1 69 -8z"/>
<path d="M5799 9339 c-11 -16 -17 -33 -14 -39 4 -6 -5 -25 -20 -42 -18 -21
-25 -38 -21 -53 4 -16 -4 -31 -29 -55 -19 -19 -35 -38 -35 -42 0 -21 34 -17
89 10 32 17 61 28 64 25 3 -2 -19 -26 -48 -53 -79 -71 -97 -91 -91 -97 3 -3
20 9 38 28 18 19 44 43 58 54 l25 20 -25 -30 c-13 -17 -35 -41 -48 -54 -16
-16 -22 -31 -19 -47 2 -13 1 -21 -4 -19 -11 7 -17 -18 -29 -109 -15 -120 15
-282 50 -271 10 3 28 -20 60 -78 60 -109 60 -111 -4 -44 -48 52 -55 56 -61 38
-6 -20 13 -65 44 -103 16 -20 36 -24 25 -5 -7 11 31 -19 67 -53 14 -14 14 -18
2 -29 -12 -11 -19 -9 -41 10 -15 13 -35 33 -44 44 -36 41 -16 -3 27 -60 44
-60 45 -60 117 -74 40 -7 133 -15 206 -18 l133 -5 25 29 c32 36 66 101 61 116
-2 7 12 29 31 51 19 21 45 62 58 91 47 103 67 282 41 369 -11 35 -12 28 -12
-70 -1 -191 -72 -371 -166 -420 -38 -19 -42 -18 -27 9 6 12 13 28 14 35 3 18
14 29 14 14 0 -24 19 -10 48 36 48 75 73 148 77 231 l4 76 -37 -112 c-47 -141
-78 -179 -172 -208 -18 -6 -13 2 20 27 89 67 125 157 125 303 l-1 90 -53 93
c-52 90 -55 93 -125 127 -62 31 -81 36 -141 36 -39 -1 -88 -5 -110 -11 -22 -5
-52 -10 -67 -10 -25 0 -27 2 -17 23 14 30 123 87 167 87 61 0 143 -30 178 -66
19 -18 54 -45 79 -59 46 -27 55 -40 33 -48 -21 -7 43 -79 97 -108 34 -19 55
-25 74 -20 29 8 31 23 4 31 -33 9 -49 25 -101 102 -33 50 -46 75 -35 71 15 -6
16 -4 6 8 -6 8 -26 16 -44 17 -17 1 -41 7 -53 13 -20 10 -20 10 -2 -5 11 -9
17 -18 14 -22 -3 -3 -21 9 -40 26 -19 18 -25 27 -13 22 11 -5 29 -6 40 -2 21
8 46 2 56 -12 7 -11 40 1 33 13 -3 5 -1 9 4 9 6 0 10 -12 11 -27 0 -16 1 -37
1 -49 0 -12 14 -28 33 -39 17 -10 49 -33 70 -52 50 -44 77 -45 45 -1 -13 17
-43 72 -68 122 l-45 91 -83 43 c-138 72 -205 93 -312 98 -52 2 -117 6 -143 8
-43 3 -50 0 -68 -25z m221 -99 c-20 -5 -64 -22 -100 -39 -35 -17 -66 -28 -69
-26 -6 7 -5 7 74 42 39 17 84 31 100 31 29 0 29 0 -5 -8z m-170 -25 c-7 -8
-20 -15 -29 -15 -13 1 -13 3 3 15 26 19 42 19 26 0z m-15 -35 c-3 -5 -11 -10
-16 -10 -6 0 -7 5 -4 10 3 6 11 10 16 10 6 0 7 -4 4 -10z m52 -140 c-58 -52
-87 -115 -94 -201 -11 -126 28 -246 105 -325 42 -44 84 -62 177 -80 l70 -13
-97 2 c-54 1 -90 5 -80 8 14 5 13 7 -8 14 -43 14 -129 77 -150 109 -60 98 -78
307 -34 396 25 50 73 101 119 124 44 23 42 12 -8 -34z m300 24 c-3 -3 -12 -4
-19 -1 -8 3 -5 6 6 6 11 1 17 -2 13 -5z m-7 -49 c32 -18 25 -18 -25 0 -22 8
-31 14 -20 14 11 0 31 -6 45 -14z m210 1 c0 -2 -6 -9 -13 -15 -10 -8 -14 -7
-14 4 0 8 6 15 14 15 7 0 13 -2 13 -4z m-262 -21 c29 -9 68 -29 87 -46 36 -32
79 -111 90 -166 6 -31 5 -33 -22 -33 -15 0 -33 4 -38 8 -15 11 -35 60 -35 86
0 13 -6 29 -14 36 -8 6 -16 21 -18 32 -2 12 -8 23 -14 25 -15 5 -46 -26 -39
-38 6 -9 -15 -13 -45 -10 -8 1 -25 14 -36 28 -24 28 -49 23 -41 -7 3 -11 -1
-21 -9 -24 -8 -3 -14 -15 -14 -26 0 -11 -7 -20 -15 -20 -9 0 -19 -8 -23 -17
-4 -10 -16 -19 -27 -20 -11 -2 -35 -6 -52 -9 l-33 -6 14 46 c16 52 23 62 81
118 60 58 114 69 203 43z m-412 -121 c-4 -20 -10 -34 -12 -31 -3 3 -2 21 2 41
3 21 9 35 11 32 3 -3 2 -21 -1 -42z m111 -36 c-3 -8 -6 -5 -6 6 -1 11 2 17 5
13 3 -3 4 -12 1 -19z m256 5 c-13 -2 -33 -2 -45 0 -13 2 -3 4 22 4 25 0 35 -2
23 -4z m64 1 c-3 -3 -12 -4 -19 -1 -8 3 -5 6 6 6 11 1 17 -2 13 -5z m31 -52
c23 -30 23 -32 6 -39 -11 -4 -27 -17 -37 -30 -10 -13 -23 -21 -28 -18 -5 4 -9
1 -9 -4 0 -21 -26 -11 -56 22 -32 33 -33 38 -21 74 7 18 17 23 55 26 64 4 62
5 90 -31z m-300 -31 c-15 -25 -28 -27 -28 -6 0 8 7 15 15 15 8 0 15 5 15 12 0
6 3 9 6 6 3 -3 -1 -15 -8 -27z m100 -8 c-18 -20 -19 -23 -5 -23 24 0 21 -26
-4 -51 l-22 -22 26 5 c15 3 24 1 21 -4 -4 -6 -21 -7 -39 -4 -19 4 -36 2 -40
-3 -6 -10 44 -41 67 -41 7 0 29 -10 48 -22 28 -18 52 -22 116 -24 52 -1 91 -7
112 -18 18 -9 32 -18 32 -21 0 -11 -93 -66 -121 -72 -29 -6 -32 -4 -27 15 7
25 -4 29 -22 7 -16 -20 -63 -19 -103 1 -49 25 -114 82 -137 119 -26 42 -27
116 -2 137 28 25 74 46 98 44 l23 -1 -21 -22z m305 -18 c24 -5 27 -9 26 -48 0
-23 -3 -59 -7 -80 l-7 -39 -28 31 c-15 17 -25 31 -22 31 3 0 1 9 -5 21 -7 12
-18 18 -26 15 -8 -3 -12 -2 -9 3 3 5 1 12 -5 16 -5 3 -10 17 -10 30 0 32 19
36 93 20z m-143 -70 c7 -9 8 -15 2 -15 -5 0 -12 7 -16 15 -3 8 -4 15 -2 15 2
0 9 -7 16 -15z m-60 -45 c13 -9 13 -10 0 -10 -8 0 -22 5 -30 10 -13 9 -13 10
0 10 8 0 22 -5 30 -10z m-208 -204 c10 -19 10 -20 -6 -7 -9 8 -22 24 -28 35
-10 19 -10 20 6 7 9 -8 22 -24 28 -35z m68 -10 c0 -5 8 -19 18 -30 17 -20 16
-20 -3 -6 -23 17 -85 79 -85 86 0 2 16 -6 35 -18 19 -13 35 -27 35 -32z m325
16 c-18 -15 -65 -32 -65 -23 0 4 15 13 33 19 42 13 43 13 32 4z m-477 -27 c-3
-3 -9 2 -12 12 -6 14 -5 15 5 6 7 -7 10 -15 7 -18z m325 -17 c85 -8 101 -7
123 7 36 24 49 14 24 -18 -18 -23 -28 -27 -51 -22 -15 4 -37 1 -48 -5 -17 -8
-21 -8 -21 3 0 22 -69 30 -98 11 -26 -17 -46 -8 -55 27 -4 16 -2 19 11 14 9
-4 61 -11 115 -17z m-143 -48 c12 -8 12 -10 -2 -15 -23 -9 -50 -3 -56 13 -4
14 36 16 58 2z m118 -9 c23 -14 11 -64 -18 -72 -21 -6 -22 -7 -5 -9 17 -2 16
-3 -5 -10 -42 -13 -56 -12 -34 4 18 14 18 15 2 21 -21 8 -24 45 -6 63 14 14
47 15 66 3z m232 -11 c-14 -27 -43 -41 -61 -29 -12 7 -12 9 2 9 9 0 26 9 39
20 29 25 33 25 20 0z m-110 0 c0 -5 -4 -10 -10 -10 -5 0 -10 5 -10 10 0 6 5
10 10 10 6 0 10 -4 10 -10z m-43 -22 c13 -12 42 -25 66 -29 30 -5 20 -6 -38
-4 -79 2 -93 9 -81 40 8 21 26 19 53 -7z m-189 5 c-10 -2 -28 -2 -40 0 -13 2
-5 4 17 4 22 1 32 -1 23 -4z m16 -21 c2 -4 -4 -14 -16 -21 -11 -7 -17 -8 -13
-2 4 7 -5 11 -22 12 -25 0 -26 1 -8 9 26 11 53 12 59 2z m163 -38 c-3 -3 -12
-4 -19 -1 -8 3 -5 6 6 6 11 1 17 -2 13 -5z m79 -14 c-17 -6 -36 -5 -45 0 -11
7 -3 9 29 9 42 -1 43 -1 16 -9z"/>
<path d="M5930 8871 c0 -11 31 -24 39 -16 3 3 -1 10 -9 15 -19 12 -30 12 -30
1z"/>
<path d="M6604 6806 c-93 -29 -154 -82 -154 -134 0 -33 41 -73 75 -74 17 0 73
7 125 16 73 12 108 14 148 6 75 -14 149 -48 209 -97 29 -24 56 -43 59 -43 12
0 -8 76 -37 137 -37 78 -118 154 -194 182 -64 24 -166 27 -231 7z"/>
<path d="M4895 6604 c-76 -19 -150 -56 -223 -111 -48 -36 -73 -40 -116 -18
-37 19 -36 20 -36 -14 0 -15 10 -40 21 -55 28 -35 14 -53 -29 -38 -17 6 -33 8
-36 5 -21 -21 13 -73 48 -73 14 0 16 -6 12 -27 -15 -78 -16 -114 -7 -180 11
-77 41 -167 67 -199 14 -18 15 -18 8 6 -14 51 -20 143 -13 197 16 119 121 257
240 313 35 16 74 30 86 30 l22 0 -25 -37 c-152 -223 -151 -508 3 -644 157
-137 370 -33 461 225 19 55 25 92 26 165 l1 94 19 -59 c21 -64 28 -243 13
-319 -11 -58 8 -26 34 55 56 178 -5 413 -142 549 -42 42 -120 92 -179 116 -44
17 -211 30 -255 19z m124 -330 c27 -35 26 -59 -4 -89 -18 -19 -35 -25 -69 -25
-78 0 -102 56 -47 111 39 39 91 40 120 3z"/>
<path d="M6660 6384 c-66 -18 -114 -49 -176 -116 -51 -55 -116 -184 -133 -266
-15 -70 -13 -187 4 -237 l13 -40 1 62 c1 73 24 189 49 245 l17 40 0 -139 c0
-124 2 -143 24 -191 61 -134 177 -160 284 -62 79 73 120 165 125 288 5 110
-11 164 -66 219 -31 31 -32 34 -11 28 90 -29 148 -152 137 -290 -4 -50 -3 -56
9 -40 20 28 50 115 58 168 5 31 13 48 25 52 17 5 45 53 36 62 -2 3 -13 0 -24
-6 -35 -18 -35 -13 -3 31 38 51 42 77 9 54 -30 -21 -45 -20 -26 2 22 24 61
103 54 109 -3 3 -24 -11 -47 -31 -24 -20 -50 -36 -59 -36 -9 0 -29 13 -45 30
-61 64 -163 90 -255 64z m-85 -269 c31 -30 32 -73 4 -109 -27 -34 -64 -32 -92
5 -23 31 -17 79 14 110 25 25 45 24 74 -6z"/>
<path d="M3495 6376 c-56 -25 -105 -101 -105 -163 0 -24 4 -21 35 29 37 59 87
98 124 98 26 0 26 0 -4 -60 -35 -69 -31 -73 18 -17 28 32 48 46 58 42 15 -6
89 -110 89 -126 0 -5 -18 -13 -39 -19 -54 -14 -91 -60 -91 -111 0 -31 7 -47
34 -77 35 -38 56 -40 37 -3 -33 60 -5 130 54 134 28 2 30 0 45 -65 23 -101 33
-95 28 18 -4 81 -10 111 -32 160 -32 70 -86 129 -141 155 -47 22 -69 23 -110
5z"/>
<path d="M6050 5806 c0 -2 7 -23 15 -46 20 -57 19 -96 -5 -149 -11 -24 -18
-46 -16 -49 10 -10 66 61 77 98 11 37 10 42 -22 95 -28 46 -49 68 -49 51z"/>
<path d="M4694 5772 c52 -60 197 -123 311 -136 86 -9 196 9 272 45 36 17 62
33 59 36 -3 3 -11 1 -18 -4 -7 -6 -40 -21 -73 -33 -49 -19 -79 -24 -165 -24
-149 0 -243 28 -360 107 -34 23 -40 25 -26 9z"/>
<path d="M6855 5703 c-70 -93 -145 -134 -264 -143 l-86 -7 77 -2 c56 -1 92 5
132 19 65 25 144 96 175 158 12 23 20 42 19 42 -2 0 -25 -30 -53 -67z"/>
<path d="M5620 5370 c-25 -47 29 -167 97 -211 59 -39 160 -18 215 44 30 35 60
106 53 127 -6 18 -16 20 -94 20 -55 0 -117 7 -166 20 -95 24 -92 24 -105 0z
m203 -67 c62 -5 68 -8 42 -15 -34 -9 -131 7 -141 24 -5 8 -1 9 10 5 10 -4 50
-10 89 -14z"/>
<path d="M5740 5040 c0 -15 26 -23 46 -16 20 8 17 11 -18 20 -17 4 -28 2 -28
-4z"/>
<path d="M4886 4014 c-20 -20 -20 -43 0 -72 18 -27 55 -29 77 -4 22 25 21 48
-3 72 -24 24 -53 26 -74 4z m54 -40 c0 -8 -5 -12 -10 -9 -6 4 -8 11 -5 16 9
14 15 11 15 -7z"/>
<path d="M4417 2652 c-16 -17 -16 -23 5 -83 l22 -64 13 33 c9 23 11 44 4 73
-12 54 -23 64 -44 41z"/>
<path d="M5384 3323 c-14 -14 -16 -32 -12 -116 4 -67 9 -102 18 -107 19 -11
189 0 220 14 24 11 25 15 24 91 -1 44 -7 92 -13 108 l-11 27 -104 0 c-85 0
-108 -3 -122 -17z"/>
<path d="M6190 2348 c-12 -29 -33 -70 -46 -90 -21 -32 -30 -38 -60 -38 -19 0
-49 7 -65 16 -30 15 -30 15 -19 -6 6 -11 27 -28 46 -37 66 -32 113 8 154 133
27 80 21 94 -10 22z"/>
</g>
</svg>
