<?xml version="1.0" standalone="no"?>
<!DOCTYPE svg PUBLIC "-//W3C//DTD SVG 20010904//EN"
 "http://www.w3.org/TR/2001/REC-SVG-20010904/DTD/svg10.dtd">
<svg version="1.0" xmlns="http://www.w3.org/2000/svg"
 width="1024.000000pt" height="1024.000000pt" viewBox="0 0 1024.000000 1024.000000"
 preserveAspectRatio="xMidYMid meet">
<metadata>
Created by potrace 1.16, written by Peter Selinger 2001-2019
</metadata>
<g transform="translate(0.000000,1024.000000) scale(0.100000,-0.100000)"
fill="#000000" stroke="none">
<path d="M4827 9415 c-280 -52 -726 -335 -987 -625 -155 -174 -259 -328 -376
-561 -123 -245 -190 -458 -215 -681 -6 -62 -15 -116 -18 -120 -14 -16 -409
-122 -575 -154 -338 -66 -553 -130 -663 -196 -76 -45 -139 -118 -158 -181 -20
-66 -19 -92 5 -168 79 -256 459 -524 1010 -714 134 -46 364 -107 454 -120 25
-4 48 -10 51 -14 2 -4 -12 -45 -31 -92 -64 -152 -112 -293 -136 -399 -19 -89
-23 -133 -23 -280 0 -151 3 -186 23 -255 24 -84 122 -294 147 -315 9 -7 0 21
-20 61 -54 114 -77 215 -82 363 -6 149 7 263 47 421 28 107 79 259 86 252 2
-1 -3 -30 -10 -62 -43 -184 -54 -519 -23 -675 47 -238 166 -434 327 -540 54
-35 185 -86 174 -68 -5 7 -27 42 -50 78 -37 58 -94 193 -94 223 0 6 7 0 16
-13 48 -72 181 -184 249 -210 14 -5 25 -15 25 -21 0 -19 -61 -89 -91 -104 -37
-20 -76 -72 -97 -131 -10 -27 -39 -78 -65 -113 -55 -74 -62 -94 -54 -168 9
-91 109 -279 215 -407 23 -27 44 -62 47 -77 3 -15 22 -53 42 -86 32 -52 37
-70 49 -171 26 -230 72 -314 194 -349 39 -12 60 -23 60 -33 0 -8 -9 -66 -20
-128 -10 -62 -22 -152 -26 -200 -4 -57 -13 -98 -25 -117 -10 -17 -21 -51 -25
-75 -5 -35 -18 -57 -56 -97 -48 -52 -78 -105 -78 -140 0 -10 7 -31 15 -47 13
-24 14 -39 4 -88 -14 -70 -7 -142 15 -167 16 -17 11 -23 -96 -104 -103 -79
-120 -88 -186 -102 -40 -8 -83 -20 -95 -26 -32 -16 -87 -70 -102 -100 l-14
-26 -223 -6 c-426 -13 -972 -58 -1066 -88 -40 -13 245 -2 838 31 446 24 440
24 440 1 0 -19 -6 -21 -52 -21 -29 0 -134 -6 -233 -14 -99 -8 -281 -17 -405
-21 -124 -4 -261 -10 -305 -15 l-80 -7 125 -3 c80 -1 116 -5 100 -10 -20 -7
-16 -8 25 -10 l50 -2 -38 -9 c-39 -9 -133 -21 -501 -64 -320 -38 -357 -43
-363 -49 -4 -3 93 -6 214 -6 121 0 276 -3 344 -7 l124 -8 -85 -6 c-47 -4 -164
-8 -260 -9 -96 -2 -227 -5 -290 -9 l-115 -6 160 -8 c88 -4 293 -15 455 -24
274 -14 441 -15 1388 -9 216 1 1324 -23 1330 -29 3 -3 -53 -5 -125 -5 -294 0
-649 -13 -613 -23 38 -10 1090 0 1240 12 84 7 85 8 16 25 -5 1 66 7 157 14
137 9 185 9 265 -3 226 -32 613 -27 757 10 33 9 81 27 107 40 37 19 64 25 120
26 40 1 105 5 143 8 68 7 69 7 30 15 -22 4 -47 8 -55 9 -8 1 143 15 335 30
669 53 720 58 745 64 43 12 -156 21 -496 22 -341 1 -498 9 -454 22 14 5 -75 7
-198 6 -211 -2 -224 -1 -238 17 -34 47 -47 47 541 21 469 -20 821 -29 813 -20
-22 23 -863 75 -1229 75 -104 0 -160 4 -165 11 -14 23 -102 70 -166 90 -76 22
-87 35 -167 181 l-42 77 22 43 c29 55 31 157 5 207 -17 32 -17 35 0 66 16 31
16 36 1 77 -22 57 -81 129 -138 167 -44 28 -47 34 -59 94 -6 36 -20 78 -31 93
-10 16 -23 36 -28 44 -5 8 -19 60 -31 115 -13 55 -34 131 -46 169 -13 38 -24
71 -24 73 0 2 12 3 28 3 15 0 45 11 67 25 22 13 51 29 65 36 14 6 45 21 70 34
25 12 56 26 70 30 36 11 89 53 111 89 27 44 24 78 -18 237 l-36 139 31 68 c18
38 32 74 32 82 0 7 16 30 35 51 22 25 35 49 35 67 0 20 14 39 56 76 78 68 171
188 211 271 38 80 43 144 15 187 -14 22 -216 202 -299 268 -14 11 -23 29 -23
45 0 18 -10 36 -31 54 -18 14 -48 43 -68 64 -20 20 -42 37 -49 37 -18 0 -15
14 7 27 35 22 142 166 181 244 22 43 51 111 65 151 l24 73 1 -55 c0 -91 -35
-203 -91 -290 l-23 -35 30 25 c221 193 292 272 362 408 66 126 92 244 92 412
0 148 1 150 54 150 21 0 24 -6 29 -67 16 -162 1 -316 -44 -468 -25 -84 -113
-272 -170 -364 l-41 -66 40 40 c102 100 212 330 252 525 22 108 30 293 15 377
l-7 42 44 11 c24 6 104 31 178 57 365 124 644 328 759 555 113 223 65 427
-149 638 -179 177 -542 367 -897 471 -43 12 -73 26 -73 34 0 7 -18 73 -40 145
-49 164 -147 410 -203 510 -54 97 -195 239 -348 353 -208 154 -984 664 -1164
765 -216 120 -360 156 -518 127z m285 -75 c95 -34 275 -134 433 -239 l100 -66
17 -85 c57 -275 96 -855 72 -1057 l-7 -52 -316 5 c-182 4 -388 2 -486 -4 -93
-6 -171 -9 -173 -7 -2 2 16 14 40 26 59 29 193 125 215 152 10 12 32 32 49 44
58 41 135 313 119 422 -9 63 -26 121 -37 121 -4 0 -8 7 -8 15 0 9 -7 18 -15
21 -8 4 -15 11 -15 16 0 6 -11 21 -25 34 -15 14 -22 29 -19 39 4 8 1 22 -6 31
-7 8 -13 30 -12 49 l1 34 -48 -1 c-27 0 -59 3 -71 7 -13 4 -33 1 -47 -6 -23
-12 -27 -11 -44 10 -11 14 -25 21 -34 17 -8 -3 -15 -2 -15 3 0 13 -73 22 -84
11 -6 -6 -18 -10 -27 -10 -9 0 -19 -7 -23 -15 -3 -8 -14 -15 -25 -15 -11 0
-23 -5 -26 -11 -4 -6 -13 -8 -20 -5 -7 2 -16 2 -20 -2 -6 -7 -21 -9 -105 -15
-27 -1 -35 -6 -35 -22 -1 -11 -4 -26 -9 -33 -4 -7 -5 -20 -2 -29 4 -9 -2 -24
-14 -35 -11 -10 -20 -24 -20 -31 0 -7 -10 -23 -22 -37 -60 -66 -87 -190 -68
-311 17 -111 58 -237 81 -249 10 -6 45 -34 78 -63 32 -29 106 -77 164 -107 58
-30 104 -56 103 -58 -2 -1 -57 -7 -122 -13 -181 -16 -451 -64 -622 -110 -84
-23 -154 -40 -156 -38 -8 11 37 482 59 619 28 169 73 380 108 504 19 68 28 85
72 127 208 200 576 413 785 453 69 13 196 -2 282 -34z m976 -597 c450 -298
546 -368 630 -457 95 -102 157 -245 248 -571 24 -88 47 -169 50 -180 4 -13 3
-17 -4 -10 -6 6 -26 64 -46 130 -37 128 -84 265 -85 252 -1 -6 40 -204 54
-262 6 -24 -13 13 -56 110 -63 143 -142 292 -181 343 -23 29 -42 51 -44 50 -1
-2 10 -39 25 -83 46 -130 45 -135 -10 -35 -69 127 -156 251 -232 331 -56 60
-193 184 -242 219 -19 15 -19 15 -1 -15 28 -45 144 -208 225 -315 64 -85 186
-298 177 -308 -3 -2 -10 7 -16 20 -53 100 -278 404 -256 344 39 -109 72 -267
79 -391 6 -91 1 -79 -38 88 -25 107 -86 279 -92 260 -2 -6 12 -79 33 -163 20
-83 34 -153 32 -155 -2 -3 -14 27 -27 66 -12 39 -24 69 -26 67 -2 -2 2 -55 10
-118 7 -63 12 -117 10 -118 -2 -2 -12 16 -23 40 l-19 43 -7 -36 c-4 -19 -6
-50 -4 -69 3 -29 8 -35 43 -46 40 -14 40 -14 5 -8 -239 35 -311 45 -404 54
-60 6 -114 14 -119 17 -5 3 -7 31 -4 62 9 91 -10 616 -28 746 -13 101 -30 190
-63 344 -4 19 -2 22 9 16 8 -5 186 -123 397 -262z m-1312 81 c6 -8 19 -12 28
-8 9 3 16 1 16 -5 0 -6 14 -11 30 -11 17 0 30 5 30 11 0 8 4 8 14 -1 8 -6 34
-10 57 -9 l43 4 14 -55 c10 -42 11 -59 2 -76 -10 -18 -6 -33 27 -100 37 -78
38 -81 38 -194 0 -110 -1 -119 -33 -182 -48 -98 -136 -173 -254 -217 -21 -8
-28 -17 -28 -37 0 -26 -1 -26 -25 -10 -24 16 -25 16 -25 -9 0 -20 5 -25 24
-25 13 0 26 7 30 15 3 8 15 15 26 15 54 0 197 115 267 215 20 28 33 42 29 32
-3 -11 -9 -30 -12 -43 -3 -13 -10 -24 -14 -24 -5 0 -44 -35 -87 -77 -83 -82
-198 -153 -248 -153 -48 0 -210 88 -269 146 -30 30 -53 54 -50 54 2 0 39 -28
82 -62 108 -86 185 -116 195 -77 6 23 5 24 -53 39 -134 36 -244 161 -271 307
-18 95 6 210 61 297 36 55 36 62 9 69 -20 5 -20 7 -4 31 10 14 15 35 12 45 -8
32 8 43 71 46 33 2 70 8 82 15 12 6 28 9 35 6 7 -2 21 4 31 15 10 11 23 18 30
15 7 -3 15 2 18 10 7 17 55 9 72 -12z m-847 -69 c-69 -245 -117 -519 -139
-790 -15 -185 -28 -307 -33 -312 -9 -8 -152 -61 -156 -57 -2 2 19 28 46 57 53
56 55 61 69 192 7 66 2 69 -20 9 -25 -67 -18 -5 14 121 17 66 30 124 30 130
-1 5 -14 -6 -30 -25 -38 -43 -38 -35 1 41 51 102 26 89 -49 -25 -40 -60 -72
-106 -72 -102 0 3 28 61 61 129 72 143 131 278 125 284 -2 3 -17 -14 -32 -36
-15 -23 -29 -40 -30 -38 -4 4 39 113 68 172 l20 40 -26 -30 c-132 -158 -333
-649 -372 -910 -9 -60 -19 -117 -22 -125 -19 -55 -6 184 19 340 57 350 199
631 468 929 41 44 75 80 77 78 1 -1 -6 -34 -17 -72z m1184 -193 c32 -72 35
-201 8 -292 -12 -40 -24 -70 -27 -68 -2 3 3 25 12 49 24 68 22 210 -5 292 -12
36 -29 71 -37 77 -8 7 -14 17 -14 23 0 20 41 -33 63 -81z m-743 17 c-30 -57
-53 -208 -45 -285 4 -36 19 -88 36 -125 20 -41 26 -66 20 -72 -7 -7 -12 -6
-15 4 -3 8 -16 43 -28 79 -33 95 -33 267 1 360 23 65 40 94 48 86 2 -2 -5 -23
-17 -47z m-693 -791 c-3 -8 -6 -5 -6 6 -1 11 2 17 5 13 3 -3 4 -12 1 -19z
m2263 -3 c74 -8 187 -24 251 -35 64 -11 120 -20 124 -20 5 0 6 -2 3 -5 -2 -3
-67 4 -144 15 -76 10 -201 24 -277 30 -141 11 -347 4 -347 -11 0 -5 6 -9 13
-9 34 0 399 -32 517 -45 149 -17 442 -64 450 -72 3 -3 -13 -3 -35 1 -109 17
-434 57 -545 66 -213 17 -747 32 -905 25 -507 -21 -994 -85 -1375 -179 -72
-17 -130 -28 -130 -24 0 14 111 58 260 103 329 98 621 142 1105 165 121 6 243
12 270 14 121 9 638 -4 765 -19z m-285 -112 l109 -6 -145 -47 c-79 -26 -223
-79 -319 -120 -221 -92 -280 -114 -377 -141 -76 -22 -93 -22 -663 -23 -498 -1
-608 -4 -740 -20 -85 -10 -162 -22 -170 -27 -10 -6 -5 -7 15 -2 17 4 275 7
575 7 485 -1 566 -3 735 -22 l190 -21 -125 5 c-69 3 -224 9 -345 14 -282 12
-652 13 -640 1 9 -8 452 -32 885 -47 223 -8 318 3 445 53 50 19 250 114 445
211 l355 176 120 -3 c182 -4 216 -16 69 -24 -155 -8 -204 -27 -541 -210 -287
-156 -405 -209 -523 -233 -77 -15 -128 -16 -545 -8 -934 17 -1467 9 -1750 -27
-110 -14 -370 -64 -489 -94 -102 -26 -151 -32 -106 -13 68 28 301 103 478 152
411 115 494 138 757 205 641 165 993 224 1565 264 92 7 631 7 735 0z m144
-320 c143 -387 296 -629 490 -772 l67 -50 18 -123 c22 -151 58 -322 86 -408
23 -69 59 -140 71 -140 4 0 11 30 15 68 7 61 9 64 18 39 5 -15 14 -26 20 -24
14 5 52 113 70 200 9 41 16 128 17 191 1 117 5 128 39 106 12 -7 12 -12 -4
-29 -11 -12 -15 -21 -11 -21 5 0 41 32 81 70 39 39 92 79 115 90 114 51 264
-1 325 -113 37 -68 46 -196 19 -278 -41 -128 -184 -298 -304 -363 -59 -32
-128 -38 -232 -23 l-56 9 -38 -54 c-69 -96 -137 -168 -219 -232 -259 -201
-494 -316 -836 -409 -328 -89 -451 -109 -670 -109 -209 1 -459 37 -675 98
-300 84 -515 229 -607 409 -47 91 -49 105 -57 325 l-7 205 -64 250 -64 250 39
60 c67 103 106 209 170 458 l28 107 41 -1 c22 -1 66 -4 97 -8 56 -6 57 -7 116
-81 104 -129 187 -191 332 -246 53 -20 133 -57 179 -82 46 -24 85 -42 88 -40
2 3 -20 26 -49 51 -88 75 -336 371 -322 385 3 3 24 -9 48 -27 72 -55 220 -152
269 -177 194 -99 473 -162 732 -167 149 -2 169 3 135 39 -25 27 -17 31 21 9
31 -18 64 -19 106 -3 29 10 38 9 78 -13 42 -22 45 -25 29 -37 -16 -12 -15 -13
7 -7 16 4 61 -6 120 -25 63 -21 141 -36 232 -47 140 -16 193 -13 153 9 -35 18
-115 101 -155 158 -20 30 -60 100 -88 156 -51 101 -90 147 -153 180 -17 8 -33
13 -36 10 -3 -3 6 -33 21 -66 14 -34 26 -64 26 -67 0 -11 -146 151 -183 203
l-39 54 26 0 c29 0 35 17 9 22 -11 2 25 26 90 61 59 31 110 57 111 57 6 0 106
-264 106 -278 0 -3 -17 22 -38 54 -36 56 -93 114 -112 114 -5 0 -17 3 -27 7
-10 4 -1 -12 23 -38 23 -25 54 -67 70 -95 107 -185 246 -376 330 -454 61 -56
174 -144 174 -134 0 4 -33 41 -73 83 -93 98 -163 203 -246 371 -59 119 -151
356 -151 388 0 35 20 -1 59 -105z m483 -55 c40 -80 93 -194 144 -315 8 -18 12
-33 9 -33 -4 0 -49 89 -101 198 -52 108 -98 205 -104 214 -12 21 -13 28 -2 28
4 0 29 -42 54 -92z m78 -4 c44 -86 106 -269 89 -258 -5 3 -9 10 -9 15 0 6 -27
69 -61 142 -91 196 -92 200 -77 195 7 -2 33 -44 58 -94z m737 57 c365 -131
696 -284 869 -403 64 -44 126 -98 112 -98 -3 0 -68 37 -144 81 -194 114 -608
317 -793 390 -86 34 -158 63 -160 65 -9 9 12 2 116 -35z m223 -5 c139 -42 406
-166 523 -244 69 -45 242 -201 233 -209 -3 -3 -36 22 -73 55 -148 132 -396
276 -634 368 -118 45 -136 57 -49 30z m-2345 -16 c-11 -5 -27 -9 -35 -9 -9 0
-8 4 5 9 11 5 27 9 35 9 9 0 8 -4 -5 -9z m483 -86 c32 -47 96 -193 89 -200 -2
-2 -43 46 -90 108 -76 100 -84 114 -69 126 26 20 39 14 70 -34z m-415 -124
c23 -11 95 -59 161 -106 l118 -86 -35 -36 -35 -35 -30 22 c-26 18 -194 196
-231 244 -18 23 -2 22 52 -3z m-1487 -141 c-38 -158 -73 -263 -118 -353 -32
-64 -48 -72 -22 -10 32 75 95 270 125 383 17 63 32 119 35 123 17 27 11 -14
-20 -143z m412 83 c55 -73 108 -121 214 -192 37 -24 65 -46 63 -48 -7 -8 -151
86 -212 138 -59 50 -133 138 -133 159 0 25 20 8 68 -57z m147 1 c22 -31 68
-92 103 -135 67 -84 55 -91 -19 -11 -41 44 -139 183 -139 197 0 17 19 0 55
-51z m3852 -189 c132 -64 165 -84 174 -107 6 -15 9 -30 7 -33 -3 -3 -48 22
-99 54 -99 61 -271 177 -254 170 6 -2 83 -40 172 -84z m22 -108 c67 -31 127
-56 133 -56 17 0 48 -31 48 -48 0 -12 -5 -11 -27 4 -16 10 -93 51 -173 92
-209 106 -202 109 19 8z m-26 -66 c89 -38 168 -70 175 -70 25 0 23 -29 -7 -94
-16 -36 -32 -66 -35 -66 -7 0 -226 131 -226 136 0 2 24 -6 53 -17 120 -48 180
-69 184 -65 2 2 -38 25 -89 51 -51 26 -97 51 -103 55 -5 3 -36 17 -68 30 -105
41 -53 30 111 -24 89 -29 160 -50 157 -46 -8 14 -146 92 -239 135 -139 66 -94
53 87 -25z m-64 -165 c25 -12 78 -35 118 -50 63 -25 71 -31 62 -47 -5 -10 -13
-18 -18 -18 -4 0 -57 29 -117 65 -147 89 -163 106 -45 50z m43 -95 c106 -44
122 -55 94 -66 -12 -4 -198 93 -216 113 -6 7 -7 7 122 -47z m58 -112 c0 -17
-30 -6 -108 43 -45 27 -82 52 -82 54 0 3 43 -16 95 -42 52 -26 95 -51 95 -55z
m-70 -28 c4 0 13 -7 20 -15 22 -26 -12 -18 -66 17 -152 97 -178 122 -49 48 48
-28 90 -50 95 -50z m-41 -43 c19 -12 29 -23 22 -25 -11 -4 -171 95 -171 105 0
4 76 -37 149 -80z m-19 -68 c0 -15 -8 -11 -96 47 -115 77 -115 85 1 17 52 -30
95 -59 95 -64z m-132 13 c46 -29 81 -56 78 -59 -6 -6 -112 63 -166 108 -34 28
-11 16 88 -49z m-4304 -105 c13 -45 33 -138 45 -206 35 -208 27 -230 -37 -93
-80 172 -107 329 -72 411 l14 35 13 -32 c7 -18 24 -69 37 -115z m4309 25 c9
-8 15 -17 13 -19 -4 -5 -146 95 -146 103 0 5 110 -64 133 -84z m-65 -34 c18
-11 31 -23 28 -25 -7 -7 -58 23 -96 57 l-35 31 35 -22 c19 -11 50 -30 68 -41z
m-38 -64 c0 -2 -13 2 -30 11 -16 9 -30 18 -30 21 0 2 14 -2 30 -11 17 -9 30
-18 30 -21z m-84 -31 c-5 -5 -76 35 -76 43 0 2 18 -5 41 -16 23 -12 38 -24 35
-27z m-482 -438 c-17 -235 -110 -448 -273 -625 -33 -35 -28 -25 25 49 153 217
212 378 231 639 6 84 8 92 15 57 4 -22 5 -76 2 -120z m-3633 68 c-11 -37 -29
-115 -40 -173 -28 -147 -29 -149 -30 -108 -2 69 70 370 85 355 3 -3 -4 -36
-15 -74z m45 -123 c-24 -113 -36 -241 -36 -385 0 -326 66 -547 208 -695 37
-38 63 -70 58 -70 -4 0 -43 35 -85 78 -128 129 -179 258 -202 512 -17 189 9
547 49 665 l17 50 3 -40 c2 -22 -3 -74 -12 -115z m-222 -22 c-9 -29 -30 -114
-45 -188 -30 -146 -39 -148 -14 -4 17 93 64 258 72 250 3 -3 -3 -29 -13 -58z
m2176 -514 c26 -67 62 -236 67 -313 l5 -86 -52 73 c-82 115 -73 116 -217 -34
-68 -70 -123 -125 -123 -121 0 4 27 48 61 98 34 49 93 152 131 227 104 201
109 208 128 156z m147 -199 c1 -112 6 -173 22 -242 12 -51 21 -99 21 -107 0
-10 -33 -18 -122 -30 -68 -9 -140 -16 -160 -16 -64 0 -69 -32 -38 -285 6 -49
13 -154 15 -232 4 -164 14 -192 76 -224 30 -15 59 -20 110 -20 122 0 202 33
280 113 53 55 70 58 45 10 -14 -28 -109 -96 -180 -129 -31 -14 -31 -14 18 -9
59 7 156 50 187 82 12 13 28 24 36 24 33 0 22 -110 -15 -143 -19 -18 -84 -47
-104 -47 -6 0 -1 12 13 28 13 15 33 38 44 51 l20 24 -25 -13 c-14 -7 -62 -38
-106 -67 -85 -56 -129 -72 -201 -73 -29 0 -45 -5 -52 -17 -8 -16 -23 -18 -113
-15 -333 9 -503 -1 -539 -34 -20 -18 -69 -13 -69 8 0 27 -34 48 -79 49 -25 0
-91 8 -146 17 l-100 17 -3 32 -3 31 78 -29 c43 -16 80 -29 83 -29 12 0 -59 53
-102 75 -41 22 -69 58 -55 71 3 3 39 -2 81 -10 113 -24 234 -21 340 8 49 14
93 31 97 38 8 12 14 280 14 571 0 93 -4 120 -15 128 -9 6 -96 9 -222 7 l-207
-3 6 30 c3 17 21 75 39 130 19 54 34 101 34 104 0 2 2 2 5 0 2 -3 -2 -27 -10
-54 -21 -68 -20 -115 3 -115 9 0 60 45 112 100 59 62 103 100 115 100 35 0
110 -52 199 -137 77 -73 86 -86 86 -117 0 -33 -3 -36 -28 -36 -55 0 -85 -61
-51 -104 17 -22 27 -26 47 -21 l25 6 -6 -148 c-4 -81 -2 -245 2 -363 8 -189 7
-217 -6 -232 -9 -10 -11 -18 -6 -18 20 0 148 42 158 52 7 6 5 8 -5 4 -8 -2
-34 -7 -57 -10 l-43 -6 0 297 c0 164 3 375 7 470 l6 172 41 29 c23 16 74 60
115 96 72 65 74 66 94 49 11 -10 45 -56 75 -103 l55 -85 16 35 c11 26 15 72
16 185 0 142 -8 202 -41 290 -5 13 7 6 32 -20 l39 -39 2 -151z m-2013 -60 c14
-44 50 -129 79 -188 30 -59 47 -101 39 -95 -17 15 -83 111 -106 155 -28 56
-64 208 -70 300 l-5 88 19 -90 c10 -49 30 -126 44 -170z m1766 247 c0 -24
-102 -139 -165 -186 -31 -24 -5 -18 43 9 23 13 42 22 42 20 0 -7 -128 -219
-145 -240 -15 -19 -16 -19 -28 -2 -27 41 -74 114 -94 148 l-23 36 58 -4 57 -4
-35 20 c-44 24 -58 40 -102 117 l-36 61 132 7 c72 4 160 11 196 15 94 12 100
12 100 3z m-640 -21 c0 -6 -19 -31 -41 -57 -23 -27 -50 -69 -61 -94 -26 -59
-133 -381 -163 -490 -29 -106 -32 -81 -4 43 23 106 28 121 102 317 58 154 72
183 127 248 36 45 40 47 40 33z m959 -23 c-4 -18 -13 -51 -18 -73 -10 -38 -10
-37 -6 18 2 32 9 65 16 73 17 20 18 18 8 -18z m-835 -10 c7 -18 51 -89 97
-158 46 -69 88 -132 93 -140 10 -16 -26 13 -86 71 -36 34 -93 59 -136 59 -15
0 -34 -19 -63 -61 -22 -33 -42 -59 -44 -57 -6 5 21 150 39 210 17 60 49 108
72 108 7 0 20 -15 28 -32z m693 -15 c-3 -10 -5 -4 -5 12 0 17 2 24 5 18 2 -7
2 -21 0 -30z m288 -317 c9 -76 14 -141 11 -143 -11 -11 -46 323 -44 427 1 55
2 49 10 -40 5 -58 15 -168 23 -244z m19 232 c6 -110 26 -296 46 -428 30 -209
17 -226 -20 -25 -31 172 -60 565 -42 565 5 0 12 -51 16 -112z m665 50 c-34
-67 -109 -177 -128 -187 -10 -6 -23 -6 -31 -1 -11 7 -3 20 36 62 27 29 69 79
93 111 24 31 45 57 47 57 3 0 -5 -19 -17 -42z m-518 -14 c97 -47 259 -141 259
-150 0 -3 -17 5 -37 18 -98 60 -192 109 -264 138 -43 18 -79 34 -79 36 0 12
36 -1 121 -42z m-444 -56 c-2 -18 -4 -6 -4 27 0 33 2 48 4 33 2 -15 2 -42 0
-60z m443 21 c52 -27 152 -85 222 -127 122 -73 127 -77 112 -97 -57 -77 -154
-231 -178 -283 -16 -34 -32 -62 -35 -62 -3 0 -19 44 -34 98 -24 85 -85 234
-72 177 2 -11 23 -100 45 -198 23 -99 40 -181 37 -183 -5 -5 -155 344 -173
403 -14 46 -44 250 -44 299 0 13 6 24 13 24 6 0 55 -23 107 -51z m-280 -319
c39 -248 137 -515 252 -685 67 -99 111 -155 123 -155 4 0 -9 19 -28 43 -55 69
-137 195 -162 251 -35 78 -40 110 -6 38 42 -88 95 -175 154 -252 28 -36 55
-71 61 -79 8 -11 8 -13 -1 -7 -7 4 -13 3 -13 -2 0 -5 10 -12 22 -15 12 -4 19
-9 16 -13 -25 -24 -151 119 -226 256 -94 173 -184 449 -212 647 -6 43 -12 131
-15 198 l-4 120 14 -135 c7 -74 19 -169 25 -210z m-1253 231 c-23 -50 -43 -89
-44 -87 -10 9 68 176 82 176 2 0 -15 -40 -38 -89z m-66 7 c-32 -70 -55 -156
-72 -268 -6 -41 -15 -86 -21 -99 l-9 -25 -19 30 c-24 35 -25 24 -5 -42 15 -50
18 -177 7 -270 l-7 -51 -53 17 c-61 20 -56 7 13 -37 42 -26 62 -57 45 -68 -18
-11 -136 83 -234 187 l-105 110 87 117 c191 259 229 307 282 360 49 50 108
101 116 101 1 0 -10 -28 -25 -62z m1954 -91 c16 -15 -48 20 -70 38 -11 9 -2 7
20 -6 22 -12 45 -26 50 -32z m-1695 -47 c-15 -57 -21 -46 -8 15 6 28 13 45 15
38 2 -6 -1 -30 -7 -53z m1790 11 c0 -5 -22 -25 -49 -45 -27 -19 -67 -61 -89
-93 -45 -66 -75 -123 -69 -129 2 -2 50 47 106 109 57 61 110 116 118 120 17
10 33 0 18 -11 -6 -4 -21 -20 -35 -35 -18 -21 -21 -30 -12 -36 9 -5 6 -12 -10
-26 -13 -11 -17 -13 -10 -5 6 8 12 19 12 25 0 5 -7 1 -15 -9 -8 -10 -12 -23
-9 -27 3 -5 -19 -39 -49 -76 -105 -133 -154 -217 -165 -286 l-7 -41 -19 29
c-17 26 -18 36 -9 91 13 73 79 225 133 303 38 57 85 104 130 134 28 20 30 20
30 8z m118 -97 c12 -8 22 -21 22 -28 0 -7 -34 -55 -76 -107 -41 -52 -111 -152
-154 -223 -87 -142 -82 -140 -110 -37 -9 35 -8 46 9 79 46 91 247 332 276 332
6 0 21 -7 33 -16z m-2181 -66 c-3 -8 -6 -5 -6 6 -1 11 2 17 5 13 3 -3 4 -12 1
-19z m20 -25 c-3 -10 -5 -4 -5 12 0 17 2 24 5 18 2 -7 2 -21 0 -30z m2273 -49
c30 -28 103 -93 162 -143 59 -51 109 -100 113 -110 10 -34 -30 -123 -97 -213
-63 -86 -193 -208 -221 -208 -16 0 -18 -3 -9 -12 18 -18 -5 -38 -43 -38 -80 0
-305 114 -305 154 1 54 30 149 51 173 38 40 100 79 157 97 33 11 52 23 52 33
0 23 -72 9 -137 -27 -29 -15 -53 -27 -53 -25 0 2 30 52 66 111 84 137 186 274
199 266 6 -3 35 -29 65 -58z m-2314 -60 c-14 -95 -20 -318 -15 -529 l3 -100 6
110 6 110 1 -135 c1 -133 1 -134 -15 -100 -26 54 -24 515 2 653 10 54 20 96
22 94 3 -2 -2 -49 -10 -103z m31 64 c-3 -8 -6 -5 -6 6 -1 11 2 17 5 13 3 -3 4
-12 1 -19z m1302 -81 c37 -130 37 -123 0 -136 -67 -23 -230 -8 -297 28 -30 16
-40 38 -44 101 l-3 55 140 16 c77 9 149 17 160 17 17 2 24 -11 44 -81z m-764
-36 l0 -94 -85 -28 c-52 -17 -107 -28 -142 -29 -63 0 -209 19 -220 29 -4 3 3
51 15 106 l22 100 65 6 c36 3 128 5 205 5 l140 -1 0 -94z m914 -145 c6 -16 10
-31 7 -33 -4 -4 -57 137 -75 202 -24 88 -8 63 23 -35 18 -58 38 -118 45 -134z
m134 114 c21 -84 28 -140 18 -140 -8 0 -33 108 -46 195 -8 57 9 24 28 -55z
m-2008 -106 c61 -81 143 -158 224 -211 33 -23 65 -43 70 -45 5 -1 13 -15 16
-30 7 -26 3 -29 -40 -48 -59 -25 -71 -25 -123 5 -136 78 -291 271 -267 333 5
14 9 12 19 -13 l13 -30 8 45 c13 78 15 78 80 -6z m1450 0 c14 -9 32 -14 40
-10 9 3 18 -1 21 -9 4 -8 12 -15 19 -15 8 0 16 -8 18 -17 3 -11 5 -6 7 12 1
27 3 25 18 -20 l16 -50 6 50 5 50 18 -53 c22 -61 39 -60 31 2 l-6 43 43 6 c24
4 54 10 67 13 18 5 24 1 37 -30 24 -58 22 -61 -62 -81 -108 -26 -217 -26 -268
0 -38 19 -40 22 -43 73 -2 28 0 52 3 52 3 0 17 -7 30 -16z m-493 -136 c-5 -5
-47 -16 -93 -24 -110 -20 -194 -11 -295 29 l-79 32 3 40 c5 51 7 53 35 28 12
-11 33 -26 46 -33 20 -10 23 -10 19 2 -5 11 10 13 88 10 57 -3 113 1 141 8 27
7 60 13 75 15 14 1 34 10 45 20 17 18 18 17 21 -50 2 -37 -1 -72 -6 -77z
m1327 33 c7 -11 9 -21 5 -21 -10 0 -54 37 -49 42 5 5 12 40 15 73 1 11 6 -1
10 -26 4 -26 13 -56 19 -68z m-130 -85 c18 -84 35 -136 44 -136 1 0 1 46 -1
102 -3 100 -3 102 16 85 10 -9 26 -17 35 -17 21 0 21 -8 2 -53 -8 -20 -15 -53
-14 -74 l0 -38 20 54 c10 30 20 56 22 58 2 1 2 -23 -1 -55 -3 -42 -10 -63 -28
-81 -23 -25 -23 -25 -45 -5 -11 10 -30 36 -40 56 -21 42 -59 189 -59 228 l1
25 13 -25 c8 -14 24 -69 35 -124z m-103 -1 c36 -66 82 -141 100 -166 19 -26
34 -54 34 -63 0 -68 -141 147 -190 290 -33 96 -30 93 56 -61z m-2166 58 c50
-89 190 -222 279 -266 40 -21 84 -37 97 -37 18 0 24 -6 24 -22 0 -13 3 -33 6
-44 5 -18 -7 -30 -71 -72 -88 -58 -197 -107 -219 -99 -24 10 -143 189 -193
293 -63 129 -64 166 -8 246 22 32 43 58 47 58 3 0 21 -26 38 -57z m1978 -76
c18 -40 32 -76 32 -82 -1 -5 -25 -29 -53 -53 -142 -117 -320 -146 -401 -65
-25 25 -26 30 -26 144 0 66 2 119 4 119 2 0 21 -7 42 -16 31 -13 59 -15 139
-10 55 3 123 12 150 20 28 8 57 14 65 15 9 0 28 -28 48 -72z m-1227 7 c75 -19
198 -14 268 10 24 9 47 16 52 16 5 0 9 -51 9 -114 l0 -115 -57 -22 c-109 -41
-338 -36 -393 9 -16 14 -22 38 -31 119 -7 55 -9 113 -5 127 l6 25 44 -19 c24
-11 72 -27 107 -36z m1437 31 c-3 -3 -9 2 -12 12 -6 14 -5 15 5 6 7 -7 10 -15
7 -18z m-1763 -216 c-8 -12 -62 -12 -70 1 -3 5 0 7 9 4 8 -3 23 -1 33 4 19 11
37 6 28 -9z m1984 -3 c15 -18 141 -75 204 -92 29 -8 76 -14 105 -14 57 0 66
-10 25 -29 -19 -9 -23 -15 -14 -20 10 -7 8 -17 -8 -49 -16 -32 -29 -43 -58
-51 -47 -13 -108 -14 -151 -2 -43 13 -32 -4 16 -25 26 -11 53 -14 90 -10 58 7
64 -1 35 -44 -25 -37 -32 -39 -103 -35 -58 4 -61 3 -32 -7 39 -13 43 -45 12
-95 -19 -33 -20 -33 -82 -26 -35 3 -80 14 -100 24 -72 37 -184 140 -277 255
-5 6 -1 20 10 35 16 22 25 24 102 24 78 0 84 -1 76 -17 -15 -27 4 -21 32 10
36 39 59 78 59 101 0 11 5 23 10 26 6 3 10 1 10 -4 0 -6 5 -11 11 -11 7 0 9
12 5 35 -7 36 3 45 23 21z m-1832 -48 c-3 -8 -6 -5 -6 6 -1 11 2 17 5 13 3 -3
4 -12 1 -19z m1588 -58 c10 -11 16 -20 13 -20 -3 0 -13 9 -23 20 -10 11 -16
20 -13 20 3 0 13 -9 23 -20z m-1725 -80 c-6 -12 -22 -26 -36 -32 -13 -6 -24
-15 -24 -19 0 -8 61 4 79 16 15 9 71 -14 71 -29 0 -53 -28 -97 -118 -188 -53
-54 -102 -98 -109 -98 -7 0 -15 11 -19 25 -5 22 -11 25 -37 23 -25 -2 -35 3
-54 31 -13 19 -23 47 -23 62 0 15 -4 31 -10 34 -26 16 -1 38 103 88 61 30 127
66 146 81 42 31 45 32 31 6z m1494 -92 c3 -13 9 -43 14 -68 5 -25 13 -53 17
-62 4 -11 3 -18 -4 -18 -10 0 -21 34 -36 110 -4 19 -12 41 -17 48 -8 8 -6 12
6 12 8 0 18 -10 20 -22z m43 -20 c-3 -7 -5 -2 -5 12 0 14 2 19 5 13 2 -7 2
-19 0 -25z m-1111 -33 c-3 -11 -8 -44 -12 -72 -3 -29 -10 -53 -14 -53 -12 0
-28 23 -35 53 -4 15 -11 30 -16 33 -5 3 -5 -6 1 -20 19 -50 -15 -27 -37 25
-11 25 -10 26 15 25 15 -1 33 -5 40 -9 7 -5 12 -3 12 7 0 16 -126 43 -153 33
-15 -6 -27 -49 -27 -99 0 -34 50 -88 82 -88 30 0 58 19 58 40 0 26 19 35 27
14 4 -12 -2 -25 -20 -40 l-27 -23 51 6 51 6 -3 -121 c-3 -75 -8 -125 -16 -133
-6 -6 -40 -13 -76 -14 -76 -2 -108 -16 -62 -26 28 -6 27 -7 -10 -8 -37 0 -112
12 -120 21 -2 2 -1 30 2 63 5 47 8 54 15 36 6 -18 11 -21 22 -12 11 9 15 5 20
-21 5 -24 9 -29 18 -20 11 11 3 60 -28 170 -5 16 -3 21 7 18 41 -13 69 -15 69
-6 0 6 -21 30 -47 55 l-46 45 17 83 18 82 114 -15 c107 -13 115 -16 110 -35z
m864 26 c-13 -25 -13 -92 1 -128 6 -16 6 -24 1 -18 -9 9 -52 141 -52 159 0 3
14 6 30 6 27 0 30 -2 20 -19z m-518 -8 c-78 -4 -83 -5 -92 -29 -6 -14 -10 -62
-10 -106 0 -45 -2 -79 -5 -76 -8 7 -8 196 0 208 4 6 44 9 98 8 l92 -2 -83 -3z
m208 -3 c0 -12 -8 -12 -35 0 -18 8 -17 9 8 9 15 1 27 -3 27 -9z m675 -30 c14
0 56 -167 85 -335 10 -60 22 -123 26 -140 12 -49 -19 -15 -50 54 -44 98 -97
339 -95 431 0 32 1 33 11 13 6 -13 17 -23 23 -23z m-1042 -7 c-15 -51 -7 -180
11 -208 22 -34 17 -39 -33 -30 -29 5 -41 12 -41 23 2 60 19 222 24 231 4 6 16
11 27 11 16 0 18 -4 12 -27z m501 18 c8 -12 31 -199 25 -204 -2 -3 -13 -7 -25
-11 -20 -6 -22 -2 -27 57 -3 35 -13 83 -21 107 -8 24 -13 47 -10 52 7 11 51
10 58 -1z m104 -71 c11 -44 17 -80 13 -80 -3 0 -16 28 -29 63 -36 96 -36 97
-19 97 10 0 21 -25 35 -80z m-653 -197 c22 -8 88 -17 148 -20 l107 -6 0 -44
c0 -108 46 -287 102 -397 l20 -39 -64 7 c-203 21 -309 27 -368 19 -65 -8 -64
-9 88 -22 84 -7 154 -17 157 -21 3 -4 -9 -13 -25 -20 -45 -19 -47 -32 -3 -16
53 18 103 27 103 18 0 -4 -50 -68 -110 -141 -61 -73 -104 -129 -96 -124 37 21
131 111 182 174 53 67 95 97 58 42 -53 -80 -87 -145 -114 -216 -30 -75 -54
-176 -46 -184 2 -3 16 15 30 39 22 36 26 39 26 19 0 -15 -20 -43 -60 -82 l-60
-58 8 -60 c17 -123 -2 -150 -128 -182 -73 -19 -103 -21 -244 -16 -171 5 -234
17 -339 64 -64 29 -117 82 -117 117 0 28 52 109 85 130 15 10 29 35 40 71 8
31 20 53 25 50 26 -16 -3 -73 -74 -148 -28 -30 -36 -46 -36 -75 l1 -37 22 42
c12 22 44 64 70 93 l49 51 35 -38 c29 -32 31 -33 15 -8 -31 49 -52 113 -52
159 0 37 76 584 100 716 l8 45 1 -51 1 -52 66 -18 c58 -15 74 -16 127 -5 69
14 104 30 129 58 19 21 38 101 39 167 0 37 1 39 11 19 24 -50 31 -23 24 95 -3
65 -3 122 1 126 5 4 10 -45 13 -110 l5 -117 40 -14z m1165 206 c21 -29 89
-284 105 -389 3 -25 9 -58 12 -73 5 -26 3 -28 -15 -18 -26 14 -37 47 -66 211
-21 116 -43 217 -62 283 -8 26 2 21 26 -14z m-282 -8 c3 -21 1 -23 -20 -18
-12 4 -29 7 -37 7 -11 0 -10 5 4 20 24 26 49 22 53 -9z m-1392 -106 c0 -52 -1
-94 -2 -92 -1 1 -9 38 -18 82 -16 75 -16 81 1 92 9 7 17 13 17 13 1 0 1 -43 2
-95z m2164 8 c12 -49 29 -114 38 -146 14 -53 14 -61 -1 -93 -9 -19 -21 -34
-25 -34 -5 0 -12 22 -15 50 -3 27 -20 90 -37 139 -16 48 -30 97 -30 107 0 21
26 64 39 64 5 0 19 -39 31 -87z m-1910 67 c13 -9 12 -12 -5 -25 -16 -13 -21
-13 -33 -1 -26 26 6 47 38 26z m1165 -30 c-4 -6 -21 -20 -39 -31 -22 -13 -26
-19 -13 -19 24 0 56 18 86 46 36 36 44 29 17 -13 -13 -21 -30 -55 -37 -75 -10
-29 -16 -35 -26 -26 -10 8 -13 5 -12 -13 1 -13 4 -35 9 -49 l7 -25 12 28 c6
15 14 39 17 53 4 14 13 28 20 31 8 3 14 13 14 23 0 11 4 21 8 24 9 5 64 -205
57 -213 -11 -10 -148 -42 -207 -47 l-66 -7 -11 39 c-13 50 -41 194 -41 214 0
9 9 3 24 -15 22 -28 27 -30 85 -27 33 2 61 7 61 12 0 4 -24 18 -54 30 -30 12
-63 31 -73 42 -18 21 -18 21 4 9 31 -16 43 -14 43 9 0 19 0 19 34 -1 l33 -19
18 26 c11 18 20 23 27 16 6 -6 7 -16 3 -22z m340 -31 c15 -33 20 -38 25 -23 6
16 9 15 23 -11 11 -20 16 -24 17 -12 0 34 18 16 34 -37 25 -79 56 -235 56
-283 0 -37 -3 -43 -24 -49 -50 -12 -60 -3 -72 71 -7 39 -30 141 -52 228 -21
86 -36 157 -32 157 4 0 15 -18 25 -41z m-1818 -1 c-3 -7 -5 -2 -5 12 0 14 2
19 5 13 2 -7 2 -19 0 -25z m2168 -139 c30 -153 31 -166 4 -174 -11 -4 -23 -4
-26 -1 -3 3 -13 49 -23 103 -10 54 -23 111 -29 126 -17 43 -14 54 17 65 15 5
28 8 30 7 1 -1 14 -58 27 -126z m-2158 89 c-3 -7 -5 -2 -5 12 0 14 2 19 5 13
2 -7 2 -19 0 -25z m1626 -93 c52 -202 88 -269 155 -281 20 -4 44 -10 53 -15
32 -17 109 -315 109 -427 0 -32 5 -64 10 -72 8 -12 10 -9 10 13 0 39 12 33 38
-21 23 -48 23 -110 -1 -139 -5 -7 -7 -19 -4 -27 9 -23 -85 -102 -151 -127 -40
-15 -91 -24 -172 -28 -113 -7 -114 -7 -56 -15 74 -11 186 -2 250 20 48 17 138
91 148 124 4 13 10 12 34 -6 16 -11 39 -26 52 -33 22 -12 23 -11 13 7 -6 11
-26 33 -46 50 -36 32 -42 46 -25 57 13 8 88 -62 122 -114 32 -51 37 -104 13
-139 -26 -36 -91 -67 -245 -117 -170 -55 -266 -75 -361 -75 -80 0 -123 15
-160 56 -34 37 -46 78 -53 188 l-6 88 -50 45 c-27 25 -59 58 -71 74 -40 56 -8
43 63 -27 l71 -69 -57 75 c-54 73 -105 167 -201 374 -75 164 -36 127 49 -45
35 -72 65 -116 117 -170 64 -68 68 -71 43 -29 -15 25 -35 56 -44 70 -10 14
-54 85 -98 158 -79 130 -81 133 -59 143 16 7 1 8 -53 5 l-75 -5 65 24 c65 23
65 23 25 24 -22 0 -60 -4 -85 -9 -35 -7 -47 -6 -56 5 -13 17 -108 395 -101
402 3 2 37 9 77 14 84 12 120 24 120 40 0 8 4 8 13 1 18 -15 87 2 159 39 19
10 22 2 53 -153 23 -118 28 -123 107 -122 67 2 215 37 244 59 17 12 17 17 0
111 -11 55 -21 106 -23 114 -4 13 -3 13 5 0 5 -8 21 -60 35 -115z m-1835 83
c12 -20 22 -61 26 -103 3 -38 15 -106 25 -150 11 -44 18 -82 15 -84 -8 -9 -55
110 -69 176 -17 80 -30 193 -22 193 3 0 14 -15 25 -32z m151 -5 c20 -78 20
-107 1 -48 -11 33 -20 66 -20 73 0 24 9 11 19 -25z m2014 -20 c41 -107 84
-272 74 -282 -21 -21 -37 -12 -37 22 0 17 -16 92 -35 164 -19 73 -35 138 -35
145 0 20 16 -3 33 -49z m-1161 6 l103 -5 -99 -2 c-80 -2 -103 1 -118 15 -10 9
-18 21 -18 26 0 6 6 2 14 -9 12 -16 31 -20 118 -25z m1247 -38 c23 -76 51
-190 51 -208 0 -7 -4 -13 -9 -13 -5 0 -11 23 -15 51 -4 28 -22 94 -41 147 -19
54 -35 98 -35 99 0 1 7 0 15 -3 8 -3 24 -36 34 -73z m-2125 -38 c15 -74 54
-207 81 -275 5 -13 2 -18 -8 -18 -36 0 -66 24 -81 64 -17 45 -75 289 -70 295
11 12 24 -19 34 -82 16 -97 56 -232 75 -247 23 -19 20 0 -25 172 -42 160 -45
178 -32 178 4 0 16 -39 26 -87z m114 -43 c0 -8 -6 8 -14 35 -7 28 -13 61 -13
75 0 14 7 -2 14 -35 8 -33 14 -67 13 -75z m905 123 c-7 -2 -19 -2 -25 0 -7 3
-2 5 12 5 14 0 19 -2 13 -5z m-944 -188 c12 -44 24 -89 28 -100 3 -11 2 -17
-1 -13 -7 6 -56 175 -56 192 0 21 9 -3 29 -79z m1110 -540 c70 -134 90 -181
85 -200 -8 -33 28 -107 81 -162 41 -43 42 -45 48 -133 8 -108 22 -145 71 -187
20 -18 36 -38 36 -46 0 -20 68 -129 95 -152 20 -17 24 -32 29 -105 3 -47 8
-107 12 -135 l6 -50 -526 -1 c-372 0 -525 3 -523 10 2 6 41 14 88 17 77 5 79
5 24 7 -112 4 -105 -6 -105 151 0 124 2 140 25 186 13 28 30 75 36 105 9 40
20 62 41 78 43 36 60 77 66 166 5 78 6 83 48 129 49 55 61 95 44 155 -9 36 -8
47 11 84 41 81 133 230 143 233 11 2 70 22 73 24 1 1 42 -78 92 -174z m1114
-656 c2 -62 2 -63 -33 -82 -19 -10 -28 -13 -19 -5 16 13 39 51 39 64 0 4 -10
-2 -22 -13 -24 -21 -81 -53 -95 -53 -4 0 10 10 31 23 42 23 64 56 30 43 -17
-6 -16 -5 2 16 33 36 57 87 34 73 -6 -3 -7 1 -4 9 5 13 8 14 20 1 9 -9 15 -38
17 -76z m-2342 45 c30 -32 31 -35 9 -25 -19 10 -16 4 13 -24 39 -37 36 -39
-20 -18 -7 3 -13 1 -13 -3 0 -18 72 -55 152 -79 86 -25 78 -33 -14 -14 -74 16
-154 53 -167 78 -9 17 -6 121 3 121 1 0 18 -16 37 -36z m630 -111 c-33 -52
-41 -52 -15 0 21 40 35 59 42 53 3 -3 -9 -27 -27 -53z m-503 -74 c95 -25 264
-48 357 -50 56 -1 64 -2 41 -9 -37 -11 -278 5 -361 25 -70 16 -168 59 -187 82
-9 11 0 9 30 -6 24 -12 78 -31 120 -42z m2188 22 c-9 -10 -39 -30 -66 -45
-175 -95 -425 -115 -549 -45 -29 17 -51 33 -48 35 3 3 21 -6 42 -20 49 -34 85
-39 223 -34 102 4 130 9 220 41 57 19 122 47 145 61 51 30 55 31 33 7z m-672
-16 c16 -12 17 -15 4 -15 -8 0 -21 7 -28 15 -16 19 -1 19 24 0z m-1658 -100
c45 -39 40 -42 -33 -16 -49 16 -51 19 -35 34 22 23 23 22 68 -18z m623 -102
l-2 -128 -8 120 c-6 111 -5 135 7 135 2 0 3 -57 3 -127z m1651 97 c-30 -30
-63 -39 -75 -21 -3 5 12 15 32 21 21 7 42 16 48 21 5 5 13 9 17 9 5 0 -5 -13
-22 -30z m80 6 c0 -3 -4 -8 -10 -11 -5 -3 -10 -1 -10 4 0 6 5 11 10 11 6 0 10
-2 10 -4z m-2420 -67 c0 -6 -7 -8 -16 -5 -9 3 -21 6 -27 6 -7 0 -19 5 -27 10
-13 9 -13 11 -1 19 17 11 71 -13 71 -30z m227 9 c-3 -8 -6 -5 -6 6 -1 11 2 17
5 13 3 -3 4 -12 1 -19z m1592 -10 c6 -18 15 -55 20 -81 7 -41 6 -48 -7 -45
-16 3 -24 27 -37 115 -7 51 9 58 24 11z m356 22 c-3 -5 -12 -10 -18 -10 -7 0
-6 4 3 10 19 12 23 12 15 0z m-1824 -38 c4 -20 2 -30 -5 -29 -6 1 -10 -6 -8
-15 2 -12 -2 -16 -13 -12 -11 5 -15 -1 -15 -21 0 -23 -3 -25 -14 -16 -11 10
-26 6 -70 -16 -52 -26 -78 -51 -38 -36 15 6 15 5 3 -11 -9 -11 -17 -13 -21 -6
-4 7 -16 7 -40 -1 -29 -11 -35 -10 -47 6 -19 28 -16 44 5 18 17 -22 17 -22 54
-3 55 27 165 127 172 156 9 33 29 26 37 -14z m2089 28 c0 -5 -2 -10 -4 -10 -3
0 -8 5 -11 10 -3 6 -1 10 4 10 6 0 11 -4 11 -10z m-2300 -20 c8 -5 12 -12 8
-15 -8 -8 -58 5 -58 16 0 12 31 11 50 -1z m2038 -14 c-3 -15 2 -27 14 -35 22
-14 24 -41 2 -41 -15 0 -44 55 -44 85 0 8 7 15 16 15 12 0 15 -7 12 -24z m82
20 c0 -11 -33 -36 -41 -31 -15 10 -10 23 9 28 26 7 32 7 32 3z m85 -16 c4 -6
-6 -10 -22 -10 -22 0 -25 2 -13 10 19 12 27 12 35 0z m-195 -61 c0 -13 49 -89
79 -121 30 -34 45 -36 36 -5 -6 20 -6 20 9 7 16 -16 12 -60 -6 -60 -19 0 -90
76 -113 121 -13 25 -26 63 -30 85 l-7 39 16 -29 c9 -15 16 -32 16 -37z m-2223
36 c20 -8 34 -18 31 -20 -3 -3 -27 3 -54 14 -27 11 -41 20 -31 20 10 1 34 -6
54 -14z m143 0 c11 -13 10 -14 -4 -9 -9 3 -16 10 -16 15 0 13 6 11 20 -6z
m2420 -5 c0 -5 -4 -10 -10 -10 -5 0 -10 5 -10 10 0 6 5 10 10 10 6 0 10 -4 10
-10z m-2581 -41 c107 -39 138 -64 40 -32 -95 31 -106 28 -36 -8 31 -16 57 -31
57 -33 0 -6 -166 32 -245 56 l-70 21 30 13 c53 23 131 17 224 -17z m271 -4
c-7 -8 -16 -15 -21 -15 -5 0 -9 7 -9 15 0 9 9 15 21 15 18 0 19 -2 9 -15z
m2200 5 c-20 -13 -40 -13 -40 0 0 6 12 10 28 10 21 0 24 -2 12 -10z m-2100
-66 c-7 -7 -18 -14 -24 -14 -6 0 -2 7 8 15 32 24 10 29 -23 5 -17 -12 -31 -18
-31 -13 0 4 15 18 33 29 27 18 33 19 40 7 5 -8 4 -20 -3 -29z m387 14 c-3 -7
-5 -2 -5 12 0 14 2 19 5 13 2 -7 2 -19 0 -25z m1560 15 c4 -10 14 -23 22 -30
12 -9 13 -14 4 -23 -13 -14 -33 -5 -33 16 0 8 -4 14 -10 14 -5 0 -10 9 -10 20
0 25 18 26 27 3z m43 13 c0 -3 -4 -8 -10 -11 -5 -3 -10 -1 -10 4 0 6 5 11 10
11 6 0 10 -2 10 -4z m-2550 -36 c73 -33 68 -41 -6 -10 -60 26 -81 20 -31 -10
49 -29 43 -34 -17 -14 -64 22 -66 14 -3 -19 51 -27 52 -28 15 -21 -21 3 -38 4
-38 0 0 -3 17 -14 38 -25 49 -27 41 -26 -43 3 -109 39 -100 11 13 -38 62 -27
114 -39 247 -55 l70 -8 -80 -2 c-56 -1 -75 -4 -65 -11 13 -8 13 -10 -2 -10 -9
0 -19 4 -22 9 -3 4 -25 11 -49 13 -50 6 -185 54 -206 74 -11 10 -12 18 -2 41
14 35 86 113 103 113 7 0 42 -14 78 -30z m2620 11 c0 -5 -6 -14 -14 -20 -16
-13 -32 2 -21 19 8 12 35 13 35 1z m-494 -23 c10 -12 15 -19 9 -16 -5 3 -18 8
-28 11 -10 4 -15 11 -12 17 8 13 9 13 31 -12z m794 2 c38 -11 105 -49 98 -55
-2 -3 -22 5 -45 16 -51 25 -190 36 -250 20 -23 -6 -56 -23 -73 -37 -16 -14
-28 -20 -25 -12 7 18 66 57 112 74 40 15 120 13 183 -6z m-790 -51 c0 -6 -7
-6 -20 1 -11 6 -20 15 -20 21 0 6 7 6 20 -1 11 -6 20 -15 20 -21z m-1730 2 c0
-12 -20 -25 -27 -18 -7 7 6 27 18 27 5 0 9 -4 9 -9z m2555 -16 l40 -18 -42 -8
c-56 -10 -101 -34 -146 -78 -30 -29 -40 -33 -47 -22 -7 13 -11 13 -26 0 -13
-11 -18 -11 -21 -1 -6 15 -33 16 -33 1 0 -8 -5 -8 -15 1 -8 7 -15 9 -15 5 0
-4 -7 -2 -15 5 -8 6 -20 8 -26 4 -15 -9 -4 52 13 73 16 20 67 45 108 54 55 12
181 3 225 -16z m-2614 -26 c-9 -22 -10 -22 -10 -3 -1 11 2 24 6 27 12 12 14 0
4 -24z m1800 1 c13 -10 20 -19 16 -20 -11 0 -67 29 -67 35 0 12 30 3 51 -15z
m-171 -10 c-41 -4 -122 -7 -180 -7 -99 1 -101 1 -35 7 39 4 120 7 180 7 107 0
108 0 35 -7z m220 -49 c49 -22 129 -49 177 -61 90 -22 150 -47 83 -34 -66 12
-20 -9 58 -27 l77 -18 -60 5 c-33 4 -94 15 -135 26 -127 33 -361 148 -301 148
5 0 51 -18 101 -39z m-2245 -69 c65 -24 83 -26 235 -26 105 0 235 8 359 22
107 12 196 20 199 18 6 -7 -98 -25 -203 -36 -55 -6 -136 -16 -180 -23 -191
-29 -373 -8 -507 61 -98 50 -120 76 -30 36 31 -14 89 -38 127 -52z m338 41
c-7 -2 -19 -2 -25 0 -7 3 -2 5 12 5 14 0 19 -2 13 -5z m1925 -76 c110 -36 247
-67 349 -78 59 -6 110 -13 113 -16 3 -3 -50 -3 -116 0 -103 6 -142 13 -255 48
-151 46 -242 88 -247 112 -3 12 10 8 52 -17 31 -19 77 -41 104 -49z m879 41
c-3 -7 -5 -2 -5 12 0 14 2 19 5 13 2 -7 2 -19 0 -25z m-3316 -20 c11 -21 11
-22 -4 -9 -10 7 -17 17 -17 22 0 15 9 10 21 -13z m64 2 c14 -11 119 -40 147
-41 18 -1 19 -2 5 -6 -28 -7 -149 25 -177 48 -20 15 -21 18 -5 13 11 -4 25
-10 30 -14z m1165 14 c0 -26 -185 -62 -475 -93 -412 -43 -437 -45 -541 -33
-100 11 -219 43 -239 64 -7 8 -4 9 10 4 11 -4 74 -18 140 -32 158 -31 287 -31
497 0 90 14 219 30 288 36 129 12 264 35 290 51 17 10 30 11 30 3z m1284 -104
c20 -6 35 -14 33 -16 -7 -7 -138 36 -187 61 -91 47 -82 53 15 11 56 -24 118
-49 139 -56z m-162 -8 c-15 -5 -82 26 -82 37 0 6 21 1 46 -11 25 -13 41 -24
36 -26z m975 32 c-3 -3 -12 -4 -19 -1 -8 3 -5 6 6 6 11 1 17 -2 13 -5z m-44
-11 c-7 -2 -19 -2 -25 0 -7 3 -2 5 12 5 14 0 19 -2 13 -5z m-56 -9 c-3 -3 -12
-4 -19 -1 -8 3 -5 6 6 6 11 1 17 -2 13 -5z m120 -20 c-3 -3 -12 -4 -19 -1 -8
3 -5 6 6 6 11 1 17 -2 13 -5z m-44 -11 c-7 -2 -19 -2 -25 0 -7 3 -2 5 12 5 14
0 19 -2 13 -5z m-50 -10 c-7 -2 -19 -2 -25 0 -7 3 -2 5 12 5 14 0 19 -2 13 -5z
m-550 -10 c-7 -2 -21 -2 -30 0 -10 3 -4 5 12 5 17 0 24 -2 18 -5z m-568 -13
c-16 -4 -118 -7 -225 -7 -156 1 -175 2 -95 7 148 9 356 9 320 0z m863 3 c-42
-2 -114 -2 -160 0 -46 1 -11 3 77 3 88 0 125 -2 83 -3z"/>
<path d="M6203 7856 c4 -9 -5 -16 -26 -20 -18 -4 -27 -10 -21 -15 13 -13 84
-31 84 -22 0 20 -23 71 -32 71 -6 0 -8 -6 -5 -14z"/>
<path d="M4638 8745 c-5 -25 5 -34 17 -15 8 13 35 13 35 1 0 -5 -17 -15 -37
-22 -64 -20 -160 -78 -194 -117 -59 -67 -82 -135 -83 -242 -1 -84 2 -101 26
-150 42 -85 79 -123 163 -165 68 -35 82 -38 147 -37 59 1 83 7 137 33 81 40
145 103 179 177 24 51 27 68 27 172 0 105 -2 119 -27 165 -14 28 -39 62 -55
76 -35 34 -118 75 -166 84 -21 4 -40 11 -42 16 -3 4 -12 6 -20 2 -17 -6 -21
12 -5 22 15 9 12 25 -5 25 -8 0 -15 -7 -15 -15 0 -8 -4 -15 -9 -15 -5 0 -11 7
-15 15 -3 8 -16 15 -30 15 -17 0 -25 -7 -28 -25z m192 -61 c81 -24 141 -71
175 -138 28 -55 30 -68 30 -165 0 -94 -3 -113 -26 -162 -36 -77 -87 -130 -161
-170 -54 -28 -73 -33 -133 -33 -127 -1 -245 75 -298 192 -17 38 -22 66 -21
142 0 82 3 103 27 155 44 94 94 137 211 182 66 25 105 24 196 -3z"/>
<path d="M4665 8611 c-93 -33 -107 -45 -83 -69 7 -7 8 -12 4 -12 -5 0 -15 8
-22 18 -12 16 -14 15 -39 -8 -37 -35 -54 -70 -58 -124 -3 -36 -1 -46 11 -46
11 0 12 -3 3 -14 -10 -11 -8 -16 8 -21 12 -3 21 -12 21 -18 0 -7 12 -30 26
-51 23 -33 25 -42 15 -59 -10 -16 -10 -22 3 -35 12 -12 18 -13 30 -3 22 19 36
4 29 -29 -5 -25 -2 -31 21 -40 15 -5 29 -17 32 -25 8 -21 24 -19 24 3 0 14 2
15 10 2 12 -20 28 -3 32 35 l3 30 15 -32 c17 -38 33 -41 75 -13 24 16 30 27
30 56 0 24 5 39 15 42 13 4 13 3 2 -11 -14 -16 -9 -37 8 -37 5 0 17 12 27 26
16 25 16 27 -1 40 -17 12 -17 14 0 53 10 23 23 41 30 41 7 0 10 8 7 20 -4 14
0 20 11 20 9 0 16 8 16 19 0 11 4 22 9 26 12 7 11 64 -1 71 -4 3 -8 14 -8 25
0 10 -4 19 -10 19 -5 0 -10 7 -10 16 0 15 -23 44 -35 44 -4 0 -14 -8 -23 -18
-10 -9 -14 -13 -9 -8 20 27 6 44 -50 59 -99 26 -116 27 -168 8z m152 -69 c24
-20 43 -42 43 -48 0 -7 6 -14 13 -17 13 -5 14 -54 1 -115 -4 -20 -7 -40 -6
-44 1 -4 -18 7 -42 25 -35 25 -45 39 -45 61 -1 21 -4 26 -13 18 -20 -15 -58
-8 -83 16 -13 12 -28 22 -34 22 -15 0 -14 -32 1 -66 11 -24 10 -28 -17 -50
-44 -35 -55 -31 -70 31 -2 6 -4 13 -5 18 -1 4 -3 22 -4 40 -3 65 122 165 189
151 16 -4 49 -23 72 -42z m-201 11 c-10 -10 -19 5 -10 18 6 11 8 11 12 0 2 -7
1 -15 -2 -18z m234 11 c0 -8 -5 -12 -10 -9 -6 4 -8 11 -5 16 9 14 15 11 15 -7z
m-290 -34 c0 -5 -4 -10 -10 -10 -5 0 -10 5 -10 10 0 6 5 10 10 10 6 0 10 -4
10 -10z m254 -196 c19 -18 21 -41 5 -46 -9 -3 -9 -9 0 -25 14 -27 -2 -41 -25
-22 -37 30 -53 95 -27 102 30 8 31 8 47 -9z m-143 -40 c-8 -49 -33 -65 -60
-40 -29 26 -26 40 12 59 49 24 55 22 48 -19z m43 -14 c-9 -16 -17 -30 -19 -30
-2 0 1 14 6 30 6 17 15 30 19 30 5 0 2 -13 -6 -30z m56 -50 c46 -24 50 -29 15
-22 -14 2 -25 8 -25 12 0 5 -12 13 -27 18 -16 6 -22 11 -15 11 7 1 31 -8 52
-19z m-100 -14 c0 -3 -4 -8 -10 -11 -5 -3 -10 -1 -10 4 0 6 5 11 10 11 6 0 10
-2 10 -4z m77 -2 c-3 -3 -12 -4 -19 -1 -8 3 -5 6 6 6 11 1 17 -2 13 -5z m-87
-84 c0 -5 -5 -10 -11 -10 -5 0 -7 5 -4 10 3 6 8 10 11 10 2 0 4 -4 4 -10z"/>
<path d="M4766 8752 c-5 -9 52 -37 60 -30 2 3 2 13 -2 22 -6 16 -49 23 -58 8z"/>
<path d="M4600 8741 c0 -8 -7 -10 -20 -6 -11 4 -20 2 -20 -4 0 -6 -9 -11 -20
-11 -24 0 -26 -13 -5 -30 12 -10 16 -9 21 3 3 9 11 14 18 11 6 -2 20 2 31 10
16 12 18 17 8 27 -11 11 -13 11 -13 0z"/>
<path d="M4840 8730 c0 -11 2 -20 5 -20 2 0 9 9 15 20 9 16 8 20 -5 20 -8 0
-15 -9 -15 -20z"/>
<path d="M4880 8717 c0 -16 6 -22 25 -23 14 -1 25 2 25 7 0 5 5 9 11 9 6 0 9
-7 5 -15 -6 -18 10 -20 20 -3 9 14 -28 40 -62 44 -19 2 -24 -2 -24 -19z"/>
<path d="M4482 8698 c-18 -18 -15 -25 13 -30 26 -5 29 -1 19 26 -7 19 -16 20
-32 4z"/>
<path d="M3888 6777 c-37 -13 -93 -41 -124 -62 -55 -38 -198 -184 -189 -193 2
-3 42 20 87 50 195 129 253 141 420 84 125 -43 151 -44 183 -11 32 31 31 55
-2 88 -46 43 -99 60 -208 64 -86 3 -110 0 -167 -20z"/>
<path d="M5432 6699 c-34 -17 -89 -55 -121 -85 -76 -70 -111 -138 -111 -213
l1 -56 62 66 c88 94 169 147 108 72 -100 -125 -123 -323 -55 -474 81 -179 311
-242 571 -157 74 24 176 89 202 127 12 18 0 13 -46 -21 -57 -42 -179 -95 -258
-112 -25 -5 -22 -2 15 18 167 89 250 326 179 513 -10 27 -9 26 29 -10 21 -20
54 -64 73 -97 19 -33 37 -60 40 -60 8 0 19 37 19 65 0 14 11 25 32 33 17 6 29
14 26 17 -3 4 6 18 21 33 l26 26 -42 8 c-46 7 -84 33 -148 99 -50 52 -140 114
-210 144 -158 70 -302 72 -435 5 -56 -28 -143 -109 -168 -155 -7 -14 -15 -25
-18 -25 -12 0 38 80 73 116 54 55 99 88 169 124 77 39 48 39 -34 -1z m146
-164 c-96 -50 -146 -152 -155 -315 -9 -163 36 -283 133 -349 59 -40 29 -35
-66 12 -55 27 -70 41 -98 87 -44 73 -55 119 -54 220 0 100 24 178 78 257 56
82 100 110 174 111 l35 1 -47 -24z m97 -61 c36 -17 60 -61 51 -92 -13 -41 -55
-67 -108 -67 -42 0 -53 4 -74 28 -34 39 -31 72 10 113 38 38 69 43 121 18z"/>
<path d="M3953 6499 c-62 -24 -144 -95 -208 -182 -50 -66 -93 -97 -137 -97
-30 0 -34 -10 -17 -42 12 -22 66 -48 103 -48 22 0 24 -4 24 -42 0 -46 14 -92
31 -103 7 -4 11 5 11 23 0 41 37 156 71 222 34 66 73 111 116 133 47 25 56 21
27 -10 -57 -62 -86 -153 -85 -273 0 -154 63 -284 170 -352 l45 -28 -47 0 c-94
0 -208 62 -274 149 -46 60 -41 36 6 -30 71 -100 155 -139 295 -139 117 0 232
36 278 87 69 76 62 245 -19 447 -78 197 -185 306 -298 305 -22 0 -64 -9 -92
-20z m224 -183 c33 -38 30 -78 -8 -110 -40 -34 -72 -41 -120 -27 -75 23 -90
82 -34 138 33 33 38 35 87 31 40 -4 57 -11 75 -32z"/>
<path d="M6929 6296 c-99 -35 -188 -143 -215 -261 -6 -26 -1 -23 32 24 55 76
67 82 101 48 22 -22 28 -37 28 -72 0 -39 2 -43 13 -28 6 9 12 34 12 56 0 31
-7 46 -34 73 l-33 33 21 19 c68 62 155 67 232 14 44 -32 44 -32 44 -8 0 33
-37 75 -84 97 -48 22 -68 23 -117 5z"/>
<path d="M4714 5896 c-57 -25 -89 -96 -68 -151 7 -18 54 -45 79 -45 25 0 17
14 -18 30 -47 22 -48 58 -3 107 31 34 39 38 80 37 25 0 46 1 46 2 0 7 -59 34
-72 34 -7 -1 -27 -7 -44 -14z"/>
<path d="M5295 5694 c-333 -106 -511 -145 -734 -160 -93 -6 -103 -5 -98 10 9
22 -5 20 -31 -4 -31 -29 -18 -54 23 -47 29 5 36 1 68 -42 68 -88 159 -169 234
-208 63 -31 85 -37 157 -41 235 -12 415 143 464 401 13 70 20 87 33 87 24 0
35 20 18 31 -18 11 -7 13 -134 -27z m11 -63 c-20 -37 -88 -96 -146 -126 -141
-72 -335 -93 -417 -46 -60 35 -62 49 -5 56 171 20 387 72 519 124 65 25 66 25
49 -8z m-26 -183 c0 -27 -78 -115 -130 -146 -72 -43 -139 -62 -216 -62 -59 0
-148 21 -167 40 -5 4 7 24 27 44 39 38 42 39 286 99 158 39 200 44 200 25z"/>
<path d="M6310 5519 c-94 -79 -239 -178 -351 -239 -108 -58 -69 -49 53 13 137
70 237 140 323 227 38 38 67 70 65 70 -3 0 -43 -32 -90 -71z"/>
<path d="M4785 4620 c-8 -13 3 -30 18 -30 15 0 136 -59 187 -90 25 -16 16 -4
-33 44 -38 37 -79 71 -93 76 -33 13 -71 13 -79 0z"/>
<path d="M4277 4666 c-72 -86 -287 -387 -287 -402 0 -16 64 54 129 141 98 130
227 344 158 261z"/>
<path d="M6860 3970 c-14 -21 -70 -87 -125 -146 -121 -129 -136 -157 -30 -54
76 74 150 163 174 208 21 39 7 33 -19 -8z"/>
<path d="M5611 4246 c-17 -20 -10 -60 10 -64 23 -4 51 26 47 52 -4 26 -40 33
-57 12z"/>
<path d="M4614 4175 c-8 -19 13 -45 36 -45 20 0 32 23 24 45 -8 20 -53 19 -60
0z"/>
<path d="M3721 3865 c0 -16 6 -41 14 -55 18 -31 18 -28 0 35 -11 40 -14 44
-14 20z"/>
<path d="M4326 2518 c-8 -29 -20 -84 -26 -123 -6 -38 -13 -83 -15 -98 -3 -15
-1 -25 4 -22 18 11 74 295 58 295 -3 0 -12 -24 -21 -52z"/>
<path d="M5244 2739 c-11 -19 11 -30 46 -23 30 7 32 8 15 21 -23 16 -51 17
-61 2z"/>
<path d="M6177 2445 c-20 -210 -20 -214 -3 -240 12 -19 25 -25 51 -25 19 0 35
5 35 10 0 6 -5 10 -10 10 -6 0 -19 15 -30 33 -16 25 -20 51 -21 127 -1 52 -4
109 -8 125 -6 24 -8 17 -14 -40z"/>
<path d="M3453 883 c26 -2 67 -2 90 0 23 2 2 3 -48 3 -49 0 -68 -1 -42 -3z"/>
</g>
</svg>
