<?xml version="1.0" standalone="no"?>
<!DOCTYPE svg PUBLIC "-//W3C//DTD SVG 20010904//EN"
 "http://www.w3.org/TR/2001/REC-SVG-20010904/DTD/svg10.dtd">
<svg version="1.0" xmlns="http://www.w3.org/2000/svg"
 width="1024.000000pt" height="1024.000000pt" viewBox="0 0 1024.000000 1024.000000"
 preserveAspectRatio="xMidYMid meet">
<metadata>
Created by potrace 1.16, written by Peter Selinger 2001-2019
</metadata>
<g transform="translate(0.000000,1024.000000) scale(0.100000,-0.100000)"
fill="#000000" stroke="none">
<path d="M4855 9798 c-154 -12 -392 -52 -553 -93 -825 -208 -1490 -688 -1790
-1290 -142 -284 -200 -650 -174 -1090 l9 -160 -58 -63 c-288 -308 -459 -651
-429 -860 12 -84 41 -143 102 -208 71 -76 164 -127 321 -179 l132 -43 25 -69
c43 -114 81 -174 160 -254 62 -63 92 -84 170 -122 120 -57 187 -71 310 -64
l95 6 52 -108 c175 -364 527 -612 1017 -717 l80 -17 -25 -19 c-195 -153 -300
-278 -451 -538 -74 -127 -218 -399 -218 -413 0 -6 21 -37 46 -69 l46 -58 -25
-43 c-69 -119 -155 -347 -207 -552 -77 -300 -90 -523 -39 -635 52 -112 136
-178 239 -187 51 -5 67 -2 115 22 31 15 63 38 72 51 21 32 34 30 31 -4 -1 -15
2 -34 6 -41 14 -22 105 -59 178 -72 37 -7 68 -16 68 -21 0 -5 -18 -95 -39
-201 -50 -241 -71 -385 -71 -475 0 -69 1 -71 33 -90 17 -10 48 -25 67 -32 19
-7 39 -16 43 -20 9 -8 -81 -291 -122 -381 -46 -101 -71 -188 -71 -245 0 -52 0
-52 42 -69 52 -21 374 -39 558 -32 198 8 293 52 310 147 4 23 3 96 -3 163 -8
102 -7 136 7 221 26 152 22 143 72 155 24 6 69 20 98 32 l55 20 11 57 c40 207
105 439 130 466 5 5 13 -1 19 -15 9 -19 101 -499 101 -523 0 -11 51 -27 124
-40 l70 -11 17 -90 c13 -64 18 -141 18 -268 1 -211 5 -224 83 -260 102 -47
144 -52 438 -51 316 1 378 9 422 56 22 24 28 40 28 74 0 60 -16 95 -90 189
-34 44 -75 105 -90 136 -29 56 -100 251 -100 273 0 6 22 19 48 29 27 9 61 26
76 38 30 24 30 8 0 199 -14 92 -83 399 -98 440 -4 11 13 24 62 47 37 18 96 58
131 90 l64 57 -7 97 c-16 249 -82 458 -151 475 -14 3 -25 9 -25 13 0 3 -14
136 -30 296 -16 159 -27 291 -25 293 2 2 18 -25 36 -59 17 -35 96 -177 175
-315 138 -240 174 -322 174 -394 1 -48 30 -165 54 -215 21 -42 24 -59 19 -106
-9 -91 26 -139 102 -139 69 0 187 81 223 153 34 68 55 180 48 257 -9 92 -29
151 -90 260 -29 52 -97 192 -149 312 -53 119 -133 291 -178 382 l-81 165 81
78 81 78 -87 136 c-232 357 -337 503 -438 604 -62 62 -124 113 -163 135 -107
60 -107 55 4 80 426 96 740 246 944 450 136 138 193 254 213 440 l11 105 84
50 c103 61 179 140 227 237 64 132 79 269 39 380 l-14 42 102 95 c206 193 293
295 356 420 34 69 37 82 37 160 0 130 -25 176 -173 319 -171 167 -475 404
-634 495 -28 17 -38 30 -43 57 -11 65 -96 394 -126 495 -101 328 -247 604
-424 802 -464 518 -1122 755 -1920 691z m434 -68 c235 -16 446 -61 651 -137
464 -173 866 -547 1051 -975 70 -164 176 -488 159 -488 -5 0 -44 24 -87 54
-181 124 -444 268 -628 343 -612 250 -1448 294 -2140 113 -587 -153 -1104
-425 -1451 -763 l-92 -88 -31 86 c-47 130 -81 310 -88 462 l-6 132 48 77 c191
306 552 623 935 822 360 186 784 311 1195 352 206 20 306 22 484 10z m306
-1035 c432 -46 744 -140 1115 -338 223 -119 457 -275 466 -312 18 -71 40 -185
37 -189 -2 -2 -41 18 -86 46 -174 104 -446 226 -627 281 -370 113 -665 152
-1130 152 -697 -1 -1269 -124 -1874 -401 -340 -157 -727 -402 -988 -627 -80
-68 -74 -78 -82 133 -8 244 21 573 63 705 9 30 9 30 10 -11 2 -71 32 -226 61
-315 26 -79 95 -207 106 -196 2 2 -12 38 -31 79 -45 95 -90 272 -104 411 -11
115 -8 136 41 245 l22 47 8 -100 c18 -225 61 -404 134 -552 47 -96 74 -124 49
-52 -8 23 -15 49 -15 59 0 22 173 178 315 284 459 344 1129 599 1725 655 63 6
140 13 170 15 107 7 477 -4 615 -19z m0 -435 c609 -35 1034 -154 1472 -411
147 -87 451 -290 578 -386 117 -89 295 -239 295 -249 0 -6 -7 0 -161 127 -494
406 -1040 690 -1514 787 -255 53 -296 57 -610 57 -267 0 -316 -3 -440 -23
-467 -77 -875 -228 -1458 -538 -409 -217 -826 -473 -1072 -658 -259 -194 -626
-569 -700 -715 -23 -45 -35 -26 -35 58 0 200 201 552 461 808 406 396 1015
753 1614 946 479 154 1057 227 1570 197z m393 -528 c50 -115 184 -295 283
-383 l72 -64 -84 -12 c-113 -16 -204 -41 -222 -61 -32 -38 -61 -155 -42 -174
3 -3 42 6 86 18 145 42 260 57 398 51 180 -7 262 -31 468 -133 148 -74 173
-90 177 -113 17 -77 28 -263 36 -586 7 -284 13 -387 30 -490 23 -148 28 -316
11 -390 -26 -108 -78 -193 -180 -295 -269 -269 -662 -430 -1286 -529 -263 -41
-459 -54 -765 -48 -730 14 -1082 128 -1411 456 -117 118 -225 264 -291 395
-17 33 -31 62 -33 64 -1 1 -31 -4 -66 -13 -183 -43 -347 4 -485 140 -117 116
-172 252 -161 405 14 206 159 299 326 210 72 -39 80 -48 110 -125 49 -125 182
-343 264 -432 66 -71 71 -57 32 89 -28 103 -68 332 -88 507 l-14 113 53 63
c97 115 164 216 234 359 39 78 70 147 70 154 0 6 4 12 9 12 12 0 21 -89 21
-217 0 -66 4 -113 10 -113 5 0 27 24 49 53 104 139 248 230 428 271 150 34
383 33 383 -1 0 -11 5 -13 18 -8 37 16 69 15 126 -4 61 -22 76 -19 109 17 24
26 14 45 -49 101 l-46 40 40 48 c53 65 105 153 146 246 19 43 36 81 39 84 9 9
64 -183 87 -302 12 -60 24 -165 27 -232 3 -67 10 -128 15 -135 16 -24 234 231
335 392 51 83 121 220 143 284 l18 49 7 -87 c12 -146 -15 -413 -61 -596 -37
-146 -35 -152 43 -94 182 137 356 368 448 598 43 105 92 290 101 380 4 36 10
66 13 66 3 0 12 -13 19 -28z m-1679 -357 c28 -93 54 -185 57 -204 7 -31 5 -34
-12 -26 -30 12 -265 18 -311 7 -24 -5 -43 -8 -43 -6 0 2 20 34 45 70 63 91
148 238 176 302 14 33 26 48 30 40 4 -7 30 -89 58 -183z m2305 -71 l49 -54
-31 0 c-35 0 -62 22 -62 51 0 11 -5 29 -10 40 -18 33 3 19 54 -37z m-2220
-261 c11 -72 20 -68 -129 -68 -74 0 -135 3 -135 6 0 10 124 70 176 84 76 21
81 20 88 -22z m3066 -656 c39 -19 50 -32 85 -101 39 -76 40 -82 40 -180 0 -92
-3 -107 -31 -166 -34 -72 -114 -165 -181 -211 -43 -30 -63 -31 -63 -3 0 8 -16
64 -36 123 l-35 109 39 158 c22 88 45 192 52 232 l12 74 37 -7 c20 -3 56 -16
81 -28z m-1476 -1959 c43 -142 76 -266 76 -284 0 -13 -6 -15 -31 -10 -17 3
-56 6 -86 6 -50 0 -55 2 -71 31 -9 17 -29 50 -45 74 l-27 43 15 71 c8 40 15
85 15 101 0 25 4 29 48 38 82 17 78 20 106 -70z m-201 -35 c-7 -49 -16 -94
-18 -102 -3 -7 15 -47 40 -87 25 -41 45 -76 45 -79 0 -7 -153 -127 -208 -162
-54 -34 -202 -106 -208 -101 -1 2 32 57 73 123 87 140 148 264 192 389 39 110
36 106 70 106 l28 0 -14 -87z m-83 68 c0 -9 -275 -469 -289 -484 -10 -10 -150
82 -212 140 -66 61 -189 251 -189 291 0 5 82 12 183 15 166 6 456 32 466 43 8
8 41 4 41 -5z m-1296 -253 c14 -410 -21 -697 -117 -963 -32 -88 -33 -90 -62
-87 -53 6 -168 57 -244 107 -73 48 -243 202 -262 236 -7 14 11 56 82 189 152
289 252 442 368 564 65 68 193 166 216 166 9 0 14 -57 19 -212z m436 200 c0
-7 18 -56 39 -108 33 -81 36 -99 28 -127 -6 -18 -17 -35 -26 -37 -41 -11 -202
-38 -205 -35 -2 2 -6 75 -8 162 l-4 157 88 0 c64 0 88 -3 88 -12z m126 4 c5
-4 21 -35 34 -70 47 -129 136 -253 249 -349 l66 -56 -42 6 c-84 14 -257 87
-322 136 -22 17 -23 21 -12 51 18 53 13 92 -24 177 -45 105 -45 113 3 113 20
0 42 -4 48 -8z m1443 -252 c146 -191 367 -539 358 -564 -10 -24 -164 -142
-282 -216 -62 -38 -115 -70 -117 -70 -3 0 -8 138 -11 308 -7 347 -24 493 -84
692 -6 21 67 -60 136 -150z m-1523 -84 c8 -20 123 -88 211 -125 83 -36 181
-61 237 -61 32 0 37 -3 31 -17 -32 -77 -57 -179 -62 -259 l-6 -92 -76 -13
c-42 -6 -179 -13 -304 -14 l-229 -2 -3 -189 c-2 -111 -10 -218 -18 -258 -8
-38 -12 -77 -10 -87 14 -51 203 -97 348 -84 152 12 296 60 309 102 12 40 27
339 25 493 -2 162 9 251 39 307 7 13 54 37 131 67 124 50 211 102 296 178 69
62 84 68 162 68 115 0 106 10 143 -173 30 -147 78 -339 94 -377 4 -11 1 -16
-11 -17 -10 0 -83 -6 -163 -13 -129 -10 -364 -7 -425 6 -44 9 -48 -4 -36 -137
21 -235 43 -394 58 -411 24 -27 103 -56 186 -67 106 -15 154 -14 244 5 83 17
134 39 172 75 23 22 23 26 17 118 -15 199 -25 386 -21 389 2 2 15 -33 29 -78
18 -57 34 -149 51 -303 21 -193 63 -645 68 -747 2 -34 0 -36 -53 -53 -99 -33
-352 -94 -500 -121 -450 -81 -980 -71 -1354 26 l-39 10 7 121 c8 141 20 244
28 253 3 3 15 0 27 -8 16 -9 23 -10 32 -1 13 13 27 140 28 252 1 72 0 74 -35
107 -19 19 -42 34 -50 34 -20 0 -18 13 15 89 33 75 109 335 140 483 30 141 50
292 52 397 1 50 5 94 10 96 7 5 171 42 192 44 4 1 10 -5 13 -13z m402 -663
l-3 -58 -80 -24 c-69 -20 -101 -24 -225 -24 -98 0 -160 5 -190 15 -45 14 -45
14 -48 64 l-3 51 223 6 c123 4 239 11 258 16 70 18 71 17 68 -46z m880 4 l3
-47 -46 -20 c-70 -30 -177 -43 -290 -37 -83 5 -198 26 -210 39 -2 2 -5 25 -6
53 l-3 49 204 -2 c113 -1 232 2 265 7 33 4 65 7 70 6 6 -1 11 -23 13 -48z
m553 -232 c54 -104 131 -266 171 -359 43 -100 93 -199 122 -239 73 -104 99
-169 104 -258 8 -133 -42 -247 -134 -308 -55 -36 -97 -39 -102 -6 -2 12 9 48
24 80 38 87 54 144 54 199 0 51 -18 126 -30 126 -4 0 -11 -35 -15 -77 -9 -95
-19 -126 -42 -121 -29 5 -54 63 -72 170 -11 57 -36 148 -56 203 -42 112 -160
358 -260 540 -36 66 -65 123 -65 127 0 4 30 25 68 47 37 22 76 47 87 55 11 9
26 15 34 13 7 -1 58 -87 112 -192z m-539 44 c3 -46 9 -114 12 -151 l6 -68 -40
-20 c-72 -37 -165 -53 -275 -47 -93 6 -181 24 -214 46 -10 6 -18 54 -28 156
-8 81 -13 149 -11 151 3 2 38 -3 79 -12 135 -28 358 -15 428 26 29 17 36 4 43
-81z m-2322 25 c30 -22 76 -53 103 -68 26 -16 47 -32 47 -36 0 -5 -27 -71 -61
-147 -88 -203 -130 -333 -136 -428 -5 -69 -2 -92 22 -165 35 -109 40 -233 11
-298 -10 -23 -25 -42 -32 -42 -14 0 -58 50 -80 91 -8 16 -19 29 -24 29 -15 0
0 -72 26 -122 l24 -48 -26 -6 c-80 -20 -172 29 -216 116 -58 114 -57 196 3
443 70 286 243 748 273 730 6 -4 36 -26 66 -49z m1424 -21 c-3 -38 -9 -108
-12 -158 l-7 -90 -59 -23 c-118 -47 -358 -51 -461 -8 l-38 16 7 56 c4 31 11
102 17 158 6 55 12 102 14 104 2 2 21 -2 42 -10 55 -19 341 -16 408 4 28 9 60
16 73 17 21 1 22 -1 16 -66z m-1109 -144 c10 -31 0 -33 -19 -4 -14 21 -14 25
-2 25 8 0 18 -9 21 -21z m-66 -75 c10 -22 5 -45 -38 -172 -27 -81 -63 -178
-80 -217 -37 -79 -71 -196 -71 -239 0 -40 -11 -26 -32 42 -23 73 -22 95 3 173
39 118 184 439 199 439 4 0 12 -12 19 -26z m2276 -736 c3 -18 7 -64 8 -102 l2
-69 -70 -39 c-207 -114 -596 -186 -1051 -195 -265 -6 -396 2 -578 33 -84 14
-227 55 -253 72 -8 5 -13 43 -15 106 l-3 98 30 -5 c16 -3 87 -16 157 -31 198
-40 305 -50 558 -50 389 -1 714 51 1055 167 72 25 135 45 142 46 7 1 15 -14
18 -31z m-1830 -1279 c66 -6 150 -9 188 -6 63 6 67 5 67 -15 0 -37 -22 -149
-29 -146 -3 2 -34 18 -68 36 -126 65 -277 78 -406 34 -34 -11 -56 -15 -54 -8
3 6 17 41 31 77 l27 66 62 -13 c34 -7 116 -18 182 -25z m1658 -26 c14 -37 25
-68 24 -69 -1 -2 -31 4 -67 13 -44 10 -87 13 -134 9 -74 -7 -202 -46 -253 -77
l-32 -20 -16 58 c-9 32 -20 70 -25 86 -5 15 -6 27 -2 27 92 -2 332 13 377 23
101 24 98 25 128 -50z m-1624 -99 c69 -17 156 -59 203 -97 24 -19 29 -36 43
-122 23 -144 6 -211 -39 -149 -44 62 -99 114 -142 134 -24 12 -44 23 -44 25 0
2 15 1 33 -2 24 -3 37 0 47 12 23 27 0 50 -50 50 -34 0 -45 5 -62 28 -55 76
-207 87 -269 21 -23 -25 -76 -54 -99 -54 -17 0 -11 36 10 63 73 92 218 128
369 91z m1610 -11 c61 -19 125 -71 140 -114 l11 -31 -38 6 c-20 4 -46 17 -57
30 -32 37 -79 56 -140 56 -66 0 -117 -19 -149 -57 -20 -23 -31 -27 -63 -25
-48 4 -70 -16 -54 -47 8 -14 23 -21 54 -23 l42 -3 -47 -28 c-46 -27 -92 -72
-134 -131 -16 -22 -25 -27 -42 -22 -20 7 -22 14 -21 89 0 45 4 104 7 132 6 46
11 52 57 83 59 39 122 69 185 87 65 19 188 18 249 -2z m-1603 -255 c57 -30
144 -120 144 -149 0 -13 -11 -20 -37 -26 -41 -9 -622 -7 -631 1 -10 10 22 99
46 128 24 29 65 54 112 69 14 5 90 7 170 6 135 -3 149 -5 196 -29z m1755 1
c28 -13 62 -37 78 -58 36 -45 67 -108 58 -117 -12 -13 -479 -17 -570 -6 -48 6
-92 14 -98 17 -21 14 80 124 143 156 62 32 108 39 226 34 86 -4 126 -10 163
-26z"/>
<path d="M4945 8199 c-543 -51 -1190 -285 -1855 -672 -434 -252 -740 -521
-949 -831 -27 -39 -56 -87 -65 -106 l-16 -35 22 29 c13 16 57 75 98 130 145
196 454 482 695 644 370 249 912 512 1349 657 320 105 701 175 964 175 53 0
81 4 77 10 -7 12 -189 11 -320 -1z"/>
<path d="M6322 7000 c-97 -20 -228 -107 -264 -174 -11 -20 -11 -20 13 -3 13
10 58 34 99 55 74 36 77 37 195 37 100 0 130 -4 179 -22 227 -86 402 -319 446
-597 10 -60 15 -74 23 -60 13 22 1 182 -18 260 -23 88 -98 232 -155 296 -139
156 -354 242 -518 208z"/>
<path d="M3985 6840 c-211 -45 -398 -219 -468 -435 -58 -178 -48 -424 23 -552
12 -21 19 -31 16 -21 -16 54 -28 192 -23 264 11 157 57 291 141 408 162 227
416 312 711 236 43 -11 80 -19 81 -17 7 7 -111 68 -179 93 -79 28 -228 41
-302 24z"/>
<path d="M6292 6805 c-153 -43 -275 -183 -328 -375 -25 -90 -26 -309 -1 -400
71 -263 278 -420 500 -381 235 41 387 260 387 556 0 377 -280 678 -558 600z
m145 -96 c135 -51 152 -252 29 -324 -91 -53 -191 -19 -237 80 -21 45 -23 84
-9 137 10 36 64 96 98 110 26 10 88 9 119 -3z"/>
<path d="M4119 6696 c-172 -48 -322 -211 -377 -409 -22 -83 -22 -278 1 -364
36 -135 122 -264 222 -333 23 -16 78 -41 121 -56 68 -23 91 -26 174 -22 85 3
104 8 173 41 194 92 292 272 291 537 -1 146 -16 216 -75 338 -101 210 -326
324 -530 268z m247 -115 c122 -55 150 -208 55 -294 -89 -80 -222 -52 -272 57
-23 50 -24 95 -4 143 21 50 42 72 90 94 50 23 79 23 131 0z"/>
<path d="M2902 5875 c-16 -7 -42 -30 -56 -51 -26 -39 -62 -132 -53 -140 2 -2
17 12 32 32 36 48 82 74 128 74 30 0 45 -8 77 -40 22 -22 40 -38 40 -35 0 23
-46 117 -68 137 -35 32 -62 39 -100 23z"/>
<path d="M5440 5861 c0 -5 20 -33 45 -62 47 -56 55 -86 33 -134 -16 -36 -3
-43 28 -14 56 52 68 108 32 154 -32 41 -138 84 -138 56z"/>
<path d="M5902 5485 c-78 -118 -218 -211 -375 -250 -37 -9 -114 -19 -170 -21
-200 -11 -344 37 -468 153 -44 42 -74 63 -84 59 -22 -8 -18 -28 15 -75 43 -59
137 -124 233 -162 77 -30 92 -33 232 -37 110 -3 169 0 221 11 206 44 375 169
428 317 27 76 15 78 -32 5z"/>
<path d="M3798 3529 c56 -90 137 -162 253 -228 47 -26 160 -71 178 -71 3 0
-36 23 -87 50 -123 65 -212 129 -295 212 -41 40 -61 55 -49 37z"/>
<path d="M5421 3704 c-24 -17 -29 -72 -9 -92 31 -31 88 1 88 50 0 42 -45 66
-79 42z m39 -43 c0 -23 -16 -36 -25 -21 -9 14 1 40 15 40 5 0 10 -9 10 -19z"/>
</g>
</svg>
