<?xml version="1.0" standalone="no"?>
<!DOCTYPE svg PUBLIC "-//W3C//DTD SVG 20010904//EN"
 "http://www.w3.org/TR/2001/REC-SVG-20010904/DTD/svg10.dtd">
<svg version="1.0" xmlns="http://www.w3.org/2000/svg"
 width="1024.000000pt" height="1024.000000pt" viewBox="0 0 1024.000000 1024.000000"
 preserveAspectRatio="xMidYMid meet">
<metadata>
Created by potrace 1.16, written by Peter Selinger 2001-2019
</metadata>
<g transform="translate(0.000000,1024.000000) scale(0.100000,-0.100000)"
fill="#000000" stroke="none">
<path d="M4610 9659 c-163 -34 -334 -98 -539 -200 -508 -253 -866 -555 -1106
-934 -77 -122 -193 -362 -250 -520 -26 -71 -51 -134 -56 -139 -6 -6 -36 -1
-81 14 -138 44 -213 60 -291 60 -179 0 -343 -104 -419 -267 -40 -84 -49 -216
-25 -335 33 -157 143 -406 255 -577 124 -191 358 -386 685 -573 l77 -44 -40
-32 c-54 -44 -88 -105 -106 -193 -33 -160 22 -340 145 -472 68 -72 136 -111
230 -130 l64 -13 19 -69 c44 -164 151 -323 282 -422 189 -142 533 -289 875
-374 70 -17 127 -33 129 -34 2 -2 -11 -18 -27 -36 -17 -18 -31 -36 -31 -40 0
-3 -23 -9 -51 -12 -29 -4 -81 -20 -118 -37 -58 -28 -98 -64 -358 -323 -260
-259 -293 -295 -293 -323 0 -41 32 -83 108 -140 11 -8 8 -19 -18 -64 -84 -143
-257 -516 -335 -725 -80 -215 -89 -276 -54 -371 25 -67 83 -127 154 -160 90
-43 148 -23 160 53 15 93 15 92 36 51 21 -40 54 -68 80 -68 43 0 89 126 89
241 0 97 11 42 30 -152 28 -286 34 -310 82 -343 41 -29 166 -11 189 26 26 42
52 -768 29 -907 -5 -32 -18 -67 -27 -76 -19 -19 -153 -80 -272 -124 -96 -36
-144 -83 -167 -162 -15 -51 -16 -70 -5 -158 7 -54 17 -107 22 -116 15 -29 69
-41 211 -46 277 -11 696 47 870 120 41 17 40 14 62 157 57 356 72 512 91 921
17 359 24 435 43 432 64 -14 190 -33 213 -33 18 0 30 -6 33 -17 3 -10 23 -153
46 -318 45 -331 80 -538 113 -660 17 -66 20 -100 17 -200 -2 -66 -4 -160 -4
-210 l-1 -89 32 -22 c79 -53 536 -83 762 -50 63 10 124 22 135 28 72 37 89 96
57 198 -27 87 -65 129 -183 207 -103 68 -140 107 -153 158 -4 17 -3 195 0 397
l8 366 36 -24 c41 -26 104 -34 138 -16 28 15 69 122 88 228 9 51 15 148 15
235 l0 149 26 0 c35 0 64 17 64 38 0 14 -40 163 -65 242 -7 21 -6 21 19 5 30
-20 46 -13 46 21 0 33 12 30 28 -5 28 -63 153 -91 237 -52 44 20 104 81 131
133 10 19 19 65 22 108 8 133 -40 206 -199 300 -65 39 -72 46 -110 122 -34 67
-130 227 -181 299 -9 13 -3 26 31 68 22 29 41 63 41 76 0 23 -46 68 -127 124
-19 13 -33 31 -33 43 0 11 -16 51 -36 89 -55 104 -165 203 -297 267 -56 28
-121 56 -145 63 -36 11 -45 19 -62 57 -11 25 -19 46 -17 48 1 1 48 12 104 23
124 26 315 81 402 116 297 122 490 287 628 539 l48 88 60 4 c110 7 206 44 300
115 174 131 276 400 242 639 l-7 55 105 84 c125 100 361 339 471 477 123 154
219 305 299 469 169 346 196 550 100 752 -62 133 -178 224 -322 254 -118 24
-323 -2 -630 -80 l-112 -28 -57 101 c-104 185 -253 391 -432 600 -487 566
-1124 947 -1765 1056 -160 27 -374 26 -507 -1z m-680 -343 c0 -2 -35 -32 -77
-67 -453 -370 -763 -704 -975 -1046 -75 -122 -66 -89 23 87 85 168 174 303
294 445 170 201 358 358 635 526 99 61 100 61 100 55z m1125 -114 c126 -43
230 -62 331 -62 85 0 86 0 79 -22 -4 -13 -9 -71 -12 -129 -5 -97 -3 -112 22
-180 24 -65 26 -84 22 -159 -9 -152 -80 -293 -209 -415 l-70 -66 -61 57 c-34
32 -64 59 -66 60 -2 2 15 25 37 51 42 50 104 171 108 211 3 26 34 112 41 112
2 0 14 -7 27 -15 20 -14 23 -13 23 0 0 9 -6 14 -12 11 -22 -8 -38 37 -36 101
2 62 -9 98 -38 120 -14 10 -14 13 2 30 23 26 22 40 -5 49 -14 4 -25 1 -32 -8
-20 -26 -64 -50 -71 -38 -13 21 -101 58 -166 69 -125 21 -245 9 -331 -35 -26
-13 -51 -24 -55 -24 -5 0 -23 13 -40 29 -28 25 -34 27 -50 16 -15 -12 -16 -17
-5 -34 16 -27 15 -28 -7 -34 -27 -7 -42 -68 -34 -140 4 -43 3 -58 -5 -53 -6 3
-26 -3 -44 -15 -30 -19 -25 -20 19 -2 11 4 14 3 9 -5 -4 -7 -2 -12 3 -12 6 0
11 5 11 10 0 6 5 10 10 10 6 0 10 -15 10 -32 1 -18 7 -51 15 -73 8 -22 15 -53
15 -68 0 -32 48 -131 84 -174 l25 -30 -56 -48 -56 -49 -56 61 c-121 132 -176
265 -176 428 0 88 3 108 29 170 27 64 30 80 30 190 l1 120 130 1 c159 1 307
30 375 73 l45 28 50 -28 c28 -15 91 -41 140 -57z m-507 -330 c2 -13 -2 -22
-10 -22 -20 0 -37 20 -31 37 8 21 38 11 41 -15z m672 -3 c0 -20 -25 -48 -42
-49 -11 0 -10 28 2 51 14 26 40 24 40 -2z m-222 -41 c51 -26 106 -97 123 -160
32 -120 -42 -277 -161 -342 -128 -70 -268 -14 -343 137 -39 77 -45 145 -18
202 11 24 21 49 21 53 0 17 73 93 103 109 55 28 80 33 156 28 51 -2 87 -11
119 -27z m-347 -554 c41 -31 111 -67 161 -83 46 -15 120 4 203 54 l57 35 27
-19 c14 -11 43 -37 65 -59 l38 -40 -64 -31 c-129 -61 -249 -76 -378 -45 -68
15 -187 70 -230 105 l-25 20 50 44 c27 25 52 45 55 45 3 0 22 -12 41 -26z
m-256 -51 c110 -99 202 -153 325 -189 l75 -23 -135 0 c-180 -1 -476 -18 -630
-36 -288 -35 -638 -110 -855 -185 -66 -23 -131 -44 -145 -47 -26 -5 -215 51
-225 67 -3 5 34 29 83 54 401 201 938 350 1407 389 22 2 45 4 50 5 6 1 28 -15
50 -35z m1330 -29 c296 -33 605 -100 855 -184 191 -65 467 -177 457 -186 -2
-2 -51 -17 -108 -33 -57 -16 -150 -46 -206 -66 l-102 -36 -158 50 c-489 156
-1043 258 -1422 262 l-106 1 77 19 c113 27 232 90 318 168 l35 32 115 -6 c63
-3 174 -13 245 -21z m2415 -256 c86 -26 171 -89 215 -158 22 -34 68 -150 61
-150 -2 0 -16 20 -30 44 -61 105 -206 197 -349 222 -142 26 -292 5 -682 -92
-411 -103 -604 -165 -795 -255 -156 -74 -219 -93 -344 -109 -113 -14 -405 -30
-506 -28 -81 1 -79 1 40 9 252 16 477 40 560 60 50 11 140 45 220 83 197 94
301 129 588 201 141 36 307 79 367 95 312 85 540 112 655 78z m-5745 -77 c44
-11 155 -47 247 -79 199 -72 565 -185 664 -206 87 -18 529 -80 714 -100 168
-19 529 -45 760 -55 140 -6 155 -8 75 -9 -128 -2 -607 24 -795 44 -314 32
-687 86 -805 115 -139 35 -413 119 -554 169 -166 59 -239 78 -343 90 -100 12
-210 -2 -286 -36 -49 -21 -53 -22 -38 -5 9 10 45 31 79 47 107 48 164 53 282
25z m2945 -201 c260 -24 804 -101 819 -116 8 -7 -22 -5 -175 16 -447 59 -956
93 -1424 94 -184 1 -375 -2 -425 -6 -74 -5 -80 -5 -35 3 30 6 105 14 165 19
143 11 927 4 1075 -10z m-7 -257 c-62 -2 -165 -2 -230 0 -65 1 -14 3 112 3
127 0 180 -2 118 -3z m-1423 -331 c149 -100 387 -213 623 -297 59 -21 106 -39
104 -41 -5 -5 -196 45 -297 78 -157 51 -354 151 -445 225 -52 43 -155 146
-155 155 0 5 21 -8 48 -30 26 -22 81 -62 122 -90z m-159 33 c246 -259 596
-404 1098 -455 113 -11 391 -14 391 -4 0 4 -16 31 -36 61 -34 51 -74 147 -74
175 0 7 15 -12 32 -42 70 -122 193 -213 332 -245 67 -16 206 -20 206 -6 0 4
-24 46 -54 92 -30 46 -54 85 -52 86 2 2 34 -11 71 -28 138 -62 198 -73 425
-73 113 -1 222 3 243 7 l38 8 -64 72 c-35 40 -74 87 -87 106 -22 31 -22 34 -4
27 53 -22 186 -65 220 -72 32 -6 65 -34 222 -193 l185 -186 10 -425 c13 -551
4 -659 -73 -857 -39 -101 -97 -190 -188 -285 -215 -225 -551 -359 -1077 -429
-228 -31 -666 -34 -845 -6 -421 66 -869 220 -1125 387 -192 126 -308 316 -335
546 -5 50 -10 331 -10 642 l0 554 88 96 c148 162 257 313 347 480 15 28 30 52
32 52 2 0 40 -38 84 -85z m-876 -172 c-12 -127 14 -333 80 -638 11 -53 -11 -5
-45 95 -41 123 -59 214 -67 326 -7 105 15 284 34 284 3 0 2 -30 -2 -67z m4437
-158 c27 -198 -24 -478 -123 -678 -48 -97 -51 -89 -13 34 87 286 110 433 102
664 -5 139 -4 147 9 105 7 -25 19 -81 25 -125z m-2029 40 c31 -41 53 -75 49
-75 -8 0 -105 123 -110 139 -8 25 9 7 61 -64z m1928 -303 c-12 -64 -36 -178
-55 -252 l-34 -135 5 85 c3 47 15 119 25 160 35 130 57 240 65 324 l8 81 3
-73 c2 -42 -6 -123 -17 -190z m-4226 -16 c14 -70 24 -130 21 -133 -9 -9 -56
196 -56 244 0 45 7 22 35 -111z m-5 -426 c11 -11 22 -32 26 -47 3 -16 12 -51
20 -80 19 -69 19 -70 -16 -88 -17 -9 -40 -30 -50 -48 -35 -57 -21 -169 25
-207 17 -14 18 -13 11 5 -29 71 -12 174 34 203 17 10 22 9 34 -11 23 -34 44
-129 61 -272 20 -171 22 -157 -22 -149 -100 17 -187 77 -252 175 -121 181
-115 426 13 517 39 28 90 28 116 2z m4351 -43 c19 -12 45 -44 59 -72 21 -43
24 -63 24 -140 -3 -267 -164 -505 -384 -569 -52 -15 -136 -24 -143 -15 -4 5
121 353 151 422 20 46 22 47 66 47 37 0 48 -5 70 -30 31 -38 42 -90 29 -146
-12 -53 -2 -56 28 -8 30 49 31 133 3 171 -31 41 -67 64 -111 70 l-41 5 25 61
c63 155 116 227 167 227 13 0 38 -10 57 -23z m-2662 -1734 c28 -97 64 -161
146 -259 36 -43 63 -80 61 -82 -2 -2 -29 8 -59 22 -42 20 -64 39 -93 81 -20
30 -41 55 -46 55 -13 0 -57 -50 -75 -84 -14 -27 -16 -28 -25 -12 -22 39 33
356 61 356 4 0 17 -35 30 -77z m604 54 c32 -3 -34 -90 -173 -227 -69 -69 -133
-136 -141 -150 l-16 -24 -13 24 c-7 14 -34 50 -59 80 -26 30 -60 72 -75 92
-28 37 -85 170 -86 198 0 14 32 16 273 13 149 -2 280 -5 290 -6z m225 -32 c12
-25 22 -53 22 -63 0 -28 -165 -265 -181 -260 -4 2 -19 23 -32 48 -14 28 -31
46 -44 48 -20 3 -103 -43 -201 -110 -69 -47 -38 -7 87 114 61 59 133 140 161
180 56 80 65 86 126 87 38 1 41 -1 62 -44z m170 -225 c71 -198 196 -580 207
-635 15 -71 -16 11 -75 200 -34 110 -98 300 -141 422 -43 122 -79 228 -78 235
0 17 3 11 87 -222z m-1324 133 c-99 -230 -146 -377 -185 -578 -12 -66 -24
-122 -25 -124 -2 -2 -61 35 -131 82 -70 47 -154 98 -185 113 -32 16 -58 33
-58 39 0 14 428 439 460 456 43 24 104 48 123 48 16 1 16 -1 1 -36z m186 -43
c-13 -69 -13 -169 1 -208 20 -59 66 -53 105 14 14 24 28 44 30 44 3 0 19 -16
36 -36 19 -21 62 -50 103 -69 38 -18 81 -44 94 -58 22 -24 23 -30 13 -69 -17
-68 -42 -335 -48 -528 -7 -188 6 -369 31 -441 24 -68 23 -69 -52 -69 -86 0
-140 -15 -148 -40 -4 -13 -15 -20 -31 -20 -32 0 -185 34 -299 67 -49 14 -96
26 -102 26 -9 0 -13 19 -13 57 0 44 -5 64 -22 85 -20 26 -21 31 -9 103 6 42
13 77 14 78 2 2 25 -3 51 -11 82 -25 340 -75 385 -75 53 0 75 12 90 47 24 60
83 658 68 696 -14 37 -53 48 -248 68 -106 11 -195 21 -197 23 -2 3 19 62 48
133 64 160 102 244 107 240 1 -2 -1 -28 -7 -57z m1363 1 c23 -9 27 -16 27 -48
0 -21 5 -72 11 -114 l12 -75 117 -57 c65 -31 128 -65 140 -75 l22 -18 -104
-99 c-113 -109 -196 -180 -203 -174 -2 3 -15 56 -29 119 -36 166 -93 402 -121
500 -14 46 -25 88 -25 92 0 7 40 -6 153 -51z m-1502 -13 c-10 -24 -42 -114
-70 -199 -91 -275 -121 -423 -126 -614 -3 -114 -28 -329 -40 -343 -10 -11 -45
27 -45 47 0 63 23 151 46 176 22 24 24 34 24 132 0 191 78 506 193 781 16 40
32 71 34 69 2 -2 -5 -24 -16 -49z m1193 -60 c16 -40 44 -115 62 -166 l34 -92
-28 6 c-24 6 -45 17 -88 49 -10 7 -18 3 -30 -13 -13 -20 -22 -22 -53 -18 -20
4 -49 2 -66 -2 -25 -7 -29 -14 -27 -35 1 -14 -2 -28 -8 -32 -5 -3 -49 -13 -97
-21 -137 -24 -162 -47 -163 -146 0 -97 19 -357 35 -466 21 -146 39 -156 258
-142 268 18 283 23 298 100 4 25 8 157 9 294 0 137 2 247 5 244 8 -8 73 -200
84 -249 9 -40 61 -423 61 -449 0 -6 -7 -10 -15 -10 -24 0 -80 -56 -100 -100
-17 -37 -17 -41 -2 -58 28 -30 101 -221 143 -372 16 -58 -8 -6 -54 121 -28 75
-62 160 -77 189 -22 43 -30 51 -48 46 -78 -19 -289 -58 -381 -69 l-109 -14
-23 26 c-21 24 -28 26 -127 29 -87 3 -106 7 -110 20 -48 150 -60 289 -46 546
10 206 32 418 49 479 6 21 28 55 50 75 36 35 228 158 235 150 1 -1 12 -22 24
-45 14 -29 30 -45 48 -49 23 -6 33 -1 69 39 23 25 66 82 95 126 30 44 56 80
59 81 3 0 18 -33 34 -72z m400 26 c10 -4 16 -18 16 -39 0 -41 27 -76 99 -124
56 -39 88 -68 80 -75 -2 -3 -44 16 -94 40 l-90 44 -17 62 c-17 63 -22 98 -14
98 2 0 11 -3 20 -6z m103 -110 c-10 -10 -37 16 -37 34 0 13 4 12 22 -5 12 -13
19 -25 15 -29z m-520 -179 c-4 -8 -2 -17 3 -20 26 -16 4 -25 -59 -25 -72 0
-86 6 -75 34 5 13 16 15 60 10 37 -5 54 -3 54 5 0 6 5 11 11 11 6 0 9 -7 6
-15z m121 -44 c3 -19 0 -22 -13 -17 -9 3 -25 6 -36 6 -24 0 -25 27 -1 33 32 9
47 2 50 -22z m-1107 -10 c97 -10 182 -22 188 -25 6 -4 11 -32 11 -63 l0 -55
-32 5 c-18 3 -122 13 -230 23 -152 14 -198 21 -198 32 0 7 10 35 21 63 18 41
25 48 43 44 11 -3 100 -14 197 -24z m1725 -57 c19 -15 34 -32 34 -39 0 -39
-355 -325 -403 -325 -4 0 -7 19 -7 43 1 39 5 46 55 86 30 25 105 93 167 152
62 59 114 108 116 108 2 1 19 -11 38 -25z m-896 6 c0 -5 14 -10 30 -10 17 0
30 5 30 10 0 12 159 14 176 2 7 -4 14 -20 15 -37 l4 -30 -100 -2 c-121 -3
-359 -21 -380 -29 -23 -9 -19 39 4 60 28 26 221 57 221 36z m-1628 -66 c88
-44 216 -123 286 -176 l52 -41 -1 -83 c-1 -46 -4 -84 -7 -84 -24 0 -362 224
-432 287 l-50 45 37 44 c21 24 39 44 40 44 2 0 36 -16 75 -36z m705 -40 c29
-4 31 -7 21 -23 -9 -15 -8 -24 5 -45 10 -14 25 -26 35 -26 30 0 62 29 62 57 0
25 0 25 63 18 88 -9 97 -13 97 -41 0 -13 -1 -24 -2 -24 -53 -11 -193 -29 -219
-30 -24 0 -55 11 -91 33 -30 17 -77 43 -106 56 -28 13 -49 28 -46 33 5 7 108
3 181 -8z m91 -31 c-5 -25 -28 -28 -28 -4 0 12 6 21 16 21 9 0 14 -7 12 -17z
m852 11 c0 -20 -24 -44 -45 -44 -27 0 -53 35 -32 43 17 7 77 8 77 1z m240 -38
c0 -51 10 -46 -155 -72 -96 -14 -123 -15 -210 -4 -122 16 -135 22 -135 61 0
33 3 35 78 44 44 5 52 3 52 -10 0 -23 55 -75 78 -75 26 0 81 46 93 77 8 22 13
23 104 23 l95 0 0 -44z m-1269 -48 c89 -47 99 -55 99 -80 0 -35 -21 -332 -24
-335 -1 -2 -54 10 -117 25 l-114 28 3 79 c4 116 21 316 28 326 9 15 23 11 125
-43z m1936 -86 c32 -48 83 -136 113 -194 l55 -106 98 -63 c132 -83 152 -113
152 -225 0 -76 -2 -86 -30 -126 -58 -82 -161 -113 -220 -67 -15 12 -42 55 -60
95 -25 55 -39 74 -53 74 -26 0 -33 -21 -25 -75 6 -49 -3 -57 -33 -28 -44 44
-56 136 -29 213 8 23 15 51 15 61 0 11 -66 92 -147 181 l-147 162 29 22 c17
13 70 55 119 93 49 39 93 71 97 71 5 0 34 -40 66 -88z m-1577 43 c0 -30 -41
-370 -46 -389 -6 -17 -13 -18 -79 -13 -106 9 -105 9 -104 81 1 110 16 287 26
297 7 7 107 27 196 38 4 1 7 -6 7 -14z m906 -31 c-3 -9 -6 -87 -6 -174 0 -189
9 -177 -138 -186 l-99 -7 -6 129 c-4 71 -7 150 -7 175 l0 45 103 16 c143 21
160 22 153 2z m-382 -4 c33 -5 63 -15 68 -22 4 -7 8 -88 8 -180 l0 -168 -57 0
c-63 0 -76 5 -86 34 -6 14 -37 302 -37 338 0 11 31 10 104 -2z m-1435 -71 c53
-34 98 -63 99 -64 2 -2 -28 -52 -67 -111 -72 -109 -173 -296 -211 -394 l-21
-53 35 -36 c51 -53 66 -97 65 -193 -1 -93 -28 -240 -45 -245 -6 -2 -28 41 -49
97 -42 111 -53 126 -78 107 -11 -9 -19 -43 -27 -127 -13 -139 -16 -150 -41
-150 -58 0 -137 59 -169 125 -46 95 -24 193 122 535 108 252 266 570 285 570
3 0 49 -28 102 -61z m2213 -161 c40 -44 101 -112 136 -149 64 -70 69 -81 53
-121 -5 -13 -12 -35 -15 -50 l-6 -27 -27 25 c-46 42 -91 57 -180 58 -45 1 -84
3 -87 6 -3 3 -12 62 -21 130 -8 69 -17 139 -20 155 -5 28 -2 32 27 42 58 18
65 15 140 -69z m-1995 16 c2 -7 -2 -52 -9 -100 l-14 -89 -46 -6 c-68 -10 -129
-41 -167 -84 -42 -48 -60 -91 -69 -163 -5 -41 -11 -57 -22 -57 -29 0 -21 45
30 151 62 133 129 250 188 331 l45 62 30 -17 c16 -9 31 -22 34 -28z m1 -426
c-3 -53 -11 -94 -18 -101 -10 -10 -11 -4 -6 28 3 22 6 71 6 108 0 48 3 66 11
61 8 -5 10 -35 7 -96z m178 -74 c-4 -20 -10 -34 -12 -31 -3 3 -2 21 2 41 3 21
9 35 11 32 3 -3 2 -21 -1 -42z m915 -28 c23 -11 24 -15 24 -128 0 -64 -4 -120
-8 -125 -14 -13 -386 -16 -417 -3 -33 14 -40 40 -40 149 0 77 9 103 40 114 31
12 376 6 401 -7z m-1244 -483 c-1 -65 -3 -12 -3 117 0 129 2 182 3 118 2 -65
2 -171 0 -235z m279 -175 c15 -284 19 -782 5 -774 -4 3 -11 126 -15 273 -3
148 -9 381 -12 518 -4 138 -3 247 1 243 4 -4 13 -121 21 -260z m119 -848 c87
-32 237 -44 363 -31 62 6 120 14 130 16 9 3 1 -2 -18 -11 -48 -23 -286 -31
-383 -14 -70 12 -177 52 -177 66 0 3 8 3 18 -1 9 -4 40 -15 67 -25z m1585 -1
c-70 -29 -182 -43 -337 -43 -95 -1 -166 3 -172 9 -7 7 54 10 182 11 132 1 211
6 252 17 73 18 113 21 75 6z m-370 -680 c108 -27 280 -42 390 -34 116 8 279
31 349 49 56 14 76 6 39 -17 -34 -22 -100 -35 -238 -47 -243 -23 -650 22 -650
71 0 7 7 8 18 4 9 -4 51 -16 92 -26z"/>
<path d="M4835 9190 c-3 -5 3 -10 15 -10 12 0 18 5 15 10 -3 6 -10 10 -15 10
-5 0 -12 -4 -15 -10z"/>
<path d="M4940 9176 c0 -9 5 -16 10 -16 6 0 10 4 10 9 0 6 -4 13 -10 16 -5 3
-10 -1 -10 -9z"/>
<path d="M4901 9148 c-1 -21 4 -38 9 -38 11 0 11 14 0 50 -7 22 -8 21 -9 -12z"/>
<path d="M5000 9165 c-6 -7 -10 -24 -7 -37 4 -21 4 -21 6 4 0 17 8 28 19 30
11 2 13 6 6 11 -7 4 -17 0 -24 -8z"/>
<path d="M4632 9144 c-6 -12 -18 -15 -36 -12 -17 3 -26 1 -26 -7 0 -7 -9 -24
-20 -38 -11 -14 -20 -33 -20 -44 1 -11 6 -6 15 14 9 22 28 39 59 54 50 23 62
34 47 44 -5 3 -14 -2 -19 -11z"/>
<path d="M5080 9149 c0 -5 5 -7 10 -4 6 3 10 8 10 11 0 2 -4 4 -10 4 -5 0 -10
-5 -10 -11z"/>
<path d="M4686 9129 c-16 -16 -17 -19 -4 -19 9 0 19 7 22 16 9 24 4 24 -18 3z"/>
<path d="M5107 9108 c-8 -29 -31 -38 -40 -15 -4 7 -6 8 -6 1 -1 -6 6 -17 14
-24 20 -16 48 11 43 42 -3 21 -4 21 -11 -4z"/>
<path d="M4650 9101 c0 -8 -7 -11 -15 -7 -10 4 -15 -1 -15 -14 0 -26 27 -26
35 1 4 11 4 23 1 26 -3 4 -6 1 -6 -6z"/>
<path d="M4710 9084 c0 -8 5 -12 10 -9 6 3 10 10 10 16 0 5 -4 9 -10 9 -5 0
-10 -7 -10 -16z"/>
<path d="M5027 9093 c-4 -3 -7 -13 -7 -22 1 -13 3 -13 11 2 11 19 8 33 -4 20z"/>
<path d="M5147 9073 c-7 -36 -4 -38 22 -16 22 18 29 39 10 27 -6 -3 -15 -1
-19 6 -5 7 -9 2 -13 -17z"/>
<path d="M4770 9080 c0 -5 5 -10 11 -10 5 0 7 5 4 10 -3 6 -8 10 -11 10 -2 0
-4 -4 -4 -10z"/>
<path d="M4940 9080 c0 -5 5 -10 10 -10 6 0 10 5 10 10 0 6 -4 10 -10 10 -5 0
-10 -4 -10 -10z"/>
<path d="M4595 9040 c-16 -7 -17 -9 -3 -9 9 -1 20 4 23 9 7 11 7 11 -20 0z"/>
<path d="M5120 9037 c0 -23 30 -42 66 -42 19 0 34 3 34 8 0 6 -32 11 -67 10
-7 -1 -13 5 -13 13 0 7 -4 16 -10 19 -5 3 -10 0 -10 -8z"/>
<path d="M4380 8650 c-9 -6 -10 -10 -3 -10 6 0 15 5 18 10 8 12 4 12 -15 0z"/>
<path d="M4700 8684 c0 -3 16 -12 35 -20 23 -9 41 -27 52 -49 16 -33 16 -34
-13 -58 -16 -14 -32 -26 -37 -27 -21 -7 -70 13 -92 36 -31 33 -33 13 -3 -29
25 -36 39 -48 49 -41 9 5 20 -22 12 -30 -4 -3 -12 -1 -19 5 -7 6 -14 6 -18 1
-3 -6 0 -14 7 -19 23 -19 106 -45 122 -39 9 3 14 2 11 -3 -9 -14 42 -32 62
-22 9 5 48 18 85 28 38 10 67 23 65 28 -2 6 -9 9 -15 9 -15 -2 -16 6 -4 25 5
7 13 11 18 8 11 -7 57 39 67 66 5 15 0 14 -25 -7 -30 -25 -41 -30 -66 -27 -7
1 -13 -4 -13 -11 -1 -41 -128 -74 -189 -48 -42 17 -46 38 -14 72 47 49 153 34
153 -22 0 -10 4 -22 10 -25 6 -4 7 1 3 11 -5 13 -3 16 10 11 24 -9 21 -3 -13
35 -41 45 -28 90 31 103 16 4 27 10 24 15 -3 5 -19 4 -36 -2 -23 -8 -33 -8
-38 1 -12 18 -77 25 -110 11 -25 -10 -34 -9 -53 4 -22 15 -58 22 -58 10z m177
-51 c6 -15 -27 -53 -46 -53 -6 0 -7 35 -2 63 2 14 42 7 48 -10z m-143 -139 c3
-8 2 -12 -4 -9 -6 3 -10 10 -10 16 0 14 7 11 14 -7z"/>
<path d="M3793 6725 c-79 -22 -126 -49 -195 -114 -65 -61 -108 -121 -88 -121
6 0 49 13 96 30 236 83 455 76 692 -22 40 -17 75 -28 78 -25 11 11 -38 88 -87
137 -90 90 -198 130 -348 129 -53 0 -120 -7 -148 -14z"/>
<path d="M5930 6620 c-68 -15 -142 -55 -194 -106 -49 -49 -84 -104 -66 -104 5
0 49 12 97 26 65 19 120 27 208 31 160 7 243 -13 423 -103 72 -37 135 -65 138
-61 11 10 -48 106 -96 156 -60 63 -140 115 -214 141 -69 23 -228 34 -296 20z"/>
<path d="M3785 6393 c-108 -24 -211 -79 -287 -154 -43 -42 -53 -48 -81 -43
-18 4 -45 15 -61 26 l-29 21 7 -29 c4 -16 21 -50 37 -75 16 -25 29 -49 29 -52
0 -4 -29 -7 -65 -7 -36 0 -65 -4 -65 -8 0 -5 19 -38 41 -73 23 -35 54 -88 70
-119 17 -33 30 -49 32 -40 3 8 11 38 18 65 27 108 99 217 182 274 79 54 88 45
22 -23 -97 -99 -144 -212 -145 -346 0 -136 47 -248 150 -350 101 -101 213
-150 345 -150 211 1 391 152 436 367 27 134 -13 315 -92 417 -56 71 -56 71
-39 61 8 -5 32 -19 53 -33 22 -13 41 -22 43 -19 9 8 -79 128 -121 165 -58 51
-145 96 -221 116 -58 15 -210 20 -259 9z m34 -297 c82 -43 62 -218 -33 -291
-42 -32 -100 -42 -150 -25 -139 45 -38 330 117 330 21 0 50 -6 66 -14z m-136
-354 c37 -33 9 -102 -41 -102 -57 0 -83 69 -41 111 22 22 50 19 82 -9z"/>
<path d="M5862 6264 c-84 -22 -158 -62 -218 -116 -50 -47 -102 -123 -91 -135
3 -2 27 11 54 30 95 68 162 90 83 27 -96 -76 -176 -234 -186 -367 -28 -373
342 -622 692 -468 149 66 254 244 254 429 0 135 -49 257 -146 365 -25 28 -42
51 -38 51 23 0 114 -73 161 -129 58 -71 128 -200 139 -257 8 -44 22 -52 30
-19 4 15 28 60 55 101 27 41 49 78 49 83 0 12 -18 18 -74 26 -51 8 -55 15 -27
53 10 15 24 37 30 50 12 23 12 23 -47 21 l-59 -2 -89 90 c-96 97 -165 139
-279 168 -74 19 -222 18 -293 -1z m-21 -297 c67 -45 73 -151 12 -245 -73 -112
-222 -106 -254 10 -21 79 37 194 119 238 49 25 82 25 123 -3z m-148 -355 c41
-35 6 -107 -49 -100 -56 6 -72 92 -22 115 26 11 44 7 71 -15z"/>
<path d="M3490 5508 c0 -23 63 -108 120 -162 110 -105 240 -144 386 -115 l69
13 -90 13 c-179 26 -304 86 -427 206 -32 30 -58 50 -58 45z"/>
<path d="M4823 5438 c-35 -42 -16 -139 29 -154 27 -8 30 -2 13 33 -8 16 -18
53 -22 83 -7 44 -10 51 -20 38z"/>
<path d="M6390 5324 c-69 -69 -167 -131 -255 -160 -72 -23 -91 -26 -198 -22
-107 3 -115 2 -85 -11 42 -17 154 -41 193 -41 52 0 147 29 204 63 63 37 141
115 177 175 32 54 20 53 -36 -4z"/>
<path d="M5136 5123 c-117 -42 -243 -42 -429 -1 -51 11 -59 10 -75 -5 -16 -17
-15 -21 17 -83 39 -75 108 -155 163 -190 131 -83 295 -58 409 63 85 90 111
178 66 221 -30 28 -63 27 -151 -5z m114 -53 c0 -53 -85 -157 -160 -196 -52
-27 -172 -25 -225 3 -56 30 -165 149 -165 181 0 5 26 3 63 -6 38 -9 107 -15
177 -15 95 0 129 5 195 25 102 32 115 33 115 8z"/>
<path d="M4772 2678 c-13 -13 -17 -135 -6 -175 4 -14 14 -23 26 -23 18 0 20 5
14 31 -3 17 -6 65 -6 105 0 74 -5 85 -28 62z"/>
<path d="M4852 2678 c-16 -16 -16 -159 1 -181 11 -15 29 -17 147 -15 l135 3 3
82 c4 125 6 123 -146 123 -86 0 -132 -4 -140 -12z m166 -34 c6 -2 12 -13 12
-25 0 -19 -4 -20 -42 -15 -24 3 -58 5 -75 5 -28 1 -33 5 -33 26 0 24 1 25 63
19 34 -3 68 -7 75 -10z m12 -89 c0 -24 -2 -25 -74 -25 -75 0 -93 8 -82 35 4
11 24 15 81 15 73 0 75 -1 75 -25z"/>
</g>
</svg>
