<?xml version="1.0" standalone="no"?>
<!DOCTYPE svg PUBLIC "-//W3C//DTD SVG 20010904//EN"
 "http://www.w3.org/TR/2001/REC-SVG-20010904/DTD/svg10.dtd">
<svg version="1.0" xmlns="http://www.w3.org/2000/svg"
 width="1024.000000pt" height="1024.000000pt" viewBox="0 0 1024.000000 1024.000000"
 preserveAspectRatio="xMidYMid meet">
<metadata>
Created by potrace 1.16, written by Peter Selinger 2001-2019
</metadata>
<g transform="translate(0.000000,1024.000000) scale(0.100000,-0.100000)"
fill="#000000" stroke="none">
<path d="M4965 9553 c-404 -35 -842 -127 -1215 -255 -664 -229 -1294 -644
-1445 -953 -61 -124 -126 -430 -141 -661 l-7 -110 -43 -43 c-54 -55 -110 -166
-129 -256 -18 -85 -18 -118 -4 -187 10 -48 19 -61 98 -135 47 -46 111 -96 141
-112 62 -33 146 -51 203 -44 35 5 37 4 37 -22 0 -85 75 -356 127 -460 14 -27
36 -90 50 -139 98 -366 399 -709 798 -909 108 -54 371 -157 400 -157 28 0 15
-18 -17 -25 -118 -26 -198 -79 -230 -154 -21 -51 -48 -209 -48 -288 l0 -52
-160 -173 c-119 -127 -160 -178 -160 -197 -1 -18 -23 -49 -77 -105 -111 -117
-132 -177 -96 -278 l17 -47 -42 -45 c-23 -25 -42 -50 -42 -56 0 -23 31 -67 79
-115 l52 -50 64 23 c35 12 69 22 74 22 6 0 25 -30 43 -68 46 -98 126 -174 209
-200 l64 -20 3 -51 c3 -45 1 -51 -17 -51 -53 0 -51 15 -51 -356 0 -268 3 -352
14 -377 18 -43 101 -119 167 -153 39 -19 74 -28 125 -32 l71 -4 -30 -101 c-17
-56 -36 -107 -43 -114 -26 -26 -58 -240 -52 -341 4 -59 7 -68 36 -92 l31 -26
-19 -172 c-15 -134 -26 -187 -46 -235 -14 -34 -37 -92 -51 -129 l-25 -67 -52
-5 c-28 -3 -177 -13 -331 -21 -438 -25 -769 -56 -1015 -96 -158 -25 -222 -43
-245 -69 -18 -19 -17 -20 20 -36 103 -43 667 -118 1155 -154 85 -7 191 -16
235 -20 124 -13 -501 -2 -877 16 -180 9 -337 14 -350 12 -33 -5 574 -47 917
-63 685 -33 1618 -44 2125 -26 184 7 184 7 -125 10 -371 4 -586 17 -310 20
487 4 1512 40 1740 60 l90 8 -145 2 c-193 2 -494 17 -710 37 -318 28 -320 33
-10 28 286 -5 456 -15 570 -34 30 -5 125 -9 210 -9 134 -1 169 2 255 24 64 16
216 37 425 60 280 30 632 84 680 104 8 3 -192 8 -445 11 -431 5 -448 6 -265
13 430 18 1009 52 1017 61 4 3 -106 6 -243 6 -299 0 -885 19 -934 30 -20 5
153 8 390 7 451 -1 815 3 790 9 -8 1 -118 8 -245 14 -398 19 -958 50 -1002 55
-23 3 -47 12 -53 20 -25 30 -82 57 -171 81 -126 34 -170 55 -219 106 -57 58
-90 135 -135 311 l-37 149 32 33 c32 33 32 33 25 107 -13 134 -75 310 -112
322 -17 6 -123 233 -123 262 0 6 13 17 30 24 114 47 164 118 179 251 20 183
-37 438 -124 554 -15 20 -25 52 -30 93 l-7 62 43 41 c24 22 51 47 60 55 10 8
27 48 40 87 19 57 24 94 24 183 l0 110 -81 80 c-45 43 -104 110 -131 149 l-51
70 20 39 c25 49 22 56 -73 161 -82 92 -160 198 -196 270 -60 116 -131 192
-249 263 l-81 48 101 22 c251 54 467 146 639 270 92 66 152 129 214 225 34 52
49 67 68 67 36 0 147 43 211 81 171 103 283 331 271 549 -8 135 -46 213 -135
272 l-23 15 30 25 c25 21 42 26 122 31 142 8 193 31 279 125 38 42 70 80 70
84 0 4 51 -19 114 -51 184 -95 301 -112 334 -50 24 45 -8 137 -67 193 -19 18
-39 54 -52 95 -42 128 -99 217 -231 363 l-88 97 0 58 c0 162 -43 458 -91 630
-152 540 -451 945 -880 1191 -259 149 -573 247 -909 286 -123 15 -464 20 -585
9z m483 -48 c302 -17 622 -104 902 -244 142 -72 207 -112 315 -197 321 -250
565 -680 665 -1174 30 -144 60 -443 47 -457 -4 -3 -20 6 -36 21 -26 25 -29 35
-34 119 -17 234 -116 530 -289 855 -68 128 -88 152 -28 33 124 -247 196 -515
216 -800 l7 -105 -39 31 c-220 174 -634 370 -1041 493 -530 161 -965 225
-1528 225 -358 -1 -624 -25 -935 -86 -126 -25 -462 -108 -579 -144 -151 -45
-110 -25 94 46 284 99 378 126 565 164 188 38 192 45 9 14 -154 -25 -309 -64
-552 -136 -103 -30 -189 -54 -191 -52 -8 12 -58 194 -66 244 -14 82 -24 323
-16 366 5 30 18 42 118 106 62 39 160 100 218 134 108 63 417 221 458 234 13
4 21 9 19 11 -13 14 -462 -193 -635 -292 -374 -214 -666 -489 -761 -718 -54
-131 -101 -351 -101 -478 0 -66 -7 -88 -27 -88 -11 0 -13 10 -9 43 3 23 8 65
11 92 22 199 88 493 126 570 27 53 136 178 222 253 603 527 1572 878 2552 926
63 3 151 0 323 -9z m-2848 -1078 c0 -2 -10 -12 -22 -23 l-23 -19 19 23 c18 21
26 27 26 19z m-85 -127 c-9 -16 -18 -30 -21 -30 -2 0 2 14 11 30 9 17 18 30
21 30 2 0 -2 -13 -11 -30z m2471 -50 c456 -36 865 -121 1312 -274 570 -195
1027 -500 1297 -867 38 -52 105 -174 105 -192 0 -4 -35 16 -77 42 -487 302
-1285 570 -2163 726 -338 60 -715 103 -1114 126 -228 13 -914 7 -1096 -11
-397 -37 -678 -94 -887 -178 -29 -12 -53 -20 -53 -17 0 8 120 65 198 94 96 35
388 113 547 145 173 36 276 48 429 49 74 1 129 5 123 8 -7 4 -85 13 -175 20
-185 15 -411 3 -582 -30 -52 -11 -97 -17 -99 -15 -8 7 183 92 286 128 323 112
750 203 1103 235 63 6 131 13 150 14 85 9 579 6 696 -3z m-2009 -206 c-3 -3
-12 -4 -19 -1 -8 3 -5 6 6 6 11 1 17 -2 13 -5z m-52 -14 c-11 -5 -27 -9 -35
-9 -9 0 -8 4 5 9 11 5 27 9 35 9 9 0 8 -4 -5 -9z m-68 -16 c-3 -3 -12 -4 -19
-1 -8 3 -5 6 6 6 11 1 17 -2 13 -5z m-40 -10 c-3 -3 -12 -4 -19 -1 -8 3 -5 6
6 6 11 1 17 -2 13 -5z m-50 -10 c-3 -3 -12 -4 -19 -1 -8 3 -5 6 6 6 11 1 17
-2 13 -5z m1648 -575 c-9 -35 -18 -65 -20 -67 -1 -2 -19 7 -40 19 l-37 22 53
48 c30 26 55 46 57 44 2 -1 -4 -31 -13 -66z m-534 -46 c-19 -30 -45 -56 -68
-68 l-38 -20 37 -3 38 -3 -20 -39 -20 -40 32 6 c18 4 76 15 128 26 161 32 325
36 369 9 10 -6 10 -13 2 -28 -10 -20 -10 -20 58 -2 38 10 100 30 137 44 38 15
78 29 89 31 31 8 -84 -98 -146 -135 l-54 -32 180 4 c136 4 200 10 260 25 164
42 310 120 421 227 24 23 44 36 44 30 0 -6 -9 -49 -21 -96 -26 -105 -93 -247
-148 -316 -23 -29 -39 -53 -36 -53 3 0 29 12 58 26 146 74 356 249 447 373 35
48 49 60 65 55 11 -3 58 -15 105 -27 l85 -22 95 -97 95 -96 -82 45 c-105 57
-166 65 -240 33 -81 -34 -128 -97 -101 -133 12 -16 17 -15 62 8 59 30 95 31
203 5 164 -39 270 -106 315 -198 l22 -47 7 40 c4 22 5 51 2 64 -3 13 -2 22 3
19 5 -2 73 -35 151 -74 l142 -69 6 -45 c9 -68 10 -351 2 -380 -8 -24 -7 -24
17 5 14 17 37 62 50 100 l24 70 1 -116 c1 -104 -3 -132 -40 -280 -37 -145 -42
-183 -49 -329 -6 -140 -11 -176 -33 -240 -115 -326 -554 -578 -1142 -655 -494
-65 -1057 11 -1450 195 -282 132 -483 316 -600 550 -20 41 -38 76 -40 78 -1 1
-30 -5 -65 -14 -80 -20 -169 -12 -260 24 -50 20 -81 42 -136 96 -118 119 -182
281 -191 492 -6 125 2 165 50 231 59 83 159 105 255 57 104 -52 206 -181 274
-346 18 -43 36 -78 41 -78 5 0 6 36 3 83 -4 45 -8 118 -9 162 l-2 80 57 87
c68 103 182 311 253 458 l50 105 85 42 c63 31 100 57 140 100 30 32 56 55 58
51 2 -3 -11 -28 -27 -55z m-962 -155 c-74 -147 -202 -384 -216 -398 -16 -16
-10 1 85 239 58 147 107 221 146 221 14 0 11 -10 -15 -62z m65 -40 c-14 -34
-40 -90 -56 -123 -31 -62 -97 -159 -104 -152 -2 2 37 84 88 182 89 174 127
223 72 93z m-214 -22 c0 -3 -15 -40 -33 -83 -142 -331 -190 -404 -131 -200 36
124 61 203 76 230 13 25 88 70 88 53z m-464 -172 c-9 -26 -16 -56 -16 -66 0
-10 -4 -18 -10 -18 -15 0 -12 23 11 84 26 68 38 67 15 0z m4598 -565 c81 -38
126 -134 126 -269 0 -252 -153 -467 -379 -534 -30 -9 -56 -14 -58 -12 -2 2 3
32 12 67 8 35 15 99 15 142 0 42 3 77 8 77 14 0 30 -16 51 -50 11 -19 21 -28
21 -20 0 16 -32 85 -51 111 -17 23 -3 68 26 81 34 15 72 -3 91 -45 l15 -32 -5
35 c-6 37 -54 90 -81 90 -23 0 -17 12 22 45 47 39 106 41 153 7 29 -22 31 -22
21 -4 -18 33 -96 65 -142 58 -21 -3 -39 -4 -39 -1 0 15 138 275 146 275 2 0
24 -9 48 -21z m-3122 -1511 c-4 -102 2 -91 -91 -166 l-40 -33 -6 26 c-3 14 -7
35 -9 48 -7 36 10 104 35 141 22 33 81 75 105 76 7 0 9 -32 6 -92z m124 -8 c3
0 14 5 25 10 10 6 19 7 19 2 0 -6 -88 -55 -144 -81 -22 -9 9 56 47 100 l42 49
3 -40 c2 -22 5 -40 8 -40z m120 -131 c-87 -185 -147 -348 -190 -520 -20 -81
-36 -155 -37 -165 0 -11 -3 -14 -5 -7 -8 19 35 294 66 420 29 120 80 259 119
325 18 30 99 93 109 84 1 -2 -27 -63 -62 -137z m306 135 c3 -3 -3 -31 -14 -62
-12 -33 -21 -84 -22 -122 -1 -58 1 -65 20 -68 11 -2 42 6 68 18 l48 20 -6 -27
c-3 -16 -9 -61 -12 -100 -8 -81 -2 -87 44 -54 15 10 51 30 79 45 l53 26 39
-26 c22 -14 65 -32 97 -41 32 -8 76 -24 97 -35 l39 -20 -7 -51 c-4 -29 -11
-79 -16 -112 -5 -33 -12 -239 -15 -459 l-7 -399 -241 5 c-238 5 -242 5 -288
-18 -26 -13 -57 -24 -69 -24 -41 0 -144 31 -156 48 -12 14 -19 112 -9 112 2 0
33 -14 69 -30 59 -28 154 -51 202 -49 11 1 2 7 -21 14 -60 19 -95 39 -129 74
l-29 32 59 -8 c33 -4 128 -8 210 -8 140 0 153 2 200 25 41 20 53 33 64 65 16
46 21 278 8 416 -7 82 -7 87 13 92 11 3 20 11 20 19 0 26 -46 93 -72 106 -14
7 -87 17 -162 23 -150 13 -280 3 -365 -28 -28 -9 -52 -15 -55 -12 -16 16 102
371 174 527 35 75 47 92 65 92 12 0 24 -3 27 -6z m148 -31 c8 -3 18 -5 23 -5
4 1 0 -15 -9 -35 -9 -21 -19 -46 -22 -57 -5 -19 -129 -82 -139 -72 -6 5 22
131 38 173 7 19 12 20 51 12 24 -5 50 -12 58 -16z m875 -26 c28 -64 65 -182
65 -208 0 -18 -2 -19 -37 -3 -97 42 -86 43 -143 -19 -28 -31 -79 -79 -113
-106 -66 -52 -209 -142 -216 -136 -6 6 48 134 81 195 32 57 133 227 175 293
l23 37 71 0 70 0 24 -53z m271 11 c12 -12 31 -41 42 -63 21 -42 95 -257 107
-310 6 -30 6 -30 -13 -10 -11 11 -29 45 -40 75 -11 30 -49 121 -85 202 -63
143 -65 166 -11 106z m-967 -22 c35 -8 69 -20 76 -27 16 -17 157 -270 153
-274 -2 -2 -34 5 -73 15 -38 11 -81 19 -95 20 -34 1 -53 17 -79 68 -12 23 -27
42 -35 42 -7 0 -38 -9 -69 -19 -32 -11 -57 -16 -57 -12 0 16 42 146 56 174 17
31 30 33 123 13z m1095 -55 c24 -37 62 -158 53 -167 -2 -3 -12 17 -22 43 -10
27 -29 70 -41 97 -37 76 -30 92 10 27z m-1896 -93 c-45 -131 -79 -263 -104
-403 -17 -97 -18 -99 -29 -66 l-11 34 -74 -84 c-41 -46 -78 -83 -82 -82 -4 2
-41 25 -82 52 -42 27 -100 57 -129 66 -28 10 -56 21 -61 26 -6 5 31 51 90 111
55 57 142 147 194 201 52 53 97 94 101 90 3 -5 14 -50 24 -101 20 -107 30
-118 15 -16 -6 38 -13 87 -16 110 -6 39 -4 42 42 83 47 41 127 90 150 91 6 0
-7 -50 -28 -112z m1624 58 c7 -13 7 -16 -1 -12 -6 4 -18 22 -27 39 -14 30 -14
31 1 12 9 -11 21 -28 27 -39z m-521 18 l76 -7 -50 -83 c-27 -46 -53 -84 -57
-84 -7 0 -110 180 -110 192 0 4 15 2 32 -3 18 -5 67 -12 109 -15z m-1353 -96
c-6 -41 -24 -29 -20 14 4 32 6 38 14 24 5 -9 8 -26 6 -38z m1960 -168 c23 -55
42 -104 42 -108 0 -4 -66 -7 -148 -7 -143 0 -148 -1 -195 -28 -75 -45 -103
-102 -65 -137 22 -20 23 -29 29 -223 4 -111 12 -218 18 -238 26 -84 66 -94
322 -87 110 3 159 1 159 -6 0 -6 -13 -35 -28 -65 -22 -45 -37 -60 -85 -86 -88
-49 -134 -55 -454 -58 l-293 -3 0 146 c0 181 19 614 28 656 6 26 24 43 97 92
50 33 134 99 188 147 l98 86 37 -12 c20 -7 57 -25 82 -40 56 -35 63 -27 58 78
l-3 75 36 -40 c21 -24 53 -83 77 -142z m308 113 c50 -86 104 -163 182 -255
l76 -90 -23 -43 c-28 -54 -87 -119 -100 -111 -5 4 -14 30 -20 59 -23 107 -43
150 -92 198 -46 45 -47 47 -58 135 -20 165 -12 189 35 107z m-271 -272 c20 -4
31 -13 33 -27 3 -20 -1 -20 -130 -20 -102 0 -148 -4 -196 -18 -34 -10 -66 -16
-69 -12 -12 12 53 68 88 76 40 9 231 10 274 1z m-1072 -58 c53 -5 67 -9 63
-20 -4 -11 -1 -13 15 -8 11 4 26 1 34 -5 16 -13 21 -35 6 -26 -15 9 -19 -30
-14 -114 5 -64 3 -80 -8 -80 -8 0 -25 -3 -38 -7 -23 -6 -24 -5 -18 39 3 25 3
63 -1 84 -6 33 -8 27 -12 -45 l-5 -84 -124 -30 c-108 -27 -129 -29 -166 -19
-24 6 -84 17 -135 24 -84 11 -91 13 -86 32 2 12 8 54 12 94 3 39 11 72 15 72
5 0 9 -38 9 -85 l0 -85 28 6 c37 9 40 14 9 14 l-25 0 5 78 c3 42 7 78 8 80 20
25 421 38 463 14 12 -7 22 -9 22 -4 0 24 -130 52 -240 52 -36 0 -105 -7 -155
-15 -112 -18 -127 -18 -92 1 67 36 262 53 430 37z m1100 -12 c13 -5 29 -37 48
-96 16 -50 29 -96 29 -102 0 -8 -15 -14 -37 -14 l-38 -2 40 -6 c32 -5 36 -8
21 -14 -54 -22 -197 -18 -377 9 l-37 5 -6 72 c-4 40 -9 81 -12 92 -4 15 -3 17
4 5 5 -8 13 -45 17 -82 6 -66 7 -67 38 -72 18 -3 79 -7 137 -8 103 -3 105 -3
108 20 2 13 -2 30 -8 38 -26 31 -90 5 -76 -31 6 -17 -10 -18 -116 -8 l-68 6 0
46 c-1 25 -7 63 -14 84 -16 43 -17 42 54 56 55 11 268 12 293 2z m273 -37 c8
-20 20 -61 26 -91 10 -50 9 -57 -7 -69 -10 -7 -21 -11 -25 -9 -4 3 -20 43 -34
90 -15 47 -29 92 -32 100 -5 11 2 15 25 15 27 0 34 -5 47 -36z m-64 -74 c18
-61 24 -98 17 -105 -12 -12 -36 22 -76 113 -36 79 -37 82 -25 82 4 0 18 -27
31 -60 30 -76 38 -72 11 5 -24 70 -24 67 -3 63 13 -2 25 -29 45 -98z m-2415
-50 c36 -25 68 -51 70 -57 5 -14 -38 -9 -128 13 -89 22 -96 17 -35 -23 31 -21
56 -40 56 -43 0 -3 -17 -14 -39 -23 -21 -10 -85 -48 -142 -86 -57 -38 -108
-66 -112 -61 -5 4 -11 31 -14 61 -7 75 9 109 106 211 l82 87 45 -17 c24 -9 74
-37 111 -62z m2393 -57 c-1 -10 -39 39 -40 51 0 5 9 -3 20 -17 11 -14 20 -29
20 -34z m160 47 c0 -5 -5 -10 -11 -10 -5 0 -7 5 -4 10 3 6 8 10 11 10 2 0 4
-4 4 -10z m150 -14 c0 -12 -66 -47 -88 -46 -12 1 62 59 76 60 6 0 12 -6 12
-14z m-2343 -58 c-3 -7 -5 -2 -5 12 0 14 2 19 5 13 2 -7 2 -19 0 -25z m2136
-13 c1 -6 -13 -11 -30 -13 -37 -4 -45 14 -10 21 29 5 38 4 40 -8z m-2375 -28
c-9 -7 -66 -42 -128 -77 -61 -36 -159 -94 -218 -129 -186 -110 -184 -109 -133
-65 80 70 192 151 270 195 94 55 260 114 209 76z m238 -27 c51 -17 59 -18 85
-5 44 23 96 19 124 -10 34 -33 31 -53 -10 -71 l-35 -14 20 -33 c27 -43 27
-111 0 -134 -14 -12 -20 -30 -20 -59 0 -35 -5 -47 -31 -68 -17 -14 -36 -26
-42 -26 -8 0 -7 -4 1 -12 21 -21 14 -66 -13 -84 -37 -24 -85 -12 -145 35 -44
35 -59 41 -98 41 -98 0 -253 36 -291 67 -20 17 -20 21 -7 68 31 117 72 173
170 237 67 43 76 45 76 21 0 -12 6 -8 19 14 11 17 28 36 38 42 28 16 98 13
159 -9z m864 -83 c0 -124 -16 -214 -39 -222 -69 -21 -263 -31 -368 -19 l-53 7
0 93 c0 59 -4 95 -11 100 -9 5 -11 -20 -7 -95 l5 -103 -30 6 c-16 3 -35 6 -42
6 -13 0 -44 225 -32 236 3 4 23 2 44 -4 21 -6 65 -18 98 -27 79 -22 155 -16
268 23 l89 31 -4 -124 c-2 -82 0 -121 7 -114 5 5 11 64 11 130 2 104 4 122 20
134 14 11 15 14 5 15 -11 0 -9 4 5 15 10 8 22 15 27 15 4 0 7 -46 7 -103z
m1287 57 c-2 -3 -11 -2 -20 2 -14 5 -14 7 1 22 16 16 17 16 20 -1 2 -10 2 -21
-1 -23z m-584 10 c26 -6 27 -9 27 -73 0 -36 3 -83 6 -103 l7 -38 -41 0 c-54 0
-64 19 -70 139 l-5 94 24 -7 c13 -3 36 -9 52 -12z m374 -113 l6 -88 -33 -6
c-18 -4 -92 -7 -165 -7 l-133 0 -4 98 c-2 53 -3 98 -3 99 1 1 25 0 53 -4 51
-6 52 -7 52 -38 0 -18 7 -38 15 -45 22 -19 45 5 45 46 0 29 4 34 23 34 12 0
45 6 72 14 63 16 65 14 72 -103z m362 107 c11 -10 14 -10 18 0 7 18 38 15 82
-8 83 -42 115 -117 109 -252 -5 -103 -32 -177 -74 -205 -29 -19 -62 -9 -76 23
-8 16 -19 24 -36 24 -32 0 -62 26 -62 54 0 13 -12 28 -29 37 -23 14 -28 22
-23 44 3 20 -2 33 -22 51 -31 29 -31 32 -10 62 15 22 15 25 -5 46 l-21 22 26
41 c41 62 94 88 123 61z m265 -63 c13 -13 16 -38 15 -123 -1 -91 -3 -99 -9
-52 -13 101 -20 126 -50 173 l-30 47 29 -15 c16 -8 36 -22 45 -30z m-3024 -43
c-14 -9 -68 -50 -122 -89 -105 -80 -139 -97 -62 -32 50 41 194 139 204 138 3
0 -6 -8 -20 -17z m2507 -302 c40 -50 40 -60 -1 -60 l-36 0 0 45 c0 25 3 45 8
44 4 0 17 -13 29 -29z m-2291 -155 c14 -27 12 -26 -20 10 -20 22 -36 44 -36
49 0 16 41 -28 56 -59z m2268 -12 c4 -32 9 -75 12 -95 5 -36 5 -37 -36 -48
-23 -6 -43 -10 -45 -8 -1 2 -5 47 -8 100 -5 93 -5 97 16 101 53 10 54 10 61
-50z m-1434 38 c0 -5 -7 -11 -15 -15 -15 -5 -20 5 -8 17 9 10 23 9 23 -2z
m774 -68 c3 -42 6 -102 6 -135 l0 -58 -124 0 c-141 0 -183 10 -192 47 -8 29 2
192 11 202 7 7 124 17 226 19 l66 2 7 -77z m515 67 c-9 -5 -55 -16 -103 -23
-48 -8 -90 -18 -94 -22 -4 -4 42 -5 101 -3 l108 3 -3 -75 -3 -74 -60 -12 c-33
-7 -93 -16 -132 -19 l-73 -7 0 105 c0 58 -2 112 -6 120 -4 12 18 14 138 16 97
1 138 -2 127 -9z m515 -6 c20 -19 21 -54 2 -54 -15 0 -39 54 -29 64 9 8 10 8
27 -10z m-1541 -11 c121 -5 147 -9 147 -21 0 -13 -19 -14 -137 -7 -194 10
-246 18 -251 34 -4 11 5 13 44 7 27 -3 115 -9 197 -13z m574 -155 c-2 -35 -3
-9 -3 57 0 66 1 94 3 63 2 -32 2 -86 0 -120z m133 68 c0 -121 -4 -136 -35
-136 -22 0 -24 5 -29 88 -4 48 -8 102 -11 120 -4 31 -3 32 36 32 l39 0 0 -104z
m780 94 c0 -5 -4 -10 -10 -10 -6 0 -11 -44 -12 -107 l-2 -108 -6 110 c-3 61
-4 113 -2 118 5 11 32 9 32 -3z m-2490 -60 l-8 -35 -1 45 c-1 27 3 40 8 35 6
-6 6 -25 1 -45z m1016 10 l134 0 0 -96 0 -97 -102 7 c-186 12 -256 18 -266 25
-5 3 -12 44 -14 90 l-3 83 59 -6 c32 -3 119 -6 192 -6z m1624 -152 c53 -124
76 -224 87 -375 5 -77 4 -93 -8 -93 -26 0 -57 29 -103 99 -55 83 -81 172 -91
319 l-8 102 50 0 51 0 22 -52z m-1938 18 c15 -22 7 -23 -58 -6 -87 24 -91 31
-13 23 35 -3 67 -11 71 -17z m-267 -41 c-7 -28 -14 -41 -14 -29 -1 22 19 87
25 82 2 -2 -3 -26 -11 -53z m76 38 c1 -5 3 -41 4 -81 3 -83 11 -102 20 -46 3
22 11 48 16 59 l9 20 -4 -20 c-3 -11 -8 -39 -11 -62 -8 -51 -10 -53 -51 -42
-26 7 -33 16 -38 44 -5 22 -2 47 7 68 8 17 17 40 21 50 5 17 25 24 27 10z
m1779 -137 c16 -67 13 -108 -7 -104 -12 2 -20 21 -29 69 -11 59 -37 129 -48
129 -3 0 4 -25 15 -55 10 -30 19 -75 19 -100 l0 -45 -57 6 c-97 9 -97 9 -126
75 -28 63 -28 79 1 79 9 0 53 15 97 33 l80 33 23 -39 c12 -22 27 -59 32 -81z
m-1640 80 c0 -2 -16 -37 -36 -77 l-35 -74 6 53 c8 74 21 102 45 102 11 0 20
-2 20 -4z m170 -33 c13 -12 -41 -82 -90 -115 -66 -45 -75 -47 -56 -10 8 15 21
53 30 83 l17 56 47 -5 c26 -2 49 -7 52 -9z m1217 -60 c12 -32 20 -59 19 -61
-2 -2 -23 6 -46 18 -46 23 -96 68 -87 77 6 5 61 20 82 22 6 0 20 -25 32 -56z
m-868 13 l206 -21 0 -83 c0 -45 -2 -159 -3 -253 l-2 -172 -170 7 c-182 8 -210
0 -114 -30 65 -20 66 -18 -55 -93 -46 -29 -113 -76 -150 -106 -70 -56 -174
-161 -131 -132 71 48 375 185 386 174 16 -16 -37 -71 -153 -158 -73 -55 -135
-104 -138 -109 -7 -11 87 31 183 83 39 21 72 36 72 33 0 -9 -120 -201 -145
-232 -13 -17 -36 -29 -65 -35 -64 -12 -249 -11 -355 2 -87 11 -252 52 -268 68
-4 4 -2 23 5 42 6 19 28 95 48 169 l35 135 40 5 c108 15 139 88 180 413 6 45
24 66 26 30 0 -15 2 -15 8 2 10 23 4 38 -10 30 -5 -4 -9 9 -9 28 0 33 2 35 43
41 93 14 208 95 237 167 12 29 15 30 53 23 22 -3 133 -16 246 -28z m-1143 4
l34 0 0 -65 c0 -61 -1 -65 -26 -71 -14 -4 -47 -4 -75 -2 l-49 5 0 -32 0 -32
65 -6 c36 -4 70 -9 76 -12 6 -4 7 -32 3 -71 -5 -45 -3 -64 5 -64 7 0 11 22 12
58 0 31 5 66 10 77 6 13 6 -62 2 -200 -4 -121 -7 -235 -8 -252 0 -18 -4 -32
-9 -30 -15 5 -61 139 -96 279 -18 70 -39 135 -47 145 -13 16 -14 -4 -8 -170 4
-112 3 -187 -3 -183 -15 9 -22 206 -15 428 l6 210 45 -6 c25 -3 60 -6 78 -6z
m73 -27 c0 -21 -4 -56 -8 -78 -8 -35 -9 -31 -10 38 -1 45 3 77 9 77 6 0 10
-17 9 -37z m1745 -7 c47 -80 105 -125 208 -162 59 -21 45 -7 -28 26 -77 35
-119 67 -156 122 -43 63 -24 62 40 -2 43 -43 73 -63 120 -80 54 -20 64 -27 69
-51 3 -16 12 -34 21 -41 14 -11 15 -10 8 7 -25 60 -24 60 61 55 76 -5 78 -6
81 -32 3 -24 6 -26 33 -18 38 11 56 5 62 -23 8 -38 132 -375 200 -547 77 -194
80 -181 -58 -230 -127 -44 -385 -100 -463 -100 -10 0 -42 29 -73 66 -59 72
-261 365 -255 371 7 7 169 -93 246 -151 l75 -57 -85 82 c-47 44 -137 116 -200
159 -63 42 -114 82 -113 88 2 6 -29 13 -73 17 l-76 8 6 66 c3 36 9 148 12 248
l7 182 56 6 c54 5 244 31 248 34 0 0 13 -19 27 -43z m-365 4 c14 0 15 -20 10
-202 -4 -112 -7 -224 -8 -250 l-1 -48 -45 0 -45 0 0 248 c0 137 3 252 7 256 5
4 21 5 37 2 16 -3 36 -6 45 -6z m-959 -75 c0 -39 -13 -73 -26 -68 -11 4 -12 9
-3 19 8 10 8 14 0 14 -6 0 -11 13 -11 29 0 24 3 28 20 24 11 -3 20 -11 20 -18z
m-83 -30 c-2 -24 1 -49 7 -55 7 -7 3 -10 -12 -10 -18 0 -22 6 -22 33 0 42 10
77 22 77 5 0 8 -20 5 -45z m-201 25 c20 -8 24 -14 16 -22 -14 -14 -73 1 -80
20 -5 15 27 16 64 2z m2 -55 c4 -4 -67 -198 -75 -205 -3 -3 -3 11 0 30 4 19 7
70 8 113 l2 78 31 -7 c17 -3 33 -8 34 -9z m-178 -10 c0 -8 -4 -15 -10 -15 -5
0 -7 7 -4 15 4 8 8 15 10 15 2 0 4 -7 4 -15z m26 -12 c-10 -10 -19 5 -10 18 6
11 8 11 12 0 2 -7 1 -15 -2 -18z m2252 10 c2 -9 -7 -13 -27 -13 -21 0 -31 5
-31 16 0 19 51 16 58 -3z m-2360 0 c-10 -2 -28 -2 -40 0 -13 2 -5 4 17 4 22 1
32 -1 23 -4z m488 -201 c-19 -83 -44 -168 -56 -189 l-20 -38 5 55 c3 30 7 117
8 192 l2 137 45 3 c25 2 46 0 48 -3 1 -3 -13 -74 -32 -157z m2215 1 c13 -16
12 -17 -3 -4 -10 7 -18 15 -18 17 0 8 8 3 21 -13z m44 -23 c3 -6 -1 -7 -9 -4
-18 7 -21 14 -7 14 6 0 13 -4 16 -10z m-1207 -372 c162 -304 206 -395 207
-428 2 -39 80 -218 127 -293 32 -50 54 -67 86 -67 16 0 22 -17 41 -127 12 -71
31 -173 41 -228 11 -54 17 -102 14 -105 -5 -4 -1138 -22 -1139 -17 0 1 1 100
3 219 l3 217 35 11 c19 6 41 21 49 33 29 41 98 279 114 388 4 28 47 130 111
262 l105 216 45 3 c25 2 59 4 77 6 30 2 33 -1 81 -90z m1192 -309 c12 -45 24
-109 26 -142 6 -72 -3 -85 -98 -133 -145 -73 -308 -113 -463 -114 l-91 0 -56
143 -55 142 46 8 c295 54 480 103 606 161 28 13 53 22 56 20 4 -2 17 -41 29
-85z m-2397 -54 c54 -19 139 -42 190 -50 98 -16 387 -20 469 -6 27 4 50 6 52
4 2 -2 -17 -65 -42 -140 -29 -90 -52 -144 -68 -158 -29 -26 -64 -34 -204 -42
-166 -9 -412 38 -509 97 l-34 21 6 102 c5 97 24 207 36 207 3 0 50 -16 104
-35z m2392 -415 c-28 -12 -37 -12 -30 0 3 6 16 10 28 9 21 0 21 -1 2 -9z
m-132 -7 c-7 -2 -19 -2 -25 0 -7 3 -2 5 12 5 14 0 19 -2 13 -5z m74 1 c-3 -3
-12 -4 -19 -1 -8 3 -5 6 6 6 11 1 17 -2 13 -5z m-152 -58 c14 -30 25 -62 25
-71 0 -24 27 -72 44 -78 8 -3 20 -24 26 -45 14 -54 46 -92 76 -92 33 0 41 -26
20 -63 -21 -37 -15 -43 21 -24 15 8 51 27 78 42 44 23 58 26 115 22 36 -3 76
-10 90 -16 19 -7 5 -8 -51 -4 -76 6 -149 -2 -149 -15 0 -4 51 -17 113 -28 140
-27 212 -54 265 -100 62 -52 58 -78 -15 -112 -95 -43 -212 -41 -343 6 -61 21
-202 112 -197 126 2 6 10 42 18 80 13 67 13 69 -9 86 -12 10 -35 43 -52 74
-16 31 -40 70 -53 88 -29 39 -54 86 -72 139 -13 37 -13 39 6 39 14 0 26 -15
44 -54z m255 -6 c0 -5 -10 -10 -22 -10 -19 0 -20 2 -8 10 19 13 30 13 30 0z
m-85 -10 c-3 -5 -11 -10 -16 -10 -6 0 -7 5 -4 10 3 6 11 10 16 10 6 0 7 -4 4
-10z m-2150 -50 c27 -7 27 -8 5 -8 -14 0 -38 4 -55 8 -27 7 -27 8 -5 8 14 0
39 -4 55 -8z m2265 -20 c0 -3 -15 -7 -32 -8 -18 -1 -50 -5 -70 -8 -46 -7 -50
2 -7 13 36 9 109 11 109 3z m-210 -10 c0 -5 -2 -10 -4 -10 -3 0 -8 5 -11 10
-3 6 -1 10 4 10 6 0 11 -4 11 -10z m143 -56 c-45 -19 -51 -20 -54 -9 -2 5 10
13 26 16 50 11 62 8 28 -7z m97 6 c0 -5 -5 -10 -11 -10 -5 0 -7 5 -4 10 3 6 8
10 11 10 2 0 4 -4 4 -10z m-190 -16 c0 -8 -5 -12 -10 -9 -6 4 -8 11 -5 16 9
14 15 11 15 -7z m-2247 -1 c-7 -2 -21 -2 -30 0 -10 3 -4 5 12 5 17 0 24 -2 18
-5z m2387 -63 c0 -5 -4 -10 -9 -10 -6 0 -13 5 -16 10 -3 6 1 10 9 10 9 0 16
-4 16 -10z m-110 -15 c7 -9 8 -15 2 -15 -5 0 -12 7 -16 15 -3 8 -4 15 -2 15 2
0 9 -7 16 -15z m220 11 c0 -2 -9 -6 -20 -9 -11 -3 -18 -1 -14 4 5 9 34 13 34
5z m-157 -13 c-7 -2 -19 -2 -25 0 -7 3 -2 5 12 5 14 0 19 -2 13 -5z m-2373
-55 c0 -4 -4 -8 -8 -8 -5 0 -17 -17 -28 -37 -10 -21 -25 -45 -32 -54 -12 -15
0 -17 125 -22 76 -2 163 -11 193 -18 l55 -14 -47 -3 c-57 -4 -61 -16 -14 -36
47 -20 59 -44 39 -84 -51 -105 -187 -140 -322 -82 -81 35 -109 91 -76 150 33
58 8 68 -30 13 -14 -21 -25 -34 -25 -30 0 15 33 72 76 134 29 40 44 72 44 92
0 29 1 30 25 19 14 -6 25 -15 25 -20z m2410 23 c0 -5 -7 -12 -16 -15 -14 -5
-15 -4 -4 9 14 17 20 19 20 6z m-2102 -65 c-9 -28 -9 -45 -1 -67 l11 -29 -31
22 c-18 12 -34 23 -37 25 -2 2 8 15 22 28 15 13 29 34 33 45 4 12 9 20 11 18
2 -2 -2 -21 -8 -42z m22 -116 c0 -5 -5 -10 -11 -10 -5 0 -7 5 -4 10 3 6 8 10
11 10 2 0 4 -4 4 -10z"/>
<path d="M5055 9414 c-11 -2 -45 -9 -75 -15 -95 -18 -180 -49 -191 -71 -7 -12
-8 -50 -4 -101 5 -65 2 -99 -14 -167 -34 -138 -27 -211 31 -308 53 -91 130
-160 245 -222 56 -30 103 -59 103 -63 0 -8 -62 -3 -120 9 -42 9 -9 -12 49 -31
56 -18 215 -23 275 -8 26 6 15 9 -59 18 l-90 10 50 18 c189 70 259 117 318
218 56 96 71 155 62 258 -11 139 -10 183 7 241 13 45 14 59 4 75 -16 25 -119
67 -269 111 -100 28 -133 34 -210 33 -51 -1 -101 -3 -112 -5z m340 -48 c142
-44 196 -65 217 -85 17 -15 16 -20 -3 -81 -18 -55 -20 -78 -13 -150 10 -109 7
-185 -7 -229 -19 -58 -96 -166 -139 -195 -40 -26 -233 -106 -258 -106 -21 0
-200 101 -241 136 -21 18 -60 66 -88 108 -65 96 -73 148 -44 286 14 64 18 114
15 155 -4 44 -3 56 5 45 9 -13 11 -12 11 5 0 24 23 40 81 55 67 19 219 40 269
38 l45 -1 -55 -7 -55 -7 51 -1 c28 -1 69 -8 90 -15 61 -22 102 -30 84 -17 -20
14 34 2 75 -17 17 -7 22 -11 12 -8 -64 18 -61 11 8 -14 84 -32 110 -38 85 -20
-13 9 -13 10 0 6 15 -4 17 -20 12 -154 l-2 -63 -59 58 c-111 110 -230 151
-352 122 -66 -15 -191 -71 -235 -105 -18 -14 -35 -25 -38 -25 -3 0 -3 42 1 93
3 50 3 89 -1 86 -4 -4 -9 -42 -12 -85 -3 -44 -9 -103 -15 -133 -5 -30 -9 -82
-9 -115 0 -58 3 -66 57 -146 31 -47 64 -90 72 -97 29 -22 228 -123 242 -123
26 0 230 89 264 114 18 14 48 52 67 83 l33 58 5 196 c4 145 9 200 19 212 11
14 11 20 0 33 -20 25 -96 59 -209 95 -94 30 -117 34 -215 34 -122 -1 -260 -25
-312 -56 -18 -10 -33 -15 -33 -10 0 16 24 29 84 46 185 54 322 54 491 1z m-85
-41 c19 -7 28 -13 20 -13 -8 0 -31 6 -50 13 -19 7 -28 13 -20 13 8 0 31 -6 50
-13z m45 -151 c33 -16 89 -57 127 -92 l68 -64 0 -100 c0 -93 -2 -104 -30 -152
-16 -29 -38 -60 -48 -69 -22 -20 -110 -63 -205 -101 l-67 -27 -122 63 c-117
61 -122 65 -163 129 -75 116 -77 122 -69 209 3 43 9 82 13 87 12 18 102 75
158 99 139 62 235 67 338 18z"/>
<path d="M5083 9323 c9 -2 23 -2 30 0 6 3 -1 5 -18 5 -16 0 -22 -2 -12 -5z"/>
<path d="M4985 9310 c-27 -7 -27 -8 -5 -8 14 0 39 4 55 8 27 7 27 8 5 8 -14 0
-38 -4 -55 -8z"/>
<path d="M4928 9293 c7 -3 16 -2 19 1 4 3 -2 6 -13 5 -11 0 -14 -3 -6 -6z"/>
<path d="M6920 8590 c6 -11 13 -20 16 -20 2 0 0 9 -6 20 -6 11 -13 20 -16 20
-2 0 0 -9 6 -20z"/>
<path d="M5088 8323 c12 -2 32 -2 45 0 12 2 2 4 -23 4 -25 0 -35 -2 -22 -4z"/>
<path d="M5315 8294 c277 -40 716 -145 963 -229 218 -74 200 -69 179 -55 -9 6
-99 42 -200 80 -283 107 -585 177 -927 215 -194 21 -201 17 -15 -11z"/>
<path d="M5108 8153 c7 -3 16 -2 19 1 4 3 -2 6 -13 5 -11 0 -14 -3 -6 -6z"/>
<path d="M5315 8120 c606 -107 1050 -237 1456 -427 240 -113 449 -259 663
-463 l90 -85 -65 84 c-242 317 -732 583 -1359 741 -229 57 -577 129 -777 160
-190 29 -195 23 -8 -10z"/>
<path d="M4285 7873 c761 -26 1014 -55 1615 -183 329 -70 697 -181 909 -274
57 -26 106 -44 108 -42 4 4 -191 93 -297 134 -592 233 -1485 379 -2260 370
-85 -1 -119 -3 -75 -5z"/>
<path d="M4025 7047 c-147 -38 -255 -151 -311 -323 -23 -74 -28 -106 -28 -189
0 -55 5 -111 11 -125 8 -20 10 -8 11 60 1 130 50 261 123 326 l22 19 -17 -32
c-18 -35 -22 -70 -4 -38 6 11 22 32 36 48 22 23 34 27 80 27 48 0 58 -4 87
-33 44 -44 55 -99 28 -135 -51 -68 -127 -89 -188 -53 -20 12 -41 19 -46 16
-16 -10 -11 -206 7 -266 52 -174 149 -262 289 -263 57 0 81 5 128 27 130 64
216 236 217 432 0 136 -36 239 -113 322 -50 54 -99 80 -186 99 l-66 14 66 -4
c120 -6 235 -89 309 -220 18 -31 34 -55 37 -52 9 9 -57 149 -94 197 -92 121
-258 182 -398 146z m125 -397 c15 -28 -22 -65 -50 -50 -22 12 -26 40 -8 58 18
18 46 14 58 -8z"/>
<path d="M5950 6901 c-197 -42 -351 -264 -367 -526 -17 -303 161 -512 376
-440 108 36 211 170 247 321 21 89 15 259 -11 324 -41 101 -118 179 -199 201
-41 11 -147 8 -181 -5 -16 -6 -14 -3 5 13 55 44 178 53 284 21 159 -49 255
-225 243 -445 -2 -49 -12 -110 -20 -135 -23 -64 -12 -62 19 4 85 186 57 444
-62 561 -80 78 -235 128 -334 106z m-199 -241 c50 -27 64 -124 26 -181 -29
-43 -89 -66 -131 -50 -26 11 -28 15 -23 52 7 57 72 189 92 189 9 0 25 -5 36
-10z m118 -144 c18 -22 -4 -58 -32 -54 -25 3 -34 32 -17 53 16 19 34 19 49 1z"/>
<path d="M2938 6420 c-38 -21 -80 -66 -112 -122 -17 -28 -12 -26 30 17 52 54
106 85 147 85 13 0 44 -14 67 -31 l44 -32 -44 -16 c-28 -10 -53 -29 -67 -50
-34 -50 -30 -68 8 -37 66 55 147 23 196 -79 l25 -50 -7 40 c-14 89 -89 229
-142 269 -37 28 -100 30 -145 6z"/>
<path d="M3057 6212 c-36 -37 -35 -50 2 -20 15 12 37 28 47 35 18 11 18 12 -2
12 -11 1 -32 -12 -47 -27z"/>
<path d="M3720 6083 c-58 -23 -102 -44 -98 -48 3 -3 34 8 69 24 55 25 74 41
29 24z"/>
<path d="M3832 6006 c-70 -26 -94 -42 -47 -30 35 8 135 52 120 53 -5 0 -38
-11 -73 -23z"/>
<path d="M5070 5988 c0 -31 3 -39 10 -28 13 20 13 57 0 65 -6 4 -10 -11 -10
-37z"/>
<path d="M6270 5871 c-25 -10 -58 -24 -74 -30 -16 -6 -26 -14 -23 -17 5 -6
127 43 142 57 12 12 7 11 -45 -10z"/>
<path d="M6390 5793 c-30 -15 -49 -28 -43 -30 11 -4 113 43 113 52 0 9 -15 4
-70 -22z"/>
<path d="M4486 5714 c-18 -47 5 -151 54 -242 39 -73 126 -160 198 -196 130
-66 307 -74 422 -19 79 37 148 97 199 172 89 131 113 213 69 230 -13 4 -140
11 -283 14 -279 7 -434 19 -559 42 -96 18 -93 18 -100 -1z m362 -54 c85 -11
222 -25 305 -31 84 -7 154 -13 156 -15 20 -18 -117 -63 -195 -65 -27 -1 -62
-5 -79 -9 -24 -6 -16 -8 35 -9 135 -4 203 -32 208 -87 4 -41 -27 -85 -90 -126
-131 -87 -274 -101 -397 -39 -129 66 -232 206 -235 319 -1 46 3 57 24 74 20
16 33 19 70 14 25 -4 114 -15 198 -26z"/>
<path d="M4460 4816 c-27 -65 -24 -71 6 -13 14 27 23 51 20 54 -3 3 -15 -15
-26 -41z"/>
<path d="M3378 4259 c29 -5 72 -18 95 -29 30 -15 37 -16 22 -4 -34 28 -82 44
-127 43 l-43 -1 53 -9z"/>
<path d="M4918 4229 c-27 -15 -25 -95 2 -109 52 -28 107 62 64 104 -18 18 -41
20 -66 5z m56 -18 c3 -5 -8 -11 -24 -13 -29 -4 -37 1 -23 15 9 10 41 9 47 -2z"/>
<path d="M4976 3578 c-21 -30 -20 -51 4 -73 18 -16 23 -17 45 -5 25 13 30 26
26 65 -3 39 -51 47 -75 13z"/>
<path d="M6083 4288 c-15 -20 -63 -106 -63 -113 0 -18 24 13 50 66 29 56 34
74 13 47z"/>
<path d="M4278 4063 c-28 -33 -29 -52 -3 -69 21 -14 26 -14 54 1 17 8 75 27
129 40 60 15 79 23 49 19 -26 -3 -70 -11 -98 -18 l-50 -13 -15 28 c-16 33 -44
37 -66 12z m37 -33 c3 -5 -1 -10 -9 -10 -9 0 -16 5 -16 10 0 6 4 10 9 10 6 0
13 -4 16 -10z"/>
<path d="M4158 4023 c7 -3 16 -2 19 1 4 3 -2 6 -13 5 -11 0 -14 -3 -6 -6z"/>
<path d="M4208 4013 c6 -2 18 -2 25 0 6 3 1 5 -13 5 -14 0 -19 -2 -12 -5z"/>
<path d="M4540 3038 c-35 -56 -137 -147 -201 -180 -30 -15 -47 -28 -38 -28 23
0 129 66 172 108 45 43 100 119 95 131 -2 5 -14 -9 -28 -31z"/>
<path d="M4051 2304 c-20 -81 -51 -237 -48 -241 5 -5 33 99 52 195 18 90 15
123 -4 46z"/>
<path d="M5800 2737 c0 -18 252 -569 257 -563 4 4 -78 191 -182 416 -65 140
-75 160 -75 147z"/>
<path d="M6196 1994 c-112 -50 -295 -110 -406 -133 -53 -11 -81 -20 -62 -20
49 -1 198 34 305 73 104 38 247 102 247 110 0 8 4 10 -84 -30z"/>
<path d="M5668 1833 c7 -3 16 -2 19 1 4 3 -2 6 -13 5 -11 0 -14 -3 -6 -6z"/>
<path d="M6330 1803 c-84 -60 -320 -144 -469 -168 -52 -8 -71 -13 -49 -14 115
-3 453 108 538 177 37 30 21 34 -20 5z"/>
<path d="M3890 1896 c24 -24 115 -55 207 -71 55 -10 141 -14 242 -13 l156 1
-175 8 c-191 8 -305 27 -390 65 -32 15 -49 19 -40 10z"/>
<path d="M4513 1823 c9 -2 25 -2 35 0 9 3 1 5 -18 5 -19 0 -27 -2 -17 -5z"/>
<path d="M3830 1687 c0 -10 157 -57 240 -71 47 -8 133 -17 190 -20 115 -5 107
-3 -85 20 -114 14 -275 48 -327 69 -10 4 -18 5 -18 2z"/>
<path d="M4418 1583 c23 -2 59 -2 80 0 20 2 1 4 -43 4 -44 0 -61 -2 -37 -4z"/>
<path d="M8210 749 c-41 -4 -201 -17 -354 -28 -229 -18 -670 -70 -711 -86 -5
-2 49 -4 121 -4 196 -1 536 36 984 108 117 19 95 25 -40 10z"/>
<path d="M2143 613 c9 -2 25 -2 35 0 9 3 1 5 -18 5 -19 0 -27 -2 -17 -5z"/>
<path d="M4855 380 c-591 -7 -364 -18 530 -26 527 -5 740 -3 999 10 180 8 331
17 334 20 6 7 -1216 4 -1863 -4z"/>
</g>
</svg>
