<?xml version="1.0" standalone="no"?>
<!DOCTYPE svg PUBLIC "-//W3C//DTD SVG 20010904//EN"
 "http://www.w3.org/TR/2001/REC-SVG-20010904/DTD/svg10.dtd">
<svg version="1.0" xmlns="http://www.w3.org/2000/svg"
 width="1024.000000pt" height="1024.000000pt" viewBox="0 0 1024.000000 1024.000000"
 preserveAspectRatio="xMidYMid meet">
<metadata>
Created by potrace 1.16, written by Peter Selinger 2001-2019
</metadata>
<g transform="translate(0.000000,1024.000000) scale(0.100000,-0.100000)"
fill="#000000" stroke="none">
<path d="M4690 9984 c-409 -48 -658 -123 -1007 -304 -165 -85 -402 -240 -553
-361 -126 -100 -362 -345 -478 -494 -187 -241 -352 -533 -417 -738 -20 -62
-47 -173 -61 -247 -26 -137 -31 -226 -46 -945 -4 -174 31 -370 77 -431 8 -10
15 -22 15 -25 0 -4 -33 -9 -72 -11 -202 -13 -318 -172 -320 -438 -1 -161 46
-323 149 -508 178 -322 370 -467 619 -467 83 0 96 3 162 36 l71 35 36 -52
c168 -244 539 -453 999 -564 275 -66 608 -110 843 -110 l122 0 -59 -56 c-57
-54 -62 -57 -182 -88 -68 -18 -136 -38 -151 -44 -16 -7 -36 -12 -45 -12 -28 0
-113 -54 -194 -124 -87 -74 -195 -194 -307 -340 -42 -55 -124 -158 -183 -229
-60 -71 -108 -138 -108 -148 0 -11 20 -34 50 -55 28 -20 50 -40 50 -45 0 -5
-29 -66 -64 -136 -112 -221 -181 -418 -216 -618 -12 -71 -29 -123 -54 -173
-75 -148 -99 -222 -99 -297 0 -114 70 -260 143 -297 18 -9 49 -32 69 -51 48
-46 78 -60 112 -53 16 3 29 1 29 -4 0 -17 63 -50 96 -50 40 0 79 36 93 86 6
22 16 82 22 134 6 52 13 98 15 102 3 5 14 4 24 -2 63 -34 106 90 82 242 -6 37
-23 106 -38 154 l-27 88 22 75 c23 80 243 538 278 581 21 25 21 25 58 7 42
-20 42 -8 -1 -155 -27 -93 -27 -93 -74 -117 -66 -33 -86 -63 -100 -147 -21
-123 2 -475 35 -539 13 -25 21 -29 55 -29 21 0 50 4 64 10 l26 10 -6 -58 c-27
-259 -91 -614 -146 -810 -52 -188 -55 -202 -35 -217 22 -16 22 -14 -5 -112
l-23 -83 -60 0 c-79 -1 -127 -24 -191 -92 -78 -82 -134 -211 -134 -305 0 -19
-6 -35 -12 -38 -7 -2 -164 -9 -348 -15 -344 -11 -400 -16 -400 -31 0 -19 59
-32 200 -45 218 -19 231 -28 50 -34 -132 -4 -155 -7 -158 -21 -2 -10 10 -22
33 -33 56 -27 413 -66 785 -86 257 -14 762 -10 767 6 2 6 -3 14 -12 18 -32 12
-193 26 -414 36 -123 5 -226 12 -229 15 -3 3 92 5 210 5 171 0 240 4 336 20
112 19 153 21 584 17 394 -3 473 -6 533 -21 217 -53 447 -66 1113 -65 499 1
544 2 512 16 -43 19 -258 66 -400 88 -166 26 -150 16 -150 88 -1 239 -153 432
-347 441 l-57 3 -14 53 c-9 37 -10 56 -3 63 18 18 13 68 -29 279 -63 321 -77
427 -116 836 -32 339 -34 385 -21 400 23 27 28 98 16 227 -7 66 -13 145 -13
175 -1 31 -14 90 -30 137 -43 122 -27 140 31 33 119 -223 193 -389 193 -433 0
-13 -27 -60 -61 -106 -72 -98 -89 -135 -89 -194 0 -87 73 -131 146 -88 19 12
39 19 44 16 5 -3 18 -30 29 -61 17 -45 21 -76 20 -172 -2 -92 2 -124 15 -149
22 -44 40 -51 122 -49 112 2 148 37 170 163 33 189 27 405 -16 563 -11 41 -36
155 -55 252 -55 285 -88 382 -185 542 -28 48 -50 88 -49 90 2 2 30 22 62 45
32 23 57 49 57 59 0 9 -35 55 -76 102 -42 47 -131 153 -197 235 -148 184 -257
299 -317 333 -25 14 -57 40 -72 57 -30 36 -126 89 -178 100 -23 5 -55 26 -95
65 -33 32 -76 68 -95 79 -19 12 -30 21 -23 21 6 0 76 11 155 24 370 63 738
185 988 329 258 147 478 379 546 575 l19 52 51 0 c138 0 313 97 428 238 151
186 235 425 223 637 -10 171 -62 303 -156 395 -62 60 -128 90 -197 90 -22 0
-43 2 -45 5 -3 2 1 48 8 102 7 54 11 119 8 145 l-5 47 70 -43 c85 -52 143 -70
211 -64 139 14 191 152 114 304 -69 137 -214 296 -358 395 l-65 44 -22 135
c-56 337 -144 611 -288 894 -124 246 -228 375 -470 587 -448 393 -859 592
-1392 674 -100 15 -472 28 -550 19z m368 -74 c156 -12 354 -47 506 -90 430
-121 803 -349 1164 -711 105 -105 129 -135 162 -204 59 -119 80 -238 87 -477
3 -108 3 -203 0 -212 -5 -12 -24 -7 -109 33 -296 140 -742 231 -1208 248 -132
5 -170 9 -156 17 61 36 174 129 188 154 10 16 38 88 62 158 24 71 58 169 76
219 27 74 32 99 27 145 -6 73 -21 100 -100 185 -59 65 -101 128 -169 254 -34
63 -61 77 -202 106 -61 13 -145 31 -187 40 -85 20 -66 25 -197 -47 -27 -15
-92 -36 -145 -46 -114 -23 -144 -40 -165 -96 -33 -86 -91 -186 -155 -269 -76
-96 -107 -156 -107 -207 0 -81 57 -219 131 -316 22 -28 57 -93 79 -145 56
-131 69 -142 230 -196 8 -3 -48 -18 -125 -33 -298 -60 -529 -130 -892 -273
-197 -78 -334 -143 -468 -222 l-79 -47 -23 28 c-13 16 -47 64 -75 107 -28 42
-53 77 -55 77 -8 0 43 -90 84 -148 24 -34 43 -68 41 -74 -7 -20 -106 129 -158
237 -60 123 -86 201 -111 328 -23 119 -24 196 -3 288 9 39 14 72 11 75 -2 2
-25 -38 -51 -91 -25 -52 -49 -95 -52 -95 -11 0 8 104 26 147 48 110 183 286
360 467 252 259 353 337 591 456 204 103 379 162 593 200 204 37 371 45 574
30z m147 -186 c28 -8 86 -19 130 -25 145 -19 166 -35 268 -213 27 -46 78 -117
114 -157 36 -41 74 -93 85 -117 25 -55 16 -102 -46 -245 -24 -56 -54 -136 -66
-177 -16 -55 -31 -82 -55 -105 -49 -44 -387 -225 -422 -225 -15 0 -125 33
-243 73 l-215 73 -50 100 c-28 54 -73 129 -101 165 -58 75 -111 179 -120 237
-8 49 5 74 97 195 38 51 90 135 115 187 25 52 49 102 53 110 8 16 38 26 156
54 39 9 99 31 135 50 75 39 96 42 165 20z m-1893 -460 c-152 -154 -272 -298
-341 -411 -18 -29 -35 -53 -37 -53 -2 0 5 24 17 53 26 68 112 196 184 274 50
56 266 245 272 239 2 -1 -41 -47 -95 -102z m3690 -557 c16 -45 36 -113 44
-152 15 -72 32 -405 21 -405 -4 0 -21 9 -39 20 l-32 19 3 148 c2 151 -15 313
-44 423 -8 30 -15 59 -15 65 0 23 34 -42 62 -118z m-4026 -125 c3 -206 90
-461 225 -660 41 -61 46 -74 33 -79 -32 -12 -127 124 -191 270 -115 266 -143
418 -95 520 13 26 24 47 25 47 1 0 3 -44 3 -98z m4144 -184 c19 -71 35 -309
20 -308 -3 1 -14 8 -25 18 -19 16 -21 29 -21 157 -1 77 -4 163 -8 190 -9 68 7
40 34 -57z m-1105 -7 c415 -51 655 -115 905 -241 l82 -41 -7 -42 c-20 -133
-28 -158 -44 -152 -190 75 -515 163 -771 209 -279 50 -394 58 -800 57 -670 -2
-982 -45 -1438 -197 -425 -142 -798 -310 -1002 -452 -92 -64 -56 -26 62 64
172 132 468 314 650 398 105 49 465 185 638 241 292 94 613 157 825 161 83 2
168 7 190 13 69 17 517 6 710 -18z m-204 -296 c613 -65 1099 -218 1470 -464
251 -166 462 -406 483 -548 3 -24 4 -43 1 -43 -2 0 -13 17 -24 38 -23 46 -142
182 -271 312 -268 270 -598 437 -1035 525 -457 91 -1078 42 -1780 -140 -303
-79 -667 -210 -890 -323 -121 -60 -265 -124 -265 -117 0 13 664 331 790 378
367 138 697 221 1062 267 195 24 238 44 238 109 0 26 28 27 221 6z m1243 -24
c15 -16 15 -27 6 -92 -15 -102 -14 -100 -48 -88 l-28 10 12 57 c7 31 16 74 19
95 7 42 14 45 39 18z m84 -64 c9 -11 5 -27 -19 -75 -17 -36 -37 -62 -46 -62
-9 0 -13 6 -10 14 5 13 9 35 23 124 4 27 8 31 23 23 10 -6 23 -16 29 -24z
m-685 -506 c80 -137 254 -322 434 -463 l103 -82 0 -71 c0 -98 21 -213 71 -380
l41 -140 -12 -250 c-7 -137 -13 -353 -14 -480 -1 -255 -5 -275 -74 -390 -43
-73 -173 -209 -262 -275 -335 -249 -906 -441 -1505 -507 -202 -22 -570 -21
-770 1 -551 63 -989 209 -1327 446 -51 35 -139 111 -196 167 -56 57 -105 103
-107 103 -3 0 -5 -8 -5 -18 0 -13 -17 -24 -62 -40 -136 -47 -256 -36 -391 35
-168 88 -347 333 -433 593 -26 77 -28 98 -28 225 0 157 15 215 75 288 86 105
243 108 399 9 40 -25 56 -48 134 -193 260 -479 347 -584 433 -524 48 34 47
119 -8 546 l-20 155 52 93 c104 188 202 424 260 630 16 57 31 106 33 108 5 6
378 155 513 206 215 81 477 146 773 193 213 33 232 32 283 -11 96 -83 331
-180 507 -211 118 -20 413 -14 530 11 127 27 263 102 385 213 44 40 49 42 108
42 59 0 64 -2 80 -29z m-3293 -325 c-14 -8 -70 -24 -125 -36 -84 -19 -132 -23
-295 -24 -190 -1 -240 6 -240 33 0 5 129 11 288 14 158 3 305 10 327 15 58 14
74 13 45 -2z m4400 -526 c161 -83 234 -357 167 -621 -72 -279 -263 -494 -493
-554 -87 -22 -84 -24 -84 53 0 37 -7 123 -15 192 -16 129 -15 148 12 265 20
87 47 160 128 345 36 80 78 189 96 242 20 63 37 99 47 102 29 8 105 -5 142
-24z m-2260 -2322 c-1 -96 -13 -126 -85 -198 -36 -37 -77 -88 -90 -115 l-23
-48 -17 34 c-10 18 -37 63 -61 99 -40 62 -43 70 -49 162 l-7 96 84 6 c45 3 99
8 118 9 19 2 56 5 83 5 l47 2 0 -52z m204 -91 c47 -69 66 -147 73 -289 5 -97
3 -118 -8 -118 -8 0 -41 27 -74 59 -73 71 -179 152 -223 170 -17 7 -32 17 -32
21 0 4 29 33 64 64 36 31 75 73 87 93 23 37 23 36 -7 108 -14 34 81 -51 120
-108z m-654 40 c0 -6 34 -63 75 -124 41 -62 75 -116 75 -121 0 -4 -44 -39 -97
-77 -54 -39 -127 -94 -162 -124 l-64 -54 6 89 c9 149 46 270 116 381 25 41 51
57 51 30z m884 -168 c57 -50 141 -215 181 -353 30 -105 31 -129 8 -124 -11 2
-31 41 -60 114 -24 61 -76 177 -117 258 -40 80 -70 146 -66 146 4 0 28 -19 54
-41z m-1266 -401 c-30 -154 -31 -156 -59 -162 -35 -7 -44 -35 -43 -127 0 -50
6 -76 23 -104 18 -30 24 -64 32 -159 22 -268 32 -276 306 -257 168 11 214 22
248 61 19 21 20 34 18 268 -3 263 -14 341 -52 362 -14 7 -74 4 -202 -10 -100
-11 -184 -18 -187 -15 -5 5 -1 28 40 205 l23 95 6 -79 c8 -91 24 -115 64 -93
13 7 90 72 173 145 83 74 154 134 158 134 5 0 27 -44 50 -99 24 -54 48 -98 56
-98 10 0 37 55 81 170 5 13 58 -23 190 -129 122 -97 146 -108 185 -79 37 27
51 59 59 139 l8 69 53 -147 c28 -81 52 -148 52 -150 0 -2 -65 -2 -145 0 -184
4 -249 -8 -271 -50 -25 -49 -29 -130 -10 -221 54 -253 88 -393 102 -415 30
-45 75 -55 264 -60 137 -3 184 -1 218 11 23 8 44 12 46 8 2 -3 7 -32 10 -63 9
-73 -7 -105 -76 -151 -162 -107 -365 -151 -703 -150 -208 0 -328 9 -551 44
l-70 11 -33 92 c-207 571 -239 707 -212 895 27 183 95 415 143 491 l23 35 7
-130 c6 -120 4 -143 -24 -287z m-103 346 c-38 -58 -86 -258 -115 -479 -10 -70
-43 -199 -70 -271 l-10 -25 -73 41 c-93 50 -112 52 -31 2 71 -43 96 -63 90
-69 -3 -3 -44 17 -93 44 -48 27 -132 70 -186 96 l-97 46 142 183 c79 100 183
224 232 275 123 129 259 230 211 157z m1617 -136 c41 -51 119 -151 173 -223
54 -71 122 -160 152 -196 29 -36 53 -68 53 -71 0 -3 -26 -22 -57 -43 -32 -22
-91 -68 -131 -104 -58 -51 -76 -61 -83 -50 -15 24 -10 33 44 72 74 53 124 96
112 97 -5 0 -43 -25 -83 -55 -62 -47 -74 -52 -79 -37 -3 9 -14 36 -24 60 -17
40 -17 48 -4 113 16 76 9 110 -28 126 -16 7 -24 31 -42 119 -12 60 -38 149
-57 197 -19 48 -32 87 -27 87 4 0 41 -42 81 -92z m-141 -166 c22 -57 38 -106
35 -109 -6 -6 -9 1 -56 127 -44 117 -44 117 -31 100 6 -8 29 -62 52 -118z
m-1364 -164 c-3 -8 -6 -5 -6 6 -1 11 2 17 5 13 3 -3 4 -12 1 -19z m1303 2
c224 -20 226 -21 211 -105 -6 -32 -14 -61 -17 -64 -9 -9 -588 0 -598 9 -4 4
-5 45 -1 89 l7 81 147 0 c80 -1 193 -5 251 -10z m-849 -70 c4 -14 7 -51 8 -82
1 -52 -1 -58 -21 -63 -64 -14 -238 -35 -350 -41 -145 -8 -141 -10 -153 89 -10
77 -1 87 84 88 36 0 138 8 226 19 194 22 197 22 206 -10z m-987 -181 c96 -50
178 -95 182 -100 3 -6 -2 -19 -11 -29 -17 -19 -18 -19 -44 -1 -14 9 -64 39
-111 66 -216 122 -222 126 -209 141 6 8 13 14 14 14 1 0 82 -41 179 -91z
m-158 12 c33 -21 79 -50 104 -63 25 -14 80 -44 123 -68 52 -28 75 -46 69 -52
-7 -7 -75 19 -198 76 -104 48 -190 89 -192 91 -3 3 28 55 33 55 2 0 29 -17 61
-39z m2146 -69 c-4 -90 -19 -244 -28 -265 -8 -21 -42 -26 -227 -33 -192 -8
-201 -5 -215 63 -15 66 -26 265 -18 298 l7 27 242 -6 241 -6 -2 -78z m-1007
-111 c-4 -85 -13 -157 -19 -166 -13 -18 -204 -44 -328 -45 l-77 0 -11 38 c-6
20 -13 89 -17 153 l-6 115 144 13 c79 7 182 20 229 30 47 9 87 16 88 15 2 -2
1 -70 -3 -153z m1430 17 c90 -160 134 -288 175 -503 11 -60 34 -171 50 -245
42 -194 56 -349 42 -454 -12 -96 -42 -173 -78 -207 l-25 -23 25 54 c45 98 72
237 45 228 -6 -2 -30 -51 -53 -108 -47 -119 -83 -183 -100 -177 -25 8 -36 55
-36 162 0 61 -7 148 -15 195 -8 47 -17 106 -20 132 -8 59 -19 67 -36 25 -19
-46 -87 -117 -113 -117 -36 0 -49 16 -49 60 0 36 11 58 74 149 63 92 73 111
72 147 -2 59 -67 210 -173 401 l-93 165 39 38 c39 38 203 159 216 160 4 0 28
-37 53 -82z m-2245 -160 c12 -4 -10 -56 -93 -223 -122 -244 -163 -340 -179
-419 -10 -50 -8 -63 22 -158 23 -74 34 -130 37 -199 6 -103 -3 -127 -31 -84
-9 14 -20 25 -24 25 -19 0 -44 -81 -62 -201 -22 -146 -31 -169 -64 -169 -44 0
-72 49 -106 189 -25 103 -42 132 -53 91 -6 -24 10 -163 23 -204 13 -37 7 -43
-25 -22 -31 20 -58 72 -91 176 -17 55 -30 80 -41 80 -13 0 -14 -11 -9 -77 l7
-78 -25 29 c-35 42 -67 131 -73 201 -4 54 0 71 43 170 74 175 94 234 114 330
10 50 33 135 50 190 46 142 187 469 222 512 7 9 53 -10 177 -71 92 -46 173
-85 181 -88z m315 -360 c10 -24 -6 -23 -38 2 -32 25 -47 75 -47 155 l1 60 38
-100 c21 -55 42 -108 46 -117z m-155 19 c0 -7 -5 -18 -12 -25 -6 -6 -18 -50
-27 -98 -10 -54 -21 -89 -30 -92 -11 -4 -13 7 -7 59 11 103 17 126 37 148 22
24 39 27 39 8z m1759 -114 c0 -118 -5 -124 -28 -36 -18 67 -44 73 -163 37 -10
-3 -18 -1 -18 3 0 5 24 17 54 26 30 10 76 33 103 51 26 19 49 34 51 35 1 1 2
-52 1 -116z m-1890 12 c-12 -99 -17 -114 -18 -52 -1 44 17 142 25 135 1 -2 -2
-39 -7 -83z m286 -10 c67 -21 70 -23 67 -51 -2 -16 -6 -31 -8 -33 -2 -2 -23 2
-48 8 -98 24 -112 13 -116 -90 -3 -74 -3 -77 19 -89 27 -14 207 -59 326 -81
85 -15 90 -17 35 -13 -81 7 -277 50 -346 75 -29 11 -55 27 -58 36 -7 17 1 218
10 261 4 20 7 21 27 10 12 -6 54 -21 92 -33z m1359 -42 c3 -21 6 -72 6 -114
l0 -76 -51 -11 c-29 -7 -53 -11 -54 -10 -4 4 -26 211 -23 213 5 2 102 33 109
34 4 1 9 -16 13 -36z m-1135 1 c4 -4 -27 -215 -33 -221 -2 -2 -19 0 -37 5 -41
10 -46 29 -29 127 18 111 17 108 58 100 21 -4 39 -9 41 -11z m-450 -156 c-10
-19 -8 -136 4 -233 1 -11 -5 -21 -15 -23 -19 -4 -23 13 -38 143 -15 138 -16
135 25 135 34 0 35 -1 24 -22z m1716 -87 c-81 -35 -299 -83 -369 -80 -26 2
-27 2 -6 6 85 13 322 65 355 77 55 20 68 18 20 -3z m-670 -796 c43 -141 98
-375 130 -558 20 -112 32 -126 111 -135 l45 -5 -5 -36 c-7 -43 -26 -281 -26
-322 l0 -29 -352 0 -353 0 -1 190 -2 190 42 0 c57 0 83 21 100 83 61 217 101
355 126 432 16 50 47 151 70 225 24 74 45 139 48 144 7 12 12 -4 67 -179z
m590 -324 c-55 -21 -108 -42 -117 -46 -35 -14 -17 5 24 26 59 30 138 57 168
58 14 0 -20 -17 -75 -38z m-1194 -21 c44 -11 -99 -1 -156 11 -28 6 -15 6 41 3
44 -3 96 -10 115 -14z m-228 -55 c74 -49 180 -86 265 -92 82 -7 108 -23 35
-23 -133 0 -241 37 -323 109 -56 50 -46 52 23 6z m1600 -30 c-154 -71 -355
-83 -468 -29 -55 26 -41 33 23 11 44 -16 84 -20 177 -21 110 0 127 2 205 30
102 37 135 42 63 9z m237 -474 c174 -11 217 -25 248 -80 30 -52 28 -59 -15
-78 -79 -34 -250 -14 -344 39 -40 22 -79 78 -79 113 0 18 -3 17 190 6z m-1850
-43 c-1 -56 -79 -146 -144 -168 -44 -14 -50 -10 -81 50 -40 79 -30 106 43 121
66 12 182 10 182 -3z m7 -90 c-16 -38 -66 -84 -114 -105 -49 -20 -64 -15 -17
6 53 24 109 74 124 111 7 17 15 29 17 26 2 -2 -2 -19 -10 -38z m2073 -48 c-8
-5 -19 -10 -25 -10 -5 0 -3 5 5 10 8 5 20 10 25 10 6 0 3 -5 -5 -10z m-135
-20 c42 -11 1 -11 -50 -1 -34 7 -35 9 -10 9 17 0 44 -4 60 -8z m88 3 c-7 -2
-19 -2 -25 0 -7 3 -2 5 12 5 14 0 19 -2 13 -5z m-933 -59 c0 -15 -9 -16 -61
-10 -34 3 -134 7 -223 7 -97 1 -147 5 -126 9 19 4 119 8 223 9 167 1 187 -1
187 -15z m960 2 c0 -12 -116 -27 -149 -20 -33 8 -29 9 39 14 41 4 83 7 93 8 9
1 17 0 17 -2z"/>
<path d="M5108 9703 c-7 -9 -46 -38 -86 -64 -53 -35 -93 -52 -147 -64 l-74
-17 -35 -74 c-40 -85 -75 -137 -162 -246 -85 -104 -88 -110 -70 -151 7 -19 51
-89 96 -155 45 -67 93 -150 105 -184 22 -62 23 -63 77 -79 31 -9 75 -30 99
-46 53 -36 121 -59 209 -72 120 -16 194 8 352 116 l97 66 27 81 c24 74 104
244 150 323 l19 32 -67 65 c-58 56 -158 202 -158 230 0 16 -89 133 -114 150
-15 9 -57 20 -95 25 -47 6 -92 21 -139 45 -64 32 -71 34 -84 19z m70 -48 c44
-29 124 -55 170 -55 47 0 115 -66 159 -155 53 -104 119 -200 168 -242 l45 -38
-52 -100 c-29 -55 -68 -147 -89 -205 l-36 -105 -94 -63 c-169 -112 -221 -127
-366 -101 -74 13 -75 14 -45 26 20 8 40 9 62 3 17 -5 38 -6 46 -3 8 3 20 0 27
-5 8 -7 18 -7 27 -2 8 6 25 10 38 10 22 0 161 88 162 103 0 4 -8 7 -17 7 -12
0 -8 9 17 31 19 17 29 28 23 24 -23 -11 -14 1 18 24 l31 23 -7 -23 c-7 -22 -6
-23 10 -9 17 14 17 13 11 -10 -6 -21 -5 -22 4 -7 9 13 9 22 0 32 -12 15 1 52
24 67 6 5 7 8 1 8 -6 0 -10 36 -10 88 0 74 -4 96 -27 147 -30 65 -35 109 -16
150 15 33 8 38 -31 24 -17 -6 -38 -8 -46 -5 -14 5 -13 11 4 45 19 37 19 39 2
34 -14 -4 -20 3 -25 27 -3 18 -6 43 -6 55 0 18 -7 24 -37 28 -21 4 -42 2 -47
-3 -11 -11 -56 -14 -56 -4 0 3 11 15 26 26 32 26 23 36 -12 14 -29 -20 -43
-14 -25 8 15 18 6 52 -14 60 -9 3 -25 2 -38 -3 -12 -5 -48 -12 -80 -15 -62 -8
-76 -21 -58 -55 10 -17 9 -20 -4 -15 -8 4 -15 10 -15 15 0 5 -9 9 -20 9 -25 0
-25 -11 -1 -52 20 -31 19 -48 0 -48 -6 0 -7 5 -4 10 3 6 2 10 -4 10 -5 0 -14
-7 -19 -16 -8 -14 -13 -14 -33 -3 -22 11 -23 11 -9 -5 12 -15 16 -43 11 -73
-1 -5 -8 3 -16 17 -8 14 -14 20 -15 14 0 -5 11 -25 25 -44 14 -19 25 -39 25
-46 0 -17 -67 -74 -88 -74 -11 0 -17 -8 -17 -25 0 -14 6 -25 13 -25 7 0 12
-13 12 -29 0 -16 4 -41 10 -56 9 -24 9 -25 -13 -14 -22 12 -22 12 -4 -9 12
-13 16 -28 13 -40 -5 -13 2 -30 19 -50 14 -16 25 -34 25 -39 0 -5 7 -18 16
-29 15 -18 15 -18 10 6 -5 24 -4 24 9 6 8 -11 15 -28 15 -37 0 -19 17 -35 27
-25 3 3 0 12 -7 21 -10 12 -9 15 5 15 14 0 15 3 5 15 -14 17 -7 19 18 5 36
-22 157 -58 163 -49 3 5 24 11 46 13 22 3 64 16 93 31 28 14 54 24 57 21 3 -3
14 5 24 17 14 17 18 18 19 6 0 -13 -59 -70 -112 -108 -19 -13 -19 -12 -9 7 6
12 25 29 41 39 58 34 29 34 -32 -1 -60 -33 -97 -83 -82 -108 3 -5 -3 -18 -15
-29 -12 -11 -21 -24 -21 -29 0 -6 -13 -10 -29 -10 -28 0 -29 1 -18 30 6 17 15
30 19 30 4 0 8 9 8 20 0 13 -5 18 -15 14 -11 -4 -15 0 -15 16 0 16 -5 21 -22
20 -13 -1 -49 -2 -80 -1 -49 1 -62 6 -93 32 -19 17 -35 27 -35 22 0 -13 75
-84 82 -78 3 3 8 -3 11 -15 6 -25 2 -25 -25 0 -12 11 -29 18 -39 15 -12 -4
-20 6 -33 38 -9 23 -16 52 -16 64 0 22 -13 37 -22 27 -3 -3 1 -28 9 -57 17
-60 52 -105 65 -85 6 10 8 9 8 -3 0 -9 9 -24 20 -34 11 -10 20 -23 20 -29 0
-6 -7 -2 -15 8 -8 11 -15 15 -15 9 0 -6 7 -16 15 -23 9 -7 14 -19 11 -27 -4
-8 -1 -11 5 -8 6 4 8 13 5 21 -8 21 9 17 58 -14 l44 -28 -35 -19 c-33 -18 -36
-18 -65 -2 -25 15 -29 15 -24 2 8 -21 2 -19 -45 12 -22 14 -61 32 -86 38 -45
12 -48 14 -74 79 -15 36 -66 124 -113 194 -47 70 -86 135 -86 144 0 9 33 58
73 110 88 113 128 175 161 250 25 56 25 56 83 68 62 13 166 64 223 111 19 15
36 28 38 29 1 0 19 -11 40 -25z m10 -105 c-2 -32 -18 -39 -37 -17 -13 16 -5
28 15 20 8 -3 14 1 14 11 0 9 2 16 5 16 3 0 4 -13 3 -30z m-17 -50 c28 -15 23
-27 -11 -27 -16 0 -27 5 -23 10 3 6 1 7 -6 3 -6 -4 -9 -12 -6 -17 4 -5 -3 -9
-15 -9 -27 0 -39 29 -16 42 9 5 14 13 11 19 -6 9 30 -2 66 -21z m179 -60 c0
-11 -7 -20 -15 -20 -8 0 -15 5 -15 11 0 5 -4 7 -10 4 -11 -7 -14 8 -3 18 15
15 43 7 43 -13z m-162 -20 c2 -14 9 -31 15 -38 8 -11 12 -10 20 3 13 23 48 34
73 23 18 -8 21 -17 17 -47 -4 -33 0 -39 46 -79 43 -36 51 -40 59 -26 20 35 31
-210 12 -261 -6 -16 -32 -36 -77 -58 -75 -38 -148 -55 -140 -33 3 7 1 19 -4
27 -6 10 -9 4 -9 -18 0 -33 0 -33 -49 -33 -62 0 -122 21 -187 66 -47 32 -77
74 -53 74 4 0 6 7 3 15 -4 8 -1 15 6 15 15 0 39 30 40 49 0 7 -8 3 -19 -10
-11 -13 -23 -21 -27 -17 -4 5 0 16 8 25 8 10 18 27 22 37 7 19 6 19 -13 2 -16
-14 -23 -15 -41 -6 -14 8 -20 18 -17 30 3 12 -1 20 -12 23 -14 3 -14 5 3 12
12 5 21 3 27 -6 7 -12 9 -12 9 1 0 8 12 25 28 38 22 19 27 32 27 69 l0 44 14
-33 c8 -18 18 -46 22 -63 6 -22 7 -14 4 29 -4 58 6 96 25 96 6 0 10 -6 10 -14
0 -8 5 -18 12 -22 8 -5 9 2 5 27 l-7 34 16 -25 c15 -25 15 -25 9 10 -5 34 -4
36 37 52 58 23 82 19 86 -12z m56 24 c9 -3 13 -10 10 -15 -3 -5 -10 -7 -15 -4
-5 4 -12 -1 -15 -9 -8 -22 -24 -20 -24 2 0 30 13 38 44 26z m-233 -44 c-13
-11 -28 -20 -35 -20 -6 0 3 9 19 20 38 25 47 25 16 0z m349 -20 c0 -5 -4 -10
-10 -10 -5 0 -10 5 -10 10 0 6 5 10 10 10 6 0 10 -4 10 -10z m0 -35 c0 -8 -7
-15 -15 -15 -8 0 -15 7 -15 15 0 8 7 15 15 15 8 0 15 -7 15 -15z m-460 -249
c0 -8 -4 -18 -10 -21 -5 -3 -10 3 -10 14 0 12 5 21 10 21 6 0 10 -6 10 -14z
m583 -138 c2 -61 0 -69 -28 -98 -50 -53 -197 -145 -218 -136 -7 2 -4 5 5 5 12
1 15 6 11 17 -5 13 -2 15 15 10 17 -6 35 3 77 36 30 24 53 49 50 55 -2 7 2 13
9 13 8 0 22 8 33 18 10 9 13 13 6 8 -22 -14 -41 11 -21 26 10 9 21 45 29 103
13 87 13 89 22 50 5 -22 9 -70 10 -107z m-582 15 c13 -16 12 -17 -3 -4 -10 7
-18 15 -18 17 0 8 8 3 21 -13z m65 -39 c17 -14 17 -15 1 -10 -10 3 -25 6 -33
6 -8 0 -14 5 -14 10 0 15 24 12 46 -6z m289 -123 c3 -5 1 -12 -5 -16 -5 -3
-10 1 -10 9 0 18 6 21 15 7z m-185 -33 c0 -5 -11 -8 -25 -8 -17 0 -25 -6 -25
-17 0 -12 -3 -14 -10 -7 -19 19 0 43 31 41 16 -1 29 -5 29 -9z m60 -28 c0 -26
-23 -35 -47 -20 -16 9 -15 10 6 4 16 -4 21 -3 17 5 -8 13 1 31 15 31 5 0 9 -9
9 -20z m-70 0 c0 -5 -4 -10 -10 -10 -5 0 -10 5 -10 10 0 6 5 10 10 10 6 0 10
-4 10 -10z m260 -35 c-7 -8 -18 -15 -24 -15 -6 0 -2 7 8 15 25 19 32 19 16 0z
m34 -20 c-52 -38 -107 -59 -156 -58 -27 1 -57 8 -65 15 -14 11 -7 14 48 20
107 12 125 15 155 31 34 18 46 13 18 -8z m-239 -55 c-3 -5 -10 -10 -16 -10 -5
0 -9 5 -9 10 0 6 7 10 16 10 8 0 12 -4 9 -10z"/>
<path d="M5395 9513 c-11 -3 -24 -9 -29 -14 -15 -14 14 -10 49 6 29 13 19 17
-20 8z"/>
<path d="M4817 9005 c3 -38 10 -77 15 -85 11 -19 -1 119 -13 140 -5 8 -6 -15
-2 -55z"/>
<path d="M5007 8860 c-3 -11 -3 -20 -1 -20 2 0 8 9 14 20 6 11 7 20 2 20 -6 0
-12 -9 -15 -20z"/>
<path d="M4833 8855 c-3 -9 -3 -18 -1 -21 3 -3 8 4 11 16 6 23 -1 27 -10 5z"/>
<path d="M5181 8814 c0 -11 3 -14 6 -6 3 7 2 16 -1 19 -3 4 -6 -2 -5 -13z"/>
<path d="M5170 8761 c0 -11 4 -21 9 -21 18 0 21 18 6 30 -13 10 -15 9 -15 -9z"/>
<path d="M4910 8745 c7 -8 16 -12 21 -9 13 8 1 24 -18 24 -13 0 -13 -3 -3 -15z"/>
<path d="M5425 8719 c-20 -22 -67 -58 -103 -80 -77 -44 -73 -53 4 -10 53 29
154 110 154 124 0 17 -20 5 -55 -34z"/>
<path d="M4940 8698 c0 -9 5 -20 10 -23 13 -8 13 5 0 25 -8 13 -10 13 -10 -2z"/>
<path d="M5020 8670 c-8 -5 -12 -12 -9 -15 4 -3 12 1 19 10 14 17 11 19 -10 5z"/>
<path d="M5245 9191 c0 -42 10 -44 25 -5 11 28 36 32 44 7 3 -10 17 -31 30
-48 19 -24 27 -27 37 -18 10 10 9 15 -1 28 -12 14 -10 14 14 5 36 -13 41 -13
26 5 -7 8 -21 15 -31 15 -24 0 -33 16 -13 24 9 4 15 9 12 11 -11 12 -38 -9
-38 -29 0 -18 -3 -16 -20 12 -16 26 -26 32 -53 32 -31 0 -32 -2 -32 -39z"/>
<path d="M5040 9202 c0 -12 19 -26 26 -19 2 2 -2 10 -11 17 -9 8 -15 8 -15 2z"/>
<path d="M4991 9183 c0 -6 -4 -20 -7 -30 -5 -14 -4 -15 5 -7 7 7 11 20 8 30
-3 11 -5 14 -6 7z"/>
<path d="M5248 8653 c7 -3 16 -2 19 1 4 3 -2 6 -13 5 -11 0 -14 -3 -6 -6z"/>
<path d="M6049 7300 c-68 -12 -131 -42 -162 -79 -31 -38 -33 -48 -12 -79 28
-39 100 -50 375 -56 157 -3 284 -11 330 -20 62 -12 77 -12 88 -1 19 18 5 41
-63 103 -62 57 -149 102 -241 126 -66 17 -232 20 -315 6z"/>
<path d="M3895 7254 c-89 -19 -188 -63 -292 -130 -130 -84 -247 -214 -230
-258 9 -24 33 -20 137 25 160 69 426 135 667 164 57 7 112 38 123 70 4 11 2
36 -4 55 -9 27 -22 40 -61 60 -43 21 -66 25 -160 27 -70 2 -136 -3 -180 -13z"/>
<path d="M6194 6861 c-302 -48 -474 -297 -475 -685 0 -260 95 -444 268 -523
186 -85 427 0 557 195 162 247 140 609 -51 822 l-48 54 72 -38 c93 -49 185
-142 240 -243 57 -105 83 -218 83 -362 0 -61 4 -111 9 -111 24 0 36 79 35 225
0 135 -3 158 -27 230 -86 258 -288 422 -542 439 -38 2 -93 1 -121 -3z m-31
-275 c48 -19 84 -68 98 -131 10 -46 10 -65 -5 -122 -18 -76 -38 -108 -86 -140
-97 -67 -209 21 -218 172 -8 121 67 228 166 234 7 1 27 -5 45 -13z"/>
<path d="M3740 6755 c-178 -49 -330 -176 -413 -345 -64 -130 -79 -191 -84
-350 -4 -104 -1 -156 12 -220 21 -104 43 -160 61 -160 23 0 26 22 15 119 -23
212 45 462 168 619 38 47 146 142 163 142 3 0 -13 -29 -38 -65 -76 -114 -122
-306 -109 -455 20 -238 133 -429 300 -511 63 -31 78 -34 155 -34 71 0 94 4
141 26 146 69 264 267 288 486 21 193 -39 415 -143 532 l-21 24 33 -19 c52
-29 152 -135 194 -205 61 -100 83 -173 113 -373 5 -30 9 -36 18 -27 20 20 14
234 -7 306 -74 243 -231 420 -437 492 -63 22 -95 26 -214 29 -103 3 -154 0
-195 -11z m173 -306 c102 -52 134 -194 75 -330 -36 -86 -103 -115 -181 -81
-111 49 -152 231 -78 342 15 23 41 50 57 61 32 21 94 25 127 8z"/>
<path d="M2171 5928 c-28 -14 -52 -36 -63 -58 -20 -39 -24 -115 -6 -157 11
-27 12 -25 20 36 16 114 43 140 134 127 97 -13 256 -124 341 -239 59 -80 59
-81 32 -118 -32 -45 -75 -61 -112 -42 -58 29 -85 151 -52 230 8 20 13 38 10
41 -8 9 -36 -21 -55 -59 -58 -112 -20 -235 85 -275 43 -16 45 -16 92 7 37 18
56 37 81 79 39 66 37 89 -19 175 -90 141 -254 252 -396 270 -39 5 -57 2 -92
-17z"/>
<path d="M5051 5744 c-48 -24 -83 -65 -68 -80 3 -4 21 3 39 14 18 11 52 25 75
31 87 23 158 -39 150 -132 -7 -85 -77 -131 -177 -116 -57 8 -67 -1 -35 -31 38
-35 125 -39 185 -8 167 86 108 348 -78 348 -21 0 -61 -12 -91 -26z"/>
<path d="M6592 5604 c-157 -157 -146 -155 24 3 94 87 144 143 129 143 -3 0
-72 -66 -153 -146z"/>
<path d="M6696 5608 c-99 -99 -106 -108 -41 -50 97 85 183 172 170 172 -4 0
-63 -55 -129 -122z"/>
<path d="M6345 5579 c-66 -42 -195 -141 -220 -169 -17 -19 242 164 270 191 17
17 -1 9 -50 -22z"/>
<path d="M6437 5579 c-46 -38 -223 -232 -239 -262 -6 -12 31 23 83 78 52 55
118 126 148 157 30 32 52 58 50 58 -3 0 -22 -14 -42 -31z"/>
<path d="M6759 5533 l-24 -28 28 24 c25 23 32 31 24 31 -2 0 -14 -12 -28 -27z"/>
<path d="M5575 5440 c6 -25 1 -35 -42 -75 -55 -53 -194 -125 -293 -151 -85
-23 -287 -23 -386 -1 -88 20 -187 57 -265 98 -54 29 -58 33 -44 49 8 9 15 29
15 43 0 35 -29 36 -59 1 -24 -27 -114 -74 -144 -74 -11 0 -17 -6 -14 -12 4
-15 76 -17 120 -4 20 6 27 5 27 -5 0 -8 15 -48 33 -89 101 -230 304 -362 532
-347 182 13 354 119 450 277 39 65 105 211 105 234 0 12 10 16 39 16 43 0 101
18 101 31 0 5 -19 9 -42 9 -24 1 -61 7 -83 15 -55 20 -58 19 -50 -15z m-180
-301 c-38 -75 -110 -148 -174 -176 -178 -79 -388 -40 -512 95 -45 49 -97 137
-87 147 1 2 35 -7 73 -20 100 -34 182 -45 332 -45 142 0 237 15 331 53 69 27
74 20 37 -54z"/>
<path d="M3472 5415 c-91 -43 -262 -148 -262 -161 0 -3 12 2 28 12 73 48 185
111 260 145 74 35 96 49 75 49 -5 0 -50 -20 -101 -45z"/>
<path d="M3680 5406 c-103 -45 -203 -96 -198 -101 4 -4 285 119 296 129 14 15
-30 2 -98 -28z"/>
<path d="M3855 5386 c-61 -23 -226 -105 -213 -106 10 0 272 111 283 121 14 14
-4 10 -70 -15z"/>
<path d="M3945 5344 c-33 -14 -73 -30 -88 -36 -15 -6 -26 -12 -23 -15 6 -6
175 57 182 68 8 14 -7 10 -71 -17z"/>
<path d="M4016 5314 c-26 -9 -46 -18 -43 -21 6 -5 117 25 117 32 0 8 -22 5
-74 -11z"/>
<path d="M7531 6279 c-68 -39 -162 -135 -224 -227 -49 -73 -117 -210 -117
-234 0 -24 17 -40 44 -43 15 -2 38 -10 51 -19 64 -42 149 -3 191 88 47 101 40
192 -17 240 l-30 26 54 54 c55 55 140 106 177 106 13 0 20 7 20 20 0 33 -82
27 -149 -11z m-97 -233 c23 -49 21 -140 -5 -186 -28 -49 -66 -70 -128 -70 -44
0 -51 3 -51 20 0 43 134 270 160 270 4 0 15 -15 24 -34z"/>
<path d="M5726 3504 c-21 -21 -20 -41 3 -54 28 -14 38 -13 62 11 20 20 20 22
3 40 -21 23 -47 24 -68 3z m45 -27 c-13 -13 -26 -3 -16 12 3 6 11 8 17 5 6 -4
6 -10 -1 -17z"/>
<path d="M4641 3406 c-18 -22 -6 -46 21 -46 33 0 51 14 46 36 -4 24 -50 31
-67 10z m34 -6 c3 -5 1 -10 -4 -10 -6 0 -11 5 -11 10 0 6 2 10 4 10 3 0 8 -4
11 -10z"/>
</g>
</svg>
