<?xml version="1.0" standalone="no"?>
<!DOCTYPE svg PUBLIC "-//W3C//DTD SVG 20010904//EN"
 "http://www.w3.org/TR/2001/REC-SVG-20010904/DTD/svg10.dtd">
<svg version="1.0" xmlns="http://www.w3.org/2000/svg"
 width="1024.000000pt" height="1024.000000pt" viewBox="0 0 1024.000000 1024.000000"
 preserveAspectRatio="xMidYMid meet">
<metadata>
Created by potrace 1.16, written by Peter Selinger 2001-2019
</metadata>
<g transform="translate(0.000000,1024.000000) scale(0.100000,-0.100000)"
fill="#000000" stroke="none">
<path d="M4828 9300 c-215 -21 -446 -62 -622 -112 -406 -113 -614 -282 -745
-600 -53 -130 -100 -396 -131 -743 -21 -239 -17 -220 -58 -239 -136 -64 -356
-203 -492 -311 -58 -47 -281 -236 -431 -365 -62 -54 -99 -117 -99 -171 0 -123
174 -299 518 -523 187 -123 366 -222 456 -254 67 -23 88 -36 145 -92 36 -36
83 -74 104 -83 56 -27 125 -32 171 -13 22 9 41 14 43 12 3 -2 11 -30 19 -62
47 -177 172 -310 392 -415 130 -63 427 -162 552 -185 52 -10 98 -20 102 -23 3
-3 -31 -45 -75 -93 l-82 -88 -100 -25 c-140 -36 -234 -74 -270 -111 -39 -38
-102 -159 -190 -364 -90 -207 -173 -372 -197 -388 -19 -14 -98 -173 -98 -197
0 -14 78 -69 148 -104 23 -12 42 -22 42 -24 0 -1 -23 -69 -51 -152 -47 -138
-52 -159 -56 -267 -4 -82 -1 -146 10 -210 9 -51 18 -129 21 -174 7 -87 26
-177 52 -236 26 -59 149 -158 197 -158 35 0 35 -9 -3 -140 -16 -57 -46 -176
-66 -263 -43 -187 -43 -243 -1 -307 l27 -40 -41 -103 c-24 -56 -67 -149 -97
-206 -47 -87 -56 -113 -59 -170 -5 -71 13 -133 61 -209 l24 -39 -25 -42 -25
-42 45 -44 c45 -42 45 -44 36 -86 -13 -55 -13 -55 -51 -63 -103 -21 -681 -47
-1260 -58 -139 -3 -171 -8 -154 -26 4 -4 170 -9 369 -11 388 -5 405 -12 72
-31 -115 -6 -226 -15 -245 -20 -19 -5 -186 -17 -370 -26 -184 -9 -337 -18
-339 -20 -2 -2 188 -4 423 -4 256 0 425 -4 422 -9 -4 -5 -164 -10 -374 -11
-408 -2 -582 -10 -582 -25 0 -9 62 -12 625 -26 120 -3 127 -4 45 -6 -52 -2
-260 -10 -461 -18 -201 -8 -428 -15 -505 -16 -76 0 -161 -4 -189 -9 -32 -5 35
-8 190 -9 132 0 427 -6 655 -13 l415 -13 -302 -9 c-167 -5 -303 -12 -303 -16
0 -9 329 -20 582 -20 181 0 212 -5 171 -29 -10 -5 -15 -12 -12 -15 3 -3 95
-10 205 -16 257 -14 521 -35 760 -60 529 -55 1320 -78 2164 -61 589 12 1265
34 1404 47 56 5 69 10 73 25 3 11 14 19 25 19 10 0 32 10 48 21 20 15 37 20
57 16 15 -3 36 -1 46 5 11 5 67 13 126 17 l106 8 -115 3 c-63 1 -108 4 -100 5
8 2 162 9 342 16 180 7 325 16 322 20 -2 4 -158 8 -347 9 -188 0 -345 4 -350
9 -10 10 112 18 461 31 129 5 236 11 240 14 12 13 -11 17 -139 25 l-134 8 160
3 c898 16 899 16 48 18 -860 2 -1108 14 -525 26 174 4 555 11 847 17 291 6
532 12 534 15 5 5 -1392 9 -1877 5 -295 -2 -333 -1 -338 13 -5 12 -22 16 -68
18 -67 2 92 13 359 26 274 12 189 26 -202 33 -546 10 -550 11 -658 65 -94 48
-138 85 -129 108 3 8 -2 31 -11 52 -15 36 -15 39 5 64 46 56 46 66 7 116 -21
26 -37 53 -37 60 0 7 13 40 30 75 16 35 35 86 41 114 11 50 11 52 -36 145 -57
114 -115 265 -115 301 0 14 14 56 30 92 17 37 30 79 30 94 0 16 -23 79 -51
142 -51 114 -139 362 -139 392 0 10 17 23 46 34 67 25 159 115 178 173 19 59
35 130 46 204 5 32 27 96 49 143 96 200 133 320 133 436 0 64 -7 92 -40 180
-60 161 -60 151 -2 200 28 24 60 58 71 76 l20 33 -28 51 c-15 29 -52 73 -81
98 -29 25 -61 59 -71 76 -10 16 -57 94 -105 173 -47 78 -120 209 -160 291 -69
137 -78 150 -124 180 -70 45 -142 68 -283 91 -67 11 -124 22 -127 24 -6 7 -72
168 -72 177 0 4 35 15 78 24 289 63 621 223 791 381 82 75 124 142 159 248
l27 83 75 5 c112 7 190 55 257 159 30 46 50 65 98 90 234 122 490 341 652 557
199 264 353 663 353 909 0 86 -11 116 -53 147 -24 18 -42 21 -110 20 -45 0
-129 -9 -187 -20 -76 -14 -149 -19 -265 -18 -139 0 -187 5 -369 37 -115 21
-213 40 -217 43 -5 3 -9 22 -9 42 0 57 -45 331 -79 477 -111 486 -240 714
-470 833 -132 69 -262 102 -549 138 -137 17 -578 26 -704 14z m754 -59 c449
-70 630 -176 768 -451 83 -164 181 -508 235 -823 15 -87 24 -161 21 -164 -3
-3 -117 11 -253 31 -905 132 -1370 153 -1933 90 -390 -43 -787 -142 -992 -245
-33 -17 -61 -29 -63 -27 -10 10 52 537 81 698 38 200 127 389 246 516 181 193
538 323 1063 388 182 23 644 15 827 -13z m-57 -1351 c384 -37 786 -90 1180
-157 311 -53 413 -66 502 -67 62 -1 113 -2 113 -3 0 -18 -324 -140 -481 -182
-158 -42 -526 -122 -755 -165 -724 -136 -1138 -150 -1773 -61 -268 37 -410 53
-593 66 -331 22 -635 -28 -903 -149 -85 -39 -297 -153 -323 -174 -11 -9 -14
-9 -9 -1 13 21 246 222 329 284 191 141 603 357 853 445 146 52 463 120 690
148 385 48 787 54 1170 16z m-1455 -870 c0 -5 -5 -10 -11 -10 -5 0 -7 5 -4 10
3 6 8 10 11 10 2 0 4 -4 4 -10z m-495 -166 c-8 -82 -15 -192 -16 -244 l-1 -95
-25 55 c-28 61 -64 248 -62 325 2 47 2 45 12 -25 l11 -75 8 65 c12 87 28 101
28 25 0 -76 13 -59 36 48 9 42 18 76 20 74 2 -2 -3 -70 -11 -153z m480 138
c-3 -3 -11 0 -18 7 -9 10 -8 11 6 5 10 -3 15 -9 12 -12z m1900 -57 c59 -5 150
-30 171 -46 15 -12 267 -107 295 -111 19 -2 26 -13 37 -53 7 -27 20 -73 28
-101 14 -46 14 -55 -1 -99 -21 -63 -36 -136 -85 -410 -57 -321 -89 -404 -198
-518 -158 -163 -423 -298 -742 -377 -393 -97 -674 -85 -1054 47 -266 93 -385
155 -497 260 -124 117 -142 162 -214 521 -25 124 -59 259 -75 301 -17 44 -30
95 -30 121 0 76 29 242 50 285 20 41 97 126 85 93 -6 -14 4 -12 52 11 72 36
103 45 103 32 0 -5 -8 -16 -18 -23 -25 -18 -77 -97 -68 -105 3 -3 6 -2 6 4 0
16 99 81 159 104 125 47 264 40 433 -21 45 -16 85 -30 90 -30 10 0 10 41 0 58
-5 6 -24 24 -43 38 l-34 26 520 -6 c286 -3 546 -9 577 -14 36 -5 64 -4 75 2
10 6 68 13 128 16 110 6 136 6 250 -5z m-2344 -156 c-22 -106 -31 -132 -31
-85 0 32 41 199 47 192 3 -2 -5 -51 -16 -107z m-181 57 c0 -26 -6 -18 -14 19
-5 22 -4 26 4 15 5 -8 10 -24 10 -34z m-5 -107 c15 -38 25 -72 22 -75 -5 -5
-42 78 -52 119 -13 50 3 28 30 -44z m3102 -41 c-3 -7 -5 -2 -5 12 0 14 2 19 5
13 2 -7 2 -19 0 -25z m223 -23 c66 -34 96 -117 80 -222 -14 -94 -67 -267 -100
-333 -53 -105 -145 -171 -257 -186 -51 -6 -53 -6 -53 16 0 47 23 156 37 178
18 29 77 55 105 46 14 -4 18 -2 14 5 -4 6 -25 11 -46 11 l-39 0 5 38 c10 71
67 292 75 292 5 0 9 5 9 11 0 6 -7 9 -15 5 -8 -3 -15 -1 -15 4 0 6 4 10 8 10
5 0 7 13 4 29 -11 78 106 138 188 96z m-3280 -144 c32 -22 57 -73 66 -131 6
-43 6 -44 -10 -25 -12 15 -11 7 5 -30 23 -56 60 -211 51 -219 -2 -3 1 -12 8
-21 11 -13 7 -15 -28 -15 -23 0 -44 -4 -47 -10 -4 -6 7 -10 27 -10 19 0 49
-11 69 -24 31 -21 38 -33 47 -82 18 -87 17 -92 -25 -103 -57 -16 -102 -13
-150 10 -128 62 -254 320 -238 489 15 161 122 242 225 171z m129 -326 c0 -5
-4 -3 -9 5 -5 8 -9 22 -9 30 0 16 17 -16 18 -35z m30 -117 c10 -30 9 -31 -4
-14 -8 11 -15 26 -15 33 0 22 8 14 19 -19z m1741 -1094 c66 -163 127 -281 177
-341 19 -24 32 -43 28 -43 -3 0 -40 23 -82 51 -95 64 -158 93 -189 85 -14 -4
-34 -25 -51 -54 -25 -44 -147 -226 -164 -246 -11 -12 54 162 76 203 9 18 31
56 49 85 59 94 61 102 62 251 2 168 0 157 20 153 10 -2 37 -54 74 -144z m-530
28 c0 -115 15 -169 85 -299 40 -76 81 -186 99 -268 5 -22 -2 -15 -26 27 -72
127 -205 258 -260 258 -10 0 -56 -20 -104 -45 -47 -25 -87 -45 -88 -45 -7 0
33 129 62 202 46 120 164 268 213 268 17 0 19 -8 19 -98z m405 3 c8 -86 -8
-181 -41 -248 -29 -57 -70 -79 -151 -81 -68 -1 -98 21 -145 112 -29 56 -37 81
-35 118 l2 47 90 32 c50 18 128 51 174 74 61 29 87 38 92 29 4 -7 11 -44 14
-83z m263 -119 c35 -8 71 -21 81 -30 10 -9 24 -16 32 -16 10 1 9 4 -4 14 -12
9 -14 16 -8 21 16 9 51 -4 51 -19 0 -8 15 -16 33 -19 18 -3 65 -20 103 -38 66
-32 68 -33 37 -37 -18 -2 -86 10 -150 27 -202 52 -235 64 -244 89 -10 26 -13
25 69 8z m-933 -26 c-9 -17 -30 -40 -48 -51 -33 -20 -185 -71 -244 -82 -30 -6
-33 -4 -33 18 0 14 0 28 -1 32 0 4 29 17 66 30 59 22 67 23 81 9 23 -23 72
-24 86 -3 14 22 8 30 -10 14 -23 -21 -46 -22 -62 -2 -10 12 -8 16 15 25 14 5
36 10 48 11 12 0 38 7 57 14 56 22 63 19 45 -15z m982 -75 c37 -9 97 -25 133
-36 36 -11 70 -22 77 -24 8 -3 8 -14 -3 -43 -7 -22 -20 -87 -29 -144 -20 -129
-26 -157 -32 -139 -4 8 -8 10 -12 3 -4 -8 -64 -8 -191 -2 -220 9 -232 7 -242
-60 -3 -25 -10 -131 -14 -235 -10 -264 -5 -271 175 -282 103 -7 101 -4 30 -56
-13 -10 6 -2 44 18 71 38 177 78 185 70 4 -4 -46 -152 -89 -259 -10 -27 -19
-55 -19 -62 0 -8 -4 -14 -10 -14 -5 0 -7 8 -3 18 4 11 -3 7 -19 -10 -28 -28
-77 -46 -241 -84 -54 -12 -105 -28 -114 -36 -16 -12 -16 -11 -1 10 19 28 185
155 232 177 18 9 52 37 73 63 59 71 62 83 7 30 -44 -43 -221 -168 -208 -147 2
4 -18 -2 -45 -14 -28 -12 -52 -27 -55 -34 -6 -13 16 -11 35 3 21 16 39 26 39
21 0 -5 -105 -87 -111 -87 -12 0 -14 216 -5 590 3 121 2 161 -3 115 -5 -38
-11 -191 -15 -340 -8 -317 -12 -355 -35 -355 -14 0 -14 2 -1 10 22 14 9 12
-53 -9 l-57 -20 -15 22 c-15 21 -15 21 -15 -6 0 -25 -14 -37 -22 -19 -5 11
-171 93 -176 87 -3 -3 16 -26 42 -51 26 -25 46 -48 43 -50 -8 -8 -87 8 -81 17
5 9 -23 13 -61 9 -11 -1 -17 2 -12 6 4 4 -7 13 -25 19 -18 7 -42 16 -53 20
-16 5 -17 5 -5 -4 8 -6 11 -11 5 -10 -14 0 -62 28 -50 29 6 1 -12 12 -38 26
-26 14 -53 22 -59 18 -6 -4 -8 -3 -4 4 3 6 -10 20 -33 33 -21 12 -44 32 -50
46 -12 26 -13 273 -1 463 l7 115 1 -160 c3 -194 8 -229 39 -258 13 -12 28 -31
34 -42 7 -14 4 -13 -11 5 -17 19 -16 14 6 -26 27 -47 154 -174 175 -174 20 0
7 19 -41 59 -54 45 -94 94 -104 126 -6 19 -2 20 102 17 94 -2 117 1 192 26
l85 28 7 54 c3 30 6 161 7 291 1 209 -1 238 -16 250 -13 11 -67 14 -254 14
l-237 0 -6 45 c-3 25 -16 79 -29 120 l-23 75 0 -70 c0 -48 2 -61 7 -40 l7 30
3 -35 c1 -19 4 -46 5 -60 1 -14 6 -36 11 -50 7 -17 7 -28 -2 -37 -19 -18 -29
-137 -14 -164 12 -23 9 -159 -7 -307 l-7 -63 -31 6 c-88 17 -165 39 -201 57
-102 53 -175 111 -175 141 0 10 22 60 49 110 27 51 85 178 130 282 44 105 94
216 112 249 l32 59 18 -24 c10 -13 19 -27 19 -30 0 -12 110 11 192 40 45 17
84 29 85 27 1 -1 -4 -26 -12 -55 -8 -30 -17 -78 -21 -107 -8 -65 0 -68 69 -24
71 45 124 70 147 70 32 0 229 -203 268 -276 39 -74 39 -87 7 -126 -17 -20 -25
-42 -25 -67 0 -21 -3 -80 -6 -132 -4 -52 -4 -91 0 -87 4 3 11 62 15 130 l7
123 62 76 c34 41 62 79 62 83 0 4 8 15 18 24 10 10 11 13 3 7 -10 -7 -10 -2 3
18 18 27 34 39 20 15 -4 -7 2 -4 14 6 12 11 22 24 22 30 0 6 -5 4 -11 -4 -8
-12 -10 -12 -7 -1 2 8 11 15 19 17 7 1 36 23 63 48 43 41 54 46 94 46 24 0 61
5 82 11 34 10 43 8 116 -30 43 -22 80 -37 82 -32 2 5 -24 51 -56 102 -58 93
-92 153 -92 164 0 7 0 7 77 -10z m373 -171 l54 -116 -57 -55 -57 -55 36 -59
c40 -66 75 -89 163 -108 39 -8 57 -8 67 0 19 16 77 -77 63 -103 -5 -10 -13
-17 -17 -15 -14 4 -91 -76 -85 -87 3 -6 3 -8 -2 -4 -4 4 -20 -1 -34 -11 -49
-35 -132 -81 -146 -81 -17 0 -58 85 -81 168 -9 34 -20 59 -25 57 -4 -3 -5 4
-2 15 3 11 0 27 -7 35 -7 8 -10 22 -6 30 3 9 2 13 -4 10 -6 -3 -10 2 -10 12
-1 12 -5 7 -14 -12 l-13 -30 -5 25 c-11 47 -1 275 16 363 25 130 28 137 73
137 l38 -1 55 -115z m-805 19 c-4 -10 -20 -58 -35 -108 -16 -49 -31 -83 -34
-75 -3 8 -18 55 -34 103 l-29 88 26 -5 c20 -4 79 3 110 13 2 0 0 -7 -4 -16z
m868 -193 c-9 -16 -20 -30 -24 -30 -3 0 -16 -9 -29 -20 -43 -37 -34 -10 10 34
54 52 67 57 43 16z m37 -40 c-8 -5 -21 -10 -29 -10 -11 0 -10 5 4 20 13 15 22
17 29 10 8 -8 6 -14 -4 -20z m-1182 -95 c7 -155 -9 -445 -25 -460 -7 -8 -41
-20 -73 -27 -33 -6 -60 -17 -60 -23 0 -5 -4 -3 -9 5 -4 8 -4 58 0 110 5 52 12
138 16 190 8 92 9 95 33 98 176 18 138 27 -118 27 -262 0 -262 0 -262 74 0 74
2 75 152 82 73 3 180 5 238 5 l105 -1 3 -80z m712 55 c141 -12 155 -19 144
-80 -10 -54 -22 -70 -53 -70 -39 0 -276 18 -328 25 l-43 6 0 59 c0 87 -16 84
280 60z m440 -29 c0 -12 -6 -9 -20 9 -23 29 -29 6 -6 -25 11 -16 16 -17 29 -7
13 11 15 10 12 -5 -2 -10 -4 -21 -4 -26 -2 -14 -53 26 -61 47 -4 12 -3 29 2
39 9 18 11 18 29 1 10 -9 19 -24 19 -33z m50 45 c0 -2 -7 -9 -15 -16 -12 -10
-15 -10 -15 4 0 9 7 16 15 16 8 0 15 -2 15 -4z m30 -52 c0 -8 5 -14 10 -14 17
0 35 -49 23 -61 -6 -6 -17 -8 -23 -4 -9 6 -9 9 1 16 7 4 10 11 6 15 -3 4 -13
2 -20 -5 -15 -12 -47 -5 -47 9 0 4 7 11 15 14 9 3 15 11 14 18 -3 26 1 39 11
33 6 -3 10 -13 10 -21z m-697 -130 l27 -6 0 -91 c0 -51 2 -123 5 -162 2 -38 2
-63 -1 -54 -5 17 -44 29 -91 29 -14 0 -21 -4 -18 -10 3 -5 3 -10 -2 -10 -22 0
-33 61 -33 180 0 70 3 130 7 133 6 7 32 4 106 -9z m394 -16 c-3 -7 -5 -2 -5
12 0 14 2 19 5 13 2 -7 2 -19 0 -25z m-65 -55 c2 -34 1 -60 -4 -57 -4 3 -8 35
-7 72 1 79 6 72 11 -15z m-1157 55 c2 -7 6 -100 10 -206 6 -192 6 -193 -14
-183 -16 9 -50 16 -93 20 -5 1 -8 11 -7 24 0 12 3 16 6 10 2 -7 9 -13 14 -13
6 0 7 5 4 10 -4 6 -13 69 -21 141 -15 136 -19 153 -35 144 -5 -4 -9 10 -9 29
l0 36 70 0 c48 0 72 -4 75 -12z m131 -10 c-3 -13 -11 -99 -17 -193 -6 -93 -12
-171 -13 -172 0 0 -14 -3 -31 -5 l-30 -3 -7 115 c-3 63 -9 150 -12 192 l-5 77
32 4 c82 10 90 9 83 -15z m841 8 c2 -1 -2 -29 -7 -62 -6 -32 -10 -90 -10 -129
0 -91 -7 -115 -33 -115 -20 0 -20 0 -1 15 19 14 19 14 -3 15 -12 0 -23 -6 -26
-12 -8 -22 -16 52 -20 180 l-4 123 51 -6 c28 -4 52 -8 53 -9z m137 -51 c-11
-86 -44 -199 -61 -212 -9 -7 -26 -13 -37 -13 -16 0 -17 -3 -8 -9 10 -6 8 -10
-9 -14 l-22 -6 6 145 c4 80 9 149 13 155 3 5 32 8 65 7 l60 -3 -7 -50z m123
-47 c-3 -7 -5 -2 -5 12 0 14 2 19 5 13 2 -7 2 -19 0 -25z m-1354 2 c3 -11 1
-20 -4 -20 -5 0 -9 9 -9 20 0 11 2 20 4 20 2 0 6 -9 9 -20z m1847 -37 c23 -27
47 -59 53 -72 10 -21 7 -27 -33 -62 -52 -45 -189 -125 -241 -140 -36 -11 -38
-10 -74 30 -21 22 -44 41 -53 41 -9 0 29 33 83 74 55 40 122 97 150 125 27 28
55 51 61 51 7 0 31 -21 54 -47z m-453 -5 c-3 -8 -6 -5 -6 6 -1 11 2 17 5 13 3
-3 4 -12 1 -19z m-130 -20 c-3 -7 -5 -2 -5 12 0 14 2 19 5 13 2 -7 2 -19 0
-25z m-1270 -10 c-3 -8 -6 -5 -6 6 -1 11 2 17 5 13 3 -3 4 -12 1 -19z m-479
-57 c42 -32 96 -68 120 -80 41 -21 56 -51 32 -66 -6 -4 -8 -16 -5 -28 5 -17 4
-19 -4 -7 -9 13 -11 13 -11 -2 0 -10 -6 -18 -12 -18 -9 0 -8 -4 2 -10 24 -16
6 -12 -72 16 -81 29 -208 92 -208 104 0 24 65 150 77 150 2 0 39 -26 81 -59z
m493 -85 c-11 -20 -11 -19 -8 7 3 15 1 27 -2 27 -6 0 -6 19 -1 75 1 11 7 -4
12 -34 7 -38 7 -60 -1 -75z m1416 92 c-3 -7 -5 -2 -5 12 0 14 2 19 5 13 2 -7
2 -19 0 -25z m-3 -34 c3 -8 2 -12 -4 -9 -6 3 -10 10 -10 16 0 14 7 11 14 -7z
m21 -24 c-8 -13 1 -13 26 0 10 6 19 8 19 6 0 -3 -14 -13 -31 -22 -17 -8 -28
-11 -25 -5 4 6 1 11 -6 11 -9 0 -9 3 2 10 19 12 23 12 15 0z m-77 -164 c25
-61 32 -64 103 -54 35 4 66 5 70 1 4 -5 17 -39 28 -77 30 -99 27 -223 -10
-393 l-13 -58 -7 45 c-5 25 -11 85 -13 134 -7 108 -27 146 -95 181 -37 18 -60
23 -107 21 -33 -2 -66 -6 -72 -10 -22 -13 -13 72 12 122 13 26 31 72 41 102
24 74 27 78 38 49 5 -13 16 -42 25 -63z m469 -73 c34 -90 37 -107 37 -203 0
-96 -3 -115 -37 -214 -21 -60 -58 -153 -82 -205 -32 -69 -48 -123 -59 -192 -9
-53 -23 -116 -31 -140 -25 -70 -112 -149 -165 -149 -17 0 -14 5 17 34 21 19
46 49 57 66 l19 33 -55 -42 c-67 -50 -100 -56 -57 -9 17 17 35 41 41 52 10 20
10 20 -8 5 -27 -24 -85 -52 -92 -45 -3 4 2 22 11 41 23 49 22 51 -14 21 -17
-14 -35 -24 -40 -20 -5 3 -9 33 -9 68 0 77 23 116 95 163 69 46 73 51 94 128
49 179 65 278 63 395 -2 155 -5 194 -17 203 -6 5 -1 6 10 3 24 -7 119 69 109
86 -4 6 -3 8 3 5 6 -4 21 5 34 19 28 30 25 32 76 -103z m-597 60 c-11 -17 -11
-17 -6 0 3 10 7 26 7 35 1 15 2 15 6 0 2 -10 -1 -25 -7 -35z m466 8 c-6 -10
-66 -33 -66 -26 0 3 15 11 33 19 40 18 39 18 33 7z m-1976 -92 c67 -20 100
-24 65 -9 -17 8 -16 9 9 9 20 1 27 -3 23 -13 -3 -8 -11 -32 -17 -54 -9 -29
-21 -44 -46 -55 -18 -9 -41 -28 -50 -42 -26 -40 -54 -163 -54 -239 0 -39 -7
-104 -17 -143 -16 -70 -16 -73 3 -94 10 -12 39 -31 64 -44 56 -29 88 -62 100
-106 17 -59 10 -136 -11 -123 -6 3 -7 -11 -3 -34 3 -22 2 -47 -3 -56 -7 -13
-12 -9 -27 24 -9 22 -22 40 -27 40 -6 0 -6 -7 1 -19 5 -11 10 -30 10 -42 0
-21 -6 -18 -51 26 l-52 50 33 -58 c18 -32 29 -61 26 -65 -4 -3 -33 21 -66 53
-33 33 -60 56 -60 51 0 -5 18 -35 40 -68 22 -33 40 -62 40 -64 0 -14 -62 32
-107 78 -61 63 -80 116 -93 263 -5 55 -16 162 -25 238 -22 181 -16 216 90 554
3 9 23 5 72 -14 37 -14 97 -34 133 -44z m27 65 c-3 -3 -12 -4 -19 -1 -8 3 -5
6 6 6 11 1 17 -2 13 -5z m1868 -13 c-8 -14 -32 -14 -41 0 -4 8 0 9 15 4 14 -4
21 -2 21 6 0 7 3 10 6 6 3 -3 3 -10 -1 -16z m-1726 -117 c1 -16 -6 -23 -26
-27 -16 -3 -29 -4 -31 -3 -1 2 8 27 20 57 23 53 23 54 29 24 4 -16 7 -40 8
-51z m41 14 c0 -19 -2 -20 -10 -8 -13 19 -13 30 0 30 6 0 10 -10 10 -22z m125
-76 c-3 -3 -11 0 -18 7 -9 10 -8 11 6 5 10 -3 15 -9 12 -12z m1160 -1 c-3 -6
-11 -11 -17 -11 -6 0 -6 6 2 15 14 17 26 13 15 -4z m-1120 -19 c-3 -3 -11 0
-18 7 -9 10 -8 11 6 5 10 -3 15 -9 12 -12z m1070 -2 c3 -5 1 -10 -4 -10 -6 0
-11 5 -11 10 0 6 2 10 4 10 3 0 8 -4 11 -10z m190 -17 c15 -17 28 -24 32 -18
5 6 16 11 25 13 21 3 68 -64 68 -98 0 -18 -3 -21 -9 -11 -7 11 -11 9 -20 -8
-24 -43 -71 -15 -101 61 -8 18 -27 45 -44 61 l-30 27 28 0 c17 0 36 -10 51
-27z m-1452 10 c-7 -2 -13 -12 -13 -20 0 -9 -3 -14 -6 -10 -10 10 4 37 18 36
10 0 10 -2 1 -6z m1187 -17 c0 -2 -9 -6 -20 -9 -11 -3 -20 -1 -20 4 0 5 9 9
20 9 11 0 20 -2 20 -4z m-991 -36 c12 0 21 -5 21 -11 0 -5 5 -7 11 -4 5 4 24
1 40 -5 29 -12 29 -13 10 -27 -11 -7 -30 -40 -42 -73 -12 -32 -30 -67 -41 -77
-17 -16 -22 -16 -45 -3 -56 32 -81 107 -59 176 8 27 45 44 68 33 9 -5 26 -9
37 -9z m530 -15 c1 17 3 17 11 5 6 -10 10 -11 10 -2 0 6 4 12 9 12 5 0 7 -9 4
-19 -3 -13 -16 -20 -41 -24 -46 -5 -50 -2 -26 22 17 16 20 16 26 2 5 -13 7
-12 7 4z m580 -11 c12 -15 21 -39 21 -55 0 -41 -21 -132 -34 -148 -15 -19
-109 -62 -117 -53 -3 4 -11 48 -18 97 -10 75 -16 94 -37 113 -14 12 -33 22
-42 23 -27 1 17 17 49 18 15 1 40 8 55 16 47 24 99 19 123 -11z m-356 9 c-7
-2 -21 -2 -30 0 -10 3 -4 5 12 5 17 0 24 -2 18 -5z m-286 -25 c-3 -8 -6 -5 -6
6 -1 11 2 17 5 13 3 -3 4 -12 1 -19z m-273 -26 c3 -5 53 -15 111 -22 115 -14
377 -8 454 10 24 6 45 9 47 7 11 -10 -12 -46 -32 -51 -13 -4 -24 -11 -24 -16
0 -16 -50 -12 -66 5 -13 13 -54 15 -256 14 -223 -2 -242 0 -255 17 -7 10 -13
24 -13 31 0 14 26 18 34 5z m-435 -63 c-12 -30 -27 -76 -34 -104 -15 -55 -54
-138 -55 -116 0 17 68 217 87 254 23 46 24 26 2 -34z m368 9 c-3 -7 -5 -2 -5
12 0 14 2 19 5 13 2 -7 2 -19 0 -25z m1080 -45 c-3 -10 -5 -2 -5 17 0 19 2 27
5 18 2 -10 2 -26 0 -35z m110 -31 c30 -68 31 -137 3 -145 -11 -3 -23 -1 -26 4
-5 9 -33 180 -34 208 0 26 32 -12 57 -67z m72 -22 c0 -20 -1 -22 -9 -10 -5 8
-9 33 -9 55 1 39 2 39 9 10 4 -16 8 -41 9 -55z m-755 56 c37 -15 47 -43 45
-125 -1 -74 -21 -132 -52 -155 -25 -18 -42 -21 -140 -21 -62 1 -124 4 -139 8
-40 11 -60 64 -60 165 -1 111 11 125 120 133 139 10 192 9 226 -5z m713 -18
c-3 -7 -5 -2 -5 12 0 14 2 19 5 13 2 -7 2 -19 0 -25z m-1387 -151 l0 -69 -36
7 c-78 14 -86 21 -80 67 3 24 8 68 11 99 l6 56 50 -45 49 -46 0 -69z m132 109
c-6 -48 -12 -46 -12 5 0 22 4 38 8 35 4 -3 6 -21 4 -40z m-24 -78 c-3 -57 -2
-94 2 -83 5 11 10 38 11 60 2 31 3 34 6 13 3 -16 11 -28 19 -28 11 0 13 -7 8
-27 -9 -40 -16 -45 -65 -41 l-43 3 3 50 c2 28 5 67 6 88 1 35 24 66 49 67 5 0
7 -45 4 -102z m1289 70 c-3 -7 -5 -2 -5 12 0 14 2 19 5 13 2 -7 2 -19 0 -25z
m-407 -65 c0 -7 5 -13 10 -13 6 0 11 -24 12 -52 l1 -53 6 49 c6 46 8 49 39 52
20 3 32 -1 32 -8 0 -13 57 51 76 86 10 17 13 11 19 -45 11 -100 7 -111 -47
-137 -34 -17 -67 -24 -115 -25 l-68 -2 0 117 0 116 17 -36 c10 -21 17 -43 18
-49z m-1326 31 c9 -3 17 -16 17 -28 1 -16 2 -17 6 -3 2 9 8 17 13 17 4 0 2
-28 -6 -62 -19 -82 -22 -90 -33 -84 -5 4 -12 0 -14 -6 -4 -9 -6 -8 -6 2 -1 8
-6 22 -11 30 -9 13 -11 13 -19 0 -21 -31 -20 0 0 56 12 32 23 65 25 72 4 14 6
14 28 6z m363 -46 c-2 -13 -4 -5 -4 17 -1 22 1 32 4 23 2 -10 2 -28 0 -40z
m1379 -26 c-11 -10 -14 3 -7 38 l6 35 3 -33 c2 -19 1 -36 -2 -40z m-1566 -62
c0 -5 -5 -10 -11 -10 -5 0 -7 5 -4 10 3 6 8 10 11 10 2 0 4 -4 4 -10z m23 -77
c-7 -18 -20 -65 -28 -103 -8 -39 -23 -85 -32 -103 l-17 -32 -8 94 c-7 82 -5
97 13 132 11 22 31 45 44 51 14 6 25 16 26 22 0 6 4 2 8 -9 5 -12 2 -33 -6
-52z m410 27 c27 -6 55 -17 62 -24 8 -7 41 -16 75 -20 l60 -7 -2 -227 -3 -227
-26 -12 c-14 -7 -43 -15 -65 -18 -39 -5 -206 -56 -201 -61 1 -2 54 6 117 17
133 22 130 22 110 9 -13 -8 -13 -10 2 -10 9 0 24 7 33 16 26 26 29 9 14 -83
-7 -49 -14 -92 -14 -98 -2 -21 -55 -114 -103 -180 -28 -38 -48 -73 -45 -78 6
-11 26 7 29 27 2 16 81 126 91 126 3 0 1 -6 -5 -12 -17 -22 -112 -270 -106
-279 2 -5 -2 -21 -9 -36 -10 -19 -12 -35 -6 -51 5 -14 5 -37 0 -55 -6 -23 -10
-26 -11 -12 -1 11 -10 -13 -20 -54 -9 -40 -16 -83 -14 -95 4 -20 4 -20 -4 -1
-9 18 -11 17 -24 -15 -46 -110 -51 -139 -38 -226 14 -90 8 -133 -30 -215 -21
-43 -21 -44 -15 -9 5 28 0 22 -24 -30 -17 -36 -31 -72 -31 -80 -1 -10 -4 -8
-9 5 -5 12 -4 23 3 28 7 5 3 7 -9 4 -11 -3 -40 -10 -65 -16 -25 -6 -63 -14
-85 -17 -33 -5 -36 -8 -20 -14 35 -14 3 -11 -81 10 -76 18 -133 38 -144 50
-20 22 -113 79 -120 75 -6 -4 -14 4 -19 17 -14 37 -36 51 -60 39 -17 -9 -23
-7 -35 11 -22 33 -38 118 -31 158 3 19 27 76 52 125 39 76 65 139 124 293 9
23 9 23 56 -16 54 -44 149 -102 207 -126 57 -24 56 -20 -6 18 -123 73 -266
204 -288 261 -22 58 0 183 80 460 16 55 34 119 40 143 9 36 18 46 58 66 26 13
67 43 92 66 47 44 39 44 -19 1 -29 -22 -33 -23 -24 -6 6 11 30 41 53 67 39 45
43 47 63 33 35 -24 145 -20 198 8 50 27 91 94 93 155 1 20 3 61 4 90 2 49 4
52 25 47 12 -3 44 -9 70 -15z m971 -57 c10 -24 22 -41 26 -38 7 4 -8 -96 -16
-104 -2 -2 -4 11 -4 30 0 24 -3 30 -9 20 -6 -9 -9 8 -8 47 1 37 -3 66 -11 74
-6 6 -12 21 -11 33 1 20 1 20 8 0 4 -11 15 -39 25 -62z m-364 42 c7 -8 16 -45
20 -82 11 -87 26 -136 48 -156 28 -26 118 -67 146 -67 36 0 107 29 136 56 l26
24 14 -48 c7 -26 23 -63 34 -82 l21 -35 -35 24 c-19 13 -41 31 -47 39 -7 9
-13 11 -13 5 0 -6 29 -41 64 -79 59 -64 65 -76 90 -164 37 -128 79 -246 132
-361 48 -108 48 -99 -4 -229 -16 -41 -42 -120 -57 -175 -15 -55 -33 -112 -42
-128 -8 -16 -12 -34 -10 -40 7 -21 53 85 77 176 13 48 25 86 27 84 2 -2 13
-37 24 -78 11 -41 43 -122 71 -181 l50 -106 -21 -69 c-35 -112 -68 -161 -141
-211 -120 -82 -171 -100 -295 -107 l-110 -6 -42 40 c-37 35 -65 77 -87 131 -3
8 -4 -3 -1 -25 l4 -40 -26 55 c-15 30 -37 89 -50 130 -13 45 -22 64 -22 48 -1
-15 10 -62 24 -105 14 -43 25 -86 25 -95 0 -10 11 -43 25 -74 14 -32 24 -59
21 -61 -12 -12 -72 130 -61 147 3 4 1 19 -4 32 -8 20 -9 18 -9 -15 0 -65 -9
-51 -16 24 -3 40 -26 166 -51 280 -25 115 -47 248 -50 300 -3 52 -10 112 -15
134 -13 55 -12 65 5 65 8 0 15 -4 15 -8 0 -18 114 -134 156 -158 54 -32 135
-54 194 -53 l45 1 -61 13 c-34 7 -81 23 -105 36 -61 30 -180 153 -209 214 -33
72 -51 133 -39 140 5 4 7 10 4 14 -2 5 15 4 38 -1 23 -4 69 -13 102 -18 33 -5
96 -16 140 -24 113 -21 158 -18 55 4 -170 37 -302 97 -532 245 -101 65 -101
81 -3 113 38 12 75 20 82 18 6 -3 17 2 24 10 7 9 30 23 51 31 46 18 45 27 0
14 l-32 -10 -2 42 -1 42 -4 -41 c-4 -38 -7 -42 -41 -53 -40 -12 -121 -30 -137
-31 -11 0 -10 189 1 356 l6 91 89 5 c61 4 95 11 107 21 30 27 162 36 182 12z
m-970 -37 c-4 -18 -11 -46 -15 -62 -5 -20 -4 -27 3 -22 6 3 12 -2 14 -11 3
-12 14 4 33 45 26 56 45 79 45 52 0 -5 5 -10 10 -10 6 0 10 10 10 22 0 12 3
19 6 16 9 -10 -19 -170 -33 -183 -7 -8 -13 -24 -13 -37 0 -17 -3 -19 -9 -9 -6
9 -11 10 -15 2 -10 -16 -26 -14 -26 4 0 8 -4 15 -10 15 -5 0 -10 -4 -10 -10 0
-22 -19 -8 -34 25 -19 39 -14 116 9 138 6 7 17 22 24 35 16 31 20 28 11 -10z
m1281 -10 c6 -24 18 -57 25 -74 17 -38 16 -104 -1 -98 -6 3 -18 -2 -25 -11
-17 -20 -40 -19 -40 3 -1 13 -6 10 -26 -13 -24 -28 -26 -29 -37 -12 -7 10 -29
45 -50 77 l-38 59 26 25 c14 14 28 26 31 26 3 0 13 7 22 16 10 11 17 13 20 5
5 -14 23 -14 20 0 -2 6 3 14 10 16 6 3 12 -3 13 -14 1 -18 2 -16 14 25 8 25
24 11 36 -30z m26 -10 c-3 -8 -6 -5 -6 6 -1 11 2 17 5 13 3 -3 4 -12 1 -19z
m-1181 -70 c-4 -57 -24 -128 -25 -94 -1 25 20 146 25 146 2 0 2 -24 0 -52z
m511 -520 c27 -30 32 -46 103 -348 87 -367 159 -730 169 -855 8 -104 9 -109
37 -129 16 -12 52 -39 79 -62 46 -36 50 -44 53 -87 l3 -47 -426 0 -425 0 7 28
c14 52 9 75 -15 81 -22 6 -21 8 23 51 26 25 57 63 71 86 23 38 24 48 22 190
-2 148 -1 150 46 329 26 99 80 290 121 425 40 135 79 271 86 303 7 31 15 57
19 57 4 0 16 -10 27 -22z m98 -78 c3 -5 1 -10 -4 -10 -6 0 -11 5 -11 10 0 6 2
10 4 10 3 0 8 -4 11 -10z m170 -88 c-3 -3 -11 0 -18 7 -9 10 -8 11 6 5 10 -3
15 -9 12 -12z m-128 -144 c-3 -8 -6 -5 -6 6 -1 11 2 17 5 13 3 -3 4 -12 1 -19z
m94 -48 c5 0 9 -5 9 -12 0 -7 -9 -3 -21 9 -14 14 -19 26 -13 34 7 11 10 8 12
-8 2 -13 8 -23 13 -23z m-430 -24 c-14 -36 -22 -33 -9 5 6 16 12 28 14 26 3
-2 0 -16 -5 -31z m494 -56 c10 -11 16 -20 13 -20 -3 0 -13 9 -23 20 -10 11
-16 20 -13 20 3 0 13 -9 23 -20z m-548 -122 c-3 -8 -6 -5 -6 6 -1 11 2 17 5
13 3 -3 4 -12 1 -19z m-86 -291 c-10 -9 -11 -8 -5 6 3 10 9 15 12 12 3 -3 0
-11 -7 -18z m-724 -350 c-2 -7 2 -20 11 -29 22 -26 -3 -22 -27 3 -15 17 -17
24 -8 34 14 15 30 9 24 -8z m697 -24 c-4 -15 -13 -34 -21 -41 -7 -7 -13 -18
-13 -24 0 -6 -2 -9 -5 -6 -6 6 31 98 40 98 3 0 2 -12 -1 -27z m1446 -79 c0
-22 -62 -89 -108 -116 -89 -52 -221 -99 -310 -109 -90 -10 -127 -5 -118 16 2
7 -2 22 -9 32 -14 19 -10 21 71 43 94 25 265 105 359 169 l60 41 27 -32 c15
-18 28 -38 28 -44z m-2060 41 c11 -13 10 -14 -4 -9 -9 3 -16 10 -16 15 0 13 6
11 20 -6z m1428 -50 c-3 -3 -9 2 -12 12 -6 14 -5 15 5 6 7 -7 10 -15 7 -18z
m-1409 -20 c97 -41 214 -74 340 -96 63 -10 117 -21 119 -24 3 -2 -1 -11 -8
-20 -7 -8 -10 -24 -7 -34 3 -14 -2 -21 -17 -25 -65 -17 -243 10 -355 55 -87
34 -211 105 -211 120 0 5 8 21 17 35 19 30 27 29 122 -11z m1436 -24 c-6 -5
-25 10 -25 20 0 5 6 4 14 -3 8 -7 12 -15 11 -17z m575 -97 c0 -8 -10 -14 -25
-14 -24 0 -24 1 -8 19 18 21 33 19 33 -5z m-2055 -14 c3 -5 -1 -10 -9 -10 -9
0 -16 5 -16 10 0 6 4 10 9 10 6 0 13 -4 16 -10z m555 6 c0 -3 -4 -8 -10 -11
-5 -3 -10 -1 -10 4 0 6 5 11 10 11 6 0 10 -2 10 -4z m1329 -50 c-2 -2 -15 -9
-29 -15 -24 -11 -24 -11 -6 3 16 13 49 24 35 12z m191 -25 c0 -5 -17 -12 -37
-15 -21 -4 -47 -10 -58 -13 -36 -10 -5 12 33 23 47 15 62 16 62 5z m-2003 -31
c17 -11 17 -11 1 -6 -10 3 -40 8 -68 12 -27 4 -50 10 -50 14 0 10 96 -6 117
-20z m1823 -16 c0 -8 -5 -12 -10 -9 -6 4 -8 11 -5 16 9 14 15 11 15 -7z m305
-30 c107 -52 144 -95 87 -99 -11 -1 -19 2 -16 6 7 12 -31 29 -63 29 -22 0 -25
-2 -13 -10 13 -8 13 -10 -2 -10 -27 0 -31 -19 -6 -29 19 -8 15 -10 -27 -12
-48 -2 -49 -3 -10 -6 22 -3 66 1 98 8 60 12 83 6 67 -20 -12 -20 -111 -30
-295 -30 -100 -1 -145 3 -135 9 11 7 -3 10 -46 10 -42 0 -65 5 -74 15 -10 12
-7 14 22 10 18 -3 40 -6 48 -7 33 -4 120 15 120 27 0 16 -69 36 -100 29 -20
-5 -22 -4 -10 6 12 9 10 10 -10 4 -54 -14 -89 -33 -100 -53 -12 -23 -72 -31
-67 -8 1 7 -8 12 -23 11 l-24 -1 21 14 c12 8 34 26 49 39 14 14 44 32 65 41
21 8 39 19 39 25 0 14 21 -2 28 -23 7 -17 12 -17 92 12 86 30 123 32 220 14
33 -7 34 -6 14 8 -11 9 -38 17 -60 20 l-39 4 39 1 c28 1 61 -9 111 -34z
m-2265 22 c0 -2 -21 -12 -47 -22 -67 -25 -146 -77 -160 -105 -21 -42 -24 -67
-11 -76 17 -10 500 -11 485 0 -7 5 11 5 38 2 72 -9 76 -21 14 -39 -84 -23
-200 -27 -369 -12 -85 7 -146 14 -135 15 17 1 18 3 5 11 -8 5 -23 10 -33 10
-15 0 -18 -7 -15 -37 l3 -38 65 -7 c81 -8 467 -12 498 -4 16 3 22 1 19 -7 -3
-9 -46 -12 -158 -11 -85 1 -140 -2 -124 -5 22 -5 8 -9 -55 -14 -146 -12 -178
-10 -190 14 -15 28 -52 21 -61 -11 -7 -24 -7 -24 -9 5 0 17 -3 62 -5 100 -7
119 22 166 131 210 52 22 114 33 114 21z m1920 -21 c0 -8 -2 -15 -4 -15 -2 0
-6 7 -10 15 -3 8 -1 15 4 15 6 0 10 -7 10 -15z m-1768 -20 c28 -3 59 -10 69
-16 11 -5 29 -7 40 -4 23 8 91 -29 128 -69 28 -30 26 -31 -42 -11 -47 13 -60
13 -127 -1 -41 -9 -110 -18 -152 -21 -43 -3 -78 -9 -78 -14 0 -12 -171 -11
-190 1 -11 7 -1 10 35 11 l50 1 -40 13 c-22 7 -32 13 -22 14 10 1 15 6 12 11
-3 6 -1 10 4 10 6 0 11 -7 11 -15 0 -11 11 -15 40 -15 22 0 40 5 40 10 0 6
-11 10 -25 10 -14 0 -25 5 -25 10 0 6 -7 10 -16 10 -44 0 63 65 130 80 17 3
48 3 69 -2 21 -5 61 -11 89 -13z m1821 -76 c7 -1 1 -5 -13 -9 -36 -12 -116
-12 -104 -1 10 10 71 20 92 14 8 -1 19 -3 25 -4z m-1670 -56 c-7 -2 -19 -2
-25 0 -7 3 -2 5 12 5 14 0 19 -2 13 -5z m-145 -10 c-10 -2 -28 -2 -40 0 -13 2
-5 4 17 4 22 1 32 -1 23 -4z m70 0 c-10 -2 -26 -2 -35 0 -10 3 -2 5 17 5 19 0
27 -2 18 -5z m2144 -22 c-17 -10 -17 -22 -1 -32 26 -16 -69 -22 -270 -16 -199
5 -305 18 -326 39 -7 7 0 8 20 4 41 -9 470 -6 520 4 58 11 73 12 57 1z m-1920
-38 c-10 -4 -10 -8 -1 -19 13 -16 18 -15 -91 -18 -65 -2 -75 -1 -43 5 23 4 51
12 61 18 11 6 22 7 26 4 3 -3 6 -1 6 5 0 7 12 12 28 11 15 0 21 -3 14 -6z
m1321 -30 c-3 -9 5 -14 23 -15 58 -4 90 -5 152 -7 102 -2 73 -21 -32 -21 -96
0 -136 9 -162 34 -18 19 -18 22 5 22 11 0 17 -5 14 -13z m-1900 0 c-7 -2 -19
-2 -25 0 -7 3 -2 5 12 5 14 0 19 -2 13 -5z m1954 1 c-3 -3 -12 -4 -19 -1 -8 3
-5 6 6 6 11 1 17 -2 13 -5z m-120 -10 c-3 -3 -12 -4 -19 -1 -8 3 -5 6 6 6 11
1 17 -2 13 -5z m-1454 -11 c-7 -2 -21 -2 -30 0 -10 3 -4 5 12 5 17 0 24 -2 18
-5z m2115 -15 c-2 -19 -11 -24 -53 -30 -70 -9 -387 -7 -350 2 17 4 49 8 72 9
54 1 67 20 16 23 -21 1 36 5 127 8 91 3 171 7 178 8 9 1 12 -6 10 -20z m-1925
5 c-7 -2 -19 -2 -25 0 -7 3 -2 5 12 5 14 0 19 -2 13 -5z"/>
<path d="M4907 8950 c-117 -41 -197 -88 -286 -167 l-44 -39 16 -55 c9 -29 18
-63 20 -74 2 -11 9 -19 15 -17 9 2 11 -17 6 -76 -11 -132 32 -261 120 -358
224 -248 565 -126 666 237 24 87 26 167 5 235 -14 46 -13 52 10 111 14 34 25
65 25 70 0 16 -51 63 -91 84 -57 28 -175 57 -266 64 -83 7 -85 -7 -3 -19 143
-21 304 -78 317 -112 3 -9 -4 -44 -16 -78 -17 -49 -19 -68 -11 -96 26 -90 1
-261 -53 -350 -35 -59 -93 -124 -129 -143 l-33 -18 25 21 c14 13 34 30 45 39
48 38 107 182 120 292 9 72 -10 164 -41 206 -18 23 -23 39 -18 58 9 36 23 41
21 8 -2 -22 3 -29 21 -31 12 -2 22 -1 22 1 0 16 -24 67 -31 67 -5 0 -9 5 -9
11 0 8 5 7 15 -1 11 -9 19 -10 27 -2 7 7 2 15 -20 26 l-30 15 -18 -37 c-27
-58 -26 -92 7 -119 39 -33 56 -133 40 -227 -21 -123 -82 -239 -134 -259 -9 -3
-17 -11 -17 -17 0 -5 -6 -10 -13 -10 -8 0 -27 -6 -43 -14 -50 -24 -94 -30 -94
-12 0 10 21 21 62 32 74 21 131 72 175 156 25 48 28 63 27 148 -1 113 -27 207
-57 202 -14 -2 -16 2 -12 21 6 23 3 25 -62 38 -37 8 -111 14 -163 13 -84 0
-102 -4 -154 -29 -69 -34 -109 -83 -132 -164 -34 -114 4 -253 87 -325 45 -38
138 -77 188 -78 28 -1 32 -4 27 -22 -3 -12 -6 -27 -6 -33 0 -7 -4 -13 -10 -13
-5 0 -10 11 -10 25 0 22 -5 25 -32 25 -18 0 -46 7 -62 15 -15 8 -35 15 -42 15
-8 0 -14 4 -14 9 0 5 -11 12 -24 15 -25 6 -71 57 -99 111 -9 17 -16 26 -17 20
0 -14 57 -112 70 -120 5 -3 10 -11 10 -17 0 -19 -38 27 -75 91 -56 95 -80 220
-55 285 6 18 6 26 -1 26 -11 0 -59 97 -59 121 0 37 126 121 284 191 152 67
158 79 13 28z m289 -210 c17 -10 16 -11 -6 -6 -14 3 -83 6 -155 6 -94 0 -126
3 -115 11 20 14 252 5 276 -11z m-214 -11 c65 2 68 1 78 -24 14 -36 14 -35
-22 -35 -36 0 -112 -40 -90 -48 7 -2 22 4 32 13 18 17 45 17 105 2 11 -3 25
-6 31 -6 7 -1 9 -18 7 -47 -3 -31 -1 -44 6 -39 6 3 11 17 11 31 0 13 5 24 10
24 6 0 10 -5 10 -10 0 -6 14 -24 30 -42 30 -31 35 -54 5 -24 -9 9 -25 16 -35
16 -18 0 -19 -6 -13 -65 4 -46 2 -65 -6 -65 -6 0 -11 -7 -11 -16 0 -11 -6 -15
-20 -11 -11 3 -23 1 -26 -4 -21 -35 -51 31 -34 76 12 31 50 66 62 59 8 -5 9 1
4 17 -4 13 -11 37 -15 53 -3 16 -12 31 -19 34 -14 4 -16 -14 -2 -23 6 -3 10
-18 9 -33 0 -15 -3 -21 -6 -14 -2 6 -13 12 -23 12 -25 0 -36 20 -19 31 11 7
11 9 -3 9 -9 0 -18 -5 -20 -12 -3 -9 -6 -9 -12 0 -4 8 2 16 17 21 14 6 28 15
32 20 4 8 -3 7 -22 0 -46 -19 -93 -28 -93 -18 0 5 -7 9 -15 9 -12 0 -14 -7 -9
-27 8 -34 4 -29 32 -37 16 -6 22 -3 22 8 0 21 20 20 48 -3 25 -22 28 -57 7
-85 -8 -11 -15 -14 -15 -8 0 17 -36 15 -55 -4 -9 -10 -26 -14 -40 -11 -17 3
-25 0 -25 -9 0 -26 -21 -14 -26 16 -5 23 -12 30 -30 30 -27 0 -32 -28 -13 -77
8 -23 7 -30 -7 -40 -10 -7 -13 -13 -6 -13 10 0 10 -5 2 -21 -11 -20 -12 -20
-31 -3 -11 10 -27 42 -35 73 -29 98 -1 222 65 285 29 27 79 47 95 38 5 -3 40
-4 78 -3z m158 -43 c0 -41 -6 -47 -36 -34 -30 14 -34 64 -6 70 30 7 42 -3 42
-36z m45 5 c-8 -26 12 -37 34 -17 20 18 35 21 26 5 -4 -6 2 -13 12 -15 27 -7
48 -84 48 -176 -1 -97 -11 -110 -60 -77 -38 26 -43 40 -20 59 20 16 14 45 -18
85 -18 23 -23 35 -14 38 9 3 7 9 -5 24 -24 27 -32 93 -12 93 11 0 13 -6 9 -19z
m-124 -174 c-10 -9 -11 -8 -5 6 3 10 9 15 12 12 3 -3 0 -11 -7 -18z m109 -7
c0 -5 -5 -10 -11 -10 -5 0 -7 5 -4 10 3 6 8 10 11 10 2 0 4 -4 4 -10z m-303
-104 c-4 -9 -11 -16 -17 -16 -11 0 -14 33 -3 44 11 10 26 -11 20 -28z m158 14
c10 -16 13 -60 4 -65 -5 -4 -9 3 -9 14 0 11 -5 23 -10 26 -7 4 -9 -2 -4 -19 5
-20 2 -26 -10 -26 -10 0 -13 6 -10 15 4 8 2 15 -4 15 -6 0 -12 -5 -14 -11 -2
-5 -11 -7 -21 -3 -15 5 -18 27 -8 62 2 6 82 -2 86 -8z m185 -10 c0 -5 -2 -10
-4 -10 -3 0 -8 5 -11 10 -3 6 -1 10 4 10 6 0 11 -4 11 -10z m-290 -20 c0 -5
-7 -10 -15 -10 -8 0 -15 5 -15 10 0 6 7 10 15 10 8 0 15 -4 15 -10z m255 -9
c3 -5 1 -12 -5 -16 -5 -3 -10 1 -10 9 0 18 6 21 15 7z m-245 -28 c19 -5 45
-43 30 -43 -5 0 -10 -5 -10 -11 0 -6 7 -9 15 -5 11 4 15 -1 15 -19 0 -13 -4
-27 -10 -30 -5 -3 -10 0 -10 7 0 10 -2 10 -9 -1 -5 -7 -14 -10 -20 -6 -9 5 -7
11 6 20 17 13 17 14 -4 12 -13 -1 -23 -5 -23 -9 0 -4 -7 -5 -16 -1 -10 4 -12
8 -5 13 8 4 5 12 -8 24 -18 16 -22 16 -40 4 -12 -8 -18 -19 -13 -24 4 -4 -1
-2 -12 6 -10 8 -14 16 -7 18 6 2 11 9 11 16 0 16 61 46 80 39 8 -3 22 -7 30
-10z m326 -21 c-15 -15 -16 -15 -16 5 0 12 6 23 13 26 19 6 21 -13 3 -31z
m-68 6 c18 -18 15 -28 -8 -28 -11 0 -20 -4 -20 -10 0 -5 8 -7 18 -4 15 5 15 4
-1 -6 -22 -14 -23 -14 -32 28 -6 27 -4 32 12 32 11 0 24 -5 31 -12z m-76 -20
c9 -7 18 -25 20 -41 4 -21 2 -25 -7 -17 -7 6 -16 22 -19 35 -3 13 -14 26 -24
28 -13 4 -14 5 -1 6 8 0 22 -5 31 -11z m-101 -29 c-9 -22 -10 -22 -10 -3 -1
11 2 24 6 27 12 12 14 0 4 -24z m59 -21 c0 -21 6 -28 29 -33 33 -7 63 5 104
43 15 14 27 21 27 16 0 -21 -48 -54 -105 -74 -58 -20 -90 -20 -44 0 19 8 16 9
-19 4 l-43 -6 6 29 c4 15 12 38 18 51 13 27 27 12 27 -30z m-200 25 c0 -14
-19 -38 -25 -32 -8 8 5 39 16 39 5 0 9 -3 9 -7z m230 -33 c0 -5 -4 -10 -10
-10 -5 0 -10 5 -10 10 0 6 5 10 10 10 6 0 10 -4 10 -10z m-215 -10 c3 -5 1
-10 -4 -10 -6 0 -11 5 -11 10 0 6 2 10 4 10 3 0 8 -4 11 -10z m91 -30 c14 0
24 -6 24 -14 0 -13 -6 -13 -45 1 -25 8 -47 19 -51 24 -3 5 7 4 21 -1 15 -6 37
-10 51 -10z m-146 -30 c0 -5 -4 -10 -10 -10 -5 0 -10 5 -10 10 0 6 5 10 10 10
6 0 10 -4 10 -10z m55 -40 c3 -6 -1 -7 -9 -4 -18 7 -21 14 -7 14 6 0 13 -4 16
-10z m51 -6 c-3 -7 9 -15 27 -19 22 -5 27 -9 14 -12 -21 -6 -77 18 -77 32 0 6
9 11 20 11 12 0 19 -5 16 -12z m234 2 c0 -2 -7 -7 -16 -10 -8 -3 -12 -2 -9 4
6 10 25 14 25 6z m-40 -16 c0 -5 -5 -10 -11 -10 -5 0 -7 5 -4 10 3 6 8 10 11
10 2 0 4 -4 4 -10z m-30 -10 c0 -4 -13 -10 -29 -12 -20 -3 -27 0 -24 8 5 13
53 16 53 4z"/>
<path d="M5080 8464 c0 -3 7 -13 16 -22 15 -15 18 -14 30 3 8 10 11 21 8 24
-3 3 -10 -1 -15 -9 -8 -11 -12 -12 -16 -2 -5 12 -23 17 -23 6z"/>
<path d="M4915 8310 c3 -5 11 -10 16 -10 6 0 7 5 4 10 -3 6 -11 10 -16 10 -6
0 -7 -4 -4 -10z"/>
<path d="M4965 8911 c-14 -5 -22 -20 -26 -47 l-5 -39 -14 28 c-10 20 -21 27
-42 27 -15 0 -28 -4 -28 -10 0 -5 -7 -7 -15 -4 -19 8 -19 -16 0 -62 25 -60 45
-35 32 40 -1 5 4 11 12 14 10 3 12 0 7 -13 -9 -24 2 -55 20 -55 8 0 14 5 14
10 0 6 6 10 14 10 8 0 17 6 20 13 5 10 7 10 12 0 8 -18 24 -16 24 2 0 8 7 15
15 15 21 0 21 66 -1 74 -9 3 -16 6 -17 5 -1 0 -11 -4 -22 -8z m40 -21 c4 -6
-6 -10 -22 -10 -22 0 -25 2 -13 10 19 12 27 12 35 0z"/>
<path d="M5041 8870 c-13 -61 -13 -60 -2 -60 5 0 12 10 16 23 l8 22 4 -21 c5
-25 42 -36 68 -22 12 7 22 5 36 -8 20 -18 21 -18 40 6 l20 25 -6 -30 c-3 -16
-2 -24 1 -17 3 6 13 12 23 12 40 0 54 45 23 73 -25 23 -28 22 -61 -23 l-28
-39 1 39 c1 53 -8 58 -39 21 -15 -17 -31 -31 -37 -31 -5 0 -2 7 6 16 15 14 23
54 11 54 -3 0 -17 -12 -31 -27 l-26 -28 6 33 c4 23 2 32 -8 32 -9 0 -18 -19
-25 -50z m229 -21 c0 -5 -7 -9 -15 -9 -15 0 -20 12 -9 23 8 8 24 -1 24 -14z"/>
<path d="M4774 8826 c-7 -18 24 -66 42 -66 11 0 10 9 -6 40 -22 43 -28 47 -36
26z"/>
<path d="M4707 8792 c-15 -10 -25 -23 -22 -29 2 -7 0 -13 -4 -13 -5 0 -11 6
-14 13 -2 6 -8 9 -12 5 -10 -10 20 -89 45 -117 12 -15 20 -18 25 -10 4 6 4 14
-1 18 -13 9 -34 49 -33 63 0 7 4 3 10 -10 10 -26 29 -21 29 8 0 28 21 36 37
15 9 -14 16 -16 24 -8 8 8 4 21 -13 47 -26 40 -31 41 -71 18z m34 -15 c-1 -12
-15 -9 -19 4 -3 6 1 10 8 8 6 -3 11 -8 11 -12z"/>
<path d="M3823 8697 c-17 -6 -34 -19 -36 -29 -7 -25 2 -22 43 12 19 17 32 29
30 29 -3 -1 -19 -7 -37 -12z"/>
<path d="M3747 8667 c-11 -29 -9 -43 4 -30 6 6 9 19 7 29 -3 18 -4 18 -11 1z"/>
<path d="M4694 8584 c-10 -37 0 -186 14 -209 10 -17 11 -15 4 15 -4 19 -7 77
-7 128 0 50 -1 92 -2 92 -2 0 -6 -12 -9 -26z"/>
<path d="M3617 8359 c-37 -123 -59 -225 -55 -246 2 -10 12 25 23 77 10 52 29
129 41 170 13 41 21 76 19 78 -2 2 -15 -34 -28 -79z"/>
<path d="M3631 8254 c0 -11 3 -14 6 -6 3 7 2 16 -1 19 -3 4 -6 -2 -5 -13z"/>
<path d="M3552 8065 c0 -16 2 -22 5 -12 2 9 2 23 0 30 -3 6 -5 -1 -5 -18z"/>
<path d="M3542 8000 c0 -14 2 -19 5 -12 2 6 2 18 0 25 -3 6 -5 1 -5 -13z"/>
<path d="M6653 7653 c9 -2 23 -2 30 0 6 3 -1 5 -18 5 -16 0 -22 -2 -12 -5z"/>
<path d="M6593 7643 c9 -2 23 -2 30 0 6 3 -1 5 -18 5 -16 0 -22 -2 -12 -5z"/>
<path d="M6450 7625 c-36 -7 -54 -13 -40 -13 14 0 57 5 95 12 39 8 57 14 40
14 -16 0 -59 -6 -95 -13z"/>
<path d="M6703 7633 c9 -2 25 -2 35 0 9 3 1 5 -18 5 -19 0 -27 -2 -17 -5z"/>
<path d="M6505 7605 c-66 -12 -165 -30 -220 -39 -133 -23 -197 -37 -193 -42 3
-2 42 3 89 11 95 17 142 18 89 3 -19 -6 -102 -25 -185 -43 -158 -35 -176 -46
-34 -20 83 15 183 38 414 95 254 62 272 78 40 35z m-152 -52 c-7 -2 -21 -2
-30 0 -10 3 -4 5 12 5 17 0 24 -2 18 -5z"/>
<path d="M6343 7603 c9 -2 23 -2 30 0 6 3 -1 5 -18 5 -16 0 -22 -2 -12 -5z"/>
<path d="M6810 7585 c-190 -28 -342 -56 -337 -61 2 -3 71 7 153 20 82 13 190
30 239 37 50 6 94 16 100 20 5 5 7 9 5 8 -3 -1 -75 -11 -160 -24z"/>
<path d="M6998 7603 c7 -3 16 -2 19 1 4 3 -2 6 -13 5 -11 0 -14 -3 -6 -6z"/>
<path d="M3838 7593 c7 -3 16 -2 19 1 4 3 -2 6 -13 5 -11 0 -14 -3 -6 -6z"/>
<path d="M6288 7593 c6 -2 18 -2 25 0 6 3 1 5 -13 5 -14 0 -19 -2 -12 -5z"/>
<path d="M3743 7583 c9 -2 23 -2 30 0 6 3 -1 5 -18 5 -16 0 -22 -2 -12 -5z"/>
<path d="M4063 7583 c9 -2 25 -2 35 0 9 3 1 5 -18 5 -19 0 -27 -2 -17 -5z"/>
<path d="M3865 7569 c-160 -21 -389 -61 -505 -89 -129 -31 -284 -79 -278 -86
2 -2 50 10 107 26 56 16 175 45 264 64 142 30 237 45 527 85 l65 9 -55 -1
c-30 0 -86 -4 -125 -8z"/>
<path d="M3348 7513 c7 -3 16 -2 19 1 4 3 -2 6 -13 5 -11 0 -14 -3 -6 -6z"/>
<path d="M6298 7513 c7 -3 16 -2 19 1 4 3 -2 6 -13 5 -11 0 -14 -3 -6 -6z"/>
<path d="M6438 7513 c7 -3 16 -2 19 1 4 3 -2 6 -13 5 -11 0 -14 -3 -6 -6z"/>
<path d="M5805 6834 c11 -2 45 -9 75 -15 73 -14 188 -70 224 -108 38 -40 22
-39 -62 3 -149 75 -276 86 -385 32 -165 -80 -245 -238 -234 -461 7 -147 22
-169 22 -32 0 90 5 125 23 178 12 36 30 75 38 85 15 19 15 19 9 0 -3 -11 -11
-53 -17 -93 -13 -83 0 -200 28 -256 52 -102 144 -166 250 -175 55 -4 71 -1
118 22 98 48 165 149 182 274 7 56 -11 181 -30 208 -12 16 -14 16 -34 -4 -49
-49 -149 -17 -172 54 -24 70 16 144 77 144 108 0 246 -187 268 -365 12 -93 28
-50 23 62 -3 76 -10 112 -30 162 -26 61 -26 63 -7 68 27 7 18 28 -12 30 -13 0
-28 1 -33 2 -5 1 -1 10 8 20 17 19 16 21 -33 59 -27 22 -69 49 -93 60 -54 27
-153 52 -193 51 -18 -1 -22 -3 -10 -5z m-231 -553 c32 -35 3 -94 -38 -78 -11
4 -16 18 -16 45 0 56 21 69 54 33z"/>
<path d="M4045 6736 c-66 -31 -135 -93 -163 -147 -12 -24 -17 -35 -10 -25 52
79 144 153 226 182 23 8 29 13 17 13 -11 1 -42 -10 -70 -23z"/>
<path d="M4066 6689 c-68 -28 -126 -72 -170 -129 -21 -28 -43 -47 -48 -44 -6
4 -8 -1 -4 -13 5 -15 0 -23 -19 -31 -31 -14 -33 -32 -2 -32 l22 -1 -24 -19
c-18 -15 -19 -20 -7 -20 13 0 16 -14 16 -86 0 -76 19 -186 38 -221 4 -6 5 28
4 77 -3 62 1 106 13 147 20 70 68 163 100 193 l22 21 -19 -57 c-42 -125 -33
-258 25 -369 65 -123 147 -175 274 -175 122 0 200 45 251 145 16 30 22 35 23
20 3 -42 17 41 18 111 3 202 -107 401 -261 474 -78 37 -174 40 -252 9z m335
-146 c18 -15 41 -47 51 -71 18 -40 18 -45 4 -68 -31 -46 -102 -19 -136 51 -24
50 -25 64 -4 93 20 29 46 28 85 -5z m-339 -300 c20 -18 24 -64 8 -94 -9 -15
-6 -26 11 -50 11 -17 18 -33 14 -37 -7 -7 -17 4 -62 73 -31 48 -45 99 -30 114
16 16 38 14 59 -6z"/>
<path d="M6106 6071 c-27 -30 -144 -88 -216 -106 -66 -17 -221 -17 -264 1 -13
5 -17 4 -13 -3 7 -11 60 -21 142 -27 97 -8 289 60 349 123 17 17 27 31 24 31
-3 0 -13 -9 -22 -19z"/>
<path d="M3935 5985 c74 -69 202 -106 353 -103 l87 1 -105 7 c-157 10 -260 42
-341 105 -26 21 -25 18 6 -10z"/>
<path d="M4388 5893 c7 -3 16 -2 19 1 4 3 -2 6 -13 5 -11 0 -14 -3 -6 -6z"/>
<path d="M4931 5868 c-11 -29 4 -58 29 -58 24 0 28 44 6 66 -20 19 -25 18 -35
-8z"/>
<path d="M5284 5601 c-70 -52 -133 -66 -289 -66 -136 0 -142 1 -200 30 -33 17
-63 32 -67 33 -5 2 -8 -3 -8 -12 0 -22 44 -42 132 -60 106 -22 228 -20 324 4
78 20 164 64 172 88 7 21 -22 13 -64 -17z"/>
<path d="M6617 6574 c-3 -4 15 -17 42 -30 64 -32 100 -72 122 -136 l18 -53 1
59 c0 74 -26 121 -84 147 -41 19 -87 25 -99 13z"/>
<path d="M3364 6440 c-47 -19 -85 -108 -72 -166 5 -18 5 -18 12 1 5 11 13 33
19 49 6 16 26 44 44 63 38 38 84 44 116 16 14 -13 19 -14 15 -4 -5 18 -67 51
-93 50 -11 0 -30 -4 -41 -9z"/>
<path d="M4960 4980 c-9 -6 -10 -10 -3 -10 6 0 15 5 18 10 8 12 4 12 -15 0z"/>
<path d="M4920 4959 c0 -5 5 -7 10 -4 6 3 10 8 10 11 0 2 -4 4 -10 4 -5 0 -10
-5 -10 -11z"/>
<path d="M4283 4465 c0 -38 2 -53 4 -32 2 20 2 52 0 70 -2 17 -4 1 -4 -38z"/>
<path d="M4281 4359 c1 -19 5 -45 9 -59 6 -16 7 -6 3 30 -7 63 -13 80 -12 29z"/>
<path d="M4277 4263 c-7 -13 -18 -83 -13 -83 7 0 28 81 23 87 -3 2 -7 1 -10
-4z"/>
<path d="M4256 4157 c3 -10 9 -15 12 -12 3 3 0 11 -7 18 -10 9 -11 8 -5 -6z"/>
<path d="M4286 4155 c4 -8 8 -15 10 -15 2 0 4 7 4 15 0 8 -4 15 -10 15 -5 0
-7 -7 -4 -15z"/>
<path d="M4201 3954 c0 -11 3 -14 6 -6 3 7 2 16 -1 19 -3 4 -6 -2 -5 -13z"/>
<path d="M4704 3546 c11 -9 27 -16 35 -15 14 0 14 1 1 6 -8 3 -24 10 -35 15
-20 9 -20 9 -1 -6z"/>
<path d="M5150 3491 c0 -10 19 -25 25 -20 1 2 -3 10 -11 17 -8 7 -14 8 -14 3z"/>
<path d="M4558 4303 c-6 -22 -3 -23 45 -22 29 1 41 4 27 6 -14 3 -28 10 -32
17 -6 8 -8 8 -8 -1 0 -19 -18 -15 -22 5 -3 14 -5 13 -10 -5z"/>
<path d="M4625 4310 c-3 -5 1 -10 10 -10 9 0 13 5 10 10 -3 6 -8 10 -10 10 -2
0 -7 -4 -10 -10z"/>
<path d="M4470 4298 c0 -14 8 -18 38 -17 22 1 29 3 17 7 l-20 5 20 8 c19 7 19
8 -2 8 -12 1 -24 -5 -26 -11 -4 -10 -8 -9 -16 2 -9 13 -11 13 -11 -2z"/>
<path d="M5310 4315 c0 -26 4 -35 18 -37 9 0 28 -3 42 -5 14 -2 63 -5 110 -7
47 -1 90 -4 95 -6 6 -2 17 0 25 3 8 3 24 7 35 9 14 2 21 12 23 32 4 29 3 29
-41 23 -24 -4 -47 -3 -51 0 -4 4 -39 8 -79 10 -40 2 -96 5 -124 8 l-53 5 0
-35z m74 1 c-3 -8 -14 -16 -25 -19 -22 -6 -24 -2 -6 18 16 18 38 19 31 1z m77
-4 c-6 -11 -22 -18 -43 -19 -18 0 -25 1 -15 4 9 2 17 8 17 13 0 5 6 7 14 4 8
-3 17 -1 21 5 11 18 16 12 6 -7z m63 -8 c9 -3 14 -10 11 -15 -7 -10 -35 0 -35
12 0 11 3 11 24 3z m83 -16 c-3 -8 -6 -5 -6 6 -1 11 2 17 5 13 3 -3 4 -12 1
-19z"/>
<path d="M5836 3452 c-3 -5 1 -9 9 -9 8 0 12 4 9 9 -3 4 -7 8 -9 8 -2 0 -6 -4
-9 -8z"/>
<path d="M4901 3252 c-26 -21 -36 -74 -26 -139 6 -44 8 -46 21 -28 7 11 18 25
23 31 7 8 3 14 -12 18 -21 6 -21 7 -3 18 15 8 22 7 31 -6 7 -9 17 -16 24 -16
10 0 15 -13 12 -32 0 -4 11 -2 26 5 26 11 26 12 5 15 -23 3 -30 26 -12 37 6 3
10 15 10 26 0 11 7 19 17 19 9 0 14 3 10 6 -12 12 -45 -8 -51 -31 l-6 -24 -45
17 c-50 18 -63 37 -13 20 28 -10 33 -9 50 12 27 33 22 46 -6 13 -19 -22 -26
-25 -38 -15 -8 6 -18 9 -21 5 -4 -3 -7 -2 -7 4 0 6 15 14 33 18 28 6 30 8 12
15 -16 7 -14 9 14 9 39 1 38 5 0 15 -18 4 -34 0 -48 -12z"/>
<path d="M5028 3263 c-35 -5 -37 -23 -3 -23 19 0 23 -4 18 -17 -5 -12 -2 -15
10 -10 15 6 42 -15 31 -25 -17 -18 -13 -60 8 -81 13 -13 30 -32 38 -43 14 -18
14 -18 -6 -1 -29 24 -39 21 -20 -8 21 -31 20 -35 -4 -35 -11 0 -20 4 -20 8 0
5 -6 17 -14 27 -14 19 -15 19 -35 1 -19 -17 -21 -17 -27 -2 -8 21 -24 21 -25
-1 0 -15 -2 -15 -9 2 -5 11 -9 15 -9 9 -1 -7 -10 -14 -22 -17 -15 -4 -18 -2
-10 7 6 7 8 16 4 19 -3 4 2 9 11 13 22 8 20 24 -3 24 -12 0 -23 -9 -27 -22 -4
-13 -11 -26 -17 -30 -18 -11 46 -57 88 -63 78 -12 145 12 175 62 38 65 18 203
-31 203 -9 0 -29 2 -45 4 -16 2 -41 2 -56 -1z m62 -23 c0 -5 -4 -10 -10 -10
-5 0 -10 5 -10 10 0 6 5 10 10 10 6 0 10 -4 10 -10z m58 -12 c10 -14 16 -60
13 -115 -1 -23 -6 -33 -17 -33 -10 0 -14 6 -10 15 3 8 1 15 -4 15 -6 0 -10 5
-10 11 0 5 5 7 10 4 6 -4 10 12 10 39 0 25 -4 46 -8 46 -5 0 -6 -14 -4 -31 3
-22 1 -30 -7 -25 -6 4 -11 16 -11 26 0 10 -5 22 -12 26 -7 5 -5 11 7 21 23 16
30 16 43 1z"/>
<path d="M4401 3084 c0 -11 3 -14 6 -6 3 7 2 16 -1 19 -3 4 -6 -2 -5 -13z"/>
<path d="M4739 1923 l-24 -28 28 24 c25 23 32 31 24 31 -2 0 -14 -12 -28 -27z"/>
<path d="M4752 1796 c-18 -30 -32 -57 -32 -60 0 -15 -93 -148 -141 -201 -41
-45 -46 -54 -22 -37 73 52 229 259 210 279 -4 3 1 19 9 35 27 51 10 40 -24
-16z m-1 -39 c-10 -9 -11 -8 -5 6 3 10 9 15 12 12 3 -3 0 -11 -7 -18z"/>
<path d="M4771 1734 c0 -11 3 -14 6 -6 3 7 2 16 -1 19 -3 4 -6 -2 -5 -13z"/>
<path d="M5184 2780 c0 -85 2 -120 3 -77 2 42 2 112 0 155 -1 42 -3 7 -3 -78z"/>
<path d="M5163 2725 c0 -27 2 -38 4 -22 2 15 2 37 0 50 -2 12 -4 0 -4 -28z"/>
<path d="M5745 2690 c10 -11 20 -20 23 -20 3 0 -3 9 -13 20 -10 11 -20 20 -23
20 -3 0 3 -9 13 -20z"/>
<path d="M5152 2610 c0 -19 2 -27 5 -17 2 9 2 25 0 35 -3 9 -5 1 -5 -18z"/>
<path d="M5725 2591 c22 -23 48 -47 59 -53 31 -17 10 7 -47 53 l-52 43 40 -43z"/>
<path d="M5498 1417 c12 -14 112 -71 112 -64 0 3 -28 21 -62 41 -34 21 -56 31
-50 23z"/>
<path d="M6140 700 c0 -5 7 -10 16 -10 8 0 12 5 9 10 -3 6 -10 10 -16 10 -5 0
-9 -4 -9 -10z"/>
<path d="M6023 573 c15 -2 39 -2 55 0 15 2 2 4 -28 4 -30 0 -43 -2 -27 -4z"/>
<path d="M3913 623 c15 -2 39 -2 55 0 15 2 2 4 -28 4 -30 0 -43 -2 -27 -4z"/>
</g>
</svg>
