<?xml version="1.0" standalone="no"?>
<!DOCTYPE svg PUBLIC "-//W3C//DTD SVG 20010904//EN"
 "http://www.w3.org/TR/2001/REC-SVG-20010904/DTD/svg10.dtd">
<svg version="1.0" xmlns="http://www.w3.org/2000/svg"
 width="1024.000000pt" height="1024.000000pt" viewBox="0 0 1024.000000 1024.000000"
 preserveAspectRatio="xMidYMid meet">
<metadata>
Created by potrace 1.16, written by Peter Selinger 2001-2019
</metadata>
<g transform="translate(0.000000,1024.000000) scale(0.100000,-0.100000)"
fill="#000000" stroke="none">
<path d="M5090 9729 c-360 -25 -732 -130 -1085 -304 -93 -46 -217 -115 -275
-153 -480 -314 -785 -748 -855 -1216 -8 -54 -16 -100 -17 -101 -2 -1 -48 -31
-103 -67 -382 -247 -542 -501 -480 -763 9 -38 29 -142 45 -230 85 -468 193
-716 362 -825 61 -40 191 -87 273 -98 l50 -7 18 -65 c45 -164 59 -387 36 -575
-17 -143 -62 -302 -132 -467 -36 -84 -74 -182 -85 -218 -62 -203 -54 -471 20
-660 93 -236 335 -443 591 -504 24 -6 21 0 -30 51 -67 67 -119 161 -157 281
-36 114 -32 121 14 29 109 -215 284 -392 443 -448 20 -7 37 -18 37 -24 -1 -48
-54 -315 -74 -374 -33 -95 -33 -140 1 -202 40 -74 138 -138 211 -139 38 0 38
-4 12 -89 -17 -53 -18 -70 -9 -101 8 -27 8 -51 0 -89 -20 -92 -15 -115 28
-154 24 -21 62 -42 98 -53 32 -10 69 -28 82 -40 l24 -22 -22 -199 c-26 -236
-36 -283 -61 -303 -22 -18 -80 -125 -80 -149 0 -9 7 -27 17 -40 14 -21 16 -50
14 -209 -3 -201 -4 -207 -65 -288 -17 -23 -35 -49 -41 -58 -8 -14 -49 -19
-250 -31 -457 -28 -776 -67 -862 -105 -196 -87 322 -177 1267 -221 371 -17
1444 -23 1890 -10 444 13 595 21 895 52 470 47 650 88 650 149 0 22 -8 28 -65
47 -77 26 -215 47 -472 72 l-187 19 -46 45 c-29 30 -69 55 -114 74 -56 23 -71
33 -80 59 -15 43 -74 109 -110 124 -17 7 -33 21 -36 31 -4 10 -12 19 -19 19
-10 0 -15 34 -19 132 -6 138 -24 213 -67 283 -11 18 -20 46 -20 64 0 90 -86
402 -164 590 -31 78 -31 75 -5 111 28 37 22 78 -26 191 -19 46 -35 93 -35 104
0 29 -36 94 -75 135 -21 23 -35 49 -39 76 -3 22 -17 79 -30 125 -26 91 -24 99
27 99 16 0 58 12 93 26 36 14 67 24 70 21 2 -2 0 -17 -6 -32 -15 -40 -50 -200
-50 -231 0 -18 6 -28 20 -31 11 -3 23 -17 26 -32 10 -41 53 -80 110 -98 95
-29 207 9 271 93 26 36 28 43 28 138 l0 101 69 35 c105 53 272 165 327 220 42
42 49 46 49 27 -1 -39 -48 -158 -85 -214 -34 -51 -35 -54 -13 -48 70 21 200
140 275 252 101 152 165 332 194 543 11 82 14 91 22 65 4 -16 11 -95 14 -175
5 -129 3 -154 -16 -225 -12 -44 -36 -104 -52 -134 -17 -29 -28 -56 -25 -59 17
-16 167 51 232 103 140 114 238 249 322 445 9 20 10 10 5 -44 -6 -68 -6 -68
16 -57 31 17 86 106 112 181 31 90 38 289 15 412 -35 185 -108 353 -281 649
-201 343 -309 618 -350 893 -33 224 -13 289 116 375 150 100 269 236 350 401
88 178 132 365 133 565 1 212 -56 354 -204 508 -168 176 -426 338 -750 470
-32 13 -43 30 -127 198 -328 657 -682 1054 -1106 1240 -118 52 -367 76 -617
58z m455 -73 c349 -71 682 -362 1019 -890 42 -65 76 -123 76 -128 0 -6 -8 -7
-17 -3 -111 47 -288 91 -468 115 -44 6 -205 13 -357 17 -164 3 -278 10 -278
15 0 6 7 35 16 66 24 82 15 237 -19 320 -48 119 -136 221 -237 272 -55 28
-159 57 -230 65 -235 24 -472 -120 -545 -332 -58 -165 -39 -310 62 -494 2 -4
-36 -16 -84 -28 -285 -72 -551 -181 -988 -405 -27 -14 -115 -51 -195 -82 -80
-31 -198 -82 -264 -113 l-118 -57 6 48 c9 63 50 204 87 298 138 345 448 689
828 918 352 212 835 373 1246 416 79 8 391 -4 460 -18z m-396 -211 c203 -54
335 -203 361 -407 19 -155 -25 -281 -143 -404 -98 -104 -186 -148 -307 -152
-154 -7 -285 44 -394 153 -84 84 -124 155 -143 255 -30 152 9 301 108 405 106
112 225 164 374 165 50 0 114 -7 144 -15z m1001 -735 c173 -16 323 -46 299
-60 -9 -6 -6 -23 12 -66 49 -120 98 -212 116 -217 16 -4 15 -5 -2 -6 -12 0
-45 5 -75 13 -238 61 -576 99 -1012 112 l-227 7 42 27 c52 33 148 134 172 179
l17 34 272 -6 c149 -4 323 -11 386 -17z m-1499 -128 c29 -27 77 -62 104 -78
l50 -29 -60 -7 c-33 -3 -130 -14 -215 -23 -241 -26 -656 -103 -815 -151 -98
-30 242 118 434 189 130 48 409 140 442 146 3 1 30 -21 60 -47z m2087 -153
c-3 -8 -7 -3 -11 10 -4 17 -3 21 5 13 5 -5 8 -16 6 -23z m-1018 -29 c563 -32
951 -114 1333 -281 401 -176 647 -371 747 -593 17 -38 29 -70 27 -72 -2 -2
-19 17 -37 42 -42 58 -110 126 -203 202 -279 228 -599 353 -1102 431 -384 60
-620 75 -1135 75 -547 -1 -753 -17 -1225 -95 -132 -22 -287 -50 -345 -63 -58
-14 -106 -23 -108 -21 -6 5 200 82 318 119 288 89 577 135 975 156 572 30
1106 -7 1619 -111 126 -26 354 -88 419 -114 9 -4 17 -4 17 -1 0 17 -268 108
-460 156 -432 108 -897 150 -1440 130 -549 -20 -1006 -98 -1380 -233 -365
-133 -878 -376 -1102 -523 -110 -73 -261 -215 -291 -274 -13 -29 -17 -31 -17
-13 0 39 40 132 91 207 206 309 814 598 1579 750 352 71 580 97 1135 129 123
8 425 6 585 -3z m1017 -42 c-3 -8 -6 -5 -6 6 -1 11 2 17 5 13 3 -3 4 -12 1
-19z m78 -58 c3 -5 1 -10 -4 -10 -6 0 -11 5 -11 10 0 6 2 10 4 10 3 0 8 -4 11
-10z m-1682 -225 c159 -40 340 -101 472 -160 261 -117 364 -185 575 -383 l75
-70 -45 10 c-74 17 -296 14 -367 -5 -170 -45 -295 -159 -264 -241 19 -47 48
-51 131 -18 265 104 586 105 781 1 60 -32 91 -62 189 -182 49 -61 125 -130
152 -139 7 -3 8 -24 4 -60 l-7 -55 -46 -7 c-66 -9 -191 -7 -197 2 -3 5 15 26
41 47 43 36 108 123 99 133 -3 2 -17 -8 -33 -22 -29 -27 -91 -59 -133 -69 -17
-4 -33 1 -49 14 l-23 19 25 21 c32 25 62 66 72 99 l7 25 -23 -20 c-56 -49 -53
-49 -110 0 -118 101 -290 128 -467 73 -60 -18 -182 -73 -182 -82 0 -2 37 12
83 30 148 59 293 64 440 16 65 -22 139 -70 134 -86 -6 -19 -39 -19 -66 2 -139
102 -373 111 -545 19 -87 -46 -170 -127 -206 -200 -37 -77 -62 -191 -58 -271
l3 -61 12 63 c14 72 54 166 85 199 34 36 39 27 15 -24 -29 -67 -29 -213 0
-295 28 -77 88 -164 137 -201 l41 -30 -55 6 c-31 4 -48 3 -40 -2 73 -41 333
-48 463 -13 84 23 204 81 233 113 18 20 17 20 -10 10 -15 -6 -35 -11 -43 -11
-14 0 -13 3 3 23 56 63 94 167 95 264 l1 68 15 -35 c16 -36 14 -163 -2 -205
-18 -43 34 17 59 69 31 63 40 126 28 189 -9 44 -8 47 12 47 11 0 52 14 91 30
78 34 100 37 91 15 -3 -9 -10 -138 -16 -288 -18 -463 -44 -587 -155 -742 -107
-150 -267 -252 -592 -379 -263 -103 -590 -199 -788 -232 -131 -22 -319 -15
-520 21 -792 139 -1180 391 -1274 826 -11 53 -32 175 -46 270 -39 263 -52 332
-87 478 -23 95 -30 135 -21 138 32 11 175 220 389 570 154 252 226 354 392
554 l63 76 157 21 c221 30 426 47 605 50 76 2 121 -4 200 -23z m1472 -246
c278 -246 430 -489 459 -736 6 -47 5 -53 -12 -53 -10 0 -31 14 -48 32 -16 18
-21 26 -11 19 9 -8 19 -12 22 -10 4 4 -18 36 -150 214 -66 88 -283 334 -393
444 -72 72 -77 79 -36 50 53 -37 265 -245 413 -404 97 -105 97 -103 4 35 -93
137 -95 138 74 -43 25 -27 47 -47 48 -45 2 2 -30 53 -72 113 -81 118 -203 265
-320 384 -70 71 -97 106 -50 64 12 -11 45 -39 72 -64z m-585 -3 c42 -28 139
-113 220 -195 80 -79 136 -137 125 -129 -21 15 -423 363 -440 381 -15 15 10 0
95 -57z m-2478 -153 c-198 -274 -289 -421 -404 -657 -63 -130 -67 -124 -11 19
99 252 273 529 442 703 23 23 44 42 46 42 3 0 -31 -48 -73 -107z m3138 -313
c107 -108 223 -234 258 -281 l63 -84 -62 70 c-34 39 -182 189 -328 334 -184
183 -244 248 -196 211 39 -29 158 -142 265 -250z m-3034 158 c-45 -68 -109
-165 -141 -215 -31 -51 -59 -93 -61 -93 -9 0 61 129 123 226 54 87 145 204
159 204 2 0 -34 -55 -80 -122z m-687 -20 c-58 -176 -99 -399 -99 -541 0 -54
-3 -55 -140 -64 -108 -6 -172 4 -273 45 -48 19 -69 33 -73 49 -3 11 -4 77 -2
146 3 123 4 126 34 164 34 42 181 150 258 190 63 32 211 89 279 108 29 7 52
14 53 14 0 1 -16 -50 -37 -111z m4580 65 c31 -15 97 -67 155 -122 55 -53 94
-87 86 -77 -9 13 -10 17 -2 12 19 -11 59 -96 66 -142 14 -83 -47 -341 -99
-416 -33 -48 -103 -96 -151 -103 -90 -14 -141 65 -180 276 -13 74 -39 190 -56
259 -46 187 -55 256 -37 288 33 59 129 70 218 25z m-3989 3 c0 -2 -8 -10 -17
-17 -16 -13 -17 -12 -4 4 13 16 21 21 21 13z m-84 -113 c-104 -150 -230 -381
-296 -545 -13 -32 -25 -56 -28 -54 -9 10 100 256 161 361 44 76 171 270 195
298 32 37 20 14 -32 -60z m3499 -323 c10 -11 16 -20 13 -20 -3 0 -13 9 -23 20
-10 11 -16 20 -13 20 3 0 13 -9 23 -20z m-672 -344 c65 -27 127 -122 127 -195
0 -44 -20 -75 -62 -97 -82 -43 -202 64 -215 191 -5 50 -4 56 25 84 34 35 72
40 125 17z m920 -236 c68 -59 77 -188 23 -342 -41 -116 -88 -196 -153 -260
-57 -56 -105 -78 -170 -78 -70 0 -77 7 -57 61 35 97 54 217 60 374 l7 160 41
39 c53 50 109 76 168 76 38 0 54 -6 81 -30z m-4056 -51 c93 -45 152 -157 178
-333 9 -66 28 -162 42 -215 42 -163 47 -145 -35 -139 -146 11 -252 121 -328
341 -52 149 -41 284 27 342 37 30 60 31 116 4z m4093 -694 c38 -253 141 -509
336 -830 151 -250 235 -439 263 -590 17 -89 24 -236 16 -300 l-7 -59 -33 129
c-18 72 -44 164 -58 206 -27 79 -77 192 -83 186 -2 -1 8 -37 21 -79 67 -211
51 -435 -45 -644 -46 -100 -100 -176 -194 -272 -102 -105 -112 -107 -66 -14
50 101 88 227 99 327 l8 80 2 -95 c1 -84 -7 -137 -34 -219 -14 -46 16 -10 44
52 47 104 56 157 55 337 0 139 -5 185 -28 295 -27 128 -116 404 -235 725 -62
166 -145 441 -156 515 -3 22 14 -18 38 -90 49 -144 124 -322 257 -610 184
-398 225 -527 239 -759 l7 -121 8 79 c22 207 -17 377 -161 706 -90 205 -168
398 -206 510 -70 210 -119 482 -116 644 l1 61 8 -45 c5 -25 14 -81 20 -125z
m-4018 -295 c29 -115 32 -139 32 -290 1 -184 -14 -266 -81 -450 -19 -52 -55
-151 -79 -220 -35 -99 -43 -115 -37 -75 3 28 12 75 19 105 7 30 11 56 9 58 -6
7 -42 -72 -68 -148 -68 -204 -58 -419 28 -613 34 -78 15 -63 -40 31 -84 142
-116 264 -116 429 1 171 18 229 179 618 31 76 64 198 84 310 13 77 17 326 6
420 l-7 60 20 -55 c11 -30 34 -111 51 -180z m3915 98 c-3 -8 -6 -5 -6 6 -1 11
2 17 5 13 3 -3 4 -12 1 -19z m-3777 -415 c-7 -46 -14 -82 -16 -80 -3 2 1 46 8
96 7 51 14 87 17 80 2 -7 -2 -50 -9 -96z m-26 -137 c-3 -21 -8 -35 -11 -32 -2
2 -1 20 3 40 3 21 8 35 11 32 2 -2 1 -20 -3 -40z m2081 -40 c30 -30 39 -79 31
-164 -3 -37 -9 -107 -12 -155 l-7 -89 -31 6 c-17 3 -68 9 -113 12 -46 4 -83 9
-83 11 0 3 45 65 100 139 99 132 117 173 87 191 -16 9 -30 57 -20 67 11 11 23
7 48 -18z m-596 8 c27 -6 30 -10 25 -28 -4 -11 -15 -32 -25 -45 -28 -35 -21
-137 16 -232 5 -13 -7 -18 -72 -27 -43 -6 -87 -14 -97 -18 -18 -7 -19 -3 -12
77 13 160 41 238 97 266 28 15 27 15 68 7z m481 -38 c0 -19 5 -47 10 -61 9
-24 5 -34 -38 -88 -72 -92 -136 -184 -200 -290 l-58 -95 -57 131 c-32 73 -66
161 -77 197 l-20 64 32 78 31 78 101 1 c55 1 126 4 156 9 30 4 70 8 88 9 30 1
32 -1 32 -33z m-1983 2 c-3 -8 -6 -5 -6 6 -1 11 2 17 5 13 3 -3 4 -12 1 -19z
m2358 -62 c20 -15 42 -38 51 -51 14 -21 14 -26 0 -53 -21 -40 -55 -216 -64
-332 -8 -109 -6 -107 -122 -102 l-70 4 0 106 c0 219 31 421 68 450 26 21 96 9
137 -22z m-1069 -28 c3 -12 1 -78 -5 -147 -7 -69 -18 -202 -26 -295 -9 -117
-17 -171 -27 -177 -22 -15 -81 -29 -119 -29 l-37 0 -7 137 c-10 173 -1 353 19
418 20 65 60 103 117 113 56 10 77 5 85 -20z m1219 -234 c92 -109 235 -337
235 -376 0 -8 -28 -35 -62 -60 -72 -52 -287 -188 -299 -188 -4 0 -10 34 -14
76 -13 139 45 614 76 614 4 0 33 -30 64 -66z m-1471 -474 c9 -30 16 -67 16
-83 0 -27 -2 -29 -27 -22 -56 13 -277 159 -289 189 -3 8 18 43 46 78 49 60 95
127 185 270 l40 63 6 -221 c5 -155 12 -237 23 -274z m-1137 458 c-3 -8 -6 -5
-6 6 -1 11 2 17 5 13 3 -3 4 -12 1 -19z m1684 -67 l29 -63 -39 35 c-22 20 -49
40 -60 47 -12 6 -21 15 -21 21 0 10 39 29 54 25 4 -1 21 -30 37 -65z m-161 28
c0 -6 6 -9 13 -6 6 2 40 -20 74 -49 34 -28 72 -59 84 -67 28 -20 51 -114 39
-160 -10 -36 -33 -225 -51 -420 -7 -73 -9 -172 -5 -228 l6 -100 -32 5 c-18 3
-91 15 -163 27 -71 12 -142 24 -157 26 -28 5 -37 26 -17 39 22 14 78 148 89
216 12 69 15 74 79 140 57 58 72 68 101 68 57 1 69 18 100 139 l28 111 -37 10
c-20 6 -76 16 -126 21 -142 17 -135 14 -135 58 0 21 3 66 6 99 6 54 10 62 33
71 36 13 71 13 71 0z m465 -76 l36 -47 -83 -27 c-94 -31 -98 -32 -98 -20 0 9
98 141 105 141 2 0 20 -21 40 -47z m-2018 15 c-3 -8 -6 -5 -6 6 -1 11 2 17 5
13 3 -3 4 -12 1 -19z m2233 7 c6 -3 10 -49 10 -104 l0 -98 -89 -7 c-126 -10
-124 -6 -129 -214 -5 -179 11 -439 28 -456 7 -7 10 38 10 135 0 194 11 390 22
383 4 -3 8 -19 8 -35 0 -17 5 -39 10 -49 10 -19 94 -50 136 -50 20 0 24 -8 34
-57 19 -102 61 -225 106 -314 l43 -87 -72 -13 c-40 -6 -103 -12 -142 -13 -59
-1 -75 3 -103 23 -46 33 -52 19 -9 -24 35 -35 36 -35 119 -35 74 0 169 11 219
26 13 3 25 -16 54 -83 52 -121 77 -195 68 -204 -14 -12 -117 -47 -214 -73
-106 -28 -260 -52 -395 -62 l-91 -7 -6 49 c-61 462 -82 811 -58 964 29 186 60
226 216 279 52 18 95 39 95 46 0 6 -14 31 -31 55 l-31 43 91 -6 c50 -3 95 -8
101 -12z m-2373 -157 c-3 -8 -6 -5 -6 6 -1 11 2 17 5 13 3 -3 4 -12 1 -19z
m1852 -63 c2 -3 -3 -21 -13 -41 l-17 -36 -87 6 c-161 12 -162 13 -162 53 l0
36 137 -7 c75 -4 139 -9 142 -11z m752 -55 c-1 -30 -5 -58 -7 -62 -3 -5 -41
-8 -85 -8 l-79 0 0 28 c0 15 -3 44 -6 65 l-7 38 94 -3 93 -3 -3 -55z m-211 6
l0 -33 -87 -7 c-92 -8 -106 -2 -101 39 3 17 13 21 63 26 129 12 125 13 125
-25z m-704 -48 c88 -11 94 -13 94 -34 0 -17 -7 -25 -22 -28 -13 -2 -59 -11
-103 -20 -44 -9 -84 -16 -88 -16 -4 0 -7 25 -7 55 0 63 -10 60 126 43z m-637
-72 c85 -54 211 -118 251 -129 17 -4 20 -13 20 -66 0 -43 -4 -61 -13 -61 -27
0 -175 80 -253 136 -145 105 -137 97 -117 138 9 20 19 36 21 36 3 0 44 -24 91
-54z m2011 25 c22 -42 12 -56 -82 -118 -78 -51 -305 -173 -323 -173 -3 0 -5
12 -5 28 0 32 59 84 164 144 36 20 100 59 143 87 43 28 81 51 85 51 4 0 12 -9
18 -19z m-1557 -92 c-5 -5 -37 -12 -71 -15 -56 -6 -62 -5 -62 12 0 10 -3 29
-6 42 -6 20 -3 22 27 22 19 0 52 9 74 19 l40 18 3 -45 c2 -25 -1 -49 -5 -53z
m897 65 l0 -36 -57 7 c-70 8 -73 10 -73 38 0 20 6 23 65 25 l65 3 0 -37z m180
-55 l0 -29 -64 0 c-60 0 -64 2 -70 25 -4 14 -5 29 -2 33 2 4 34 5 70 4 65 -4
66 -4 66 -33z m-1507 -127 c37 -30 67 -57 67 -62 0 -4 -13 -39 -30 -79 -64
-155 -200 -621 -200 -685 0 -11 15 -36 34 -56 39 -40 66 -110 73 -192 5 -54 4
-58 -15 -58 -14 0 -31 14 -49 41 -27 40 -28 41 -34 18 -16 -56 -10 -79 31
-118 22 -21 40 -42 40 -48 0 -18 -83 -48 -131 -47 -65 1 -153 45 -185 94 -18
27 -25 51 -26 88 0 28 2 55 5 59 3 5 19 83 36 174 63 345 148 634 247 847 32
69 47 91 57 85 7 -4 43 -32 80 -61z m437 5 c0 -59 -30 -180 -50 -201 -4 -4
-13 1 -19 12 -12 23 -39 145 -43 193 -1 17 -7 34 -13 37 -5 4 17 10 50 13 33
3 63 6 68 7 4 1 7 -27 7 -61z m1070 -97 c0 -77 -3 -140 -7 -140 -12 0 -94 179
-111 243 l-10 37 64 0 64 0 0 -140z m497 -30 c166 -330 318 -819 298 -955 -14
-90 -103 -155 -212 -155 -52 0 -66 4 -92 26 -36 30 -38 40 -13 46 14 4 20 18
25 54 3 27 9 65 12 84 l7 35 -20 -30 c-26 -40 -90 -100 -98 -92 -9 8 22 142
56 243 26 76 28 91 19 137 -18 100 -124 389 -208 571 -23 49 -38 93 -34 97 26
23 160 108 168 106 6 -1 47 -76 92 -167z m1360 108 c-3 -8 -6 -5 -6 6 -1 11 2
17 5 13 3 -3 4 -12 1 -19z m-3119 -165 l3 -38 -48 3 c-26 1 -53 -1 -59 -5 -6
-4 -26 -51 -45 -103 -33 -91 -36 -95 -67 -98 -17 -2 -32 -2 -32 1 0 18 88 244
116 298 l13 27 58 -23 c55 -23 58 -26 61 -62z m1474 16 c31 -62 35 -89 13 -89
-30 0 -130 -40 -142 -57 -11 -14 -13 -1 -13 73 l0 89 48 22 c26 11 52 20 57
19 6 -1 22 -27 37 -57z m-1463 -121 c6 -16 4 -26 -5 -33 -20 -15 -68 -135
-108 -270 -50 -166 -49 -165 -88 -165 -34 0 -138 43 -138 57 0 28 65 223 74
223 31 0 33 -22 11 -88 -12 -37 -25 -80 -29 -97 -7 -27 -6 -28 8 -15 18 19
130 242 151 301 25 71 56 109 88 109 20 0 30 -7 36 -22z m1261 -33 c0 -5 -5
-3 -10 5 -5 8 -10 20 -10 25 0 6 5 3 10 -5 5 -8 10 -19 10 -25z m298 -75 c18
-51 31 -101 29 -109 -4 -24 -48 -15 -72 14 -27 32 -42 32 -21 0 19 -29 7 -34
-18 -7 -20 23 -76 137 -76 156 0 17 86 47 115 42 5 -2 24 -45 43 -96z m-1398
9 c41 -11 131 -26 200 -34 69 -9 139 -18 155 -20 l30 -5 22 -167 c13 -93 26
-179 29 -192 l7 -24 -64 7 c-35 4 -141 20 -235 36 -176 30 -265 58 -348 110
l-45 29 18 53 c21 62 63 146 99 200 18 28 30 37 41 32 9 -4 50 -15 91 -25z
m1265 -174 c56 -165 101 -272 111 -262 3 3 -10 54 -29 114 -19 59 -38 123 -42
142 l-7 34 27 -21 c20 -16 42 -22 76 -22 l48 0 11 -42 c7 -24 20 -74 31 -113
10 -38 15 -73 11 -77 -9 -9 -145 -38 -181 -38 -26 0 -29 5 -50 78 -13 42 -38
127 -56 187 -19 61 -35 117 -36 125 -2 13 21 74 26 68 1 -2 28 -79 60 -173z
m279 -209 c3 -14 2 -26 -3 -26 -9 0 -25 58 -35 130 -4 24 0 17 13 -21 10 -31
21 -68 25 -83z m-1749 6 c-3 -3 -11 0 -18 7 -9 10 -8 11 6 5 10 -3 15 -9 12
-12z m-272 -14 c29 -15 60 -22 102 -22 l61 -1 -24 -80 c-13 -44 -32 -117 -42
-162 -16 -75 -22 -87 -63 -127 -39 -37 -48 -42 -58 -30 -13 16 -14 16 24 32
37 16 48 49 37 114 -18 104 -44 165 -84 194 -24 18 -25 22 -15 62 7 23 13 42
16 42 2 0 23 -10 46 -22z m242 -19 c-5 -14 -4 -19 4 -15 7 5 8 1 4 -10 -5 -14
-7 -14 -15 -1 -4 8 -5 22 -2 31 9 24 16 19 9 -5z m92 -3 c0 -8 -6 -12 -15 -9
-11 5 -11 7 0 14 7 5 13 9 14 9 0 0 1 -6 1 -14z m1370 -88 c17 -35 44 -103 59
-151 29 -95 27 -106 -22 -107 -27 0 -90 -26 -99 -40 -4 -6 5 -23 19 -37 20
-20 24 -29 15 -39 -7 -9 -9 -30 -5 -58 6 -37 10 -44 26 -41 21 4 44 -44 34
-70 -4 -8 -1 -15 5 -15 6 0 11 -15 12 -32 1 -31 2 -31 8 -8 7 24 8 23 15 -12
3 -20 12 -38 18 -40 8 -3 6 -12 -6 -29 -12 -16 -16 -18 -12 -6 8 25 -4 73 -14
56 -6 -8 -13 3 -21 32 -7 24 -14 49 -14 54 -1 15 -26 57 -31 53 -13 -13 74
-222 108 -261 24 -27 85 -66 73 -47 -12 20 33 9 51 -12 18 -20 18 -21 1 -15
-15 6 -17 3 -11 -16 4 -12 11 -25 16 -28 5 -3 6 -13 2 -22 -4 -10 -1 -17 6
-17 6 0 10 -6 7 -12 -2 -7 4 -31 13 -53 17 -40 71 -226 108 -374 14 -53 25
-77 38 -82 18 -7 18 -8 0 -8 -14 -1 -17 -7 -14 -25 3 -17 0 -27 -11 -32 -22
-9 -383 -18 -415 -10 -29 7 -66 59 -86 121 -7 22 -24 53 -37 69 -13 16 -22 35
-19 43 3 7 -1 16 -10 20 -8 3 -13 11 -10 18 3 8 -2 16 -11 19 -8 4 -13 13 -10
20 3 8 2 16 -3 18 -14 5 -111 229 -103 241 3 5 1 7 -4 4 -6 -4 -13 10 -17 33
-3 22 -10 40 -15 40 -10 0 -95 200 -87 207 3 3 -1 11 -8 19 -11 10 -12 22 -4
54 6 22 14 37 19 34 5 -3 0 18 -11 46 -11 28 -20 54 -20 58 0 4 -5 -1 -10 -10
-7 -11 -5 -31 5 -62 12 -35 13 -51 5 -64 -9 -14 -10 -13 -4 7 4 15 2 21 -4 17
-12 -7 -33 49 -26 68 3 8 0 17 -5 21 -6 3 -9 11 -6 16 4 5 -1 12 -9 15 -9 4
-19 24 -22 45 -4 22 -11 42 -15 45 -5 3 -9 15 -9 27 0 18 11 27 50 42 71 27
63 39 -21 31 -129 -12 -313 -56 -376 -90 -26 -14 -26 -15 -6 -16 12 0 25 5 28
10 3 6 22 10 41 10 42 0 42 -1 9 -151 -63 -286 -141 -549 -232 -779 -122 -309
-174 -359 -383 -368 -97 -4 -107 -3 -130 18 -14 12 -20 19 -13 16 8 -4 16 7
22 31 13 47 14 66 2 59 -5 -4 -7 3 -4 15 4 13 8 16 13 10 3 -7 12 74 18 179 7
105 10 195 8 199 -3 4 1 29 9 55 8 26 10 44 5 41 -6 -4 -10 -15 -10 -25 0 -10
-5 -22 -12 -26 -8 -5 -9 -2 -4 11 4 11 2 22 -6 27 -9 5 -9 8 -1 8 6 0 9 8 6
19 -4 16 2 21 34 27 21 4 46 11 56 16 12 6 16 5 15 -3 -7 -29 25 -16 71 30 78
79 97 126 150 386 24 114 26 138 11 115 -8 -12 -10 -12 -10 -1 0 8 -8 4 -21
-10 -19 -23 -20 -23 -9 -2 6 13 20 27 31 33 30 16 8 37 -47 46 -24 3 -41 10
-38 15 3 5 -2 6 -10 3 -37 -14 -226 52 -226 80 0 6 5 5 12 -2 15 -15 48 -16
48 -1 0 6 -8 8 -19 4 -24 -7 -33 15 -15 40 8 10 14 14 14 9 0 -6 -5 -15 -12
-22 -9 -9 -9 -12 0 -12 14 0 14 0 32 80 19 83 60 188 76 194 8 3 35 -4 61 -15
171 -75 280 -94 528 -93 261 0 430 27 676 108 115 37 119 37 156 -36z m-460
-14 c-3 -3 -12 -4 -19 -1 -8 3 -5 6 6 6 11 1 17 -2 13 -5z m-1054 -122 c8 -10
7 -12 -3 -10 -8 2 -18 -13 -26 -37 -16 -52 -17 -31 -2 36 7 28 14 46 16 38 3
-8 9 -20 15 -27z m1847 -82 c0 -5 -4 -10 -10 -10 -5 0 -10 5 -10 10 0 6 5 10
10 10 6 0 10 -4 10 -10z m-2100 -42 c0 -5 -4 -8 -10 -8 -5 0 -10 10 -10 23 0
18 2 19 10 7 5 -8 10 -18 10 -22z m218 -72 c42 -22 194 -70 216 -68 19 1 19 0
-1 -20 -47 -47 -162 -40 -257 14 -52 30 -63 49 -48 82 12 28 23 27 90 -8z
m937 -101 c101 -288 268 -653 429 -934 42 -73 76 -138 76 -142 0 -5 -5 -18
-12 -28 -9 -15 -7 -36 12 -102 32 -114 45 -139 79 -145 24 -5 30 -12 35 -45 8
-47 32 -120 57 -174 18 -37 19 -48 8 -136 l-12 -95 -655 0 -655 1 -15 43 c-13
39 -12 51 17 176 17 74 31 143 31 153 0 10 10 36 22 58 27 51 38 116 28 183
-7 51 -5 58 37 130 136 239 300 737 370 1122 8 43 10 45 48 51 22 3 44 5 49 5
5 -1 27 -56 51 -121z m742 91 c16 -14 38 -43 48 -66 17 -37 17 -42 2 -57 -22
-23 -68 -2 -100 45 -36 56 -57 91 -57 97 0 3 18 5 39 5 27 0 49 -8 68 -24z
m-130 -108 c-3 -8 -6 -5 -6 6 -1 11 2 17 5 13 3 -3 4 -12 1 -19z m-1752 2 c3
-5 -3 -10 -13 -10 -16 0 -19 -5 -15 -22 4 -19 3 -20 -6 -8 -9 13 -11 12 -12
-5 0 -11 -3 -15 -5 -9 -14 33 33 83 51 54z m519 -11 c-3 -5 -10 -7 -15 -4 -5
4 -9 1 -9 -6 0 -7 -3 -9 -6 -6 -9 9 16 38 27 31 5 -3 7 -10 3 -15z m-373 -11
c24 -11 64 -27 89 -33 30 -8 44 -17 41 -26 -63 -249 -90 -351 -94 -356 -3 -2
-20 9 -37 26 l-32 30 36 7 c20 3 41 14 46 23 8 15 50 245 50 273 0 21 -42 -27
-57 -64 -13 -34 -17 -36 -40 -27 -13 5 -39 9 -57 9 -31 0 -32 2 -28 33 2 17 8
37 12 42 5 6 11 27 15 48 4 20 8 37 9 37 1 0 22 -10 47 -22z m326 -30 c-3 -8
-6 -5 -6 6 -1 11 2 17 5 13 3 -3 4 -12 1 -19z m-77 -29 c-6 -19 -19 -94 -30
-168 -11 -73 -24 -139 -30 -146 -13 -15 -100 -58 -106 -52 -2 2 4 24 15 48 11
24 29 81 41 127 12 45 26 82 31 82 5 0 9 7 9 15 0 30 66 143 76 132 2 -2 -1
-19 -6 -38z m899 -4 c0 -5 -4 -3 -9 5 -5 8 -9 22 -9 30 0 16 17 -16 18 -35z
m-1324 -6 c-3 -3 7 -11 22 -18 14 -6 23 -14 21 -17 -5 -5 -78 34 -78 41 0 2 9
3 19 2 11 0 18 -4 16 -8z m2029 -64 c28 -73 28 -76 11 -95 -10 -11 -22 -20
-27 -20 -6 0 -88 163 -88 176 0 1 15 5 33 7 17 2 34 5 37 5 3 1 18 -32 34 -73z
m-2060 2 c-3 -8 2 -14 11 -14 8 0 15 4 15 9 0 4 8 8 17 8 15 0 14 -2 -3 -15
-19 -14 -18 -14 3 -15 12 0 27 9 33 20 14 26 27 25 35 -1 9 -27 3 -32 -42 -34
-20 -1 -39 -7 -41 -14 -3 -8 0 -11 7 -7 6 4 11 2 11 -4 0 -7 -6 -10 -12 -7 -7
2 -12 14 -11 26 2 11 -2 21 -7 21 -6 0 -10 -6 -10 -12 0 -20 -20 14 -20 35 0
9 4 17 10 17 5 0 7 -6 4 -13z m503 -59 c-3 -8 -6 -5 -6 6 -1 11 2 17 5 13 3
-3 4 -12 1 -19z m-278 -3 c11 -11 -16 -25 -49 -25 -41 0 -62 -16 -39 -31 8 -5
31 -9 53 -9 33 0 37 -2 26 -15 -7 -8 -24 -15 -39 -15 -34 0 -114 40 -119 60
-3 12 -2 12 6 1 7 -10 12 -6 22 16 13 28 15 29 74 25 34 -2 63 -6 65 -7z
m1688 -27 c-2 -7 0 -21 5 -30 5 -11 5 -18 0 -18 -11 0 -23 40 -16 52 8 13 16
9 11 -4z m-1867 -93 c7 -8 9 -15 6 -15 -4 0 2 -13 13 -29 11 -15 18 -31 14
-35 -3 -3 1 -6 10 -6 10 0 17 -4 17 -10 0 -12 -6 -13 -28 -1 -9 6 -29 12 -43
15 -20 4 -26 11 -24 28 1 13 3 33 4 46 1 26 13 28 31 7z m62 -33 c2 -5 23 -20
48 -35 33 -20 40 -27 25 -28 -13 -1 -10 -4 10 -9 l30 -8 -35 0 c-35 -1 -70 16
-70 35 0 6 -7 16 -15 23 -8 7 -15 16 -15 21 0 11 17 12 22 1z m1968 -116 c-8
-8 -9 -6 -5 5 4 10 2 20 -4 24 -6 3 -11 16 -11 28 1 17 4 15 16 -12 10 -25 11
-38 4 -45z m-1650 40 c0 -2 -8 -10 -17 -17 -16 -13 -17 -12 -4 4 13 16 21 21
21 13z m-43 -41 c0 -8 -4 -15 -9 -15 -10 0 -11 14 -1 23 9 10 10 9 10 -8z
m1715 -57 c-8 -8 -9 -5 -5 12 4 16 3 21 -5 16 -13 -8 -16 6 -5 18 4 4 12 -2
17 -14 6 -14 6 -24 -2 -32z m28 -43 c0 -5 -5 -3 -10 5 -8 12 -10 12 -10 1 0
-8 -2 -12 -5 -9 -3 3 -2 13 1 22 5 14 9 15 15 4 5 -7 9 -17 9 -23z m20 -50 c0
-5 -5 -3 -10 5 -5 8 -10 20 -10 25 0 6 5 3 10 -5 5 -8 10 -19 10 -25z m-1913
-7 c-3 -7 -5 -2 -5 12 0 14 2 19 5 13 2 -7 2 -19 0 -25z m0 -50 c-3 -7 -5 -2
-5 12 0 14 2 19 5 13 2 -7 2 -19 0 -25z m1953 -96 c0 -7 -4 -10 -10 -7 -5 3
-10 16 -10 28 0 18 2 19 10 7 5 -8 10 -21 10 -28z m-1973 -39 c-3 -10 -5 -2
-5 17 0 19 2 27 5 18 2 -10 2 -26 0 -35z m-10 -55 c-3 -8 -6 -5 -6 6 -1 11 2
17 5 13 3 -3 4 -12 1 -19z m2010 -45 c-3 -10 -5 -2 -5 17 0 19 2 27 5 18 2
-10 2 -26 0 -35z m-2020 -25 c-3 -7 -5 -2 -5 12 0 14 2 19 5 13 2 -7 2 -19 0
-25z m2037 -63 c-4 -8 -8 -15 -10 -15 -2 0 -4 7 -4 15 0 8 4 15 10 15 5 0 7
-7 4 -15z m-2047 -42 c-3 -10 -5 -4 -5 12 0 17 2 24 5 18 2 -7 2 -21 0 -30z
m2106 -50 c10 -53 -5 -68 -95 -92 -45 -13 -96 -27 -113 -33 -47 -15 -95 -22
-155 -23 l-55 0 -32 65 c-17 35 -30 67 -27 69 2 2 88 8 192 12 103 4 201 12
217 18 50 16 62 13 68 -16z m-2112 -8 c6 17 8 16 8 -9 1 -24 -1 -27 -14 -16
-8 7 -14 22 -14 34 2 18 2 17 7 -4 4 -23 5 -24 13 -5z m-72 -23 c0 -11 -2 -12
-6 -4 -2 6 -9 10 -14 7 -5 -4 -6 1 -3 9 8 20 24 11 23 -12z m1648 -4 c-3 -8
-6 -5 -6 6 -1 11 2 17 5 13 3 -3 4 -12 1 -19z m-1616 -35 c13 -16 12 -17 -3
-4 -17 13 -22 21 -14 21 2 0 10 -8 17 -17z m469 -35 c0 -82 -5 -88 -69 -88
-82 1 -286 27 -310 40 -12 6 -21 9 -21 6 0 -4 -67 15 -104 30 -14 5 -17 4 -11
-5 6 -10 3 -11 -14 -2 -11 7 -21 14 -21 17 0 3 5 2 10 -1 6 -4 23 1 38 11 22
14 25 14 14 2 -11 -14 -10 -17 5 -21 23 -7 82 -15 66 -10 -6 2 -14 10 -17 18
-4 11 0 11 28 0 83 -35 246 -26 340 19 28 14 54 25 59 25 4 1 7 -18 7 -41z
m-475 -46 c-3 -3 -11 0 -18 7 -9 10 -8 11 6 5 10 -3 15 -9 12 -12z m105 -22
c20 -6 21 -8 5 -8 -11 0 -29 3 -40 8 -25 11 1 11 35 0z m73 -17 c-7 -2 -19 -2
-25 0 -7 3 -2 5 12 5 14 0 19 -2 13 -5z m-191 -108 c4 -55 9 -110 11 -122 3
-15 -3 -27 -19 -38 -13 -8 -26 -15 -29 -15 -3 0 -5 63 -5 141 0 128 2 140 18
137 14 -3 18 -19 24 -103z m1898 -66 c27 -86 38 -135 32 -141 -6 -6 -28 -7
-51 -3 -35 6 -45 13 -67 51 -29 50 -64 153 -64 189 0 24 0 24 92 33 14 2 26
-25 58 -129z m-1485 -44 c-14 -65 -27 -120 -29 -122 -2 -2 -9 3 -16 12 -10 12
-6 36 26 135 22 65 40 113 42 106 2 -7 -9 -66 -23 -131z m-345 95 c0 -11 -4
-20 -10 -20 -5 0 -10 9 -10 20 0 11 5 20 10 20 6 0 10 -9 10 -20z m1926 -44
c4 -11 13 -12 41 -4 19 5 37 7 41 4 3 -3 0 -6 -6 -6 -6 0 -23 -5 -39 -12 -15
-6 -31 -11 -35 -10 -5 1 -8 -2 -8 -8 0 -15 -17 -12 -24 5 -7 18 2 45 15 45 5
0 12 -6 15 -14z m-1662 -11 c-4 -8 -8 -15 -10 -15 -2 0 -4 7 -4 15 0 8 4 15
10 15 5 0 7 -7 4 -15z m-248 -27 c4 -7 3 -8 -4 -4 -7 4 -12 2 -12 -5 0 -7 -3
-10 -6 -6 -6 5 3 27 11 27 2 0 7 -5 11 -12z m1909 -58 c3 -5 1 -10 -4 -10 -6
0 -11 5 -11 10 0 6 2 10 4 10 3 0 8 -4 11 -10z m-68 -108 c33 4 36 2 60 -46
14 -28 35 -62 48 -76 l22 -25 -23 -51 -24 -50 -72 9 c-127 16 -123 11 -134
180 l-7 97 48 -21 c29 -13 61 -19 82 -17z m379 -63 c-37 -4 -90 -19 -117 -32
-42 -20 -47 -21 -33 -5 24 26 98 47 164 46 l55 -1 -69 -8z m-1897 -106 l-1
-68 -17 50 c-10 28 -14 52 -10 53 5 2 9 10 9 18 0 8 5 14 10 14 6 0 10 -29 9
-67z m2117 43 c53 -25 114 -90 98 -105 -20 -19 -134 -51 -214 -61 -46 -5 -123
-9 -170 -8 -72 1 -76 2 -25 5 97 6 84 20 -27 27 -56 4 -104 9 -106 11 -2 2 6
25 18 53 18 41 27 51 53 56 18 3 64 15 102 25 101 28 206 27 271 -3z m-2306
-13 c84 -23 105 -37 120 -82 23 -72 27 -71 -212 -71 -242 0 -318 6 -318 26 0
23 57 79 109 107 83 46 183 52 301 20z m2399 -155 c-7 -13 -14 -18 -16 -11 -3
7 2 19 9 27 18 20 22 12 7 -16z m-29 -8 c0 -5 -5 -10 -11 -10 -5 0 -7 5 -4 10
3 6 8 10 11 10 2 0 4 -4 4 -10z m-2189 -33 c-10 -9 -11 -8 -5 6 3 10 9 15 12
12 3 -3 0 -11 -7 -18z m-446 -3 c61 -4 101 -10 91 -12 -35 -8 -246 10 -246 20
0 6 10 8 23 5 12 -3 72 -9 132 -13z m2675 -9 c0 -8 -9 -19 -20 -25 -16 -8 -20
-8 -20 4 0 10 6 13 15 10 9 -4 15 0 15 10 0 9 2 16 5 16 3 0 5 -7 5 -15z
m-173 -1 c-3 -3 -12 -4 -19 -1 -8 3 -5 6 6 6 11 1 17 -2 13 -5z m-59 -11 c-10
-2 -26 -2 -35 0 -10 3 -2 5 17 5 19 0 27 -2 18 -5z m-2457 -19 c54 -8 136 -19
181 -23 69 -7 47 -9 -126 -10 -186 -1 -207 1 -202 15 3 9 6 20 6 25 0 13 28
11 141 -7z m2639 7 c0 -6 -8 -9 -17 -9 -10 0 -38 -2 -63 -5 l-45 -6 50 13 c62
17 75 18 75 7z m-657 -8 c-7 -2 -19 -2 -25 0 -7 3 -2 5 12 5 14 0 19 -2 13 -5z
m54 -9 c-3 -3 -12 -4 -19 -1 -8 3 -5 6 6 6 11 1 17 -2 13 -5z m466 -11 c-7 -2
-21 -2 -30 0 -10 3 -4 5 12 5 17 0 24 -2 18 -5z"/>
<path d="M4863 9391 c-145 -54 -249 -180 -275 -333 -30 -182 77 -380 250 -465
52 -26 67 -28 167 -28 123 0 171 13 261 71 98 65 183 207 192 322 12 171 -91
338 -258 416 -57 27 -77 30 -175 33 -90 3 -120 0 -162 -16z m319 -59 c117 -58
179 -127 218 -243 28 -81 24 -192 -8 -255 -29 -56 -106 -140 -158 -170 -64
-38 -138 -64 -153 -54 -17 10 -5 30 17 30 14 0 14 1 0 13 -22 17 -32 54 -17
63 15 9 52 -34 45 -53 -3 -8 2 -13 12 -13 26 0 42 14 47 41 3 13 13 31 22 39
12 10 18 29 18 60 0 25 5 56 12 70 7 14 12 43 12 65 l-1 40 -8 -46 c-10 -59
-23 -83 -59 -108 -36 -26 -41 -26 -41 -1 0 11 -4 20 -10 20 -16 0 -11 19 11
41 11 11 18 28 15 37 -3 9 6 37 19 62 29 55 33 45 4 -11 -11 -23 -18 -43 -15
-46 7 -7 56 93 55 114 0 12 -2 14 -6 4 -4 -11 -7 -11 -14 0 -6 10 -11 5 -19
-16 -31 -87 -76 -166 -97 -171 -35 -9 -45 4 -38 46 5 32 3 40 -13 49 -14 7
-25 6 -41 -6 -19 -13 -21 -21 -16 -53 5 -32 3 -39 -19 -53 -14 -10 -29 -17
-33 -17 -5 0 -16 24 -25 53 -17 51 -17 43 -1 -51 l6 -32 -29 15 c-16 8 -34 15
-40 15 -18 0 -36 27 -55 83 -15 44 -18 48 -18 22 0 -16 10 -49 23 -72 13 -23
20 -43 14 -45 -5 -2 0 -15 11 -30 12 -15 21 -41 21 -62 0 -57 62 -77 98 -31
24 30 38 20 17 -12 -12 -17 -12 -23 -3 -23 7 0 19 -9 26 -21 13 -20 12 -21
-30 -14 -113 17 -233 111 -287 225 -23 49 -26 67 -26 165 0 101 2 114 27 155
59 101 136 168 231 202 82 30 217 20 299 -20z m-149 -409 c3 -5 2 -23 0 -40
-7 -48 -39 -46 -45 2 -2 20 -2 38 1 40 7 8 39 6 44 -2z m43 -98 c45 -3 47 -7
32 -41 -19 -44 -32 -53 -84 -60 -40 -5 -47 -3 -36 7 20 21 14 34 -7 15 -25
-23 -41 -13 -41 24 0 19 8 34 23 45 21 15 22 14 29 -7 5 -21 6 -21 7 5 1 24 4
27 22 22 11 -4 36 -8 55 -10z m137 -27 c-9 -34 -23 -48 -50 -48 -15 0 -23 -5
-20 -12 2 -7 13 -12 23 -10 15 2 16 1 5 -7 -8 -5 -11 -16 -8 -25 12 -29 -22
-17 -38 14 -12 22 -13 39 -7 63 8 25 11 28 17 15 6 -16 10 -15 43 7 20 14 37
25 38 25 1 0 0 -10 -3 -22z m-348 -12 c35 -15 48 -46 20 -46 -8 0 -15 -9 -15
-19 0 -21 -17 -37 -28 -27 -3 4 0 17 7 28 12 20 11 24 -13 43 -45 36 -31 46
29 21z m65 -22 c0 -8 -4 -12 -10 -9 -5 3 -10 13 -10 21 0 8 5 12 10 9 6 -3 10
-13 10 -21z m-6 -43 c8 -12 -17 -61 -31 -61 -16 0 -17 24 -3 51 11 20 25 25
34 10z m114 -28 c-4 -22 -38 -30 -38 -10 0 14 13 24 33 26 5 1 7 -7 5 -16z
m-54 -18 c-5 -22 -3 -25 20 -25 14 0 35 9 46 20 15 15 20 16 20 6 0 -32 -13
-46 -42 -46 -56 0 -84 30 -56 58 17 17 19 15 12 -13z m48 -77 c-9 -9 -15 -9
-24 0 -9 9 -7 12 12 12 19 0 21 -3 12 -12z"/>
<path d="M4923 9352 c-46 -5 -44 -32 1 -32 35 0 56 16 40 29 -5 3 -24 5 -41 3z"/>
<path d="M4990 9346 c0 -19 80 -31 91 -14 6 9 0 15 -19 19 -47 11 -72 10 -72
-5z"/>
<path d="M5100 9326 c0 -8 14 -18 33 -22 33 -7 103 -50 127 -79 20 -24 50 -38
50 -24 0 18 -80 88 -132 115 -54 27 -78 30 -78 10z"/>
<path d="M4787 9288 c-54 -43 -105 -103 -94 -114 3 -3 24 14 46 39 23 24 61
55 86 68 48 26 66 49 36 49 -10 0 -43 -19 -74 -42z"/>
<path d="M5111 9254 c0 -11 3 -14 6 -6 3 7 2 16 -1 19 -3 4 -6 -2 -5 -13z"/>
<path d="M4921 9244 c0 -11 3 -14 6 -6 3 7 2 16 -1 19 -3 4 -6 -2 -5 -13z"/>
<path d="M4951 9244 c0 -11 3 -14 6 -6 3 7 2 16 -1 19 -3 4 -6 -2 -5 -13z"/>
<path d="M4912 9195 c-50 -15 -112 -60 -112 -81 0 -22 -16 -17 -39 13 -12 14
-24 23 -27 20 -3 -3 6 -16 20 -28 14 -12 26 -29 26 -36 0 -21 14 -15 45 17 51
54 109 74 212 74 50 1 89 4 87 8 -6 9 -99 28 -137 27 -18 0 -51 -6 -75 -14z"/>
<path d="M5230 9180 c-6 -11 -8 -20 -6 -20 3 0 10 9 16 20 6 11 8 20 6 20 -3
0 -10 -9 -16 -20z"/>
<path d="M4690 9123 c0 -5 20 -28 44 -51 44 -42 85 -108 87 -140 0 -12 2 -13
6 -3 4 10 9 8 19 -10 12 -22 13 -19 7 26 l-5 50 77 51 78 51 51 -18 c28 -10
64 -20 80 -24 31 -7 31 -6 -4 -95 -12 -30 -18 -52 -14 -48 9 10 64 146 64 161
0 8 -3 8 -11 0 -7 -7 -34 -4 -89 12 l-80 23 -77 -49 c-67 -42 -80 -47 -89 -34
-17 23 -24 6 -8 -23 32 -62 10 -48 -38 24 -48 71 -98 120 -98 97z"/>
<path d="M5226 9093 c-6 -14 -5 -15 5 -6 7 7 10 15 7 18 -3 3 -9 -2 -12 -12z"/>
<path d="M5250 9090 c-6 -11 -8 -20 -6 -20 3 0 10 9 16 20 6 11 8 20 6 20 -3
0 -10 -9 -16 -20z"/>
<path d="M4666 9082 c26 -23 84 -62 90 -62 14 0 -71 69 -85 70 -9 0 -11 -3 -5
-8z"/>
<path d="M5076 8867 c3 -10 9 -15 12 -12 3 3 0 11 -7 18 -10 9 -11 8 -5 -6z"/>
<path d="M5241 8823 c0 -5 4 -17 9 -28 8 -17 8 -16 7 8 -1 15 -5 27 -9 27 -4
0 -8 -3 -7 -7z"/>
<path d="M3940 7380 c-199 -25 -321 -138 -380 -351 -24 -87 -24 -88 -7 -66 11
16 14 12 29 -31 10 -28 35 -66 59 -90 36 -35 40 -42 25 -48 -24 -9 -97 21
-147 61 -24 19 -45 32 -47 30 -11 -11 45 -90 88 -124 29 -23 44 -41 37 -44 -7
-2 -54 -10 -104 -17 -51 -7 -90 -16 -88 -20 3 -4 47 -11 98 -15 l93 -7 -4 -62
c-5 -80 17 -161 61 -217 40 -53 66 -65 43 -21 -43 84 -41 194 6 291 50 104
211 220 328 237 l45 7 -63 -42 c-134 -91 -201 -227 -189 -386 7 -93 20 -133
67 -202 21 -32 35 -59 30 -61 -16 -6 -82 18 -122 44 -25 16 -35 19 -32 9 3 -8
26 -28 51 -45 130 -85 345 -120 533 -86 74 14 179 52 118 43 -26 -4 -25 -1 23
52 92 103 126 251 93 411 -5 25 -5 25 11 5 27 -32 85 -157 85 -183 0 -13 4
-20 10 -17 26 16 -4 175 -52 273 -42 86 -148 199 -225 239 -191 101 -467 79
-636 -50 -26 -21 -57 -37 -69 -37 -25 0 -118 91 -118 116 0 27 69 104 127 141
85 54 183 76 353 77 142 1 239 -10 351 -41 93 -25 121 5 80 86 -58 113 -302
175 -561 141z m408 -596 c79 -32 142 -120 142 -196 0 -152 -192 -132 -266 27
-39 82 -27 152 30 175 31 13 53 12 94 -6z"/>
<path d="M3977 7064 c-74 -18 -152 -56 -202 -99 l-40 -35 60 35 c88 52 174 76
290 82 114 6 189 -9 293 -57 72 -34 80 -33 20 3 -83 47 -238 88 -328 86 -19 0
-61 -7 -93 -15z"/>
<path d="M5032 6130 c-56 -34 -63 -103 -13 -129 32 -17 43 -13 21 9 -29 29
-26 78 7 112 32 33 29 35 -15 8z"/>
<path d="M5155 6000 c-22 -24 -14 -36 13 -21 12 6 39 11 61 11 44 0 55 14 19
24 -42 11 -75 6 -93 -14z"/>
<path d="M5642 5879 c-107 -68 -307 -102 -607 -103 -230 0 -308 12 -394 60
-78 43 -63 4 16 -43 24 -14 50 -37 58 -52 44 -87 179 -193 294 -231 78 -26
223 -29 287 -7 124 45 221 131 276 246 20 42 43 74 60 84 25 14 65 64 57 71
-2 2 -24 -9 -47 -25z m-137 -170 c-26 -38 -64 -82 -84 -98 -198 -156 -468
-125 -620 72 -22 30 -41 56 -41 58 0 2 125 4 277 4 223 0 296 4 370 18 51 10
103 21 115 26 38 14 33 -7 -17 -80z"/>
<path d="M6980 6326 c0 -13 7 -27 16 -30 8 -3 24 -27 36 -53 20 -45 21 -85 3
-173 -4 -19 -1 -16 10 9 42 89 39 188 -6 245 -26 34 -59 35 -59 2z"/>
<path d="M3213 6320 c-27 -11 -63 -66 -63 -95 0 -17 3 -15 19 9 27 40 59 56
99 50 17 -4 32 -2 32 3 0 8 -53 44 -62 42 -1 0 -13 -4 -25 -9z"/>
<path d="M4290 2820 c0 -5 5 -10 10 -10 6 0 10 5 10 10 0 6 -4 10 -10 10 -5 0
-10 -4 -10 -10z"/>
<path d="M4350 2800 c-8 -5 -13 -10 -10 -10 3 0 20 -4 38 -9 20 -6 30 -6 27 0
-4 5 -15 9 -26 9 -11 0 -17 5 -14 10 8 12 4 12 -15 0z"/>
<path d="M4903 2753 c9 -2 23 -2 30 0 6 3 -1 5 -18 5 -16 0 -22 -2 -12 -5z"/>
<path d="M5260 2731 c0 -6 4 -13 10 -16 6 -3 7 1 4 9 -7 18 -14 21 -14 7z"/>
<path d="M5339 2533 c-7 -37 -2 -66 13 -85 15 -19 18 -20 18 -5 0 9 -5 17 -11
17 -7 0 -9 10 -5 26 5 18 3 24 -5 19 -8 -5 -9 -1 -4 14 3 11 4 21 1 21 -3 0
-7 -3 -7 -7z"/>
<path d="M5381 2428 c-1 -11 -6 -15 -16 -12 -8 4 -15 1 -15 -5 0 -6 4 -11 9
-11 6 0 13 -20 17 -45 3 -25 10 -42 15 -39 5 3 7 17 3 32 -5 24 -4 25 6 8 9
-14 9 -24 1 -43 -9 -20 -8 -29 7 -51 11 -15 22 -34 26 -42 3 -8 4 -4 2 9 -7
38 9 11 23 -37 7 -24 14 -42 16 -40 7 6 -29 128 -37 128 -4 0 -8 -5 -8 -12 0
-6 -3 -8 -6 -5 -4 4 -1 13 6 22 7 9 9 19 5 23 -4 4 -10 1 -12 -5 -3 -7 -9 -13
-15 -13 -6 0 -4 8 4 18 15 15 14 22 -7 77 -13 33 -24 52 -24 43z m6 -40 c-3
-8 -6 -5 -6 6 -1 11 2 17 5 13 3 -3 4 -12 1 -19z"/>
<path d="M4255 2121 l-40 -6 32 -7 c35 -8 63 -2 63 13 0 5 -3 8 -7 8 -5 -1
-26 -5 -48 -8z"/>
<path d="M5521 2002 c6 -18 15 -35 20 -38 5 -3 4 7 -3 23 -17 41 -30 53 -17
15z"/>
<path d="M4410 1500 c-13 -8 -13 -10 2 -10 9 0 20 5 23 10 8 13 -5 13 -25 0z"/>
<path d="M3990 2270 c0 -6 7 -10 15 -10 8 0 15 2 15 4 0 2 -7 6 -15 10 -8 3
-15 1 -15 -4z"/>
</g>
</svg>
