<?xml version="1.0" standalone="no"?>
<!DOCTYPE svg PUBLIC "-//W3C//DTD SVG 20010904//EN"
 "http://www.w3.org/TR/2001/REC-SVG-20010904/DTD/svg10.dtd">
<svg version="1.0" xmlns="http://www.w3.org/2000/svg"
 width="1024.000000pt" height="1024.000000pt" viewBox="0 0 1024.000000 1024.000000"
 preserveAspectRatio="xMidYMid meet">
<metadata>
Created by potrace 1.16, written by Peter Selinger 2001-2019
</metadata>
<g transform="translate(0.000000,1024.000000) scale(0.100000,-0.100000)"
fill="#000000" stroke="none">
<path d="M4890 9123 c-689 -51 -1377 -322 -1746 -688 -143 -143 -210 -261
-224 -402 -20 -188 -7 -582 26 -798 8 -55 18 -116 20 -135 l5 -35 -103 -34
c-257 -84 -536 -210 -770 -347 -161 -95 -228 -156 -228 -209 0 -53 24 -91 89
-138 170 -126 525 -231 884 -263 l77 -6 0 -52 c0 -108 62 -249 141 -320 77
-70 190 -115 285 -116 41 0 43 -2 107 -87 214 -289 499 -439 924 -489 76 -9
145 -18 153 -21 8 -2 -25 -27 -75 -56 -105 -61 -223 -172 -284 -267 -57 -87
-168 -311 -176 -352 -4 -22 -16 -39 -34 -49 -22 -13 -32 -34 -60 -129 -27 -91
-31 -117 -22 -136 6 -13 16 -24 22 -24 13 0 10 -21 -25 -185 -14 -66 -34 -199
-43 -295 -9 -96 -20 -177 -25 -178 -5 -2 -22 -15 -37 -28 -45 -37 -61 -82 -61
-169 0 -64 -5 -88 -31 -146 -33 -77 -45 -147 -35 -204 9 -44 81 -122 145 -154
37 -20 41 -25 41 -60 0 -43 10 -55 55 -65 17 -4 66 -24 110 -43 64 -29 96 -37
161 -41 l81 -4 -13 -73 c-16 -92 -32 -152 -50 -187 -22 -42 -44 -214 -51 -395
l-6 -162 28 -11 c26 -10 27 -13 21 -58 -16 -112 -33 -147 -95 -201 l-58 -50
-164 -11 c-630 -39 -993 -79 -1206 -131 -115 -28 -163 -52 -163 -82 0 -93 467
-170 1350 -221 857 -51 2008 -47 2925 9 1097 68 1552 180 1175 289 -187 54
-853 122 -1408 143 l-172 6 -100 73 c-103 76 -130 111 -144 185 -6 35 -5 37
48 70 31 18 57 38 59 44 3 5 -2 73 -9 150 -15 143 -13 183 12 269 13 47 13 52
-21 150 -44 128 -49 155 -75 356 -11 91 -22 174 -25 185 -4 19 1 20 88 20 80
0 99 4 149 28 89 44 134 118 126 211 -6 67 -63 190 -112 239 -24 24 -36 45
-36 64 0 36 -17 95 -29 102 -5 4 -19 64 -31 136 -24 148 -50 255 -86 355 l-25
70 37 75 c25 51 35 81 30 98 -3 14 -31 59 -61 101 -57 80 -63 94 -44 113 6 6
9 22 6 35 -10 37 -297 438 -348 485 -37 34 -137 91 -191 109 -27 9 -48 18 -46
20 2 2 94 21 203 43 321 64 523 132 658 221 87 57 134 105 181 184 81 136 100
246 87 508 -13 235 -2 351 43 466 20 50 53 149 74 219 l38 127 264 38 c473 68
576 91 662 148 84 56 119 150 83 221 -65 128 -277 294 -531 416 -137 66 -349
140 -464 163 -36 7 -66 13 -67 14 -1 1 -13 55 -28 121 -61 276 -162 515 -311
740 -115 173 -275 349 -348 383 -89 42 -316 81 -587 102 -123 9 -481 11 -589
3z m579 -63 c156 -10 311 -26 504 -54 98 -14 81 -1 205 -155 143 -179 331
-506 421 -734 30 -76 97 -315 90 -322 -2 -2 -40 1 -84 6 -125 14 -565 30 -840
31 -430 1 -756 -37 -1139 -133 -98 -25 -335 -98 -396 -123 -13 -5 -15 22 -16
211 -1 241 -16 379 -64 578 -40 167 -120 388 -136 373 -2 -3 7 -38 21 -79 63
-184 101 -471 130 -989 l7 -115 -64 -24 c-84 -32 -371 -158 -500 -220 -234
-112 -288 -135 -393 -166 -60 -19 -111 -32 -113 -30 -3 2 39 84 91 182 53 98
118 225 145 283 57 121 136 330 127 338 -7 8 -8 7 -60 -98 -61 -121 -125 -236
-238 -424 -49 -82 -101 -174 -114 -203 -14 -30 -27 -52 -29 -50 -8 7 -32 167
-46 292 -7 66 -13 245 -13 400 l0 280 39 65 c166 275 479 501 927 668 470 175
982 246 1538 212z m711 -1300 c409 -13 506 -22 674 -64 112 -28 393 -132 384
-142 -2 -1 -69 11 -148 28 -136 29 -159 31 -370 32 -232 1 -271 -3 -515 -50
-156 -30 -307 -72 -595 -164 -374 -119 -438 -134 -692 -155 -345 -29 -539 -63
-843 -149 -445 -126 -519 -143 -1155 -266 -201 -39 -401 -80 -445 -91 -236
-60 -387 -130 -483 -225 -63 -63 -87 -63 -32 0 55 62 405 259 633 356 102 43
445 166 632 227 132 42 243 88 428 177 383 184 639 279 987 366 474 119 785
143 1540 120z m750 -245 c354 -51 590 -146 747 -301 52 -52 67 -90 54 -135
-28 -94 -146 -133 -631 -209 -107 -17 -215 -33 -239 -37 l-43 -5 6 28 c21 108
28 212 23 357 -4 135 -9 175 -30 240 -29 90 -40 83 113 62z m-1020 -500 c47
-31 144 -85 215 -120 185 -90 310 -129 478 -150 l48 -6 -6 -57 c-3 -31 -12
-122 -21 -202 -10 -84 -19 -288 -23 -485 -6 -300 -9 -345 -26 -385 -99 -237
-306 -369 -757 -479 -302 -74 -532 -101 -873 -101 -353 0 -580 23 -802 80
-269 69 -447 179 -629 388 l-76 86 44 21 c24 11 43 26 43 33 0 16 -5 16 -71 1
-41 -9 -72 -10 -123 -2 -269 42 -429 320 -326 567 54 129 223 188 351 123 91
-46 165 -142 224 -292 17 -44 39 -88 47 -97 20 -22 56 -23 74 -2 19 24 23 162
10 423 l-12 232 93 107 c96 111 154 176 247 277 54 57 60 60 155 87 55 15 109
28 122 28 12 0 53 -19 90 -42 79 -48 190 -100 284 -134 105 -38 101 -28 -11
29 -105 53 -268 156 -269 170 0 18 64 4 149 -33 275 -119 811 -224 1264 -246
100 -5 137 -4 137 4 0 7 -26 39 -57 72 -66 71 -212 251 -213 263 0 4 30 -17
68 -46 37 -30 105 -80 152 -112z m-3155 -402 c15 -49 53 -169 85 -268 77 -236
75 -220 20 -216 -91 5 -410 72 -545 113 -137 42 -274 110 -299 150 -29 47 130
153 316 211 69 22 262 72 343 90 52 12 53 10 80 -80z m2628 -1675 c25 -39 41
-81 49 -133 3 -17 -4 -21 -52 -25 -72 -7 -110 -31 -155 -99 -20 -31 -35 -47
-32 -36 20 73 57 258 57 288 0 33 3 36 33 40 70 9 72 8 100 -35z m127 -43 c21
-44 39 -116 65 -255 20 -107 38 -202 41 -211 4 -13 -8 -17 -73 -22 -99 -7
-104 -14 -97 -121 8 -126 23 -272 30 -290 14 -38 29 -6 32 67 l3 77 64 0 c71
0 66 5 84 -90 9 -46 41 -293 41 -315 0 -7 60 2 108 17 27 8 32 15 33 41 1 30
2 30 9 -8 4 -22 7 -41 6 -42 -1 -2 -63 -10 -137 -18 -155 -18 -187 -23 -194
-35 -3 -4 4 -38 15 -74 16 -49 25 -66 39 -66 35 0 138 22 220 46 45 14 84 24
86 22 14 -15 102 -356 93 -362 -1 -1 -50 -21 -108 -43 -165 -64 -316 -110
-436 -132 -52 -10 -50 -12 -58 74 -4 44 -3 55 5 43 26 -46 99 3 85 57 -11 44
-79 47 -95 3 -5 -14 -13 35 -25 153 -10 96 -22 201 -27 234 -13 88 -12 132 3
117 36 -36 98 11 79 60 -19 50 -76 47 -89 -5 -7 -26 -11 -9 -21 88 -6 66 -14
137 -18 158 -6 37 -5 38 15 26 34 -21 72 2 72 44 0 55 -43 76 -82 40 -10 -9
-18 -12 -18 -7 0 9 -14 104 -26 174 -4 28 -3 33 7 23 20 -20 67 -16 79 6 14
28 13 46 -8 71 -23 28 -63 22 -80 -12 -10 -21 -11 -19 -11 17 -1 28 11 61 39
112 21 40 44 91 51 113 l12 40 89 0 88 0 0 28 c0 39 -25 140 -49 194 l-20 47
25 -11 c15 -7 36 -35 54 -73z m-814 38 c50 -54 92 -116 118 -176 36 -82 40
-107 7 -49 -29 52 -79 117 -153 199 -21 24 -38 47 -38 53 0 22 33 8 66 -27z
m105 18 c3 -3 16 -35 28 -71 39 -112 83 -200 100 -201 9 0 50 0 92 1 74 1 77
0 103 -30 37 -44 32 -54 -15 -30 -60 31 -70 19 -16 -20 26 -19 49 -43 52 -54
25 -129 60 -390 90 -671 40 -382 85 -768 91 -791 8 -28 -23 -34 -186 -34 -162
0 -270 19 -444 78 -137 46 -139 47 -95 52 l44 5 -74 30 -74 29 6 121 c3 66 15
174 27 240 19 99 23 158 24 336 l1 215 45 -7 c25 -4 53 -8 63 -8 15 -1 17 -12
17 -95 0 -52 5 -107 12 -123 11 -28 12 -27 19 22 4 28 8 80 8 118 l1 67 29 0
c28 0 30 -3 36 -47 14 -107 46 -300 55 -335 13 -44 27 -47 108 -23 62 19 59
-1 33 240 -18 169 -17 184 15 185 6 0 16 -41 23 -92 13 -100 18 -115 33 -100
17 17 21 136 9 239 -19 149 -17 144 -61 137 l-38 -6 -7 58 c-11 97 -25 175
-46 252 -20 76 -94 235 -135 289 -13 17 -24 35 -24 38 0 7 42 -4 51 -14z m135
-77 c33 -47 70 -99 82 -115 l24 -29 -34 0 c-43 0 -67 25 -107 110 -35 76 -47
120 -33 120 5 0 36 -39 68 -86z m250 31 c-3 -31 -14 -89 -23 -131 l-16 -75
-39 38 c-38 37 -143 178 -154 208 -5 13 13 15 116 15 l123 0 -7 -55z m522 -58
c15 -18 46 -162 61 -282 7 -49 14 -102 16 -117 3 -16 0 -28 -5 -28 -5 0 -12
17 -15 38 -17 106 -50 246 -76 323 -16 48 -29 90 -29 93 0 9 34 -10 48 -27z
m-1078 -131 c30 -63 82 -249 94 -338 l7 -48 -44 0 c-25 0 -58 -3 -74 -6 l-30
-6 19 74 c14 53 18 97 16 163 -4 83 -8 99 -56 205 l-51 115 44 -48 c25 -27 58
-77 75 -111z m-108 67 c82 -150 74 -255 -45 -583 -19 -52 -40 -119 -47 -149
l-13 -54 -116 6 c-102 5 -162 16 -236 42 -20 7 -20 6 -1 -9 34 -28 126 -57
230 -72 55 -8 102 -16 103 -18 9 -8 -23 -109 -36 -114 -22 -8 -129 17 -207 49
-90 38 -224 125 -224 146 0 23 40 166 49 176 4 4 49 -8 99 -27 95 -36 242 -70
242 -55 0 15 -65 55 -150 92 -118 52 -126 59 -60 51 30 -4 57 -8 59 -10 17
-15 105 108 163 228 19 39 19 39 -3 74 -12 19 -39 47 -61 60 -27 17 -37 29
-31 37 77 103 200 211 231 205 8 -2 32 -35 54 -75z m1378 -161 c0 -7 -5 -20
-11 -30 -10 -15 -1 -39 49 -138 34 -66 70 -129 81 -141 l21 -22 -32 -35 c-50
-56 -46 -61 -114 122 -13 35 -30 111 -37 170 -8 59 -16 100 -19 92 -3 -8 -10
-31 -16 -50 -9 -30 -10 -22 -11 55 l0 90 44 -50 c25 -27 45 -56 45 -63z
m-1670 -37 c20 -10 30 -23 30 -38 l0 -22 -18 22 c-9 12 -26 29 -37 37 -26 20
-12 20 25 1z m1717 -17 c-3 -8 -6 -5 -6 6 -1 11 2 17 5 13 3 -3 4 -12 1 -19z
m-1737 -8 c0 -6 9 -20 20 -32 10 -12 17 -25 14 -30 -8 -12 -34 11 -34 29 0 12
-7 13 -27 8 -38 -9 -50 -21 -84 -80 -16 -27 -29 -46 -29 -41 0 6 19 43 42 83
36 64 45 73 70 73 15 0 28 -5 28 -10z m93 -20 c3 -11 -3 -30 -12 -42 -10 -13
-42 -67 -71 -121 -29 -54 -55 -95 -58 -92 -3 3 0 11 6 17 14 14 16 32 2 23
-11 -7 -102 4 -120 15 -8 5 -10 15 -6 26 7 18 9 18 23 -3 15 -23 63 -32 63
-13 0 15 50 12 51 -2 0 -7 5 -2 10 11 5 13 7 26 4 29 -3 3 10 24 29 46 43 53
56 79 56 111 0 29 15 26 23 -5z m1707 -48 c21 -26 26 -52 11 -52 -9 0 -47 46
-65 77 -12 22 34 1 54 -25z m-1820 6 c-1 -73 -57 -155 -98 -145 -13 4 -11 5 6
6 27 1 29 18 3 23 -17 3 -16 9 17 66 23 39 43 62 54 62 10 0 18 -6 18 -12z
m1714 -256 c21 -42 43 -72 52 -72 8 0 37 20 63 45 26 25 51 45 54 45 4 0 68
-82 90 -117 10 -16 -23 -82 -75 -150 -38 -50 -173 -163 -195 -163 -12 0 -23
78 -23 168 0 34 -4 104 -9 155 -6 51 -12 126 -15 167 -5 73 -4 74 8 35 7 -22
30 -73 50 -113z m-96 104 c3 -15 1 -17 -14 -10 -11 5 -77 9 -149 10 -151 1
-155 1 -155 13 0 6 63 9 157 8 146 -2 158 -3 161 -21z m-64 -25 c9 -13 -3 -39
-21 -45 -19 -8 -39 8 -46 34 -4 17 0 20 28 20 19 0 36 -4 39 -9z m36 -9 c0
-10 -6 -27 -14 -38 -13 -17 -13 -15 -3 19 13 41 17 46 17 19z m-185 -56 c25
-45 45 -51 140 -39 41 5 75 6 75 2 0 -13 -45 -18 -175 -20 l-130 -1 -3 60 -3
61 38 -13 c27 -9 44 -24 58 -50z m-862 2 c4 -18 9 -43 13 -55 6 -21 3 -23 -38
-23 -46 0 -148 16 -156 25 -3 3 0 23 7 45 l12 40 78 0 78 0 6 -32z m240 17
c-3 -9 -8 -14 -10 -11 -3 3 -2 9 2 15 9 16 15 13 8 -4z m37 -35 c0 -43 -3 -50
-19 -50 -18 0 -19 2 -3 50 9 28 17 50 19 50 2 0 3 -22 3 -50z m698 -185 c0
-16 -2 -15 -8 5 -4 14 -8 36 -8 50 0 22 1 22 8 -5 4 -16 8 -39 8 -50z m-1218
-350 c-6 -71 -16 -156 -23 -188 l-12 -59 -52 -2 c-29 -2 -64 -11 -79 -21 -21
-13 -26 -14 -22 -3 4 8 22 75 41 149 20 74 52 184 71 244 20 61 42 140 51 177
8 37 18 75 23 85 12 30 14 -244 2 -382z m1623 183 c23 -55 57 -192 86 -345
l28 -145 -25 -9 c-30 -12 -177 -17 -187 -8 -12 13 -113 315 -120 361 -7 44 -6
46 24 56 38 13 109 62 142 96 31 33 36 33 52 -6z m-1871 -97 c26 -6 58 -11 72
-11 14 0 26 -3 26 -6 0 -3 -29 -105 -64 -227 -35 -122 -70 -249 -77 -283 l-12
-61 -156 5 c-86 2 -157 5 -158 6 -1 1 5 78 12 172 16 197 37 336 66 446 l21
76 111 -53 c62 -29 133 -58 159 -64z m1628 -110 c0 -28 -1 -29 -112 -55 -189
-44 -174 -44 -182 -1 -4 20 -6 39 -4 40 2 2 59 11 128 20 69 9 127 18 129 21
2 2 13 4 23 4 13 0 18 -8 18 -29z m385 -387 l0 -49 -75 -13 c-41 -7 -91 -11
-110 -10 -35 3 -35 3 -38 56 l-3 52 78 1 c43 1 89 5 103 9 39 12 45 7 45 -46z
m86 -129 c39 -56 69 -139 69 -188 0 -86 -72 -146 -192 -163 -63 -8 -110 3
-104 24 3 10 10 53 14 97 6 47 18 98 31 122 26 51 26 53 3 53 -41 0 -73 -61
-81 -157 -3 -40 -10 -74 -16 -76 -18 -4 -47 73 -52 136 -2 37 1 81 9 107 l14
45 84 7 c47 4 103 14 125 22 55 20 65 17 96 -29z m-2203 -11 c31 -5 33 -7 27
-37 -14 -71 -7 -67 -118 -67 -56 0 -126 3 -154 6 l-53 7 0 53 0 53 133 -5 c72
-3 147 -7 165 -10z m1809 4 c4 -7 10 -65 13 -129 5 -109 7 -119 38 -168 28
-46 35 -72 57 -219 34 -225 35 -215 -19 -228 l-44 -10 -6 81 c-19 234 -74 485
-140 636 -5 12 3 20 31 31 48 20 60 21 70 6z m-108 -100 c47 -159 93 -404 116
-620 7 -64 8 -65 92 -49 l43 8 6 -36 c8 -48 38 -155 61 -215 l18 -48 -23 -17
c-13 -9 -67 -34 -119 -57 -110 -46 -127 -64 -61 -64 l43 -1 -35 -18 c-19 -10
-84 -38 -144 -62 -60 -24 -104 -45 -97 -47 17 -6 150 25 274 64 60 19 112 34
116 34 4 0 13 -46 19 -102 7 -57 15 -117 18 -135 6 -30 3 -33 -47 -58 -74 -38
-188 -55 -377 -58 -182 -2 -176 -5 -187 72 -14 97 -55 280 -83 374 l-30 97 68
0 c73 0 170 18 170 31 0 5 -55 10 -122 11 l-122 3 -7 30 c-4 17 -12 102 -17
190 -11 160 -26 231 -59 267 -9 10 -13 21 -10 24 9 10 172 10 237 1 l55 -7
-30 25 c-46 39 -96 48 -225 42 -207 -10 -266 -34 -312 -127 -15 -30 -53 -127
-84 -215 -31 -88 -61 -176 -68 -195 -12 -32 -19 -36 -95 -60 -46 -14 -79 -28
-75 -32 4 -5 36 -8 70 -8 78 0 78 -16 1 -43 -103 -36 -117 -42 -117 -49 0 -5
34 -8 76 -8 74 0 76 -1 71 -22 -4 -13 -13 -63 -22 -113 -8 -49 -19 -92 -23
-96 -9 -10 -192 -64 -267 -81 -54 -11 -56 -13 -25 -15 19 -2 91 5 160 15 69
11 126 18 127 17 2 -1 -2 -28 -9 -59 -9 -47 -16 -60 -37 -68 -41 -16 -321 -23
-393 -9 -107 21 -176 43 -182 58 -8 20 13 327 23 356 8 20 14 22 73 19 68 -4
148 12 148 28 0 6 -12 10 -27 10 -42 1 -153 26 -165 38 -7 7 -5 25 7 56 10 25
18 46 19 46 0 0 44 -9 96 -20 52 -11 102 -20 110 -20 8 1 -31 23 -87 50 -57
28 -103 53 -103 57 0 14 39 228 53 293 7 36 26 90 42 120 15 30 39 80 52 110
13 30 21 44 18 30 -9 -43 -53 -312 -60 -372 l-7 -56 43 -6 c24 -3 62 -7 84 -9
l40 -2 27 190 c31 221 70 389 105 458 28 56 25 72 -5 29 -52 -72 -103 -258
-134 -484 l-21 -158 -38 0 c-69 0 -68 -6 -42 163 34 229 57 318 115 439 59
125 42 118 178 69 134 -48 252 -65 435 -65 104 1 192 7 251 18 93 16 354 89
383 106 26 15 27 13 50 -62z m-1972 -45 c43 -10 116 -17 198 -18 l130 -2 1
-109 c0 -60 -1 -85 -3 -56 -7 95 -48 56 -71 -69 -25 -134 -65 -176 -156 -165
-68 7 -181 65 -231 116 -37 38 -40 45 -39 94 1 29 7 71 14 92 14 44 68 134 80
134 5 0 39 -7 77 -17z m1447 -405 c25 -51 29 -72 37 -205 11 -191 12 -197 69
-399 27 -93 61 -239 76 -324 20 -107 34 -160 46 -172 15 -15 18 -35 18 -123
l0 -105 -223 0 c-123 0 -306 -3 -405 -7 l-182 -6 0 47 c0 59 37 207 55 221 18
14 29 59 65 262 25 143 45 217 119 435 115 340 127 370 155 397 28 26 70 40
111 38 26 -2 34 -10 59 -59z m-1087 -140 c-3 -7 -5 -2 -5 12 0 14 2 19 5 13 2
-7 2 -19 0 -25z m1503 -958 c30 -4 47 -8 37 -9 -10 0 -20 -8 -23 -16 -11 -26
-108 -12 -144 21 -12 12 -8 14 30 13 25 -1 70 -4 100 -9z m-1036 -36 c4 -15 6
-28 4 -29 -5 -5 -112 16 -130 26 -32 17 -19 24 51 26 67 3 69 2 75 -23z m948
-232 c2 -71 0 -87 -12 -89 -35 -7 -39 8 -25 117 8 58 14 107 15 110 6 18 19
-66 22 -138z m-935 41 c27 -127 27 -130 5 -135 -16 -5 -21 1 -26 24 -8 40 -8
193 0 185 3 -3 13 -37 21 -74z m1054 -99 l23 -25 -34 15 c-34 14 -35 16 -37
73 l-2 58 14 -49 c7 -26 24 -59 36 -72z m491 95 c48 -22 89 -97 100 -179 3
-25 1 -25 -97 -37 -114 -13 -335 -17 -335 -5 0 26 26 93 48 125 30 45 82 74
166 92 77 17 90 17 118 4z m-1838 -32 c35 -13 70 -35 88 -56 26 -29 29 -39 24
-72 -3 -21 -11 -50 -16 -65 -10 -25 -13 -26 -58 -20 -26 3 -138 9 -250 13
l-203 6 6 31 c10 51 76 139 118 160 81 39 190 40 291 3z m1546 17 c0 -3 -16
-26 -35 -51 -20 -26 -38 -57 -42 -71 -4 -18 -8 -20 -14 -10 -24 37 1 105 46
124 33 15 45 17 45 8z m-1330 -84 c0 -5 -13 -16 -30 -25 -34 -17 -43 -2 -12
21 20 16 42 18 42 4z m1178 -76 c12 -8 33 -32 47 -54 36 -56 49 -58 450 -47
54 2 60 0 63 -19 3 -20 -3 -22 -65 -28 -37 -3 -148 -9 -245 -12 l-176 -6 -44
60 c-48 68 -89 93 -119 74 -10 -7 -41 -12 -69 -12 -47 0 -50 2 -50 26 0 15 4
23 10 19 21 -13 92 6 97 26 5 17 7 17 42 3 20 -8 46 -22 59 -30z m-1130 -10
c15 3 37 8 50 12 16 5 22 2 22 -9 0 -18 -99 -60 -121 -52 -17 6 -39 -15 -62
-60 l-15 -30 -7 28 c-8 31 11 69 53 104 19 16 29 19 39 11 7 -6 25 -8 41 -4z
m-159 -125 c-4 -9 -25 -19 -46 -23 -51 -8 -461 -6 -493 3 l-24 7 24 17 c23 16
51 17 287 15 236 -3 260 -5 252 -19z"/>
<path d="M5115 8885 c-107 -18 -265 -56 -317 -78 l-38 -16 0 -71 c0 -88 14
-186 46 -313 33 -132 60 -202 156 -399 l81 -168 46 0 c67 1 345 26 498 46
l133 17 10 31 c36 110 58 427 41 593 -12 113 -50 269 -76 310 -10 15 -36 26
-87 39 -100 23 -371 28 -493 9z m448 -34 c57 -10 102 -24 107 -32 17 -26 51
-168 61 -256 14 -111 7 -339 -16 -505 -15 -110 -20 -128 -36 -128 -18 0 -444
-43 -549 -56 l-55 -6 -72 148 c-130 271 -182 441 -208 691 -8 73 -11 70 120
102 262 64 460 77 648 42z"/>
<path d="M5225 8761 c-56 -15 -119 -53 -175 -107 -31 -30 -61 -54 -65 -54 -5
0 -26 17 -47 37 -31 30 -38 34 -44 20 -3 -9 -9 -15 -13 -13 -3 2 -6 -12 -5
-32 1 -57 3 -62 19 -56 20 8 19 -5 -2 -28 -15 -17 -15 -19 3 -39 15 -16 16
-24 6 -39 -9 -16 -4 -35 33 -115 64 -136 137 -208 237 -229 24 -5 26 -9 21
-44 -4 -29 -1 -40 10 -45 18 -7 96 16 131 38 23 15 28 15 73 0 95 -32 134 -20
114 36 -11 33 -4 48 26 49 15 0 83 66 110 105 18 28 36 100 46 185 3 19 -1 86
-9 149 -10 90 -17 117 -33 132 -22 21 -31 24 -31 9 0 -5 -10 -24 -23 -43 l-23
-34 -44 35 c-92 71 -226 107 -315 83z m41 -56 c3 -17 1 -24 -6 -20 -5 3 -10
18 -10 32 0 32 9 25 16 -12z m44 4 c0 -31 -19 -37 -28 -9 -3 8 0 10 8 5 9 -5
10 -2 5 14 -4 12 -2 21 4 21 6 0 11 -14 11 -31z m30 27 c0 -3 -4 -8 -10 -11
-5 -3 -10 -1 -10 4 0 6 5 11 10 11 6 0 10 -2 10 -4z m17 -28 c-3 -7 -5 -2 -5
12 0 14 2 19 5 13 2 -7 2 -19 0 -25z m-139 1 c19 -30 8 -34 -12 -4 -9 14 -13
25 -9 25 5 0 14 -9 21 -21z m182 -5 c0 -14 -4 -23 -10 -19 -5 3 -10 15 -10 26
0 10 5 19 10 19 6 0 10 -12 10 -26z m27 -31 c-3 -10 -5 -4 -5 12 0 17 2 24 5
18 2 -7 2 -21 0 -30z m56 15 c14 -12 14 -15 -8 -31 -15 -10 -26 -13 -30 -7 -3
5 -1 10 5 10 7 0 9 8 5 20 -7 23 4 26 28 8z m-301 -38 c6 0 7 8 3 18 -5 14 -4
15 6 5 20 -20 -4 -41 -26 -23 -8 7 -15 18 -15 24 0 6 5 3 11 -6 5 -10 15 -18
21 -18z m-77 10 c3 -5 1 -10 -4 -10 -6 0 -11 5 -11 10 0 6 2 10 4 10 3 0 8 -4
11 -10z m306 -15 c24 -9 53 -25 65 -36 29 -27 48 -16 40 22 -6 32 -4 34 25 19
22 -12 25 -35 5 -43 -7 -3 -16 -20 -20 -37 l-6 -32 -32 28 c-76 64 -182 82
-263 45 -46 -21 -67 -42 -96 -97 -12 -23 -17 -29 -13 -14 3 14 6 40 5 58 0 17
4 32 10 32 6 0 29 13 52 29 23 15 49 31 57 34 30 11 129 7 171 -8z m99 -9 c0
-3 -4 -8 -10 -11 -5 -3 -10 -1 -10 4 0 6 5 11 10 11 6 0 10 -2 10 -4z m-424
-22 c17 -14 17 -15 1 -10 -10 3 -23 6 -28 6 -5 0 -9 5 -9 10 0 14 13 12 36 -6z
m38 1 c3 -8 1 -15 -4 -15 -6 0 -10 7 -10 15 0 8 2 15 4 15 2 0 6 -7 10 -15z
m528 -54 c-11 -20 -25 -54 -32 -76 -7 -22 -19 -46 -28 -53 -15 -11 -14 -12 4
-9 12 1 33 11 48 20 l27 18 -15 -30 c-9 -16 -22 -33 -28 -37 -8 -5 -7 0 2 12
13 17 13 18 0 8 -14 -9 -21 -10 -57 -6 -7 1 -10 9 -7 17 10 24 -6 17 -17 -7
-9 -22 -9 -22 -4 2 6 25 9 38 21 112 7 41 28 67 39 48 4 -6 1 -9 -6 -8 -8 2
-16 -12 -20 -32 -3 -19 -10 -44 -13 -55 -7 -18 -6 -18 6 -3 7 9 19 25 26 35
14 20 14 22 -5 -37 -2 -8 11 14 31 50 20 35 36 71 37 80 0 11 2 12 6 1 3 -7
-4 -30 -15 -50z m-728 33 c3 -8 2 -12 -4 -9 -6 3 -10 10 -10 16 0 14 7 11 14
-7z m377 -38 c6 -6 9 -5 9 3 0 10 10 12 34 8 35 -6 64 11 48 28 -10 12 20 -5
40 -23 16 -13 16 -16 -4 -43 -29 -39 -17 -47 17 -12 l26 28 25 -30 c20 -25 26
-28 34 -15 5 8 10 21 10 29 0 8 2 12 5 9 13 -13 -9 -59 -33 -71 -15 -7 -33
-25 -40 -40 -18 -38 -43 -34 -85 13 -49 56 -86 55 -140 -2 -34 -35 -42 -40
-58 -30 -22 14 -69 16 -69 3 0 -6 5 -13 10 -16 12 -7 13 -65 2 -65 -5 0 -15
18 -22 40 -12 35 -11 45 5 80 23 50 71 105 80 91 3 -6 15 -11 26 -11 16 0 19
5 14 20 -4 11 -2 20 4 20 6 0 11 -5 11 -11 0 -21 30 12 31 35 2 18 2 17 6 -4
3 -14 9 -29 14 -34z m-247 38 c9 -3 16 -12 16 -20 0 -21 -28 -17 -40 6 -11 21
-4 25 24 14z m-55 -89 c0 -5 -8 6 -19 25 -11 19 -19 40 -19 45 0 6 8 -6 19
-25 11 -19 19 -39 19 -45z m-49 30 c0 -5 -5 -3 -10 5 -5 8 -10 20 -10 25 0 6
5 3 10 -5 5 -8 10 -19 10 -25z m270 19 c0 -8 -4 -12 -10 -9 -5 3 -10 10 -10
16 0 5 5 9 10 9 6 0 10 -7 10 -16z m-176 -20 c9 -24 2 -26 -12 -4 -7 11 -8 20
-3 20 5 0 12 -7 15 -16z m66 9 c0 -5 -5 -15 -10 -23 -9 -13 -11 -13 -20 0 -15
22 -12 30 10 30 11 0 20 -3 20 -7z m554 -30 c-2 -39 -2 -40 -18 -46 -10 -4
-13 0 -11 14 12 60 32 82 29 32z m-600 -56 c16 -21 26 -41 22 -44 -4 -4 -12
-1 -17 7 -8 11 -9 9 -4 -10 6 -21 0 -17 -33 20 -44 49 -47 68 -6 29 l26 -24
-21 35 c-11 19 -21 42 -21 50 1 10 4 9 13 -6 7 -11 25 -37 41 -57z m-86 27
c-4 -3 -12 5 -18 18 -12 22 -12 22 6 6 10 -10 15 -20 12 -24z m8 -58 c7 -11
17 -17 20 -13 4 4 1 15 -6 24 -7 10 6 -1 29 -25 23 -23 40 -46 37 -50 -3 -5 6
-21 20 -38 l24 -29 -20 48 c-10 26 -15 47 -11 47 11 0 34 -55 36 -89 2 -14 6
-35 10 -46 5 -11 -6 -3 -23 18 -30 37 -31 37 -29 12 1 -14 9 -30 17 -35 23
-14 -34 -24 -60 -10 -21 11 -21 12 -3 25 14 10 14 13 3 13 -39 -2 -52 5 -20
11 20 4 39 2 43 -4 5 -6 7 -4 5 5 -3 8 -17 15 -36 15 -33 1 -50 10 -38 22 4 4
11 1 15 -6 6 -9 11 -10 15 -2 5 7 -4 14 -24 17 -17 4 -33 11 -36 16 -4 6 2 7
15 3 11 -3 31 -7 44 -9 13 -1 29 -6 36 -10 10 -7 11 -4 2 13 -6 11 -20 25 -31
31 -34 18 -90 80 -90 98 1 14 5 12 21 -8 12 -14 27 -34 35 -44z m398 -28 c28
-32 36 -50 35 -77 -1 -36 -1 -36 -9 -8 -5 16 -14 35 -21 43 -13 16 -34 19 -24
4 3 -5 3 -10 -2 -11 -45 -4 -59 -6 -68 -9 -5 -1 -18 -2 -28 -1 -21 1 -17 36 8
75 27 41 66 35 109 -16z m148 17 c3 -14 -1 -33 -8 -42 -11 -17 -13 -16 -23 10
-14 36 -14 40 1 31 8 -5 9 -2 5 9 -4 11 -1 17 7 17 8 0 16 -11 18 -25z m-558
-21 c15 -14 26 -27 24 -29 -5 -6 -68 38 -68 48 0 13 14 7 44 -19z m700 1 c-3
-7 -13 -16 -22 -20 -14 -5 -14 -4 1 13 9 10 14 22 10 27 -5 4 -3 5 4 1 7 -4
10 -13 7 -21z m-55 -17 c9 -14 8 -18 -3 -18 -8 0 -17 -4 -20 -9 -4 -5 4 -7 16
-5 15 3 12 -1 -9 -11 -18 -8 -33 -17 -33 -19 0 -6 58 2 70 9 5 3 11 1 15 -5 3
-6 -4 -10 -17 -10 -13 0 -30 -5 -38 -11 -11 -8 -8 -9 13 -4 21 4 28 2 25 -7
-3 -7 -12 -13 -21 -13 -8 0 -19 -4 -23 -8 -4 -4 0 -7 9 -7 10 0 17 -5 17 -12
0 -6 -3 -8 -7 -5 -3 4 -13 1 -21 -6 -13 -10 -14 -9 -7 2 6 11 3 13 -13 9 -12
-3 -23 -2 -26 3 -2 5 -3 4 -1 -3 1 -7 8 -12 15 -10 8 2 10 -3 6 -13 -3 -9 -2
-14 2 -11 4 2 14 1 21 -3 9 -6 7 -10 -8 -14 -21 -5 -44 10 -54 35 -4 10 -8 9
-16 -2 -8 -11 -11 -11 -11 -2 0 7 7 15 15 18 11 5 15 21 15 61 0 30 4 62 10
72 12 23 64 22 79 -1z m-395 -40 c-2 -24 -5 -49 -6 -55 -2 -19 -15 -16 -32 9
-23 33 -20 67 7 78 35 14 36 13 31 -32z m261 22 c8 -26 -3 -62 -18 -57 -7 2
-12 16 -12 30 1 15 -3 27 -8 27 -4 0 -5 5 -2 10 10 17 33 11 40 -10z m-455 0
c0 -5 -4 -10 -10 -10 -5 0 -10 5 -10 10 0 6 5 10 10 10 6 0 10 -4 10 -10z
m484 -73 c-4 -7 -16 -22 -27 -34 -11 -13 -17 -23 -13 -23 14 0 -24 -56 -63
-95 l-41 -39 -47 24 c-27 13 -53 23 -59 22 -5 -1 -23 12 -40 30 -16 18 -21 26
-11 19 9 -8 20 -11 23 -8 7 6 -59 57 -74 57 -12 0 -32 31 -32 49 0 15 81 -48
120 -92 17 -20 39 -39 50 -42 34 -11 94 25 150 89 30 35 58 61 63 59 4 -3 4
-10 1 -16z m-129 -7 c-11 -5 -27 -9 -35 -9 -13 -1 -13 0 0 9 8 5 24 9 35 9
l20 0 -20 -9z m-85 -4 c0 -2 -7 -7 -16 -10 -8 -3 -12 -2 -9 4 6 10 25 14 25 6z
m-19 -32 c2 2 24 6 49 10 36 6 42 4 33 -5 -17 -17 -109 -17 -125 -1 -11 11 -8
12 13 3 15 -5 29 -8 30 -7z m-150 -30 c-38 -16 -106 -20 -81 -4 8 5 26 6 39 3
13 -3 22 -2 18 3 -3 5 9 10 26 11 l32 2 -34 -15z m246 -7 c19 0 -6 -27 -35
-38 -18 -7 -30 -4 -53 14 l-31 22 34 6 c18 3 42 4 53 1 11 -3 26 -5 32 -5z
m153 -7 c0 -5 -2 -10 -4 -10 -3 0 -8 5 -11 10 -3 6 -1 10 4 10 6 0 11 -4 11
-10z m-320 -52 c0 -4 -4 -8 -10 -8 -5 0 -10 5 -10 12 0 6 -8 21 -17 32 -13 15
-10 14 10 -3 15 -14 27 -28 27 -33z m-80 34 c0 -4 -10 -9 -22 -9 -18 -2 -20 0
-8 7 18 12 30 13 30 2z m388 -6 c21 3 23 2 12 -6 -8 -5 -25 -10 -37 -10 -17 0
-21 4 -16 17 4 9 8 12 10 6 2 -6 16 -9 31 -7z m-365 -21 c-3 -9 -8 -14 -10
-11 -3 3 -2 9 2 15 9 16 15 13 8 -4z m147 -60 c6 -8 18 -11 26 -8 25 9 15 -13
-12 -25 -20 -10 -28 -9 -40 3 -9 8 -24 15 -35 15 -18 0 -25 11 -14 22 11 11
64 6 75 -7z m124 6 c3 -5 15 -7 25 -4 25 6 37 -14 12 -22 -20 -6 -61 13 -61
27 0 11 18 10 24 -1z m86 -36 c0 -5 -5 -3 -10 5 -5 8 -10 20 -10 25 0 6 5 3
10 -5 5 -8 10 -19 10 -25z"/>
<path d="M5403 8554 c-1 -24 1 -25 14 -11 9 8 12 20 9 26 -12 19 -21 12 -23
-15z"/>
<path d="M5180 8516 c0 -8 5 -18 10 -21 6 -3 10 1 10 9 0 8 -4 18 -10 21 -5 3
-10 -1 -10 -9z"/>
<path d="M5550 8280 c-13 -8 -12 -10 3 -10 9 0 17 5 17 10 0 12 -1 12 -20 0z"/>
<path d="M5413 8180 c-57 -56 -58 -67 0 -19 30 25 66 70 55 69 -2 0 -26 -23
-55 -50z"/>
<path d="M5240 8171 c0 -5 7 -12 16 -15 14 -5 15 -4 4 9 -14 17 -20 19 -20 6z"/>
<path d="M5320 8200 c0 -5 -8 -6 -17 -3 -16 6 -16 5 -4 -11 10 -12 17 -14 25
-6 5 5 19 10 31 11 20 0 20 0 0 9 -27 12 -35 12 -35 0z"/>
<path d="M5335 7965 c-49 -7 -108 -20 -130 -28 l-40 -16 40 4 c126 14 231 25
320 31 90 7 95 9 55 15 -65 11 -142 9 -245 -6z"/>
<path d="M6102 6815 c-58 -18 -108 -58 -132 -105 -20 -38 -26 -70 -14 -70 3 0
39 12 80 26 64 23 85 26 161 22 81 -5 117 -14 230 -59 18 -7 35 -10 38 -7 15
14 -13 67 -59 114 -84 83 -196 113 -304 79z"/>
<path d="M4580 6804 c-153 -27 -350 -141 -350 -202 0 -27 -2 -27 112 3 195 51
411 70 514 44 25 -6 47 -9 50 -6 3 3 -4 23 -15 45 -22 42 -58 73 -113 96 -36
15 -157 27 -198 20z"/>
<path d="M4388 6534 c-108 -26 -202 -88 -245 -161 -21 -37 -27 -41 -44 -32
-11 5 -24 7 -29 4 -28 -17 6 -208 53 -301 l24 -48 -5 96 c-3 57 0 115 7 145
12 47 68 159 76 151 3 -2 -5 -29 -16 -59 -29 -75 -37 -231 -15 -322 33 -142
96 -226 208 -277 66 -31 84 -34 186 -38 113 -5 174 5 237 36 138 68 200 226
161 406 -67 297 -321 468 -598 400z m249 -75 c30 -11 54 -50 60 -97 11 -81
-73 -108 -139 -45 -37 35 -55 92 -38 122 20 39 52 44 117 20z m-3 -585 c14
-38 -110 -114 -185 -114 -44 0 -59 10 -59 40 0 48 80 88 181 89 44 1 58 -3 63
-15z"/>
<path d="M6195 6518 c-166 -60 -279 -256 -279 -483 0 -119 20 -187 67 -233 63
-61 163 -79 261 -46 131 45 256 249 256 420 0 87 9 114 37 114 21 0 24 4 21
33 -3 30 -6 32 -45 35 -33 2 -42 7 -47 26 -8 34 -85 117 -123 132 -38 16 -105
17 -148 2z m155 -111 c44 -29 74 -80 66 -112 -10 -37 -57 -58 -105 -45 -107
28 -133 122 -46 165 40 19 46 19 85 -8z m-103 -483 c9 -24 -8 -45 -58 -76 -63
-39 -112 -45 -138 -19 -27 27 -26 37 6 67 31 29 71 42 136 43 35 1 49 -3 54
-15z"/>
<path d="M3115 6182 c-93 -45 -140 -154 -100 -232 23 -44 35 -37 35 20 0 63
24 124 58 146 99 65 216 11 283 -130 l30 -61 -4 63 c-3 49 -9 71 -33 104 -66
95 -179 132 -269 90z"/>
<path d="M5645 5809 c-4 -5 5 -21 19 -34 20 -18 26 -34 26 -65 0 -45 16 -53
30 -14 14 37 12 76 -6 102 -16 23 -58 30 -69 11z"/>
<path d="M5140 5615 c0 -39 57 -108 121 -148 82 -50 212 -59 301 -20 56 26
118 80 118 104 0 25 -6 24 -50 -11 -139 -110 -298 -97 -419 35 -50 56 -71 67
-71 40z"/>
<path d="M4805 3659 c-71 -9 -149 -18 -172 -18 l-43 -1 1 -37 c1 -21 5 -49 9
-63 6 -20 8 -14 9 27 1 43 4 51 17 46 20 -7 249 15 322 32 31 8 61 10 65 6 5
-5 6 -30 4 -57 -3 -41 -5 -45 -12 -25 -7 21 -12 23 -49 17 -191 -30 -282 -44
-286 -46 -38 -15 305 -28 358 -14 20 6 22 13 22 64 0 32 -3 65 -6 74 -8 21
-66 19 -239 -5z"/>
<path d="M4114 4391 c3 -5 15 -7 26 -4 28 7 25 13 -6 13 -14 0 -23 -4 -20 -9z"/>
<path d="M6064 4138 c-21 -29 -63 -81 -92 -115 -30 -35 -50 -63 -45 -63 18 0
172 168 179 195 11 44 -2 38 -42 -17z"/>
<path d="M6090 1734 c-49 -21 -196 -63 -282 -79 l-73 -14 95 3 c97 4 193 33
290 86 41 23 20 26 -30 4z"/>
</g>
</svg>
