<?xml version="1.0" standalone="no"?>
<!DOCTYPE svg PUBLIC "-//W3C//DTD SVG 20010904//EN"
 "http://www.w3.org/TR/2001/REC-SVG-20010904/DTD/svg10.dtd">
<svg version="1.0" xmlns="http://www.w3.org/2000/svg"
 width="1024.000000pt" height="1024.000000pt" viewBox="0 0 1024.000000 1024.000000"
 preserveAspectRatio="xMidYMid meet">
<metadata>
Created by potrace 1.16, written by Peter Selinger 2001-2019
</metadata>
<g transform="translate(0.000000,1024.000000) scale(0.100000,-0.100000)"
fill="#000000" stroke="none">
<path d="M4960 9199 c-375 -26 -740 -108 -974 -217 -128 -60 -239 -175 -395
-409 -205 -308 -365 -740 -399 -1073 -7 -72 -8 -75 -32 -72 -14 1 -86 5 -161
8 -377 17 -549 -92 -549 -346 0 -166 93 -325 263 -452 82 -60 220 -132 315
-163 28 -9 52 -19 52 -21 0 -3 -9 -17 -19 -32 -51 -70 -80 -228 -61 -330 38
-212 195 -344 438 -367 l70 -7 7 -44 c3 -24 24 -80 46 -123 85 -170 279 -299
544 -362 104 -24 274 -49 345 -49 39 0 51 -3 40 -10 -8 -5 -24 -10 -35 -10
-11 0 -61 -20 -112 -45 -190 -95 -301 -236 -439 -558 -19 -43 -48 -93 -66
-110 -17 -18 -40 -51 -50 -74 -17 -39 -17 -45 -3 -80 9 -20 23 -45 31 -54 14
-15 13 -21 -4 -56 -31 -61 -97 -261 -156 -478 -30 -110 -73 -256 -97 -325 -38
-113 -42 -135 -43 -225 -1 -92 1 -105 28 -158 34 -66 103 -140 157 -168 52
-26 105 -25 120 2 11 21 11 21 28 -4 9 -14 30 -36 46 -48 17 -13 49 -40 72
-61 28 -25 56 -40 83 -44 22 -4 40 -11 40 -16 0 -14 -48 -516 -64 -669 -9 -90
-18 -135 -27 -138 -31 -10 -59 -51 -61 -88 -5 -116 12 -163 73 -193 l40 -21
-27 -32 c-90 -108 -121 -135 -180 -152 -98 -28 -149 -65 -176 -125 -7 -16 -15
-27 -18 -25 -4 2 -123 -5 -266 -15 -440 -33 -674 -73 -706 -124 -38 -59 288
-120 827 -156 410 -27 570 -31 1290 -37 920 -7 1455 7 1980 53 385 33 615 84
615 136 0 14 -84 48 -159 63 -103 22 -261 43 -427 56 l-150 13 -30 55 c-37 68
-95 110 -203 146 l-79 26 -71 101 -71 102 29 12 c50 21 64 54 59 135 -7 87
-29 123 -80 127 -34 3 -35 5 -48 60 -7 31 -39 152 -72 267 -33 116 -86 305
-119 420 -33 116 -62 217 -65 226 -4 13 5 16 49 16 110 0 173 44 186 129 l7
49 7 -75 c14 -142 25 -177 58 -190 104 -44 314 89 354 222 33 112 1 555 -57
788 -19 79 -20 93 -8 195 6 61 14 171 16 245 3 86 10 151 20 179 22 63 30 226
15 302 -49 248 -239 337 -791 368 -259 15 -275 18 -310 47 -16 14 -30 29 -30
33 0 4 48 15 108 25 313 50 595 151 748 267 148 112 221 228 245 394 l11 73
52 17 c77 25 195 90 250 137 115 99 169 243 148 392 -18 121 -72 224 -143 269
-16 11 -29 23 -29 27 0 5 27 22 60 39 228 116 494 333 589 480 154 240 57 430
-274 539 -118 39 -209 58 -380 78 -77 9 -145 17 -151 19 -19 5 -337 533 -423
705 -197 391 -256 461 -435 515 -234 70 -525 96 -836 74z m600 -72 c213 -41
335 -84 378 -135 64 -77 117 -163 192 -312 107 -212 186 -351 326 -578 63
-100 114 -184 114 -186 0 -2 -35 -6 -77 -10 -72 -6 -87 -4 -183 28 -215 70
-495 118 -778 132 l-134 7 7 36 c4 20 7 95 7 168 -1 122 1 139 29 213 32 89
37 156 14 200 -20 38 -83 61 -276 99 -85 17 -188 38 -230 48 l-76 17 -164 -58
c-353 -125 -426 -177 -400 -290 6 -27 25 -72 42 -98 23 -38 34 -76 49 -166 11
-64 30 -150 42 -190 11 -40 19 -75 16 -77 -3 -3 -54 -15 -114 -26 -382 -72
-847 -234 -1031 -360 -23 -16 -46 -29 -51 -29 -18 0 31 215 88 390 140 422
434 871 639 975 192 97 447 161 832 210 157 19 619 14 739 -8z m-528 -358
c363 -77 368 -79 379 -106 16 -42 9 -95 -21 -173 -28 -70 -30 -84 -30 -211 0
-74 -5 -162 -11 -195 -16 -92 -74 -199 -145 -270 -54 -55 -67 -62 -110 -68
-27 -3 -106 -13 -176 -22 l-127 -16 -58 39 c-114 75 -194 175 -233 294 -11 35
-30 118 -41 184 -17 98 -29 137 -66 212 -43 86 -45 94 -33 124 16 37 62 67
176 115 95 39 271 102 319 114 17 5 31 8 32 9 2 1 67 -13 145 -30z m783 -774
c66 -9 163 -25 215 -35 101 -21 310 -82 310 -90 0 -3 -24 -18 -52 -34 l-52
-28 -251 -3 c-219 -3 -528 -21 -701 -41 l-57 -7 48 59 c27 32 64 92 83 133
l34 74 152 -6 c83 -4 205 -14 271 -22z m-1315 -74 c0 -20 93 -133 142 -171 29
-23 54 -45 56 -49 1 -3 -44 -15 -100 -25 -517 -91 -906 -190 -1183 -300 -38
-15 -43 -15 -105 8 l-65 24 3 38 c5 50 11 57 96 107 228 133 593 263 963 342
173 37 193 39 193 26z m2307 -86 c458 -61 697 -200 668 -391 -21 -140 -189
-325 -455 -500 -126 -83 -255 -152 -248 -133 25 65 43 198 43 324 0 132 -2
144 -28 207 -16 37 -51 99 -78 139 -27 39 -61 96 -75 126 -38 79 -117 131
-257 170 -66 19 -64 27 15 54 68 24 250 25 415 4z m-447 -108 c138 -41 240
-117 240 -181 0 -46 -69 -105 -201 -169 -103 -50 -317 -127 -394 -142 -16 -3
43 19 133 49 203 69 304 118 365 177 76 73 62 122 -48 169 -148 63 -355 85
-729 77 -483 -11 -999 -69 -1481 -167 -82 -16 -154 -30 -160 -29 -56 4 561
123 775 148 176 22 560 60 695 71 77 6 156 12 175 14 19 2 157 3 305 1 211 -2
282 -6 325 -18z m-2297 -224 c-7 -2 -19 -2 -25 0 -7 3 -2 5 12 5 14 0 19 -2
13 -5z m-86 -19 c-3 -3 -12 -4 -19 -1 -8 3 -5 6 6 6 11 1 17 -2 13 -5z m-40
-10 c-3 -3 -12 -4 -19 -1 -8 3 -5 6 6 6 11 1 17 -2 13 -5z m-174 -46 c-34 -16
-28 -41 18 -83 70 -63 176 -98 419 -139 318 -54 622 -66 980 -41 63 4 64 4 15
-5 -213 -38 -935 -64 -1156 -41 -145 15 -325 53 -375 79 -21 11 -80 44 -131
74 l-92 54 102 37 c177 63 276 92 220 65z m-637 -49 c141 -25 196 -49 444
-190 129 -73 219 -116 320 -152 13 -5 12 -6 -1 -6 -37 -2 -183 55 -334 129
-251 124 -446 180 -629 180 -224 0 -336 -79 -336 -237 0 -74 15 -84 22 -15 9
95 59 156 147 183 66 19 210 22 305 6 150 -26 353 -97 278 -97 -37 0 -123 -52
-148 -90 -49 -75 -71 -220 -55 -363 15 -126 24 -141 91 -148 30 -3 47 -6 38
-7 -9 -1 -47 -18 -84 -38 l-67 -36 -61 23 c-249 90 -437 235 -514 396 -35 73
-37 84 -37 173 1 85 4 100 29 147 42 77 136 129 261 146 66 9 275 6 331 -4z
m3242 -210 c41 -132 62 -289 72 -549 5 -135 15 -332 21 -438 6 -106 10 -242 7
-301 -4 -95 -8 -115 -36 -176 -103 -219 -355 -365 -787 -454 -317 -65 -687
-92 -1017 -73 -354 21 -568 62 -733 141 -210 100 -308 224 -352 444 -17 82
-27 95 -36 47 -6 -28 -9 -30 -55 -30 -162 0 -330 107 -381 243 -47 126 -19
311 60 401 66 75 195 125 248 96 31 -16 69 -88 86 -165 22 -98 55 -195 66
-195 5 0 9 8 9 18 2 119 22 452 30 502 5 36 24 129 42 208 23 108 35 142 46
142 13 0 139 -35 199 -55 9 -3 5 -19 -14 -55 -31 -59 -25 -100 19 -133 l28
-21 72 36 c95 47 178 68 273 68 88 0 109 8 123 50 l11 30 214 0 c275 0 677 37
941 86 44 8 81 12 84 9 3 -3 7 -19 9 -37 2 -18 8 -37 14 -43 5 -5 72 -12 147
-15 113 -5 153 -11 231 -35 l94 -29 18 23 c38 46 16 115 -55 178 -25 22 -46
43 -46 46 0 3 44 20 97 38 53 17 122 42 152 55 31 13 60 22 66 20 5 -1 20 -36
33 -77z m-401 55 c-3 -3 -12 -4 -19 -1 -8 3 -5 6 6 6 11 1 17 -2 13 -5z m-40
-10 c-3 -3 -12 -4 -19 -1 -8 3 -5 6 6 6 11 1 17 -2 13 -5z m-40 -10 c-3 -3
-12 -4 -19 -1 -8 3 -5 6 6 6 11 1 17 -2 13 -5z m-57 -14 c-14 -4 -36 -8 -50
-8 -22 0 -22 1 5 8 17 4 39 8 50 8 16 0 15 -2 -5 -8z m-87 -17 c-7 -2 -19 -2
-25 0 -7 3 -2 5 12 5 14 0 19 -2 13 -5z m-120 -20 c-7 -2 -19 -2 -25 0 -7 3
-2 5 12 5 14 0 19 -2 13 -5z m-56 -9 c-3 -3 -12 -4 -19 -1 -8 3 -5 6 6 6 11 1
17 -2 13 -5z m-70 -10 c-3 -3 -12 -4 -19 -1 -8 3 -5 6 6 6 11 1 17 -2 13 -5z
m1298 -447 c48 -27 99 -100 120 -170 8 -28 15 -87 15 -131 -1 -171 -85 -282
-286 -377 -45 -22 -89 -39 -98 -39 -21 0 -24 19 -31 187 l-7 141 41 55 c64 87
85 100 154 93 31 -3 57 -3 57 -1 0 3 -15 14 -32 25 -36 22 -82 26 -122 10 -32
-12 -86 -85 -86 -117 0 -12 -4 -23 -10 -23 -6 0 -10 48 -10 123 0 122 0 125
30 166 45 62 83 81 160 81 49 0 75 -6 105 -23z m-1406 -1591 c17 -29 31 -66
31 -82 0 -32 -129 -294 -145 -294 -5 0 -23 20 -40 45 -16 24 -35 45 -42 45
-16 0 -94 -91 -155 -182 -28 -43 -53 -76 -56 -74 -10 11 92 188 184 319 77
108 99 161 91 221 l-6 45 42 4 c23 2 47 4 54 5 6 1 25 -22 42 -52z m-191 9 c7
-14 12 -35 12 -47 0 -27 -59 -133 -102 -181 -31 -35 -39 -38 -113 -49 -96 -13
-181 1 -222 36 -24 21 -27 30 -27 97 -1 55 4 84 19 114 l20 40 160 5 c88 3
178 7 201 8 35 2 42 -2 52 -23z m-483 -2 c-34 -83 -31 -185 9 -306 14 -43 26
-80 26 -84 0 -3 -18 15 -41 41 -45 51 -69 57 -92 24 l-15 -23 -10 27 c-15 38
-42 172 -42 209 0 17 12 53 27 80 l26 49 60 0 c52 0 58 -2 52 -17z m1230 -99
c246 -26 418 -82 482 -158 73 -86 97 -215 69 -376 -24 -135 -31 -139 -106 -59
l-60 64 0 75 c0 183 -75 303 -225 359 -55 21 -203 51 -254 51 -14 1 -55 16
-91 34 l-64 33 54 -4 c30 -2 118 -10 195 -19z m-445 12 c0 -2 6 -41 14 -87 25
-147 47 -310 44 -321 -3 -7 -41 -10 -108 -9 -120 2 -205 -11 -233 -37 -18 -16
-19 -26 -13 -142 6 -141 32 -322 49 -360 26 -56 131 -77 285 -57 l62 8 0 -224
0 -224 -177 -17 c-98 -10 -290 -20 -428 -23 -267 -5 -410 6 -590 46 -50 11
-91 15 -93 10 -5 -12 -32 -12 -32 1 0 6 5 10 11 10 6 0 1 8 -11 18 -22 18 -22
18 -10 153 7 73 15 159 19 189 l6 55 95 -4 c170 -6 233 28 256 140 8 35 17
138 21 229 7 195 -1 225 -62 235 -19 3 -50 7 -69 10 -18 3 -57 0 -85 -6 -29
-6 -55 -8 -58 -5 -8 7 48 221 77 300 l23 60 23 -95 c12 -53 35 -122 49 -155
l26 -59 27 31 c15 17 32 38 37 48 17 29 90 -105 151 -277 30 -83 61 -158 71
-164 9 -7 32 -13 50 -13 l33 0 0 73 c0 67 3 79 38 135 42 70 183 262 191 262
3 0 16 -15 29 -34 32 -47 66 -76 78 -68 6 4 38 59 72 122 52 99 76 153 105
233 5 14 27 25 27 13z m-1238 -117 c-68 -173 -116 -351 -147 -549 -9 -57 -18
-106 -20 -108 -7 -8 -37 15 -106 83 -57 56 -69 73 -65 91 13 52 118 271 168
350 49 78 182 223 194 212 3 -3 -8 -39 -24 -79z m1607 -36 c80 -60 227 -203
349 -340 l72 -81 -97 -49 c-54 -28 -156 -87 -227 -132 -71 -45 -130 -80 -132
-78 -2 1 -8 90 -14 197 -12 233 -29 463 -36 508 -3 17 -2 32 2 32 4 0 41 -26
83 -57z m187 1 c131 -37 213 -143 214 -279 l0 -50 -41 50 c-23 28 -100 108
-171 178 -142 142 -142 140 -2 101z m-1110 -79 l101 0 -43 -84 c-67 -131 -88
-202 -86 -299 2 -74 0 -83 -15 -80 -15 3 -26 42 -60 208 -23 113 -46 219 -51
237 l-10 32 31 -7 c18 -4 77 -7 133 -7z m-334 -237 c4 -7 7 -26 6 -43 -3 -27
-9 -32 -68 -52 -36 -13 -88 -32 -116 -43 -48 -20 -84 -19 -84 1 0 5 10 7 23 4
24 -6 53 17 57 45 5 36 -1 49 -25 52 -39 5 -32 21 16 41 51 20 176 17 191 -5z
m944 -6 c7 -4 13 -32 15 -62 l4 -55 -160 0 -160 0 -3 50 c-5 71 4 75 162 75
72 0 136 -4 142 -8z m-1156 -72 c0 -5 -4 -10 -10 -10 -5 0 -10 5 -10 10 0 6 5
10 10 10 6 0 10 -4 10 -10z m216 -175 c-8 -167 -19 -204 -66 -227 -36 -19
-177 -24 -230 -9 -29 8 -29 15 -2 176 16 94 19 100 42 102 14 0 77 22 140 47
63 25 117 45 119 46 2 0 1 -61 -3 -135z m1747 63 c19 -24 42 -55 51 -70 16
-25 16 -27 -3 -45 -59 -55 -506 -254 -533 -237 -5 3 -19 27 -30 53 -19 44 -19
46 -1 59 164 117 436 282 464 282 10 0 33 -19 52 -42z m-779 -15 c9 -59 7
-271 -3 -278 -16 -9 -195 -18 -233 -11 -24 4 -39 14 -47 33 -13 28 -41 198
-41 250 l0 32 133 4 c72 1 144 4 158 5 23 2 27 -2 33 -35z m-1630 -54 c44 -44
93 -88 108 -97 23 -13 28 -23 27 -52 -1 -72 -7 -75 -77 -32 -72 43 -170 136
-178 169 -5 20 21 93 34 93 3 0 41 -36 86 -81z m2505 -151 c-4 -40 -8 -89 -9
-108 -2 -34 -3 -33 -35 35 -19 39 -34 75 -35 81 0 10 66 62 80 63 3 1 3 -32
-1 -71z m-2520 -51 c36 -24 83 -52 105 -61 l39 -18 -7 -67 c-3 -36 -6 -112 -6
-168 l0 -102 -49 6 c-138 16 -245 -100 -245 -267 0 -41 2 -91 3 -110 2 -19 -2
-76 -10 -126 -11 -80 -11 -106 4 -205 22 -145 22 -149 -4 -149 -57 0 -156 99
-190 189 -31 83 -22 160 41 346 28 83 62 195 76 250 53 212 156 525 172 525 3
0 34 -19 71 -43z m2417 -32 c84 -182 132 -381 155 -640 6 -71 13 -133 15 -137
10 -17 5 -238 -7 -277 -16 -54 -80 -121 -148 -155 -69 -35 -79 -34 -83 12 l-3
37 -17 -37 c-35 -78 -56 -42 -69 123 -6 74 -13 140 -15 147 -5 18 -44 -12 -74
-56 -13 -18 -28 -31 -34 -29 -17 6 -19 103 -2 160 15 51 41 85 119 155 20 18
37 36 37 41 0 21 -43 173 -67 236 -14 39 -54 130 -89 204 -35 74 -64 137 -64
140 0 4 19 12 43 19 23 7 92 39 152 71 61 33 111 59 113 60 2 1 19 -33 38 -74z
m-372 -153 c22 -44 23 -54 15 -122 -4 -41 -14 -131 -20 -200 -6 -69 -13 -131
-15 -138 -4 -15 -120 71 -133 98 -3 8 -5 101 -3 207 l4 192 61 4 c34 2 63 4
64 5 2 1 14 -20 27 -46z m157 -372 c37 -112 37 -131 -1 -153 -39 -23 -91 -86
-106 -128 -11 -30 -13 -21 -13 81 0 63 6 176 14 250 8 74 15 142 16 150 1 22
56 -100 90 -200z m-2137 81 c4 -5 -9 -49 -28 -98 -38 -100 -54 -173 -37 -173
6 0 23 19 38 43 56 87 64 105 87 210 7 30 26 34 88 17 45 -13 51 -27 37 -90
-10 -45 -13 -50 -37 -50 -92 0 -158 -53 -187 -149 -22 -72 -40 -78 -86 -28
-38 40 -43 63 -36 146 10 111 59 178 134 180 12 1 24 -3 27 -8z m366 -51 c8
-5 11 -10 5 -10 -5 0 -17 5 -25 10 -8 5 -10 10 -5 10 6 0 17 -5 25 -10z m-31
-11 c48 -17 32 -20 -19 -4 -25 7 -38 14 -29 14 9 1 30 -4 48 -10z m249 -26
c-10 -2 -26 -2 -35 0 -10 3 -2 5 17 5 19 0 27 -2 18 -5z m75 -10 c-7 -2 -21
-2 -30 0 -10 3 -4 5 12 5 17 0 24 -2 18 -5z m1057 -23 c77 -11 100 -32 100
-91 0 -76 -42 -144 -112 -180 -50 -25 -102 -24 -163 5 -86 41 -123 91 -128
172 -2 44 0 47 35 66 64 34 159 44 268 28z m-1403 -50 c18 -4 35 -5 39 -1 4 3
4 -23 0 -58 -3 -35 -6 -90 -6 -122 0 -66 -3 -68 -72 -49 -61 17 -70 33 -63
109 3 36 11 83 17 104 10 31 15 36 32 31 12 -4 35 -10 53 -14z m751 -2 c24 -7
38 -20 48 -44 17 -42 18 -190 1 -223 -17 -33 -68 -49 -157 -50 -159 0 -214 54
-208 201 4 91 19 113 88 128 52 10 179 4 228 -12z m-585 -24 l37 -7 0 -113 c0
-128 5 -122 -82 -108 l-38 7 0 52 c0 29 3 80 6 114 7 66 7 66 77 55z m867
-119 l0 -115 -35 0 -35 0 0 109 0 110 28 4 c15 2 30 5 35 6 4 0 7 -51 7 -114z
m-671 98 c23 -6 24 -7 17 -93 -6 -85 -13 -131 -18 -134 -2 -1 -27 0 -55 2
l-53 4 0 98 c0 54 3 105 6 114 6 17 58 21 103 9z m-544 -169 c-8 -88 -22 -239
-29 -337 -8 -98 -16 -181 -19 -184 -11 -10 -72 33 -94 67 -21 29 -23 45 -23
146 0 62 5 148 11 191 14 99 54 225 79 248 16 15 79 36 88 30 2 -2 -4 -74 -13
-161z m1085 72 c0 -46 3 -91 6 -100 5 -12 0 -16 -21 -16 -21 0 -26 4 -21 16 3
9 6 54 6 100 0 68 3 84 15 84 12 0 15 -16 15 -84z m710 69 c17 -21 15 -211 -4
-274 -43 -146 -98 -190 -247 -199 -104 -6 -172 13 -218 61 -41 41 -40 58 1 18
45 -44 89 -56 208 -56 122 0 154 13 192 79 21 38 23 54 26 214 4 176 9 197 42
157z m-2063 -155 c14 -11 35 -20 45 -20 18 0 20 -5 14 -42 -11 -74 -25 -252
-22 -280 7 -60 -57 21 -74 94 -14 65 -9 268 7 268 3 0 16 -9 30 -20z m1958
-126 c-5 -48 -12 -67 -31 -85 -23 -22 -34 -24 -122 -24 -156 1 -191 27 -208
153 l-6 51 41 -21 c53 -26 148 -34 207 -18 27 8 61 28 83 49 l36 36 3 -40 c2
-22 1 -68 -3 -101z m-1613 -35 c-7 -299 -32 -604 -84 -1001 -23 -182 -35 -248
-45 -248 -15 0 -15 5 -3 90 15 110 68 673 84 910 26 367 28 381 40 377 7 -3
10 -43 8 -128z m1827 -50 c11 -9 27 -19 33 -21 21 -7 -1 -38 -36 -53 -19 -8
-52 -17 -75 -21 l-41 -7 24 44 c13 24 32 70 43 101 l18 57 6 -41 c3 -25 14
-48 28 -59z m-1203 -234 c25 -19 42 -35 37 -35 -11 0 -103 58 -103 65 0 13 23
2 66 -30z m310 -127 c4 -13 61 -147 127 -298 235 -542 257 -592 257 -603 0
-29 -34 30 -98 168 -122 265 -132 286 -132 290 0 4 -21 50 -130 288 -59 129
-70 161 -59 168 21 13 27 11 35 -13z m-53 -133 c77 -173 232 -514 298 -656
l61 -130 -26 -24 c-14 -13 -26 -33 -26 -44 0 -38 42 -131 74 -166 28 -29 40
-35 75 -35 l41 0 0 -115 0 -115 -448 0 -449 0 -12 83 c-6 45 -14 92 -17 105
-5 18 -1 24 24 33 42 15 86 103 87 173 0 48 -2 52 -36 70 l-35 19 33 121 c39
146 123 501 153 646 11 58 23 115 26 128 4 21 9 23 67 20 l62 -3 48 -110z
m1131 -717 c3 -13 6 -42 6 -65 0 -34 -5 -46 -23 -58 -43 -28 -488 -132 -634
-148 -38 -5 -45 -2 -61 21 -16 23 -52 104 -52 117 0 21 602 153 706 154 45 1
52 -2 58 -21z m-2099 -63 c118 -32 300 -62 453 -74 67 -6 127 -13 132 -16 16
-10 12 -36 -15 -94 l-25 -54 -168 6 c-92 3 -203 13 -247 21 -117 24 -234 65
-245 86 -6 10 -10 48 -10 84 0 78 -4 77 125 41z m2009 -193 c3 -5 -1 -9 -9 -9
-8 0 -12 4 -9 9 3 4 7 8 9 8 2 0 6 -4 9 -8z m52 -77 c19 -20 34 -42 34 -48 0
-7 -7 -4 -14 6 -16 21 -30 22 -22 2 3 -8 3 -15 -1 -15 -7 0 -54 50 -48 51 9 3
25 6 33 8 4 1 -1 6 -10 12 -10 5 -18 18 -17 27 0 9 3 12 5 5 3 -6 21 -28 40
-48z m-243 29 c9 -4 18 -10 18 -15 1 -5 2 -12 3 -16 2 -14 27 -78 38 -98 10
-18 9 -18 -5 -7 -9 7 -19 27 -22 43 -4 16 -11 27 -16 23 -5 -3 -9 -1 -9 4 0 5
-11 26 -25 47 -14 20 -20 34 -13 31 7 -3 21 -9 31 -12z m71 -5 c-7 -12 -31
-11 -39 1 -4 6 1 7 11 3 12 -4 15 -3 10 5 -5 8 -2 10 8 6 9 -3 13 -10 10 -15z
m-332 -120 c-2 -63 1 -112 9 -130 15 -39 81 -89 140 -109 27 -9 46 -19 44 -22
-3 -3 7 -5 22 -5 16 1 100 -7 188 -17 157 -18 391 -18 470 0 17 4 26 3 22 -2
-4 -4 -14 -9 -21 -10 -8 -1 -37 -7 -66 -13 -73 -16 -295 -14 -440 4 -174 22
-259 46 -301 87 -19 18 -45 40 -57 48 -16 10 -27 30 -33 60 -11 57 0 210 15
210 8 0 10 -32 8 -101z m-1542 72 c0 -5 -9 -11 -21 -14 -16 -4 -18 -3 -8 9 13
16 29 19 29 5z m1917 1 c9 -5 6 -12 -10 -21 -20 -13 -21 -13 -8 2 8 10 9 17 3
17 -6 0 -14 -5 -17 -10 -4 -6 -11 -7 -18 -3 -7 4 -4 9 9 14 25 10 27 10 41 1z
m91 -14 c-3 -7 -12 -14 -22 -14 -15 -2 -15 -2 0 3 14 4 14 7 3 14 -11 7 -10 9
4 9 11 0 17 -6 15 -12z m-1549 -79 c16 -97 15 -159 -4 -159 -9 0 -18 -7 -21
-15 -15 -38 -157 -91 -337 -126 -105 -20 -367 -26 -467 -11 l-45 7 -3 49 c-4
66 21 132 58 151 58 30 134 44 184 33 25 -5 44 -13 41 -18 -3 -4 5 -6 17 -2
15 4 19 2 14 -7 -5 -8 -3 -11 5 -10 24 5 70 -11 63 -22 -4 -7 -63 -9 -169 -7
-90 1 -166 0 -169 -3 -3 -3 -13 -34 -22 -68 -18 -71 -13 -81 39 -81 16 0 26
-4 23 -8 -3 -5 18 -7 47 -6 29 2 113 6 187 8 219 8 462 70 520 131 22 24 23
29 17 137 -7 121 4 135 22 27z m1372 -29 c5 0 9 -5 9 -10 0 -33 -71 51 -85
100 -4 14 10 -1 30 -32 20 -32 41 -58 46 -58z m-1890 71 c-6 -10 -7 -21 -3
-25 3 -4 -1 -4 -11 0 -11 4 -17 1 -18 -7 -2 -19 -1 -22 6 -42 6 -13 3 -16 -9
-12 -9 3 -23 7 -32 10 -12 4 -6 15 27 50 46 49 55 55 40 26z m2009 -42 c0 -5
-11 2 -25 15 -14 13 -25 26 -25 30 0 3 11 -4 25 -16 14 -12 25 -25 25 -29z
m-1750 2 c-19 -38 -48 -64 -100 -91 -14 -7 7 19 45 57 39 39 71 71 73 72 1 0
-7 -17 -18 -38z m1872 -1 c4 0 8 4 8 8 0 4 9 8 20 8 11 0 20 -2 20 -3 0 -6
-74 -33 -78 -28 -3 3 0 5 7 5 8 0 9 5 1 19 -5 11 -10 23 -9 28 0 4 5 -2 11
-14 6 -13 15 -23 20 -23z m-2069 10 c-3 -12 -8 -19 -11 -16 -5 6 5 36 12 36 2
0 2 -9 -1 -20z m137 17 c0 -2 -12 -14 -27 -28 l-26 -24 19 27 c16 23 34 36 34
25z m-195 -37 c3 -6 -1 -7 -9 -4 -18 7 -21 14 -7 14 6 0 13 -4 16 -10z m1988
-45 c18 -20 18 -20 14 2 -3 13 -1 26 4 29 5 3 9 1 9 -5 0 -5 3 -16 6 -24 12
-31 -25 -24 -57 11 -19 20 -25 30 -14 22 11 -8 28 -24 38 -35z m-1865 11 c-7
-8 -17 -12 -22 -9 -4 3 -2 9 5 14 22 13 31 11 17 -5z m2104 6 c2 -5 17 -12 33
-16 20 -5 27 -4 20 2 -5 6 -19 12 -30 15 -13 3 -9 5 12 6 17 0 35 -4 38 -9 4
-6 14 -9 23 -6 10 3 31 -1 47 -9 17 -7 23 -14 15 -15 -8 -1 -2 -5 15 -9 19 -4
39 -20 57 -46 31 -44 55 -110 36 -99 -8 5 -9 1 -5 -10 5 -12 3 -16 -5 -14 -7
3 -16 24 -20 48 -14 84 -15 84 -184 83 -97 0 -130 2 -94 6 l55 7 -45 5 c-25 2
-60 -2 -78 -9 -20 -8 -31 -9 -27 -3 3 6 12 11 20 11 8 0 17 5 21 11 4 8 -1 9
-17 4 -43 -13 -6 14 47 35 57 22 61 23 66 12z m-2147 -43 c-8 -12 -32 -11 -41
2 -4 8 1 9 16 4 17 -5 21 -4 15 5 -5 9 -4 11 4 6 6 -4 9 -12 6 -17z m1989 -27
c2 -4 -5 -9 -17 -9 -17 -2 -19 0 -7 7 18 12 18 12 24 2z m-492 -125 c91 -74
172 -98 438 -130 19 -3 -3 -2 -50 0 -120 6 -247 30 -305 57 -67 32 -142 103
-149 141 l-5 30 14 -32 c8 -17 34 -47 57 -66z m-1993 -111 c7 -9 20 -16 29
-16 8 0 13 -3 9 -6 -3 -3 -22 -1 -42 6 -36 12 -37 14 -31 49 3 20 6 45 7 56 1
11 5 -1 8 -26 4 -26 13 -54 20 -63z m2992 20 c-12 -15 -129 -41 -139 -32 -3 3
1 6 10 6 8 0 38 7 67 15 45 14 53 20 59 48 l7 32 3 -28 c2 -16 -1 -34 -7 -41z
m-2097 34 c-12 -12 -122 -50 -143 -49 -9 0 20 13 64 28 96 35 91 33 79 21z
m-167 -56 c-3 -3 -12 -4 -19 -1 -8 3 -5 6 6 6 11 1 17 -2 13 -5z m-44 -11 c-7
-2 -19 -2 -25 0 -7 3 -2 5 12 5 14 0 19 -2 13 -5z m-60 -10 c-7 -2 -19 -2 -25
0 -7 3 -2 5 12 5 14 0 19 -2 13 -5z m2190 0 c-7 -2 -21 -2 -30 0 -10 3 -4 5
12 5 17 0 24 -2 18 -5z m-2736 -9 c-3 -3 -12 -4 -19 -1 -8 3 -5 6 6 6 11 1 17
-2 13 -5z m486 -1 c-7 -2 -19 -2 -25 0 -7 3 -2 5 12 5 14 0 19 -2 13 -5z m-86
-9 c-3 -3 -12 -4 -19 -1 -8 3 -5 6 6 6 11 1 17 -2 13 -5z"/>
<path d="M4749 8581 c-58 -39 -133 -96 -167 -128 l-62 -58 0 -70 c1 -154 53
-294 144 -387 64 -65 183 -143 252 -164 l53 -17 42 29 c24 16 73 59 110 95
114 113 159 229 159 416 0 120 0 120 -70 175 -82 65 -304 178 -349 178 -4 0
-55 -31 -112 -69z m222 8 c105 -51 191 -102 248 -147 l43 -35 -5 -131 c-8
-209 -48 -295 -197 -424 -97 -83 -91 -82 -205 -26 -199 97 -297 244 -312 467
l-6 88 39 41 c66 68 263 208 294 208 9 0 54 -18 101 -41z"/>
<path d="M4835 8438 c-48 -20 -93 -51 -99 -68 -3 -8 -10 -22 -15 -30 -5 -8
-12 -23 -15 -32 -3 -11 -15 -18 -29 -18 -49 0 -65 -54 -21 -70 19 -8 25 -16
21 -30 -3 -11 -1 -23 4 -26 5 -3 9 -16 9 -29 0 -13 5 -27 10 -30 6 -4 21 -27
35 -53 14 -26 40 -60 59 -77 33 -28 37 -29 117 -26 74 3 85 6 108 29 15 15 40
54 56 87 17 33 38 66 48 73 9 7 17 26 17 43 0 16 5 29 10 29 13 0 13 27 1 35
-5 3 -16 -1 -24 -9 -8 -8 -18 -12 -22 -8 -4 4 -5 -8 -2 -25 7 -34 -8 -44 -30
-22 -8 8 -13 8 -17 0 -9 -14 2 -33 14 -26 5 3 11 1 14 -4 9 -15 -23 -21 -36
-7 -7 7 -22 11 -35 8 -32 -6 -39 21 -16 60 15 26 28 34 63 40 25 4 46 12 48
18 2 5 15 10 28 10 17 0 24 -6 24 -20 0 -24 15 -27 24 -5 8 21 -29 55 -60 55
-17 0 -28 6 -31 20 -3 11 -11 20 -18 20 -7 0 -15 9 -18 19 -14 54 -153 97
-222 69z m156 -40 c21 -13 41 -30 44 -40 3 -9 12 -19 20 -22 8 -3 15 -17 15
-30 0 -19 -7 -27 -27 -32 -36 -9 -72 12 -96 59 -19 37 -21 38 -66 35 -42 -3
-48 -6 -66 -41 -18 -33 -24 -37 -56 -35 l-37 3 21 30 c27 38 73 78 101 87 46
14 107 8 147 -14z m-48 -102 c51 -59 55 -72 32 -102 -8 -10 -15 -30 -15 -43 0
-30 -68 -97 -76 -77 -8 20 -109 87 -125 83 -8 -2 -11 -2 -6 0 13 8 8 23 -8 23
-8 0 -15 5 -15 12 0 20 -32 48 -57 48 -14 0 -23 6 -23 15 0 18 18 19 91 5 52
-10 55 -10 77 17 13 15 27 38 32 51 15 35 43 26 93 -32z m-220 -139 c-3 -5
-10 -4 -15 1 -6 6 -7 16 -3 22 6 9 9 9 16 -1 4 -7 5 -17 2 -22z m315 -33 c12
-8 22 -12 22 -9 0 3 5 3 10 0 12 -7 -17 -52 -65 -102 -27 -28 -37 -32 -96 -34
-78 -4 -102 9 -148 76 -38 56 -39 75 -6 75 14 0 25 -4 25 -10 0 -5 7 -10 15
-10 8 0 32 -16 54 -35 42 -39 62 -43 82 -19 12 14 14 13 22 -8 6 -15 11 -18
14 -10 3 8 0 19 -6 25 -17 17 -13 34 11 57 26 24 37 25 66 4z"/>
<path d="M5766 6806 c-144 -54 -220 -279 -172 -507 27 -125 89 -212 172 -239
55 -18 147 -7 213 27 105 54 151 148 151 307 0 187 -61 331 -165 392 -55 32
-142 41 -199 20z m33 -105 c76 -76 -22 -333 -121 -319 -35 5 -50 44 -43 113
17 163 101 269 164 206z"/>
<path d="M4091 6698 c-87 -43 -140 -160 -148 -333 -4 -71 0 -119 11 -168 43
-182 135 -267 275 -253 122 11 203 78 237 194 20 67 14 249 -9 323 -24 73 -72
161 -109 196 -68 65 -174 82 -257 41z m84 -135 c45 -94 -37 -293 -120 -293
-37 0 -55 35 -55 110 0 89 24 166 65 207 30 30 35 32 63 22 20 -7 36 -23 47
-46z"/>
<path d="M3252 6294 c-31 -21 -27 -35 8 -28 44 9 72 -1 124 -47 26 -23 49 -39
52 -36 10 9 -24 74 -52 101 -34 30 -96 36 -132 10z"/>
<path d="M4970 6128 c-55 -29 -66 -51 -18 -37 18 5 61 9 96 9 77 0 122 -20
122 -55 0 -25 -33 -47 -119 -81 -36 -14 -35 -14 29 -10 81 5 115 20 134 61 48
101 -117 177 -244 113z"/>
<path d="M4628 5784 c-11 -16 27 -86 67 -128 114 -115 326 -139 495 -55 58 29
130 99 130 126 0 7 -20 -3 -47 -24 -140 -106 -329 -132 -470 -63 -62 31 -156
110 -165 140 -3 8 -7 10 -10 4z"/>
<path d="M5417 4513 c-11 -11 -8 -48 5 -61 16 -16 49 -15 72 3 16 12 18 19 8
40 -9 19 -19 25 -45 25 -19 0 -37 -3 -40 -7z m53 -33 c0 -5 -4 -10 -10 -10 -5
0 -10 5 -10 10 0 6 5 10 10 10 6 0 10 -4 10 -10z"/>
<path d="M5534 3325 c-4 -8 -1 -22 5 -29 29 -35 138 -63 129 -33 -4 12 -105
77 -120 77 -5 0 -11 -7 -14 -15z"/>
<path d="M4840 3390 c-11 -11 -20 -31 -20 -44 0 -28 13 -31 158 -42 102 -7
102 -7 81 55 -15 43 -35 51 -123 51 -63 0 -80 -4 -96 -20z"/>
<path d="M4816 3271 c-12 -18 7 -72 32 -91 19 -15 39 -20 86 -19 33 1 72 4 86
8 29 8 60 55 45 70 -6 5 -48 14 -95 20 -47 6 -99 14 -117 16 -17 3 -34 1 -37
-4z"/>
<path d="M6260 1284 c-8 -3 -22 -8 -30 -10 -37 -12 21 -24 115 -22 95 1 96 2
32 7 -37 3 -66 10 -65 16 3 11 -29 17 -52 9z"/>
<path d="M6410 1280 c-9 -6 -10 -10 -3 -10 6 0 15 5 18 10 8 12 4 12 -15 0z"/>
</g>
</svg>
