<?xml version="1.0" standalone="no"?>
<!DOCTYPE svg PUBLIC "-//W3C//DTD SVG 20010904//EN"
 "http://www.w3.org/TR/2001/REC-SVG-20010904/DTD/svg10.dtd">
<svg version="1.0" xmlns="http://www.w3.org/2000/svg"
 width="1024.000000pt" height="1024.000000pt" viewBox="0 0 1024.000000 1024.000000"
 preserveAspectRatio="xMidYMid meet">
<metadata>
Created by potrace 1.16, written by Peter Selinger 2001-2019
</metadata>
<g transform="translate(0.000000,1024.000000) scale(0.100000,-0.100000)"
fill="#000000" stroke="none">
<path d="M4840 8793 c-103 -8 -332 -44 -423 -68 -248 -65 -450 -166 -667 -334
-107 -83 -319 -294 -388 -386 -166 -225 -256 -484 -269 -783 -6 -140 -7 -143
-27 -137 -12 3 -70 8 -131 12 -388 20 -573 -150 -534 -492 16 -149 71 -256
207 -413 135 -155 330 -319 478 -403 l41 -23 7 -90 c7 -112 25 -180 70 -271
34 -69 107 -162 165 -211 56 -47 149 -85 221 -91 l69 -6 51 -67 c130 -176 364
-337 607 -418 50 -17 148 -44 218 -59 l125 -27 -57 -16 c-169 -47 -230 -108
-378 -376 -60 -109 -132 -232 -159 -273 l-48 -75 47 -44 46 -44 -25 -70 c-58
-156 -105 -402 -106 -549 0 -60 -3 -70 -30 -99 -55 -59 -76 -191 -45 -279 35
-99 125 -182 196 -180 19 0 42 -1 53 -3 27 -5 58 42 71 109 10 48 15 58 31 56
41 -6 62 7 74 43 15 46 7 125 -21 199 -21 56 -21 56 -1 103 10 26 29 86 42
135 13 48 27 87 31 87 13 0 11 -13 -13 -130 -27 -129 -22 -153 31 -169 35 -10
41 -16 47 -49 10 -50 -3 -435 -21 -661 -13 -159 -13 -187 -1 -200 10 -12 15
-50 17 -134 l2 -117 -64 -39 -64 -38 -160 -7 c-842 -36 -1265 -110 -1265 -222
0 -47 117 -92 332 -128 376 -64 910 -90 1808 -90 1452 0 2250 82 2250 230 0
94 -383 165 -1096 203 l-151 8 -64 38 c-35 22 -66 40 -68 42 -2 1 2 61 9 133
9 91 17 130 26 130 29 0 44 31 44 91 0 46 3 59 15 59 9 0 15 9 15 25 0 14 -5
25 -11 25 -6 0 -9 -7 -5 -15 3 -8 1 -15 -4 -15 -6 0 -10 12 -10 26 0 19 4 25
14 21 18 -7 23 23 18 101 -3 42 -7 52 -22 52 -15 0 -19 12 -24 78 -3 42 -9
107 -12 143 -6 64 -5 67 18 71 12 3 31 9 41 13 15 6 17 0 17 -51 0 -81 24
-129 65 -128 17 0 35 -6 41 -14 10 -13 18 -14 55 -3 74 21 114 66 148 169 42
123 23 262 -45 333 -25 26 -25 27 -13 110 21 148 -7 387 -66 549 l-16 45 37
31 c43 37 45 22 -30 201 -96 231 -143 311 -242 408 -78 76 -150 119 -270 161
-89 30 -93 33 -62 39 81 17 223 61 338 106 265 103 465 275 571 493 l34 68 63
-6 c135 -12 249 31 352 133 80 79 133 178 156 295 21 100 7 222 -33 305 l-26
55 91 85 c302 283 482 604 483 861 1 148 -48 236 -161 289 -53 25 -62 26 -236
26 l-181 0 -23 124 c-43 237 -129 449 -268 661 -180 275 -418 473 -689 575
-163 62 -416 114 -683 140 -129 13 -455 17 -580 8z m565 -83 c93 -10 69 12
291 -260 205 -251 236 -288 329 -382 82 -84 125 -118 125 -100 0 4 -22 33 -48
63 -27 29 -65 78 -85 107 -41 60 -68 95 -175 230 -41 51 -73 95 -71 97 4 3
198 -164 278 -238 18 -18 47 -52 62 -77 21 -33 29 -40 29 -24 0 11 -13 40 -29
65 -36 55 -330 344 -433 424 -42 33 -77 63 -77 66 -2 14 289 -47 413 -87 195
-63 359 -166 527 -334 161 -161 276 -335 369 -559 33 -80 85 -283 95 -373 l7
-56 -58 -12 c-33 -6 -72 -15 -89 -19 -24 -6 -57 6 -185 65 -85 40 -195 86
-245 104 -264 92 -586 166 -878 201 -91 11 -107 15 -101 28 55 135 84 289 84
447 l0 112 -47 35 c-27 19 -76 49 -110 66 -299 152 -609 117 -896 -103 l-37
-28 0 -137 c0 -154 22 -280 63 -373 l26 -58 -22 -5 c-12 -2 -80 -14 -152 -26
-267 -43 -454 -86 -596 -135 -168 -58 -463 -197 -576 -271 l-23 -15 0 105 c0
120 19 241 54 344 30 87 98 228 129 267 l23 28 -4 -94 c-4 -87 16 -263 36
-323 4 -11 10 79 13 200 8 302 8 303 128 423 88 88 191 173 191 157 0 -3 -22
-39 -50 -80 -81 -119 -119 -220 -164 -430 -29 -137 -41 -212 -33 -205 3 3 14
44 26 93 38 160 133 386 213 507 59 88 159 205 240 278 62 57 192 135 288 171
88 34 220 73 220 64 0 -3 -33 -40 -73 -82 -89 -94 -143 -164 -195 -256 -42
-74 -57 -120 -97 -305 -14 -63 -28 -126 -31 -138 -3 -14 -1 -21 5 -18 5 4 13
21 16 39 14 66 87 274 121 344 45 94 127 202 256 336 l103 107 105 16 c209 31
498 36 715 14z m-267 -395 c86 -18 182 -53 273 -101 l69 -36 0 -72 c0 -115
-19 -285 -41 -368 -38 -143 -157 -274 -297 -329 -80 -33 -222 -32 -304 0 -155
60 -275 211 -309 386 -5 27 -14 113 -19 190 l-9 140 37 33 c49 45 219 127 312
151 90 24 194 26 288 6z m2268 -1149 c28 -9 64 -26 79 -38 37 -29 65 -93 65
-152 0 -42 -2 -47 -17 -41 -67 29 -156 45 -243 45 -153 0 -329 -26 -1015 -150
-796 -144 -1107 -177 -1535 -166 -263 7 -288 8 -850 50 -630 47 -969 62 -1097
47 -115 -14 -244 -54 -280 -87 l-28 -25 25 5 c14 3 68 17 120 31 110 30 299
43 445 30 l90 -8 -132 -13 c-238 -23 -393 -66 -482 -135 -13 -11 -27 -19 -32
-19 -16 0 -38 56 -41 104 l-3 47 55 21 c30 11 96 32 145 46 89 26 95 26 405
26 285 0 352 -4 700 -37 652 -61 659 -62 1035 -62 285 0 389 4 500 18 320 40
620 95 953 173 128 30 245 54 260 54 16 0 37 6 47 14 16 12 17 16 6 30 -16 19
-40 16 -241 -31 -675 -158 -1258 -235 -1650 -218 -177 8 -456 30 -787 61 -498
46 -608 54 -813 54 -284 0 -409 -21 -560 -93 l-52 -25 7 46 c14 100 95 168
234 198 120 25 438 11 1016 -46 455 -45 623 -54 1040 -54 419 -1 513 4 825 45
319 41 610 96 975 184 175 42 349 78 435 89 80 10 345 -2 396 -18z m-1851 -16
c87 -10 378 -67 479 -93 l49 -13 -89 -18 c-49 -10 -109 -22 -134 -26 -25 -4
-70 -13 -100 -19 -97 -21 -330 -49 -497 -62 -212 -15 -880 -6 -1093 15 -85 8
-192 18 -238 22 -46 4 -79 10 -75 14 14 13 341 90 493 115 193 34 420 64 555
75 133 10 526 5 650 -10z m1885 -242 c19 -8 50 -28 68 -44 l32 -29 -19 -65
c-34 -119 -82 -225 -96 -212 -5 4 -5 2 -1 -5 4 -7 0 -23 -7 -35 -101 -161
-194 -283 -217 -283 -8 0 -15 -4 -15 -10 0 -18 -16 -36 -26 -29 -5 3 -8 0 -7
-8 2 -7 -3 -12 -10 -10 -8 1 -11 -2 -8 -7 3 -5 -18 -29 -47 -53 -49 -42 -54
-44 -87 -34 -19 5 -37 11 -38 12 -2 1 8 40 22 86 42 140 60 260 59 418 0 102
-5 165 -16 213 -10 38 -15 72 -12 77 5 8 38 16 115 26 25 3 47 8 50 11 11 11
227 -5 260 -19z m-1676 -360 c97 -67 248 -128 354 -143 60 -8 152 10 152 30 0
7 -18 51 -40 97 -66 139 -62 155 13 51 92 -126 104 -154 122 -268 25 -163 53
-252 126 -405 79 -168 113 -267 110 -328 -3 -66 -45 -219 -86 -316 -144 -333
-466 -546 -997 -656 -463 -96 -995 -50 -1330 115 -215 107 -428 312 -525 507
-100 202 -159 517 -150 813 6 236 34 316 151 440 l47 50 -6 -65 c-3 -36 -13
-94 -22 -129 -13 -53 -13 -65 -2 -72 25 -16 56 -9 129 27 93 47 193 144 245
238 35 63 40 68 46 45 4 -13 16 -48 28 -77 11 -29 21 -55 21 -57 0 -3 -19 -14
-42 -26 -49 -25 -154 -122 -174 -161 -17 -32 -18 -64 -3 -74 6 -3 41 8 77 24
92 43 170 61 287 68 55 4 106 11 113 17 21 16 14 62 -14 88 -31 28 -78 99 -71
106 3 2 22 -11 44 -30 67 -61 190 -134 277 -165 111 -41 202 -64 235 -60 24 3
21 9 -67 100 -86 90 -150 189 -140 218 2 6 55 -38 118 -96 174 -161 258 -193
476 -179 62 4 114 9 114 12 0 2 -13 23 -29 46 -27 40 -81 141 -81 152 0 3 26
-13 58 -34 32 -22 69 -44 84 -50 18 -7 26 -17 26 -36 0 -46 12 -50 170 -50
160 -1 221 -12 344 -66 74 -32 106 -36 114 -14 12 29 -8 68 -62 125 -65 69
-145 114 -234 131 -71 15 -75 18 -120 100 -41 77 -38 86 13 38 23 -22 68 -58
101 -81z m-2661 46 l77 -7 0 -74 c0 -74 25 -194 55 -267 9 -21 14 -45 11 -53
-3 -8 -1 -11 4 -8 9 5 15 -9 8 -18 -2 -2 5 -11 15 -21 11 -12 16 -26 12 -40
-4 -14 -3 -17 3 -8 7 11 11 10 16 -4 8 -22 -12 -36 -41 -29 -12 3 -25 1 -28
-5 -4 -6 1 -7 12 -3 10 3 -1 -13 -24 -36 -41 -42 -83 -116 -83 -146 0 -8 -4
-15 -10 -15 -38 0 -212 135 -350 272 -92 90 -110 113 -105 131 5 17 4 19 -4 7
-5 -8 -12 -12 -14 -10 -30 38 -46 71 -41 87 4 13 3 15 -4 5 -14 -21 -79 95
-65 116 17 28 127 81 201 98 127 28 241 37 355 28z m3895 -571 c64 -48 92
-117 92 -233 0 -258 -188 -483 -415 -498 -41 -2 -75 -1 -75 3 0 4 6 33 14 64
8 31 22 106 31 166 17 119 32 177 67 267 19 49 28 60 56 69 85 28 168 0 227
-77 21 -28 35 -40 35 -30 0 26 -29 88 -53 115 -47 50 -140 75 -201 52 l-25
-10 17 37 c32 69 42 82 75 91 48 15 124 7 155 -16z m-3594 -85 c55 -121 56
-115 -13 -120 -100 -7 -162 -72 -160 -170 l1 -43 15 43 c16 46 63 99 100 113
13 5 46 9 73 9 58 0 61 -4 83 -110 14 -63 52 -235 87 -390 4 -19 15 -53 25
-74 l16 -39 -46 6 c-69 10 -141 53 -221 132 -114 113 -164 247 -164 444 0 77
5 113 20 155 25 66 77 116 121 116 28 0 33 -6 63 -72z m2164 -1428 c12 -21 22
-51 22 -66 l0 -26 -35 31 c-48 41 -54 39 -15 -5 17 -20 36 -47 41 -61 10 -27
12 -93 3 -93 -3 0 -30 24 -60 54 -62 62 -107 86 -160 86 -33 0 -36 -1 -20 -13
16 -12 10 -21 -73 -100 -94 -89 -181 -155 -181 -138 0 5 25 38 56 73 65 74
134 185 143 231 l7 32 99 16 c149 24 147 25 173 -21z m-683 -14 c6 -2 -5 -10
-22 -20 -18 -9 -58 -37 -89 -62 -61 -50 -63 -47 -21 47 l20 46 51 -4 c28 -3
56 -6 61 -7z m333 -38 c-21 -53 -75 -134 -103 -158 -12 -10 -19 -7 -39 17 -28
32 -86 145 -86 167 0 15 31 19 187 24 l62 2 -21 -52z m463 26 c86 -35 179 -83
179 -92 0 -4 -9 -30 -20 -59 -42 -112 -60 -271 -58 -508 4 -284 2 -292 -90
-336 -37 -17 -136 -49 -221 -70 -148 -36 -171 -47 -171 -78 0 -10 -8 -12 -31
-7 -17 3 -40 6 -50 6 -18 0 -19 15 -19 380 0 209 -3 380 -7 380 -5 0 -7 -171
-5 -380 l3 -380 -66 0 -65 0 0 368 c0 202 3 376 6 388 3 12 24 30 49 42 49 24
229 175 263 222 l23 31 50 -43 c56 -48 94 -73 126 -82 19 -6 23 -2 34 36 7 27
9 73 5 126 -4 45 -5 82 -3 82 2 0 32 -12 68 -26z m-971 -42 c-25 -66 -41 -189
-25 -202 15 -13 61 12 110 61 23 21 47 39 54 39 7 0 52 -36 99 -80 48 -44 92
-80 99 -80 10 0 11 -8 6 -27 -5 -16 -7 -202 -6 -415 l3 -386 -74 -7 c-87 -8
-109 -3 -148 37 -26 26 -35 30 -66 24 -21 -3 -31 -2 -24 3 9 5 -3 11 -35 15
-86 13 -252 54 -221 55 20 1 32 46 23 87 l-6 29 18 -27 c28 -45 77 -62 181
-66 90 -4 94 -3 147 29 29 18 59 44 66 58 8 16 14 79 17 161 2 74 8 139 13
144 13 14 11 108 -2 162 -7 26 -20 49 -31 55 -13 7 -88 10 -208 7 -168 -3
-190 -5 -209 -22 l-21 -19 0 103 c0 57 -3 101 -6 97 -3 -3 -6 -133 -6 -288 l1
-281 -37 5 -37 5 35 -15 c38 -17 51 -30 44 -48 -5 -13 -63 -7 -144 15 -52 14
-165 69 -200 98 -23 19 -24 23 -11 44 39 63 134 238 196 361 46 93 80 149 104
170 l36 31 6 -35 6 -34 2 41 c1 36 5 42 39 59 48 23 155 66 158 62 1 -1 -2
-22 -6 -47 -12 -58 -12 -157 -2 -164 5 -3 10 25 11 62 3 89 19 149 44 167 12
8 22 13 24 12 1 -2 -6 -26 -17 -55z m250 -13 c22 -56 44 -92 108 -180 8 -10
11 -23 7 -29 -4 -6 -35 15 -78 53 -130 115 -147 119 -226 57 -28 -22 -53 -40
-56 -40 -13 0 -2 32 21 60 33 38 176 150 188 146 5 -1 21 -31 36 -67z m989
-106 c59 -66 113 -167 188 -348 30 -71 56 -135 59 -142 9 -20 -225 -145 -303
-162 -37 -8 -43 -7 -43 8 0 10 21 25 55 40 31 13 54 26 51 28 -2 3 -18 -3 -35
-11 -36 -19 -81 -21 -81 -3 0 6 -5 63 -10 125 -11 126 1 215 40 292 12 23 20
44 17 46 -9 10 -39 -37 -58 -92 -27 -77 -32 -80 -24 -14 19 146 58 290 80 290
7 0 36 -26 64 -57z m-1094 -242 c27 -6 31 -11 41 -63 15 -75 9 -104 -26 -118
-31 -13 -333 -10 -346 3 -4 4 -10 34 -12 67 l-4 60 38 1 c22 1 107 5 189 9
l150 7 -183 -1 c-100 0 -182 2 -182 5 0 14 27 28 60 32 55 6 242 5 275 -2z
m24 -467 c-24 -29 -29 -11 -29 105 0 101 3 122 18 137 16 17 17 12 20 -105 2
-82 -1 -128 -9 -137z m-320 108 c-1 -140 -16 -114 -19 33 -2 105 -2 107 10
100 6 -4 10 -58 9 -133z m276 92 c3 -26 6 -85 4 -133 -2 -91 -15 -121 -51
-121 -16 0 -18 10 -18 119 0 153 6 181 35 181 19 0 24 -7 30 -46z m-211 20
c11 -28 7 -264 -5 -264 -6 0 -19 5 -30 10 -17 10 -19 22 -19 134 0 67 3 126 7
129 12 13 41 7 47 -9z m136 -134 l0 -151 -57 3 -58 3 -3 125 c-4 171 -4 170
63 170 l55 0 0 -150z m1413 -62 c45 -159 73 -409 60 -534 -5 -45 -2 -56 21
-86 52 -69 71 -176 42 -235 -8 -15 -24 -53 -35 -83 l-20 -55 6 59 c9 89 -17
69 -43 -32 -11 -45 -23 -84 -26 -88 -4 -3 -6 30 -5 73 1 45 -2 79 -8 81 -5 2
-19 -29 -30 -69 -32 -117 -46 -105 -60 54 -8 80 -23 93 -64 53 -44 -42 -56
-35 -68 42 -11 64 -10 70 19 134 l30 67 -36 193 c-19 106 -40 225 -46 263 -6
39 -12 80 -15 92 -4 19 3 24 58 42 34 12 91 37 127 55 36 19 67 35 70 35 3 1
13 -27 23 -61z m-1944 2 c33 -16 87 -37 121 -47 61 -17 61 -17 56 -48 -4 -17
-36 -123 -72 -235 -36 -113 -72 -233 -79 -266 l-15 -62 32 -68 c26 -56 33 -82
33 -134 0 -76 -17 -89 -58 -44 -40 42 -53 28 -60 -65 -7 -92 -17 -120 -34 -99
-13 15 -43 102 -43 123 0 8 -4 15 -10 15 -5 0 -10 -33 -12 -72 l-3 -73 -19 70
c-27 102 -30 106 -36 45 l-5 -55 -22 52 c-13 28 -23 56 -23 62 0 6 -9 11 -19
11 -34 0 -41 54 -16 137 8 28 28 64 43 81 17 18 29 43 30 63 7 89 62 416 83
489 22 75 52 150 61 150 4 0 35 -13 67 -30z m1621 -88 c0 -15 9 -78 21 -141
11 -62 19 -120 17 -129 -2 -9 -12 26 -22 78 -10 52 -25 115 -33 139 -15 44
-10 97 7 86 6 -3 10 -18 10 -33z m-1390 -16 c0 -3 -4 -8 -10 -11 -5 -3 -10 -1
-10 4 0 6 5 11 10 11 6 0 10 -2 10 -4z m348 -226 c1 -47 -1 -116 -6 -155 -7
-54 -8 -37 -4 74 5 133 4 145 -14 158 -19 14 -19 15 1 11 18 -3 20 -12 23 -88z
m895 28 c9 -31 2 -33 -11 -3 -6 14 -8 25 -3 25 5 0 11 -10 14 -22z m-1173 -7
c0 -6 -4 -13 -10 -16 -5 -3 -10 1 -10 9 0 9 5 16 10 16 6 0 10 -4 10 -9z
m1217 -13 c-3 -8 -6 -5 -6 6 -1 11 2 17 5 13 3 -3 4 -12 1 -19z m-1310 -10
c-3 -8 -6 -5 -6 6 -1 11 2 17 5 13 3 -3 4 -12 1 -19z m791 6 c48 -6 52 -9 51
-33 -1 -15 -3 -19 -6 -10 -3 14 -23 17 -138 18 -74 1 -142 4 -150 7 -13 5 -15
-11 -17 -107 l-2 -114 -6 115 c-3 63 -4 118 -2 123 4 9 196 9 270 1z m529 -61
c-3 -10 -5 -2 -5 17 0 19 2 27 5 18 2 -10 2 -26 0 -35z m-1330 15 c-3 -8 -6
-5 -6 6 -1 11 2 17 5 13 3 -3 4 -12 1 -19z m1087 -38 c7 -53 1 -44 -13 19 -5
24 -6 39 -1 35 4 -5 11 -29 14 -54z m-817 3 c-3 -10 -5 -4 -5 12 0 17 2 24 5
18 2 -7 2 -21 0 -30z m538 -68 l0 -93 -63 -7 c-35 -4 -66 -4 -69 -1 -3 2 22 8
56 12 l61 7 0 95 c0 52 3 92 8 88 4 -4 7 -50 7 -101z m265 -18 c0 -24 -18 8
-24 40 -3 21 -8 49 -11 63 -3 14 4 -2 15 -35 11 -33 20 -64 20 -68z m-763 91
c-3 -8 -6 -5 -6 6 -1 11 2 17 5 13 3 -3 4 -12 1 -19z m1188 -105 c19 -101 16
-134 -19 -166 -17 -17 -22 -31 -19 -57 10 -108 44 -553 49 -657 8 -145 25
-129 -176 -169 -129 -25 -141 -26 -259 -15 -69 6 -126 12 -127 14 -1 1 -29 94
-62 207 -81 272 -143 441 -168 454 -10 6 -21 13 -24 14 -3 2 8 14 24 27 27 22
29 28 35 129 4 58 9 107 12 109 8 6 147 37 168 37 14 0 21 -6 21 -19 0 -10 9
-49 20 -85 23 -74 13 -69 140 -66 76 1 189 22 278 52 84 27 88 36 73 176 -11
107 -7 170 9 126 4 -10 15 -60 25 -111z m-1201 43 c-3 -21 -8 -35 -11 -32 -2
2 -1 20 3 40 3 21 8 35 11 32 2 -2 1 -20 -3 -40z m1027 24 c-25 -21 -46 -27
-36 -10 3 6 13 10 21 10 8 0 14 5 14 10 0 6 6 10 13 10 6 -1 1 -10 -12 -20z
m-1220 -21 c9 0 10 -2 2 -5 -15 -7 -53 13 -53 28 0 6 8 4 18 -5 10 -10 25 -17
33 -18z m146 -35 c-3 -3 -12 -4 -19 -1 -8 3 -5 6 6 6 11 1 17 -2 13 -5z m860
-66 c-3 -8 -6 -5 -6 6 -1 11 2 17 5 13 3 -3 4 -12 1 -19z m-464 -5 c-13 -2
-33 -2 -45 0 -13 2 -3 4 22 4 25 0 35 -2 23 -4z m684 -35 c-3 -8 -6 -5 -6 6
-1 11 2 17 5 13 3 -3 4 -12 1 -19z m-729 -3 c4 -3 9 -58 12 -120 5 -110 6
-115 36 -147 l31 -33 -3 -140 c-3 -204 -51 -496 -87 -532 -33 -33 -379 -43
-477 -13 -67 20 -65 13 -49 172 8 87 14 250 14 416 -1 149 3 272 7 272 3 0 39
-7 78 -15 78 -16 190 -23 208 -12 6 4 14 29 17 55 4 26 11 62 17 81 l10 34 90
-5 c49 -3 92 -9 96 -13z m123 -24 c5 -59 -5 -169 -17 -188 -17 -27 -49 -30
-58 -7 -3 9 -6 62 -6 118 l0 102 40 -4 c28 -3 40 -9 41 -21z m52 -543 c40
-114 93 -302 103 -367 5 -33 14 -47 38 -63 27 -18 33 -30 48 -102 9 -44 25
-109 34 -143 10 -34 16 -64 14 -66 -3 -2 -118 -1 -257 1 l-251 4 14 47 c8 25
24 85 36 132 21 85 22 86 57 95 35 9 37 12 59 89 29 102 49 230 58 368 4 59 8
107 9 107 1 0 18 -46 38 -102z m786 -130 c1 -34 0 -60 -2 -58 -8 9 -16 131 -8
126 4 -3 9 -33 10 -68z m-1482 -455 c-3 -10 -5 -2 -5 17 0 19 2 27 5 18 2 -10
2 -26 0 -35z m-77 -166 c0 -2 -10 -12 -22 -23 l-23 -19 19 23 c18 21 26 27 26
19z m-50 -40 c0 -2 -15 -16 -32 -33 l-33 -29 29 33 c28 30 36 37 36 29z m1327
-243 c-3 -3 -12 -4 -19 -1 -8 3 -5 6 6 6 11 1 17 -2 13 -5z m126 -11 c-18 -2
-48 -2 -65 0 -18 2 -4 4 32 4 36 0 50 -2 33 -4z"/>
<path d="M4926 8262 c-3 -5 -1 -26 5 -46 15 -53 5 -55 -29 -7 -16 22 -32 37
-36 34 -3 -3 -6 -28 -6 -55 0 -26 -3 -48 -6 -48 -11 0 -33 34 -34 50 -1 28
-17 42 -39 35 -23 -7 -29 -43 -9 -63 6 -6 8 -15 4 -19 -4 -4 -11 -2 -15 6 -5
7 -16 11 -26 9 -10 -2 -20 3 -22 10 -3 6 2 12 11 12 9 0 16 5 16 10 0 14 -23
12 -44 -3 -14 -11 -16 -18 -8 -33 6 -10 16 -34 23 -52 14 -38 42 -40 47 -4 4
25 12 28 30 10 9 -9 12 -7 12 10 0 24 10 28 27 11 8 -8 20 -7 44 5 18 9 45 16
61 16 31 0 34 10 17 59 -9 24 -9 35 0 44 17 17 31 -9 31 -60 0 -30 4 -43 14
-43 9 0 12 8 9 23 l-5 22 19 -21 c10 -12 33 -24 51 -27 30 -6 32 -5 26 18 -4
15 -2 25 5 25 6 0 11 -8 11 -18 0 -19 18 -42 33 -42 4 0 5 10 2 21 -5 15 -4
19 4 15 6 -4 11 -14 11 -22 0 -9 6 -14 13 -11 6 2 17 -2 22 -9 6 -7 22 -16 37
-19 24 -6 29 -3 38 20 18 48 12 74 -22 95 -39 23 -48 19 -48 -25 0 -49 -16
-52 -23 -4 -3 22 -8 43 -10 46 -10 10 -27 -8 -27 -28 0 -32 -25 -17 -28 17 -4
27 -16 43 -34 44 -5 0 -8 -22 -8 -50 0 -27 -4 -50 -10 -50 -5 0 -10 23 -10 50
l0 50 -59 0 c-33 0 -62 -4 -65 -8z m104 -28 c0 -9 -7 -14 -17 -12 -25 5 -28
28 -4 28 12 0 21 -6 21 -16z m210 -38 c0 -8 7 -16 15 -20 20 -7 19 -32 -1 -40
-21 -8 -37 2 -30 20 3 7 1 16 -4 19 -16 10 -12 35 5 35 8 0 15 -6 15 -14z
m-430 -17 c0 -6 -4 -7 -10 -4 -5 3 -10 11 -10 16 0 6 5 7 10 4 6 -3 10 -11 10
-16z m90 -9 c0 -5 -4 -10 -10 -10 -5 0 -10 5 -10 10 0 6 5 10 10 10 6 0 10 -4
10 -10z m-150 -56 c0 -8 -4 -14 -10 -14 -5 0 -10 9 -10 21 0 11 5 17 10 14 6
-3 10 -13 10 -21z"/>
<path d="M5363 8172 l78 -37 -6 -100 c-10 -154 -37 -266 -92 -375 -40 -79 -58
-102 -108 -143 -160 -128 -383 -110 -529 42 -92 97 -127 187 -151 387 -19 155
-12 181 29 116 35 -55 41 -57 53 -12 9 34 8 40 -7 45 -9 3 -26 2 -36 -1 -17
-6 -17 -5 2 16 l21 22 42 -43 c42 -44 62 -48 41 -9 -19 36 -53 70 -68 70 -8 0
-34 -12 -58 -27 -50 -32 -52 -42 -34 -193 22 -179 66 -291 150 -383 114 -125
296 -169 451 -108 66 25 166 111 202 173 40 70 75 179 91 290 15 98 23 235 15
242 -13 10 -143 66 -153 65 -6 0 24 -17 67 -37z"/>
<path d="M4955 8113 c-56 -7 -152 -46 -206 -83 -79 -54 -119 -115 -124 -187
-4 -57 -4 -57 4 -12 5 25 16 59 24 75 17 33 84 100 119 119 144 82 262 94 387
39 116 -52 180 -132 182 -230 1 -48 1 -48 10 -14 30 127 -129 276 -311 292
-30 3 -68 3 -85 1z"/>
<path d="M5162 7962 c5 -19 2 -22 -26 -22 -42 0 -56 -16 -56 -62 0 -39 4 -44
68 -94 37 -30 40 -51 12 -82 -33 -36 -46 -29 -77 40 -2 3 4 13 12 22 14 14 13
17 -10 32 -24 16 -28 16 -60 -2 -29 -16 -37 -16 -59 -5 -20 11 -31 12 -55 1
-36 -15 -39 -25 -11 -40 26 -14 25 -21 -5 -54 -24 -26 -26 -26 -55 -11 -43 22
-39 52 15 105 37 36 45 51 45 80 0 52 -19 75 -58 67 -24 -5 -34 -2 -41 11 -9
15 -10 14 -11 -6 0 -13 -7 -37 -16 -54 -12 -23 -14 -43 -8 -77 4 -25 6 -62 5
-82 -5 -80 58 -167 142 -195 58 -19 138 -15 187 11 69 36 122 119 119 188 -1
23 1 57 5 74 6 25 1 46 -18 87 -14 30 -26 59 -26 65 0 5 -5 13 -12 17 -8 5 -9
0 -6 -14z m-232 -388 c30 -9 50 -19 43 -21 -17 -6 -86 14 -108 32 -12 10 -14
14 -5 11 8 -3 40 -13 70 -22z m196 17 c-4 -5 -27 -16 -53 -25 -53 -18 -51 -11
5 15 43 20 55 23 48 10z"/>
<path d="M4714 7655 c25 -52 95 -116 163 -147 58 -27 72 -30 137 -26 55 4 85
12 125 34 57 30 125 100 134 137 l6 22 -17 -22 c-9 -11 -29 -37 -44 -56 -15
-20 -55 -49 -89 -66 -83 -41 -180 -44 -255 -6 -45 22 -117 86 -159 140 -15 18
-15 17 -1 -10z"/>
<path d="M5667 6169 c-101 -24 -221 -119 -265 -211 -13 -25 -30 -82 -39 -125
-28 -138 9 -266 106 -363 48 -48 84 -71 131 -84 14 -4 2 6 -26 23 -160 94
-220 305 -136 476 60 122 214 217 347 214 l40 -1 -35 -10 c-19 -5 -51 -14 -72
-19 -51 -13 -131 -88 -156 -146 -69 -161 -40 -335 74 -443 77 -73 129 -94 234
-95 70 0 93 4 130 24 132 69 201 233 167 397 -53 252 -278 415 -500 363z m353
-214 c59 -30 29 -84 -46 -85 -52 0 -90 27 -80 57 13 40 76 54 126 28z"/>
<path d="M4080 6111 c-96 -31 -191 -114 -234 -204 -32 -69 -50 -174 -42 -246
14 -121 93 -227 216 -289 44 -23 55 -26 35 -11 -60 45 -141 135 -165 184 -21
42 -25 64 -25 140 0 82 3 97 34 163 59 125 159 192 302 200 45 3 84 0 95 -6
17 -10 15 -11 -12 -12 -98 -1 -204 -82 -243 -185 -31 -83 -32 -198 -1 -280 31
-82 116 -167 191 -189 155 -46 299 16 369 159 22 43 25 64 25 155 0 97 -2 110
-32 173 -44 93 -119 169 -212 215 -70 35 -82 37 -175 39 -56 1 -112 -1 -126
-6z m368 -192 c42 -14 52 -47 22 -71 -27 -22 -68 -23 -98 -2 -30 21 -28 50 6
68 33 19 32 18 70 5z"/>
<path d="M6135 5470 c28 -12 45 -12 45 0 0 6 -15 10 -32 9 -28 0 -30 -2 -13
-9z"/>
<path d="M6105 5450 c-2 -4 9 -10 26 -14 38 -7 54 -8 47 -1 -11 11 -68 23 -73
15z"/>
<path d="M6054 5419 c-3 -5 3 -9 13 -9 10 -1 35 -7 56 -14 32 -12 52 -6 29 8
-20 12 -92 23 -98 15z"/>
<path d="M4879 5371 c-35 -35 -37 -61 -6 -96 32 -37 99 -44 146 -15 40 25 37
34 -6 18 -24 -9 -37 -9 -61 1 -37 15 -72 47 -72 65 0 21 53 38 96 31 38 -6 39
-6 14 9 -40 24 -78 20 -111 -13z"/>
<path d="M5311 5232 c27 -43 -65 -152 -170 -201 -48 -22 -69 -26 -146 -26
-129 1 -201 36 -250 120 -9 15 -14 16 -33 6 -29 -15 -28 -24 9 -65 42 -49 120
-84 214 -98 148 -21 288 30 378 139 20 24 38 56 42 72 8 37 -9 71 -35 71 -17
0 -18 -3 -9 -18z"/>
<path d="M2920 6021 c0 -5 7 -12 16 -15 14 -5 15 -4 4 9 -14 17 -20 19 -20 6z"/>
<path d="M5484 4139 c-66 -4 -131 -12 -143 -19 -45 -23 -67 -139 -40 -207 12
-30 13 -40 29 -198 11 -114 23 -137 91 -172 88 -45 202 -23 269 53 30 35 30
35 30 157 0 105 3 126 20 152 25 37 29 179 6 210 -18 25 -99 32 -262 24z m219
-44 c9 -4 17 -11 17 -15 0 -7 -360 -20 -369 -13 -37 28 285 53 352 28z m27
-92 c0 -32 -4 -65 -10 -73 -10 -17 -110 -28 -253 -29 -130 -1 -137 3 -137 84
l0 64 138 4 c75 1 165 4 200 5 l62 2 0 -57z m-30 -211 c0 -99 -9 -162 -21
-162 -5 0 -7 10 -5 23 3 12 5 71 5 130 1 69 5 106 11 102 6 -3 10 -45 10 -93z
m-99 -44 c0 -73 2 -141 4 -151 2 -10 -6 -22 -18 -28 -22 -13 -106 -7 -149 10
l-28 11 0 140 0 140 25 0 c14 0 26 -3 26 -7 1 -5 5 -71 9 -148 l7 -140 0 144
c1 162 0 161 76 161 l47 0 1 -132z m59 112 c4 -221 -1 -270 -31 -270 -5 0 -9
65 -9 145 0 138 1 145 20 145 13 0 20 -7 20 -20z m-270 -122 c0 -115 -2 -130
-14 -118 -10 10 -18 52 -23 122 -10 121 -9 128 18 128 18 0 19 -9 19 -132z"/>
<path d="M5514 3976 c-9 -24 4 -48 23 -44 12 2 18 12 18 28 0 29 -32 41 -41
16z"/>
<path d="M5104 4105 c-4 -9 0 -23 8 -31 20 -20 50 -7 46 20 -4 26 -45 35 -54
11z"/>
<path d="M5110 3955 c-18 -21 -4 -47 22 -43 29 4 35 34 10 47 -15 8 -23 7 -32
-4z"/>
<path d="M5106 3615 c-3 -8 2 -22 11 -30 14 -15 18 -15 31 -1 8 8 12 22 9 30
-8 20 -43 21 -51 1z"/>
<path d="M5104 3465 c-8 -21 2 -45 19 -45 21 0 38 25 31 44 -8 20 -43 21 -50
1z"/>
<path d="M5863 4055 c-16 -41 -33 -107 -32 -125 0 -8 12 17 25 55 24 69 30
129 7 70z"/>
<path d="M4683 3973 c-18 -7 -16 -42 3 -50 8 -3 23 1 31 10 13 13 14 19 3 31
-13 17 -17 18 -37 9z"/>
<path d="M4933 3033 c9 -2 23 -2 30 0 6 3 -1 5 -18 5 -16 0 -22 -2 -12 -5z"/>
</g>
</svg>
