<?xml version="1.0" standalone="no"?>
<!DOCTYPE svg PUBLIC "-//W3C//DTD SVG 20010904//EN"
 "http://www.w3.org/TR/2001/REC-SVG-20010904/DTD/svg10.dtd">
<svg version="1.0" xmlns="http://www.w3.org/2000/svg"
 width="1024.000000pt" height="1024.000000pt" viewBox="0 0 1024.000000 1024.000000"
 preserveAspectRatio="xMidYMid meet">
<metadata>
Created by potrace 1.16, written by Peter Selinger 2001-2019
</metadata>
<g transform="translate(0.000000,1024.000000) scale(0.100000,-0.100000)"
fill="#000000" stroke="none">
<path d="M4795 9904 c-428 -33 -636 -68 -935 -161 -373 -115 -755 -313 -893
-463 -132 -142 -187 -336 -187 -660 0 -171 8 -273 32 -413 10 -58 9 -70 -3
-78 -8 -5 -57 -9 -109 -9 -213 -1 -499 -27 -680 -61 -363 -70 -561 -175 -604
-320 -70 -234 74 -633 301 -839 151 -136 358 -248 653 -350 l134 -47 -2 -89
c-7 -240 135 -484 356 -613 106 -62 160 -76 289 -76 109 0 112 -1 123 -24 23
-50 82 -130 137 -186 186 -185 539 -334 967 -405 95 -15 359 -48 404 -50 1 0
-2 -9 -8 -20 -10 -18 -21 -20 -134 -20 -135 0 -129 2 -218 -77 -21 -18 -79
-54 -130 -79 -179 -90 -333 -201 -502 -363 -132 -128 -186 -194 -186 -228 0
-14 9 -40 20 -59 l21 -33 -40 -52 c-82 -109 -117 -213 -101 -300 25 -131 182
-407 321 -562 l52 -58 -28 -50 c-29 -54 -29 -105 1 -129 11 -10 13 -26 8 -69
-8 -73 20 -119 86 -141 25 -8 67 -30 94 -48 31 -20 63 -32 83 -32 21 0 33 -5
33 -14 0 -25 -108 -451 -185 -726 -70 -250 -79 -277 -112 -313 -54 -60 -76
-118 -68 -177 5 -38 2 -62 -14 -105 -12 -31 -21 -70 -21 -88 0 -43 50 -145 89
-181 l31 -29 -19 -31 c-10 -17 -31 -54 -45 -81 -23 -45 -31 -52 -73 -64 -88
-23 -267 -116 -295 -153 -47 -62 -61 -107 -63 -206 -1 -51 -4 -94 -6 -96 -2
-2 -132 -9 -289 -15 -423 -17 -590 -35 -564 -61 5 -5 27 -10 49 -13 22 -2 -36
-4 -130 -5 -451 -5 -848 -16 -820 -24 17 -4 219 -12 450 -18 441 -11 1239 -60
1288 -79 46 -18 205 -41 348 -50 201 -12 809 3 1539 39 107 6 330 13 495 16
280 6 309 5 440 -16 173 -28 461 -38 573 -20 42 6 100 22 128 34 30 14 82 26
130 30 358 32 540 69 570 117 13 22 -24 41 -91 46 -126 11 -42 23 156 23 257
0 752 19 762 29 4 4 -86 11 -200 15 -114 3 -325 13 -468 21 -143 8 -378 18
-522 22 -251 6 -324 15 -210 27 28 3 158 8 287 11 129 3 238 9 243 14 10 10
-116 21 -257 21 -61 0 -161 3 -222 6 l-111 7 -28 59 c-15 32 -44 73 -64 90
-43 38 -179 103 -275 133 -69 21 -70 22 -105 85 l-34 63 29 26 c100 90 130
208 80 317 -14 31 -26 73 -26 93 0 39 -45 123 -81 151 -21 16 -34 62 -130 430
-50 195 -82 313 -125 461 -3 11 7 19 35 28 68 20 99 72 116 192 6 45 7 47 46
53 92 15 139 65 139 149 0 26 7 62 16 79 12 23 15 46 10 83 -5 45 -3 55 15 71
12 10 49 55 83 99 179 231 299 486 282 600 -10 62 -56 152 -115 222 l-52 62
16 32 c25 47 9 73 -129 206 -222 217 -378 334 -565 428 -63 31 -123 67 -133
80 -30 39 -93 57 -215 63 -106 4 -113 6 -129 30 -18 28 -7 42 34 42 35 0 264
48 387 80 463 122 760 301 900 542 l50 86 105 -5 c173 -8 284 36 426 170 163
154 251 340 263 560 l6 117 106 44 c350 142 646 423 808 767 117 248 149 461
91 596 -96 225 -513 322 -1330 311 l-255 -3 -7 75 c-43 452 -158 789 -327 958
-231 231 -787 435 -1381 508 -118 14 -576 26 -685 18z m710 -83 c305 -42 475
-80 718 -162 261 -87 462 -187 542 -268 21 -23 36 -41 33 -41 -4 0 -41 20 -83
45 -609 360 -1394 497 -2230 389 -261 -34 -547 -105 -779 -195 -124 -48 -489
-219 -483 -226 2 -2 60 22 128 53 360 162 736 275 1039 313 169 21 407 41 480
40 72 -1 73 -2 30 -10 -56 -11 -252 -79 -265 -92 -7 -7 -5 -7 5 -3 8 4 4 -2
-9 -13 -13 -12 -32 -21 -43 -21 -24 0 -70 23 -87 44 -19 22 -54 20 -77 -5 -10
-11 -33 -27 -51 -34 -30 -13 -33 -18 -33 -56 0 -26 7 -50 17 -61 15 -17 15
-26 5 -77 -19 -90 -15 -246 8 -335 36 -143 123 -276 256 -391 l70 -62 -135
-12 c-438 -40 -836 -123 -1251 -261 -114 -38 -341 -135 -388 -166 -13 -8 -25
-14 -27 -12 -2 2 3 84 11 182 15 195 33 320 64 434 11 40 20 76 20 80 -1 20
-53 -83 -75 -148 -34 -104 -44 -188 -46 -385 -1 -134 -3 -160 -11 -125 -16 80
-3 490 20 621 45 250 113 393 225 475 179 132 585 308 912 394 190 51 439 90
725 114 25 2 173 2 330 1 219 -3 320 -8 435 -24z m-90 -61 c113 -13 351 -54
470 -82 237 -55 698 -234 886 -344 116 -68 167 -158 250 -448 37 -126 36 -146
-1 -37 -38 112 -111 251 -131 251 -4 0 5 -33 20 -72 65 -174 178 -609 160
-616 -4 -2 -43 12 -86 31 -209 93 -532 174 -839 211 -162 20 -550 38 -624 29
l-55 -6 59 69 c33 38 66 76 75 84 47 43 113 165 137 253 25 89 29 250 10 346
-15 75 -16 85 -2 100 32 36 14 121 -26 121 -12 0 -36 11 -54 25 -18 14 -40 25
-49 25 -9 0 -38 -21 -65 -46 l-50 -47 -39 36 c-76 68 -217 113 -398 127 -105
8 -97 8 72 4 105 -2 231 -9 280 -14z m-171 -51 c92 -24 164 -57 224 -106 41
-34 42 -35 42 -96 -1 -38 -6 -69 -15 -81 -14 -18 -15 -18 -44 7 -23 19 -27 26
-16 31 8 3 15 0 16 -7 1 -7 5 6 10 27 5 21 7 41 4 44 -3 3 -5 -2 -5 -11 0 -9
-9 -21 -21 -28 -19 -10 -20 -9 -14 13 12 38 11 43 -7 40 -10 -2 -18 2 -18 8 0
5 -4 10 -10 10 -5 0 -10 -9 -10 -20 0 -13 5 -18 15 -14 12 5 14 0 8 -27 -3
-19 -9 -36 -12 -39 -3 -3 -6 -14 -6 -24 0 -12 -10 -23 -28 -29 -22 -7 -37 -4
-77 17 -27 14 -57 26 -65 26 -9 0 -14 4 -11 9 3 4 -7 6 -22 4 -16 -3 -22 -1
-15 4 17 12 -113 15 -192 4 -37 -6 -71 -14 -74 -19 -7 -11 -71 -33 -71 -25 0
3 -8 -1 -17 -9 -25 -21 -51 -29 -59 -17 -3 5 -14 7 -25 4 -14 -5 -19 -2 -19
13 0 10 -10 27 -22 38 l-23 19 19 -23 c21 -24 16 -38 -8 -29 -22 9 -48 66 -42
91 5 21 96 84 96 66 0 -6 9 -1 21 11 15 15 28 19 47 15 20 -5 23 -4 12 3 -12
8 -9 12 13 20 37 14 37 14 53 -6 8 -11 13 -13 14 -5 0 6 5 12 11 12 6 0 8 -9
4 -21 -5 -14 -2 -25 6 -30 21 -13 35 -11 21 3 -7 7 -12 23 -12 36 0 19 -4 23
-20 19 -11 -3 -20 -1 -20 3 0 27 177 40 279 20 46 -8 217 -69 296 -105 16 -8
32 -11 35 -9 8 8 -31 34 -60 40 -14 3 -72 23 -130 44 -180 66 -292 74 -427 31
-138 -44 -266 -114 -258 -141 2 -8 7 -33 10 -55 5 -33 2 -29 -16 22 -23 67
-17 93 22 93 10 0 21 5 24 10 3 6 -3 10 -14 10 -88 0 144 104 299 134 49 9
226 -5 304 -25z m411 -69 c19 -20 35 -28 47 -24 26 8 24 -26 -6 -84 -34 -68
-59 -88 -91 -74 -14 6 -25 16 -25 22 0 16 31 60 42 60 5 0 16 7 24 15 14 13
14 16 -2 22 -10 4 -19 2 -22 -5 -2 -7 -10 -12 -17 -12 -8 0 -21 -7 -29 -16
-21 -20 -56 -9 -56 18 0 18 83 108 100 108 4 0 19 -14 35 -30z m-1162 -6 c16
-16 37 -26 57 -26 29 -1 31 -3 28 -36 -2 -19 -11 -40 -20 -45 -13 -9 -24 -3
-57 31 l-40 41 -19 -27 c-23 -32 -13 -67 21 -76 29 -7 33 0 13 23 -10 11 -16
25 -14 32 2 7 14 -4 26 -24 23 -41 21 -63 -9 -72 -27 -9 -43 7 -74 68 -28 57
-33 89 -11 81 9 -3 24 7 37 25 13 17 26 31 30 31 3 0 18 -12 32 -26z m112
-174 c8 -29 12 -57 9 -62 -3 -4 11 -8 30 -8 28 0 36 -4 36 -17 0 -13 -9 -19
-33 -20 -17 -2 -43 -4 -57 -5 -24 -3 -25 -1 -28 67 -5 126 16 148 43 45z m-49
-120 c8 -8 29 -9 72 -3 l61 10 23 -53 c19 -42 31 -56 66 -73 l43 -21 -25 -31
c-28 -33 -32 -55 -15 -79 8 -12 9 -10 4 8 -4 13 -2 22 4 22 6 0 11 9 11 20 0
11 11 27 25 36 29 19 21 38 -20 48 -14 4 -32 19 -40 34 -13 22 -15 23 -10 5 4
-13 4 -23 0 -23 -9 0 -36 70 -31 79 3 5 -3 16 -14 26 -33 30 -25 40 29 37 37
-3 65 3 118 27 155 68 264 67 408 -3 28 -14 69 -26 89 -26 30 0 37 -3 34 -17
-5 -28 -42 -27 -87 1 -56 36 -184 76 -240 76 -69 0 -153 -25 -226 -67 -88 -51
-74 -54 17 -4 92 50 188 69 269 52 63 -14 238 -91 239 -106 0 -5 -7 -23 -15
-39 -9 -16 -14 -35 -11 -42 3 -7 -2 -10 -15 -7 -11 3 -29 -3 -41 -13 -11 -11
-23 -14 -25 -9 -14 40 -74 120 -103 137 -33 20 -33 20 8 -16 23 -21 42 -43 42
-51 0 -7 7 -18 14 -25 8 -6 22 -34 32 -62 16 -50 16 -51 -5 -67 -21 -16 -21
-19 -7 -51 l15 -35 1 36 c0 47 24 70 40 39 6 -12 14 -19 17 -16 3 3 -6 19 -21
36 -30 37 -32 47 -9 72 20 22 33 23 33 3 0 -18 9 -19 31 -2 16 12 35 79 30
106 -1 7 2 10 7 7 5 -3 16 1 23 10 10 12 24 14 65 9 65 -8 74 4 75 97 l0 63
25 -85 c20 -69 24 -103 22 -180 -4 -132 -39 -203 -152 -315 -88 -86 -153 -124
-258 -151 -80 -21 -211 -14 -287 15 -147 56 -285 193 -342 340 -25 64 -37 224
-23 319 l8 57 6 -72 c3 -40 10 -77 16 -83z m1162 -35 c3 -99 1 -146 -12 -195
-17 -69 -72 -188 -106 -230 -11 -14 0 15 24 63 40 79 95 261 83 274 -3 2 -10
-18 -16 -44 -27 -129 -100 -278 -174 -354 -55 -58 -147 -112 -246 -146 -65
-23 -93 -27 -196 -27 -85 -1 -138 4 -183 16 -90 25 -206 85 -261 134 -80 72
-188 252 -192 319 0 11 -3 14 -6 8 -10 -25 41 -147 93 -226 30 -44 54 -82 54
-85 0 -12 -34 26 -76 84 -50 71 -80 134 -100 209 -19 70 -29 292 -15 328 15
38 31 25 32 -26 1 -23 3 -33 6 -22 13 52 20 29 16 -47 -14 -214 65 -396 225
-524 129 -103 248 -140 425 -132 95 4 124 10 190 37 238 95 389 301 389 531 0
77 -6 110 -27 163 -14 35 13 16 29 -20 l16 -38 -6 47 c-7 54 3 81 19 52 6 -10
13 -77 15 -149z m-1226 32 c-5 -111 10 -184 57 -281 64 -130 176 -241 298
-293 32 -13 45 -22 28 -18 -103 20 -257 140 -321 248 -70 120 -109 295 -84
385 6 23 14 42 18 42 4 0 5 -37 4 -83z m1026 39 c2 -9 -3 -16 -11 -16 -16 0
-67 37 -67 50 0 14 75 -18 78 -34z m124 -40 c23 -140 -28 -304 -130 -417 -44
-50 -182 -149 -206 -149 -6 0 18 17 53 38 116 68 215 197 247 323 13 50 15 88
10 179 -7 128 7 142 26 26z m-167 29 c34 -28 29 -30 -26 -14 -25 8 -36 16 -32
25 7 20 24 17 58 -11z m-482 -642 c-7 -2 -21 -2 -30 0 -10 3 -4 5 12 5 17 0
24 -2 18 -5z m-167 -61 c190 -65 399 -50 577 40 22 11 41 17 44 15 7 -8 -52
-46 -109 -71 -97 -42 -147 -51 -278 -50 -110 0 -134 4 -196 27 -77 29 -160 72
-170 89 -3 5 11 1 32 -10 22 -11 66 -29 100 -40z m934 -303 c191 -63 213 -71
198 -79 -7 -4 -103 -12 -213 -19 -110 -6 -355 -23 -545 -36 -190 -13 -484 -31
-655 -39 -356 -18 -1095 -39 -1102 -33 -2 3 22 9 54 15 32 6 108 22 168 36
457 105 1236 191 1770 195 l199 1 126 -41z m2234 -74 c205 -17 337 -37 451
-70 162 -47 234 -92 280 -176 29 -52 30 -59 29 -174 -1 -95 -5 -132 -22 -180
-15 -41 -20 -49 -16 -25 36 230 17 354 -67 424 -215 181 -1133 211 -2889 96
-946 -62 -1051 -68 -1535 -90 -572 -25 -696 -30 -950 -40 -954 -37 -1230 -64
-1504 -151 -237 -76 -266 -106 -301 -309 -8 -49 -9 -43 -6 50 2 119 20 166 78
215 103 87 390 164 728 194 151 14 691 38 1155 51 833 24 1095 35 1620 70 371
25 891 55 1305 75 310 15 569 28 875 44 239 13 582 11 769 -4z m-4859 -26 c-8
-11 -230 -119 -247 -119 -28 0 28 39 117 81 97 47 143 60 130 38z m3359 -316
c34 -33 89 -74 122 -92 32 -19 88 -55 124 -81 66 -49 323 -304 354 -351 15
-24 16 -47 6 -270 -10 -242 -17 -345 -45 -674 -23 -266 -41 -366 -92 -528 -69
-221 -170 -351 -377 -488 -183 -122 -386 -202 -686 -272 -297 -69 -370 -79
-673 -84 -495 -10 -934 46 -1255 159 -127 44 -320 138 -407 199 -172 119 -286
296 -325 507 -16 90 -29 309 -31 527 -1 179 1 213 24 325 15 69 45 179 67 245
48 141 138 331 172 362 34 31 561 235 603 233 6 -1 -42 -20 -105 -44 -101 -37
-185 -74 -170 -76 3 0 43 -7 90 -15 130 -23 263 -29 396 -16 214 19 366 58
587 147 l109 44 24 -19 c58 -46 117 -56 319 -55 155 0 209 5 292 22 267 57
480 171 672 357 l96 93 23 -48 c13 -28 50 -74 86 -107z m881 -37 c64 -90 122
-221 158 -356 26 -97 31 -134 31 -235 0 -99 -4 -130 -22 -180 l-21 -60 7 70
c13 123 7 314 -12 399 -31 135 -84 260 -157 369 -53 77 -41 73 16 -7z m1182
-312 c7 -169 -4 -218 -70 -325 -119 -193 -384 -395 -670 -510 -58 -23 -59 -23
-73 -4 -26 36 -16 49 74 90 128 59 334 200 429 293 183 182 293 419 280 607
l-5 70 15 -45 c9 -26 17 -99 20 -176z m-3512 136 c-3 -5 -12 -10 -18 -10 -7 0
-6 4 3 10 19 12 23 12 15 0z m-3396 -156 c-29 -124 -9 -269 54 -389 62 -119
299 -329 521 -463 39 -23 65 -42 58 -42 -25 0 -119 43 -210 97 -266 157 -471
362 -501 503 -12 57 -2 159 23 233 18 51 56 120 63 114 2 -3 -1 -26 -8 -53z
m1163 -174 c-24 -67 -27 -89 -26 -210 0 -112 4 -145 22 -195 21 -57 21 -59 2
-37 -70 84 -65 329 11 495 22 49 18 24 -9 -53z m4686 -476 c224 -112 286 -420
140 -708 -129 -258 -347 -403 -570 -381 -37 4 -68 9 -68 12 0 3 10 38 22 79
l21 74 43 0 c58 0 186 42 230 75 38 29 74 80 74 104 0 10 -12 3 -32 -16 -47
-45 -134 -88 -222 -109 -42 -10 -78 -16 -80 -13 -2 2 0 24 4 49 5 25 14 122
20 215 l11 170 43 40 c93 87 212 118 295 76 45 -23 97 -80 119 -130 14 -32 16
-34 20 -13 9 54 -48 155 -111 198 -47 31 -117 48 -172 40 -46 -7 -157 -73
-174 -104 -20 -35 -20 -3 -1 67 38 136 116 257 185 287 52 23 144 17 203 -12z
m-4510 -104 c53 -24 103 -77 149 -159 33 -58 36 -69 35 -139 -1 -41 -3 -77 -5
-79 -2 -2 -21 11 -43 28 -160 129 -338 107 -420 -54 -20 -38 -32 -153 -16
-143 6 4 17 25 24 48 16 54 73 113 123 128 22 6 74 14 116 17 84 6 124 -8 186
-66 l32 -29 3 -189 3 -188 -40 3 c-55 5 -152 38 -198 68 -22 14 -41 23 -44 21
-2 -3 10 -21 28 -42 43 -49 116 -84 194 -94 36 -4 67 -10 70 -13 5 -5 45 -141
45 -153 0 -11 -157 -4 -205 9 -179 48 -358 219 -432 415 -49 130 -42 308 18
435 72 154 246 235 377 176z m2605 -1847 c45 -87 97 -208 97 -225 0 -5 -19 2
-42 16 -63 36 -153 59 -200 52 -22 -4 -62 -18 -89 -31 l-49 -25 35 54 c19 30
35 57 35 60 0 2 14 34 30 69 17 36 30 74 30 85 0 16 8 22 33 25 77 9 72 13
120 -80z m-203 64 c0 -30 -243 -487 -259 -487 -3 0 -18 35 -33 79 -15 43 -61
150 -103 237 -41 88 -75 164 -75 169 0 6 85 10 235 10 129 0 235 -4 235 -8z
m-472 -153 c38 -45 60 -86 30 -56 -7 7 -25 12 -40 12 -28 0 -147 -55 -200 -92
-16 -11 -28 -17 -28 -15 0 7 97 222 122 272 l21 39 26 -55 c14 -30 45 -77 69
-105z m-208 76 c0 -5 -12 -12 -27 -15 -16 -4 -56 -13 -90 -21 -34 -8 -69 -14
-78 -14 -20 0 -19 19 2 42 13 15 32 18 105 18 51 0 88 -4 88 -10z m1127 -11
c46 -17 21 -25 -69 -21 -89 4 -118 13 -118 35 0 11 149 1 187 -14z m-31 -59
l61 0 30 -67 c37 -84 60 -175 69 -273 l6 -75 -238 0 c-317 0 -334 -7 -334
-144 0 -31 6 -81 14 -111 8 -30 17 -82 21 -115 17 -156 38 -230 68 -240 14 -4
17 -8 9 -12 -6 -2 -10 -8 -7 -13 3 -4 -4 -6 -15 -3 -12 3 -20 0 -20 -6 0 -18
115 -69 198 -87 104 -23 241 -16 282 14 l29 22 10 -37 c48 -179 100 -418 93
-425 -5 -5 -56 -14 -112 -19 -57 -5 -107 -12 -111 -15 -14 -8 -10 10 6 32 26
34 18 50 -12 23 -20 -18 -25 -20 -20 -6 8 23 -6 22 -28 -3 -32 -35 -111 -80
-141 -80 -28 0 -28 0 28 58 56 58 112 132 142 190 9 18 15 32 14 32 -2 0 -44
-40 -93 -89 -75 -74 -106 -96 -186 -135 -53 -25 -127 -53 -165 -61 -95 -20
-95 -20 -83 12 10 27 10 27 -11 8 -11 -10 -22 -16 -25 -13 -3 3 -9 161 -14
352 -5 191 -11 349 -14 352 -11 11 -19 -322 -13 -511 4 -110 5 -203 2 -205 -2
-3 -41 -4 -85 -2 l-81 4 0 122 c0 190 -12 400 -22 383 -4 -9 -11 -128 -15
-266 -6 -247 -6 -251 -27 -246 -12 2 -43 7 -71 10 -141 18 -244 64 -300 133
-59 73 -55 71 -45 34 5 -19 19 -50 30 -69 11 -20 20 -37 18 -38 -8 -8 -99 32
-140 62 -62 45 -88 89 -87 144 1 48 4 45 14 -13 9 -56 25 -46 25 15 0 28 3 95
6 148 l7 97 59 6 c132 15 281 79 293 124 10 39 29 334 29 453 1 138 0 139
-116 139 -71 0 -89 3 -85 13 3 8 8 40 12 72 5 33 15 65 25 75 30 30 158 102
169 95 6 -3 27 -31 47 -61 20 -30 65 -81 100 -112 55 -49 61 -58 52 -76 -13
-24 -13 -452 0 -506 9 -38 13 -3 32 320 4 80 11 153 15 163 4 10 45 43 90 73
45 30 116 83 157 118 96 83 140 97 206 65 26 -13 78 -42 117 -66 38 -24 77
-43 86 -43 40 0 33 53 -23 184 -21 49 -38 94 -38 99 0 5 10 7 23 3 12 -3 50
-6 83 -6z m-1397 -71 c-11 -30 -27 -106 -35 -169 l-13 -115 4 113 c4 96 9 123
31 173 33 73 43 72 13 -2z m1549 19 c6 -16 10 -28 7 -28 -5 0 -35 56 -35 67 0
12 15 -10 28 -39z m-1393 12 c-16 -4 -46 -8 -65 -8 l-35 0 30 8 c17 4 46 8 65
8 l35 0 -30 -8z m-224 -52 c-24 -65 -46 -145 -61 -219 -7 -38 -30 -87 -69
-150 -32 -52 -89 -147 -127 -211 -38 -65 -73 -118 -78 -118 -11 0 -266 258
-266 269 0 17 214 214 303 280 117 86 294 200 309 201 4 0 -1 -24 -11 -52z
m1780 -19 c63 -40 141 -92 174 -117 76 -58 256 -216 315 -276 l44 -46 -128
-128 -128 -127 -25 30 c-51 62 -106 150 -154 243 -43 84 -49 103 -49 157 0 34
-5 77 -12 96 -15 45 -64 104 -105 129 -40 23 -83 110 -55 110 5 0 60 -32 123
-71z m-1110 -78 c17 -42 44 -97 60 -123 16 -27 25 -48 21 -48 -13 0 -99 105
-141 171 -40 63 -40 64 -18 70 41 10 47 6 78 -70z m279 -22 c-25 -22 -58 -50
-75 -61 l-30 -22 20 24 c23 27 114 100 123 100 4 -1 -13 -19 -38 -41z m-829
10 c-5 -19 -18 -110 -26 -181 -6 -55 -8 -58 -34 -58 l-27 0 8 73 c12 104 27
170 41 179 18 12 43 4 38 -13z m107 4 c-15 -2 -42 -2 -60 0 -18 2 -6 4 27 4
33 0 48 -2 33 -4z m-7 -193 c-9 -23 -10 -23 -10 11 -1 20 2 58 7 85 l7 49 3
-60 c2 -34 -2 -72 -7 -85z m-61 57 c-4 -38 -12 -72 -15 -75 -8 -7 1 82 12 126
10 42 12 17 3 -51z m300 -217 c0 -87 -1 -90 -22 -90 -28 0 -98 -31 -160 -71
-44 -29 -50 -30 -85 -18 -47 15 -53 24 -43 60 5 16 12 65 16 109 8 97 -10 90
237 98 l57 2 0 -90z m1198 74 c20 -6 22 -13 22 -65 0 -39 -4 -61 -12 -63 -85
-25 -167 -54 -232 -82 -87 -38 -94 -38 -190 11 -27 14 -64 25 -81 25 -28 0
-33 4 -39 31 -3 17 -6 55 -6 85 l0 53 43 5 c106 15 441 14 495 0z m-1612 -19
c-72 -11 -93 -18 -116 -40 -26 -25 -28 -25 -23 -7 11 42 60 61 158 60 l70 -1
-89 -12z m-21 -82 c-4 -32 -11 -76 -15 -98 l-8 -40 -1 45 c-1 66 10 150 21
150 6 0 7 -24 3 -57z m-62 26 c-3 -11 -12 -23 -20 -26 -9 -3 -21 -20 -29 -37
-9 -22 -13 -25 -14 -12 0 21 47 96 60 96 5 0 6 -9 3 -21z m-557 -31 c14 -24
77 -93 141 -155 108 -105 114 -113 100 -133 -13 -19 -17 -17 -137 64 -134 92
-200 149 -200 175 1 13 58 91 67 91 2 0 14 -19 29 -42z m2969 -24 l27 -36 -78
-77 c-44 -42 -110 -98 -147 -125 -65 -45 -69 -47 -82 -29 -8 10 -15 23 -15 28
0 11 249 272 261 274 4 1 19 -15 34 -35z m-1921 -363 c6 -24 4 -36 -5 -42 -17
-11 -49 -12 -48 -1 6 34 0 35 -114 29 -62 -3 -121 -9 -132 -13 -17 -7 -18 -3
-12 74 8 104 18 123 57 116 47 -10 98 5 136 38 19 17 50 39 67 48 l32 17 6
-116 c3 -64 9 -131 13 -150z m1195 20 c1 -68 -1 -77 -26 -103 -35 -37 -47 -36
-28 3 9 17 15 42 13 57 l-3 27 -134 -2 c-131 -1 -254 -17 -279 -36 -7 -6 -14
-8 -16 -6 -8 9 -17 271 -9 267 114 -61 161 -67 260 -35 43 14 101 31 128 37
28 6 57 18 65 26 13 13 16 5 21 -73 4 -48 7 -122 8 -162z m804 140 c61 -102
77 -142 77 -189 0 -84 -60 -222 -172 -402 -55 -87 -183 -260 -193 -260 -17 0
-83 39 -98 58 -20 24 -87 62 -110 62 -8 0 -20 7 -27 15 -11 13 -5 34 40 128
83 175 88 188 99 251 11 62 23 77 158 213 29 29 78 87 109 128 31 41 60 75 63
75 4 0 28 -36 54 -79z m-3091 20 c19 -28 75 -96 125 -153 120 -136 174 -218
238 -357 28 -64 63 -138 76 -165 19 -39 21 -50 10 -54 -26 -9 -116 -88 -116
-102 0 -27 31 -21 94 20 l64 41 26 -25 c15 -14 35 -26 44 -26 23 0 21 -7 -8
-42 -28 -34 -58 -125 -54 -166 2 -15 -3 -41 -10 -59 -9 -23 -10 -40 -2 -69 11
-41 15 -184 5 -184 -3 0 -17 9 -31 20 -20 15 -34 18 -64 14 -33 -6 -42 -3 -69
24 -16 17 -45 35 -64 42 -40 13 -61 35 -70 72 -7 32 15 92 46 125 12 13 17 23
11 23 -5 0 -20 -11 -33 -25 -27 -29 -45 -21 -55 26 -6 25 0 38 31 77 21 26 51
59 67 75 28 26 28 27 7 27 -12 0 -31 -5 -42 -11 -19 -10 -25 -7 -50 22 -63 75
-212 309 -266 417 -48 97 -57 123 -60 180 -2 40 2 81 10 102 19 51 89 180 98
180 4 0 23 -22 42 -49z m2368 -52 c7 -13 16 -26 19 -29 25 -21 90 -110 83
-114 -5 -3 -37 23 -71 58 -58 61 -61 67 -60 113 1 39 2 43 8 22 5 -14 14 -36
21 -50z m-1677 -26 c-7 -2 -19 -2 -25 0 -7 3 -2 5 12 5 14 0 19 -2 13 -5z
m-31 -81 c1 -39 7 -67 15 -74 8 -6 23 -25 35 -41 19 -27 20 -29 2 -19 -46 25
-61 55 -68 137 -4 53 -3 76 4 69 6 -6 11 -38 12 -72z m-71 30 c-12 -22 -50
-57 -56 -51 -6 7 45 69 56 69 6 0 6 -6 0 -18z m2014 -218 c20 9 39 16 41 16
19 0 -43 -184 -102 -304 -34 -68 -44 -81 -77 -94 -21 -8 -40 -13 -42 -10 -2 2
-22 80 -43 173 -22 94 -49 197 -61 230 l-22 60 21 14 c16 11 20 24 20 70 l0
56 113 -113 114 -114 38 16z m-2005 111 c0 -8 14 -30 30 -49 17 -18 28 -40 25
-47 -2 -8 -9 -59 -15 -114 -6 -55 -22 -134 -35 -176 -16 -52 -22 -89 -18 -113
7 -43 -12 -49 -45 -13 -51 54 -199 404 -179 424 4 3 26 1 48 -6 l42 -13 61 61
c60 61 86 74 86 46z m99 -287 c-5 -57 -13 -123 -18 -148 -9 -42 -4 -89 15
-152 4 -13 0 -18 -15 -18 -24 0 -37 22 -52 89 -9 45 -7 59 19 143 17 51 34
129 38 173 6 64 9 74 14 48 4 -17 3 -78 -1 -135z m1865 -275 c37 -31 86 -53
121 -53 25 0 67 -33 98 -80 19 -27 22 -67 7 -90 -8 -13 -11 -12 -25 5 -16 20
-16 19 -11 -5 13 -68 17 -120 11 -140 -5 -14 -29 -32 -73 -51 -54 -25 -79 -30
-132 -29 -36 1 -78 -2 -94 -6 -26 -6 -28 -5 -22 12 15 38 26 118 26 185 0 84
-23 117 -86 126 l-40 5 52 54 c28 30 58 54 67 54 8 0 17 9 20 20 7 28 43 25
81 -7z m-1834 -115 c19 -12 -59 0 -80 12 -9 6 0 7 25 3 22 -3 47 -10 55 -15z
m110 -5 c0 -32 -16 -46 -44 -39 -19 5 -26 13 -26 31 0 22 4 25 35 25 27 0 35
-4 35 -17z m1395 7 c-10 -16 -75 -29 -214 -39 -163 -13 -201 -14 -201 -3 0 5
64 12 143 16 78 3 169 13 202 20 79 18 77 17 70 6z m-548 -18 c40 -4 76 -11
80 -16 11 -11 6 -197 -6 -227 -7 -17 -10 8 -10 94 l-1 117 -48 0 -47 0 3 -75
c5 -96 -2 -123 -34 -131 -46 -12 -64 18 -64 106 0 46 5 81 12 88 9 9 -25 12
-154 12 -92 0 -168 -3 -170 -7 -2 -5 -2 -52 2 -105 5 -104 -4 -117 -19 -28
-16 93 -19 137 -11 150 15 23 311 37 467 22z m-527 -24 c19 -12 -233 0 -263
12 -14 6 28 7 113 3 74 -3 142 -10 150 -15z m1170 2 c0 -11 -50 -34 -57 -26
-3 2 8 11 24 20 34 19 33 18 33 6z m60 -49 c-22 -13 -125 -42 -116 -33 10 9
97 40 116 41 13 0 13 -1 0 -8z m-82 -107 c7 -27 11 -62 10 -78 -2 -21 -9 -5
-24 53 -12 49 -16 80 -10 78 6 -2 17 -26 24 -53z m-1518 -32 c0 -7 -4 -10 -10
-7 -5 3 -10 16 -10 28 0 18 2 19 10 7 5 -8 10 -21 10 -28z m37 -68 c-7 -7 -37
7 -37 17 0 6 9 5 21 -1 11 -7 19 -14 16 -16z m-115 2 c32 -8 65 -21 73 -30 9
-9 25 -16 37 -16 18 0 17 -4 -12 -41 -32 -39 -180 -163 -253 -210 -33 -21 -47
-39 -32 -39 12 0 93 45 145 80 83 56 138 115 196 208 1 2 40 -6 86 -17 46 -11
119 -25 163 -30 44 -6 108 -16 142 -23 l62 -12 5 -51 c3 -27 8 -112 12 -187 5
-120 4 -138 -9 -138 -9 0 -53 14 -98 30 -45 17 -87 29 -93 27 -16 -5 105 -91
158 -111 37 -14 46 -22 40 -35 -3 -9 -65 -187 -136 -396 -127 -369 -131 -383
-138 -490 -4 -60 -12 -123 -19 -138 -17 -44 -112 -187 -123 -187 -6 0 -7 7 -3
18 27 61 47 134 65 238 11 65 27 137 34 159 8 22 44 123 81 225 37 102 82 230
101 285 l34 100 -57 -56 c-32 -31 -71 -67 -87 -80 -16 -13 -46 -38 -65 -55
-146 -125 -268 -215 -319 -235 -51 -19 -69 -20 -175 -14 -66 3 -126 9 -134 12
-11 4 -14 1 -11 -8 6 -19 93 -48 147 -49 50 0 50 -9 0 -15 -19 -2 -68 -9 -109
-16 -64 -10 -84 -9 -130 4 -30 9 -56 14 -58 12 -2 -2 1 -12 7 -23 19 -35 75
-47 208 -45 104 3 136 7 215 33 51 16 129 48 172 70 43 22 81 39 83 37 2 -2
-32 -38 -76 -80 -70 -67 -87 -78 -150 -97 -76 -22 -202 -40 -288 -40 -29 0
-53 -4 -53 -10 0 -17 -79 -11 -120 9 -45 22 -55 12 -35 -35 15 -37 49 -65 120
-99 114 -56 240 -69 392 -40 96 18 101 18 83 1 -29 -28 -116 -65 -175 -75 -33
-5 -148 -12 -255 -15 l-195 -5 -24 34 c-32 47 -38 112 -16 190 9 36 14 76 11
90 -9 36 13 114 36 128 11 7 28 28 38 47 47 93 229 747 260 937 12 75 22 92
43 75 18 -15 54 3 70 35 8 15 20 55 27 88 12 57 25 85 39 85 3 -1 32 -7 63
-14z m1568 -198 c24 -76 49 -103 117 -119 39 -10 44 -15 54 -53 40 -153 156
-579 180 -663 16 -56 31 -115 33 -130 1 -16 22 -60 45 -98 39 -65 42 -74 38
-123 -3 -29 -2 -50 2 -47 21 12 71 -82 71 -133 0 -30 -46 -132 -60 -132 -4 0
-10 18 -14 40 -3 22 -9 40 -12 40 -3 0 -21 -12 -40 -26 -19 -15 -51 -32 -71
-40 -52 -18 -261 -19 -282 -1 -9 8 -52 26 -96 42 -106 37 -171 70 -222 112
-55 44 -55 57 1 33 185 -79 389 -39 591 114 52 40 55 44 43 76 -8 25 -14 59
-17 102 -1 13 -24 1 -96 -51 -189 -138 -247 -158 -359 -130 -74 18 -205 130
-325 278 -18 23 -35 40 -37 38 -3 -2 12 -71 32 -153 19 -82 42 -202 49 -266
18 -147 26 -179 70 -251 19 -32 35 -61 35 -64 0 -18 -36 31 -91 125 l-64 107
-6 105 c-5 82 -15 135 -47 240 -200 661 -200 659 -149 660 45 0 247 99 247
121 0 4 -28 -2 -62 -12 -154 -48 -266 -69 -360 -69 l-95 0 -6 197 c-4 108 -5
197 -4 198 1 0 34 -1 73 -3 l70 -4 11 -141 c7 -78 10 -143 8 -145 -2 -2 -25
-7 -52 -12 -41 -7 -34 -8 55 -9 62 -1 102 3 102 9 0 6 -16 10 -36 10 l-37 0 7
38 c3 20 6 87 6 148 l0 111 128 5 c99 4 140 10 187 28 41 15 93 24 165 29 80
5 113 11 140 27 l35 21 12 -56 c7 -31 22 -86 33 -123z m290 5 c-9 -14 -10 -10
-6 22 3 22 7 51 8 65 1 14 3 4 5 -22 2 -26 -1 -56 -7 -65z m-1000 -398 c0 -20
86 -317 154 -530 83 -259 83 -260 78 -347 -4 -84 -3 -90 28 -145 18 -32 53
-89 77 -126 l45 -68 -5 -207 c-7 -266 -6 -262 -66 -262 -25 0 -203 -13 -396
-30 -192 -16 -384 -33 -425 -36 l-75 -6 -15 103 c-9 67 -13 160 -11 263 l3
159 36 46 c19 25 49 75 65 111 27 56 32 80 38 185 6 110 10 129 49 225 46 113
162 454 200 588 l24 82 98 0 c54 0 98 -2 98 -5z m-1340 -1276 c0 -5 -7 -9 -15
-9 -8 0 -27 -18 -41 -40 -24 -37 -44 -51 -44 -32 0 4 16 31 36 60 29 44 38 51
50 41 8 -6 14 -15 14 -20z m1788 -126 l-2 -118 -5 100 c-6 93 -4 135 5 135 2
0 3 -53 2 -117z m-1128 -15 c0 -67 -2 -119 -4 -117 -9 10 -14 239 -6 239 6 0
10 -50 10 -122z m2063 -33 c105 -44 140 -64 169 -96 45 -49 70 -121 66 -186
-4 -64 -24 -63 -46 2 -22 65 -62 133 -100 168 -76 72 -277 101 -394 57 -83
-31 -159 -81 -195 -128 -41 -55 -44 -40 -3 17 65 89 192 141 344 141 50 0 118
-7 151 -15 32 -9 63 -14 69 -11 20 7 -77 44 -148 57 -67 11 -210 8 -251 -6
-18 -6 -18 -5 -3 5 21 13 154 49 186 49 13 1 83 -24 155 -54z m-2753 23 c30
-13 29 -13 -32 -13 -65 -1 -185 -25 -241 -49 -29 -12 -24 -13 56 -8 85 5 223
-11 260 -30 35 -18 10 -18 -59 -2 -99 23 -187 15 -269 -25 -76 -38 -118 -84
-147 -164 -11 -32 -26 -56 -32 -54 -21 7 -12 118 13 169 36 70 65 93 192 148
104 46 119 50 171 46 31 -3 71 -11 88 -18z m192 -68 c54 -48 118 -131 118
-154 0 -6 -16 12 -35 41 -19 28 -56 68 -82 89 -26 22 -49 42 -51 46 -2 4 -9 6
-15 4 -7 -1 -9 -1 -4 1 4 3 5 9 1 14 -13 22 16 5 68 -41z m2577 -46 c92 -46
87 -55 -5 -12 -59 28 -80 33 -144 33 -41 0 -90 -3 -109 -8 -19 -4 -32 -4 -28
-1 12 12 73 22 143 23 63 1 80 -3 143 -35z m-939 -270 c14 -19 14 -19 -7 -1
-28 25 -37 82 -27 176 l8 76 6 -116 c4 -80 10 -122 20 -135z m-1113 119 c-3
-10 -5 -2 -5 17 0 19 2 27 5 18 2 -10 2 -26 0 -35z m1551 -109 c127 -42 232
-64 313 -64 52 0 182 22 293 49 23 6 35 6 29 0 -5 -5 -53 -20 -107 -34 -118
-30 -275 -34 -393 -9 -90 18 -288 94 -247 94 3 0 53 -16 112 -36z"/>
<path d="M4968 9625 c2 -14 8 -28 13 -31 10 -6 11 2 3 34 -9 30 -22 28 -16 -3z"/>
<path d="M5005 9620 c0 -16 3 -30 7 -30 3 0 20 -12 37 -26 25 -20 31 -22 31
-10 0 9 -6 19 -14 22 -20 8 -28 34 -16 49 8 9 8 15 0 20 -5 3 -10 -1 -10 -9 0
-8 -5 -18 -12 -22 -8 -5 -9 0 -6 14 4 13 1 22 -5 22 -7 0 -12 -13 -12 -30z"/>
<path d="M5130 9613 c0 -21 -3 -48 -6 -60 -5 -17 -2 -23 9 -23 10 0 13 6 10
20 -3 11 -1 20 5 20 7 0 8 10 2 30 -7 26 -6 30 10 30 39 0 49 -10 43 -45 -3
-18 -1 -41 5 -51 8 -15 10 -6 9 39 -1 53 -3 58 -27 63 -14 3 -33 8 -42 11 -15
4 -18 -2 -18 -34z"/>
<path d="M4824 9586 c-3 -15 -2 -32 3 -37 13 -13 23 34 12 52 -5 9 -10 4 -15
-15z"/>
<path d="M5177 9603 c-4 -3 -7 -20 -6 -37 l1 -31 8 35 c9 36 8 45 -3 33z"/>
<path d="M5273 9593 c-3 -10 -12 -33 -19 -51 -12 -30 -12 -33 12 -49 28 -18
53 -10 63 18 3 9 -1 9 -13 -3 -23 -23 -46 -12 -46 22 0 29 19 43 45 34 8 -4
15 -2 15 4 0 5 -7 15 -15 22 -10 9 -15 9 -15 1 0 -6 -4 -11 -10 -11 -5 0 -7 7
-4 15 4 8 3 15 0 15 -4 0 -9 -8 -13 -17z"/>
<path d="M4873 9556 c-1 -41 1 -45 20 -42 13 2 23 11 24 22 2 16 1 16 -3 2 -4
-14 -8 -15 -19 -5 -7 6 -9 14 -5 17 5 3 3 16 -4 29 -12 21 -13 20 -13 -23z"/>
<path d="M4770 9580 c1 -16 27 -56 34 -49 2 2 -5 18 -15 34 -11 17 -19 23 -19
15z"/>
<path d="M4990 9573 c0 -5 5 -15 10 -23 8 -12 10 -11 10 8 0 12 -4 22 -10 22
-5 0 -10 -3 -10 -7z"/>
<path d="M4950 9560 c0 -17 19 -40 32 -40 4 0 8 7 8 16 0 8 -4 13 -9 9 -6 -3
-14 3 -20 12 -8 15 -10 15 -11 3z"/>
<path d="M5341 9554 c0 -11 3 -14 6 -6 3 7 2 16 -1 19 -3 4 -6 -2 -5 -13z"/>
<path d="M4740 9548 c0 -9 5 -20 10 -23 6 -3 10 -15 10 -26 0 -21 15 -26 25
-8 4 6 0 16 -8 22 -8 7 -19 21 -25 32 -10 17 -11 17 -12 3z"/>
<path d="M4830 9502 c6 -13 14 -21 18 -18 3 4 -2 14 -12 24 -18 16 -18 16 -6
-6z"/>
<path d="M5370 9490 c0 -5 5 -10 10 -10 6 0 10 5 10 10 0 6 -4 10 -10 10 -5 0
-10 -4 -10 -10z"/>
<path d="M4783 9465 c-3 -9 -3 -18 -1 -21 3 -3 8 4 11 16 6 23 -1 27 -10 5z"/>
<path d="M5622 9518 c-15 -15 -16 -41 0 -36 6 2 18 14 26 26 12 19 12 22 0 22
-8 0 -19 -5 -26 -12z"/>
<path d="M4447 9479 c7 -7 15 -10 18 -7 3 3 -2 9 -12 12 -14 6 -15 5 -6 -5z"/>
<path d="M5005 9349 c-55 -27 -71 -46 -92 -109 -15 -42 -25 -56 -41 -58 -24
-4 -29 -17 -9 -25 9 -4 9 -6 0 -6 -7 -1 -10 -8 -6 -18 3 -10 3 -15 -2 -11 -12
11 -35 -11 -35 -33 0 -11 -6 -19 -14 -19 -15 0 -31 -63 -21 -80 8 -12 35 -13
54 -1 9 6 5 9 -13 9 -38 0 -42 9 -19 40 13 18 33 29 59 33 21 3 29 7 17 8 -32
2 -29 22 12 95 19 35 35 71 35 82 1 43 63 88 143 104 l42 8 -35 1 c-19 0 -53
-9 -75 -20z m-159 -256 c-10 -10 -19 5 -10 18 6 11 8 11 12 0 2 -7 1 -15 -2
-18z"/>
<path d="M4740 9320 c-11 -7 -12 -12 -4 -20 8 -8 13 -6 17 9 3 12 4 21 4 21
-1 0 -9 -5 -17 -10z"/>
<path d="M5320 9166 c0 -4 5 -16 11 -28 11 -20 4 -72 -9 -65 -12 7 -52 -11
-52 -24 0 -8 4 -8 13 -1 6 5 25 10 40 10 15 0 30 1 32 4 6 6 -15 92 -26 103
-5 5 -9 6 -9 1z"/>
<path d="M4970 9105 c-52 -28 -49 -32 5 -9 44 18 52 13 39 -23 -6 -18 -21 -30
-49 -39 l-40 -13 37 5 c42 5 58 -12 58 -65 0 -23 5 -31 18 -31 22 0 26 -36 5
-44 -9 -4 -25 2 -36 11 -19 18 -20 17 -8 -4 23 -44 -34 -87 -80 -62 -11 6 -18
13 -15 16 6 7 -10 22 -46 46 -21 13 -28 26 -29 50 0 26 -2 28 -8 12 -11 -28
-4 -42 51 -97 29 -29 57 -48 71 -48 42 0 67 12 67 32 0 10 5 16 10 13 6 -4 8
-11 5 -16 -4 -5 -3 -9 0 -9 11 0 44 44 45 58 0 6 7 12 15 12 11 0 13 -8 10
-32 l-5 -33 10 29 c10 33 1 52 -43 86 -20 16 -27 30 -27 57 0 32 2 34 17 22
10 -8 14 -9 10 -2 -4 6 -2 15 4 19 16 9 29 -16 23 -43 -4 -15 0 -25 15 -33 14
-7 21 -7 21 0 0 5 -7 10 -16 10 -11 0 -14 5 -9 18 4 9 8 34 8 54 2 34 0 37
-30 43 -19 3 -33 12 -33 20 0 21 -18 18 -70 -10z m100 -35 c0 -5 -4 -10 -10
-10 -5 0 -10 5 -10 10 0 6 5 10 10 10 6 0 10 -4 10 -10z"/>
<path d="M5339 9026 c9 -11 6 -15 -13 -18 -13 -3 -31 -1 -39 3 -10 6 -16 3
-20 -11 -4 -16 0 -20 17 -20 12 0 28 6 35 13 11 10 13 9 8 -5 -8 -24 6 -23 28
2 15 16 15 22 5 35 -7 8 -17 15 -22 15 -6 0 -6 -6 1 -14z"/>
<path d="M5120 9003 c0 -7 7 -10 15 -7 11 5 14 1 9 -12 -5 -18 -5 -18 10 0 22
27 20 34 -9 32 -14 0 -25 -6 -25 -13z"/>
<path d="M5180 8990 c0 -5 5 -10 11 -10 5 0 7 5 4 10 -3 6 -8 10 -11 10 -2 0
-4 -4 -4 -10z"/>
<path d="M5235 8972 c-16 -11 -45 -60 -45 -74 1 -7 8 1 17 17 8 17 22 38 31
48 16 18 14 22 -3 9z"/>
<path d="M5311 8908 c-10 -28 -89 -90 -103 -82 -4 3 -8 0 -8 -5 0 -19 30 -12
66 17 36 27 70 79 60 89 -3 3 -10 -5 -15 -19z"/>
<path d="M5184 8865 c-4 -9 -4 -18 -2 -21 9 -8 39 8 35 19 -6 18 -27 20 -33 2z"/>
<path d="M5102 8821 c6 -23 33 -35 61 -27 40 10 32 26 -9 19 -25 -4 -39 -2
-46 8 -8 12 -9 12 -6 0z"/>
<path d="M6035 7513 c-210 -46 -359 -117 -447 -209 -64 -68 -82 -161 -43 -220
21 -33 38 -30 95 15 297 235 738 269 1000 76 26 -19 50 -35 54 -35 15 0 3 52
-24 108 -58 114 -206 222 -352 257 -58 14 -235 19 -283 8z"/>
<path d="M3900 7459 c-133 -20 -246 -76 -332 -166 -57 -60 -108 -146 -108
-183 0 -27 5 -26 59 14 151 110 365 163 546 136 149 -23 327 -93 457 -181 66
-45 82 -48 102 -16 25 38 29 89 11 135 -43 107 -303 231 -547 262 -92 11 -109
11 -188 -1z"/>
<path d="M6003 7186 c-223 -54 -386 -249 -423 -504 -25 -169 32 -370 139 -492
l31 -35 -35 59 c-74 126 -99 227 -93 370 8 166 67 303 178 416 57 57 159 115
221 126 32 5 30 4 -19 -26 -225 -133 -307 -432 -186 -678 137 -281 493 -348
703 -133 190 195 168 571 -47 772 -35 33 -85 70 -112 84 -102 51 -245 68 -357
41z m351 -120 c78 -33 160 -137 158 -201 -1 -38 -33 -65 -77 -65 -47 0 -163
62 -213 113 -56 57 -60 97 -13 139 36 32 89 37 145 14z m31 -401 c14 -13 25
-36 25 -50 0 -33 -41 -75 -73 -75 -34 0 -66 29 -73 65 -4 24 0 36 20 58 31 34
69 35 101 2z"/>
<path d="M3925 7152 c-148 -38 -282 -133 -369 -259 -67 -99 -89 -167 -93 -293
l-3 -105 15 64 c67 296 286 517 534 538 l66 5 -60 -36 c-119 -72 -219 -206
-250 -337 -79 -335 157 -650 470 -626 119 9 221 60 289 146 24 31 27 33 21 11
-4 -14 -14 -36 -22 -48 -8 -13 -12 -26 -9 -29 8 -8 65 112 80 170 71 270 -35
584 -243 723 -124 84 -284 112 -426 76z m393 -179 c49 -23 118 -95 132 -137 9
-27 8 -42 -4 -70 -49 -118 -271 12 -253 148 6 44 35 76 69 76 11 0 36 -8 56
-17z m121 -379 c12 -15 21 -35 21 -46 0 -29 -45 -68 -79 -68 -61 0 -92 89 -43
126 30 23 78 17 101 -12z"/>
<path d="M6610 6378 c-91 -157 -273 -275 -500 -323 l-65 -14 90 4 c223 10 448
161 505 338 19 61 7 59 -30 -5z"/>
<path d="M3510 6349 c0 -35 54 -124 102 -170 60 -57 196 -128 295 -153 78 -20
231 -31 262 -19 20 8 10 11 -55 16 -234 17 -470 138 -573 294 -17 26 -31 40
-31 32z"/>
<path d="M5020 6163 c-132 -68 -113 -159 35 -171 85 -6 119 12 40 22 -113 13
-154 52 -99 95 64 51 205 66 283 31 37 -17 42 -18 30 -4 -27 33 -91 54 -165
54 -57 0 -80 -5 -124 -27z"/>
<path d="M5596 5908 c-69 -69 -197 -136 -316 -164 -95 -22 -274 -22 -385 1
-88 18 -210 66 -250 97 -32 25 -32 8 0 -31 32 -37 111 -75 213 -103 111 -29
325 -29 435 0 145 40 313 146 353 224 9 17 14 31 12 32 -2 2 -29 -24 -62 -56z"/>
<path d="M5135 4475 c-29 -28 -31 -51 -9 -83 20 -29 59 -28 89 3 31 30 32 69
3 89 -32 22 -55 20 -83 -9z m65 -34 c0 -5 -7 -11 -15 -15 -9 -3 -15 0 -15 9 0
8 7 15 15 15 8 0 15 -4 15 -9z"/>
<path d="M5269 4454 c-16 -41 -25 -244 -10 -244 7 0 11 23 12 63 0 34 4 94 8
132 9 79 7 91 -10 49z"/>
<path d="M4542 4294 c-34 -23 -27 -83 11 -104 24 -13 30 -13 55 0 37 21 44 81
10 104 -12 9 -29 16 -38 16 -9 0 -26 -7 -38 -16z m50 -49 c0 -5 -5 -11 -11
-13 -6 -2 -11 4 -11 13 0 9 5 15 11 13 6 -2 11 -8 11 -13z"/>
<path d="M5656 4301 c-26 -29 -18 -83 16 -99 54 -26 105 27 77 80 -22 43 -64
51 -93 19z m54 -47 c0 -17 -22 -14 -28 4 -2 7 3 12 12 12 9 0 16 -7 16 -16z"/>
</g>
</svg>
