<?xml version="1.0" standalone="no"?>
<!DOCTYPE svg PUBLIC "-//W3C//DTD SVG 20010904//EN"
 "http://www.w3.org/TR/2001/REC-SVG-20010904/DTD/svg10.dtd">
<svg version="1.0" xmlns="http://www.w3.org/2000/svg"
 width="1024.000000pt" height="1024.000000pt" viewBox="0 0 1024.000000 1024.000000"
 preserveAspectRatio="xMidYMid meet">
<metadata>
Created by potrace 1.16, written by Peter Selinger 2001-2019
</metadata>
<g transform="translate(0.000000,1024.000000) scale(0.100000,-0.100000)"
fill="#000000" stroke="none">
<path d="M4343 9999 c-177 -17 -368 -80 -652 -214 -466 -221 -691 -389 -779
-585 -55 -124 -73 -228 -82 -480 -5 -129 -9 -314 -9 -411 l-1 -177 -97 -37
c-405 -155 -656 -302 -871 -509 -169 -164 -239 -293 -230 -425 4 -49 13 -82
34 -120 95 -176 495 -399 981 -546 8 -3 12 -32 12 -87 0 -324 317 -629 701
-675 50 -6 51 -7 83 -67 39 -73 151 -194 229 -248 75 -50 213 -119 308 -153
155 -55 449 -118 658 -141 34 -4 62 -8 62 -9 0 -2 -12 -16 -28 -32 -22 -24
-39 -32 -84 -37 -86 -11 -174 -59 -208 -113 -20 -31 -49 -57 -91 -81 -88 -52
-156 -123 -249 -262 -44 -66 -122 -168 -173 -226 -147 -168 -158 -183 -148
-202 5 -10 53 -59 106 -111 64 -62 95 -99 92 -110 -2 -9 -54 -135 -115 -281
-61 -146 -123 -306 -139 -355 -27 -90 -27 -91 -28 -380 0 -245 3 -300 17 -353
26 -94 66 -168 115 -213 49 -45 134 -89 173 -89 42 0 127 41 139 67 17 36 13
99 -8 141 -16 32 -17 42 -6 72 l12 35 1 -52 c1 -61 23 -109 58 -125 19 -9 24
-17 19 -32 -21 -69 -124 -489 -171 -701 -59 -267 -90 -384 -125 -480 -15 -40
-23 -84 -23 -132 -1 -72 -1 -72 42 -116 l42 -43 1 -95 c0 -115 -14 -163 -86
-303 -30 -58 -55 -112 -55 -120 0 -11 -19 -16 -72 -20 -410 -33 -505 -43 -646
-67 -140 -24 -70 -45 248 -74 36 -3 223 -15 415 -27 316 -20 453 -22 1410 -24
583 -1 1101 2 1150 7 50 5 187 15 305 23 637 46 827 85 617 130 -97 21 -270
42 -452 56 -301 22 -273 16 -285 59 -5 20 -21 52 -36 71 -14 19 -40 64 -56 99
-29 63 -30 67 -23 170 4 58 14 119 22 134 37 74 29 150 -43 412 -51 186 -90
379 -133 660 -17 110 -47 284 -67 386 l-37 186 39 39 c82 82 138 166 394 589
167 275 279 477 286 513 10 52 -16 121 -102 270 l-75 133 30 46 c17 26 31 51
31 57 0 7 -34 45 -76 86 -41 41 -89 92 -106 113 l-30 38 25 37 c14 20 28 47
32 60 17 59 -113 361 -188 436 -26 26 -63 50 -93 60 -68 24 -202 31 -314 16
-109 -14 -99 -14 -167 -4 -43 6 -59 14 -103 56 -29 27 -50 51 -48 53 1 1 37
12 79 24 489 136 860 392 1009 695 l31 63 77 6 c146 10 313 91 433 209 132
129 229 322 229 457 l0 51 83 41 c297 150 568 375 765 637 133 178 182 283
182 396 0 80 -40 167 -102 222 -159 139 -579 272 -1172 369 -82 14 -151 27
-154 29 -2 3 -8 42 -13 88 -29 260 -105 569 -192 779 -95 228 -234 395 -403
481 -191 98 -376 140 -874 203 -659 82 -1019 106 -1257 84z m532 -60 c50 -5
146 -13 215 -19 196 -17 469 -49 665 -76 530 -74 756 -162 904 -348 109 -138
206 -344 222 -470 12 -93 18 -113 30 -95 7 10 8 6 5 -11 -3 -14 5 -68 18 -120
13 -52 24 -88 25 -80 0 8 -6 42 -14 75 -15 63 -18 92 -10 83 8 -8 63 -278 75
-368 6 -47 13 -98 16 -114 l6 -29 -58 7 c-33 4 -131 15 -219 25 l-160 18 -133
72 c-74 40 -135 71 -138 68 -2 -2 20 -21 51 -42 30 -21 55 -39 55 -41 0 -1
-48 14 -107 33 -115 37 -390 102 -538 128 -79 13 -354 45 -390 45 -10 0 -3 22
20 73 52 113 70 219 56 338 -11 103 -48 234 -86 309 -57 112 -184 176 -397
200 -239 28 -525 -87 -603 -241 -50 -99 -70 -193 -68 -334 1 -143 21 -242 67
-333 l25 -50 -47 -11 c-26 -5 -94 -19 -152 -31 -372 -76 -792 -215 -1185 -392
-55 -25 -111 -48 -125 -51 l-25 -6 3 322 c3 362 12 481 48 606 32 107 63 165
131 240 109 121 285 235 587 381 314 152 494 217 661 240 77 10 453 10 570 -1z
m243 -419 c136 -40 188 -81 231 -184 43 -105 65 -216 58 -295 -11 -128 -77
-262 -158 -321 -195 -141 -620 -129 -768 23 -43 43 -88 138 -102 212 -25 135
18 343 88 424 43 51 168 114 289 147 75 21 104 24 189 20 58 -3 131 -14 173
-26z m455 -890 c134 -20 258 -42 253 -47 -2 -3 -46 2 -98 11 -51 8 -133 20
-183 25 -136 16 -144 18 -92 20 27 0 81 -4 120 -9z m-123 -14 c67 -12 70 -14
30 -15 -64 -1 -150 10 -150 20 0 12 30 10 120 -5z m-55 -32 c39 -8 106 -21
150 -29 47 -7 66 -13 45 -14 -37 0 -268 43 -278 53 -8 9 6 7 83 -10z m244 12
c-2 -2 -42 -6 -89 -9 -51 -3 -71 -2 -50 3 36 8 147 13 139 6z m185 -31 c32 -8
61 -17 64 -20 4 -4 -4 -4 -18 0 -14 3 -70 15 -125 25 -73 14 -84 18 -40 14 33
-3 86 -12 119 -19z m-166 -2 c-10 -2 -28 -2 -40 0 -13 2 -5 4 17 4 22 1 32 -1
23 -4z m-243 -13 l30 -8 -35 0 c-19 0 -44 3 -55 8 -18 8 -18 9 5 8 14 0 39 -4
55 -8z m358 -7 c-7 -2 -21 -2 -30 0 -10 3 -4 5 12 5 17 0 24 -2 18 -5z m-290
-10 c-7 -2 -19 -2 -25 0 -7 3 -2 5 12 5 14 0 19 -2 13 -5z m54 -9 c-3 -3 -12
-4 -19 -1 -8 3 -5 6 6 6 11 1 17 -2 13 -5z m106 -31 c-7 -2 -19 -2 -25 0 -7 3
-2 5 12 5 14 0 19 -2 13 -5z m613 -14 c74 -23 110 -44 56 -33 -45 9 -160 53
-141 53 9 1 48 -8 85 -20z m-510 -84 c269 -5 905 -46 1119 -71 477 -55 1054
-179 1260 -269 84 -37 145 -66 145 -70 0 -2 -19 3 -43 10 -51 15 -266 49 -272
43 -3 -2 27 -12 66 -22 38 -10 68 -20 66 -22 -1 -2 -41 1 -87 5 -85 9 -126 3
-80 -11 31 -9 -200 0 -335 13 -55 5 -206 21 -335 34 -204 21 -386 31 -355 20
26 -10 275 -37 520 -55 601 -47 609 -49 155 -44 -594 7 -879 25 -1375 90 -104
13 -276 35 -380 49 -443 57 -1002 81 -1303 55 -397 -34 -495 -44 -661 -66
-101 -14 -188 -23 -194 -21 -22 7 470 70 718 93 l150 13 -185 -5 c-102 -3
-196 -8 -209 -11 -17 -4 -22 -2 -17 6 5 7 -1 11 -14 11 -14 0 -20 -5 -17 -13
3 -8 -11 -13 -47 -15 -28 -2 -60 -5 -71 -8 l-20 -6 20 14 c29 21 141 40 215
37 36 -2 108 1 160 5 82 7 713 -5 980 -18 65 -4 76 -3 45 4 -83 19 -563 32
-915 26 -364 -6 -468 -15 -625 -54 -44 -11 -147 -33 -228 -49 -93 -17 -140
-30 -125 -34 16 -4 5 -8 -37 -14 -56 -8 -57 -9 -25 -14 27 -5 -3 -13 -130 -34
-204 -35 -557 -122 -734 -181 -348 -117 -606 -256 -763 -414 -66 -65 -72 -70
-46 -31 36 52 101 120 162 168 76 60 556 270 716 314 265 72 394 107 425 113
28 5 31 8 16 14 -22 7 46 24 169 41 44 6 84 15 89 20 6 5 28 10 50 10 28 2 33
3 15 6 -78 12 -621 -107 -587 -128 9 -6 5 -9 -12 -9 -32 0 -230 -58 -340 -100
-47 -18 -107 -41 -135 -51 -27 -10 -81 -35 -120 -56 -38 -21 -88 -47 -110 -56
-22 -10 -58 -27 -80 -38 l-40 -20 25 21 c25 21 40 33 75 60 19 14 19 14 6 -2
-19 -26 -1 -21 34 7 17 14 24 25 16 25 -18 0 43 44 144 103 468 272 1140 446
2090 541 311 31 920 59 1095 49 30 -1 168 -5 306 -8z m-2113 -342 c-7 -2 -19
-2 -25 0 -7 3 -2 5 12 5 14 0 19 -2 13 -5z m4515 -70 c-10 -2 -26 -2 -35 0
-10 3 -2 5 17 5 19 0 27 -2 18 -5z m92 -43 c28 -5 -9 -6 -95 -3 -77 3 -142 7
-144 9 -8 8 195 2 239 -6z m-1920 -325 c31 -79 64 -154 82 -187 5 -10 6 -18 3
-18 -12 0 -125 258 -125 287 0 14 10 -6 40 -82z m-1877 -92 c42 -71 96 -155
121 -188 25 -33 57 -76 72 -95 15 -19 -1 -7 -34 27 -33 33 -73 81 -90 105 -33
49 -156 278 -149 278 3 0 39 -57 80 -127z m731 4 c26 -49 46 -90 44 -92 -4 -5
-118 198 -118 211 0 13 22 -22 74 -119z m-341 -237 c14 -35 25 -65 23 -67 -8
-8 -88 183 -115 276 -45 150 -37 146 18 -9 26 -74 60 -164 74 -200z m-1452
105 c-12 -108 -51 -318 -58 -311 -3 2 2 51 10 108 8 56 23 175 34 263 15 133
19 150 21 100 2 -33 -2 -105 -7 -160z m2628 -29 c138 -166 176 -215 169 -221
-3 -3 -19 2 -37 11 -17 9 -70 24 -118 33 l-85 18 -23 71 c-12 39 -25 93 -28
119 -3 26 -3 40 -1 31 3 -10 10 -18 14 -18 10 0 1 30 -23 78 -8 15 -17 41 -21
57 l-7 30 22 -34 c11 -19 74 -98 138 -175z m-2299 40 c-18 -18 -22 -19 -30 -6
-5 8 -8 21 -5 28 3 8 5 39 5 70 l1 57 25 -64 25 -65 -21 -20z m2719 89 c0 -5
-6 1 -14 15 -8 14 -14 30 -14 35 0 6 6 -1 14 -15 8 -14 14 -29 14 -35z m-2470
2 c1 -5 -3 -5 -9 -2 -5 3 -10 16 -9 28 0 21 1 21 9 2 5 -11 9 -24 9 -28z
m1494 -68 c10 -17 20 -29 23 -27 2 3 33 -24 67 -59 34 -36 76 -74 92 -86 17
-11 -4 15 -45 58 -77 81 -64 74 58 -30 38 -33 82 -68 96 -78 14 -10 26 -21 25
-25 0 -8 -119 -65 -163 -78 -31 -10 -34 -14 -64 -88 -23 -56 -22 -57 -48 79
-9 50 -23 107 -31 128 -7 21 -9 36 -3 32 14 -9 13 1 -6 36 -8 17 -14 32 -12
34 2 2 14 -16 27 -41 43 -80 34 -38 -13 61 -25 52 -41 93 -35 90 14 -9 11 1
-11 37 -11 18 -20 37 -20 42 0 12 38 -39 63 -85z m-1264 5 c12 -19 21 -42 21
-50 0 -22 36 -88 57 -104 17 -14 17 -14 2 5 -22 27 -52 86 -46 91 2 3 13 -10
24 -28 52 -85 189 -233 290 -313 59 -46 110 -81 113 -78 3 3 -1 8 -7 10 -33
12 -292 317 -293 345 0 2 46 -41 102 -95 118 -113 294 -257 418 -344 112 -78
302 -195 307 -190 2 3 -8 31 -22 63 -14 32 -23 64 -20 71 2 8 1 12 -4 9 -7 -5
-98 344 -115 443 l-6 34 19 -24 c10 -13 30 -46 44 -74 18 -34 26 -43 27 -29 0
12 -13 39 -29 62 -36 49 -86 147 -95 187 -9 37 -4 32 64 -70 66 -99 135 -172
318 -333 128 -112 143 -129 138 -151 -3 -14 -8 -62 -11 -106 l-6 -80 20 61
c25 75 88 173 133 207 85 65 235 105 349 93 153 -16 302 -121 397 -282 56 -94
75 -174 70 -291 -2 -51 -2 -93 0 -93 2 0 15 26 29 58 40 88 44 215 9 324 -32
103 -88 189 -173 267 l-65 60 16 72 c9 39 16 85 16 101 0 25 3 29 20 25 24 -6
26 6 5 27 -8 8 -15 27 -14 43 0 18 3 23 7 13 11 -25 103 -159 113 -165 5 -4
-14 31 -42 77 -63 102 -92 158 -85 165 2 3 14 -14 26 -38 13 -24 48 -81 79
-128 30 -47 56 -93 56 -101 1 -23 44 -100 60 -106 7 -3 16 -17 19 -30 9 -33
26 -21 26 19 0 28 2 30 15 16 13 -13 14 -24 6 -60 -5 -24 -8 -46 -5 -48 2 -3
17 10 32 27 l27 32 87 -84 88 -85 6 -113 c8 -135 -10 -376 -37 -507 -66 -325
-187 -517 -444 -707 -274 -202 -768 -359 -1195 -381 -298 -14 -813 58 -1111
157 -278 92 -449 219 -552 410 -39 72 -136 348 -221 632 -55 181 -66 232 -46
196 9 -15 132 -108 143 -108 2 0 5 29 6 64 2 108 29 220 107 456 l75 225 45
33 c24 17 48 32 52 32 4 0 25 -36 46 -81 21 -44 40 -79 42 -76 2 2 0 28 -5 58
-24 141 -25 135 15 158 19 12 37 21 39 21 5 0 107 -192 103 -194 -2 -2 -24
-15 -50 -29 -66 -38 -68 -49 -3 -26 51 18 95 25 95 15 0 -2 3 -11 6 -20 4 -11
0 -16 -14 -16 -29 0 -152 -64 -199 -105 -56 -48 -130 -162 -159 -243 -32 -93
-40 -199 -21 -288 16 -73 59 -170 96 -214 l20 -25 -21 55 c-30 78 -36 236 -13
316 40 140 148 275 266 332 123 60 279 66 387 17 59 -27 148 -106 184 -163 39
-63 30 -23 -15 71 -56 114 -109 172 -201 217 -54 27 -83 34 -147 38 -43 3 -79
8 -79 12 0 44 43 52 105 20 58 -29 65 -24 21 16 -24 20 -55 37 -76 40 -21 3
-43 10 -50 14 -19 12 -52 203 -37 212 24 15 34 7 65 -55 65 -128 161 -267 185
-267 5 0 7 17 4 38 -13 79 -30 229 -30 265 -1 20 -4 37 -8 37 -4 0 -7 8 -7 18
0 9 -3 25 -7 35 -13 30 2 19 24 -19z m416 -74 c43 -58 68 -96 56 -85 -26 22
-113 139 -131 175 -18 35 -12 28 75 -90z m-995 6 c0 -13 -10 -31 -22 -42 -21
-19 -21 -19 -13 1 4 11 10 32 13 47 5 32 22 27 22 -6z m-291 -70 c-7 -31 -14
-54 -16 -52 -3 2 1 30 7 61 6 31 14 55 16 52 2 -2 -1 -29 -7 -61z m3172 -168
c11 -22 18 -42 16 -44 -4 -5 -57 82 -57 93 0 14 23 -14 41 -49z m792 -222 c44
-19 91 -71 119 -131 31 -68 31 -202 -1 -290 -35 -97 -99 -195 -180 -276 -116
-115 -221 -165 -368 -176 l-83 -6 15 51 c9 28 25 95 36 149 29 141 89 218 164
211 26 -3 32 -9 44 -46 13 -41 12 -48 -12 -104 -29 -67 -11 -62 21 5 34 71 32
128 -3 163 -19 19 -35 25 -63 24 -20 -1 -41 -2 -45 -1 -12 2 71 119 114 161
59 57 103 75 182 75 37 0 67 4 67 8 0 15 -69 37 -112 37 -82 -1 -158 -52 -226
-152 -18 -27 -35 -48 -37 -48 -9 0 84 251 104 284 20 32 60 58 106 69 42 10
127 6 158 -7z m-4263 -257 c21 -16 44 -54 70 -112 l39 -88 -27 19 c-43 30 -98
52 -157 65 -66 13 -128 -3 -154 -42 l-15 -24 34 18 c71 37 215 -12 316 -107
47 -44 84 -98 84 -123 0 -3 -18 -5 -39 -5 -45 0 -81 -34 -81 -78 0 -41 37
-107 86 -152 55 -50 68 -46 25 9 -35 43 -61 100 -61 130 0 47 69 70 91 30 14
-27 141 -391 137 -394 -10 -8 -145 18 -201 39 -225 85 -402 267 -453 468 -36
140 19 307 118 357 58 30 143 26 188 -10z m2405 -1565 c8 -20 15 -49 15 -64 0
-33 -54 -118 -144 -225 -37 -44 -88 -111 -114 -148 -44 -64 -47 -67 -56 -45
-5 13 -49 103 -98 202 -70 139 -87 181 -76 187 10 7 9 9 -4 9 -21 0 -25 39 -8
71 10 17 23 19 148 20 110 0 212 9 314 28 4 0 15 -15 23 -35z m-682 -16 c-34
-37 -91 -145 -117 -225 -26 -79 -54 -203 -46 -203 4 0 23 37 44 83 20 45 57
117 82 160 35 61 49 77 63 72 22 -7 45 18 62 70 16 50 32 71 19 25 -8 -26 -5
-42 10 -78 11 -24 17 -49 13 -56 -3 -6 -3 -8 2 -4 7 7 45 -32 45 -47 0 -4 -12
0 -27 9 l-28 17 25 -20 c14 -11 38 -30 53 -42 15 -12 41 -47 57 -78 16 -31 41
-76 56 -101 l28 -44 -50 41 c-55 47 -146 93 -184 93 -43 0 -122 -45 -204 -116
-147 -127 -151 -131 -142 -109 5 11 24 76 42 145 38 138 77 255 106 313 22 44
95 127 111 127 6 0 -3 -15 -20 -32z m938 -56 c23 -53 46 -167 59 -297 5 -55
13 -118 17 -140 l6 -40 -81 77 c-96 90 -151 114 -239 105 -78 -8 -186 -61
-236 -116 -27 -31 -35 -36 -22 -16 27 44 108 138 196 230 43 44 89 102 103
129 14 27 26 41 26 32 0 -10 -5 -27 -11 -39 l-12 -22 22 20 c18 16 22 28 19
60 -3 22 -8 49 -13 60 -6 15 -2 13 18 -8 30 -31 81 -135 92 -188 4 -19 11 -38
15 -44 4 -5 10 -19 14 -30 3 -11 3 1 1 28 -3 26 -1 47 4 47 11 0 26 -60 42
-170 12 -76 14 -81 20 -50 16 74 -25 318 -68 405 -14 29 -17 42 -7 30 9 -11
24 -39 35 -63z m586 -12 c28 -16 63 -44 77 -62 31 -42 110 -188 104 -194 -3
-2 -18 20 -33 48 -57 105 -104 157 -174 193 -27 13 -70 18 -200 23 -197 7
-179 20 29 21 143 1 146 0 197 -29z m-1467 -14 c0 -3 -4 -8 -10 -11 -5 -3 -10
-1 -10 4 0 6 5 11 10 11 6 0 10 -2 10 -4z m1414 -27 c60 -15 108 -58 150 -133
50 -89 45 -93 -11 -9 -59 88 -88 112 -167 134 -66 19 -42 26 28 8z m-79 -14
c33 -16 25 -15 -60 4 l-40 9 35 1 c19 0 49 -6 65 -14z m-47 -32 c-10 -2 -26
-2 -35 0 -10 3 -2 5 17 5 19 0 27 -2 18 -5z m9 -29 c-3 -3 -12 -4 -19 -1 -8 3
-5 6 6 6 11 1 17 -2 13 -5z m-1742 -144 c-13 -41 -24 -68 -25 -59 0 18 41 142
46 137 2 -2 -8 -37 -21 -78z m1633 49 c-3 -8 -7 -3 -11 10 -4 17 -3 21 5 13 5
-5 8 -16 6 -23z m-1719 -50 c-98 -201 -112 -352 -54 -559 7 -24 7 -24 -8 -5
-18 23 -22 13 -7 -15 9 -17 8 -19 -7 -13 -10 3 0 -10 21 -30 22 -20 37 -37 33
-37 -8 0 -63 37 -85 58 -36 33 -83 64 -89 58 -14 -14 109 -146 173 -186 63
-39 5 -33 -126 13 -99 34 -171 69 -189 91 -8 9 -19 16 -27 16 -7 0 -16 5 -20
12 -5 8 0 9 14 6 26 -7 27 -1 7 26 -8 11 -15 28 -15 39 0 10 -5 15 -11 12 -6
-4 -16 1 -23 10 -11 15 -13 16 -26 1 -11 -14 -9 -21 15 -46 35 -37 21 -40 -16
-4 l-28 27 21 28 c20 26 22 27 35 11 13 -15 13 -15 8 8 -4 19 0 15 19 -15 43
-68 46 -73 36 -42 -12 35 -12 40 0 32 10 -6 3 21 -10 40 -14 20 -19 44 -10 50
4 3 14 -12 20 -32 7 -21 17 -42 22 -48 5 -5 4 3 -1 18 -15 38 -14 55 2 34 10
-15 12 -9 13 38 0 31 5 60 10 65 5 5 8 -14 7 -48 l-2 -57 13 55 c14 55 14 55
15 16 1 -54 14 -36 36 54 25 103 35 124 100 215 50 72 139 165 156 165 4 0 -6
-27 -22 -61z m1839 42 c46 -24 77 -57 139 -148 57 -84 167 -209 275 -312 43
-40 78 -77 78 -82 0 -14 -85 -66 -100 -61 -8 3 -12 1 -8 -3 10 -11 -16 -29
-172 -122 -228 -135 -246 -140 -122 -34 40 35 71 66 68 69 -4 3 -16 -4 -29
-15 -12 -11 -33 -26 -47 -32 l-25 -12 24 20 c13 12 19 21 13 21 -6 0 -25 -12
-43 -27 l-32 -27 18 34 c21 41 58 151 52 156 -2 3 2 30 9 61 13 57 12 86 -1
41 -17 -54 -67 -179 -71 -175 -3 2 9 42 25 88 16 46 24 76 17 67 -7 -10 -15
-18 -18 -18 -3 0 -3 48 0 106 5 115 -9 209 -34 218 -11 4 -14 -7 -15 -57 l-1
-62 -14 95 c-18 122 -30 190 -39 213 -9 22 6 22 53 -2z m-105 -26 c-3 -9 -8
-14 -10 -11 -3 3 -2 9 2 15 9 16 15 13 8 -4z m8 -36 c-5 -13 -10 -19 -10 -12
-1 15 10 45 15 40 3 -2 0 -15 -5 -28z m-211 -56 c6 -32 20 -96 31 -142 11 -46
16 -87 12 -92 -4 -4 -126 -9 -270 -11 -144 -2 -265 -7 -269 -11 -4 -4 -8 -46
-8 -93 l-1 -87 35 -12 35 -12 0 -221 c0 -121 4 -224 8 -229 5 -4 127 -9 272
-11 l264 -3 6 -37 c19 -115 22 -96 20 133 -4 304 2 264 14 -105 8 -255 11
-281 34 -347 23 -67 23 -73 8 -87 -25 -23 -122 -65 -161 -70 -19 -3 -44 -8
-55 -12 -38 -14 -4 10 72 51 60 32 80 48 90 74 l14 33 -33 -20 c-40 -24 -162
-93 -238 -136 -51 -28 -63 -30 -193 -36 -76 -3 -157 -3 -180 1 -23 3 -34 7
-23 8 28 2 154 31 221 52 l60 19 -55 -6 c-30 -3 -88 -10 -128 -15 -108 -13
-388 -11 -537 5 -124 14 -205 36 -260 73 -26 17 -16 16 29 -2 20 -8 36 -12 36
-7 0 4 -17 14 -37 21 -21 8 -55 22 -75 31 -42 20 -46 16 -19 -16 19 -24 76
-55 136 -74 34 -11 37 -14 20 -21 -15 -6 -10 -8 20 -9 22 -1 56 -8 75 -15 35
-13 34 -13 -36 -14 -71 -1 -71 -1 -140 51 -38 29 -78 60 -88 70 -19 17 -31 22
-48 19 -5 0 -8 4 -8 11 0 6 -2 9 -5 6 -11 -10 16 -61 46 -89 26 -24 28 -29 13
-29 -18 -1 -18 -2 1 -16 19 -15 19 -15 -10 -8 -51 12 -100 41 -133 79 -37 41
-38 54 -15 98 15 29 17 30 24 12 6 -15 8 -11 9 20 l2 40 13 -40 13 -40 4 30 5
30 2 -32 c0 -17 5 -34 11 -38 17 -11 -14 237 -35 268 -23 35 -30 196 -14 333
l14 119 6 -153 c4 -85 9 -156 12 -159 12 -11 172 -25 317 -26 l155 -2 8 160
c15 309 16 320 40 330 20 9 22 17 22 90 l0 80 -45 6 c-25 4 -106 10 -180 13
-74 4 -160 9 -190 12 l-55 6 30 16 c17 8 56 37 87 65 31 27 62 46 68 42 6 -3
9 -1 8 6 -2 7 10 19 27 28 16 9 34 21 40 28 21 25 65 34 108 22 106 -28 183
-89 212 -166 17 -43 17 -59 7 -173 -31 -321 -45 -828 -23 -805 11 13 38 269
51 495 17 279 38 477 54 508 8 15 15 21 16 15 0 -8 28 2 73 25 39 21 81 37 92
35 17 -3 17 -2 5 6 -11 8 -6 9 19 4 23 -4 32 -3 28 4 -4 7 14 13 50 18 41 5
52 9 42 17 -10 6 -2 7 26 3 53 -9 105 -41 200 -125 44 -38 84 -70 89 -70 9 0
0 193 -11 238 -3 12 -3 22 0 22 3 0 11 -26 17 -57z m-1525 -6 c-4 -13 -10 -55
-14 -93 l-8 -69 -2 55 c0 30 4 72 10 93 11 40 23 52 14 14z m-248 -229 c-3 -7
-5 -2 -5 12 0 14 2 19 5 13 2 -7 2 -19 0 -25z m810 -18 l73 0 0 -55 c0 -53 -1
-55 -37 -74 -21 -10 -91 -39 -156 -65 l-117 -46 -73 30 c-108 45 -101 34 -81
135 l17 88 150 -7 c83 -3 183 -6 224 -6z m1028 -42 c31 -141 32 -150 21 -153
-6 -2 -44 -14 -85 -25 -40 -12 -80 -24 -88 -27 -11 -4 -13 0 -8 19 4 17 0 29
-14 42 -24 22 -49 18 -68 -11 -14 -20 -13 -24 11 -48 14 -14 20 -25 13 -25 -7
0 -78 32 -159 72 l-148 72 0 53 0 53 260 0 260 0 5 -22z m-1955 -122 c0 -6 -7
-1 -15 10 -8 10 -14 26 -14 34 0 16 28 -28 29 -44z m946 -83 c-3 -32 -8 -124
-12 -205 l-6 -148 -83 0 c-103 0 -287 18 -299 30 -4 4 -5 80 -1 168 l7 159 68
-28 68 -29 63 24 c35 13 93 38 129 54 36 17 66 31 68 31 2 1 1 -25 -2 -56z
m1778 48 c8 -13 -101 -116 -179 -169 -74 -51 -230 -127 -280 -137 -16 -4 11
15 60 40 127 67 272 165 330 224 50 52 60 58 69 42z m-453 -32 c-5 -13 -10
-19 -10 -12 -1 15 10 45 15 40 3 -2 0 -15 -5 -28z m-2291 1 c6 -11 8 -20 6
-20 -3 0 -10 9 -16 20 -6 11 -8 20 -6 20 3 0 10 -9 16 -20z m-35 -68 c91 -73
184 -124 312 -172 63 -24 70 -29 38 -25 -22 3 -34 2 -27 -1 17 -8 15 -24 -4
-24 -29 0 -158 62 -214 103 -89 65 -217 187 -196 187 3 0 44 -31 91 -68z
m1698 6 l88 -40 107 27 c59 14 113 28 120 30 9 3 12 -35 12 -170 l0 -175 -214
0 c-118 0 -221 3 -230 6 -14 5 -16 32 -16 191 l0 184 23 -7 c12 -3 62 -24 110
-46z m1062 -89 c15 -23 54 -94 87 -157 50 -96 59 -121 54 -150 -6 -42 -194
-368 -410 -716 -210 -337 -281 -423 -345 -418 -14 1 -61 20 -105 41 -90 43
-216 150 -216 182 0 16 8 19 54 19 30 0 61 3 70 6 9 3 32 37 52 75 42 79 79
103 182 117 34 5 64 11 66 13 2 2 28 72 59 154 31 83 90 233 132 335 41 101
75 194 75 205 0 21 -36 82 -72 122 l-20 21 89 46 c48 25 117 68 153 95 36 27
66 50 66 50 1 1 14 -18 29 -40z m-495 3 c0 -5 -7 -17 -16 -28 -8 -10 -14 -14
-11 -9 2 6 7 18 10 28 7 17 17 23 17 9z m-2090 -146 c30 -16 91 -42 135 -57
63 -23 79 -32 77 -46 -2 -10 -4 -23 -4 -30 -1 -7 -6 -9 -11 -6 -6 4 -8 -1 -4
-11 4 -9 3 -15 -3 -11 -12 8 -37 -50 -45 -105 -6 -45 -6 -45 10 -17 9 15 18
27 20 27 11 0 -56 -147 -197 -433 -65 -131 -118 -243 -118 -249 0 -6 18 -34
39 -62 51 -66 71 -105 71 -138 0 -14 -18 -64 -40 -109 -27 -56 -40 -97 -40
-124 0 -23 -6 -50 -14 -60 -13 -18 -15 -17 -35 15 -11 19 -25 59 -31 90 -21
104 -26 111 -34 48 -5 -42 -3 -73 8 -112 14 -46 26 -63 81 -112 78 -68 75 -89
-8 -51 -109 50 -174 143 -202 292 -18 91 -21 465 -4 565 13 86 54 203 156 450
94 225 121 283 131 278 4 -2 32 -16 62 -32z m2245 -86 c55 -72 59 -48 -50
-305 -59 -138 -142 -352 -160 -412 -3 -7 -14 -13 -25 -13 -16 0 -20 7 -20 33
0 17 -5 52 -11 76 -9 39 -7 45 13 65 13 11 45 56 72 99 43 69 48 83 44 124 -3
39 1 51 20 72 52 56 74 107 75 178 1 38 -2 85 -7 106 -4 20 -6 37 -3 37 3 0
27 -27 52 -60z m-2008 -22 c-3 -8 -6 -5 -6 6 -1 11 2 17 5 13 3 -3 4 -12 1
-19z m53 -181 c0 -74 -5 -108 -25 -166 -20 -57 -24 -79 -16 -105 l9 -34 -50
-4 c-61 -6 -94 -30 -135 -97 -46 -76 -54 -128 -37 -225 11 -68 11 -90 0 -136
-13 -55 -13 -55 -25 -26 -6 16 -30 55 -52 87 l-41 58 159 323 c88 178 168 344
178 371 10 26 22 47 26 47 5 0 9 -42 9 -93z m154 -263 c3 -8 2 -12 -4 -9 -6 3
-10 10 -10 16 0 14 7 11 14 -7z m854 -298 c-4 -59 -12 -63 -130 -58 -61 3 -76
6 -71 18 4 10 -4 14 -28 15 -19 1 -26 3 -16 6 9 2 17 11 17 19 0 8 7 14 16 14
8 0 13 4 9 10 -9 14 47 25 131 25 l75 0 -3 -49z m385 27 c-7 -2 -19 -2 -25 0
-7 3 -2 5 12 5 14 0 19 -2 13 -5z m-64 -17 c-2 -2 -31 -6 -64 -9 -39 -4 -50
-3 -30 2 31 9 102 14 94 7z m-292 -53 c-3 -10 -5 -4 -5 12 0 17 2 24 5 18 2
-7 2 -21 0 -30z m338 17 c-11 -5 -63 -8 -115 -8 -74 1 -85 3 -50 8 67 10 189
10 165 0z m-1434 -175 c-16 -77 -30 -131 -30 -119 -1 26 15 118 36 209 28 122
24 56 -6 -90z m237 117 c9 -6 0 -20 -33 -51 -26 -24 -49 -41 -52 -38 -2 3 -1
26 2 51 7 43 9 46 39 46 17 0 37 -4 44 -8z m800 -9 c-10 -2 -28 -2 -40 0 -13
2 -5 4 17 4 22 1 32 -1 23 -4z m322 -39 l43 -45 -28 -29 c-16 -17 -33 -30 -39
-30 -41 0 -168 113 -153 137 3 4 34 9 70 10 63 1 64 1 107 -43z m31 9 l34 -37
-34 25 c-19 14 -37 31 -39 37 -6 20 2 14 39 -25z m155 22 c-3 -9 -9 -28 -12
-41 -5 -21 -12 -24 -55 -24 -35 0 -47 4 -43 13 2 7 -9 20 -26 30 -16 10 -30
21 -30 26 0 4 39 8 86 10 77 2 86 1 80 -14z m-1112 -1 c11 -4 16 -19 16 -48 0
-77 -16 -110 -83 -168 -34 -30 -72 -60 -84 -67 -13 -6 -23 -18 -23 -26 0 -8
-16 -21 -35 -29 -19 -8 -35 -20 -35 -25 0 -15 6 -14 25 5 9 9 19 13 23 10 10
-11 -47 -53 -133 -96 -85 -42 -116 -51 -93 -26 7 8 18 13 23 13 6 -1 9 6 7 16
-3 19 62 135 87 154 9 6 32 14 52 17 80 13 194 131 205 212 10 68 13 71 48 58z
m716 -9 c5 3 18 -11 29 -32 18 -37 74 -84 137 -116 18 -9 38 -32 48 -55 17
-38 17 -41 -2 -85 l-20 -46 75 -52 c42 -29 98 -72 125 -96 65 -58 91 -63 129
-27 35 34 31 45 -7 15 -15 -11 -31 -21 -36 -21 -8 0 -104 74 -118 91 -3 4 -32
23 -65 44 -73 47 -76 51 -59 84 18 33 18 58 0 109 -8 22 -12 43 -9 46 3 3 22
-17 42 -43 73 -98 227 -201 312 -209 32 -3 49 -9 49 -18 0 -18 -42 -28 -83
-20 -23 4 -28 3 -17 -4 11 -7 11 -10 2 -10 -18 0 -66 25 -152 83 -41 27 -66
39 -55 27 30 -34 144 -106 193 -123 39 -13 48 -14 79 -1 19 9 36 14 38 12 12
-14 55 -248 100 -553 30 -201 59 -382 64 -403 24 -97 26 -90 -22 -81 -48 9
-97 -1 -146 -31 -44 -28 -35 -34 20 -14 24 8 73 16 109 17 53 2 65 -1 68 -15
3 -14 -7 -16 -61 -17 -40 0 -80 -7 -110 -20 -26 -11 -47 -22 -47 -23 0 -2 55
-3 122 -3 l123 0 24 -73 c12 -40 21 -75 19 -78 -3 -2 -33 -11 -69 -19 l-64
-15 53 6 c29 2 59 7 67 10 8 4 15 1 15 -4 0 -6 -24 -16 -52 -22 -29 -6 -64
-18 -78 -26 -23 -13 -19 -14 60 -12 l84 3 6 -35 c9 -52 -11 -135 -33 -134 -9
1 -14 -2 -12 -7 8 -12 -62 -45 -146 -69 -101 -28 -304 -30 -386 -4 -70 22
-119 70 -152 148 -13 31 -22 58 -20 60 2 2 45 0 94 -5 50 -5 117 -6 150 -3
115 10 225 27 225 36 0 4 -71 9 -157 10 l-158 2 110 6 c73 4 93 7 60 10 -27 2
-61 4 -75 6 -14 2 -68 6 -120 10 -52 4 -86 10 -76 14 13 4 3 10 -37 19 l-55
12 -17 62 c-18 69 -95 490 -90 495 2 2 14 -21 28 -50 18 -38 26 -46 26 -31 1
21 4 20 37 -15 20 -20 31 -29 24 -19 -8 11 -9 17 -2 17 6 0 15 -6 19 -13 4 -8
44 -41 88 -74 154 -116 209 -135 84 -30 -89 76 -175 181 -229 282 -23 44 -50
94 -60 110 -40 68 -130 247 -130 258 0 7 4 6 10 -3 13 -20 13 -4 -1 21 -7 15
-7 24 1 33 8 10 6 15 -6 20 -9 4 -15 9 -12 11 5 5 93 -27 104 -38 4 -4 14 -7
21 -7 31 0 -30 61 -110 109 -103 62 -149 75 -213 61 -108 -24 -254 -97 -294
-146 -13 -15 -13 -16 8 -10 12 3 32 8 45 12 l22 5 -24 -20 c-28 -25 -20 -27
15 -5 13 9 27 14 31 10 3 -3 1 -6 -5 -6 -7 0 -12 -5 -12 -10 0 -7 7 -7 22 1
18 10 20 9 15 -6 -4 -9 -7 -21 -7 -26 0 -6 -4 -7 -10 -4 -5 3 -10 -2 -10 -11
0 -10 -20 -55 -45 -101 -25 -45 -45 -90 -45 -98 0 -10 -5 -13 -12 -9 -7 5 -9
2 -5 -9 3 -9 0 -18 -9 -21 -8 -3 -14 -15 -14 -26 0 -12 -4 -19 -9 -16 -8 5
-28 -28 -29 -48 0 -5 -4 -12 -9 -15 -5 -3 -33 -40 -63 -81 -30 -41 -57 -77
-60 -80 -11 -10 -77 -96 -85 -110 -8 -13 -7 -13 11 0 88 67 182 151 221 198
64 77 70 83 45 42 -61 -101 -74 -139 -31 -88 23 26 24 16 4 -48 -17 -56 -45
-215 -45 -259 0 -55 17 -11 49 125 29 124 81 294 87 287 6 -5 -26 -172 -56
-297 -16 -69 -38 -168 -47 -220 -21 -110 -17 -107 -160 -143 -48 -12 -91 -26
-94 -30 -3 -4 -55 -11 -115 -15 -107 -7 -108 -7 -44 -13 53 -4 43 -6 -55 -7
-95 -2 -116 -4 -106 -14 15 -16 372 -16 446 0 27 5 52 9 54 7 5 -5 -48 -145
-66 -173 -24 -38 -92 -61 -214 -73 -211 -21 -382 24 -485 127 -49 48 -60 86
-43 144 11 35 16 40 33 35 102 -34 161 -44 254 -44 66 -1 101 3 97 9 -3 6 -15
10 -25 10 -35 0 -207 60 -234 81 -14 11 -31 17 -37 13 -7 -4 -9 -3 -5 4 3 6
-3 13 -14 17 -24 7 -24 7 -6 65 13 44 41 70 76 70 8 0 67 -18 130 -39 63 -21
116 -37 118 -36 6 6 -87 56 -138 76 -56 21 -111 24 -142 8 -11 -6 -21 -9 -23
-7 -10 9 121 547 137 563 7 7 8 0 4 -20 -3 -16 -2 -46 3 -65 6 -24 9 -28 10
-12 2 44 20 20 82 -105 34 -71 64 -123 66 -116 2 6 -10 53 -26 105 -46 142
-63 231 -66 363 -2 66 -1 104 3 85 6 -27 9 -12 15 69 10 142 28 175 116 207
90 34 197 108 220 152 11 21 49 60 90 90 84 65 111 111 111 196 0 32 4 55 9
52 5 -4 67 -11 137 -16 71 -6 131 -16 135 -21 3 -6 9 -38 12 -72 7 -74 59
-311 77 -349 22 -46 29 -21 10 30 -21 54 -56 212 -65 292 -3 30 -8 67 -11 83
-6 27 -5 27 45 27 58 0 57 3 66 -120 4 -47 13 -118 22 -159 8 -42 12 -90 8
-112 -4 -26 -3 -39 4 -39 6 0 11 8 12 18 0 9 2 26 4 36 2 11 -3 47 -10 81 -8
34 -17 102 -20 151 -3 49 -8 101 -10 116 l-4 26 115 7 c91 6 117 11 122 23 4
11 7 12 10 4 2 -7 8 -10 12 -7z m-790 -1 c0 -3 -5 -25 -11 -49 -9 -34 -19 -48
-42 -60 -16 -8 -36 -15 -43 -15 -7 0 -16 -5 -20 -11 -4 -8 1 -9 16 -4 14 5 20
3 16 -3 -3 -6 -29 -10 -56 -10 -28 -1 -55 -4 -60 -7 -16 -10 -12 3 8 23 80 80
192 159 192 136z m-135 -164 c-3 -5 -16 -10 -29 -10 -12 0 -27 -5 -34 -12 -9
-9 -12 -9 -12 0 0 6 12 14 28 18 15 3 32 7 37 9 6 2 11 4 13 4 2 1 0 -3 -3 -9z
m35 -14 c-8 -8 -39 -24 -67 -35 -44 -17 -53 -18 -53 -6 0 10 10 15 28 15 15 1
43 9 62 20 42 23 49 24 30 6z m-493 -137 c-20 -46 -44 -76 -53 -66 -4 4 5 32
21 62 32 58 56 61 32 4z m11 -167 c6 -9 12 -27 12 -42 0 -25 -25 -70 -38 -70
-4 1 -25 17 -47 37 l-40 36 30 -7 c22 -5 26 -4 14 4 -14 8 -15 16 -7 50 l11
41 26 -17 c14 -9 32 -23 39 -32z m1208 -262 c69 -226 129 -476 174 -715 22
-121 50 -260 61 -309 25 -108 89 -242 137 -291 25 -24 43 -57 59 -108 50 -154
53 -174 41 -247 l-12 -67 -525 -7 c-289 -4 -540 -9 -557 -12 -28 -5 -32 -3
-37 25 -4 17 -10 67 -13 111 -6 67 -3 93 16 162 20 70 30 88 62 117 77 67 128
198 168 431 45 264 113 554 187 795 59 193 83 241 126 254 65 19 66 18 113
-139z m241 -355 c2 -5 -6 3 -20 18 -28 34 -107 179 -107 198 0 10 101 -163
127 -216z m-762 -674 c-6 -6 -30 -12 -55 -15 l-45 -6 50 14 c28 7 52 14 55 15
2 0 0 -3 -5 -8z m878 -28 c-7 -2 -19 -2 -25 0 -7 3 -2 5 12 5 14 0 19 -2 13
-5z m95 -10 c-16 -2 -40 -2 -55 0 -16 2 -3 4 27 4 30 0 43 -2 28 -4z m-1027
-146 c-10 -9 -11 -8 -5 6 3 10 9 15 12 12 3 -3 0 -11 -7 -18z m-691 -185 c0
-36 -17 -17 -18 20 -1 23 2 28 8 18 6 -8 10 -25 10 -38z m2309 -29 c0 -38 -3
-62 -6 -55 -2 6 -11 12 -20 12 -12 0 -12 2 1 16 9 9 16 32 16 55 0 21 2 39 5
39 3 0 5 -30 4 -67z m-1756 -35 c-13 -44 -18 -140 -12 -198 4 -30 -1 -51 -11
-45 -5 3 -15 -7 -23 -22 l-15 -27 -7 52 c-4 29 -11 52 -16 52 -5 0 -9 5 -9 11
0 5 4 8 9 5 4 -3 8 19 7 49 0 33 -4 51 -11 48 -7 -4 -7 -2 0 5 6 5 19 13 30
16 11 3 0 3 -25 1 -41 -4 -150 19 -150 31 0 3 8 3 18 0 9 -2 37 -7 62 -10 l45
-6 -35 14 -35 14 48 1 c26 1 47 6 47 11 0 6 -6 10 -12 11 -7 1 -2 4 12 9 14 4
34 6 45 5 11 -1 14 0 8 2 -23 8 -14 19 16 21 l30 2 -16 -52z m-555 2 c-14 -22
-24 -19 -15 5 4 8 11 15 17 15 6 0 6 -7 -2 -20z m1832 -50 c13 0 13 -1 0 -10
-22 -14 -26 -13 -38 15 -18 39 -14 54 6 23 9 -16 23 -28 32 -28z m425 40 c4
-6 -6 -10 -22 -10 -22 0 -25 2 -13 10 19 12 27 12 35 0z m-340 -50 c-11 -5
-27 -9 -35 -9 -13 -1 -13 0 0 9 8 5 24 9 35 9 l20 0 -20 -9z m-55 -14 c0 -2
-11 -6 -25 -8 -13 -3 -22 -1 -19 3 5 9 44 13 44 5z m495 -46 c14 -27 22 -50
17 -50 -9 0 -19 19 -41 73 -18 44 -3 31 24 -23z m-170 -30 c-3 -5 -13 -10 -21
-10 -8 0 -34 -10 -57 -21 -33 -17 -39 -18 -28 -5 10 12 66 36 109 45 2 1 0 -3
-3 -9z m163 -76 c55 -27 82 -49 82 -66 0 -6 -3 -8 -7 -5 -3 4 -16 -1 -27 -10
-12 -10 -15 -11 -8 -3 38 44 -8 43 -102 0 -46 -22 -90 -40 -97 -39 -8 0 -5 4
6 9 l20 9 -20 1 c-19 1 -18 2 3 10 12 5 30 6 39 3 11 -4 14 -3 9 5 -4 7 -2 10
6 7 7 -3 31 6 53 20 54 33 22 33 -75 0 -40 -14 -75 -23 -78 -20 -2 2 7 7 21
10 15 4 32 14 39 23 12 14 10 14 -12 2 -34 -18 -120 -40 -120 -30 0 5 14 11
31 15 16 4 56 17 87 30 62 26 43 33 -29 11 -24 -8 -71 -22 -104 -31 -33 -10
-68 -25 -77 -33 -10 -8 -18 -12 -18 -9 0 14 95 81 147 103 72 31 152 27 231
-12z m-2058 -15 c38 -24 52 -39 77 -84 13 -25 13 -28 1 -18 -8 7 -18 10 -22 6
-4 -4 -4 1 0 12 7 20 7 20 -14 1 -12 -11 -22 -16 -22 -12 0 3 -13 0 -30 -9
-16 -8 -35 -15 -42 -15 -7 1 1 7 18 14 18 8 35 19 38 25 10 15 0 14 -34 -4
-40 -21 -80 -36 -80 -30 0 3 23 16 51 31 28 14 49 28 46 30 -3 3 -27 -6 -54
-20 -27 -13 -67 -27 -89 -30 l-39 -6 32 12 c44 18 53 29 14 18 -32 -9 -216
-24 -196 -16 6 2 50 10 99 17 56 8 82 15 70 19 -14 6 -9 9 23 14 22 4 49 14
60 21 16 13 14 13 -17 5 -19 -6 -44 -10 -55 -9 -20 0 -20 0 0 10 13 6 -17 7
-85 4 -86 -5 -101 -4 -85 7 29 18 86 25 200 27 86 1 105 -2 135 -20z m1730 -3
c0 -2 -8 -10 -17 -17 -16 -13 -17 -12 -4 4 13 16 21 21 21 13z m-2033 -32 c-3
-3 -12 -4 -19 -1 -8 3 -5 6 6 6 11 1 17 -2 13 -5z m-64 -11 c-30 -4 -48 -23
-21 -23 6 0 9 -2 6 -5 -3 -3 -13 -3 -22 1 -27 10 1 34 38 32 l31 -1 -32 -4z
m2457 -7 c0 -2 -7 -7 -16 -10 -8 -3 -12 -2 -9 4 6 10 25 14 25 6z m-330 -36
c-34 -11 -60 -11 -35 0 11 5 29 8 40 8 16 0 15 -2 -5 -8z m-2073 -36 c-3 -3
-12 -4 -19 -1 -8 3 -5 6 6 6 11 1 17 -2 13 -5z m216 -101 c-13 -2 -35 -2 -50
0 -16 2 -5 4 22 4 28 0 40 -2 28 -4z m90 -20 c-7 -2 -21 -2 -30 0 -10 3 -4 5
12 5 17 0 24 -2 18 -5z"/>
<path d="M6750 9280 c0 -3 11 -49 25 -103 28 -112 64 -356 67 -454 l2 -68 5
80 6 80 8 -64 c5 -35 11 -61 14 -57 9 8 -18 226 -28 226 -5 0 -9 28 -10 63 0
44 -3 56 -9 42 -8 -18 -9 -17 -9 6 -2 51 -68 287 -71 249z"/>
<path d="M6806 9190 c10 -52 22 -80 36 -80 9 0 9 3 0 12 -7 7 -12 19 -12 28
-1 8 -7 29 -15 45 l-15 30 6 -35z"/>
<path d="M6821 9095 c1 -19 18 -51 18 -35 0 8 -4 22 -9 30 -5 8 -9 11 -9 5z"/>
<path d="M6851 9074 c0 -11 3 -14 6 -6 3 7 2 16 -1 19 -3 4 -6 -2 -5 -13z"/>
<path d="M6881 8654 c0 -11 3 -14 6 -6 3 7 2 16 -1 19 -3 4 -6 -2 -5 -13z"/>
<path d="M4829 9488 c-2 -21 3 -73 6 -77 2 -1 10 1 17 5 7 5 21 7 31 6 9 -2
17 2 17 7 0 6 -4 11 -10 11 -5 0 -7 7 -3 16 4 11 -1 22 -12 30 -23 17 -45 18
-46 2z m38 -14 c-3 -3 -12 -4 -19 -1 -8 3 -5 6 6 6 11 1 17 -2 13 -5z"/>
<path d="M4756 9483 c-15 -4 -17 -11 -13 -41 9 -50 21 -58 48 -34 20 19 21 24
9 52 -7 16 -15 29 -19 29 -3 -1 -14 -3 -25 -6z m24 -33 c0 -5 -4 -10 -10 -10
-5 0 -10 5 -10 10 0 6 5 10 10 10 6 0 10 -4 10 -10z"/>
<path d="M4935 9478 c-14 -42 -10 -52 23 -55 33 -3 44 13 17 23 -22 9 -18 23
5 17 24 -6 27 12 4 21 -25 10 -44 7 -49 -6z"/>
<path d="M5027 9463 c-4 -3 -7 -17 -7 -29 0 -17 7 -25 26 -30 28 -7 44 7 44
39 0 24 -16 21 -25 -5 -8 -22 -8 -22 -12 5 -4 27 -13 34 -26 20z"/>
<path d="M5137 9428 c-2 -18 -4 -34 -2 -36 1 -1 13 7 26 18 15 12 18 18 7 14
-13 -4 -15 -1 -11 15 3 12 1 21 -5 21 -5 0 -12 -15 -15 -32z"/>
<path d="M4659 9423 c0 -16 -2 -38 -3 -50 -3 -26 21 -32 30 -8 4 10 13 13 25
10 26 -9 24 8 -7 44 -32 38 -44 39 -45 4z"/>
<path d="M4551 9392 c-10 -18 16 -83 45 -112 13 -13 14 -11 8 16 -3 19 -2 34
5 38 16 10 13 42 -5 60 -20 21 -41 20 -53 -2z m59 -36 c0 -11 -19 -15 -25 -6
-3 5 1 10 9 10 9 0 16 -2 16 -4z"/>
<path d="M4785 9330 c-22 -12 -52 -35 -67 -51 -16 -16 -28 -24 -28 -18 0 21
-39 -22 -49 -55 -5 -17 -10 -79 -10 -139 l1 -107 31 -24 c18 -13 55 -30 83
-39 27 -9 58 -19 67 -23 15 -5 17 -1 15 28 -1 18 2 39 6 46 4 7 3 12 -3 12 -6
0 -15 -9 -21 -20 -7 -14 -21 -20 -43 -20 -24 0 -28 3 -17 10 12 8 11 10 -7 10
-25 0 -39 16 -21 23 7 3 2 6 -12 7 -23 1 -23 2 -5 9 11 5 23 7 28 4 4 -2 7 1
7 8 0 8 -12 10 -41 5 -26 -4 -38 -3 -34 4 3 5 16 10 28 10 12 0 28 4 35 9 11
7 10 9 -3 14 -10 5 -14 3 -9 -5 4 -7 3 -8 -4 -4 -14 8 -15 16 -3 34 7 11 16
10 48 -7 22 -11 43 -17 47 -14 11 11 6 34 -5 27 -8 -4 -9 1 -4 16 6 18 4 22
-7 17 -16 -6 -52 49 -75 112 -15 44 -5 60 67 99 68 38 119 41 209 13 34 -10
61 -15 61 -10 0 5 -6 9 -14 9 -8 0 -16 5 -18 11 -2 6 -44 13 -98 15 -84 5
-100 3 -135 -16z m-87 -121 c-3 -8 -7 -3 -11 10 -4 17 -3 21 5 13 5 -5 8 -16
6 -23z m12 -66 c0 -7 15 -29 32 -49 18 -21 26 -35 18 -32 -15 4 -80 104 -80
122 0 14 29 -27 30 -41z m-26 -26 c-1 -9 2 -15 6 -12 4 3 13 -2 20 -10 11 -13
10 -14 -4 -9 -11 4 -16 1 -16 -10 0 -9 -4 -16 -9 -16 -5 0 -7 -8 -4 -19 3 -10
0 -22 -7 -26 -14 -9 -28 3 -15 13 12 8 12 39 2 69 -5 13 -5 28 -2 33 10 16 30
6 29 -13z"/>
<path d="M5064 9276 c2 -39 -5 -66 -28 -114 -27 -55 -34 -62 -53 -57 -13 3
-23 1 -23 -5 0 -5 4 -10 8 -10 5 0 14 -12 21 -27 11 -25 14 -26 22 -10 6 9 27
26 49 37 21 11 50 34 64 52 l27 33 -11 -30 c-6 -16 -16 -35 -22 -42 -13 -17 4
-17 21 0 11 10 13 9 9 -3 -2 -8 -20 -23 -39 -33 l-34 -18 43 3 c52 2 61 16 51
71 -4 23 -5 45 -3 48 6 11 -36 90 -45 84 -5 -3 -8 9 -7 27 1 26 -4 32 -25 38
-26 8 -26 7 -25 -44z m31 -48 c-9 -61 -15 -78 -26 -78 -6 0 -6 7 1 19 5 11 10
38 10 60 0 23 5 41 11 41 7 0 9 -14 4 -42z m-49 -116 c-18 -16 -18 -16 -6 6 6
13 14 21 18 18 3 -4 -2 -14 -12 -24z"/>
<path d="M5315 9258 c44 -124 40 -297 -9 -336 -12 -9 -35 -38 -50 -64 -32 -54
-50 -68 -156 -113 -116 -50 -181 -60 -290 -46 -79 10 -210 48 -227 65 -4 3 3
25 15 48 13 22 21 43 18 45 -5 5 -46 -61 -46 -76 0 -18 -18 -13 -34 11 -20 28
-20 58 -1 58 8 0 15 4 15 9 0 5 -8 7 -18 4 -29 -7 -69 48 -82 114 -7 34 -11
102 -8 165 2 59 2 106 0 103 -13 -13 -32 -130 -32 -198 0 -87 21 -144 64 -172
13 -9 27 -28 31 -43 12 -48 34 -71 105 -107 173 -87 365 -87 548 1 78 37 132
95 132 140 0 14 10 30 26 40 52 34 71 112 54 218 -9 59 -61 196 -73 196 -3 0
6 -28 18 -62z"/>
<path d="M5153 9031 c-9 -12 -27 -21 -38 -22 -24 -1 -106 -37 -85 -38 8 0 26
6 40 14 29 17 70 20 70 5 0 -5 -6 -10 -12 -10 -9 0 -8 -3 2 -10 8 -5 12 -10
10 -12 -3 -2 -14 -8 -24 -14 -24 -13 -33 -34 -14 -34 25 0 56 43 67 90 12 53
9 59 -16 31z"/>
<path d="M5085 9030 c-8 -13 15 -13 35 0 12 8 11 10 -7 10 -12 0 -25 -4 -28
-10z"/>
<path d="M4943 8998 c-19 -32 -22 -104 -4 -120 11 -11 13 -5 8 31 -4 29 -2 40
4 30 5 -7 9 -26 9 -41 0 -21 5 -28 19 -28 17 0 18 4 11 29 -4 16 -16 40 -25
55 -9 14 -15 33 -11 41 7 18 0 20 -11 3z"/>
<path d="M5065 8964 l-30 -13 30 6 c32 6 41 11 34 17 -2 2 -17 -2 -34 -10z"/>
<path d="M4768 8963 c7 -3 16 -2 19 1 4 3 -2 6 -13 5 -11 0 -14 -3 -6 -6z"/>
<path d="M5024 8916 c2 -11 6 -20 9 -18 4 1 14 5 22 8 24 10 17 32 -10 32 -19
0 -24 -5 -21 -22z"/>
<path d="M4840 8905 c0 -5 5 -17 10 -25 5 -8 10 -10 10 -5 0 6 -5 17 -10 25
-5 8 -10 11 -10 5z"/>
<path d="M5000 8898 c0 -18 18 -34 28 -24 3 4 -2 14 -11 23 -16 16 -17 16 -17
1z"/>
<path d="M5140 8871 c0 -5 7 -14 15 -21 16 -14 18 -10 9 14 -6 17 -24 22 -24
7z"/>
<path d="M5210 8870 c8 -5 20 -10 25 -10 6 0 3 5 -5 10 -8 5 -19 10 -25 10 -5
0 -3 -5 5 -10z"/>
<path d="M4828 8838 c5 -5 16 -8 23 -6 8 3 3 7 -10 11 -17 4 -21 3 -13 -5z"/>
<path d="M5050 8838 c0 -7 9 -24 20 -38 17 -21 21 -23 30 -10 12 18 12 22 2
36 -12 18 -52 28 -52 12z"/>
<path d="M4672 8827 c-8 -9 -6 -16 8 -24 15 -10 19 -9 24 3 3 9 6 20 6 25 0
13 -26 11 -38 -4z"/>
<path d="M4757 8823 c-3 -5 -8 -22 -11 -38 -6 -26 -4 -31 14 -32 12 -1 20 4
20 14 0 9 10 27 22 40 l21 23 -31 0 c-17 0 -33 -3 -35 -7z m33 -13 c0 -5 -5
-10 -11 -10 -5 0 -7 5 -4 10 3 6 8 10 11 10 2 0 4 -4 4 -10z"/>
<path d="M5010 8808 c1 -7 8 -24 16 -38 l15 -25 -5 25 c-3 14 -6 31 -6 38 0 6
-4 12 -10 12 -5 0 -10 -6 -10 -12z"/>
<path d="M4840 8803 c-30 -12 -49 -39 -43 -61 8 -32 24 -23 44 26 10 23 17 42
16 41 -1 0 -9 -3 -17 -6z"/>
<path d="M4977 8773 c6 -42 10 -49 19 -40 9 9 -5 77 -16 77 -5 0 -6 -17 -3
-37z"/>
<path d="M4864 8773 c-3 -16 -7 -33 -9 -40 -2 -7 0 -15 5 -18 11 -7 30 35 30
66 0 29 -19 23 -26 -8z"/>
<path d="M4939 8769 c-2 -30 -2 -31 -6 -6 -6 39 -23 34 -23 -7 0 -41 12 -52
34 -30 11 10 14 24 10 42 -10 39 -14 40 -15 1z"/>
<path d="M5558 8373 c23 -2 61 -2 85 0 23 2 4 4 -43 4 -47 0 -66 -2 -42 -4z"/>
<path d="M5304 8340 c17 -5 93 -11 170 -14 102 -4 124 -3 81 4 -96 13 -285 21
-251 10z"/>
<path d="M4780 8290 c133 -16 444 -40 485 -38 27 1 18 3 -30 8 -38 4 -110 12
-160 18 -49 6 -153 12 -230 15 -110 4 -124 3 -65 -3z"/>
<path d="M5700 8290 c30 -5 75 -8 100 -8 41 1 40 2 -15 8 -33 4 -78 8 -100 8
-34 -1 -32 -2 15 -8z"/>
<path d="M5500 8266 c151 -28 520 -75 708 -91 83 -7 -157 31 -343 54 -390 49
-478 58 -365 37z"/>
<path d="M5878 8273 c12 -2 32 -2 45 0 12 2 2 4 -23 4 -25 0 -35 -2 -22 -4z"/>
<path d="M4347 8263 c18 -2 50 -2 70 0 21 2 7 4 -32 4 -38 0 -55 -2 -38 -4z"/>
<path d="M4213 8253 c15 -2 39 -2 55 0 15 2 2 4 -28 4 -30 0 -43 -2 -27 -4z"/>
<path d="M4340 8231 c-93 -6 -94 -6 -40 -13 30 -5 210 -9 400 -10 354 -3 368
3 48 22 -187 10 -242 10 -408 1z"/>
<path d="M4991 8237 c3 -4 75 -9 160 -13 85 -4 151 -4 148 0 -4 4 -76 10 -160
13 -85 3 -151 3 -148 0z"/>
<path d="M5340 8230 c0 -5 26 -10 58 -11 31 0 111 -9 177 -20 66 -11 145 -24
175 -29 30 -4 127 -20 215 -34 166 -27 255 -33 150 -11 -40 8 -50 13 -31 14
47 2 23 12 -36 16 -148 8 -136 7 -103 15 21 5 8 7 -45 7 -41 1 -109 8 -150 17
-77 16 -319 46 -377 46 -18 0 -33 -4 -33 -10z"/>
<path d="M5330 8196 c41 -8 131 -26 200 -41 181 -37 977 -141 1018 -133 17 4
-113 27 -166 29 l-27 2 30 7 c26 7 24 7 -10 4 -22 -2 -146 12 -275 31 -419 62
-445 65 -480 66 l-35 1 30 8 c19 5 6 6 -34 3 -40 -4 -62 -2 -58 4 3 5 -6 8
-23 5 -16 -2 -44 1 -62 7 -18 7 -67 14 -108 16 l-75 5 75 -14z"/>
<path d="M2965 8035 c-193 -50 -362 -103 -334 -105 13 0 177 43 234 62 33 11
101 31 150 43 50 13 79 23 65 24 -14 0 -65 -11 -115 -24z"/>
<path d="M6488 8053 c7 -3 16 -2 19 1 4 3 -2 6 -13 5 -11 0 -14 -3 -6 -6z"/>
<path d="M6573 8043 c9 -2 25 -2 35 0 9 3 1 5 -18 5 -19 0 -27 -2 -17 -5z"/>
<path d="M6663 8033 c9 -2 25 -2 35 0 9 3 1 5 -18 5 -19 0 -27 -2 -17 -5z"/>
<path d="M6738 8023 c12 -2 32 -2 45 0 12 2 2 4 -23 4 -25 0 -35 -2 -22 -4z"/>
<path d="M6578 8013 c6 -2 18 -2 25 0 6 3 1 5 -13 5 -14 0 -19 -2 -12 -5z"/>
<path d="M7080 7996 c0 -2 80 -9 178 -15 274 -18 285 -18 270 -11 -24 14 -448
38 -448 26z"/>
<path d="M2222 7779 c-57 -33 -101 -63 -98 -66 5 -5 206 115 206 123 0 7 -1 6
-108 -57z"/>
<path d="M5430 7426 c0 -10 60 -116 66 -116 5 0 -38 84 -55 110 -6 8 -11 11
-11 6z"/>
<path d="M5471 7245 c0 -5 6 -21 14 -35 8 -14 14 -20 14 -15 0 6 -6 21 -14 35
-8 14 -14 21 -14 15z"/>
<path d="M5650 7215 c8 -9 6 -14 -6 -19 -9 -3 -21 -3 -27 1 -7 3 -4 -3 7 -15
10 -12 23 -19 28 -16 6 4 5 10 -3 15 -9 5 -5 10 15 15 28 7 23 25 -9 30 -12 2
-13 -1 -5 -11z"/>
<path d="M5620 7139 c0 -5 5 -7 10 -4 6 3 10 8 10 11 0 2 -4 4 -10 4 -5 0 -10
-5 -10 -11z"/>
<path d="M4210 7313 c14 -47 21 -61 34 -66 8 -3 3 14 -11 44 -28 55 -36 62
-23 22z"/>
<path d="M5030 7335 c0 -3 17 -32 37 -63 21 -31 41 -65 45 -75 4 -9 14 -20 22
-23 8 -3 13 -11 10 -18 -3 -7 6 -21 18 -32 l23 -19 -17 21 c-36 42 -16 37 22
-6 22 -25 40 -40 40 -33 0 11 -50 72 -118 143 -13 14 -35 44 -49 68 -23 39
-33 50 -33 37z"/>
<path d="M5809 7006 c-95 -34 -174 -111 -224 -219 -41 -88 -55 -163 -55 -281
0 -158 45 -284 136 -385 179 -198 507 -183 630 29 4 8 -10 1 -31 -16 -45 -36
-89 -59 -147 -80 l-40 -14 65 69 c110 117 154 240 145 408 -6 117 -39 219
-103 313 -60 90 -127 143 -214 170 -73 23 -111 24 -162 6z m237 -216 c71 -25
96 -125 47 -180 -93 -104 -260 19 -184 134 34 51 79 66 137 46z"/>
<path d="M3975 6870 c-132 -72 -225 -256 -225 -444 0 -169 85 -343 218 -446
23 -18 41 -35 38 -37 -7 -7 -129 37 -174 64 -24 13 -46 23 -48 20 -9 -8 87
-86 134 -109 39 -19 63 -23 142 -23 85 0 101 3 155 29 216 106 300 396 198
679 -66 183 -172 276 -323 284 -63 4 -81 1 -115 -17z m219 -162 c29 -25 39
-43 42 -73 10 -82 -69 -149 -147 -126 -132 40 -105 231 32 231 26 0 46 -9 73
-32z"/>
<path d="M6732 6860 c0 -14 2 -19 5 -12 2 6 2 18 0 25 -3 6 -5 1 -5 -13z"/>
<path d="M3303 6431 c0 -11 5 -18 9 -15 4 3 5 11 1 19 -7 21 -12 19 -10 -4z"/>
<path d="M4863 6035 c-61 -43 -9 -165 72 -165 20 0 19 6 -6 47 -21 33 -21 55
-4 111 6 19 4 22 -17 22 -13 0 -33 -7 -45 -15z"/>
<path d="M5346 5730 c-95 -61 -172 -82 -317 -88 -108 -4 -138 -1 -210 18 -117
31 -139 34 -139 21 0 -21 125 -71 216 -88 75 -14 103 -15 181 -5 50 7 122 23
158 36 70 25 173 90 182 114 12 30 -15 27 -71 -8z"/>
<path d="M4080 4243 c0 -13 67 -89 73 -83 3 3 -13 25 -34 49 -21 24 -39 39
-39 34z"/>
<path d="M6100 4741 c0 -6 4 -13 10 -16 6 -3 7 1 4 9 -7 18 -14 21 -14 7z"/>
<path d="M6126 4697 c3 -10 9 -15 12 -12 3 3 0 11 -7 18 -10 9 -11 8 -5 -6z"/>
<path d="M6536 4214 c-15 -14 -26 -27 -24 -29 2 -3 17 9 33 25 35 36 30 39 -9
4z"/>
<path d="M4760 4650 c-13 -9 -13 -10 0 -10 8 0 22 5 30 10 13 9 13 10 0 10 -8
0 -22 -5 -30 -10z"/>
<path d="M5142 4338 c-27 -27 -5 -88 31 -88 30 0 47 18 47 50 0 31 -17 50 -45
50 -12 0 -26 -5 -33 -12z m43 -28 c3 -5 1 -10 -4 -10 -6 0 -11 5 -11 10 0 6 2
10 4 10 3 0 8 -4 11 -10z"/>
<path d="M5138 3969 c-24 -13 -23 -61 0 -82 25 -23 38 -21 56 5 21 30 20 44
-4 68 -23 23 -28 24 -52 9z m32 -29 c0 -5 -5 -10 -11 -10 -5 0 -7 5 -4 10 3 6
8 10 11 10 2 0 4 -4 4 -10z"/>
<path d="M5096 3684 c-19 -18 -21 -55 -4 -72 19 -19 56 -14 68 8 21 40 -34 95
-64 64z m42 -27 c2 -10 -3 -17 -12 -17 -18 0 -29 16 -21 31 9 14 29 6 33 -14z"/>
<path d="M4755 3370 c27 -12 43 -12 25 0 -8 5 -22 9 -30 9 -10 0 -8 -3 5 -9z"/>
<path d="M4840 3347 c3 -3 36 -17 74 -31 85 -32 224 -54 383 -61 l118 -5 -72
25 c-72 24 -137 34 -357 55 -65 7 -126 14 -135 17 -9 4 -14 4 -11 0z"/>
<path d="M4562 4278 c-7 -7 -12 -21 -12 -33 0 -29 19 -45 52 -45 34 0 55 39
38 71 -12 22 -59 26 -78 7z m38 -18 c0 -5 -4 -10 -10 -10 -5 0 -10 5 -10 10 0
6 5 10 10 10 6 0 10 -4 10 -10z"/>
<path d="M5450 2931 c0 -6 4 -13 10 -16 6 -3 7 1 4 9 -7 18 -14 21 -14 7z"/>
<path d="M4368 2531 c-27 -14 -48 -29 -48 -34 0 -9 96 39 105 53 9 15 -5 10
-57 -19z"/>
<path d="M6001 2455 c0 -16 47 -201 48 -188 1 17 -26 144 -38 173 -5 14 -10
21 -10 15z"/>
<path d="M6052 2225 c0 -16 2 -22 5 -12 2 9 2 23 0 30 -3 6 -5 -1 -5 -18z"/>
<path d="M6002 1978 c-11 -24 -48 -94 -81 -155 -33 -62 -56 -113 -52 -113 22
0 171 263 171 301 0 22 -18 6 -38 -33z"/>
<path d="M4832 1680 c0 -14 2 -19 5 -12 2 6 2 18 0 25 -3 6 -5 1 -5 -13z"/>
<path d="M4792 1530 c0 -14 2 -19 5 -12 2 6 2 18 0 25 -3 6 -5 1 -5 -13z"/>
<path d="M5551 1195 c7 -7 151 -36 156 -31 2 2 -25 11 -61 20 -64 16 -104 21
-95 11z"/>
<path d="M4170 420 c-8 -5 -10 -10 -5 -10 6 0 17 5 25 10 8 5 11 10 5 10 -5 0
-17 -5 -25 -10z"/>
</g>
</svg>
