<?xml version="1.0" standalone="no"?>
<!DOCTYPE svg PUBLIC "-//W3C//DTD SVG 20010904//EN"
 "http://www.w3.org/TR/2001/REC-SVG-20010904/DTD/svg10.dtd">
<svg version="1.0" xmlns="http://www.w3.org/2000/svg"
 width="1024.000000pt" height="1024.000000pt" viewBox="0 0 1024.000000 1024.000000"
 preserveAspectRatio="xMidYMid meet">
<metadata>
Created by potrace 1.16, written by Peter Selinger 2001-2019
</metadata>
<g transform="translate(0.000000,1024.000000) scale(0.100000,-0.100000)"
fill="#000000" stroke="none">
<path d="M5235 9683 c-67 -10 -141 -12 -225 -9 -279 13 -796 -39 -1010 -101
-189 -54 -310 -121 -577 -320 -252 -187 -467 -397 -605 -589 -120 -168 -338
-568 -386 -710 -36 -105 -41 -177 -45 -642 l-5 -453 -46 -57 c-182 -224 -324
-507 -361 -719 -69 -398 129 -671 610 -836 192 -66 458 -117 610 -117 l77 0
106 -71 c218 -146 478 -243 757 -284 50 -8 49 -8 -85 -35 -318 -63 -408 -107
-451 -218 -18 -49 -20 -71 -16 -152 3 -52 8 -103 12 -112 6 -15 2 -18 -24 -18
-21 0 -46 -13 -82 -42 -105 -86 -114 -126 -53 -245 l36 -72 -60 -93 c-120
-187 -287 -494 -325 -601 -4 -9 -12 -17 -19 -17 -29 0 -140 -61 -183 -101 -52
-48 -59 -88 -24 -133 20 -25 20 -28 4 -70 -16 -40 -16 -47 -2 -73 9 -15 18
-41 22 -56 4 -20 16 -33 41 -43 34 -14 314 -38 384 -32 28 2 35 -1 38 -17 11
-71 52 -102 119 -92 41 7 89 48 108 92 l13 30 7 -40 c16 -102 66 -172 150
-212 23 -11 36 -25 40 -45 9 -39 50 -85 97 -109 30 -15 38 -24 33 -37 -28 -73
-75 -327 -75 -411 0 -60 2 -65 34 -95 33 -30 34 -33 25 -71 -6 -22 -13 -114
-16 -204 -6 -163 -6 -164 -39 -220 -18 -31 -37 -61 -42 -66 -5 -6 -89 -16
-188 -23 -543 -39 -1049 -110 -1254 -178 -231 -77 -238 -156 -20 -245 243 -99
1019 -196 1930 -241 352 -17 1563 -17 1875 0 1011 57 1675 146 1901 257 104
51 131 90 94 138 -79 100 -499 185 -1215 247 -326 28 -318 27 -346 56 -30 32
-83 60 -132 69 -21 4 -40 12 -43 17 -4 6 -31 105 -60 221 l-53 210 29 34 c40
45 45 70 31 171 -7 48 -17 125 -22 172 -5 47 -18 132 -30 189 -19 96 -19 107
-5 140 37 85 99 399 94 476 -2 35 2 57 15 75 38 54 17 133 -72 262 -72 105
-98 131 -138 137 -31 6 -37 12 -64 76 -50 115 -69 176 -69 219 l0 41 70 -1 70
-2 47 -52 c58 -65 261 -235 386 -323 l94 -67 6 -60 c9 -79 43 -213 67 -261 47
-91 119 -92 151 0 l12 33 33 -60 c37 -66 69 -92 111 -92 44 1 83 42 83 87 0
15 6 18 38 15 45 -4 70 14 79 59 4 22 11 29 28 29 37 0 59 33 52 80 -5 38 -3
41 27 54 20 8 38 26 46 45 21 52 -3 88 -121 178 -160 122 -145 106 -126 134
10 13 17 41 17 62 0 31 -7 46 -34 73 -42 42 -74 44 -118 6 -37 -32 -109 -82
-119 -82 -3 0 -42 44 -87 98 -77 93 -265 284 -365 369 l-48 41 16 57 c9 31 14
67 11 80 -7 26 -129 123 -196 154 -25 11 -123 76 -219 144 -95 69 -216 146
-268 173 -51 27 -117 61 -145 77 -36 19 -67 27 -102 27 -45 1 -126 29 -86 30
43 1 288 44 380 65 239 58 422 131 569 229 102 68 235 197 286 278 25 40 35
48 60 48 52 0 145 29 218 67 98 52 184 142 241 252 60 117 79 199 74 321 -4
88 -16 129 -55 201 -2 4 40 34 94 67 358 220 588 465 706 752 69 168 75 308
19 423 -35 71 -188 255 -279 337 -140 124 -329 222 -561 289 l-95 27 -59 154
c-32 85 -85 232 -119 325 -109 308 -183 430 -362 601 -147 141 -324 250 -557
342 -145 58 -307 107 -400 122 -89 14 -275 11 -395 -7z m479 -74 c263 -67 524
-184 705 -317 101 -74 247 -221 300 -302 58 -89 114 -210 160 -344 21 -61 58
-161 81 -220 23 -59 40 -110 37 -113 -3 -2 -14 -2 -25 1 -15 5 -23 22 -31 68
-15 73 -114 365 -146 428 -21 42 -112 170 -120 170 -2 0 -7 -5 -11 -12 -4 -6
-3 -8 3 -5 26 16 30 -81 8 -186 -18 -87 -69 -192 -135 -282 -28 -39 -53 -71
-54 -72 -1 -2 -63 6 -137 17 -155 22 -375 40 -504 40 -49 0 -95 4 -100 8 -30
21 -36 66 -30 216 6 130 4 164 -13 246 -72 337 -236 540 -492 609 -161 43
-367 45 -510 5 -140 -40 -288 -152 -343 -260 -70 -138 -59 -356 29 -596 45
-121 112 -225 194 -301 l60 -56 -58 -11 c-205 -41 -389 -98 -557 -172 -202
-89 -203 -89 -276 -68 -35 9 -81 25 -101 34 -20 8 -38 12 -41 8 -2 -4 -2 -2
-1 5 4 17 -66 57 -79 44 -18 -18 -76 17 -77 47 0 20 17 14 23 -8 3 -11 12 -23
21 -26 32 -12 27 4 -13 45 -23 23 -41 47 -41 53 0 6 -7 16 -14 22 -19 14 -86
133 -86 153 0 8 -4 11 -10 8 -5 -3 -7 -20 -4 -38 5 -28 4 -30 -7 -13 -9 15 -9
27 0 51 9 26 8 41 -4 75 -8 23 -15 52 -15 64 0 17 -2 18 -10 6 -8 -11 -9 -9
-5 10 3 14 1 66 -3 115 -5 50 -5 92 0 93 10 5 11 42 0 42 -13 0 -43 -40 -37
-50 3 -6 0 -8 -7 -5 -17 6 -101 -74 -95 -90 3 -6 -4 -17 -14 -23 -14 -9 -18
-19 -13 -36 6 -27 -23 -51 -49 -40 -8 3 -18 1 -21 -5 -4 -6 -14 -7 -24 -4 -16
6 -16 5 1 -14 21 -25 23 -40 1 -18 -12 12 -19 13 -30 4 -8 -6 -14 -17 -14 -23
0 -6 4 -5 9 3 8 12 11 12 25 -1 13 -14 11 -15 -19 -14 -30 1 -39 -6 -79 -58
-25 -32 -46 -64 -46 -71 0 -7 -7 -18 -16 -26 -9 -7 -13 -21 -10 -33 3 -12 1
-28 -5 -36 -8 -11 -9 -9 -3 10 9 32 0 24 -31 -31 -52 -91 -94 -190 -89 -207 5
-14 4 -15 -5 -2 -6 8 -11 12 -11 8 0 -3 -3 -14 -7 -24 -4 -11 -3 -15 4 -11 6
4 14 0 17 -9 11 -28 6 -38 -9 -18 -13 16 -16 17 -25 4 -6 -8 -13 -26 -17 -40
-3 -14 -9 -27 -12 -30 -14 -12 -31 -62 -24 -73 11 -16 10 -96 0 -90 -5 3 -5
24 -2 47 7 40 6 40 -10 18 -10 -14 -14 -30 -10 -43 5 -16 4 -19 -5 -14 -9 5
-11 4 -6 -3 4 -6 3 -20 -2 -29 -12 -22 -21 -134 -11 -128 3 3 1 -21 -6 -53
-17 -73 -37 -208 -38 -249 0 -18 -5 -29 -10 -26 -5 3 -6 -8 -2 -28 5 -27 4
-31 -5 -19 -10 13 -11 12 -6 -3 3 -10 6 -23 6 -27 0 -5 13 -8 28 -7 21 1 28 7
28 22 -1 13 7 21 22 23 18 3 22 -1 22 -21 0 -33 -31 -61 -50 -44 -12 10 -12 9
-1 -5 11 -15 7 -23 -25 -57 -20 -22 -41 -38 -45 -35 -5 3 -6 -1 -4 -8 3 -7 -7
-29 -23 -47 l-28 -34 3 364 c5 419 9 449 90 622 252 538 490 835 936 1166 342
254 483 310 918 361 355 43 707 35 1026 -20 62 -11 116 -20 120 -20 23 0 -46
33 -123 59 -86 29 -87 30 -48 34 79 10 267 -3 348 -24z m-538 -104 c122 -31
194 -68 258 -132 59 -59 157 -227 159 -271 1 -15 6 -30 12 -34 11 -8 -32 -58
-50 -58 -19 0 -37 76 -30 123 5 34 1 55 -19 100 -14 31 -33 60 -42 64 -21 8
-44 -21 -44 -54 0 -13 -4 -23 -10 -23 -16 0 -12 32 10 73 11 20 16 37 10 37
-17 0 -44 -52 -44 -86 0 -32 0 -32 -17 -12 -14 15 -17 34 -15 86 3 64 2 66
-10 35 -17 -39 -51 -62 -60 -38 -10 25 -31 17 -42 -15 -8 -21 -16 -28 -26 -24
-20 8 -21 33 -1 40 17 7 22 84 6 84 -6 0 -7 -15 -4 -34 3 -19 1 -36 -6 -40 -7
-5 -11 5 -11 29 0 22 -4 34 -10 30 -5 -3 -10 -26 -10 -51 0 -42 -1 -44 -29
-44 -16 0 -36 3 -45 6 -18 7 -22 49 -6 59 6 3 10 1 10 -5 0 -7 7 -10 15 -6 9
3 15 0 15 -9 0 -29 18 -15 23 18 6 40 1 46 -18 21 -14 -19 -14 -19 -15 1 0 15
-2 17 -9 6 -7 -11 -10 -9 -16 8 -12 39 -25 22 -25 -34 0 -46 -3 -55 -18 -55
-28 0 -42 21 -42 62 0 21 -3 38 -7 38 -5 0 -6 -22 -5 -49 l4 -50 -44 -10
c-125 -31 -277 -145 -320 -239 -10 -23 -24 -40 -29 -36 -6 3 -8 12 -5 20 3 8
0 11 -10 7 -7 -3 -14 -1 -14 3 0 5 -3 19 -6 32 -5 19 -2 22 19 22 14 0 28 3
31 8 2 4 -14 8 -37 8 -23 0 -51 3 -62 8 -13 5 -11 1 8 -14 15 -12 27 -29 27
-39 0 -9 5 -22 12 -29 6 -6 9 -15 5 -19 -4 -4 -13 -1 -19 5 -7 7 -20 12 -29
12 -10 0 -27 11 -37 25 -13 16 -23 22 -27 15 -11 -18 25 -50 55 -50 15 0 33
-7 40 -15 12 -14 5 -55 -10 -55 -21 0 -90 55 -90 72 0 10 -7 18 -15 18 -13 0
-14 -4 -4 -21 12 -22 0 -39 -29 -39 -10 0 -10 -4 0 -20 10 -15 10 -22 1 -28
-8 -5 -4 -16 12 -36 l23 -29 -20 -17 c-20 -16 -20 -16 13 -44 19 -16 37 -36
40 -44 4 -13 7 -11 11 6 5 18 0 26 -25 39 -30 16 -31 18 -9 21 12 2 20 8 17
13 -4 5 -2 9 3 9 18 0 35 -31 37 -70 3 -44 63 -152 118 -210 45 -47 147 -134
175 -149 14 -7 22 -21 22 -36 0 -14 5 -25 10 -25 6 0 10 9 10 21 0 16 4 19 18
14 9 -4 31 -13 47 -19 17 -6 32 -14 33 -18 6 -22 -1 -28 -28 -28 -23 0 -30 5
-30 19 0 27 -15 34 -31 15 -11 -14 -10 -18 6 -31 11 -7 31 -16 45 -19 14 -3
53 -14 88 -25 66 -20 104 -25 62 -7 l-25 10 23 9 c23 9 30 29 10 29 -6 0 -19
-7 -29 -16 -12 -11 -23 -13 -36 -6 -10 5 -24 7 -30 5 -14 -5 -17 15 -5 34 5 8
21 9 56 2 26 -5 59 -6 72 -3 22 6 23 4 18 -25 -4 -20 -3 -31 5 -31 6 0 11 13
11 29 0 27 3 29 79 45 43 9 87 23 98 31 18 13 22 13 33 0 14 -17 4 -37 -18
-34 -31 3 -42 -1 -42 -14 0 -8 -15 -13 -42 -14 -23 -1 -44 -7 -48 -13 -4 -6
-14 -8 -23 -4 -12 4 -17 1 -17 -10 0 -9 1 -16 3 -16 16 0 124 23 132 28 6 4
26 12 45 18 36 10 36 11 28 73 -4 32 17 39 26 9 l7 -23 10 23 c5 13 6 28 3 34
-15 23 20 25 42 2 29 -29 30 -34 3 -34 -17 0 -19 -3 -10 -14 9 -11 3 -21 -31
-51 -88 -76 -180 -105 -333 -105 -241 0 -483 144 -590 350 -25 49 -45 93 -45
99 0 6 11 11 24 11 13 0 30 8 37 17 12 15 12 16 -4 10 -49 -19 -65 -19 -75 0
-20 40 -62 252 -62 314 0 5 16 -8 36 -29 39 -40 37 -28 -5 28 -47 63 -27 182
46 275 55 70 179 150 273 175 125 34 308 32 456 -5z m163 -227 c-7 -13 -12
-29 -11 -35 4 -17 0 -16 -41 3 -26 12 -33 21 -30 35 5 20 33 27 33 9 0 -19 29
-10 41 12 7 13 14 18 16 11 3 -7 -1 -22 -8 -35z m-174 -29 c56 -16 153 -65
197 -100 57 -45 78 -36 78 35 0 18 6 41 14 51 13 18 15 15 31 -40 14 -45 15
-62 6 -74 -26 -35 -52 -104 -46 -119 5 -14 9 -10 20 16 8 17 18 32 24 32 34 0
39 -259 7 -377 -70 -258 -410 -354 -681 -192 -115 68 -245 222 -261 309 l-7
35 30 -27 c36 -35 56 -35 81 -3 26 32 29 32 37 -7 9 -43 70 -156 103 -191 26
-28 27 -29 8 -43 -19 -13 -18 -14 9 -14 16 0 43 -5 62 -12 37 -13 58 -2 29 16
-11 6 -37 27 -59 46 -63 55 -126 180 -82 164 11 -5 15 1 16 22 1 26 2 25 14
-12 33 -104 72 -154 163 -209 65 -39 82 -45 136 -46 115 -2 203 37 258 116 35
49 34 47 49 155 18 128 -9 249 -68 302 -33 30 -127 67 -191 76 -168 23 -303
-48 -368 -194 -28 -63 -31 -89 -9 -80 19 7 21 -51 2 -87 l-13 -25 -17 26 c-10
15 -26 43 -35 62 -9 19 -26 37 -36 38 -17 4 -18 -1 -13 -37 7 -57 -11 -70 -55
-40 -72 50 -138 112 -138 130 0 28 24 23 63 -11 19 -16 39 -30 44 -30 5 0 19
14 31 30 13 17 29 30 37 30 8 0 26 23 41 51 72 142 224 238 379 239 39 0 88
-5 110 -11z m245 -65 c0 -8 -4 -12 -10 -9 -5 3 -10 10 -10 16 0 5 5 9 10 9 6
0 10 -7 10 -16z m-245 -65 c53 -15 123 -88 165 -173 45 -90 51 -180 19 -251
-14 -30 -24 -44 -27 -34 -2 11 -10 15 -22 12 -13 -4 -23 4 -34 26 -20 37 -21
63 -3 41 7 -8 22 -24 35 -34 22 -19 22 -19 22 2 0 15 -6 22 -18 22 -16 0 -82
68 -82 85 0 7 -67 73 -105 103 -31 24 -80 29 -88 9 -3 -7 1 -24 9 -38 16 -29
18 -49 4 -49 -5 0 -14 15 -19 33 l-9 32 -1 -30 c-1 -17 -5 -35 -10 -40 -15
-16 -24 -75 -12 -75 6 0 11 16 11 35 0 25 4 35 15 35 13 0 14 -4 5 -20 -9 -16
-8 -20 5 -20 8 0 15 -4 15 -10 0 -5 -6 -10 -14 -10 -8 0 -18 -4 -21 -10 -9
-15 56 1 77 19 22 19 23 30 1 46 -9 7 -14 19 -10 28 8 22 46 10 57 -18 5 -12
16 -25 24 -28 14 -6 15 -3 5 14 -16 30 -1 38 20 10 10 -13 20 -20 23 -15 3 5
3 4 2 -3 -2 -7 3 -19 11 -27 19 -19 19 -27 0 -20 -11 5 -14 2 -9 -12 4 -11 13
-26 19 -34 21 -25 36 -60 27 -60 -5 0 -16 15 -25 33 l-17 32 5 -31 c6 -30 5
-31 -37 -37 -24 -4 -54 -10 -68 -14 -22 -6 -24 -5 -11 10 7 9 28 18 45 18 17
1 23 3 14 6 -10 2 -18 9 -18 14 0 6 -5 7 -12 3 -8 -5 -9 -2 -5 10 4 10 7 22 7
27 0 21 19 7 29 -21 9 -29 36 -49 47 -37 3 3 1 15 -6 26 -8 15 -8 21 0 21 6 0
2 14 -10 30 -24 34 -39 38 -41 13 -1 -16 -2 -16 -6 -1 -2 9 -11 19 -20 22 -13
5 -14 4 -4 -8 13 -16 3 -46 -26 -74 -7 -7 -13 -23 -13 -36 0 -14 -17 -36 -45
-59 l-45 -38 -45 26 c-89 53 -135 143 -135 268 0 161 103 264 265 266 28 1 68
-4 90 -10z m185 -84 c6 -8 10 -22 8 -32 -3 -14 -8 -11 -21 15 -18 32 -9 44 13
17z m287 -66 c23 -124 16 -206 -28 -329 -20 -56 -20 -56 -57 -52 -33 4 -35 3
-23 -12 19 -22 8 -43 -28 -51 -48 -10 -49 -27 -2 -19 23 4 41 4 41 1 0 -3 -14
-16 -31 -28 l-32 -22 -17 23 c-17 23 -17 25 15 69 17 25 35 54 39 65 6 17 8
18 24 2 23 -20 32 -20 32 -2 0 8 -9 18 -20 21 -23 7 -23 3 -9 102 15 107 13
103 48 93 42 -12 39 -4 -4 14 -19 8 -35 22 -35 30 0 19 13 20 43 4 20 -10 21
-10 9 5 -8 9 -22 19 -33 22 -15 5 -19 16 -19 51 0 32 4 44 15 44 8 0 19 9 25
21 18 34 34 16 47 -52z m-248 -87 c-1 -57 -1 -57 -10 -17 -11 56 -11 87 1 80
6 -3 9 -32 9 -63z m-314 38 c3 -5 1 -20 -6 -32 l-12 -22 -9 23 c-12 33 10 58
27 31z m62 -45 c0 -8 -4 -15 -9 -15 -4 0 -8 5 -8 10 0 6 -7 10 -15 10 -15 0
-21 21 -8 33 9 10 40 -20 40 -38z m-60 -72 c3 -7 -4 -9 -16 -6 -12 3 -18 9
-15 15 7 11 26 6 31 -9z m-1893 -73 c-6 -5 -24 21 -24 34 0 6 6 1 14 -10 8
-10 12 -21 10 -24z m2072 -92 c3 -4 -14 -8 -38 -8 -24 0 -70 -7 -102 -15 -72
-19 -85 -13 -19 8 83 27 148 33 159 15z m32 -49 c-25 -33 -49 -44 -124 -59
-47 -9 -67 -9 -99 2 -46 15 -50 28 -15 45 31 15 172 40 221 39 l36 -1 -19 -26z
m-1983 -87 c-3 -3 -5 2 -5 12 0 11 -4 14 -12 10 -8 -5 -9 -2 -5 10 4 10 7 25
8 34 1 9 5 -1 10 -22 5 -21 7 -41 4 -44z m2269 57 c-6 -11 -24 -2 -24 11 0 5
7 7 15 4 8 -4 12 -10 9 -15z m-2634 -49 c-12 -16 -24 -30 -26 -30 -7 0 5 20
24 43 24 27 25 20 2 -13z m352 -51 c-3 -20 0 -34 9 -40 7 -4 10 -11 6 -16 -11
-11 -27 17 -27 48 0 21 7 39 15 39 1 0 -1 -14 -3 -31z m-412 -64 c0 -8 -2 -15
-4 -15 -2 0 -6 7 -10 15 -3 8 -1 15 4 15 6 0 10 -7 10 -15z m495 -35 c3 -5 1
-10 -4 -10 -6 0 -11 5 -11 10 0 6 2 10 4 10 3 0 8 -4 11 -10z m-502 -20 c3
-11 1 -18 -4 -14 -5 3 -9 12 -9 20 0 20 7 17 13 -6z m-84 -89 c-7 -21 -7 -36
0 -50 7 -13 8 -22 1 -26 -6 -3 -10 4 -11 17 -1 21 -1 21 -11 -4 -5 -16 -17
-28 -26 -28 -11 0 -13 3 -6 8 11 7 27 39 29 57 1 13 24 55 30 55 2 0 -1 -13
-6 -29z m761 -71 c0 -5 -5 -10 -11 -10 -5 0 -7 5 -4 10 3 6 8 10 11 10 2 0 4
-4 4 -10z m-47 -17 c-7 -2 -19 -2 -25 0 -7 3 -2 5 12 5 14 0 19 -2 13 -5z
m3217 -17 c339 -34 540 -82 748 -181 149 -71 237 -131 337 -229 141 -139 222
-266 232 -364 6 -57 -8 -68 -21 -16 -19 73 -141 221 -249 302 -243 181 -466
295 -727 372 -186 55 -179 54 -730 55 -498 0 -519 -1 -628 -23 -62 -13 -125
-28 -140 -34 -15 -6 -36 -10 -46 -9 -11 2 -27 -7 -36 -19 -15 -19 -34 -24
-141 -37 -298 -34 -712 -112 -911 -173 -394 -119 -546 -175 -833 -306 -149
-68 -231 -111 -353 -186 -34 -21 -68 -36 -74 -32 -7 4 -8 3 -4 -4 4 -6 -4 -16
-16 -23 -13 -7 -25 -15 -28 -19 -3 -3 -30 -23 -60 -43 -196 -129 -484 -421
-596 -607 -22 -36 -60 -90 -84 -121 -49 -62 -186 -273 -219 -338 -12 -22 -28
-69 -36 -103 -17 -72 -20 -275 -5 -327 15 -53 4 -49 -25 9 -132 260 -16 667
304 1068 88 111 216 233 376 357 378 296 358 283 767 493 614 315 1041 434
1883 522 110 11 259 25 330 30 202 13 793 5 985 -14z m-3050 -36 c8 -5 11 -12
7 -17 -5 -4 -12 -1 -17 7 -8 13 -13 13 -31 2 -22 -14 -35 -10 -24 7 8 13 45
14 65 1z m-840 -70 c0 -29 -4 -40 -15 -40 -11 0 -15 11 -15 40 0 29 4 40 15
40 11 0 15 -11 15 -40z m800 30 c-8 -5 -19 -10 -25 -10 -5 0 -3 5 5 10 8 5 20
10 25 10 6 0 3 -5 -5 -10z m100 -25 c0 -2 -10 -1 -22 4 -26 9 -75 -7 -83 -28
-8 -21 5 -28 16 -8 6 9 17 17 24 17 8 0 15 4 15 10 0 5 7 7 15 3 13 -4 11 -8
-7 -18 -13 -6 -44 -24 -70 -38 -40 -23 -51 -25 -75 -16 -33 12 -26 13 -63 -6
-17 -9 -30 -22 -30 -30 0 -8 -8 -19 -17 -24 -16 -9 -16 -10 -1 -11 9 0 25 12
35 26 12 16 31 28 51 30 39 4 40 0 5 -19 -16 -8 -58 -31 -95 -51 -38 -20 -68
-32 -68 -27 0 5 11 12 25 15 33 8 32 22 -2 35 l-28 11 27 -5 c35 -7 58 3 58
25 0 37 81 71 107 45 16 -17 37 -20 28 -5 -6 9 8 14 28 11 4 0 7 11 7 25 0 19
7 28 30 37 17 6 30 15 30 19 0 5 14 2 30 -7 17 -9 30 -18 30 -20z m40 27 c0
-4 -9 -8 -20 -9 -11 -1 -18 2 -15 8 7 11 35 12 35 1z m-1061 -42 c5 -16 8 -30
6 -30 -2 0 -10 14 -19 30 -8 17 -11 30 -6 30 4 0 13 -13 19 -30z m-19 -21 c0
-6 -4 -7 -10 -4 -5 3 -10 11 -10 16 0 6 5 7 10 4 6 -3 10 -11 10 -16z m2807
-5 c-3 -3 -12 -4 -19 -1 -8 3 -5 6 6 6 11 1 17 -2 13 -5z m-2117 -108 c0 -3
-4 -8 -10 -11 -5 -3 -10 -1 -10 4 0 6 5 11 10 11 6 0 10 -2 10 -4z m-150 -71
c0 -2 -6 -5 -13 -8 -8 -3 -14 1 -14 8 0 7 6 11 14 8 7 -3 13 -6 13 -8z m50 4
l32 -12 -31 -19 c-17 -11 -36 -17 -43 -15 -7 3 -4 6 7 6 17 1 18 3 5 12 -12 9
-12 10 3 5 32 -10 41 6 11 20 -37 16 -27 18 16 3z m60 7 c0 -3 -4 -8 -10 -11
-5 -3 -10 -1 -10 4 0 6 5 11 10 11 6 0 10 -2 10 -4z m-725 -98 c-3 -51 -2 -55
4 -23 7 36 8 37 10 10 1 -16 4 -41 6 -55 5 -22 4 -22 -4 -5 -8 16 -10 12 -12
-25 l-1 -45 -10 60 c-8 54 -3 145 7 145 3 0 3 -28 0 -62z m579 5 c-20 -14 -39
-20 -50 -16 -13 5 -16 3 -12 -9 5 -11 1 -14 -18 -10 -19 3 -24 0 -24 -15 0
-13 -16 -31 -42 -49 -24 -16 -79 -57 -122 -92 -44 -34 -86 -60 -93 -57 -8 2
-13 -1 -11 -8 3 -13 -19 -37 -78 -87 l-29 -25 20 24 c17 21 17 23 3 18 -12 -4
-15 -2 -11 9 6 17 23 19 23 2 0 -9 4 -8 10 2 5 8 10 32 10 53 0 26 4 37 15 37
8 0 15 -4 15 -10 0 -5 5 -10 11 -10 5 0 8 4 5 8 -3 5 8 8 25 7 34 -2 44 8 44
49 0 16 6 31 13 32 8 2 8 1 1 -3 -8 -4 -7 -8 2 -14 12 -8 11 -11 -1 -19 -8 -5
-11 -10 -7 -10 5 0 20 9 33 19 17 13 20 21 12 24 -7 2 -3 3 8 1 12 -2 28 4 35
13 12 14 12 16 -1 11 -11 -4 -15 1 -15 17 0 14 5 21 13 18 7 -3 12 1 10 8 -2
9 6 14 22 14 14 0 47 15 75 33 31 20 56 30 70 27 16 -5 15 -3 -5 9 -18 11 -21
15 -8 16 9 0 20 -5 23 -10 11 -17 45 8 38 27 -6 15 -5 16 9 3 14 -13 12 -17
-18 -37z m-134 -13 c0 -5 -4 -10 -10 -10 -5 0 -10 5 -10 10 0 6 5 10 10 10 6
0 10 -4 10 -10z m3988 -143 c16 -45 43 -131 58 -192 26 -100 29 -126 29 -275
0 -128 -5 -181 -19 -235 -18 -69 -106 -308 -112 -303 -1 2 10 46 26 98 75 253
97 477 66 658 -13 74 -62 248 -94 331 -3 9 -1 12 5 8 6 -4 25 -44 41 -90z
m-4448 21 c0 -5 -4 -8 -10 -8 -5 0 -10 10 -10 23 0 18 2 19 10 7 5 -8 10 -18
10 -22z m280 7 c0 -11 -11 -15 -40 -15 -29 0 -40 4 -40 15 0 11 11 15 40 15
29 0 40 -4 40 -15z m4280 -60 c7 -9 8 -15 2 -15 -5 0 -12 7 -16 15 -3 8 -4 15
-2 15 2 0 9 -7 16 -15z m-1676 -325 c41 -58 103 -154 139 -215 92 -154 91
-152 111 -136 23 19 35 72 43 181 6 95 6 95 21 60 8 -19 25 -78 38 -130 19
-75 30 -100 53 -120 15 -14 38 -40 50 -57 22 -33 60 -45 62 -20 1 6 1 29 0 49
-4 56 30 73 139 72 102 -1 202 -27 325 -84 93 -42 209 -119 218 -145 24 -61
37 76 17 190 -4 28 -7 51 -5 53 6 7 94 -177 109 -228 18 -65 11 -179 -25 -400
-19 -114 -23 -179 -24 -420 -2 -265 -4 -289 -24 -350 -99 -288 -375 -488 -836
-604 -435 -109 -951 -135 -1312 -65 -388 75 -866 306 -1102 534 -77 75 -83 83
-72 104 l12 22 -31 -16 c-167 -86 -415 -43 -622 110 -113 83 -217 249 -239
383 -27 161 41 331 162 408 91 57 223 78 325 53 49 -13 55 -21 73 -93 31 -126
121 -283 218 -378 50 -49 127 -97 139 -86 2 2 -10 38 -26 80 -31 78 -60 198
-80 330 l-13 77 87 92 c65 70 97 114 131 182 l45 89 0 -86 c0 -65 3 -86 13
-86 32 0 114 123 218 327 79 155 91 170 64 79 -15 -49 -20 -116 -9 -116 37 0
125 129 232 340 41 80 76 147 78 149 2 2 27 -18 55 -43 131 -118 431 -284 529
-294 59 -5 63 4 26 57 -23 33 -82 218 -73 227 2 3 32 -18 66 -46 97 -77 271
-189 436 -280 83 -46 167 -93 187 -104 30 -17 41 -19 55 -10 45 29 -1 264 -84
433 -26 53 -49 101 -51 106 -15 34 91 -87 152 -175z m-2825 114 c-9 -11 -15
-11 -25 -3 -19 15 -18 17 11 17 21 0 23 -3 14 -14z m41 13 c0 -2 -14 -16 -32
-33 l-32 -29 25 32 c20 27 39 41 39 30z m3302 -149 c38 -38 90 -83 117 -100
l48 -33 -103 -1 c-100 -2 -104 -1 -104 20 0 11 -18 73 -39 136 -37 109 -38
113 -13 80 14 -19 57 -65 94 -102z m-3448 87 c-6 -16 -24 -21 -24 -7 0 11 11
22 21 22 5 0 6 -7 3 -15z m118 -537 c-7 -7 -12 -8 -12 -2 0 14 12 26 19 19 2
-3 -1 -11 -7 -17z m4407 -448 c126 -36 196 -184 171 -360 -36 -250 -215 -446
-448 -490 -38 -7 -43 -6 -39 9 33 102 39 143 47 326 5 113 16 227 24 261 17
67 72 212 88 232 23 27 101 38 157 22z m-3883 -986 c191 -183 320 -268 589
-385 81 -35 143 -65 138 -66 -16 -6 -214 67 -322 118 -154 73 -284 163 -383
268 -155 162 -170 207 -22 65z m1369 -525 c19 -8 19 -8 -1 -8 -34 -1 -84 11
-84 20 0 9 50 2 85 -12z m275 -29 c4 0 20 -26 35 -57 34 -69 95 -162 198 -301
43 -57 82 -113 88 -124 10 -18 9 -19 -13 -5 -38 24 -118 36 -201 30 l-77 -6 0
50 c0 30 5 55 13 62 17 14 27 4 27 -26 0 -16 6 -23 20 -23 11 0 23 -7 26 -15
4 -8 10 -15 14 -15 10 0 1 40 -13 58 -8 11 -7 13 8 10 10 -1 20 3 23 10 3 10
-4 12 -32 7 -32 -7 -37 -5 -46 19 -17 47 -56 50 -155 12 -43 -16 -103 -20
-122 -8 -10 6 -6 19 12 52 14 25 43 79 64 121 22 42 51 90 65 106 14 17 26 36
26 43 0 7 7 10 16 6 9 -3 19 -6 24 -6z m680 -96 c66 -59 117 -111 114 -115 -3
-5 -45 -9 -95 -9 -52 0 -89 -4 -89 -10 0 -5 22 -27 49 -47 40 -31 81 -86 81
-108 0 -3 -34 -5 -76 -5 -75 0 -77 0 -111 -37 l-34 -38 27 53 c15 28 32 52 38
53 6 0 2 4 -9 8 -26 10 -53 2 -34 -10 11 -6 10 -9 -4 -15 -9 -3 -14 -10 -11
-15 10 -16 -39 -155 -66 -189 l-21 -25 7 110 c3 61 12 135 20 165 7 30 18 115
24 189 6 74 13 138 16 143 3 4 16 8 30 8 18 0 60 -32 144 -106z m-234 -19 c-3
-60 -13 -150 -22 -200 -9 -49 -18 -108 -21 -130 -8 -69 -12 -71 -45 -19 -18
27 -73 108 -124 179 -88 125 -144 217 -157 260 -7 20 -2 20 184 20 l192 0 -7
-110z m-1071 35 c7 -11 11 -10 -190 -50 -209 -42 -294 -67 -333 -97 -31 -23
-33 -24 -23 -4 17 32 104 77 195 102 191 51 337 72 351 49z m1435 -15 c30 -16
87 -82 77 -91 -2 -3 -31 20 -63 50 -61 57 -64 67 -14 41z m-1048 -106 c-19
-40 -37 -91 -40 -114 -5 -46 10 -85 33 -85 8 0 15 -5 15 -10 0 -7 -28 -10 -76
-8 l-75 3 -4 137 -3 137 57 4 c31 2 72 4 92 5 l35 2 -34 -71z m-336 -156 c-4
-115 -12 -232 -19 -262 -11 -51 -12 -46 -14 95 0 82 -8 196 -17 253 -9 58 -16
108 -16 113 0 4 16 8 37 8 l36 0 -7 -207z m-126 157 c0 -11 5 -76 11 -146 14
-151 0 -349 -32 -465 -17 -61 -101 -229 -115 -229 -11 0 -86 84 -130 145 -27
38 -98 128 -158 200 l-108 130 33 28 c90 76 255 202 344 262 55 37 107 73 115
81 21 20 40 17 40 -6z m1808 -63 c64 -46 151 -107 194 -136 72 -51 77 -56 92
-110 37 -136 26 -250 -39 -374 -78 -151 -133 -195 -145 -117 -4 20 -10 42 -15
50 -5 8 -8 59 -7 114 6 215 -44 386 -173 599 -19 31 -32 57 -29 57 3 0 58 -37
122 -83z m-2203 0 c-11 -7 -32 -25 -47 -41 -15 -15 -28 -24 -28 -19 0 11 37
46 65 61 27 15 35 14 10 -1z m1968 -134 c-12 -51 -42 -59 -44 -11 -1 32 -2 32
-8 6 -4 -20 -10 -25 -20 -19 -17 11 -7 61 13 61 7 0 19 7 26 16 12 13 15 13
28 0 11 -11 12 -23 5 -53z m-930 16 c-6 -6 -30 -12 -54 -15 l-44 -4 45 14 c58
17 66 18 53 5z m31 -92 c8 -22 6 -33 -11 -55 -11 -15 -24 -27 -29 -27 -6 0
-27 15 -49 32 -35 29 -38 35 -25 47 16 15 78 36 95 32 6 -2 14 -15 19 -29z
m990 1 c32 -77 31 -78 -13 -78 -49 0 -252 -27 -303 -41 -23 -6 -39 -17 -43
-30 -8 -23 2 -264 16 -424 15 -169 40 -246 87 -263 131 -50 390 -22 445 49
l23 30 28 -69 28 -70 -22 -63 c-12 -35 -27 -72 -32 -82 -5 -10 -7 -21 -5 -24
3 -2 20 23 38 58 37 68 49 64 25 -8 -9 -26 -16 -55 -16 -64 0 -49 -80 -88
-265 -128 -75 -17 -245 -41 -287 -41 -36 0 -37 1 -28 26 13 33 13 117 1 109
-6 -3 -13 -27 -17 -53 -13 -88 -20 -84 -16 9 5 113 -9 110 -27 -6 -10 -68 -21
-94 -41 -95 -3 0 -6 93 -7 208 -2 203 -24 593 -44 784 -9 90 -8 100 11 139 31
59 96 126 136 139 43 14 90 9 168 -20 32 -12 62 -17 65 -13 10 15 63 53 73 53
5 0 15 -15 22 -32z m-1266 6 c28 -4 52 -11 52 -16 0 -5 -9 -6 -20 -3 -28 9
-25 -9 5 -25 13 -7 22 -17 19 -21 -5 -9 76 -59 97 -59 9 0 24 -6 34 -14 16
-12 -3 -14 -144 -14 -162 0 -163 0 -157 22 3 12 8 48 12 79 8 64 4 62 102 51z
m92 -57 c0 -16 -18 3 -23 25 -6 22 -5 22 8 4 8 -11 15 -24 15 -29z m1738 -12
c40 -29 62 -52 62 -65 0 -29 -44 -139 -92 -233 -27 -53 -64 -103 -103 -143
-77 -78 -142 -100 -81 -27 84 100 136 258 136 415 0 54 4 98 8 98 4 0 36 -20
70 -45z m-1200 -14 c53 -27 58 -36 65 -116 9 -91 59 -436 64 -431 2 2 -1 61
-6 132 -18 235 -21 324 -13 324 12 0 40 -347 53 -655 9 -209 8 -276 -3 -344
l-13 -84 -160 2 c-157 2 -389 15 -493 27 -52 6 -56 10 -157 111 -79 81 -105
113 -110 140 -9 47 -42 78 -93 87 -23 3 -42 12 -42 18 0 7 -5 73 -11 148 l-10
136 32 52 c17 29 37 52 44 52 33 0 42 -26 54 -160 13 -148 23 -178 63 -198 68
-32 360 -43 428 -16 60 24 71 53 82 223 7 102 15 155 26 176 21 37 20 152 0
210 -18 50 -64 83 -129 91 -27 4 -49 10 -49 14 0 4 12 16 28 26 15 9 36 28 47
40 17 20 31 24 100 26 97 4 152 -5 203 -31z m-1583 -63 c10 -18 80 -96 155
-173 134 -137 250 -269 250 -283 0 -4 -15 -24 -33 -45 l-32 -39 -124 89 c-122
87 -282 240 -339 326 l-25 38 59 60 c32 32 61 59 64 59 3 0 14 -15 25 -32z
m2304 -84 c17 -47 31 -88 31 -92 0 -4 -16 -8 -36 -10 -19 -1 -43 -6 -52 -10
-9 -4 -81 -6 -158 -4 l-142 3 -13 62 c-9 41 -14 54 -16 37 -2 -14 2 -45 10
-70 l13 -45 154 -14 c150 -13 154 -13 197 8 54 26 53 26 53 -2 0 -37 -82 -53
-270 -52 l-154 0 -7 35 c-4 19 -11 70 -15 112 l-6 77 38 10 c79 21 201 39 271
40 l71 1 31 -86z m-1023 7 c39 -15 55 -48 61 -128 l6 -61 -59 -30 c-77 -39
-208 -82 -248 -82 -34 0 -218 62 -254 86 -13 8 -26 22 -29 30 -7 20 15 164 28
180 15 18 68 22 279 19 115 -1 197 -7 216 -14z m2009 -519 c26 -29 59 -55 71
-58 34 -9 80 10 141 58 46 35 56 39 68 27 14 -14 18 -31 16 -61 0 -10 -29 -50
-63 -89 -84 -96 -101 -119 -94 -126 3 -3 37 20 75 51 39 31 72 56 75 56 8 0
220 -170 234 -188 17 -22 15 -59 -4 -66 -23 -9 -73 18 -145 79 -35 30 -67 55
-71 55 -23 0 0 -38 63 -107 77 -84 95 -113 86 -137 -11 -27 -25 -19 -100 57
-39 41 -82 79 -94 85 -46 25 -31 -9 40 -91 73 -83 98 -130 79 -149 -6 -6 -18
-8 -28 -6 -17 3 -42 32 -144 173 -35 48 -60 67 -60 45 0 -6 24 -62 54 -123 63
-129 71 -157 52 -182 -13 -18 -15 -18 -40 -2 -32 22 -81 105 -102 174 -8 29
-19 55 -24 58 -5 3 -22 -35 -37 -86 -15 -50 -34 -94 -42 -97 -31 -12 -61 69
-86 233 -13 88 -18 103 -43 125 -15 14 -118 98 -228 187 -109 90 -221 183
-248 207 l-49 45 54 59 c30 32 78 99 107 149 l53 90 193 -196 c106 -108 214
-220 241 -249z m-926 261 c18 -65 23 -156 12 -222 -12 -73 -14 -76 -58 -86
l-33 -7 0 165 c0 160 1 164 23 175 37 18 46 14 56 -25z m-2395 -23 c34 -37 45
-33 20 7 -10 15 18 -6 62 -48 43 -41 101 -90 127 -108 l48 -33 -27 -35 c-184
-241 -414 -577 -414 -603 0 -19 59 39 131 128 l58 72 -5 -152 c-10 -286 -27
-380 -77 -413 -39 -25 -74 -3 -68 43 1 8 -4 24 -13 36 -14 22 -21 23 -220 29
-113 3 -211 9 -217 12 -22 14 10 26 121 45 62 11 116 22 119 25 2 3 0 10 -7
17 -8 8 -43 8 -137 -2 -69 -7 -128 -10 -131 -7 -12 11 7 25 43 31 88 16 193
50 193 62 0 23 -17 24 -75 4 -67 -23 -149 -27 -143 -8 3 7 43 27 89 44 51 19
85 37 87 46 5 28 -12 28 -89 2 -81 -27 -122 -28 -127 -2 -4 23 32 53 135 113
l86 50 84 160 c149 283 290 515 312 515 3 0 19 -14 35 -30z m2280 -133 c4 -87
7 -160 5 -162 -2 -2 -36 -6 -75 -10 l-72 -7 -21 63 c-11 35 -27 91 -35 124
l-14 60 -1 -51 c-1 -50 11 -132 24 -166 6 -15 2 -18 -25 -18 -46 0 -68 16 -79
58 -14 51 -33 250 -26 263 4 6 66 8 158 7 l152 -3 9 -158z m-944 51 c0 -81
-17 -209 -28 -220 -4 -4 -25 -8 -47 -10 -45 -3 -43 -13 -30 120 5 51 4 72 -4
72 -6 0 -11 -12 -12 -27 0 -16 -10 -57 -22 -93 l-22 -65 -48 -3 c-43 -3 -48
-1 -57 23 -6 15 -10 49 -10 76 0 27 -4 49 -9 49 -10 0 -21 -48 -21 -94 0 -54
-10 -60 -74 -46 -34 7 -60 18 -65 29 -8 14 -31 190 -31 236 0 8 24 5 83 -13
118 -37 208 -35 307 5 41 17 78 31 83 32 4 1 7 -32 7 -71z m-898 -160 c-7 -7
-12 -8 -12 -2 0 6 3 14 7 17 3 4 9 5 12 2 2 -3 -1 -11 -7 -17z m112 -183 c115
-6 130 -10 120 -27 -4 -6 -56 -9 -143 -7 -85 3 -137 0 -139 -6 -1 -5 9 -11 23
-13 37 -5 30 -22 -9 -22 -33 0 -37 -3 -64 -62 -56 -123 -53 -119 -48 -52 7
112 70 211 125 199 15 -3 75 -7 135 -10z m32 -65 c30 0 54 -4 54 -9 0 -11
-163 -22 -174 -11 -11 11 32 31 52 24 8 -2 38 -4 68 -4z m194 3 c0 -3 -11 -20
-24 -37 -33 -43 -69 -119 -96 -199 -13 -37 -25 -66 -27 -64 -9 10 27 148 51
194 36 73 96 139 96 106z m-694 -64 c-13 -32 -14 -32 -15 -8 -1 14 4 30 11 37
19 19 20 7 4 -29z m2591 9 c27 -30 77 -99 98 -138 11 -20 -2 -6 -50 54 -22 28
-54 65 -73 83 -18 18 -27 33 -19 33 7 0 27 -15 44 -32z m-2 -134 c49 -77 74
-104 98 -104 17 0 19 5 14 43 l-5 42 19 -40 c34 -73 7 -126 -48 -95 -59 33
-136 176 -149 276 -5 38 -4 37 14 -12 11 -28 36 -78 57 -110z m-1756 52 c29
-37 50 -70 48 -73 -3 -2 -15 1 -28 6 -13 6 -44 15 -68 21 l-43 11 6 52 c12 85
8 86 85 -17z m91 -67 c15 -28 5 -23 -15 7 -9 15 -12 23 -6 20 6 -4 16 -16 21
-27z m1505 -25 c-71 -58 -388 -125 -577 -123 -81 0 -54 12 67 29 158 21 331
59 432 93 54 19 100 32 103 30 3 -3 -8 -16 -25 -29z m-1578 -40 c48 -14 125
-35 172 -45 82 -18 83 -18 26 -13 -71 6 -292 66 -308 84 -9 10 -8 12 5 7 10
-4 57 -18 105 -33z m592 -126 c0 -40 -3 -91 -8 -113 l-7 -40 -7 49 c-4 27 -7
77 -7 112 0 50 3 64 15 64 12 0 15 -14 14 -72z m189 65 l82 -6 0 -103 0 -104
-131 0 c-131 0 -131 0 -125 23 3 12 6 61 6 110 l0 87 43 0 c23 0 79 -3 125 -7z
m-491 -9 c-3 -3 -12 -4 -19 -1 -8 3 -5 6 6 6 11 1 17 -2 13 -5z m-628 -62
c-27 -43 -68 -57 -171 -57 -103 0 -119 6 -133 53 -8 29 7 29 20 0 30 -69 205
-62 269 11 23 25 32 21 15 -7z m2161 -199 c-12 -59 -24 -110 -26 -113 -12 -11
22 256 35 275 15 25 10 -65 -9 -162z m-166 72 c9 -35 16 -66 16 -68 0 -11 -80
-15 -114 -6 -36 10 -117 72 -106 82 8 8 154 56 171 56 12 1 21 -17 33 -64z
m-1702 15 c67 -16 130 -30 140 -30 24 0 48 -28 48 -56 0 -14 7 -27 15 -30 10
-4 15 -20 15 -52 0 -65 13 -43 27 46 l12 77 -4 -85 c-4 -76 -3 -83 10 -66 8
11 17 36 20 55 15 89 10 84 68 77 60 -8 354 -36 380 -36 15 0 17 -13 16 -137
0 -147 -10 -278 -22 -289 -14 -14 -280 27 -337 52 l-55 24 40 -35 c33 -30 35
-33 10 -19 -16 10 -39 25 -50 34 -11 10 -27 20 -35 24 -31 15 113 -116 166
-151 63 -42 63 -44 14 -151 -33 -71 -115 -159 -177 -191 -178 -90 -345 -94
-603 -13 -52 17 -112 33 -133 37 -41 7 -107 41 -107 56 0 14 35 135 61 214
l24 70 50 5 c28 3 67 12 88 20 37 14 40 13 123 -28 99 -49 123 -50 37 -1 -32
18 -70 41 -85 51 l-27 18 24 43 c14 23 32 74 40 113 l16 71 84 10 c108 13 153
36 183 93 21 43 31 120 14 120 -4 0 -14 -17 -21 -37 -26 -73 -94 -113 -193
-113 -55 0 -54 -3 -38 115 14 99 20 125 30 125 5 0 64 -13 132 -30z m1378 -42
c1 -20 42 -65 47 -51 2 7 11 9 19 6 10 -4 14 2 14 21 0 25 2 24 48 -23 49 -51
95 -71 164 -71 36 0 36 0 40 -47 4 -43 19 -138 65 -410 8 -51 18 -93 20 -93 3
0 3 33 0 73 l-6 72 24 -95 c13 -52 26 -116 30 -141 l6 -46 -72 -66 c-73 -67
-161 -119 -256 -153 -29 -10 -53 -21 -53 -25 0 -20 210 60 307 117 68 40 73
41 78 23 11 -34 -3 -63 -48 -96 -96 -72 -261 -136 -388 -151 -132 -16 -335 15
-373 57 -16 17 -60 121 -54 126 2 1 48 -3 102 -8 121 -13 267 1 406 38 84 23
220 77 220 88 0 2 -24 -4 -54 -14 -113 -38 -230 -52 -406 -46 -91 3 -172 8
-181 12 -11 4 -27 45 -48 123 -45 163 -65 221 -69 197 -1 -11 16 -85 38 -164
22 -79 39 -146 37 -148 -3 -2 -16 -1 -29 2 -23 6 -27 18 -57 148 -18 78 -35
152 -38 163 -4 19 4 24 63 44 92 29 194 76 194 89 0 15 -32 13 -134 -8 l-88
-19 6 52 c3 28 9 126 13 219 l6 167 38 0 c44 0 331 39 338 46 9 9 31 3 31 -8z
m-1173 -30 c-3 -7 -5 -2 -5 12 0 14 2 19 5 13 2 -7 2 -19 0 -25z m728 -132 c8
-126 0 -244 -21 -293 -13 -32 -14 -33 -75 -33 l-62 0 7 38 c3 20 6 117 6 214
l0 177 48 4 c26 2 57 4 69 5 20 2 21 -3 28 -112z m-405 -382 c0 -2 -13 2 -30
11 -16 9 -30 18 -30 21 0 2 14 -2 30 -11 17 -9 30 -18 30 -21z m335 -135 c12
-46 34 -121 49 -166 15 -45 25 -86 22 -91 -7 -12 21 -117 46 -170 14 -28 32
-49 53 -59 28 -13 34 -24 45 -72 13 -57 66 -217 94 -283 9 -21 16 -42 16 -48
0 -7 -148 -10 -452 -10 l-453 1 -17 24 c-16 22 -17 30 -3 121 8 53 17 131 21
173 7 70 10 79 43 111 34 33 101 175 101 214 0 8 14 36 32 63 42 61 118 209
118 229 0 8 5 22 11 32 10 15 27 17 132 17 l121 -1 21 -85z m-1140 -253 c229
-69 381 -82 494 -41 24 8 46 13 48 11 6 -6 -92 -42 -163 -60 -90 -23 -217 -36
-302 -31 l-77 4 55 -14 c34 -10 101 -15 175 -16 137 0 234 20 334 70 33 17 63
31 66 31 10 0 -46 -115 -63 -128 -29 -22 -143 -52 -234 -61 -173 -17 -322 12
-467 93 -106 59 -131 85 -131 135 0 46 1 47 34 26 37 -25 184 -75 200 -69 8 3
41 -2 73 -11 97 -27 100 -28 83 -16 -8 6 -51 23 -95 37 -83 28 -175 70 -175
80 0 3 8 3 18 -1 9 -3 67 -21 127 -39z m1320 4 c18 -8 18 -9 -5 -9 -14 0 -32
4 -40 9 -12 8 -12 10 5 9 11 0 29 -4 40 -9z m114 -16 c10 -9 -55 -3 -69 6 -10
6 -2 7 25 3 22 -3 42 -7 44 -9z m659 -181 c-3 -25 -11 -31 -68 -50 -75 -24
-180 -40 -180 -26 0 5 21 15 48 21 26 7 76 28 112 47 81 42 92 43 88 8z
m-1599 -83 c-22 -13 -160 -50 -184 -49 -11 0 20 12 69 25 50 13 92 27 95 29 2
3 11 5 20 5 14 -1 14 -1 0 -10z m1081 -49 c39 -9 33 -10 -47 -6 -51 2 -93 1
-93 -3 0 -4 5 -23 11 -42 23 -80 68 -254 65 -257 -3 -4 -126 340 -126 354 0 5
33 -1 73 -13 39 -13 92 -27 117 -33z m-1820 -213 c-9 -30 -10 -29 -5 16 3 27
6 72 7 100 2 45 2 43 5 -16 2 -37 -1 -82 -7 -100z m0 -113 c6 -30 18 -59 27
-63 10 -6 40 4 94 30 103 51 199 71 271 58 29 -5 98 -32 153 -60 112 -56 157
-63 194 -29 25 23 45 14 39 -17 -10 -56 -118 -55 -253 3 -78 32 -100 38 -165
37 -66 0 -87 -5 -174 -42 -101 -43 -133 -49 -167 -32 -38 21 -62 105 -43 154
9 24 12 20 24 -39z m2575 -30 c66 -17 138 -61 143 -88 5 -26 -20 -21 -91 18
-120 66 -243 65 -418 -4 -58 -22 -109 -41 -115 -41 -20 0 204 103 251 116 69
17 160 17 230 -1z m-2350 -260 c55 -13 91 -24 81 -24 -25 -1 -236 49 -236 56
0 3 12 2 28 -2 15 -4 72 -17 127 -30z m1708 -35 c159 -44 449 -51 662 -16 94
16 119 15 63 -2 -98 -31 -161 -37 -378 -36 -216 0 -229 1 -314 27 -48 15 -100
34 -115 43 -16 9 -18 13 -6 9 11 -3 51 -15 88 -25z m-1566 4 c-3 -3 -12 -4
-19 -1 -8 3 -5 6 6 6 11 1 17 -2 13 -5z m-227 -31 c68 -14 136 -18 338 -18
166 0 239 -3 210 -8 -23 -5 -124 -9 -223 -9 -183 0 -321 15 -415 47 -48 16
-43 15 90 -12z"/>
<path d="M4325 9541 c-256 -46 -449 -128 -666 -284 -86 -61 -169 -133 -185
-159 -4 -7 14 7 41 31 28 24 100 76 160 116 244 161 396 223 735 299 91 20 35
18 -85 -3z"/>
<path d="M4275 9480 c-60 -15 -157 -45 -214 -65 -107 -37 -275 -114 -267 -122
2 -2 21 4 43 15 57 30 354 135 468 167 55 15 102 29 104 31 10 9 -31 1 -134
-26z"/>
<path d="M6182 9392 c112 -66 330 -258 432 -382 65 -79 31 -5 -40 86 -101 131
-207 220 -341 289 -81 41 -118 47 -51 7z"/>
<path d="M3077 8702 c-45 -46 -67 -83 -28 -48 12 11 20 13 23 6 5 -15 38 -1
38 16 0 8 -4 14 -10 14 -5 0 -10 -5 -10 -12 0 -6 -3 -8 -7 -5 -3 4 6 21 22 37
16 16 26 32 24 35 -3 2 -26 -17 -52 -43z"/>
<path d="M2500 7246 c0 -9 5 -16 10 -16 6 0 10 4 10 9 0 6 -4 13 -10 16 -5 3
-10 -1 -10 -9z"/>
<path d="M5056 9439 c-12 -39 -15 -69 -7 -69 4 0 11 17 14 37 6 37 1 58 -7 32z"/>
<path d="M5210 9419 c0 -6 6 -9 14 -6 9 4 28 -9 49 -32 l34 -38 11 31 c7 16 9
32 6 35 -2 3 -7 -5 -11 -17 -7 -29 -14 -28 -48 8 -29 30 -55 39 -55 19z"/>
<path d="M4770 9400 c20 -13 33 -13 25 0 -3 6 -14 10 -23 10 -15 0 -15 -2 -2
-10z"/>
<path d="M4870 9405 c0 -5 9 -21 20 -35 11 -14 20 -20 20 -15 0 6 -9 21 -20
35 -11 14 -20 21 -20 15z"/>
<path d="M4969 9386 c-7 -14 -18 -26 -25 -26 -11 0 -29 -29 -22 -36 2 -1 12 5
24 15 24 19 48 60 40 68 -3 3 -11 -6 -17 -21z"/>
<path d="M4730 9346 c0 -30 5 -58 10 -61 6 -4 10 10 10 36 0 41 0 42 19 25 11
-10 21 -30 23 -44 2 -14 8 -27 15 -29 20 -7 -2 54 -34 92 -15 18 -31 34 -35
34 -5 1 -8 -23 -8 -53z"/>
<path d="M4701 9359 c-1 -26 -2 -26 -38 -14 -39 14 -63 10 -63 -9 0 -19 36
-66 75 -98 56 -47 65 -22 36 107 -7 31 -9 34 -10 14z m-31 -34 c17 -9 30 -22
30 -29 0 -8 3 -21 6 -30 10 -27 -22 -18 -55 15 -50 50 -39 74 19 44z"/>
<path d="M4836 9356 c-11 -17 -12 -27 -5 -32 13 -8 29 13 29 39 0 23 -5 22
-24 -7z"/>
<path d="M4880 9345 c0 -18 19 -40 26 -32 4 4 0 15 -9 24 -9 10 -17 13 -17 8z"/>
<path d="M4550 9248 c0 -9 5 -20 10 -23 13 -8 13 5 0 25 -8 13 -10 13 -10 -2z"/>
<path d="M4480 9235 c0 -16 42 -85 51 -85 6 0 1 12 -10 26 -46 58 -8 60 53 4
24 -22 47 -40 51 -40 4 0 -3 9 -16 19 -28 23 -21 34 22 33 22 0 28 2 21 11 -6
7 -30 12 -54 11 -23 -1 -55 5 -70 12 -28 15 -48 18 -48 9z"/>
<path d="M4480 9120 c0 -5 5 -10 11 -10 5 0 7 5 4 10 -3 6 -8 10 -11 10 -2 0
-4 -4 -4 -10z"/>
<path d="M4496 8685 c4 -9 11 -14 16 -13 15 5 11 23 -6 26 -11 2 -14 -2 -10
-13z"/>
<path d="M4510 8640 c0 -5 12 -10 28 -10 21 0 24 2 12 10 -20 13 -40 13 -40 0z"/>
<path d="M4574 8585 c-9 -65 -2 -75 51 -75 34 0 48 -5 57 -20 7 -11 18 -20 25
-20 16 0 17 -24 1 -50 -17 -26 -7 -33 57 -40 53 -6 55 -5 55 18 0 19 -4 23
-17 17 -25 -11 -83 -18 -83 -11 0 4 7 22 14 41 14 32 14 35 -3 35 -10 0 -30 9
-44 20 -14 12 -40 20 -61 20 -39 0 -42 6 -37 78 4 48 -7 39 -15 -13z"/>
<path d="M4755 8449 c-9 -14 -2 -20 14 -10 8 6 9 11 3 15 -6 3 -14 1 -17 -5z"/>
<path d="M4828 8343 c7 -3 16 -2 19 1 4 3 -2 6 -13 5 -11 0 -14 -3 -6 -6z"/>
<path d="M5436 8758 c-23 -33 -9 -36 22 -5 21 21 23 27 10 27 -9 0 -24 -10
-32 -22z"/>
<path d="M5405 8700 c-3 -6 5 -10 18 -10 14 0 28 -7 31 -16 3 -8 11 -12 17 -9
7 5 4 13 -7 26 -18 21 -49 25 -59 9z"/>
<path d="M5310 8520 c0 -5 5 -10 11 -10 5 0 7 5 4 10 -3 6 -8 10 -11 10 -2 0
-4 -4 -4 -10z"/>
<path d="M4880 8490 c0 -5 14 -10 31 -10 17 0 28 4 24 10 -3 6 -17 10 -31 10
-13 0 -24 -4 -24 -10z"/>
<path d="M4957 8463 c6 -15 13 -16 31 -4 10 6 7 10 -11 13 -18 4 -24 1 -20 -9z"/>
<path d="M5035 8450 c3 -5 8 -10 11 -10 2 0 4 5 4 10 0 6 -5 10 -11 10 -5 0
-7 -4 -4 -10z"/>
<path d="M5280 8779 c0 -5 5 -7 10 -4 6 3 10 8 10 11 0 2 -4 4 -10 4 -5 0 -10
-5 -10 -11z"/>
<path d="M5342 8755 c0 -16 2 -22 5 -12 2 9 2 23 0 30 -3 6 -5 -1 -5 -18z"/>
<path d="M4954 8732 c-20 -16 -44 -53 -44 -67 0 -4 9 3 19 16 l20 24 10 -25
c10 -25 10 -25 10 -2 1 31 19 19 19 -13 0 -14 -6 -25 -13 -25 -7 0 -18 -7 -25
-15 -10 -12 -8 -17 14 -26 36 -17 55 2 54 52 0 35 -2 38 -14 22 -12 -17 -13
-16 -8 4 4 12 12 24 20 27 11 4 14 -4 14 -34 0 -22 5 -40 10 -40 11 0 12 5 14
71 l2 47 -25 -19 c-13 -11 -27 -17 -30 -14 -3 4 0 10 8 14 10 6 9 10 -4 15
-23 9 -27 8 -51 -12z m36 -12 c0 -5 -7 -10 -15 -10 -8 0 -15 5 -15 10 0 6 7
10 15 10 8 0 15 -4 15 -10z m-15 -100 c3 -5 1 -10 -4 -10 -6 0 -11 5 -11 10 0
6 2 10 4 10 3 0 8 -4 11 -10z"/>
<path d="M3050 7670 c-8 -5 -10 -10 -5 -10 6 0 17 5 25 10 8 5 11 10 5 10 -5
0 -17 -5 -25 -10z"/>
<path d="M3010 7655 c7 -8 17 -15 22 -15 6 0 5 7 -2 15 -7 8 -17 15 -22 15 -6
0 -5 -7 2 -15z"/>
<path d="M2990 7629 c0 -5 5 -7 10 -4 6 3 10 8 10 11 0 2 -4 4 -10 4 -5 0 -10
-5 -10 -11z"/>
<path d="M2800 7480 c0 -5 5 -10 11 -10 5 0 7 5 4 10 -3 6 -8 10 -11 10 -2 0
-4 -4 -4 -10z"/>
<path d="M4292 7050 c-102 -27 -218 -90 -354 -193 -122 -91 -155 -124 -138
-141 6 -6 39 10 89 43 214 141 459 177 699 103 69 -21 79 -12 58 58 -19 63
-47 110 -78 129 -38 24 -189 25 -276 1z"/>
<path d="M4160 6741 c-305 -91 -426 -399 -286 -732 13 -30 14 -24 13 82 -1
128 12 196 54 285 50 106 133 185 230 219 l43 16 -60 -55 c-109 -98 -154 -218
-154 -410 0 -189 50 -329 162 -451 59 -64 61 -68 33 -61 -59 14 -131 54 -182
100 -60 54 -66 50 -23 -17 64 -101 184 -152 360 -151 83 0 116 5 160 22 57 23
134 77 95 68 -11 -2 -35 -8 -54 -11 l-35 -7 38 43 c88 102 138 261 137 434 0
172 -45 318 -126 413 -59 68 -22 48 45 -25 92 -100 158 -252 161 -366 0 -32 0
-32 10 -7 13 30 4 158 -17 249 -33 147 -132 274 -262 338 -67 33 -81 37 -175
40 -79 2 -117 -2 -167 -16z m85 -297 c73 -34 87 -142 25 -196 -24 -22 -40 -28
-78 -28 -54 0 -85 18 -107 60 -21 41 -19 82 8 121 39 58 90 73 152 43z"/>
<path d="M6139 6739 c-174 -24 -332 -186 -374 -384 -16 -75 -13 -316 6 -425
15 -87 57 -184 100 -234 23 -25 35 -46 28 -46 -23 0 22 -38 70 -59 167 -72
355 -39 470 81 47 49 47 61 -1 24 -46 -35 -134 -74 -186 -82 l-43 -7 59 59
c102 102 153 245 153 424 0 121 -22 223 -72 327 -31 65 -52 94 -106 143 l-68
62 52 -4 c74 -7 172 -57 217 -113 75 -91 125 -239 139 -410 l3 -40 18 40 c51
111 38 293 -29 426 -77 151 -258 241 -436 218z m-58 -324 c84 -44 91 -172 13
-229 -117 -85 -263 64 -181 185 39 58 106 76 168 44z"/>
<path d="M2740 6225 c-41 -13 -137 -82 -127 -91 2 -3 25 7 51 22 98 55 247 36
332 -42 23 -21 31 -32 19 -28 -11 4 -48 10 -81 12 -95 6 -172 -43 -209 -132
-22 -53 -14 -54 23 -1 44 63 84 85 155 85 103 0 179 -60 243 -193 l34 -71 0
57 c0 60 -27 155 -59 208 -82 135 -256 214 -381 174z"/>
<path d="M5374 5863 c-3 -16 -7 -33 -9 -39 -7 -24 17 -98 46 -140 29 -42 29
-44 14 -80 -8 -20 -15 -40 -15 -45 0 -18 39 -8 69 17 25 20 31 34 31 64 0 33
-6 43 -40 70 -51 41 -70 77 -70 135 0 50 -16 61 -26 18z"/>
<path d="M4877 5475 c-21 -21 -29 -92 -17 -155 32 -167 164 -273 340 -273 147
0 263 76 338 220 51 99 64 146 48 168 -10 15 -20 15 -71 6 -134 -25 -399 -9
-555 34 -68 18 -65 18 -83 0z m168 -76 l80 -17 -90 -2 -90 -3 87 -8 c145 -14
271 -44 339 -81 90 -48 94 -60 39 -110 -63 -58 -121 -81 -200 -81 -166 -1
-294 107 -300 253 -3 80 -3 81 28 73 15 -3 63 -14 107 -24z"/>
<path d="M7025 6097 c-37 -21 -105 -105 -105 -130 0 -6 17 9 37 33 50 58 118
100 162 100 27 0 32 3 21 10 -25 16 -73 11 -115 -13z"/>
<path d="M4755 4583 c-3 -21 -13 -49 -22 -61 -18 -30 -14 -34 25 -26 32 7 45
24 17 24 -11 0 -13 10 -8 50 7 58 -2 67 -12 13z"/>
<path d="M4980 4382 c0 -9 5 -24 11 -32 9 -13 10 -12 5 2 -7 23 10 33 22 12 8
-14 10 -14 15 -1 4 11 -3 19 -24 26 -25 8 -29 7 -29 -7z"/>
<path d="M5050 4349 c0 -14 5 -19 14 -16 7 3 24 -2 37 -11 23 -16 24 -15 9 3
-34 47 -60 57 -60 24z"/>
<path d="M5489 4633 c12 -18 26 -35 32 -38 5 -4 7 -11 4 -16 -4 -5 1 -9 10 -9
21 0 7 25 -36 65 l-32 30 22 -32z"/>
<path d="M5450 4470 c0 -5 5 -10 10 -10 6 0 10 -7 10 -15 0 -17 16 -20 25 -4
4 6 -1 17 -11 24 -23 17 -34 19 -34 5z"/>
<path d="M5405 4450 c3 -5 13 -10 21 -10 8 0 12 5 9 10 -3 6 -13 10 -21 10 -8
0 -12 -4 -9 -10z"/>
<path d="M5391 3235 c0 -44 4 -87 9 -95 12 -19 12 126 0 155 -6 13 -9 -6 -9
-60z"/>
<path d="M5802 4060 c-10 -16 -10 -20 1 -20 8 0 19 -15 25 -32 9 -27 11 -29 9
-8 -1 14 2 31 6 38 5 7 2 18 -7 27 -19 19 -19 19 -34 -5z"/>
<path d="M4820 3914 c-141 -63 -194 -64 -368 -8 -40 13 -76 24 -80 24 -22 -1
109 -71 168 -90 55 -18 81 -21 125 -15 63 7 179 62 215 100 13 14 22 25 19 24
-2 -1 -38 -16 -79 -35z"/>
</g>
</svg>
