<?xml version="1.0" standalone="no"?>
<!DOCTYPE svg PUBLIC "-//W3C//DTD SVG 20010904//EN"
 "http://www.w3.org/TR/2001/REC-SVG-20010904/DTD/svg10.dtd">
<svg version="1.0" xmlns="http://www.w3.org/2000/svg"
 width="1024.000000pt" height="1024.000000pt" viewBox="0 0 1024.000000 1024.000000"
 preserveAspectRatio="xMidYMid meet">
<metadata>
Created by potrace 1.16, written by Peter Selinger 2001-2019
</metadata>
<g transform="translate(0.000000,1024.000000) scale(0.100000,-0.100000)"
fill="#000000" stroke="none">
<path d="M4825 9779 c-247 -43 -413 -98 -650 -215 -450 -221 -875 -578 -1255
-1054 -256 -319 -405 -616 -455 -906 -27 -155 -23 -353 9 -478 45 -174 111
-290 243 -427 46 -48 121 -113 166 -145 75 -53 82 -62 76 -84 -14 -49 -9 -205
7 -261 59 -199 204 -342 363 -356 56 -5 62 -8 87 -44 36 -53 121 -131 185
-172 30 -18 191 -102 359 -185 298 -148 467 -215 633 -253 60 -14 70 -23 37
-34 -11 -3 -42 -24 -69 -45 l-49 -39 -133 35 c-196 50 -303 46 -367 -14 -33
-31 -31 -25 -102 -307 -83 -330 -85 -340 -71 -386 18 -60 84 -125 149 -148
l54 -18 29 -87 c34 -102 63 -151 118 -198 l41 -35 -111 -52 c-61 -29 -113 -59
-115 -66 -5 -13 114 -227 162 -292 20 -26 22 -36 14 -58 -5 -14 -10 -39 -10
-54 0 -16 -14 -73 -31 -127 -59 -193 -155 -625 -143 -646 2 -3 -6 -8 -18 -10
-27 -4 -42 -61 -33 -123 3 -22 -4 -101 -15 -175 -11 -74 -23 -199 -27 -277 -6
-137 -7 -142 -31 -154 -36 -20 -110 -106 -138 -161 -28 -55 -54 -156 -54 -210
0 -48 38 -93 128 -149 37 -23 69 -43 71 -45 7 -6 -80 -170 -109 -206 -16 -19
-60 -53 -97 -75 -55 -33 -81 -42 -138 -47 -38 -4 -83 -10 -100 -14 -27 -6 -25
-7 20 -12 29 -3 -60 -11 -210 -18 -582 -29 -1026 -65 -1335 -108 -170 -24
-223 -34 -174 -34 10 0 100 12 199 25 188 27 519 44 477 26 -48 -22 -207 -43
-271 -37 -34 4 -90 4 -122 0 -49 -5 -57 -9 -48 -20 9 -11 7 -14 -7 -14 -11 0
-28 -7 -38 -15 -15 -11 -51 -15 -145 -16 -69 0 -146 -4 -171 -9 -31 -6 7 -8
123 -6 167 2 167 2 167 -20 0 -34 51 -81 96 -89 21 -4 52 -11 68 -16 16 -5 50
-9 75 -9 32 0 41 -3 32 -9 -8 -5 -69 -10 -135 -10 -65 -1 -122 -3 -125 -6 -3
-3 184 -4 414 -2 231 2 353 1 270 -2 l-150 -7 150 -2 c83 -1 193 -7 245 -12
52 -6 163 -17 245 -26 83 -8 173 -19 200 -24 l50 -8 -55 4 c-139 10 -576 22
-775 22 l-220 0 95 -14 c130 -18 424 -42 605 -50 84 -3 168 -12 190 -20 64
-21 174 -33 425 -45 129 -5 273 -14 320 -19 249 -26 757 -39 1464 -37 402 1
646 4 541 7 -110 3 -150 7 -96 8 52 1 92 5 88 8 -3 3 -374 10 -824 15 -450 4
-908 13 -1018 19 -110 6 -321 14 -468 19 -148 5 -271 12 -274 15 -4 3 131 5
298 4 167 0 282 -4 254 -7 -109 -14 789 -26 1860 -26 754 1 1143 4 1170 11 38
10 36 11 -57 18 -90 7 -300 2 -408 -10 -33 -3 -41 -2 -28 6 9 5 72 13 140 15
130 6 322 35 295 44 -9 3 178 6 416 7 l432 0 -325 -10 c-224 -8 -332 -15 -347
-23 -12 -7 -41 -14 -65 -14 -24 -1 9 -5 72 -10 63 -4 133 -12 155 -17 l40 -10
-56 -1 c-31 -1 -119 -8 -195 -16 -77 -8 -164 -16 -194 -18 -54 -3 -54 -3 12
-5 60 -2 767 47 963 66 53 5 -7 7 -180 6 -267 -3 -274 7 -15 21 104 6 137 11
195 35 39 16 108 34 155 40 47 6 114 14 150 19 l65 9 -50 2 c-46 3 -44 4 25
10 41 4 145 8 230 9 109 1 160 5 168 13 7 7 47 23 90 35 69 21 62 24 -14 8
l-29 -6 25 20 c45 37 70 65 70 78 0 14 2 14 96 -7 63 -14 115 -45 108 -63 -8
-23 -76 -55 -170 -82 -49 -14 -71 -22 -49 -19 76 11 191 53 215 79 19 21 21
27 10 40 -25 30 -69 45 -277 95 -281 66 -298 68 -608 80 -148 6 -274 15 -279
20 -6 6 -51 10 -101 11 -82 1 -86 2 -45 10 28 6 127 5 259 -1 117 -6 215 -9
217 -7 3 2 -69 11 -158 20 -291 29 -604 49 -1083 68 l-300 12 -45 32 c-25 18
-65 41 -90 52 -39 17 -50 30 -83 92 -22 39 -36 78 -33 86 3 8 27 25 54 39 28
14 66 41 86 59 34 33 36 38 36 99 0 123 -53 256 -126 316 l-35 29 10 79 c14
108 15 466 2 534 -6 30 -23 138 -37 240 -14 102 -36 234 -50 294 -34 152 -32
207 7 255 42 53 70 149 71 243 0 60 -7 97 -32 172 -24 74 -29 99 -21 115 17
31 13 76 -10 105 -17 22 -28 26 -69 26 -44 0 -51 3 -64 28 -8 16 -22 34 -30
41 -29 24 -17 30 47 24 131 -12 375 34 424 79 34 32 58 113 57 193 -2 119 -56
248 -155 366 -29 35 -39 54 -34 68 10 32 -19 74 -108 160 -121 117 -220 197
-290 234 -60 31 -66 32 -187 32 -114 1 -130 3 -180 27 -53 25 -54 26 -23 27
50 1 235 38 378 76 243 63 400 129 542 227 77 54 197 173 208 207 5 16 15 21
44 21 58 0 151 28 204 62 71 46 132 121 188 233 86 174 108 334 67 493 -2 7
27 25 64 41 127 54 311 206 391 323 42 61 85 158 102 231 17 73 19 228 4 313
-43 243 -234 632 -522 1064 -313 471 -601 768 -964 999 -277 175 -592 299
-892 350 -164 28 -408 28 -566 0z m534 -35 c125 -18 223 -42 352 -85 379 -128
699 -326 1000 -620 l97 -94 22 -105 c12 -58 62 -297 110 -531 89 -424 109
-539 96 -539 -4 0 -33 20 -65 44 -373 287 -911 498 -1431 562 -69 8 -224 18
-345 21 -497 13 -972 -82 -1492 -299 -88 -36 -340 -170 -421 -223 -33 -22 -49
-29 -42 -18 6 10 19 32 28 48 10 17 37 40 61 52 56 29 66 39 19 20 -21 -9 -38
-14 -38 -12 0 2 17 13 38 26 20 12 48 32 61 43 13 12 21 15 16 7 -5 -9 -4 -12
4 -10 7 3 11 8 9 12 -3 7 76 63 127 89 83 42 174 93 171 95 -6 6 -182 -82
-258 -129 -43 -26 -82 -48 -87 -48 -4 0 -20 -9 -35 -21 -34 -27 -33 -17 2 17
21 20 22 24 6 15 -12 -5 -35 -26 -53 -46 -36 -41 -40 -32 -11 20 11 20 15 33
9 29 -8 -4 -9 0 -4 15 3 11 8 33 11 47 3 14 28 128 55 253 47 210 100 481 98
505 -1 21 -21 -40 -54 -169 -31 -116 -58 -237 -126 -555 -11 -52 -27 -102 -35
-111 -17 -19 -19 -33 -2 -23 6 4 8 3 5 -3 -3 -5 -9 -25 -12 -44 -3 -19 -16
-52 -29 -74 -29 -53 -127 -177 -134 -171 -3 3 16 32 41 65 26 33 47 62 47 66
0 12 -70 -76 -95 -119 -14 -23 -39 -52 -57 -66 l-33 -23 21 24 c11 13 59 83
106 154 47 72 95 139 107 149 23 21 30 46 7 27 -19 -16 -150 -190 -170 -226
-28 -52 -104 -155 -141 -192 l-36 -36 17 36 c10 20 20 34 24 32 12 -7 106 133
146 216 12 25 34 61 51 80 16 19 42 52 58 74 16 22 40 55 53 73 13 17 22 32
19 32 -5 0 -133 -165 -159 -204 -4 -6 -10 -8 -13 -4 -4 3 4 23 17 45 36 56 42
72 16 39 -82 -104 -133 -177 -149 -215 -30 -67 -33 -42 -5 40 13 41 23 75 21
77 -5 5 -37 -82 -56 -153 -10 -39 -29 -95 -43 -125 -27 -60 -36 -62 -10 -2 26
60 33 91 23 97 -5 4 -9 -1 -9 -11 0 -9 -9 -35 -19 -58 -37 -79 -51 -114 -52
-128 0 -7 -4 -4 -9 8 -4 11 -7 76 -6 142 2 67 1 120 -1 119 -8 -9 -43 -227
-44 -276 0 -31 -7 -72 -14 -91 l-13 -35 -1 55 c-1 71 24 291 40 353 6 26 10
50 7 52 -14 14 -65 -314 -70 -448 0 -23 -6 8 -12 68 l-12 110 -6 -75 c-4 -41
-7 -113 -8 -160 0 -46 -5 -89 -10 -94 -7 -7 -11 49 -12 165 l-1 174 -8 -130
c-4 -71 -5 -166 -3 -210 3 -71 2 -74 -6 -32 -5 27 -12 52 -15 55 -10 9 4 -104
16 -135 5 -14 7 -28 5 -31 -3 -3 -8 1 -11 9 -11 33 -35 135 -35 154 0 11 -5
27 -10 35 -16 24 -1 -74 25 -165 26 -93 90 -232 150 -325 59 -93 60 -94 47
-86 -19 11 -118 158 -150 222 -17 33 -38 87 -47 120 -9 32 -23 79 -31 104
l-14 45 6 -40 c3 -22 8 -56 10 -75 3 -33 93 -225 150 -320 35 -58 20 -43 -45
44 -71 94 -128 212 -158 325 -33 124 -37 344 -9 486 55 282 200 566 447 875
502 631 1131 1075 1724 1219 215 52 478 66 684 35z m1640 -1029 c241 -319 400
-574 561 -900 152 -307 186 -429 178 -638 -4 -100 -10 -134 -31 -189 -32 -82
-83 -164 -144 -229 -55 -59 -224 -189 -246 -189 -26 0 -47 -11 -47 -25 0 -17
-28 -27 -47 -16 -14 7 -13 11 8 21 22 12 23 12 10 -3 -21 -27 -1 -20 25 8 13
14 32 25 42 25 11 0 25 7 32 15 7 8 18 15 24 15 6 0 38 25 71 55 33 30 63 55
68 55 4 0 7 5 7 10 0 6 -30 -13 -67 -43 -65 -51 -136 -97 -151 -97 -4 0 16 16
45 35 61 41 176 146 168 153 -3 3 -20 -8 -38 -24 -40 -38 -94 -77 -127 -93
-21 -10 -20 -8 5 11 61 46 167 154 199 202 39 60 58 106 26 64 -24 -31 -59
-70 -46 -51 23 35 -7 17 -70 -39 -58 -53 -63 -56 -30 -18 22 25 48 51 58 58
19 14 88 114 88 128 0 5 -12 -9 -28 -32 -27 -40 -212 -233 -196 -204 4 8 27
39 51 68 37 46 113 179 113 198 0 3 -27 -35 -60 -84 -81 -123 -95 -127 -20 -6
34 53 59 98 57 100 -2 3 -25 -15 -50 -39 -57 -53 -61 -47 -7 11 22 24 40 52
40 62 0 11 5 20 10 20 6 0 10 5 10 11 0 5 -3 8 -7 6 -5 -3 -8 15 -8 39 0 26 4
43 10 41 5 -2 9 -13 7 -23 -2 -14 0 -16 6 -6 11 16 -8 75 -49 153 -50 94 -163
223 -289 330 -66 57 -116 107 -112 111 33 33 -126 894 -198 1078 -11 28 -20
54 -20 58 1 12 96 -97 169 -193z m-1539 -376 c591 -56 1143 -280 1605 -650
194 -155 329 -300 389 -417 33 -65 9 -55 -37 15 -68 102 -288 311 -436 414
-350 243 -772 419 -1221 509 -190 38 -282 50 -524 66 l-201 13 185 -4 c209 -5
355 -22 567 -66 80 -16 147 -28 149 -26 6 6 -265 66 -375 83 -123 19 -483 29
-581 16 -338 -45 -506 -76 -619 -112 -36 -11 -74 -18 -85 -14 -14 3 -17 2 -8
-3 14 -10 -276 -97 -317 -96 -15 1 -19 -2 -12 -7 16 -9 -43 -32 -63 -24 -17 6
-300 -133 -426 -211 -52 -31 -132 -84 -177 -116 -44 -33 -84 -59 -88 -59 -4 0
-14 -8 -22 -17 -9 -12 -12 -12 -8 -3 4 8 -3 4 -16 -10 -13 -14 -44 -41 -69
-61 -124 -100 -310 -286 -310 -311 0 -5 35 27 77 72 42 45 118 116 167 157 50
41 69 54 41 28 -27 -26 -101 -97 -164 -159 -63 -61 -118 -110 -122 -109 -4 1
-20 -18 -36 -42 -15 -25 -32 -45 -37 -45 -14 0 3 82 29 136 30 62 159 215 247
293 90 80 260 210 346 265 97 62 336 186 444 230 368 152 810 258 1147 276
164 8 404 4 561 -11z m-303 -85 c-3 -3 -84 -10 -179 -15 -95 -4 -195 -10 -223
-13 l-50 -6 40 11 c78 20 429 39 412 23z m-830 -130 c-3 -3 -12 -4 -19 -1 -8
3 -5 6 6 6 11 1 17 -2 13 -5z m-52 -14 c-11 -5 -27 -9 -35 -9 -9 0 -8 4 5 9
11 5 27 9 35 9 9 0 8 -4 -5 -9z m-149 -46 c-55 -18 -101 -32 -103 -30 -5 5
167 64 187 64 8 0 -30 -15 -84 -34z m1763 -48 c22 -14 38 -31 37 -39 0 -8 26
-36 59 -61 89 -69 217 -198 406 -407 92 -103 199 -214 236 -248 37 -33 64 -61
58 -61 -14 0 -301 283 -468 461 -75 81 -156 161 -179 179 -24 18 10 -19 74
-81 64 -63 158 -161 210 -218 133 -148 131 -147 258 -266 63 -60 116 -118 118
-129 2 -12 7 -79 10 -151 7 -116 9 -127 20 -100 7 17 16 39 21 50 11 26 5
-120 -16 -350 -12 -136 -14 -240 -9 -425 10 -384 -9 -471 -132 -597 -248 -256
-857 -430 -1437 -410 -356 13 -729 99 -989 229 -298 148 -515 397 -601 688
l-25 85 6 -80 c8 -102 -7 -143 -62 -171 -57 -28 -182 -26 -247 3 -101 46 -205
188 -237 322 -15 62 -8 225 11 283 33 100 152 196 229 184 73 -11 179 -173
266 -408 16 -43 31 -78 34 -78 9 0 39 369 44 530 3 80 9 156 15 170 10 23 11
23 5 -7 -9 -50 2 -40 22 20 9 28 19 46 22 39 2 -7 -1 -27 -7 -44 -8 -22 -8
-29 -1 -22 6 6 14 34 19 63 4 28 12 55 16 59 4 4 5 -3 2 -15 -3 -13 -1 -23 4
-23 5 0 11 11 15 25 3 14 14 25 23 26 12 0 12 2 -4 9 -19 8 -19 9 -1 9 10 1
29 12 42 27 13 14 24 20 24 14 0 -21 20 1 21 23 1 17 2 18 6 4 2 -9 8 -15 13
-12 5 3 7 12 3 20 -3 8 0 15 6 15 6 0 11 -7 11 -16 0 -27 20 -4 21 24 l1 27 7
-25 c6 -21 8 -22 14 -7 3 9 11 17 17 17 6 0 16 5 23 10 7 6 21 18 32 26 19 15
19 15 -5 10 -14 -3 -2 5 25 18 28 14 66 28 85 32 19 4 49 13 65 21 25 12 26
13 5 8 -61 -14 -85 -17 -80 -12 3 3 102 31 220 61 118 30 238 62 265 71 75 25
208 89 260 125 70 48 64 31 -10 -29 -87 -71 -91 -81 -15 -40 34 19 96 66 138
104 97 90 75 46 -27 -55 -84 -82 -201 -155 -272 -169 -44 -9 -44 -9 -9 -11
124 -6 311 -5 322 2 8 5 -3 6 -27 2 -22 -4 -37 -3 -33 1 4 4 38 10 75 12 38 3
80 5 95 6 14 1 25 5 23 8 -2 3 12 11 32 18 22 8 31 16 24 20 -7 4 1 8 17 8 28
0 162 56 162 68 0 3 -13 -1 -30 -10 -16 -8 -33 -15 -37 -15 -4 1 9 10 30 21
21 11 43 17 49 13 6 -4 8 -3 5 3 -4 6 10 21 30 33 30 17 34 18 22 4 -12 -16
-10 -16 19 2 19 10 39 25 45 33 8 9 2 8 -15 -3 -39 -25 -35 -12 4 15 17 13 28
18 24 11 -4 -7 -3 -12 2 -12 13 0 43 35 37 43 -3 4 -2 5 1 2 11 -7 44 15 44
29 0 7 10 21 22 32 14 12 18 14 13 4 -5 -9 -5 -12 1 -7 5 5 9 12 9 17 0 4 25
39 55 76 30 37 78 101 105 143 28 42 56 75 62 74 5 -1 21 9 33 22 13 14 25 25
27 25 2 0 21 -11 42 -24z m-1999 -36 c-8 -5 -19 -10 -25 -10 -5 0 -3 5 5 10 8
5 20 10 25 10 6 0 3 -5 -5 -10z m-120 -4 c0 -2 -51 -30 -112 -61 -62 -32 -133
-69 -158 -82 -38 -21 -41 -22 -20 -4 21 17 274 151 286 151 2 0 4 -2 4 -4z
m2325 -113 c97 -80 196 -183 177 -183 -5 0 -17 11 -26 24 -19 29 -192 180
-258 225 -27 17 -48 37 -48 43 0 15 41 -14 155 -109z m-2285 82 c-14 -8 -29
-14 -35 -14 -5 0 1 6 15 14 14 8 30 14 35 14 6 0 -1 -6 -15 -14z m-758 -97
c-12 -18 -35 -58 -53 -88 -53 -88 -79 -124 -79 -108 0 9 8 26 19 39 10 13 28
46 39 72 23 51 81 131 89 123 3 -3 -4 -20 -15 -38z m124 -46 c-18 -16 -18 -16
-6 6 6 13 14 21 18 18 3 -4 -2 -14 -12 -24z m1338 7 c-10 -12 -32 -30 -49 -41
-17 -12 -11 -4 15 20 49 45 64 54 34 21z m796 -42 l-54 -52 49 55 c28 31 52
54 55 53 2 -2 -20 -27 -50 -56z m-875 7 c-42 -33 -224 -130 -203 -109 7 8 211
123 218 124 3 0 -4 -7 -15 -15z m895 -57 c0 -2 -12 -14 -27 -28 l-28 -24 24
28 c23 25 31 32 31 24z m-2080 -51 c0 -2 -8 -10 -17 -17 -16 -13 -17 -12 -4 4
13 16 21 21 21 13z m3050 -6 c0 -5 -2 -10 -4 -10 -3 0 -8 5 -11 10 -3 6 -1 10
4 10 6 0 11 -4 11 -10z m-3090 -24 c0 -2 -25 -23 -56 -46 -32 -24 -54 -37 -50
-31 7 10 96 80 104 81 1 0 2 -2 2 -4z m-433 -63 c-3 -10 -5 -2 -5 17 0 19 2
27 5 18 2 -10 2 -26 0 -35z m66 -53 c-3 -12 -8 -19 -11 -16 -5 6 5 36 12 36 2
0 2 -9 -1 -20z m-66 -62 c-2 -13 -4 -3 -4 22 0 25 2 35 4 23 2 -13 2 -33 0
-45z m2413 -13 c-14 -8 -32 -14 -40 -14 -8 0 -1 6 15 14 40 18 57 18 25 0z
m-1296 -224 c-45 -27 -100 -55 -92 -46 12 13 102 64 113 64 6 1 -4 -8 -21 -18z
m-627 -13 c-3 -8 -6 -5 -6 6 -1 11 2 17 5 13 3 -3 4 -12 1 -19z m-10 -100 c-2
-18 -4 -6 -4 27 0 33 2 48 4 33 2 -15 2 -42 0 -60z m-374 -33 c5 -45 4 -51 -3
-25 -13 53 -21 129 -11 105 4 -11 11 -47 14 -80z m-84 -139 c7 -16 10 -31 8
-33 -9 -8 -39 83 -43 131 l-4 51 14 -60 c8 -33 19 -73 25 -89z m8 112 c-3 -7
-5 -2 -5 12 0 14 2 19 5 13 2 -7 2 -19 0 -25z m62 -98 c0 -25 -28 48 -34 88
-4 31 -2 28 14 -18 11 -30 20 -62 20 -70z m-144 18 c21 -73 11 -71 -13 2 -12
33 -17 58 -12 55 5 -3 16 -29 25 -57z m92 30 c-3 -8 -6 -5 -6 6 -1 11 2 17 5
13 3 -3 4 -12 1 -19z m807 -23 c-4 -8 -8 -15 -10 -15 -2 0 -4 7 -4 15 0 8 4
15 10 15 5 0 7 -7 4 -15z m-785 -40 c0 -5 -4 -3 -9 5 -5 8 -9 22 -9 30 0 16
17 -16 18 -35z m4478 -47 c-3 -7 -5 -2 -5 12 0 14 2 19 5 13 2 -7 2 -19 0 -25z
m-4348 -73 c0 -5 -8 6 -19 25 -11 19 -19 40 -19 45 0 6 8 -6 19 -25 11 -19 19
-39 19 -45z m4287 -50 c-25 -98 -49 -157 -73 -177 -10 -8 -6 7 11 39 14 29 35
87 46 130 27 98 30 107 35 102 2 -3 -6 -45 -19 -94z m-4472 48 c9 -18 14 -33
12 -33 -6 0 -36 55 -36 66 0 11 5 3 24 -33z m4373 5 c-3 -7 -5 -2 -5 12 0 14
2 19 5 13 2 -7 2 -19 0 -25z m73 -35 c-11 -17 -11 -17 -6 0 3 10 7 28 7 40 2
22 2 22 6 0 2 -12 -1 -30 -7 -40z m-4346 -3 l17 -35 -20 25 c-11 14 -21 31
-21 39 0 18 4 14 24 -29z m4576 36 c0 -2 -8 -10 -17 -17 -16 -13 -17 -12 -4 4
13 16 21 21 21 13z m-319 -52 c-5 -16 -10 -21 -10 -12 -1 18 10 51 15 45 2 -1
-1 -16 -5 -33z m74 -44 c-4 -17 -9 -30 -11 -27 -2 2 -1 18 2 36 4 17 9 30 11
27 3 -2 2 -19 -2 -36z m56 6 c-14 -36 -22 -33 -9 5 6 16 12 28 14 26 3 -2 0
-16 -5 -31z m-101 -37 c-18 -47 -56 -122 -48 -94 10 34 62 154 65 151 2 -2 -6
-28 -17 -57z m13 -54 c-3 -9 -8 -14 -10 -11 -3 3 -2 9 2 15 9 16 15 13 8 -4z
m-99 -56 c148 -129 137 -437 -25 -684 -68 -105 -140 -155 -255 -179 l-66 -14
7 37 c20 103 25 174 25 359 0 169 3 208 16 235 30 58 117 181 162 230 55 58
85 61 136 16z m126 -63 c0 -3 -4 -8 -10 -11 -5 -3 -10 -1 -10 4 0 6 5 11 10
11 6 0 10 -2 10 -4z m-3469 -903 c13 -16 12 -17 -3 -4 -10 7 -18 15 -18 17 0
8 8 3 21 -13z m968 -569 c17 -67 54 -144 85 -176 36 -38 42 -35 12 5 -47 62
-115 250 -82 230 6 -4 19 -6 30 -4 10 1 16 -2 12 -7 -3 -6 29 -15 75 -23 64
-10 85 -18 102 -38 45 -52 211 -211 220 -211 11 0 9 3 -89 115 -38 44 -77 92
-87 107 l-16 26 102 -5 c217 -11 271 -21 94 -18 -93 2 -166 0 -163 -3 8 -7 19
-7 194 -10 151 -2 153 -4 102 -77 -17 -24 -39 -63 -50 -87 -10 -24 -32 -58
-48 -77 l-29 -34 -18 30 c-22 38 -64 63 -105 63 -17 0 -64 -14 -103 -31 -171
-75 -218 -42 -296 208 -28 92 -28 92 -7 95 30 4 51 -21 65 -78z m-405 56 c15
-5 33 -33 56 -82 34 -75 82 -208 75 -208 -2 0 -16 5 -32 11 -55 23 -157 29
-175 11 -6 -6 1 -8 21 -6 17 2 31 0 31 -5 0 -5 8 -11 18 -13 9 -2 -32 -7 -93
-11 -162 -10 -209 -26 -60 -20 84 3 142 0 195 -10 113 -23 127 -30 139 -73 6
-21 9 -39 8 -41 -2 -1 -25 4 -52 13 -160 48 -386 16 -501 -72 -34 -26 -44 -30
-40 -17 2 10 30 117 61 238 30 121 64 231 74 245 30 41 94 61 179 55 40 -3 83
-10 96 -15z m1176 -46 c0 -3 -10 -9 -22 -15 -19 -8 -19 -9 -3 -5 11 2 27 7 36
10 19 8 22 -7 23 -129 0 -83 -22 -155 -49 -155 -7 0 -39 27 -71 60 -38 39 -66
60 -81 60 -13 0 -23 3 -23 8 1 13 47 60 76 76 20 10 24 15 12 16 -22 0 -23 10
-4 35 9 12 19 16 32 11 10 -4 15 -4 11 0 -9 9 19 29 44 31 10 1 19 0 19 -3z
m-830 -144 c42 -109 63 -138 117 -162 33 -15 55 -18 91 -12 59 8 175 43 182
55 3 4 25 -17 49 -47 24 -30 41 -57 38 -60 -2 -2 -43 2 -91 11 -173 30 -351
29 -432 -2 -16 -6 -17 1 -9 113 4 65 8 144 7 174 -1 61 -2 62 48 -70z m1345
84 c18 -8 77 -57 130 -107 l98 -92 -99 -1 c-77 0 -119 -6 -188 -27 -48 -15
-95 -32 -102 -38 -18 -15 -18 -13 7 82 11 44 18 85 16 92 -5 14 -9 7 -30 -68
l-15 -50 -1 40 c-1 22 -7 69 -15 103 -9 46 -10 65 -2 67 6 2 18 6 26 8 35 12
144 6 175 -9z m-1544 -28 c5 3 9 0 9 -6 0 -6 4 -9 9 -5 5 3 13 0 17 -6 4 -7 3
-9 -3 -6 -11 7 -28 -22 -18 -31 3 -3 5 0 5 6 0 7 5 12 11 12 6 0 8 -9 4 -21
-5 -15 -4 -19 4 -14 7 4 18 1 26 -5 12 -10 15 -9 15 9 0 11 5 21 11 21 8 0 10
-16 5 -52 -4 -29 -8 -61 -8 -70 1 -10 -5 -18 -13 -18 -9 0 -11 -8 -8 -22 12
-47 -6 -10 -36 74 -17 49 -28 94 -25 102 3 7 -2 16 -10 19 -9 4 -16 12 -15 19
0 10 2 10 6 0 2 -6 9 -10 14 -6z m1159 -123 c16 -49 32 -114 35 -144 5 -52 4
-55 -29 -82 l-35 -28 -138 26 c-198 38 -233 46 -233 53 0 4 22 20 48 35 26 16
56 41 68 57 l20 29 49 -34 c75 -54 112 -45 142 32 11 31 18 74 18 120 0 86 7
77 55 -64z m65 117 c3 -6 -1 -7 -9 -4 -9 3 -16 2 -16 -4 0 -12 31 -27 61 -31
5 0 7 -6 3 -13 -5 -8 -2 -9 12 -4 10 4 16 4 12 1 -3 -4 2 -15 13 -26 12 -12
19 -32 19 -56 l-1 -38 -14 33 c-8 17 -21 32 -30 32 -10 0 -15 -10 -16 -32 -1
-18 -5 -44 -10 -58 -8 -22 -8 -21 -4 8 3 18 1 31 -4 27 -5 -3 -12 14 -16 37
-4 23 -16 61 -26 84 -13 31 -15 44 -6 48 19 7 25 7 32 -4z m-1148 -26 c-3 -3
-12 -4 -19 -1 -8 3 -5 6 6 6 11 1 17 -2 13 -5z m-202 -104 c8 -13 -5 -13 -25
0 -13 8 -13 10 2 10 9 0 20 -4 23 -10z m1002 -6 c9 -24 -18 -65 -62 -92 -22
-14 -52 -33 -67 -44 -34 -23 -38 -23 -38 3 0 28 102 129 132 129 18 0 20 2 8
10 -13 8 -12 10 3 10 10 0 20 -7 24 -16z m-199 -40 c33 -16 36 -22 26 -48 -5
-13 -9 -14 -20 -5 -8 6 -14 17 -14 24 0 7 -7 15 -15 19 -8 3 -15 10 -15 16 0
13 1 13 38 -6z m1130 -28 c15 -8 36 -24 47 -36 l19 -21 -64 8 c-87 11 -181 9
-260 -6 -52 -9 -74 -9 -110 2 l-45 13 95 26 c112 31 272 38 318 14z m-1694
-102 c4 -15 2 -32 -3 -37 -6 -6 -11 -21 -11 -34 0 -13 -4 -23 -10 -23 -11 0
-14 103 -3 113 12 13 21 7 27 -19z m576 -18 c91 -19 230 -48 310 -65 207 -45
297 -49 461 -22 121 20 139 20 187 8 75 -20 67 6 -10 34 -43 15 -49 25 -15 24
12 0 22 4 22 9 0 17 60 26 134 20 72 -7 74 -8 125 -59 132 -136 192 -321 149
-460 -21 -67 -29 -73 -134 -102 -89 -25 -357 -25 -484 0 -193 38 -299 77 -590
217 -33 16 -123 70 -200 120 -174 113 -250 140 -412 147 -110 6 -112 6 -101
27 6 11 11 22 10 24 -8 11 1 53 13 66 18 17 20 30 3 20 -7 -4 -8 -3 -4 4 10
17 24 15 29 -5 4 -14 5 -13 6 4 1 28 37 32 211 27 95 -2 165 -11 290 -38z
m782 23 c40 -10 84 -48 71 -60 -21 -19 -363 -29 -363 -10 0 6 125 72 160 85
17 6 77 -1 132 -15z m-1472 -72 c30 -11 36 -18 49 -69 l14 -56 111 0 c131 1
208 -13 295 -54 109 -52 170 -122 207 -236 17 -52 17 -53 -5 -68 -12 -8 -19
-20 -16 -25 6 -9 5 -10 -31 -14 -12 -1 -34 -9 -50 -18 -89 -48 -321 -91 -499
-92 -98 0 -133 4 -194 23 -40 13 -76 21 -79 18 -13 -14 -82 40 -106 83 -30 56
-70 193 -91 311 l-14 85 29 27 c16 15 55 34 87 44 32 10 63 22 68 26 6 6 3 6
-7 3 -10 -4 -18 -3 -18 3 0 22 193 28 250 9z m-265 -16 c-6 -5 -21 -12 -35
-15 -24 -7 -24 -6 -6 8 21 17 57 23 41 7z m1135 -505 c0 -3 -23 -12 -51 -21
-74 -25 -53 -29 25 -5 60 19 68 20 88 5 13 -8 29 -15 38 -14 10 0 9 3 -5 9
-15 7 -16 9 -4 9 9 1 27 -7 40 -18 29 -22 88 -43 206 -72 82 -20 126 -39 92
-39 -8 -1 -3 -7 11 -15 20 -11 21 -14 7 -15 -10 0 -15 -4 -12 -10 3 -5 1 -18
-5 -29 -8 -16 -6 -23 12 -37 16 -11 18 -15 5 -10 -14 5 -16 2 -8 -13 14 -25
-7 -42 -86 -70 -65 -24 -89 -43 -95 -76 -5 -27 -65 -34 -238 -27 -74 2 -165 0
-201 -6 -52 -8 -83 -7 -145 5 -43 8 -116 18 -161 22 -45 4 -86 11 -90 15 -5 5
19 6 52 3 l60 -5 -57 15 c-46 12 -58 19 -58 35 0 18 4 20 33 14 82 -18 194
-36 212 -35 19 1 -12 8 -172 39 -52 10 -65 17 -75 38 -10 20 -28 31 -76 45
-35 11 -61 21 -59 23 4 4 71 -17 182 -57 57 -20 234 -60 258 -58 7 1 -51 16
-128 35 -146 36 -298 91 -289 106 3 4 1 8 -5 8 -5 0 -12 -6 -14 -12 -4 -8 -6
-7 -6 3 -1 10 10 19 24 23 14 4 24 10 21 14 -2 4 28 8 66 10 38 1 103 11 144
22 42 11 80 17 86 14 7 -5 8 -2 3 6 -6 10 -3 12 13 8 16 -5 22 -1 23 10 0 11
2 12 6 5 7 -18 23 -16 23 2 0 8 5 15 10 15 6 0 10 -4 10 -10 0 -5 20 0 45 12
24 12 41 26 38 31 -3 6 -1 7 5 3 6 -3 50 7 99 23 90 31 103 34 103 27z m240
-61 c19 -7 28 -14 20 -14 -8 0 -28 6 -45 14 -39 17 -21 18 25 0z m-480 -10
c-14 -8 -29 -14 -35 -14 -5 0 1 6 15 14 14 8 30 14 35 14 6 0 -1 -6 -15 -14z
m643 -32 c-7 -2 -19 -2 -25 0 -7 3 -2 5 12 5 14 0 19 -2 13 -5z m-1483 -88 c0
-2 -14 -12 -30 -20 -18 -9 -28 -21 -24 -27 4 -7 3 -8 -4 -4 -16 10 -26 -57
-13 -82 14 -26 13 -68 -3 -111 -11 -31 -13 -33 -21 -15 -4 10 -7 22 -7 27 1 4
-5 7 -14 7 -10 0 -14 5 -10 16 3 8 2 12 -4 9 -6 -3 -10 0 -10 9 0 8 -4 16 -9
18 -4 2 -17 21 -28 42 l-20 39 96 48 c109 54 101 51 101 44z m1926 -81 c5 -21
1 -31 -22 -49 -32 -26 -144 -89 -144 -81 0 3 -19 -1 -41 -9 -56 -20 -174 -19
-234 2 l-49 16 39 17 c117 49 370 128 417 129 22 1 29 -5 34 -25z m-1486 -134
c0 -16 -31 -63 -59 -89 -35 -31 -63 -41 -119 -41 -37 -1 -43 -3 -29 -11 9 -5
23 -7 30 -3 9 5 9 4 1 -5 -9 -10 -17 -10 -32 -2 -26 14 -79 14 -87 1 -11 -17
-22 -12 -74 36 -43 39 -51 52 -51 81 0 29 3 34 17 28 78 -29 165 -30 308 -1
90 18 95 18 95 6z m1484 -98 c-7 -19 -17 -27 -32 -26 -13 0 -22 -5 -22 -14 0
-9 -6 -12 -16 -8 -9 3 -22 6 -30 6 -9 0 -12 5 -9 10 3 6 2 10 -3 10 -6 0 -13
-7 -16 -16 -3 -9 -13 -14 -21 -10 -8 3 -17 1 -20 -4 -3 -5 -36 -7 -73 -3 -49
4 -77 12 -105 31 -21 14 -39 28 -41 31 -2 3 28 7 68 8 85 3 212 34 270 66 l41
23 9 -39 c6 -24 6 -49 0 -65z m-1284 -98 c0 -102 -2 -115 -16 -110 -9 3 -18 6
-20 6 -2 0 -5 12 -5 28 -1 20 -2 22 -6 7 -11 -46 -21 -32 -28 40 -4 49 -3 81
3 87 7 7 7 19 2 34 -9 23 -7 24 30 24 l40 0 0 -116z m631 106 c8 12 10 10 5
-10 -3 -14 -6 -54 -7 -90 0 -42 -3 -58 -8 -45 -7 18 -9 17 -19 -10 -9 -26 -11
-21 -11 45 -1 41 -6 82 -11 90 -11 18 21 34 33 16 5 -8 10 -6 18 4z m-466 -10
c3 -5 1 -10 -4 -10 -6 0 -11 5 -11 10 0 6 2 10 4 10 3 0 8 -4 11 -10z m360 -9
c7 -22 5 -193 -3 -223 -5 -22 -64 -41 -105 -35 -18 2 -42 0 -54 -6 -27 -12
-73 -1 -73 17 0 8 6 16 13 19 6 2 -3 4 -22 4 -30 0 -32 -2 -16 -14 10 -7 15
-16 12 -20 -4 -4 -15 1 -25 11 -13 13 -17 33 -16 89 1 46 -2 63 -7 47 -5 -17
-7 -2 -8 47 l-1 72 43 3 c23 2 90 4 149 6 100 3 107 2 113 -17z m426 -91 c6 0
23 -8 37 -19 28 -19 176 -71 202 -71 13 0 13 1 0 10 -12 8 -11 10 7 10 12 0
25 5 28 10 4 6 16 8 28 5 12 -2 16 -2 10 1 -19 8 -16 27 3 20 9 -3 12 -2 9 5
-4 6 0 18 8 27 8 9 17 24 21 32 3 8 4 -24 2 -71 -5 -97 -36 -182 -62 -172 -9
3 -12 0 -9 -9 4 -11 -3 -15 -30 -16 -19 -1 -35 3 -35 8 0 6 -25 10 -55 10 -30
0 -55 5 -55 10 0 6 -7 10 -15 10 -28 0 -97 48 -89 62 3 4 -1 6 -8 3 -29 -10
-55 35 -73 125 -4 19 -15 53 -25 75 l-18 41 55 -53 c30 -29 59 -53 64 -53z
m-1172 13 c-5 -38 -8 -80 -8 -95 -1 -16 -6 -27 -13 -25 -6 1 -14 -7 -16 -18
-2 -11 -9 -23 -15 -27 -9 -5 -13 -20 -16 -63 -1 -13 -70 -40 -78 -31 -4 3 1 6
9 6 9 0 21 6 27 14 10 12 6 13 -26 6 -89 -19 -115 -21 -108 -11 4 7 -4 11 -18
11 -26 0 -79 23 -78 34 2 20 0 26 -11 24 -23 -5 -38 47 -38 135 0 48 2 87 5
87 13 0 54 -53 49 -62 -4 -7 -2 -8 5 -4 7 5 23 -5 40 -23 24 -26 36 -31 73
-30 24 0 56 9 73 20 17 10 39 23 50 28 12 5 39 27 60 50 22 22 40 40 41 41 0
0 -3 -30 -7 -67z m390 -19 c1 -47 5 -92 8 -101 5 -13 1 -15 -23 -9 -16 4 -32
10 -36 14 -4 4 -2 40 4 80 7 48 14 69 19 60 6 -9 9 -7 9 9 0 12 -6 24 -12 26
-7 3 -3 6 8 6 20 1 21 -4 23 -85z m1091 62 c0 -2 -8 -10 -17 -17 -16 -13 -17
-12 -4 4 13 16 21 21 21 13z m-1692 -22 c25 -7 31 -44 6 -44 -24 0 -54 19 -54
35 0 16 12 18 48 9z m1631 -8 c9 -10 7 -19 -7 -37 l-19 -23 -12 21 c-20 39 11
72 38 39z m-85 -25 c4 -5 -3 -7 -14 -4 -23 6 -26 13 -6 13 8 0 17 -4 20 -9z
m-1759 -201 c18 -55 69 -105 118 -116 l29 -6 -22 -15 c-12 -9 -59 -26 -104
-39 -50 -14 -70 -23 -52 -23 39 -1 142 26 190 51 32 16 50 19 94 14 39 -5 70
-2 104 10 56 18 73 43 92 138 l13 61 34 -3 c43 -5 74 -21 44 -23 -17 -1 -16
-2 5 -9 36 -12 130 -12 130 0 0 6 33 10 79 10 78 0 80 -1 97 -30 11 -17 30
-32 46 -35 15 -4 28 -11 28 -16 0 -6 6 -7 12 -3 7 5 52 10 100 12 l87 3 8 -38
c15 -73 9 -273 -11 -338 -40 -134 -51 -150 -125 -184 -37 -17 -71 -31 -74 -31
-4 0 6 27 23 59 51 101 71 192 75 336 l4 130 -14 -107 c-7 -59 -19 -134 -25
-165 -18 -92 -70 -243 -91 -262 -35 -32 -255 -115 -389 -146 -58 -13 -94 -24
-80 -24 36 -1 153 23 238 48 41 12 76 21 78 18 2 -2 -21 -14 -52 -26 -62 -26
-68 -40 -8 -18 51 19 136 39 141 34 2 -3 -10 -10 -27 -17 -16 -7 -30 -16 -30
-21 0 -5 -15 -16 -32 -24 -32 -14 -32 -14 -4 -8 44 9 25 -12 -39 -42 -62 -29
-75 -44 -17 -19 20 9 44 18 52 21 8 3 29 16 46 29 l31 23 -22 -62 c-34 -95
-126 -317 -195 -466 -56 -123 -81 -169 -171 -315 -16 -27 -28 -50 -26 -52 2
-2 19 10 38 26 19 16 37 29 41 30 19 1 68 -230 55 -264 -9 -22 -82 -53 -196
-82 -198 -51 -453 -18 -667 85 -56 27 -120 66 -143 86 -39 35 -40 39 -35 83
13 111 59 207 137 290 37 39 57 41 57 6 0 -14 7 -56 16 -93 15 -67 30 -91 67
-104 16 -6 16 -4 3 21 -16 31 -41 124 -50 192 -11 70 3 41 29 -63 13 -52 30
-108 39 -123 22 -41 20 -14 -4 46 -32 81 -22 82 12 2 17 -40 33 -70 36 -67 6
5 -48 137 -59 145 -20 14 -59 162 -59 222 0 73 15 222 31 321 10 63 13 67 32
61 12 -4 23 -9 24 -13 4 -8 70 -5 105 4 27 7 108 85 108 104 0 6 -33 20 -72
32 -97 28 -148 57 -148 83 0 41 69 355 118 537 28 102 54 213 58 245 l8 59 7
-67 c4 -37 15 -90 24 -118z m1493 109 c-3 -8 -7 -3 -11 10 -4 17 -3 21 5 13 5
-5 8 -16 6 -23z m-53 -68 c3 -5 1 -12 -5 -16 -5 -3 -10 -1 -10 4 0 6 -6 11
-12 11 -8 -1 -4 -8 7 -18 19 -15 65 -86 65 -98 0 -3 -6 -2 -12 2 -8 4 -10 3
-5 -2 5 -5 12 -9 17 -9 11 0 80 -92 73 -98 -3 -3 4 -3 16 0 15 4 21 1 21 -11
0 -10 5 -14 10 -11 6 3 10 2 10 -4 0 -6 7 -8 16 -4 9 3 19 1 23 -4 9 -15 91
-24 91 -10 0 7 4 7 9 -2 5 -8 19 -12 35 -9 20 4 26 1 26 -13 0 -10 4 -21 10
-24 6 -3 7 1 4 9 -5 12 1 16 22 17 l29 1 -30 8 c-16 4 -25 8 -20 9 6 1 20 4
31 7 19 5 23 -1 38 -63 25 -107 86 -501 86 -560 0 -17 -94 -61 -193 -92 -88
-27 -88 -27 -75 -56 22 -48 133 -95 226 -95 l55 0 -6 -167 c-4 -122 -11 -190
-26 -248 -24 -95 -66 -185 -85 -185 -18 0 -28 -27 -21 -54 5 -16 4 -18 -4 -6
-9 13 -12 13 -23 1 -10 -10 -10 -12 0 -7 6 4 12 3 12 -3 0 -21 -46 -22 -128
-3 -90 21 -106 17 -39 -11 71 -29 154 -39 187 -22 36 18 92 84 130 152 32 56
39 81 15 49 -18 -24 -19 -8 -3 31 6 15 10 35 9 43 -2 10 5 8 22 -8 37 -35 85
-149 98 -234 11 -67 10 -79 -4 -102 -39 -59 -256 -137 -466 -167 -177 -25
-405 8 -502 74 -36 24 -36 23 -28 134 1 13 8 28 16 34 11 10 11 14 1 21 -10 7
-10 8 2 5 8 -2 30 6 48 20 36 27 39 24 15 -15 -17 -27 -17 -27 3 -9 11 9 24
14 28 10 4 -4 12 -1 17 7 8 11 9 9 4 -9 -5 -16 -4 -21 4 -17 6 4 24 0 41 -9
31 -16 43 -4 13 14 -17 10 -17 10 -1 11 9 0 34 -10 54 -22 49 -29 44 -17 -40
97 -36 50 -73 100 -82 113 -9 13 -18 21 -20 19 -5 -5 44 -83 97 -157 23 -31
26 -39 10 -25 -36 31 -148 207 -122 191 19 -12 12 9 -9 26 -11 10 -35 48 -53
85 -38 75 -135 333 -162 428 -9 33 -23 79 -31 103 -17 52 -17 52 -3 52 7 0 37
-26 67 -57 l54 -58 -40 55 c-23 30 -40 56 -38 57 7 7 66 -20 66 -30 0 -6 3 -7
6 -4 4 4 1 13 -6 22 -26 31 2 13 50 -31 57 -54 67 -51 15 4 -42 45 -44 55 -7
48 15 -3 50 -2 77 3 l50 9 -44 1 c-24 0 -41 4 -38 8 4 3 -16 21 -44 40 -29 18
-53 32 -56 30 -6 -7 8 -37 18 -37 5 0 9 -4 9 -9 0 -5 -11 -4 -24 2 -14 7 -22
17 -18 26 3 9 1 12 -6 7 -7 -4 -12 -2 -12 3 0 6 7 11 15 11 8 0 15 4 15 9 0 5
19 12 43 15 23 4 53 14 67 22 l25 15 -30 -5 c-16 -3 -41 -8 -55 -11 -15 -3
-10 2 15 14 22 11 48 20 57 20 9 1 50 14 90 29 40 16 119 41 176 56 56 16 101
30 99 33 -5 4 -220 -51 -386 -98 -57 -17 -105 -28 -108 -26 -2 3 19 21 47 42
51 37 65 54 31 35 -34 -18 -36 -11 -5 21 l29 32 -30 -18 c-16 -10 -41 -28 -55
-39 -22 -19 -22 -18 5 19 l29 40 -42 -37 c-63 -57 -67 -49 -10 22 64 81 106
248 94 375 -4 38 -9 87 -13 108 -5 32 -3 37 13 38 18 0 18 1 -1 9 l-20 9 20 1
20 1 -20 9 c-19 8 -18 9 5 11 14 1 30 2 37 2 7 0 11 4 10 11 -1 6 6 10 16 10
9 -1 17 2 17 7 0 14 30 10 46 -5 11 -12 21 -13 44 -4 17 5 30 14 30 19 0 12
67 12 75 0z m278 -88 c-13 -2 -33 -2 -45 0 -13 2 -3 4 22 4 25 0 35 -2 23 -4z
m-1445 -40 c-10 -2 -28 -2 -40 0 -13 2 -5 4 17 4 22 1 32 -1 23 -4z m-389
-671 c19 -7 49 -12 67 -12 45 0 43 -13 -6 -35 -50 -23 -124 -17 -174 14 -31
20 -36 28 -36 60 0 21 3 40 6 44 3 3 29 -9 57 -27 29 -18 67 -38 86 -44z
m1101 8 c0 -6 -11 -8 -27 -4 -40 10 -41 14 -5 14 18 0 32 -5 32 -10z m-77 -90
c14 -41 46 -142 72 -225 52 -166 98 -288 156 -413 l39 -83 -20 -39 c-30 -59
-60 -196 -60 -276 0 -64 2 -73 29 -98 15 -15 55 -38 87 -51 l59 -24 3 -105 3
-106 -453 -1 c-249 -1 -445 -3 -435 -6 33 -9 6 -23 -41 -22 -41 1 -43 2 -17 9
l30 7 -29 4 c-32 4 -32 5 -28 175 l2 71 77 22 c94 28 149 55 163 80 24 46 2
206 -40 293 l-20 41 36 58 c55 91 136 268 224 488 96 242 120 295 130 284 4
-4 19 -42 33 -83z m257 24 c0 -2 -9 0 -20 6 -11 6 -20 13 -20 16 0 2 9 0 20
-6 11 -6 20 -13 20 -16z m-43 -10 c-3 -3 -12 -4 -19 -1 -8 3 -5 6 6 6 11 1 17
-2 13 -5z m896 -91 c3 -16 0 -34 -6 -42 -23 -27 -111 -61 -160 -61 -46 0 -117
24 -117 39 0 4 29 13 64 20 36 7 91 26 123 41 75 37 89 37 96 3z m-36 -149
c-3 -3 -12 -4 -19 -1 -8 3 -5 6 6 6 11 1 17 -2 13 -5z m-777 -575 c0 -11 -9
-32 -20 -46 -23 -29 -26 -14 -9 36 12 35 29 41 29 10z m673 -74 c-3 -9 -8 -14
-10 -11 -3 3 -2 9 2 15 9 16 15 13 8 -4z m-668 -5 c-3 -5 -11 -10 -16 -10 -6
0 -7 5 -4 10 3 6 11 10 16 10 6 0 7 -4 4 -10z m50 0 c3 -5 1 -10 -4 -10 -6 0
-11 5 -11 10 0 6 2 10 4 10 3 0 8 -4 11 -10z m-91 -16 c3 -8 2 -12 -4 -9 -6 3
-10 10 -10 16 0 14 7 11 14 -7z m173 -436 c4 -7 17 -14 28 -15 11 0 57 -8 102
-16 45 -9 114 -17 153 -18 70 -2 70 -2 53 -22 -17 -20 -17 -20 2 -14 l20 7
-20 -15 c-21 -17 -30 -61 -14 -70 5 -4 22 3 37 14 l28 20 27 -34 c18 -23 23
-35 14 -38 -7 -3 -5 -6 6 -6 9 -1 17 4 17 10 0 7 9 9 23 5 46 -14 73 -14 118
1 25 8 52 15 60 17 8 1 23 7 34 13 11 6 47 19 80 28 33 10 65 20 71 22 11 4
45 -25 93 -80 25 -27 40 -117 21 -117 -5 0 -12 -9 -15 -20 -5 -16 -16 -20 -58
-21 l-52 -2 40 -7 c38 -7 38 -7 8 -9 -17 0 -38 -8 -47 -16 -10 -11 -36 -15
-90 -15 -87 0 -185 18 -166 30 9 5 -4 11 -33 15 -26 4 -45 10 -43 14 3 4 -3 7
-12 7 -9 0 -28 4 -41 8 -18 6 -22 5 -16 -5 6 -11 5 -12 -6 -1 -21 19 -41 15
-34 -8 8 -24 7 -24 -41 -4 -40 17 -83 52 -84 69 0 11 -73 65 -88 65 -5 0 -29
9 -53 19 -24 10 -55 22 -69 25 -24 7 -25 7 -5 -9 11 -10 33 -22 48 -27 15 -6
26 -12 24 -14 -2 -2 -23 3 -47 11 -52 18 -61 13 -29 -16 21 -18 21 -20 4 -14
-11 4 -25 8 -32 8 -7 0 -9 5 -6 10 4 6 0 8 -9 4 -13 -5 -17 4 -20 42 -3 44 -2
47 20 43 30 -6 28 16 -3 28 -22 8 -25 15 -25 60 0 48 11 63 27 38z m326 -5
c-13 -2 -33 -2 -45 0 -13 2 -3 4 22 4 25 0 35 -2 23 -4z m-1862 -43 c37 -22
80 -44 96 -50 27 -10 27 -10 -6 17 -67 54 -68 55 -48 49 10 -3 25 -6 33 -6 9
0 13 -3 11 -7 -3 -5 45 -9 106 -11 85 -2 130 2 185 16 40 10 74 16 77 14 3 -3
5 -33 5 -68 l0 -62 -40 -16 c-22 -9 -47 -16 -56 -16 -27 0 -164 -69 -164 -83
0 -22 -61 -67 -106 -78 -24 -6 -44 -16 -44 -21 0 -5 -5 -6 -11 -2 -6 3 -14 2
-18 -4 -7 -12 -143 -36 -164 -29 -6 2 12 7 41 11 30 4 87 20 128 36 41 17 78
29 82 28 12 -4 52 22 52 34 0 6 -6 5 -16 -3 -9 -7 -31 -14 -50 -15 l-33 -1 19
27 c10 15 26 33 35 40 21 18 19 34 -10 68 -13 16 -22 32 -20 36 3 3 2 4 -1 2
-3 -2 -13 3 -23 12 -29 28 -84 76 -115 100 -44 34 -19 26 55 -18z m-128 -6
c66 -33 145 -86 201 -135 l47 -41 -71 -44 c-39 -25 -97 -51 -128 -60 -107 -28
-356 -31 -312 -4 11 7 8 11 -13 19 -16 6 -35 11 -43 11 -17 0 -19 17 -1 23 8
3 6 9 -7 19 -13 10 -15 17 -8 22 6 4 8 14 5 23 -4 9 -2 14 3 10 5 -3 10 6 11
21 2 26 1 26 -7 5 -9 -23 -30 -32 -30 -14 0 13 89 101 101 101 6 0 7 -5 3 -12
-5 -7 -3 -8 5 -3 7 4 31 -1 54 -10 23 -10 51 -21 62 -26 11 -4 46 -13 77 -20
32 -7 55 -16 51 -22 -3 -5 3 -6 17 -2 13 4 20 3 17 -2 -3 -5 6 -8 21 -7 56 3
55 3 42 19 -11 14 -10 14 14 5 36 -13 40 -13 23 5 -30 30 -124 78 -207 105
-61 21 -76 29 -55 30 24 0 27 2 15 11 -28 20 63 -2 113 -27z m344 20 c-3 -3
-12 -4 -19 -1 -8 3 -5 6 6 6 11 1 17 -2 13 -5z m76 -1 c-7 -2 -19 -2 -25 0 -7
3 -2 5 12 5 14 0 19 -2 13 -5z m912 -79 c-148 -8 -301 -10 -340 -6 -68 7 -66
7 60 12 72 3 225 6 340 6 l210 1 -270 -13z m-1255 -76 c0 -5 -9 -4 -20 2 -11
6 -20 12 -20 14 0 2 9 2 20 -1 11 -3 20 -9 20 -15z m2110 12 c-8 -5 -19 -10
-25 -10 -5 0 -3 5 5 10 8 5 20 10 25 10 6 0 3 -5 -5 -10z m-400 -115 c62 -18
28 -18 -39 0 -30 8 -61 21 -70 30 -14 15 -12 15 24 0 22 -10 60 -23 85 -30z
m-1220 15 c-8 -5 -19 -10 -25 -10 -5 0 -3 5 5 10 8 5 20 10 25 10 6 0 3 -5 -5
-10z m1051 -27 c13 -16 12 -17 -3 -4 -10 7 -18 15 -18 17 0 8 8 3 21 -13z
m132 -20 c-7 -2 -19 -2 -25 0 -7 3 -2 5 12 5 14 0 19 -2 13 -5z m-1363 -8 c0
-2 -10 -9 -22 -15 -22 -11 -22 -10 -4 4 21 17 26 19 26 11z m1407 -1 c-3 -3
-12 -4 -19 -1 -8 3 -5 6 6 6 11 1 17 -2 13 -5z m50 -10 c-3 -3 -12 -4 -19 -1
-8 3 -5 6 6 6 11 1 17 -2 13 -5z m-2309 -11 c-15 -2 -42 -2 -60 0 -18 2 -6 4
27 4 33 0 48 -2 33 -4z m2659 -37 c28 -8 54 -11 57 -8 3 3 6 0 6 -7 0 -9 -8
-11 -27 -7 -71 17 -103 27 -103 31 0 7 11 6 67 -9z m-2513 -41 c21 -9 36 -18
33 -21 -8 -8 -81 32 -97 53 -14 17 -14 17 6 1 11 -10 37 -24 58 -33z m243 39
c-3 -3 -12 -4 -19 -1 -8 3 -5 6 6 6 11 1 17 -2 13 -5z m366 -9 c-12 -9 -39
-22 -60 -29 -54 -19 -227 -49 -249 -43 -13 3 -10 5 9 6 44 2 246 49 275 65 37
19 51 19 25 1z m2045 -22 c-10 -2 -28 -2 -40 0 -13 2 -5 4 17 4 22 1 32 -1 23
-4z m-2555 -50 c-7 -2 -19 -2 -25 0 -7 3 -2 5 12 5 14 0 19 -2 13 -5z m3527
-23 c-44 -11 -387 -25 -379 -16 6 7 246 23 354 24 53 0 56 -1 25 -8z m-155
-80 c-16 -4 -41 -8 -55 -8 -22 0 -22 1 5 8 17 4 41 8 55 8 22 0 22 -1 -5 -8z
m-242 -7 c-7 -2 -19 -2 -25 0 -7 3 -2 5 12 5 14 0 19 -2 13 -5z m-75 -10 c-10
-2 -26 -2 -35 0 -10 3 -2 5 17 5 19 0 27 -2 18 -5z m-3250 -30 c-16 -2 -40 -2
-55 0 -16 2 -3 4 27 4 30 0 43 -2 28 -4z"/>
<path d="M5035 9482 c-195 -67 -335 -284 -335 -517 1 -151 45 -259 151 -367
88 -90 168 -128 282 -135 193 -12 351 79 433 250 98 208 79 431 -54 609 -63
85 -124 130 -216 161 -65 22 -194 21 -261 -1z m253 -27 c104 -34 216 -143 266
-262 123 -293 -18 -620 -291 -673 -251 -49 -443 75 -518 335 -52 177 34 424
188 540 99 75 234 98 355 60z"/>
<path d="M5084 9398 c4 -29 11 -57 16 -62 6 -6 3 -14 -5 -20 -11 -8 11 -11 87
-11 95 0 107 -2 156 -29 29 -16 62 -44 73 -63 l21 -34 16 22 c11 16 12 24 4
27 -14 4 -16 42 -3 42 5 0 11 -7 13 -17 3 -14 5 -14 15 -2 9 11 7 17 -13 26
-22 10 -26 9 -34 -13 -5 -13 -14 -24 -19 -24 -19 0 -21 20 -6 56 22 52 19 64
-9 30 -23 -30 -23 -30 -35 -9 -6 12 -11 34 -11 50 -1 27 -2 27 -22 -12 -11
-22 -22 -41 -23 -43 -6 -6 -75 10 -75 18 0 5 8 6 19 3 10 -3 22 0 25 6 7 11
-5 15 -31 12 -20 -3 -4 27 18 34 31 10 22 28 -11 22 -31 -7 -43 9 -15 19 23 9
18 24 -10 24 -23 0 -24 -2 -22 -60 1 -33 -1 -60 -5 -60 -53 -1 -78 2 -78 9 0
5 8 7 19 4 10 -3 22 0 25 6 4 7 -1 11 -13 11 -22 0 -28 14 -11 25 17 10 11 25
-10 25 -25 0 -25 9 -2 26 15 12 13 13 -17 14 l-34 0 7 -52z m292 -125 c-10
-11 -49 34 -41 46 4 8 14 3 27 -14 11 -14 17 -29 14 -32z"/>
<path d="M5017 9400 c-9 -11 -23 -20 -31 -20 -21 0 -25 -21 -10 -57 16 -40 3
-52 -49 -45 -27 3 -37 8 -33 18 7 18 -2 18 -19 0 -11 -11 -12 -20 -2 -45 6
-17 15 -31 19 -31 5 0 6 -12 2 -27 l-6 -28 21 25 c20 25 25 40 22 70 -2 12 0
13 7 1 8 -11 18 -8 55 13 25 15 51 34 58 42 18 22 2 30 -21 9 -11 -10 -23 -15
-27 -12 -3 4 -2 7 4 7 6 0 9 9 6 20 -3 12 1 28 9 38 22 25 30 42 21 42 -5 0
-16 -9 -26 -20z"/>
<path d="M5035 9274 c-66 -37 -93 -66 -121 -129 -25 -57 -32 -65 -54 -63 -31
4 -39 34 -11 43 26 8 27 25 2 25 -13 0 -21 -9 -26 -30 -6 -29 -20 -45 -40 -45
-20 0 -15 -34 8 -59 27 -29 42 -34 34 -12 -4 11 -1 13 10 9 13 -5 15 -2 10 12
-7 17 8 45 24 45 5 0 9 -17 10 -37 1 -34 2 -31 18 27 40 154 143 230 290 216
126 -11 188 -59 246 -190 30 -67 44 -71 19 -5 -32 82 -86 151 -140 178 -65 33
-231 42 -279 15z m-221 -228 c-6 -16 -24 -23 -24 -8 0 10 22 33 27 28 2 -2 1
-11 -3 -20z"/>
<path d="M5072 9247 c-42 -13 -102 -71 -127 -122 -30 -62 -28 -194 4 -258 48
-94 131 -152 233 -164 98 -12 192 62 239 187 26 69 22 131 -16 215 -33 75 -57
102 -120 131 -55 26 -151 31 -213 11z m182 -116 c10 -10 18 -32 18 -49 1 -21
9 -34 30 -46 31 -19 28 -34 -11 -70 -23 -21 -27 -46 -10 -63 12 -12 49 -6 49
9 0 5 -9 6 -21 3 -20 -7 -20 -6 -3 22 10 15 31 41 46 57 l28 30 0 -46 c0 -26
-4 -58 -10 -72 -9 -24 -14 -26 -69 -26 -41 0 -62 5 -72 16 -7 9 -22 14 -35 11
-21 -4 -24 2 -35 50 l-11 55 34 28 c18 15 30 32 25 36 -4 4 -17 -2 -30 -14
-30 -29 -41 -28 -33 2 3 14 2 28 -4 31 -20 13 -9 35 23 44 50 14 72 13 91 -8z
m-167 -83 c-4 -15 1 -28 18 -44 20 -19 25 -33 25 -74 0 -37 -4 -50 -15 -50 -7
0 -18 7 -23 16 -8 14 -10 14 -21 0 -19 -22 -38 -20 -52 7 -7 12 -11 22 -9 22
2 0 0 10 -4 22 -6 18 2 34 36 73 24 27 45 50 47 50 2 0 1 -10 -2 -22z m93
-168 c0 -5 -5 -10 -11 -10 -5 0 -7 5 -4 10 3 6 8 10 11 10 2 0 4 -4 4 -10z
m-20 -56 c30 -8 63 -14 74 -14 11 0 17 -3 13 -6 -8 -9 -197 28 -197 38 0 8 11
7 110 -18z m173 15 c-7 -7 -24 -8 -54 -1 l-44 10 55 1 c39 1 51 -2 43 -10z"/>
<path d="M5477 9187 c-31 -12 -31 -11 1 -117 8 -30 17 -47 20 -38 2 9 13 20
25 24 30 9 48 24 41 35 -3 5 -19 2 -35 -7 -17 -8 -33 -13 -37 -10 -13 14 -4
69 17 96 23 32 16 36 -32 17z"/>
<path d="M4790 9172 c0 -12 19 -26 26 -19 2 2 -2 10 -11 17 -9 8 -15 8 -15 2z"/>
<path d="M5507 9123 c-14 -14 -6 -19 23 -15 16 2 27 8 24 13 -6 11 -38 12 -47
2z"/>
<path d="M5430 8865 c-69 -171 -240 -227 -389 -127 -42 28 -104 106 -122 151
-9 23 -10 23 -24 5 -17 -23 -19 -34 -4 -34 5 0 8 4 4 9 -3 5 -1 12 3 15 5 3
16 -11 26 -31 65 -137 210 -208 343 -168 64 19 149 106 175 180 24 68 16 68
-12 0z"/>
<path d="M5452 8845 c-11 -24 -11 -27 3 -22 10 4 15 1 15 -10 0 -9 3 -14 6
-11 3 3 1 20 -3 38 l-9 33 -12 -28z"/>
<path d="M4881 8841 c-7 -5 -12 -14 -10 -20 3 -6 9 -7 18 -2 7 5 12 14 10 20
-3 6 -9 7 -18 2z"/>
<path d="M4911 8802 c-1 -8 -6 -10 -13 -6 -10 5 -10 4 -1 -6 15 -16 28 -8 20
12 -4 11 -6 11 -6 0z"/>
<path d="M4845 8791 c-7 -12 63 -61 87 -61 23 0 23 -16 2 -24 -9 -4 -14 -9
-10 -13 3 -3 15 2 25 11 13 12 27 16 43 11 22 -6 22 -6 4 9 -11 9 -31 16 -46
16 -14 0 -42 14 -62 30 -20 17 -39 26 -43 21z"/>
<path d="M5494 8785 c-4 -8 -12 -15 -19 -15 -7 0 -16 -7 -19 -16 -10 -26 -7
-28 15 -8 18 16 23 16 42 4 20 -12 21 -11 9 2 -7 9 -10 23 -6 32 3 9 1 16 -5
16 -7 0 -14 -7 -17 -15z"/>
<path d="M4800 8775 c0 -7 63 -45 75 -45 5 0 -7 11 -27 25 -37 25 -48 30 -48
20z"/>
<path d="M5395 8730 c-3 -5 1 -10 10 -10 9 0 13 5 10 10 -3 6 -8 10 -10 10 -2
0 -7 -4 -10 -10z"/>
<path d="M5340 8700 c0 -5 5 -10 11 -10 5 0 7 5 4 10 -3 6 -8 10 -11 10 -2 0
-4 -4 -4 -10z"/>
<path d="M5388 8693 c-10 -2 -15 -10 -11 -18 4 -11 10 -12 25 -4 14 7 23 8 30
1 13 -13 0 -35 -16 -29 -7 3 -13 -4 -13 -16 -1 -12 -12 -29 -25 -39 -13 -10
-19 -18 -15 -18 13 0 87 80 87 93 0 16 -21 37 -34 36 -6 -1 -19 -3 -28 -6z"/>
<path d="M4930 8671 c0 -5 6 -11 13 -14 6 -2 3 -3 -8 -1 -11 1 -29 -1 -40 -5
-20 -8 -20 -8 1 -15 12 -3 33 -2 47 3 29 11 37 6 37 -22 0 -16 5 -13 23 14 26
37 27 49 2 29 -12 -10 -20 -9 -40 4 -28 18 -35 20 -35 7z"/>
<path d="M5300 8669 l-35 -6 33 -2 c34 -1 46 -21 11 -21 -18 0 -18 -2 8 -24
15 -13 30 -22 33 -19 3 2 -3 11 -13 18 -11 8 -14 14 -7 17 7 2 10 13 8 23 -2
17 -8 19 -38 14z"/>
<path d="M5040 8646 c0 -9 8 -12 27 -8 25 5 25 6 8 13 -29 11 -35 10 -35 -5z"/>
<path d="M5104 8631 c3 -5 15 -7 26 -4 28 7 25 13 -6 13 -14 0 -23 -4 -20 -9z"/>
<path d="M5180 8630 l-25 -8 25 -1 c14 0 32 4 40 9 13 9 13 10 0 9 -8 -1 -26
-5 -40 -9z"/>
<path d="M5097 8581 c-4 -17 -3 -21 5 -13 5 5 8 16 6 23 -3 8 -7 3 -11 -10z"/>
<path d="M5160 8585 c-7 -9 -10 -18 -7 -21 3 -3 10 4 17 15 13 25 8 27 -10 6z"/>
<path d="M5201 8571 c-1 -16 -6 -21 -16 -18 -8 4 -17 2 -19 -2 -11 -17 82 -20
134 -5 29 8 50 18 47 20 -3 3 -28 -2 -56 -12 -58 -19 -78 -15 -84 18 l-4 23
-2 -24z"/>
<path d="M4960 8575 c0 -9 60 -32 103 -39 23 -4 37 -3 37 4 0 5 -12 10 -26 10
-14 0 -33 4 -42 9 -24 12 -72 23 -72 16z"/>
<path d="M5045 8570 c27 -12 43 -12 25 0 -8 5 -22 9 -30 9 -10 0 -8 -3 5 -9z"/>
<path d="M3934 8261 c-16 -10 -59 -28 -95 -41 -35 -12 -76 -29 -91 -36 -32
-17 -41 -18 -33 -4 4 6 -1 7 -11 3 -13 -5 -14 -8 -5 -11 7 -2 -14 -20 -48 -39
-34 -19 -61 -36 -61 -38 0 -2 51 20 113 49 61 29 123 57 137 61 32 10 140 64
140 70 0 9 -15 5 -46 -14z"/>
<path d="M3375 8144 l-30 -26 35 23 c45 29 45 29 34 29 -5 0 -22 -12 -39 -26z"/>
<path d="M3455 8134 l-30 -26 35 23 c45 29 45 29 34 29 -5 0 -22 -12 -39 -26z"/>
<path d="M3495 8045 c-44 -24 -76 -45 -71 -45 10 0 156 80 156 86 0 6 0 6 -85
-41z"/>
<path d="M3289 7913 c-13 -15 -12 -15 9 -4 23 12 28 21 13 21 -5 0 -15 -7 -22
-17z"/>
<path d="M2771 7854 c0 -11 3 -14 6 -6 3 7 2 16 -1 19 -3 4 -6 -2 -5 -13z"/>
<path d="M2846 7815 c-9 -26 -7 -32 5 -12 6 10 9 21 6 23 -2 3 -7 -2 -11 -11z"/>
<path d="M2867 7763 c-21 -46 -59 -194 -52 -201 6 -6 9 3 35 107 11 46 26 93
31 103 6 11 9 22 6 24 -2 2 -11 -13 -20 -33z"/>
<path d="M2816 7734 c-9 -26 -16 -55 -15 -63 0 -9 9 11 19 44 23 70 19 87 -4
19z"/>
<path d="M2896 7735 c-9 -26 -7 -32 5 -12 6 10 9 21 6 23 -2 3 -7 -2 -11 -11z"/>
<path d="M2591 7664 c0 -11 3 -14 6 -6 3 7 2 16 -1 19 -3 4 -6 -2 -5 -13z"/>
<path d="M2582 7620 c0 -14 2 -19 5 -12 2 6 2 18 0 25 -3 6 -5 1 -5 -13z"/>
<path d="M2801 7534 c0 -11 3 -14 6 -6 3 7 2 16 -1 19 -3 4 -6 -2 -5 -13z"/>
<path d="M2603 7385 c0 -33 2 -45 4 -27 2 18 2 45 0 60 -2 15 -4 0 -4 -33z"/>
<path d="M2541 7244 c0 -11 3 -14 6 -6 3 7 2 16 -1 19 -3 4 -6 -2 -5 -13z"/>
<path d="M7576 6995 c-13 -25 -21 -43 -15 -40 10 7 52 85 45 85 -2 0 -16 -20
-30 -45z"/>
<path d="M7535 6929 c-4 -6 -5 -12 -2 -15 2 -3 7 2 10 11 7 17 1 20 -8 4z"/>
<path d="M7524 6808 l-19 -23 23 19 c21 18 27 26 19 26 -2 0 -12 -10 -23 -22z"/>
<path d="M4188 8143 c7 -3 16 -2 19 1 4 3 -2 6 -13 5 -11 0 -14 -3 -6 -6z"/>
<path d="M4148 8133 c7 -3 16 -2 19 1 4 3 -2 6 -13 5 -11 0 -14 -3 -6 -6z"/>
<path d="M4090 8120 c-18 -12 -2 -12 25 0 13 6 15 9 5 9 -8 0 -22 -4 -30 -9z"/>
<path d="M5864 8011 c4 -6 16 -16 28 -22 15 -8 18 -8 14 0 -4 6 -16 16 -28 22
-15 8 -18 8 -14 0z"/>
<path d="M5835 8004 c6 -5 23 -20 40 -34 29 -24 29 -24 10 -2 -11 13 -29 28
-40 34 -11 6 -15 6 -10 2z"/>
<path d="M5737 7909 c-26 -44 -43 -78 -38 -75 12 8 93 147 88 152 -2 2 -24
-33 -50 -77z"/>
<path d="M5910 7941 c0 -5 5 -13 10 -16 6 -3 10 -2 10 4 0 5 -4 13 -10 16 -5
3 -10 2 -10 -4z"/>
<path d="M5901 7904 c0 -11 3 -14 6 -6 3 7 2 16 -1 19 -3 4 -6 -2 -5 -13z"/>
<path d="M5876 7854 c-4 -9 -4 -19 -1 -22 2 -3 7 3 11 12 4 9 4 19 1 22 -2 3
-7 -3 -11 -12z"/>
<path d="M6071 7749 c53 -52 160 -164 238 -250 78 -86 150 -163 160 -170 11
-8 48 -38 83 -68 35 -30 5 4 -67 75 -71 71 -206 209 -299 307 -92 98 -178 183
-190 189 -11 6 22 -31 75 -83z"/>
<path d="M5945 7803 c6 -5 46 -41 90 -79 44 -38 140 -130 214 -204 l133 -135
-123 134 c-68 74 -160 164 -204 200 -84 69 -127 102 -110 84z"/>
<path d="M5813 7728 c-11 -18 -36 -59 -57 -90 -20 -32 -34 -58 -32 -58 3 0 23
26 44 58 41 60 76 122 68 122 -2 0 -13 -15 -23 -32z"/>
<path d="M6009 7418 c-9 -7 -18 -18 -20 -25 -2 -6 -26 -27 -54 -45 -53 -37
-103 -114 -86 -131 7 -7 39 -4 93 8 61 13 105 16 168 12 102 -8 171 -30 305
-99 163 -84 170 -87 178 -78 5 4 -3 30 -16 57 -47 92 -233 242 -353 284 -73
26 -193 35 -215 17z"/>
<path d="M6400 7355 c13 -14 26 -25 28 -25 3 0 -5 11 -18 25 -13 14 -26 25
-28 25 -3 0 5 -11 18 -25z"/>
<path d="M4384 7355 c-94 -20 -173 -66 -367 -212 -99 -74 -190 -139 -203 -145
-39 -18 -27 -26 23 -17 43 8 174 43 213 57 8 3 -5 -11 -30 -30 -25 -20 -57
-50 -72 -68 -27 -30 -28 -31 -58 -15 -24 13 -30 13 -30 2 0 -8 9 -22 20 -32
18 -16 18 -20 4 -46 -15 -31 -33 -36 -65 -19 -31 17 -23 -7 10 -26 28 -17 29
-17 27 -110 -1 -85 5 -116 20 -102 3 3 12 34 20 67 20 88 55 151 125 226 142
151 354 195 527 108 102 -51 196 -191 225 -331 7 -33 16 -64 20 -68 23 -24
-10 175 -42 249 -47 108 -133 202 -229 249 -52 26 -80 33 -155 37 -102 7 -96
10 63 36 149 23 184 36 188 67 4 36 -55 95 -105 104 -33 6 -35 8 -18 20 17 13
16 14 -16 13 -19 0 -61 -7 -95 -14z"/>
<path d="M4758 7323 c12 -2 32 -2 45 0 12 2 2 4 -23 4 -25 0 -35 -2 -22 -4z"/>
<path d="M4010 7235 c-19 -7 -28 -13 -20 -13 8 0 31 6 50 13 19 7 28 13 20 13
-8 0 -31 -6 -50 -13z"/>
<path d="M6635 7190 c10 -11 20 -20 23 -20 3 0 -3 9 -13 20 -10 11 -20 20 -23
20 -3 0 3 -9 13 -20z"/>
<path d="M6590 7187 c0 -2 15 -14 33 -27 20 -15 27 -17 18 -6 -13 16 -51 41
-51 33z"/>
<path d="M6050 7032 c-83 -22 -147 -60 -215 -127 -87 -87 -153 -249 -143 -348
3 -24 7 -15 16 40 42 225 210 372 415 361 169 -9 309 -131 372 -325 9 -29 20
-53 25 -53 10 0 20 25 20 50 0 11 12 23 33 31 l32 13 -32 3 c-45 6 -47 31 -4
71 l36 33 -35 -5 c-34 -6 -37 -4 -48 27 -21 58 -88 142 -144 180 -94 64 -206
81 -328 49z"/>
<path d="M4282 6969 c-77 -38 -140 -107 -191 -209 -49 -98 -65 -171 -59 -275
7 -103 36 -180 95 -245 148 -164 401 -141 522 49 53 82 74 161 75 276 0 145
-35 252 -111 336 -93 103 -212 128 -331 68z m223 -131 c61 -56 57 -139 -7
-178 -40 -24 -88 -26 -131 -3 -57 29 -77 80 -53 137 34 81 128 103 191 44z
m-272 -492 c63 -42 110 -58 209 -71 86 -11 85 -68 -1 -93 -58 -18 -130 -14
-181 9 -77 34 -140 108 -140 162 0 51 29 49 113 -7z"/>
<path d="M6049 6902 c-68 -28 -105 -59 -155 -132 -109 -160 -131 -365 -57
-517 67 -135 200 -199 336 -159 42 12 71 30 116 72 73 67 114 146 137 258 59
289 -159 566 -377 478z m88 -112 c40 -24 54 -50 55 -102 1 -103 -120 -145
-192 -68 -93 100 21 241 137 170z m-168 -516 c66 -44 113 -64 171 -73 32 -4
46 -11 48 -24 5 -26 -25 -45 -86 -53 -44 -5 -60 -2 -107 20 -76 38 -139 122
-114 152 17 21 29 18 88 -22z"/>
<path d="M3167 6497 c-59 -47 -64 -135 -12 -237 29 -57 38 -64 24 -18 -11 41
-14 126 -5 156 7 22 8 23 22 5 14 -17 15 -16 9 7 -5 21 -4 22 5 7 6 -9 9 -21
6 -26 -3 -5 1 -22 9 -37 11 -21 15 -24 15 -11 0 10 4 16 9 13 5 -4 7 3 4 14
-3 11 -1 20 5 20 15 0 22 -55 12 -92 -22 -74 2 -167 51 -202 36 -25 45 -19 17
12 -34 36 -52 94 -45 149 9 80 59 108 95 52 11 -17 22 -27 25 -22 8 12 -46
127 -79 171 -48 63 -118 79 -167 39z m97 -77 c5 -17 4 -20 -2 -10 -5 8 -13 26
-16 40 -5 17 -4 20 2 10 5 -8 13 -26 16 -40z m44 -40 c0 -12 -1 -12 -5 -1 -4
10 -7 11 -13 1 -5 -9 -8 -4 -7 11 1 13 -2 38 -6 54 -5 25 -3 23 13 -10 10 -22
18 -47 18 -55z m-67 -2 c-8 -20 -9 -18 -8 15 1 24 4 32 9 23 4 -8 4 -25 -1
-38z"/>
<path d="M3879 6382 c12 -39 39 -90 70 -131 24 -32 96 -91 110 -91 4 0 -21 29
-55 65 -35 36 -75 90 -91 124 -30 63 -47 80 -34 33z"/>
<path d="M6476 6286 c-16 -32 -56 -86 -90 -122 -45 -45 -54 -58 -34 -48 48 25
108 93 135 150 34 75 25 93 -11 20z"/>
<path d="M5235 6166 c-17 -7 -36 -20 -42 -28 -11 -13 -4 -15 52 -14 36 1 65 4
65 9 0 4 -5 7 -12 7 -6 0 -9 3 -5 6 8 8 75 -33 86 -54 5 -9 13 -14 17 -10 10
11 -16 67 -40 83 -25 18 -81 19 -121 1z"/>
<path d="M4140 5982 c0 -12 78 -54 92 -50 7 3 -6 16 -27 31 -40 27 -65 34 -65
19z"/>
<path d="M4063 5934 c16 -14 31 -24 33 -21 9 8 -29 47 -46 47 -10 0 -6 -8 13
-26z"/>
<path d="M6300 5913 c0 -11 9 -28 20 -38 19 -18 20 -17 20 2 0 11 -9 28 -20
38 -19 18 -20 17 -20 -2z"/>
<path d="M4000 5911 c0 -13 28 -33 41 -29 8 3 6 9 -5 21 -19 18 -36 22 -36 8z"/>
<path d="M6190 5895 c0 -25 23 -65 37 -65 19 0 16 31 -6 58 -22 26 -31 28 -31
7z"/>
<path d="M4796 5864 c-16 -16 -22 -46 -8 -42 4 2 32 -16 62 -38 113 -84 211
-121 349 -134 174 -16 308 24 401 120 27 27 56 50 64 50 23 0 20 16 -6 34 -33
23 -43 20 -53 -16 -14 -46 -116 -121 -201 -148 -80 -24 -195 -26 -279 -5 -126
33 -312 145 -299 180 8 20 -10 19 -30 -1z"/>
<path d="M6090 5863 c0 -4 7 -17 15 -27 17 -23 34 -13 19 11 -12 19 -34 29
-34 16z"/>
<path d="M6953 6384 c-59 -29 -141 -146 -143 -204 0 -8 13 1 28 19 24 30 31
32 49 22 36 -19 46 -86 23 -155 -12 -37 -80 -106 -105 -106 -8 0 -15 -5 -15
-10 0 -14 49 -2 80 19 60 41 98 173 70 246 -7 17 -7 32 0 43 8 14 9 14 10 2 0
-13 1 -13 10 0 5 8 7 24 4 35 -4 16 -2 15 9 -4 11 -18 16 -21 21 -10 3 8 4 5
1 -6 -2 -11 0 -27 5 -35 8 -12 10 -10 11 10 1 17 4 13 9 -14 4 -21 4 -55 -1
-75 -5 -20 -8 -47 -8 -61 0 -23 1 -23 19 10 57 104 64 225 16 267 -32 27 -49
28 -93 7z m22 -54 c3 -5 1 -10 -4 -10 -6 0 -11 5 -11 10 0 6 2 10 4 10 3 0 8
-4 11 -10z m-28 -32 c-3 -8 -6 -5 -6 6 -1 11 2 17 5 13 3 -3 4 -12 1 -19z m58
12 c-3 -5 -12 -10 -18 -10 -7 0 -6 4 3 10 19 12 23 12 15 0z"/>
<path d="M6972 6240 c0 -14 2 -19 5 -12 2 6 2 18 0 25 -3 6 -5 1 -5 -13z"/>
<path d="M5078 5013 c18 -2 45 -2 60 0 15 2 0 4 -33 4 -33 0 -45 -2 -27 -4z"/>
<path d="M4932 4884 c-35 -20 -61 -38 -59 -40 2 -3 35 13 73 35 38 23 65 41
59 41 -5 0 -38 -16 -73 -36z"/>
<path d="M4200 4866 c0 -2 7 -6 15 -10 8 -3 15 -1 15 4 0 6 -7 10 -15 10 -8 0
-15 -2 -15 -4z"/>
<path d="M4240 4860 c0 -5 7 -10 16 -10 8 0 12 5 9 10 -3 6 -10 10 -16 10 -5
0 -9 -4 -9 -10z"/>
<path d="M5460 5013 c-8 -3 -26 -10 -39 -15 -13 -5 -22 -11 -19 -13 3 -3 25 3
49 14 40 18 46 28 9 14z"/>
<path d="M4660 4650 c20 -13 33 -13 25 0 -3 6 -14 10 -23 10 -15 0 -15 -2 -2
-10z"/>
<path d="M6208 4623 c6 -2 18 -2 25 0 6 3 1 5 -13 5 -14 0 -19 -2 -12 -5z"/>
<path d="M4947 3766 c46 -16 324 -66 362 -66 50 0 11 9 -164 39 -251 43 -247
43 -198 27z"/>
<path d="M5068 3703 c6 -2 18 -2 25 0 6 3 1 5 -13 5 -14 0 -19 -2 -12 -5z"/>
<path d="M5263 3643 c15 -2 37 -2 50 0 12 2 0 4 -28 4 -27 0 -38 -2 -22 -4z"/>
<path d="M6085 3730 c-3 -6 1 -7 9 -4 18 7 21 14 7 14 -6 0 -13 -4 -16 -10z"/>
<path d="M5738 3663 c7 -3 16 -2 19 1 4 3 -2 6 -13 5 -11 0 -14 -3 -6 -6z"/>
<path d="M4407 3613 l-48 -4 23 -19 c17 -14 19 -20 8 -21 -38 -3 62 -22 122
-23 57 -1 71 2 90 22 12 12 17 22 10 22 -6 0 -12 7 -12 15 0 15 -64 18 -193 8z
m188 -34 c-10 -15 -25 -10 -19 6 4 8 10 12 15 9 5 -3 7 -10 4 -15z m-38 -25
c-3 -3 -12 -4 -19 -1 -8 3 -5 6 6 6 11 1 17 -2 13 -5z"/>
<path d="M4360 3525 c0 -8 4 -15 10 -15 5 0 7 7 4 15 -4 8 -8 15 -10 15 -2 0
-4 -7 -4 -15z"/>
<path d="M6135 3569 c-10 -15 3 -25 16 -12 7 7 7 13 1 17 -6 3 -14 1 -17 -5z"/>
<path d="M5210 3548 c-26 -5 -21 -6 20 -3 37 3 49 1 35 -5 -13 -5 -1 -7 35 -3
30 3 58 8 62 12 10 9 -110 8 -152 -1z"/>
<path d="M5208 3523 c7 -3 16 -2 19 1 4 3 -2 6 -13 5 -11 0 -14 -3 -6 -6z"/>
<path d="M5250 3480 c0 -29 4 -40 15 -40 11 0 15 11 15 40 0 29 -4 40 -15 40
-11 0 -15 -11 -15 -40z"/>
<path d="M5381 3466 c-1 -29 2 -37 10 -29 8 8 8 19 1 40 -10 28 -10 28 -11
-11z"/>
<path d="M5361 3474 c0 -11 3 -14 6 -6 3 7 2 16 -1 19 -3 4 -6 -2 -5 -13z"/>
<path d="M5362 3420 c0 -14 2 -19 5 -12 2 6 2 18 0 25 -3 6 -5 1 -5 -13z"/>
<path d="M5161 3351 c-10 -7 -7 -9 12 -8 14 1 23 5 20 10 -6 9 -15 9 -32 -2z"/>
<path d="M5248 3323 c6 -2 18 -2 25 0 6 3 1 5 -13 5 -14 0 -19 -2 -12 -5z"/>
<path d="M5368 3323 c7 -3 16 -2 19 1 4 3 -2 6 -13 5 -11 0 -14 -3 -6 -6z"/>
<path d="M5293 3303 c9 -2 23 -2 30 0 6 3 -1 5 -18 5 -16 0 -22 -2 -12 -5z"/>
<path d="M5791 3374 c0 -11 3 -14 6 -6 3 7 2 16 -1 19 -3 4 -6 -2 -5 -13z"/>
<path d="M5215 3220 c-30 -6 -19 -7 49 -9 49 0 87 1 85 3 -10 8 -97 12 -134 6z"/>
<path d="M4518 3093 c7 -3 16 -2 19 1 4 3 -2 6 -13 5 -11 0 -14 -3 -6 -6z"/>
<path d="M4448 3083 c12 -2 30 -2 40 0 9 3 -1 5 -23 4 -22 0 -30 -2 -17 -4z"/>
<path d="M4930 2480 c-45 -24 -28 -24 25 0 22 10 33 19 25 19 -8 0 -31 -8 -50
-19z"/>
<path d="M4828 2423 c7 -3 16 -2 19 1 4 3 -2 6 -13 5 -11 0 -14 -3 -6 -6z"/>
<path d="M4788 2413 c7 -3 16 -2 19 1 4 3 -2 6 -13 5 -11 0 -14 -3 -6 -6z"/>
<path d="M4045 1730 c9 -30 34 -80 40 -80 5 0 -34 92 -42 100 -3 3 -2 -6 2
-20z"/>
<path d="M4660 1709 c-19 -17 -27 -28 -17 -25 11 4 16 2 12 -5 -4 -6 -13 -8
-21 -5 -7 3 -17 -1 -21 -8 -5 -6 -19 -20 -33 -29 -15 -11 -19 -17 -9 -17 8 0
26 7 39 17 22 14 22 13 -4 -15 -17 -18 -25 -32 -20 -32 12 0 43 34 67 73 9 15
24 38 33 52 21 32 17 31 -26 -6z"/>
<path d="M3860 1720 c0 -28 67 -112 105 -132 12 -6 5 5 -16 28 -20 22 -48 57
-63 79 -14 22 -26 33 -26 25z"/>
<path d="M4085 1700 c9 -16 18 -30 21 -30 2 0 -2 14 -11 30 -9 17 -18 30 -21
30 -2 0 2 -13 11 -30z"/>
<path d="M4609 1693 c-13 -16 -12 -17 4 -4 16 13 21 21 13 21 -2 0 -10 -8 -17
-17z"/>
<path d="M4559 1649 c-19 -16 -20 -18 -4 -10 34 17 51 31 39 31 -7 0 -22 -9
-35 -21z"/>
<path d="M4290 1613 c-19 -3 -39 -9 -45 -14 -12 -12 72 -1 95 12 17 9 16 9
-50 2z"/>
<path d="M4585 1483 c-16 -9 -59 -27 -95 -40 -52 -19 -57 -22 -26 -17 22 3 61
17 88 30 53 27 73 31 44 9 -11 -8 -16 -15 -10 -15 5 0 20 9 34 20 18 15 20 18
6 13 -13 -4 -17 -3 -12 5 9 15 8 15 -29 -5z"/>
<path d="M4143 1443 c9 -2 25 -2 35 0 9 3 1 5 -18 5 -19 0 -27 -2 -17 -5z"/>
<path d="M4145 1410 c17 -4 46 -8 65 -8 l35 0 -40 9 c-22 4 -51 8 -65 7 -23 0
-22 -1 5 -8z"/>
<path d="M5428 3243 c7 -3 16 -2 19 1 4 3 -2 6 -13 5 -11 0 -14 -3 -6 -6z"/>
<path d="M5720 3156 c0 -2 8 -10 18 -17 15 -13 16 -12 3 4 -13 16 -21 21 -21
13z"/>
<path d="M5878 3013 c7 -3 16 -2 19 1 4 3 -2 6 -13 5 -11 0 -14 -3 -6 -6z"/>
<path d="M5940 2998 c0 -5 23 -8 52 -8 28 0 48 3 45 6 -9 9 -97 10 -97 2z"/>
<path d="M5430 2401 c0 -5 7 -12 16 -15 14 -5 15 -4 4 9 -14 17 -20 19 -20 6z"/>
<path d="M5211 2383 c7 -12 15 -20 18 -17 3 2 -3 12 -13 22 -17 16 -18 16 -5
-5z"/>
<path d="M5430 1820 c11 -22 23 -40 25 -40 3 0 -4 18 -15 40 -11 22 -23 40
-25 40 -3 0 4 -18 15 -40z"/>
<path d="M6146 1708 c-16 -24 -25 -34 -22 -23 5 13 -9 4 -38 -25 -25 -24 -46
-45 -46 -45 0 -5 38 2 48 9 17 10 15 0 -4 -30 -9 -13 -15 -27 -12 -29 3 -3 11
6 18 20 7 14 17 25 22 25 4 0 8 9 8 20 0 11 4 20 10 20 5 0 7 -8 4 -17 -4 -10
3 -4 15 12 12 18 18 38 15 49 -4 11 -2 16 4 12 5 -3 10 5 10 19 0 14 -1 25 -2
25 -1 0 -14 -19 -30 -42z"/>
<path d="M5490 1721 c5 -11 15 -23 21 -27 6 -3 3 5 -6 20 -20 30 -30 35 -15 7z"/>
<path d="M6089 1703 c-59 -67 -72 -83 -67 -83 3 0 27 25 53 55 47 56 59 78 14
28z"/>
<path d="M5541 1643 c13 -21 54 -69 91 -108 54 -55 66 -64 56 -40 -14 34 -108
185 -114 185 -6 0 25 -60 48 -93 39 -55 11 -36 -41 28 -60 73 -74 83 -40 28z
m119 -114 c0 -6 -4 -7 -10 -4 -5 3 -10 11 -10 16 0 6 5 7 10 4 6 -3 10 -11 10
-16z"/>
<path d="M5635 1620 c11 -19 76 -112 88 -125 18 -19 -16 40 -46 80 -37 49 -53
66 -42 45z"/>
<path d="M6053 1598 c-15 -19 -34 -58 -29 -58 8 0 48 61 44 66 -3 2 -10 -1
-15 -8z"/>
<path d="M5410 1465 c-11 -13 -10 -14 4 -9 9 3 16 10 16 15 0 13 -6 11 -20 -6z"/>
<path d="M5975 910 c-3 -5 -1 -10 4 -10 6 0 11 5 11 10 0 6 -2 10 -4 10 -3 0
-8 -4 -11 -10z"/>
<path d="M6270 910 c-8 -5 -10 -10 -5 -10 6 0 17 5 25 10 8 5 11 10 5 10 -5 0
-17 -5 -25 -10z"/>
<path d="M5890 776 c0 -2 7 -7 16 -10 8 -3 12 -2 9 4 -6 10 -25 14 -25 6z"/>
<path d="M1678 803 c6 -2 18 -2 25 0 6 3 1 5 -13 5 -14 0 -19 -2 -12 -5z"/>
<path d="M1623 793 c9 -2 23 -2 30 0 6 3 -1 5 -18 5 -16 0 -22 -2 -12 -5z"/>
<path d="M1568 783 c6 -2 18 -2 25 0 6 3 1 5 -13 5 -14 0 -19 -2 -12 -5z"/>
<path d="M1528 773 c7 -3 16 -2 19 1 4 3 -2 6 -13 5 -11 0 -14 -3 -6 -6z"/>
<path d="M1488 763 c7 -3 16 -2 19 1 4 3 -2 6 -13 5 -11 0 -14 -3 -6 -6z"/>
<path d="M1409 745 c-51 -18 -103 -46 -111 -59 -20 -30 96 -80 257 -111 95
-18 92 -18 79 -5 -5 5 -44 14 -85 20 -81 11 -205 52 -228 74 -7 8 -10 19 -7
24 10 17 113 52 154 53 30 0 33 2 17 9 -26 11 -34 11 -76 -5z"/>
<path d="M1778 573 c23 -2 61 -2 85 0 23 2 4 4 -43 4 -47 0 -66 -2 -42 -4z"/>
<path d="M1663 553 c9 -2 23 -2 30 0 6 3 -1 5 -18 5 -16 0 -22 -2 -12 -5z"/>
<path d="M2138 553 c28 -2 76 -2 105 0 28 2 5 3 -53 3 -58 0 -81 -1 -52 -3z"/>
<path d="M8558 553 c6 -2 18 -2 25 0 6 3 1 5 -13 5 -14 0 -19 -2 -12 -5z"/>
<path d="M1718 543 c6 -2 18 -2 25 0 6 3 1 5 -13 5 -14 0 -19 -2 -12 -5z"/>
<path d="M8470 540 c-34 -7 -34 -7 -5 -8 17 0 41 4 55 8 33 11 0 11 -50 0z"/>
<path d="M1783 533 c9 -2 23 -2 30 0 6 3 -1 5 -18 5 -16 0 -22 -2 -12 -5z"/>
<path d="M1853 523 c9 -2 23 -2 30 0 6 3 -1 5 -18 5 -16 0 -22 -2 -12 -5z"/>
<path d="M8393 523 c9 -2 23 -2 30 0 6 3 -1 5 -18 5 -16 0 -22 -2 -12 -5z"/>
<path d="M1918 513 c12 -2 30 -2 40 0 9 3 -1 5 -23 4 -22 0 -30 -2 -17 -4z"/>
<path d="M8333 513 c9 -2 23 -2 30 0 6 3 -1 5 -18 5 -16 0 -22 -2 -12 -5z"/>
<path d="M1993 503 c9 -2 25 -2 35 0 9 3 1 5 -18 5 -19 0 -27 -2 -17 -5z"/>
<path d="M8278 503 c6 -2 18 -2 25 0 6 3 1 5 -13 5 -14 0 -19 -2 -12 -5z"/>
<path d="M2068 493 c12 -2 32 -2 45 0 12 2 2 4 -23 4 -25 0 -35 -2 -22 -4z"/>
<path d="M8203 493 c9 -2 25 -2 35 0 9 3 1 5 -18 5 -19 0 -27 -2 -17 -5z"/>
<path d="M2168 483 c12 -2 30 -2 40 0 9 3 -1 5 -23 4 -22 0 -30 -2 -17 -4z"/>
<path d="M8123 483 c9 -2 23 -2 30 0 6 3 -1 5 -18 5 -16 0 -22 -2 -12 -5z"/>
<path d="M2258 473 c12 -2 30 -2 40 0 9 3 -1 5 -23 4 -22 0 -30 -2 -17 -4z"/>
<path d="M7730 470 c-11 -7 -4 -10 28 -10 23 0 42 5 42 10 0 13 -50 13 -70 0z"/>
<path d="M8053 473 c9 -2 23 -2 30 0 6 3 -1 5 -18 5 -16 0 -22 -2 -12 -5z"/>
<path d="M2353 463 c9 -2 25 -2 35 0 9 3 1 5 -18 5 -19 0 -27 -2 -17 -5z"/>
<path d="M7963 463 c9 -2 25 -2 35 0 9 3 1 5 -18 5 -19 0 -27 -2 -17 -5z"/>
<path d="M2443 453 c15 -2 39 -2 55 0 15 2 2 4 -28 4 -30 0 -43 -2 -27 -4z"/>
<path d="M7878 453 c12 -2 30 -2 40 0 9 3 -1 5 -23 4 -22 0 -30 -2 -17 -4z"/>
<path d="M2548 443 c12 -2 30 -2 40 0 9 3 -1 5 -23 4 -22 0 -30 -2 -17 -4z"/>
<path d="M2668 433 c18 -2 45 -2 60 0 15 2 0 4 -33 4 -33 0 -45 -2 -27 -4z"/>
<path d="M2825 420 c39 -4 95 -7 125 -7 54 0 53 0 -15 7 -38 4 -95 7 -125 7
-54 0 -53 0 15 -7z"/>
<path d="M6978 413 c12 -2 32 -2 45 0 12 2 2 4 -23 4 -25 0 -35 -2 -22 -4z"/>
<path d="M3025 405 c34 -7 531 -34 720 -39 136 -4 102 -1 -140 13 -362 21
-610 32 -580 26z"/>
<path d="M6563 363 c32 -2 81 -2 110 0 29 2 3 3 -58 3 -60 0 -84 -1 -52 -3z"/>
<path d="M6298 353 c34 -2 90 -2 125 0 34 2 6 3 -63 3 -69 0 -97 -1 -62 -3z"/>
<path d="M5503 333 c9 -2 25 -2 35 0 9 3 1 5 -18 5 -19 0 -27 -2 -17 -5z"/>
</g>
</svg>
