<?xml version="1.0" standalone="no"?>
<!DOCTYPE svg PUBLIC "-//W3C//DTD SVG 20010904//EN"
 "http://www.w3.org/TR/2001/REC-SVG-20010904/DTD/svg10.dtd">
<svg version="1.0" xmlns="http://www.w3.org/2000/svg"
 width="1024.000000pt" height="1024.000000pt" viewBox="0 0 1024.000000 1024.000000"
 preserveAspectRatio="xMidYMid meet">
<metadata>
Created by potrace 1.16, written by Peter Selinger 2001-2019
</metadata>
<g transform="translate(0.000000,1024.000000) scale(0.100000,-0.100000)"
fill="#000000" stroke="none">
<path d="M4859 9312 c-26 -11 -85 -42 -132 -71 -112 -68 -235 -124 -437 -200
-332 -126 -551 -253 -669 -389 -155 -180 -249 -408 -310 -752 -18 -97 -41
-303 -41 -362 0 -13 -13 -18 -57 -23 -120 -14 -313 -57 -438 -99 -458 -153
-685 -367 -686 -647 0 -136 49 -249 161 -371 182 -200 607 -468 908 -574 37
-14 68 -35 105 -73 113 -117 207 -167 338 -178 l66 -6 17 -59 c49 -177 184
-352 355 -463 86 -56 253 -137 347 -168 l67 -23 -49 -18 c-91 -34 -168 -84
-304 -197 -156 -129 -236 -183 -354 -240 -118 -57 -120 -61 -92 -131 l23 -56
-44 -31 c-127 -90 -113 -205 74 -611 47 -102 105 -236 129 -298 57 -146 77
-184 112 -214 26 -21 30 -32 34 -94 3 -41 13 -85 26 -109 30 -60 100 -119 163
-140 30 -10 55 -19 57 -20 1 -1 -11 -47 -29 -101 -31 -99 -117 -283 -164 -352
-14 -20 -25 -44 -25 -53 0 -26 82 -92 171 -139 60 -31 79 -46 75 -58 -3 -9 -8
-35 -11 -57 -15 -96 -12 -91 -54 -87 -67 7 -69 -2 -52 -184 l14 -159 -38 -96
-38 -96 -91 -42 c-158 -72 -273 -176 -293 -264 -3 -15 -9 -30 -13 -32 -5 -3
-75 -12 -157 -20 -923 -96 -660 -247 547 -316 294 -16 1558 -23 1940 -10 638
21 1079 62 1312 121 95 25 128 42 128 70 0 53 -228 106 -610 140 -174 16 -162
11 -194 79 -46 100 -156 188 -315 252 l-64 26 -39 98 -40 97 12 102 c6 55 10
130 8 166 l-3 65 -56 3 -57 3 -6 47 c-4 26 -9 63 -12 82 -5 35 -4 36 44 53 62
23 208 111 215 131 4 9 -32 93 -78 188 -53 108 -93 208 -109 266 l-25 92 38
19 c85 44 141 125 141 207 0 24 8 33 49 56 65 36 111 108 177 277 30 75 79
179 109 231 117 201 189 355 205 441 15 77 -1 114 -88 198 l-76 74 17 29 c9
16 17 41 17 54 0 27 -16 38 -204 143 -63 35 -186 117 -273 183 -87 66 -178
131 -202 146 -24 14 -54 36 -67 49 -19 19 -34 23 -91 24 -37 1 -77 0 -88 -1
-43 -4 4 18 122 58 399 135 618 318 729 608 15 38 32 89 38 113 12 44 13 45
81 66 144 44 271 134 350 250 38 54 46 60 215 146 401 204 653 398 794 613
164 249 152 459 -36 647 -92 92 -201 155 -367 213 -222 77 -379 104 -667 113
l-201 6 -6 77 c-13 165 -86 435 -169 624 -109 250 -293 438 -554 569 -105 53
-185 86 -396 161 -84 30 -216 78 -293 107 -264 97 -312 110 -420 115 -82 4
-108 1 -146 -14z m249 -49 c37 -9 159 -51 272 -93 113 -43 255 -94 315 -115
342 -116 494 -192 654 -326 103 -86 166 -170 242 -324 85 -170 191 -492 228
-690 l9 -48 -442 9 c-588 12 -1346 10 -1581 -5 -397 -24 -630 -43 -930 -76
-410 -45 -511 -55 -538 -55 -23 0 -23 1 -15 88 27 287 94 560 183 749 54 115
90 167 180 261 135 141 248 203 700 384 110 44 245 105 300 136 228 127 214
122 288 122 37 0 98 -7 135 -17z m1652 -1642 c526 -9 571 -13 785 -67 151 -38
296 -99 396 -165 98 -66 153 -125 201 -214 28 -52 32 -72 35 -150 l4 -90 -37
67 c-153 282 -524 449 -1179 532 -314 40 -884 82 -1245 92 -255 7 -726 -7
-1050 -31 -498 -37 -1051 -126 -1555 -250 -532 -131 -789 -250 -923 -425 -20
-27 -40 -49 -44 -49 -4 -1 4 25 17 56 85 191 273 323 638 449 158 54 380 88
1117 173 221 26 597 57 850 71 107 6 224 12 260 14 88 5 1120 -3 1730 -13z
m-986 -273 c-63 -107 -192 -283 -224 -305 -11 -8 -20 -24 -20 -35 0 -20 4 -21
73 -15 104 8 330 68 412 110 39 19 90 56 115 81 24 25 45 44 47 42 2 -2 -15
-36 -37 -75 -22 -39 -38 -76 -35 -81 10 -16 47 -12 121 14 119 40 171 75 226
151 29 39 29 39 22 10 -4 -16 -20 -67 -35 -112 -45 -127 -38 -138 51 -78 29
20 54 34 55 33 5 -8 76 -249 85 -288 23 -103 23 -239 0 -400 -24 -170 -23
-297 5 -420 50 -223 -33 -540 -192 -733 -124 -150 -422 -299 -733 -367 -581
-128 -1110 -87 -1523 116 -161 80 -258 162 -341 288 -126 193 -143 271 -176
801 -5 88 -20 234 -34 325 -44 299 -45 278 7 349 53 71 126 218 158 314 12 37
24 66 26 63 6 -5 -24 -176 -49 -279 -12 -48 -18 -90 -15 -93 6 -7 18 -3 129
39 l67 26 -34 -45 c-38 -50 -52 -102 -36 -132 22 -42 63 -36 246 33 86 32 210
45 325 33 135 -15 134 -15 138 5 5 24 -68 92 -151 141 -77 46 -150 67 -233 69
-35 1 -64 3 -64 4 0 1 30 22 68 47 72 48 166 134 226 206 l37 45 -37 -75 c-20
-41 -51 -100 -70 -131 -19 -31 -34 -64 -34 -73 0 -44 176 5 268 76 31 24 62
47 70 51 49 30 -82 -117 -143 -160 -23 -16 -27 -24 -18 -33 9 -9 31 -10 97 -1
124 17 244 54 374 116 143 68 237 134 351 244 50 47 83 75 74 61 -38 -58 -112
-150 -180 -222 -40 -42 -73 -81 -73 -86 0 -33 104 -5 253 69 115 57 191 112
281 205 84 85 92 93 80 72z m1262 -869 c71 -48 124 -178 124 -300 0 -154 -100
-299 -271 -393 -55 -30 -168 -76 -188 -76 -3 0 -6 85 -6 188 l0 189 29 41 c33
48 56 58 96 42 88 -36 74 -151 -23 -199 -29 -15 -36 -21 -21 -21 12 0 39 13
61 29 51 37 70 94 49 144 -16 40 -50 67 -83 67 -13 0 -23 3 -23 8 0 15 100
128 129 145 44 26 85 15 116 -31 28 -41 35 -21 10 28 -34 65 -89 76 -153 30
-49 -35 -134 -145 -165 -212 -12 -26 -25 -48 -29 -48 -5 0 -8 33 -8 73 0 66 3
78 38 137 50 87 149 187 187 192 51 5 89 -4 131 -33z m-3619 -90 c79 -38 152
-172 187 -339 19 -98 52 -417 43 -427 -14 -13 -148 16 -213 46 -126 59 -249
215 -289 367 -21 79 -21 210 0 260 20 48 51 83 90 100 46 20 132 17 182 -7z
m2372 -1753 c47 -141 56 -204 11 -77 -16 46 -50 121 -75 167 -53 99 -57 124
-11 71 25 -28 45 -72 75 -161z m-120 136 c7 -36 16 -201 12 -244 -1 -4 -31 7
-68 25 -132 61 -248 45 -354 -49 l-43 -39 21 35 c57 98 139 228 159 255 20 26
34 31 116 46 149 26 145 27 157 -29z m-1053 -15 c-6 -24 -125 -256 -126 -245
0 16 62 193 86 244 22 47 28 54 36 40 6 -10 7 -27 4 -39z m156 29 l87 -11 88
-104 c48 -57 99 -117 112 -133 l23 -29 -47 30 c-102 64 -208 80 -284 42 -22
-12 -42 -21 -44 -21 -2 0 -7 19 -10 43 -3 23 -17 79 -30 125 l-24 82 21 -6
c12 -4 60 -12 108 -18z m-312 -49 c0 -8 -7 -36 -15 -63 -22 -69 -30 -212 -16
-268 11 -43 10 -49 -13 -79 -29 -39 -44 -87 -26 -87 8 0 10 -9 7 -22 -3 -13
-7 -80 -8 -150 -2 -71 -6 -125 -11 -120 -4 4 -15 50 -25 102 -26 135 -22 370
9 550 l23 135 30 6 c17 4 33 7 38 8 4 0 7 -5 7 -12z m-146 -134 c-11 -70 -18
-177 -20 -307 -1 -154 -5 -200 -15 -207 -21 -13 -28 -11 -22 10 2 10 -2 74
-11 141 -9 67 -16 129 -16 138 0 8 -3 13 -6 9 -4 -3 -10 -85 -14 -182 -8 -181
-14 -205 -52 -205 -38 0 -164 76 -232 140 -56 53 -129 143 -159 196 -4 7 25
30 73 58 43 25 120 81 170 123 168 144 311 237 318 207 2 -7 -4 -62 -14 -121z
m1809 50 c244 -185 279 -211 356 -256 l81 -48 -15 -30 c-25 -47 -154 -169
-235 -223 -41 -27 -87 -58 -103 -68 l-27 -19 -78 68 c-42 38 -88 76 -101 85
l-24 17 27 154 c29 159 35 302 17 365 -5 17 -7 32 -5 32 3 0 51 -35 107 -77z
m-144 25 c31 -89 28 -133 -34 -398 -29 -125 -36 -171 -33 -237 3 -76 2 -80
-12 -55 -11 21 -14 77 -15 257 -1 199 -4 242 -23 321 -12 50 -26 103 -31 118
l-11 26 74 0 74 0 11 -32z m-884 -5 c46 -9 105 -13 138 -10 l57 5 -26 -41
c-14 -23 -42 -75 -62 -114 -20 -40 -39 -73 -42 -73 -3 0 -12 16 -18 35 -14 37
-85 139 -136 194 -24 26 -26 32 -11 27 11 -4 56 -15 100 -23z m-451 -49 c7
-56 23 -114 35 -133 7 -11 16 -8 44 14 44 33 115 55 176 55 57 0 148 -42 211
-98 l45 -39 -18 -57 c-41 -129 -41 -243 -2 -581 8 -71 15 -172 15 -222 l0 -93
-83 0 c-182 0 -442 43 -568 95 -74 30 -81 31 -51 5 34 -29 164 -67 302 -89
175 -28 184 -30 105 -25 -38 2 -142 16 -229 31 -131 22 -166 24 -200 15 -22
-6 -43 -9 -45 -7 -2 2 4 23 14 47 18 45 58 181 70 235 4 19 0 57 -10 95 -20
81 -33 308 -17 308 7 0 12 -14 12 -30 0 -39 35 -206 62 -293 14 -43 28 -72 41
-79 33 -17 188 -22 246 -8 41 10 55 18 63 39 5 14 14 100 19 191 5 91 15 199
23 240 8 41 11 78 8 82 -4 3 -36 16 -71 28 -80 27 -219 29 -305 6 -32 -9 -61
-15 -63 -13 -5 6 150 326 158 326 4 1 9 -20 13 -45z m1132 -136 c46 -154 47
-149 -23 -124 -77 27 -234 28 -310 2 -29 -10 -53 -22 -53 -27 0 -5 11 -65 24
-132 13 -67 27 -167 30 -222 11 -178 14 -192 44 -203 66 -25 242 -18 300 12
l29 15 13 -42 c6 -23 28 -70 47 -104 19 -35 33 -70 31 -80 -7 -38 -364 -102
-585 -106 l-135 -2 1 130 c1 90 -5 173 -20 270 -28 186 -31 378 -6 460 22 70
76 128 159 172 74 39 172 38 278 -1 41 -16 86 -29 100 -30 24 -1 25 1 28 68 2
37 5 66 8 63 3 -3 21 -56 40 -119z m81 -160 c-3 -8 -6 -5 -6 6 -1 11 2 17 5
13 3 -3 4 -12 1 -19z m-2088 -15 c26 -56 106 -166 166 -226 58 -57 109 -91
178 -116 33 -13 34 -21 3 -50 l-23 -22 -60 29 c-77 37 -159 98 -213 159 -51
57 -140 190 -140 209 0 13 45 43 66 44 6 0 16 -12 23 -27z m1986 6 c17 -7 36
-13 42 -13 7 -1 12 -5 10 -11 -1 -5 -5 -9 -9 -8 -4 2 -3 -8 4 -21 16 -38 6
-49 -65 -75 -60 -21 -72 -22 -136 -12 -38 6 -85 11 -104 11 -34 0 -35 1 -51
65 -9 35 -16 66 -16 69 0 18 279 14 325 -5z m-885 -5 c5 -5 4 -31 -2 -59 l-10
-51 -56 -11 c-32 -6 -82 -17 -113 -24 -55 -12 -59 -12 -158 25 -55 21 -101 43
-101 48 0 37 55 66 155 82 50 7 275 0 285 -10z m1764 -5 c14 -11 26 -26 26
-32 0 -7 -24 -40 -53 -74 -86 -101 -206 -199 -310 -253 l-47 -25 -25 30 c-13
17 -24 32 -25 35 0 3 34 24 75 48 98 55 202 146 262 227 26 36 53 65 59 65 6
0 23 -9 38 -21z m-772 -111 c-11 -62 -2 -152 22 -223 40 -119 57 -175 77 -259
19 -81 20 -90 5 -104 -15 -15 -16 -15 -16 1 0 9 5 17 10 17 6 0 10 5 10 11 0
6 -7 9 -15 5 -18 -7 -20 15 -2 34 10 12 9 12 -4 2 -13 -10 -21 -4 -47 36 -46
71 -52 92 -64 238 -11 130 -9 151 19 289 10 51 15 10 5 -47z m-2138 -64 c41
-64 121 -145 187 -187 l56 -36 6 -108 c16 -261 59 -411 122 -424 17 -4 47 -14
67 -23 21 -9 41 -16 46 -16 5 0 35 22 66 50 39 34 74 55 112 66 65 19 101 14
182 -24 l57 -27 -3 -58 c-2 -31 -4 -57 -6 -57 -2 0 -34 16 -71 35 -61 32 -75
36 -133 33 -81 -4 -93 -23 -20 -32 74 -9 116 -24 165 -57 47 -32 59 -58 43
-89 -20 -37 -55 -36 -113 4 -60 41 -117 63 -189 72 -74 10 -55 -9 41 -41 44
-14 98 -40 121 -56 67 -49 87 -124 40 -149 -17 -9 -29 -2 -79 44 -63 58 -107
76 -181 75 -51 0 -46 -3 54 -40 63 -23 172 -116 164 -140 -6 -18 -56 -31 -97
-25 -18 3 -63 23 -100 44 -41 25 -84 42 -114 46 -61 7 -134 39 -169 73 -15 14
-46 71 -69 127 -23 55 -93 220 -154 366 -113 266 -165 409 -165 456 0 14 5 35
11 47 12 23 79 97 89 97 3 0 18 -21 34 -46z m3055 -81 c17 -26 31 -59 31 -74
0 -44 -54 -170 -150 -349 -124 -233 -155 -296 -194 -400 -42 -111 -73 -161
-128 -200 -38 -28 -48 -30 -125 -30 -73 0 -95 -4 -156 -31 -45 -20 -95 -34
-134 -37 -57 -4 -63 -3 -63 15 0 43 161 153 225 153 11 0 27 5 35 10 21 14
-110 13 -147 -1 -15 -6 -52 -29 -81 -52 -60 -45 -84 -43 -90 8 -7 57 78 115
221 151 84 21 89 39 8 31 -94 -10 -160 -38 -247 -102 -8 -6 -23 -6 -41 1 -23
8 -29 16 -31 46 -3 33 1 40 38 67 52 38 117 59 200 65 36 2 67 5 70 6 3 0 -6
7 -20 15 -36 20 -117 18 -185 -5 -32 -11 -60 -20 -62 -20 -1 0 -3 18 -3 40 0
59 58 103 153 116 54 8 106 -14 181 -76 26 -22 54 -40 62 -40 18 0 83 38 118
69 44 40 61 89 107 323 l43 216 68 49 c37 26 91 74 119 105 l52 58 48 -41 c26
-22 61 -61 78 -86z m-2128 67 c19 0 63 7 99 15 36 8 74 17 86 20 20 4 20 2 16
-168 -3 -131 -7 -176 -18 -187 -11 -11 -38 -15 -112 -14 -53 0 -113 3 -134 7
-35 7 -36 9 -40 55 -2 26 -21 103 -41 171 -21 69 -35 131 -33 138 4 10 21 7
74 -12 38 -14 85 -25 103 -25z m1144 -82 c13 -209 13 -211 -15 -219 -14 -4
-83 -7 -153 -8 -94 -1 -129 2 -131 12 -2 6 -9 68 -15 137 -7 69 -15 138 -18
153 l-6 29 124 -7 c78 -4 133 -3 149 3 55 23 57 21 65 -100z m244 35 c31 -25
93 -83 138 -127 l83 -80 53 26 53 26 -39 -182 c-22 -99 -43 -185 -47 -189 -4
-4 -19 44 -34 107 -29 124 -39 140 -125 198 -40 28 -48 30 -102 24 l-59 -6 0
73 c0 79 10 177 18 177 3 0 30 -21 61 -47z m-1725 -35 c2 -7 11 -40 21 -72 13
-47 15 -77 10 -148 l-7 -89 -31 3 c-36 3 -39 14 -51 173 -7 83 -5 93 14 118
23 29 39 34 44 15z m-93 -203 c4 -140 -4 -151 -66 -89 -30 30 -41 35 -66 30
-55 -11 -32 33 65 125 34 32 62 57 63 56 0 -1 3 -56 4 -122z m-154 38 l22 -5
-26 -49 c-14 -27 -29 -49 -33 -49 -4 0 -10 21 -14 46 -9 71 -8 77 12 69 9 -4
27 -10 39 -12z m343 -83 c0 -73 -7 -95 -26 -79 -14 12 -21 139 -7 152 17 17
33 -19 33 -73z m1660 -86 c0 -96 -3 -124 -13 -124 -9 0 -21 35 -36 105 -12 58
-24 111 -27 119 -4 10 0 13 14 9 11 -2 26 2 33 10 8 8 17 13 22 10 4 -2 7 -60
7 -129z m97 47 c16 -14 27 -47 48 -149 l26 -131 -42 -38 c-23 -21 -45 -39 -49
-41 -14 -5 -31 27 -31 60 2 320 1 319 19 318 4 -1 17 -9 29 -19z m-2042 -67
c40 -52 65 -142 65 -231 0 -68 -2 -74 -17 -68 -10 4 -30 11 -45 17 -39 14 -77
100 -84 186 -3 37 -7 82 -9 100 -4 30 -2 32 29 32 27 0 39 -7 61 -36z m205
-45 c0 -33 5 -69 11 -80 17 -33 -12 -99 -44 -99 -1 0 -1 54 1 120 3 96 6 120
18 120 11 0 14 -15 14 -61z m50 7 c0 -3 -4 -8 -10 -11 -5 -3 -10 -1 -10 4 0 6
5 11 10 11 6 0 10 -2 10 -4z m1610 -65 c0 -24 -3 -28 -20 -24 -11 3 -20 10
-20 15 0 6 7 7 16 4 11 -4 15 -2 11 8 -5 12 0 26 10 26 2 0 3 -13 3 -29z
m-1730 -38 c-1 -64 -13 -56 -24 15 -5 34 -3 42 9 42 12 0 15 -13 15 -57z
m1788 -51 c5 -16 -7 -15 -38 3 l-25 14 29 -2 c16 -1 31 -8 34 -15z m-328 -110
c0 -52 -5 -85 -14 -98 -13 -17 -14 -10 -9 59 5 66 3 80 -12 97 -18 19 -17 20
8 20 27 0 27 0 27 -78z m-402 49 c18 -11 33 -147 24 -203 -6 -32 -14 -46 -33
-55 -13 -7 -95 -15 -180 -19 l-156 -7 -11 44 c-17 69 -2 192 28 224 23 25 26
25 169 25 80 0 152 -4 159 -9z m-623 -18 c-11 -30 -25 -113 -25 -152 0 -27 -3
-32 -10 -21 -14 22 -12 147 2 170 16 25 43 27 33 3z m960 -50 c-4 -32 -10 -61
-13 -65 -12 -12 -134 -39 -201 -45 l-66 -5 0 68 0 69 85 7 c47 4 105 12 130
17 76 15 73 17 65 -46z m-811 -12 l71 -6 -3 -34 c-1 -19 -4 -37 -6 -39 -5 -4
-149 16 -178 24 -13 4 -18 16 -18 40 0 35 1 35 32 29 17 -4 63 -10 102 -14z
m825 -143 c-6 -49 32 -98 76 -98 23 0 25 -3 25 -44 0 -35 5 -48 22 -60 12 -8
25 -13 30 -10 4 3 8 -6 8 -20 0 -40 10 -56 53 -77 32 -17 49 -19 86 -13 25 4
50 8 55 9 5 0 23 -54 41 -120 42 -152 112 -350 172 -484 l46 -103 -24 -19
c-66 -50 -187 -114 -263 -140 -94 -32 -256 -54 -467 -64 l-136 -7 -11 29 c-25
61 -72 214 -101 323 -17 63 -37 138 -45 165 -9 28 -16 62 -16 76 0 25 1 25 59
21 67 -5 193 18 276 50 30 11 54 22 52 24 -1 2 -43 -3 -92 -11 -50 -8 -132
-15 -183 -15 -98 0 -226 25 -216 42 4 6 -2 7 -16 3 -13 -4 -20 -3 -17 2 5 8
-123 48 -218 68 -16 3 33 -26 110 -65 l140 -71 -60 5 c-33 3 -85 8 -115 11
l-55 6 40 -23 c31 -17 56 -22 112 -23 40 0 73 -4 73 -8 0 -4 -6 -21 -14 -36
-14 -26 -59 -166 -144 -443 l-36 -118 -177 0 c-195 0 -316 16 -410 54 -59 24
-182 97 -232 139 l-28 24 60 124 c67 139 132 325 166 474 l22 100 55 5 c59 5
85 20 99 57 5 13 15 23 23 23 28 0 56 50 56 101 0 42 3 49 19 49 11 0 33 11
49 25 17 14 37 23 45 19 8 -3 22 2 31 11 15 15 22 15 100 -4 47 -12 95 -21
108 -21 13 0 29 -9 37 -22 13 -20 17 -21 161 -15 106 4 165 12 207 25 32 11
96 24 143 30 47 6 110 19 140 30 68 24 81 25 79 10z m-1610 -248 c-11 -30 -33
-44 -24 -15 3 8 7 22 10 30 2 8 9 15 14 15 6 0 6 -11 0 -30z m58 -2 c2 -18 0
-20 -7 -8 -12 18 -13 30 -2 30 4 0 9 -10 9 -22z m2135 -38 c-2 -19 -8 -42 -12
-51 -10 -18 -119 -104 -124 -98 -5 6 -46 152 -43 155 13 12 100 31 136 30 l46
-1 -3 -35z m-2091 -6 c-11 -15 -21 -24 -21 -20 0 12 33 57 37 52 3 -3 -4 -17
-16 -32z m-61 23 c0 -2 -12 -14 -27 -28 l-28 -24 24 28 c23 25 31 32 31 24z
m141 -12 c0 -6 -5 -32 -11 -60 -6 -27 -13 -60 -16 -72 -5 -26 -26 -30 -44 -8
-10 12 -10 18 0 30 11 13 15 13 21 3 6 -9 9 -6 9 9 0 12 5 25 10 28 17 11 11
24 -10 22 -11 -1 -20 -6 -20 -11 0 -5 -3 -6 -6 -3 -9 9 45 79 58 75 5 -2 9 -8
9 -13z m-135 -32 c-6 -32 -18 -53 -27 -47 -5 3 -2 18 6 35 17 33 27 38 21 12z
m161 -15 c-3 -8 -6 -5 -6 6 -1 11 2 17 5 13 3 -3 4 -12 1 -19z m-117 -34 c0
-8 -4 -13 -9 -9 -6 3 -14 -3 -20 -12 -6 -10 -11 -13 -11 -6 0 11 26 43 36 43
2 0 4 -7 4 -16z m1052 -343 c9 -112 49 -300 94 -441 51 -162 49 -160 140 -160
83 0 80 3 87 -82 4 -42 2 -58 -7 -58 -7 0 -20 -6 -29 -13 -17 -11 -16 -17 8
-92 71 -222 78 -284 51 -420 -8 -44 -17 -114 -18 -155 l-3 -75 -357 -3 -358
-2 0 59 c0 33 -9 109 -21 168 -26 133 -23 175 29 358 21 77 37 146 34 153 -2
6 -16 12 -29 12 -25 0 -26 1 -19 53 3 28 6 64 6 80 0 27 0 27 70 27 85 0 88 4
120 140 25 110 101 386 131 478 18 54 24 63 43 60 19 -3 22 -11 28 -87z m-981
-737 c49 -17 230 -54 269 -54 42 0 53 -14 46 -55 -7 -35 -8 -36 -39 -29 -18 4
-93 8 -167 8 l-134 1 -7 35 c-11 57 -18 110 -15 110 2 0 23 -7 47 -16z m1939
-8 c0 -13 -3 -44 -6 -70 l-7 -46 -99 0 c-55 0 -131 -5 -170 -11 -38 -6 -74 -7
-78 -2 -4 4 -10 26 -14 49 l-6 40 138 18 c75 10 153 24 172 31 55 20 70 18 70
-9z m-408 -145 c18 -108 52 -192 93 -231 22 -21 25 -21 96 -6 41 8 110 17 155
21 68 6 83 4 97 -10 28 -27 20 -31 -50 -27 -82 5 -191 -19 -251 -54 -24 -14
-42 -28 -39 -30 3 -3 24 -1 48 5 248 55 367 38 535 -77 103 -69 191 -171 167
-191 -11 -10 -186 -59 -252 -71 -110 -20 -382 -7 -640 30 -74 11 -136 22 -139
25 -13 13 9 11 93 -8 80 -18 125 -20 395 -21 222 -1 310 2 325 11 16 10 -10
13 -140 14 -315 2 -352 14 -65 20 357 7 378 24 32 25 -238 1 -561 21 -639 41
-29 7 -29 18 -3 164 27 155 25 231 -9 361 l-28 107 71 4 c39 2 84 3 101 3 l29
-1 18 -104z m-956 72 c-3 -16 -15 -62 -26 -103 -31 -109 -36 -202 -17 -301 9
-46 19 -109 23 -140 l6 -56 -34 -7 c-101 -20 -399 -39 -625 -40 -332 -1 -306
-19 37 -25 255 -5 252 -15 -5 -21 -60 -1 -132 -5 -160 -9 -43 -6 -32 -8 80
-15 236 -16 591 5 678 39 9 4 17 3 17 -3 0 -21 -286 -58 -530 -67 -145 -6
-177 -5 -266 14 -128 26 -234 59 -234 72 0 26 62 96 132 149 110 83 205 127
294 135 63 7 201 -5 274 -22 25 -6 25 -6 6 15 -32 36 -111 57 -213 57 -51 -1
-93 2 -93 5 0 4 9 15 20 25 19 17 28 17 133 6 61 -7 129 -16 150 -20 34 -8 39
-7 57 20 39 54 60 117 72 218 l12 101 109 0 110 0 -7 -27z m-281 -185 c-3 -13
-13 -42 -21 -65 l-15 -42 -47 20 c-26 12 -92 25 -153 31 -114 12 -110 10 -93
66 2 9 45 12 169 12 l166 0 -6 -22z m1629 16 c10 -4 16 -18 16 -35 0 -27 -2
-29 -42 -29 -69 0 -170 -19 -214 -40 -22 -11 -43 -20 -46 -20 -7 0 -48 104
-48 120 0 11 307 14 334 4z m-1656 -501 c-10 -2 -28 -2 -40 0 -13 2 -5 4 17 4
22 1 32 -1 23 -4z m-697 -89 c35 -14 93 -32 129 -40 l65 -14 -104 6 c-150 8
-161 11 -161 45 0 16 1 29 3 29 2 0 32 -12 68 -26z m2839 -8 c0 -30 -14 -34
-155 -40 l-110 -6 65 14 c36 8 90 23 120 34 72 27 80 26 80 -2z"/>
<path d="M4910 8981 c-136 -46 -331 -118 -338 -125 -14 -14 -20 -145 -11 -222
21 -178 94 -313 214 -399 76 -55 232 -130 302 -146 48 -11 54 -10 124 22 284
128 409 295 409 548 0 116 -17 209 -41 222 -36 19 -490 129 -532 129 -23 -1
-80 -14 -127 -29z m310 -56 c69 -18 166 -42 215 -54 50 -12 94 -26 98 -30 18
-18 20 -158 2 -237 -38 -177 -120 -286 -271 -360 -105 -52 -138 -54 -228 -11
-41 19 -96 55 -122 79 -43 39 -46 40 -26 11 13 -18 39 -46 60 -63 44 -36 37
-38 -26 -6 -86 43 -173 117 -214 180 -42 66 -85 191 -94 276 l-6 55 53 17 c37
12 43 15 19 12 -19 -3 -43 -8 -53 -11 -15 -4 -18 0 -15 19 2 19 16 28 83 50
44 15 123 44 175 65 156 61 150 60 350 8z m329 -386 c-32 -150 -136 -262 -338
-364 -89 -45 -96 -47 -132 -36 -43 13 -188 88 -264 136 -90 58 -161 156 -180
250 -3 17 5 4 19 -27 34 -81 71 -129 136 -177 77 -58 213 -121 288 -134 57
-10 70 -9 130 12 87 30 189 97 235 153 41 50 80 130 98 201 16 65 22 54 8 -14z
m-922 29 c-3 -8 -6 -5 -6 6 -1 11 2 17 5 13 3 -3 4 -12 1 -19z"/>
<path d="M4989 8877 c-57 -22 -105 -54 -134 -92 -64 -85 -102 -224 -75 -274
13 -26 66 -51 105 -51 22 0 25 -4 20 -20 -9 -30 2 -54 34 -73 35 -21 41 -21
41 -3 0 8 -13 19 -30 25 -34 11 -35 14 -18 75 9 36 9 48 -1 60 -19 22 -34 20
-21 -3 25 -48 -2 -65 -66 -41 -24 10 -26 14 -20 50 5 32 3 41 -15 54 -18 12
-20 21 -14 52 16 88 79 170 161 210 53 26 58 26 201 22 94 -3 137 -1 118 4
-55 17 -247 20 -286 5z m-179 -329 c0 -7 -5 -20 -10 -28 -8 -12 -10 -9 -10 13
0 15 5 27 10 27 6 0 10 -6 10 -12z"/>
<path d="M5013 8770 c-24 -10 -43 -22 -43 -25 0 -3 13 1 30 10 73 38 196 -2
258 -84 43 -58 41 -89 -10 -114 -21 -10 -38 -22 -38 -26 0 -4 14 -20 30 -36
54 -52 32 -104 -60 -135 -59 -21 -41 -27 25 -9 49 13 71 32 97 83 17 33 19 50
13 110 -9 87 -31 132 -89 183 -71 63 -140 77 -213 43z m293 -235 c3 -14 3 -42
-1 -63 l-8 -37 -8 29 c-4 16 -18 38 -30 49 l-21 20 23 13 c33 18 38 17 45 -11z"/>
<path d="M5414 8749 c-3 -6 -18 -8 -33 -5 -17 4 -21 3 -11 -3 8 -4 32 -11 52
-14 35 -5 37 -4 25 14 -13 22 -23 24 -33 8z"/>
<path d="M5512 8684 c-5 -89 -69 -194 -119 -194 -22 0 -40 -16 -29 -27 12 -12
68 21 100 59 38 44 60 108 53 159 -4 34 -4 34 -5 3z"/>
<path d="M5416 8664 c4 -10 11 -24 16 -30 5 -8 1 -13 -13 -17 -11 -3 -18 -10
-15 -15 3 -6 15 -8 26 -5 26 7 26 44 0 68 -20 18 -21 18 -14 -1z"/>
<path d="M5430 8571 c0 -6 5 -13 10 -16 6 -3 10 1 10 9 0 9 -4 16 -10 16 -5 0
-10 -4 -10 -9z"/>
<path d="M5820 8858 c30 -12 167 -65 305 -119 137 -54 251 -96 253 -94 12 12
-236 114 -478 196 -121 41 -173 52 -80 17z"/>
<path d="M5330 8010 c-28 -6 -19 -8 40 -9 123 -2 387 -21 505 -37 61 -8 128
-16 150 -19 123 -14 435 -70 539 -96 43 -11 80 -18 83 -16 13 13 -228 84 -397
116 -267 52 -797 87 -920 61z"/>
<path d="M5180 7914 c-380 -23 -805 -94 -1345 -226 -97 -24 -206 -57 -190 -57
6 -1 78 14 160 33 361 81 427 96 555 120 356 67 628 96 956 103 416 9 696 -20
1094 -112 19 -5 17 -2 -7 9 -76 35 -333 88 -543 111 -132 15 -552 26 -680 19z"/>
<path d="M5881 6994 c-62 -22 -110 -54 -154 -103 -67 -75 -98 -181 -55 -189
10 -2 53 10 96 26 177 69 308 76 478 26 47 -13 90 -22 95 -19 31 20 -20 117
-94 180 -74 64 -141 90 -237 92 -58 2 -99 -2 -129 -13z"/>
<path d="M4140 6633 c-176 -61 -278 -257 -250 -479 10 -80 46 -184 86 -247 14
-23 23 -33 19 -22 -4 11 -18 48 -31 82 -114 304 22 600 283 620 74 6 75 1 5
-37 -55 -30 -102 -89 -133 -167 -19 -49 -23 -77 -24 -178 0 -110 2 -125 27
-177 86 -184 286 -260 411 -157 20 17 51 59 69 97 31 63 33 72 33 177 0 174
-46 297 -149 401 -97 97 -226 129 -346 87z m369 -252 c42 -30 64 -67 68 -118
4 -39 0 -55 -19 -83 -84 -125 -268 -68 -268 84 0 43 5 58 31 89 47 58 130 70
188 28z m-255 -293 c9 -12 16 -30 16 -40 0 -24 -35 -58 -60 -58 -27 0 -60 35
-60 64 0 54 74 78 104 34z"/>
<path d="M5898 6640 c-44 -13 -93 -47 -138 -96 -142 -154 -143 -449 0 -577 85
-78 186 -98 275 -56 54 25 90 65 122 136 73 158 41 333 -83 463 -32 33 -55 63
-52 65 10 10 118 -36 161 -69 56 -43 111 -124 139 -205 19 -54 23 -87 23 -188
0 -134 11 -138 35 -15 44 224 -91 480 -284 537 -53 16 -154 19 -198 5z m147
-208 c33 -19 75 -92 75 -131 0 -41 -39 -110 -74 -128 -71 -38 -177 -8 -212 59
-20 39 -20 107 0 146 17 32 58 66 91 75 30 8 86 -2 120 -21z m-213 -317 c17
-37 -3 -75 -40 -75 -34 0 -52 16 -52 46 0 42 11 54 46 54 27 0 37 -5 46 -25z"/>
<path d="M5691 5953 c14 -41 56 -79 108 -98 68 -24 82 -17 21 11 -30 14 -73
45 -97 71 -40 42 -42 44 -32 16z"/>
<path d="M4596 5875 c-37 -71 -93 -121 -151 -136 -63 -16 -49 -23 17 -10 67
14 118 55 147 117 34 71 22 97 -13 29z"/>
<path d="M5120 5871 c-40 -13 -84 -37 -103 -59 -24 -27 -46 -90 -39 -114 4
-16 11 -8 31 34 36 73 83 100 167 96 47 -3 72 -10 103 -31 47 -31 53 -23 15
22 -16 20 -44 36 -77 46 -56 16 -61 17 -97 6z"/>
<path d="M6112 5823 c-24 -8 -41 -17 -39 -19 2 -2 28 5 58 15 30 11 47 20 39
19 -8 0 -34 -6 -58 -15z"/>
<path d="M6203 5783 c15 -2 37 -2 50 0 12 2 0 4 -28 4 -27 0 -38 -2 -22 -4z"/>
<path d="M6138 5773 c7 -3 16 -2 19 1 4 3 -2 6 -13 5 -11 0 -14 -3 -6 -6z"/>
<path d="M4165 5760 c17 -4 44 -8 60 -8 l30 0 -30 8 c-16 4 -43 8 -60 8 l-30
0 30 -8z"/>
<path d="M4268 5743 c7 -3 16 -2 19 1 4 3 -2 6 -13 5 -11 0 -14 -3 -6 -6z"/>
<path d="M5760 5722 c0 -4 5 -13 12 -20 18 -18 -14 -46 -106 -90 -172 -84
-349 -114 -681 -115 -243 -1 -316 8 -417 51 -38 17 -46 24 -41 41 5 21 4 21
-48 -4 -56 -25 -161 -96 -154 -104 5 -5 52 14 127 50 l57 27 33 -37 c18 -21
60 -69 93 -107 182 -211 376 -307 585 -289 103 8 152 21 240 63 146 68 296
258 340 430 13 50 16 53 40 47 14 -3 51 -18 83 -34 31 -15 57 -25 57 -22 -1
13 -82 73 -122 90 -55 24 -98 34 -98 23z m-31 -124 c-7 -13 -40 -50 -75 -84
-73 -71 -184 -131 -319 -171 -78 -23 -109 -26 -230 -27 -118 -1 -151 2 -210
21 -71 22 -177 83 -205 118 -14 17 -13 18 25 12 288 -46 809 23 981 129 48 29
47 29 33 2z"/>
<path d="M4163 5663 c9 -2 25 -2 35 0 9 3 1 5 -18 5 -19 0 -27 -2 -17 -5z"/>
<path d="M4118 5653 c7 -3 16 -2 19 1 4 3 -2 6 -13 5 -11 0 -14 -3 -6 -6z"/>
<path d="M3272 6203 c-15 -6 -46 -63 -38 -71 4 -3 15 4 26 16 25 26 41 27 87
5 28 -13 33 -20 28 -37 -16 -52 -17 -61 -3 -36 19 35 37 34 82 -4 l39 -33 -29
-14 c-90 -44 -91 -214 -1 -269 44 -27 80 -25 114 6 l28 26 -29 -21 c-35 -25
-59 -26 -97 -4 -75 45 -82 204 -10 243 30 15 38 13 83 -27 57 -52 35 -15 -50
83 -101 116 -174 160 -230 137z"/>
<path d="M5904 4316 c-3 -8 -4 -23 -2 -33 3 -11 6 -6 9 15 6 34 2 42 -7 18z"/>
<path d="M5683 4289 c24 -14 23 -43 -3 -36 -25 6 -27 -9 -2 -17 13 -4 12 -4
-3 -3 -15 2 -20 9 -18 31 2 23 0 26 -13 16 -19 -17 -18 -34 5 -54 34 -31 83
13 61 55 -6 10 -18 19 -28 19 -16 -1 -16 -1 1 -11z"/>
<path d="M4615 4240 c-9 -15 3 -47 22 -54 25 -10 51 20 37 42 -13 20 -49 28
-59 12z m41 -14 c18 -14 18 -15 0 -22 -11 -4 -21 -2 -27 7 -19 31 -5 38 27 15z"/>
<path d="M5093 3411 c-46 -4 -78 -12 -88 -22 -20 -20 -26 -181 -8 -200 16 -16
269 -7 302 10 21 12 23 18 19 79 -2 37 -12 84 -21 105 -16 37 -16 37 -74 35
-32 -1 -90 -4 -130 -7z m167 -60 c5 -11 10 -33 10 -50 0 -30 -1 -31 -50 -31
-34 0 -52 -5 -58 -15 -6 -13 -23 -15 -78 -13 l-69 3 -3 57 -3 57 43 4 c24 2
78 4 120 5 67 2 79 -1 88 -17z"/>
<path d="M5148 2653 c7 -3 16 -2 19 1 4 3 -2 6 -13 5 -11 0 -14 -3 -6 -6z"/>
<path d="M5198 2643 c7 -3 16 -2 19 1 4 3 -2 6 -13 5 -11 0 -14 -3 -6 -6z"/>
<path d="M5260 2447 c0 -27 49 -93 109 -149 123 -114 241 -161 399 -161 56 0
98 5 105 12 8 8 0 11 -34 11 -98 1 -254 36 -334 76 -77 38 -188 132 -229 194
-9 13 -16 21 -16 17z"/>
</g>
</svg>
