<?xml version="1.0" standalone="no"?>
<!DOCTYPE svg PUBLIC "-//W3C//DTD SVG 20010904//EN"
 "http://www.w3.org/TR/2001/REC-SVG-20010904/DTD/svg10.dtd">
<svg version="1.0" xmlns="http://www.w3.org/2000/svg"
 width="1024.000000pt" height="1024.000000pt" viewBox="0 0 1024.000000 1024.000000"
 preserveAspectRatio="xMidYMid meet">
<metadata>
Created by potrace 1.16, written by Peter Selinger 2001-2019
</metadata>
<g transform="translate(0.000000,1024.000000) scale(0.100000,-0.100000)"
fill="#000000" stroke="none">
<path d="M4922 10004 c-151 -19 -307 -50 -477 -94 -1053 -273 -1748 -821
-1993 -1570 -68 -209 -98 -434 -89 -685 10 -267 51 -560 87 -622 19 -33 19
-33 -7 -89 -65 -142 -29 -347 88 -501 22 -30 47 -77 56 -106 40 -139 146 -289
266 -380 89 -68 141 -95 236 -122 l74 -22 -57 -18 c-163 -51 -297 -185 -346
-344 -63 -202 -16 -416 129 -589 33 -39 57 -73 53 -76 -24 -14 -166 -47 -253
-57 l-101 -12 6 -36 c17 -107 139 -264 274 -352 131 -86 312 -141 510 -155 50
-4 92 -9 92 -11 0 -2 -38 -67 -85 -145 -89 -147 -104 -182 -97 -231 5 -29 71
-106 120 -139 l23 -16 -55 -223 c-30 -123 -60 -251 -66 -284 -8 -38 -30 -92
-61 -146 -61 -106 -85 -167 -94 -242 -15 -120 42 -266 126 -322 25 -16 54 -43
65 -60 10 -17 30 -32 44 -33 13 -2 43 -19 66 -38 57 -47 95 -59 130 -42 43 21
67 61 72 123 l5 57 43 -50 c29 -34 60 -56 92 -68 26 -10 66 -31 88 -46 23 -15
64 -33 92 -39 l51 -10 -5 -127 c-8 -220 -12 -254 -52 -382 -31 -101 -43 -127
-63 -137 -32 -16 -49 -41 -49 -74 0 -14 -7 -32 -16 -40 -27 -22 -42 -63 -50
-130 -4 -35 -13 -82 -21 -103 -16 -46 -4 -97 28 -119 18 -13 18 -19 7 -97 -9
-68 -18 -93 -51 -144 -22 -33 -57 -97 -78 -141 -32 -69 -43 -106 -65 -222 -3
-16 -14 -23 -46 -28 -133 -21 -204 -57 -182 -93 14 -22 95 -49 214 -72 52 -9
117 -27 144 -39 82 -36 201 -51 410 -51 210 1 327 12 362 35 21 13 63 14 361
4 444 -15 1456 -5 1633 16 141 16 306 55 354 83 41 24 41 53 0 71 -29 13 -32
18 -38 80 -10 96 -25 137 -67 185 -65 74 -228 137 -390 152 l-67 7 -33 76
c-18 42 -45 99 -60 127 -25 47 -25 53 -11 79 12 24 13 37 3 76 -10 37 -10 60
0 107 11 52 10 63 -3 84 -9 14 -31 29 -50 34 l-33 10 4 63 c3 52 0 66 -17 84
-41 45 -52 120 -52 356 0 188 2 221 15 221 8 0 32 7 54 16 53 21 71 61 71 154
l0 72 25 -16 c60 -39 150 -6 232 88 110 125 109 243 -7 601 -22 66 -70 200
-108 297 l-69 177 34 33 c89 86 93 166 19 323 -59 126 -267 520 -363 688 -113
201 -152 250 -234 298 -74 43 -187 93 -235 103 -18 4 -58 36 -102 81 -41 41
-78 75 -83 75 -5 0 -9 4 -9 8 0 5 42 12 93 15 117 8 276 38 428 83 443 129
790 366 920 629 59 121 72 187 67 332 -4 86 -1 128 7 140 22 32 53 128 60 185
11 85 -8 149 -56 193 -35 32 -39 40 -39 85 0 44 3 51 28 64 29 16 84 70 125
126 64 87 137 280 137 361 0 33 23 49 73 49 110 0 411 77 524 134 204 102 236
282 78 439 -101 101 -402 211 -746 271 l-35 6 -22 99 c-69 303 -270 769 -454
1053 -216 330 -569 528 -1048 588 -113 14 -381 11 -508 -6z m608 -115 c303
-51 558 -174 735 -353 195 -197 415 -621 560 -1081 55 -175 54 -171 35 -168
-8 1 -87 11 -175 23 -88 11 -227 29 -310 40 -287 37 -507 49 -930 52 -428 2
-469 -1 -715 -48 -100 -19 -133 -40 -50 -31 110 12 235 20 230 14 -3 -3 -52
-15 -110 -26 -237 -49 -514 -158 -909 -358 -145 -73 -265 -132 -266 -131 -9
12 -100 405 -124 533 -44 242 -56 361 -55 580 0 152 4 218 17 275 24 104 86
230 130 264 20 15 105 58 189 96 384 171 808 294 1135 329 54 6 114 13 133 15
82 10 361 -5 480 -25z m-2110 -589 c-42 -124 -54 -234 -47 -450 8 -265 40
-463 134 -838 31 -126 52 -227 47 -232 -5 -5 -83 -51 -174 -103 -423 -241
-566 -332 -753 -482 -60 -48 -110 -85 -112 -83 -15 15 -55 410 -55 548 l0 97
83 64 c173 134 537 460 537 480 0 15 -87 -48 -349 -253 -302 -237 -271 -216
-271 -183 0 47 30 236 50 315 66 259 178 487 340 689 77 96 244 265 330 333
62 50 262 189 266 185 2 -1 -10 -41 -26 -87z m2595 -998 l60 -7 -95 -8 c-115
-10 -347 -48 -461 -77 -139 -35 -330 -97 -604 -196 -535 -195 -835 -260 -1160
-252 l-130 3 203 103 c552 279 919 398 1377 446 62 6 743 -4 810 -12z m524
-67 c369 -41 726 -116 936 -197 72 -27 65 -34 -9 -8 -70 24 -276 74 -371 90
-280 47 -695 70 -950 52 -234 -17 -343 -36 -602 -108 -112 -31 -222 -69 -573
-194 -314 -113 -559 -198 -610 -213 -84 -24 -272 -55 -405 -67 -130 -11 -576
-12 -613 -2 -20 6 -18 9 25 32 27 14 79 42 117 64 l69 40 186 -3 c383 -5 654
51 1191 247 506 185 693 234 1045 275 87 11 444 5 564 -8z m-677 -481 c-4 -89
-29 -171 -77 -254 -44 -75 -99 -220 -93 -245 2 -9 31 11 78 51 135 117 231
158 375 158 76 0 99 -4 147 -26 32 -15 80 -48 108 -74 27 -26 50 -44 50 -42 0
17 -56 129 -89 177 -48 71 -105 123 -171 156 l-51 26 49 38 c26 21 60 53 75
71 34 39 40 36 102 -64 112 -180 150 -311 185 -627 22 -203 28 -235 42 -221
10 10 -7 353 -22 430 -4 23 -5 42 -3 42 3 0 30 -22 61 -50 31 -27 60 -50 64
-50 13 0 9 -235 -7 -507 l-15 -248 25 -110 c63 -279 16 -453 -175 -646 -245
-249 -676 -431 -1135 -480 -291 -31 -742 25 -1103 137 -315 98 -530 226 -761
454 l-93 92 -52 -16 c-28 -10 -78 -20 -111 -23 -211 -19 -448 133 -559 358
-63 128 -79 199 -74 323 3 87 8 110 34 166 61 130 124 175 239 174 126 -1 247
-74 412 -249 55 -58 105 -105 112 -105 27 0 177 266 211 375 8 25 37 66 79
110 121 127 206 251 257 375 l22 55 94 6 c51 4 120 10 153 13 l60 7 -80 -43
c-116 -63 -171 -103 -250 -182 -95 -96 -232 -303 -212 -322 3 -4 48 36 99 88
76 76 110 102 183 140 317 162 610 185 900 69 42 -17 81 -31 86 -31 19 0 7 29
-42 101 -45 65 -49 75 -34 84 154 92 292 211 361 310 l37 55 94 0 c93 0 383
26 392 36 16 16 26 -10 23 -62z m-1152 -185 c0 -19 -4 -21 -31 -15 -17 3 -39
6 -48 7 -17 1 45 27 67 28 6 1 12 -9 12 -20z m-30 -2368 c-1 -5 -109 -75 -119
-76 -4 0 -31 85 -31 101 0 8 23 7 75 -4 41 -8 75 -18 75 -21z m380 -31 c35 0
37 -1 49 -49 7 -28 19 -55 27 -62 21 -17 18 -39 -25 -151 -21 -57 -41 -112
-43 -123 -3 -15 -14 -1 -41 52 -41 80 -78 140 -120 195 l-29 37 20 26 c11 14
24 40 27 57 7 30 8 30 52 24 25 -3 62 -6 83 -6z m-319 -76 c30 -9 67 -28 82
-42 29 -27 97 -115 97 -125 0 -3 -23 -32 -51 -64 -58 -66 -129 -171 -175 -256
l-31 -59 -97 196 c-53 108 -96 201 -96 206 0 8 199 159 211 160 3 0 30 -7 60
-16z m605 -88 c97 -100 130 -147 168 -243 49 -125 49 -125 -86 -11 -134 114
-219 178 -237 178 -14 0 -14 21 0 57 6 15 11 47 11 71 0 39 2 42 26 42 19 0
48 -23 118 -94z m-981 -123 c45 -93 58 -201 52 -413 -7 -234 -42 -438 -133
-765 -72 -256 -131 -413 -259 -678 -47 -99 -63 -119 -45 -58 5 18 19 99 30
180 12 80 30 184 41 231 113 483 151 702 170 967 18 268 -2 425 -65 508 l-27
34 26 7 c30 8 50 -7 74 -55 32 -64 44 -142 50 -351 6 -189 7 -200 16 -135 6
39 10 149 9 245 -1 174 -7 212 -48 312 -8 17 7 25 56 27 23 1 30 -7 53 -56z
m129 -122 c63 -154 127 -259 169 -279 15 -7 27 -21 27 -30 0 -15 -13 -17 -99
-19 l-99 -2 -5 147 c-4 136 -18 215 -52 305 -4 9 -5 17 -2 17 2 0 30 -62 61
-139z m1107 101 c88 -57 121 -104 159 -229 12 -39 44 -110 71 -157 27 -48 49
-88 49 -91 0 -3 -37 -5 -82 -5 -185 0 -341 -31 -353 -70 -3 -11 6 -43 24 -78
42 -83 74 -217 121 -512 12 -74 29 -152 37 -173 22 -54 65 -87 116 -87 41 0
132 13 173 26 18 5 24 0 33 -28 15 -47 121 -463 121 -475 0 -25 -229 -96 -414
-128 -144 -25 -133 -31 -141 83 -29 451 -84 768 -236 1371 -49 195 -89 371
-89 391 0 38 27 140 37 140 10 0 193 -152 279 -233 47 -43 90 -75 96 -71 22
14 3 163 -34 262 -22 56 -31 92 -24 92 7 0 32 -13 57 -28z m-411 3 c0 -4 -7
-19 -16 -36 -32 -63 -18 -195 56 -504 97 -408 157 -718 189 -980 21 -172 47
-503 39 -510 -2 -3 -50 -8 -106 -11 l-102 -7 0 129 c0 278 -31 620 -86 934
-19 113 -44 259 -55 325 -10 66 -21 132 -24 147 -4 24 -1 26 23 25 22 -2 28 3
30 24 2 19 -4 31 -22 43 -31 20 -34 36 -6 36 30 0 45 46 25 77 -13 19 -19 22
-36 12 -19 -10 -20 -8 -17 28 2 24 8 37 16 36 14 -3 16 13 2 22 -16 10 -12 34
14 89 14 28 32 68 40 89 8 20 20 37 25 37 6 0 11 -2 11 -5z m-196 -96 c54
-135 45 -150 -32 -50 -35 46 -59 87 -56 94 12 21 37 47 45 47 4 0 23 -41 43
-91z m-881 24 c10 -17 25 -64 33 -104 20 -91 14 -375 -11 -569 -18 -136 -83
-480 -94 -493 -4 -4 -104 41 -222 100 -214 108 -379 206 -379 225 0 6 55 97
122 202 136 213 298 460 298 453 0 -2 -20 -48 -46 -101 -25 -54 -54 -121 -65
-149 l-19 -52 23 28 c13 15 61 99 107 185 95 180 147 261 187 291 34 25 43 23
66 -16z m837 -135 c73 -102 73 -103 82 -188 10 -100 46 -336 93 -615 19 -110
41 -256 50 -325 20 -168 45 -514 45 -622 l0 -88 -167 0 c-259 0 -559 35 -819
97 l-115 27 6 35 c4 20 37 128 75 241 38 113 84 259 102 325 18 66 34 113 36
104 5 -26 -66 -273 -143 -496 -2 -7 -2 -13 1 -13 10 0 85 169 119 266 32 93
34 97 41 66 8 -41 32 -57 109 -73 70 -14 333 -18 418 -6 93 14 106 31 118 157
6 60 8 183 5 289 -5 141 -4 187 6 198 9 11 12 45 10 112 -3 99 -14 152 -36
170 -7 6 -66 13 -132 16 l-119 5 -3 30 c-3 30 -3 30 47 30 37 0 51 4 51 14 0
15 -30 26 -72 26 -29 0 -34 13 -30 78 1 29 123 242 138 242 6 0 43 -46 84
-102z m893 -20 c105 -176 407 -753 407 -777 0 -5 -45 -32 -99 -60 l-99 -51 -6
62 c-17 193 -17 263 0 286 11 15 14 34 10 53 -11 57 -76 182 -160 307 -69 103
-88 140 -100 195 -24 103 -23 103 47 -15z m-1143 -278 l0 -30 -79 0 c-43 0
-93 -3 -111 -6 -30 -7 -31 -6 -28 22 3 28 5 29 68 35 36 3 84 6 108 7 40 2 42
1 42 -28z m1228 -55 c10 -21 9 -25 -6 -25 -29 0 -324 -29 -357 -36 -27 -5 -33
-2 -43 21 -7 14 -12 28 -12 30 0 13 167 32 301 34 104 1 106 1 117 -24z m-970
-67 l3 -38 -153 0 c-84 0 -197 -3 -250 -7 -95 -6 -98 -5 -98 15 0 11 4 32 10
47 l10 25 237 -2 238 -3 3 -37z m900 -57 c18 -11 12 -51 -9 -64 -26 -16 -69 0
-69 26 0 40 42 61 78 38z m-1159 -70 c25 -25 17 -59 -15 -67 -46 -12 -72 37
-38 70 20 21 30 20 53 -3z m1274 -118 c11 -109 8 -357 -4 -391 -8 -23 -21 -35
-52 -46 -48 -18 -168 -38 -176 -30 -3 3 -4 33 -3 68 4 73 -20 227 -54 344 -13
45 -24 84 -24 86 0 2 46 6 103 10 56 4 120 11 142 16 22 4 45 8 51 9 7 1 14
-27 17 -66z m-1029 -30 c14 -90 -1 -474 -20 -493 -5 -5 -47 -12 -94 -16 l-85
-6 0 268 0 269 70 6 c133 11 122 13 129 -28z m-323 17 l99 0 0 -252 c0 -139
-4 -259 -9 -267 -7 -11 -31 -13 -123 -7 -143 8 -170 15 -179 47 -4 13 -7 129
-8 258 l-1 234 61 -7 c34 -3 106 -6 160 -6z m-1136 -125 c116 -76 437 -224
524 -241 27 -6 30 -10 25 -33 -16 -73 -36 -131 -44 -131 -18 0 -216 78 -300
118 -143 69 -296 172 -319 216 -12 21 -10 30 10 70 12 25 26 46 29 46 4 0 38
-20 75 -45z m2184 -78 c23 -118 27 -182 11 -192 -6 -4 -10 14 -10 47 0 29 -7
98 -15 152 -17 110 -17 111 -11 105 2 -2 14 -53 25 -112z m622 14 c16 -54 5
-102 -34 -138 -51 -50 -267 -161 -267 -139 0 4 9 19 21 35 12 16 22 50 26 84
l6 57 56 30 c31 17 81 50 111 74 30 24 58 42 62 40 4 -3 13 -22 19 -43z
m-2591 -296 c47 -20 89 -41 93 -45 4 -4 -22 -72 -59 -151 -36 -79 -86 -188
-110 -242 -66 -146 -60 -197 32 -282 46 -44 54 -56 54 -88 0 -26 -6 -39 -19
-47 -30 -15 -38 -13 -80 25 -21 19 -41 35 -45 35 -8 0 -6 -211 3 -285 8 -61 0
-105 -19 -105 -35 0 -210 220 -210 264 0 12 7 32 16 44 23 33 11 37 -22 9 -15
-13 -33 -42 -39 -63 l-12 -39 -28 59 c-53 111 -32 211 79 386 26 42 40 81 56
160 24 119 93 391 109 433 l11 27 52 -28 c29 -16 91 -46 138 -67z m2543 -111
c70 -175 155 -425 183 -539 29 -122 31 -202 5 -253 -24 -46 -97 -117 -133
-131 -27 -10 -40 1 -18 14 22 14 70 112 70 143 0 35 -20 81 -43 100 -12 11
-16 6 -21 -25 -14 -74 -72 -163 -107 -163 -42 0 -50 70 -19 168 11 35 20 86
20 112 0 27 5 72 11 100 14 66 7 90 -36 132 -33 31 -40 49 -76 189 -21 85 -42
165 -45 179 -5 23 1 28 68 62 40 20 78 36 83 34 6 -1 32 -56 58 -122z m-2274
-112 c0 -15 -24 -124 -53 -242 -51 -212 -52 -215 -79 -218 l-27 -3 0 88 c0
102 -14 142 -25 71 -4 -26 -5 -70 -3 -100 3 -47 1 -53 -16 -53 -13 0 -22 10
-27 30 -10 34 -16 181 -9 188 3 3 34 8 70 12 73 8 89 17 70 40 -15 18 -8 182
9 229 l11 27 40 -21 c32 -17 40 -26 39 -48z m-145 -10 c-3 -26 -1 -73 4 -105
10 -65 6 -72 -43 -63 l-35 7 6 47 c7 50 51 162 65 162 5 0 6 -21 3 -48z m210
-357 c-44 -152 -43 -167 14 -179 51 -12 50 -5 22 -207 -29 -213 -28 -209 -52
-209 -18 0 -20 4 -14 33 25 114 14 131 -26 42 l-25 -55 -26 20 c-58 46 -60
154 -8 367 26 102 38 133 80 198 28 42 53 85 56 96 4 11 8 19 10 17 2 -2 -12
-57 -31 -123z m-350 -32 c11 -47 -10 -42 -23 5 -13 43 -13 68 -4 102 6 21 8
17 14 -25 3 -27 9 -65 13 -82z m2452 55 c-3 -13 -6 -52 -6 -88 -1 -74 -14 -65
-25 16 -4 36 -3 58 7 73 17 28 32 27 24 -1z m-85 -168 c17 -105 45 -309 56
-409 4 -47 3 -62 -5 -57 -17 10 -46 112 -91 318 -22 101 -43 193 -47 205 -5
18 -1 25 17 32 47 19 53 11 70 -89z m-2191 13 c0 -3 -12 -58 -26 -122 -25
-111 -64 -211 -83 -211 -5 0 -30 29 -54 64 l-45 64 38 6 c26 4 47 16 65 38 24
28 27 39 22 83 -2 27 -7 57 -11 66 -6 12 2 15 44 16 27 0 50 -2 50 -4z m411
-44 c376 -138 810 -205 1163 -179 124 9 284 35 472 77 20 5 22 -1 33 -79 25
-185 31 -276 37 -563 5 -250 9 -312 25 -373 10 -40 19 -76 19 -80 0 -5 -84
-14 -187 -20 -104 -7 -215 -15 -248 -19 l-61 -5 -12 63 c-17 83 -157 490 -237
691 -5 13 3 20 42 31 90 27 248 115 233 131 -6 5 -19 2 -170 -38 -123 -33
-321 -60 -385 -51 -27 3 -83 15 -123 26 -41 11 -77 18 -80 14 -4 -4 8 -19 26
-33 18 -15 32 -32 32 -38 0 -16 -86 -223 -168 -404 -39 -85 -89 -215 -111
-289 -23 -74 -43 -136 -45 -138 -1 -2 -37 6 -80 17 -92 23 -245 40 -367 40
-49 0 -89 3 -89 7 0 4 22 77 49 162 l50 156 10 205 c10 225 68 720 84 720 2 0
41 -14 88 -31z m-453 -339 c-2 -13 -7 -17 -16 -11 -10 6 -10 14 -1 37 9 22 13
25 16 12 3 -10 3 -27 1 -38z m1469 -288 c28 -81 77 -217 107 -302 31 -85 54
-159 52 -165 -2 -5 -10 6 -19 25 -8 19 -45 98 -82 175 -38 77 -92 198 -121
270 -55 133 -56 145 -9 145 17 0 28 -24 72 -148z m-261 128 c44 0 74 -4 74
-10 0 -24 97 -252 195 -462 104 -220 115 -251 95 -263 -16 -10 -12 -59 11
-119 l21 -55 -32 -27 c-29 -25 -32 -32 -27 -71 2 -24 16 -60 30 -81 21 -32 24
-47 20 -85 -6 -54 13 -93 51 -103 22 -5 27 -17 45 -96 20 -86 20 -93 5 -156
-9 -37 -16 -102 -16 -144 l-1 -77 -465 5 -466 5 -14 52 c-17 66 -53 129 -94
161 l-33 25 0 105 c0 115 5 127 56 131 18 2 42 14 57 29 22 21 27 36 27 79 1
39 7 61 25 84 30 42 30 86 0 111 l-23 19 36 59 c39 63 46 94 23 113 -12 10 -9
29 20 119 18 60 58 160 87 223 30 62 84 187 122 277 50 118 73 161 83 157 7
-3 47 -5 88 -5z m458 -751 c-3 -5 -11 -9 -19 -9 -11 0 -12 6 -3 32 11 31 11
31 20 9 4 -13 6 -27 2 -32z m644 -134 c1 -1 -1 -19 -6 -41 l-8 -39 -154 -17
c-131 -14 -403 -62 -476 -83 -18 -6 -24 -1 -34 30 -8 24 -9 40 -3 46 15 15
174 57 302 80 166 30 358 42 379 24z m-2142 -10 c157 -26 527 -107 542 -120 4
-4 -46 -85 -52 -85 -2 0 -66 16 -142 35 -134 34 -375 75 -443 75 -32 0 -33 1
-27 31 3 17 6 42 6 55 0 28 -5 28 116 9z m2138 -121 c14 -35 6 -41 -61 -48
-116 -12 -312 -55 -434 -96 -65 -22 -123 -40 -128 -40 -26 0 -7 22 42 50 77
44 231 89 447 130 121 23 127 23 134 4z m-1824 -89 c91 -14 171 -27 178 -30
10 -4 18 -45 8 -45 -2 0 -56 13 -121 29 -133 34 -274 57 -425 71 -104 9 -103
9 45 5 93 -2 212 -14 315 -30z m-309 -92 c-5 -10 -24 -31 -42 -48 -30 -28 -29
-26 6 18 41 50 52 58 36 30z m1944 -43 c-27 -12 -43 -12 -25 0 8 5 22 9 30 9
10 0 8 -3 -5 -9z m-1719 -16 c18 -14 18 -14 -6 -3 -31 14 -36 19 -24 19 6 0
19 -7 30 -16z m1779 6 c-3 -5 -12 -10 -18 -10 -7 0 -6 4 3 10 19 12 23 12 15
0z m-2127 -107 c-64 -96 -107 -182 -144 -293 -16 -47 -30 -78 -32 -69 -9 46
87 253 175 377 62 88 63 77 1 -15z m275 70 c-7 -2 -21 -2 -30 0 -10 3 -4 5 12
5 17 0 24 -2 18 -5z m100 0 c-7 -2 -19 -2 -25 0 -7 3 -2 5 12 5 14 0 19 -2 13
-5z m1736 3 c-12 -10 -60 -16 -54 -6 3 5 18 10 32 10 15 0 24 -2 22 -4z m94
-3 c-7 -2 -21 -2 -30 0 -10 3 -4 5 12 5 17 0 24 -2 18 -5z m-1947 -29 c10 -8
12 -12 4 -8 -8 5 -35 11 -60 15 l-45 6 41 2 c23 0 48 -5 60 -15z m221 10 c-3
-3 -12 -4 -19 -1 -8 3 -5 6 6 6 11 1 17 -2 13 -5z m-80 -60 c-3 -3 -12 -4 -19
-1 -8 3 -5 6 6 6 11 1 17 -2 13 -5z m1748 -24 c-38 -3 -79 -3 -90 1 -11 4 20
7 70 7 l90 -1 -70 -7z m-1830 -20 c19 -8 19 -9 -2 -9 -12 -1 -25 4 -28 9 -7
12 2 12 30 0z m1866 -39 c-30 -10 -66 -15 -80 -12 -20 4 -14 7 26 11 28 3 55
9 59 13 4 4 17 7 28 6 12 0 -3 -8 -33 -18z m488 -61 c52 -14 98 -34 124 -54
43 -33 76 -80 65 -92 -4 -3 -36 -9 -71 -11 -55 -5 -75 -1 -144 25 -43 17 -119
38 -168 48 -50 9 -101 19 -115 22 l-25 6 23 4 c62 10 233 -28 377 -84 20 -7
20 -7 0 15 -27 31 -161 94 -265 126 l-85 26 100 -5 c60 -2 134 -13 184 -26z
m-2741 -70 c-32 -72 -49 -88 -29 -28 11 34 47 98 55 98 3 0 -9 -32 -26 -70z
m588 25 c87 -43 143 -148 98 -185 -11 -10 -67 -14 -202 -16 -149 -1 -164 -1
-72 5 63 3 121 10 128 14 40 26 -19 112 -106 153 -73 35 -188 44 -256 21 -50
-17 -59 -15 -23 5 45 25 133 37 254 34 110 -3 128 -6 179 -31z m2364 -195 c0
-58 -125 -84 -405 -85 -233 0 -305 7 -330 31 -33 33 -19 39 73 32 201 -15 423
-5 565 26 88 20 97 19 97 -4z m-845 -69 c-4 -14 -8 -27 -9 -28 -1 -1 -72 3
-158 10 -151 11 -157 12 -161 34 -2 12 -3 24 -1 25 1 2 77 -1 169 -6 l166 -9
-6 -26z m-2056 9 c103 -13 528 -18 594 -7 46 8 47 8 47 -17 0 -14 -4 -27 -9
-31 -30 -18 -234 -26 -418 -16 -275 15 -363 34 -363 77 0 13 7 15 33 10 17 -3
70 -11 116 -16z"/>
<path d="M5230 9616 c-199 -26 -446 -83 -530 -124 l-35 -17 2 -125 c2 -155 32
-282 99 -417 87 -175 186 -281 337 -359 107 -55 171 -78 307 -109 l105 -25 79
41 c237 120 360 257 413 459 35 134 19 358 -41 561 -24 80 -33 90 -112 106
-99 20 -489 26 -624 9z m542 -77 c57 -7 108 -16 114 -21 14 -10 50 -155 64
-253 28 -205 -8 -383 -105 -516 -46 -62 -140 -133 -235 -177 -69 -32 -79 -34
-145 -29 -414 34 -690 340 -741 823 l-7 62 34 10 c289 92 716 134 1021 101z"/>
<path d="M5268 9499 c-119 -10 -365 -45 -433 -62 l-50 -12 2 -92 c4 -218 103
-438 259 -581 117 -108 252 -157 413 -150 86 3 104 8 172 41 133 64 230 190
275 357 22 82 22 243 0 359 -24 127 -30 135 -101 142 -83 9 -420 8 -537 -2z
m540 -45 c23 -3 42 -8 42 -12 0 -4 7 -41 16 -82 34 -162 13 -354 -52 -483 -54
-105 -162 -192 -278 -223 -184 -49 -416 44 -546 221 -86 116 -155 299 -167
441 -7 83 -17 75 122 98 285 47 661 65 863 40z"/>
<path d="M5747 9366 c-16 -35 -46 -81 -68 -102 l-39 -38 -32 31 c-48 45 -94
65 -165 71 -99 8 -179 -32 -218 -108 -18 -36 -11 -38 -153 54 -53 35 -108 75
-121 90 -14 14 -28 26 -33 26 -13 0 -9 -69 8 -140 18 -79 53 -135 90 -144 15
-4 46 -24 70 -44 49 -44 134 -92 178 -102 20 -4 30 -12 27 -21 -19 -65 -16
-70 84 -154 104 -87 120 -96 151 -85 54 21 137 168 140 248 2 42 8 60 27 80
28 30 51 74 60 113 4 15 15 29 25 31 23 6 32 46 32 142 0 134 -20 150 -63 52z
m-725 -107 c82 -56 166 -99 192 -99 14 0 29 14 46 41 38 62 81 84 165 84 60 0
77 -4 119 -30 26 -16 59 -36 72 -43 13 -7 24 -21 24 -30 0 -11 24 8 65 50 l65
68 0 -40 c0 -28 -5 -40 -18 -44 -11 -4 -22 -23 -29 -49 -27 -98 -94 -157 -179
-157 -30 0 -54 -4 -54 -10 0 -14 53 -60 69 -60 10 0 11 3 2 14 -9 11 -7 15 11
20 52 13 61 9 55 -29 -13 -78 -95 -219 -124 -213 -23 5 -182 142 -182 157 -1
8 4 30 11 48 14 38 3 53 -38 53 -34 0 -122 49 -177 99 -29 26 -67 53 -85 60
-18 8 -38 23 -44 34 -10 19 -8 20 23 14 32 -6 33 -6 15 8 -11 8 -25 15 -32 15
-6 0 -16 6 -21 13 -12 15 -26 67 -18 67 4 0 33 -18 67 -41z"/>
<path d="M5420 9162 c-30 -14 -35 -23 -38 -55 -3 -38 18 -87 38 -87 14 0 50
75 50 106 0 26 1 26 19 10 23 -21 37 -6 21 24 -13 25 -44 26 -90 2z m20 -66
c0 -16 -18 -31 -27 -22 -8 8 5 36 17 36 5 0 10 -6 10 -14z"/>
<path d="M6050 7311 c-110 -36 -187 -132 -224 -282 -26 -107 -36 -253 -26
-383 20 -241 66 -352 165 -397 154 -70 317 70 386 333 30 111 30 296 1 413
-11 44 -19 81 -17 83 2 2 12 -5 22 -15 42 -42 94 -75 109 -69 12 5 14 15 9 49
-4 28 -1 63 10 101 9 32 14 60 11 63 -3 3 -23 -9 -44 -26 -38 -29 -72 -40 -72
-23 0 17 -98 106 -142 128 -52 26 -147 39 -188 25z m230 -311 c51 -27 66 -179
22 -223 l-22 -21 -27 20 c-50 37 -65 153 -27 212 16 24 26 27 54 12z m-338
-597 c7 -27 -2 -43 -23 -43 -22 0 -34 22 -25 45 8 21 43 19 48 -2z"/>
<path d="M4445 7187 c-92 -24 -193 -86 -291 -179 l-92 -88 -63 -6 c-96 -9 -97
-10 -57 -52 33 -34 36 -43 43 -120 7 -88 30 -182 44 -182 5 0 14 30 21 68 7
37 23 90 37 119 24 52 121 166 108 128 -73 -224 -33 -504 93 -660 76 -94 180
-131 294 -105 111 26 197 102 254 225 48 104 67 192 67 320 2 238 -80 430
-219 511 -53 31 -162 40 -239 21z m315 -295 c28 -28 60 -113 60 -159 0 -42
-28 -83 -56 -83 -38 0 -62 17 -84 59 -49 96 -28 209 38 211 8 0 26 -13 42 -28z
m-409 -612 c33 -18 22 -80 -15 -80 -43 0 -61 44 -30 74 18 19 20 19 45 6z"/>
<path d="M2884 6665 c-18 -9 -42 -27 -54 -40 -21 -23 -72 -136 -65 -144 3 -2
25 20 51 48 26 29 59 58 75 66 37 19 120 19 167 0 41 -17 132 -76 132 -86 0
-4 -18 -9 -41 -13 -26 -4 -52 -17 -71 -37 -27 -27 -30 -35 -26 -77 6 -62 45
-120 117 -172 l57 -42 -28 -28 c-40 -41 -40 -105 2 -145 63 -60 181 -37 196
39 13 72 -24 128 -93 141 -74 14 -193 126 -208 196 -5 24 -2 36 16 55 34 37
77 40 148 11 62 -25 62 -25 55 -3 -21 66 -129 177 -211 217 -62 30 -174 37
-219 14z m436 -545 c42 -23 45 -76 6 -102 -19 -13 -60 -9 -84 8 -25 17 -31 71
-10 92 15 15 63 16 88 2z"/>
<path d="M5590 6317 c0 -4 18 -16 39 -27 50 -25 71 -55 71 -102 0 -52 -16 -87
-58 -130 l-36 -38 28 0 c41 0 112 73 127 131 11 40 10 50 -7 84 -10 21 -31 47
-45 58 -25 18 -119 37 -119 24z"/>
<path d="M6358 6085 c-13 -29 3 -55 33 -55 27 0 46 44 29 65 -19 23 -49 18
-62 -10z"/>
<path d="M6207 6083 c-10 -10 -8 -51 2 -57 24 -15 54 21 44 52 -5 13 -35 17
-46 5z"/>
<path d="M4362 5938 c-18 -18 -15 -36 11 -52 30 -20 67 -10 67 18 0 28 -18 46
-45 46 -12 0 -26 -5 -33 -12z"/>
<path d="M4162 5919 c-29 -11 -28 -44 3 -65 42 -27 87 4 65 45 -12 23 -39 31
-68 20z"/>
<path d="M4840 5888 c0 -29 119 -144 187 -181 66 -35 190 -67 262 -67 142 1
282 58 365 151 50 56 66 94 46 112 -9 9 -19 3 -43 -28 -50 -62 -87 -95 -139
-121 -194 -98 -439 -57 -588 98 -59 61 -90 74 -90 36z"/>
<path d="M4530 4923 c0 -23 52 -114 76 -133 16 -14 17 -13 10 5 -10 28 -76
145 -81 145 -3 0 -5 -8 -5 -17z"/>
<path d="M5456 4823 c9 -36 31 -80 45 -89 14 -8 4 26 -22 79 -23 44 -32 48
-23 10z"/>
<path d="M5184 4094 c-9 -33 7 -84 29 -98 39 -23 63 57 31 102 -21 30 -52 29
-60 -4z"/>
<path d="M5281 3686 c-17 -20 -10 -97 10 -109 31 -20 49 -1 49 51 0 64 -30 93
-59 58z"/>
<path d="M3932 2664 c-20 -85 -29 -175 -17 -162 8 8 46 230 42 243 -2 5 -14
-31 -25 -81z"/>
<path d="M4155 2078 c-15 -114 -45 -317 -50 -348 -6 -35 -6 -35 8 -10 24 41
45 157 53 283 7 115 1 158 -11 75z"/>
</g>
</svg>
